<svg width="64" height="64" viewBox="0 0 64 64" fill="none" xmlns="http://www.w3.org/2000/svg">
<path d="M13.3333 58.6667C12.6261 58.6667 11.9478 58.3858 11.4477 57.8857C10.9476 57.3856 10.6667 56.7073 10.6667 56V34.6667C10.6667 33.9595 10.9476 33.2812 11.4477 32.7811C11.9478 32.281 12.6261 32 13.3333 32C14.0406 32 14.7189 32.281 15.219 32.7811C15.7191 33.2812 16 33.9595 16 34.6667V56C16 56.7073 15.7191 57.3856 15.219 57.8857C14.7189 58.3858 14.0406 58.6667 13.3333 58.6667ZM26.6667 58.6667C25.9594 58.6667 25.2811 58.3858 24.7811 57.8857C24.281 57.3856 24 56.7073 24 56V8.00004C24 7.2928 24.281 6.61452 24.7811 6.11442C25.2811 5.61433 25.9594 5.33337 26.6667 5.33337C27.3739 5.33337 28.0522 5.61433 28.5523 6.11442C29.0524 6.61452 29.3333 7.2928 29.3333 8.00004V56C29.3333 56.7073 29.0524 57.3856 28.5523 57.8857C28.0522 58.3858 27.3739 58.6667 26.6667 58.6667ZM40 58.6667C39.2928 58.6667 38.6145 58.3858 38.1144 57.8857C37.6143 57.3856 37.3333 56.7073 37.3333 56V24C37.3333 23.2928 37.6143 22.6145 38.1144 22.1144C38.6145 21.6143 39.2928 21.3334 40 21.3334C40.7072 21.3334 41.3855 21.6143 41.8856 22.1144C42.3857 22.6145 42.6667 23.2928 42.6667 24V56C42.6667 56.7073 42.3857 57.3856 41.8856 57.8857C41.3855 58.3858 40.7072 58.6667 40 58.6667ZM53.3333 58.6667C52.6261 58.6667 51.9478 58.3858 51.4477 57.8857C50.9476 57.3856 50.6667 56.7073 50.6667 56V45.3334C50.6667 44.6261 50.9476 43.9478 51.4477 43.4478C51.9478 42.9477 52.6261 42.6667 53.3333 42.6667C54.0406 42.6667 54.7189 42.9477 55.219 43.4478C55.7191 43.9478 56 44.6261 56 45.3334V56C56 56.7073 55.7191 57.3856 55.219 57.8857C54.7189 58.3858 54.0406 58.6667 53.3333 58.6667Z" fill="#5AC777"/>
</svg>
