<svg width="16" height="17" viewBox="0 0 16 17" fill="none" xmlns="http://www.w3.org/2000/svg">
<g clip-path="url(#clip0_119_16177)">
<path d="M8 16.5C12.4183 16.5 16 12.9183 16 8.5C16 4.08172 12.4183 0.5 8 0.5C3.58172 0.5 0 4.08172 0 8.5C0 12.9183 3.58172 16.5 8 16.5Z" fill="#6DA544"/>
<path d="M4.52197 10.0652C4.52197 10.6415 4.98916 11.1087 5.56544 11.1087H8.69588C8.69588 11.5889 9.0852 11.9782 9.56545 11.9782H10.6089C11.0892 11.9782 11.4785 11.5889 11.4785 11.1087V10.0652H4.52197Z" fill="#F0F0F0"/>
<path d="M11.565 5.02222V7.45699C11.565 7.84059 11.253 8.15265 10.8694 8.15265V9.19612C11.8284 9.19612 12.6085 8.41593 12.6085 7.45699V5.02222H11.565Z" fill="#F0F0F0"/>
<path d="M4.08701 7.45675C4.08701 7.84034 3.77495 8.1524 3.39136 8.1524V9.19587C4.35033 9.19587 5.13048 8.41569 5.13048 7.45675V5.02197H4.08701V7.45675Z" fill="#F0F0F0"/>
<path d="M11.0437 5.02222H10.0002V7.457H11.0437V5.02222Z" fill="#F0F0F0"/>
<path d="M8.43494 6.41353C8.43494 6.50943 8.35691 6.58743 8.26104 6.58743C8.16516 6.58743 8.08713 6.5094 8.08713 6.41353V5.02222H7.04366V6.41353C7.04366 6.50943 6.96563 6.58743 6.86975 6.58743C6.77388 6.58743 6.69585 6.5094 6.69585 6.41353V5.02222H5.65234V6.41353C5.65234 7.08481 6.19847 7.63093 6.86975 7.63093C7.12828 7.63093 7.36803 7.54968 7.56541 7.41168C7.76275 7.54965 8.00254 7.63093 8.26107 7.63093C8.31313 7.63093 8.36432 7.62728 8.41466 7.62087C8.34072 7.92553 8.06635 8.15265 7.73932 8.15265V9.19612C8.69829 9.19612 9.47844 8.41593 9.47844 7.457V6.41353V5.02222H8.43497V6.41353H8.43494Z" fill="#F0F0F0"/>
<path d="M7.21756 8.1521H5.65234V9.19557H7.21756V8.1521Z" fill="#F0F0F0"/>
</g>
<defs>
<clipPath id="clip0_119_16177">
<rect width="16" height="16" fill="white" transform="translate(0 0.5)"/>
</clipPath>
</defs>
</svg>
