<svg width="96" height="24" viewBox="0 0 96 24" fill="none" xmlns="http://www.w3.org/2000/svg">
<path d="M3.99994 10L3.29294 10.707L2.58594 10L3.29294 9.293L3.99994 10ZM20.9999 18C20.9999 18.2652 20.8946 18.5196 20.707 18.7071C20.5195 18.8946 20.2652 19 19.9999 19C19.7347 19 19.4804 18.8946 19.2928 18.7071C19.1053 18.5196 18.9999 18.2652 18.9999 18H20.9999ZM8.29294 15.707L3.29294 10.707L4.70694 9.293L9.70694 14.293L8.29294 15.707ZM3.29294 9.293L8.29294 4.293L9.70694 5.707L4.70694 10.707L3.29294 9.293ZM3.99994 9H13.9999V11H3.99994V9ZM20.9999 16V18H18.9999V16H20.9999ZM13.9999 9C15.8565 9 17.6369 9.7375 18.9497 11.0503C20.2624 12.363 20.9999 14.1435 20.9999 16H18.9999C18.9999 14.6739 18.4732 13.4021 17.5355 12.4645C16.5978 11.5268 15.326 11 13.9999 11V9Z" fill="#E1CFB4"/>
<path d="M40.9432 10.0795C40.8485 9.77273 40.7178 9.49811 40.5511 9.25568C40.3883 9.00947 40.1913 8.79924 39.9602 8.625C39.733 8.45076 39.4716 8.32008 39.1761 8.23295C38.8807 8.14205 38.5587 8.09659 38.2102 8.09659C37.5852 8.09659 37.0284 8.25379 36.5398 8.56818C36.0511 8.88258 35.6667 9.3447 35.3864 9.95455C35.1098 10.5606 34.9716 11.2992 34.9716 12.1705C34.9716 13.0492 35.1098 13.7936 35.3864 14.4034C35.6629 15.0133 36.0473 15.4773 36.5398 15.7955C37.0322 16.1098 37.6042 16.267 38.2557 16.267C38.8466 16.267 39.358 16.1534 39.7898 15.9261C40.2254 15.6989 40.5606 15.3769 40.7955 14.9602C41.0303 14.5398 41.1477 14.0473 41.1477 13.483L41.625 13.5568H38.4659V11.9091H43.1875V13.3068C43.1875 14.303 42.9754 15.1648 42.5511 15.892C42.1269 16.6193 41.5436 17.1799 40.8011 17.5739C40.0587 17.964 39.2064 18.1591 38.2443 18.1591C37.1723 18.1591 36.2311 17.9186 35.4205 17.4375C34.6136 16.9527 33.983 16.2652 33.5284 15.375C33.0777 14.4811 32.8523 13.4205 32.8523 12.1932C32.8523 11.2538 32.9848 10.4148 33.25 9.67614C33.5189 8.9375 33.8939 8.31061 34.375 7.79545C34.8561 7.27651 35.4205 6.88258 36.0682 6.61364C36.7159 6.34091 37.4205 6.20455 38.1818 6.20455C38.8258 6.20455 39.4261 6.29924 39.983 6.48864C40.5398 6.67424 41.0341 6.93939 41.4659 7.28409C41.9015 7.62879 42.2595 8.03788 42.5398 8.51136C42.8201 8.98485 43.0038 9.50758 43.0909 10.0795H40.9432ZM48.9418 18.1705C48.0895 18.1705 47.3509 17.983 46.7259 17.608C46.1009 17.233 45.616 16.7083 45.2713 16.0341C44.9304 15.3598 44.7599 14.572 44.7599 13.6705C44.7599 12.7689 44.9304 11.9792 45.2713 11.3011C45.616 10.6231 46.1009 10.0966 46.7259 9.72159C47.3509 9.34659 48.0895 9.15909 48.9418 9.15909C49.794 9.15909 50.5327 9.34659 51.1577 9.72159C51.7827 10.0966 52.2656 10.6231 52.6065 11.3011C52.9512 11.9792 53.1236 12.7689 53.1236 13.6705C53.1236 14.572 52.9512 15.3598 52.6065 16.0341C52.2656 16.7083 51.7827 17.233 51.1577 17.608C50.5327 17.983 49.794 18.1705 48.9418 18.1705ZM48.9531 16.5227C49.4152 16.5227 49.8016 16.3958 50.1122 16.142C50.4228 15.8845 50.6539 15.5398 50.8054 15.108C50.9607 14.6761 51.0384 14.1951 51.0384 13.6648C51.0384 13.1307 50.9607 12.6477 50.8054 12.2159C50.6539 11.7803 50.4228 11.4337 50.1122 11.1761C49.8016 10.9186 49.4152 10.7898 48.9531 10.7898C48.4796 10.7898 48.0857 10.9186 47.7713 11.1761C47.4607 11.4337 47.2277 11.7803 47.0724 12.2159C46.9209 12.6477 46.8452 13.1307 46.8452 13.6648C46.8452 14.1951 46.9209 14.6761 47.0724 15.108C47.2277 15.5398 47.4607 15.8845 47.7713 16.142C48.0857 16.3958 48.4796 16.5227 48.9531 16.5227ZM58.929 18V6.36364H63.3835C64.2244 6.36364 64.9233 6.49621 65.4801 6.76136C66.0407 7.02273 66.4593 7.38068 66.7358 7.83523C67.0161 8.28977 67.1562 8.80492 67.1562 9.38068C67.1562 9.85417 67.0653 10.2595 66.8835 10.5966C66.7017 10.9299 66.4574 11.2008 66.1506 11.4091C65.8438 11.6174 65.5009 11.767 65.1222 11.858V11.9716C65.535 11.9943 65.9309 12.1212 66.3097 12.3523C66.6922 12.5795 67.0047 12.9015 67.2472 13.3182C67.4896 13.7348 67.6108 14.2386 67.6108 14.8295C67.6108 15.4318 67.465 15.9735 67.1733 16.4545C66.8816 16.9318 66.4422 17.3087 65.8551 17.5852C65.268 17.8617 64.5294 18 63.6392 18H58.929ZM61.0369 16.2386H63.304C64.0691 16.2386 64.6203 16.0928 64.9574 15.8011C65.2983 15.5057 65.4688 15.1269 65.4688 14.6648C65.4688 14.3201 65.3835 14.0095 65.2131 13.733C65.0426 13.4527 64.8002 13.233 64.4858 13.0739C64.1714 12.911 63.7964 12.8295 63.3608 12.8295H61.0369V16.2386ZM61.0369 11.3125H63.1222C63.4858 11.3125 63.8134 11.2462 64.1051 11.1136C64.3968 10.9773 64.6259 10.786 64.7926 10.5398C64.9631 10.2898 65.0483 9.99432 65.0483 9.65341C65.0483 9.20265 64.8892 8.83144 64.571 8.53977C64.2566 8.24811 63.7888 8.10227 63.1676 8.10227H61.0369V11.3125ZM71.8651 18.1761C71.312 18.1761 70.8139 18.0777 70.3707 17.8807C69.9313 17.6799 69.5829 17.3845 69.3253 16.9943C69.0715 16.6042 68.9446 16.1231 68.9446 15.5511C68.9446 15.0587 69.0355 14.6515 69.2173 14.3295C69.3991 14.0076 69.6473 13.75 69.9616 13.5568C70.276 13.3636 70.6302 13.2178 71.0241 13.1193C71.4219 13.017 71.8329 12.9432 72.2571 12.8977C72.7685 12.8447 73.1832 12.7973 73.5014 12.7557C73.8196 12.7102 74.0507 12.642 74.1946 12.5511C74.3423 12.4564 74.4162 12.3106 74.4162 12.1136V12.0795C74.4162 11.6515 74.2893 11.3201 74.0355 11.0852C73.7817 10.8504 73.4162 10.733 72.9389 10.733C72.4351 10.733 72.0355 10.8428 71.7401 11.0625C71.4484 11.2822 71.2514 11.5417 71.1491 11.8409L69.2287 11.5682C69.3802 11.0379 69.6302 10.5947 69.9787 10.2386C70.3272 9.87879 70.7533 9.60985 71.2571 9.43182C71.7609 9.25 72.3177 9.15909 72.9276 9.15909C73.348 9.15909 73.7666 9.20833 74.1832 9.30682C74.5999 9.4053 74.9806 9.56818 75.3253 9.79545C75.67 10.0189 75.9465 10.3239 76.1548 10.7102C76.367 11.0966 76.473 11.5795 76.473 12.1591V18H74.4957V16.8011H74.4276C74.3026 17.0436 74.1264 17.2708 73.8991 17.483C73.6757 17.6913 73.3935 17.8598 73.0526 17.9886C72.7154 18.1136 72.3196 18.1761 71.8651 18.1761ZM72.3991 16.6648C72.812 16.6648 73.17 16.5833 73.473 16.4205C73.776 16.2538 74.009 16.0341 74.1719 15.7614C74.3385 15.4886 74.4219 15.1913 74.4219 14.8693V13.8409C74.3575 13.8939 74.2476 13.9432 74.0923 13.9886C73.9408 14.0341 73.7704 14.0739 73.581 14.108C73.3916 14.142 73.2041 14.1723 73.0185 14.1989C72.8329 14.2254 72.6719 14.2481 72.5355 14.267C72.2287 14.3087 71.9541 14.3769 71.7116 14.4716C71.4692 14.5663 71.2779 14.6989 71.1378 14.8693C70.9976 15.036 70.9276 15.2519 70.9276 15.517C70.9276 15.8958 71.0658 16.1818 71.3423 16.375C71.6188 16.5682 71.9711 16.6648 72.3991 16.6648ZM82.348 18.1705C81.4768 18.1705 80.7287 17.9792 80.1037 17.5966C79.4825 17.214 79.0033 16.6856 78.6662 16.0114C78.3329 15.3333 78.1662 14.553 78.1662 13.6705C78.1662 12.7841 78.3366 12.0019 78.6776 11.3239C79.0185 10.642 79.4995 10.1117 80.1207 9.73295C80.7457 9.35038 81.4844 9.15909 82.3366 9.15909C83.045 9.15909 83.6719 9.28977 84.2173 9.55114C84.7666 9.80871 85.2041 10.1742 85.5298 10.6477C85.8556 11.1174 86.0412 11.6667 86.0866 12.2955H84.1207C84.0412 11.875 83.8518 11.5246 83.5526 11.2443C83.2571 10.9602 82.8613 10.8182 82.3651 10.8182C81.9446 10.8182 81.5753 10.9318 81.2571 11.1591C80.9389 11.3826 80.6908 11.7045 80.5128 12.125C80.3385 12.5455 80.2514 13.0492 80.2514 13.6364C80.2514 14.2311 80.3385 14.7424 80.5128 15.1705C80.687 15.5947 80.9313 15.9223 81.2457 16.1534C81.5639 16.3807 81.937 16.4943 82.3651 16.4943C82.6681 16.4943 82.9389 16.4375 83.1776 16.3239C83.42 16.2064 83.6226 16.0379 83.7855 15.8182C83.9484 15.5985 84.0601 15.3314 84.1207 15.017H86.0866C86.0374 15.6345 85.8556 16.1818 85.5412 16.6591C85.2268 17.1326 84.7988 17.5038 84.2571 17.7727C83.7154 18.0379 83.0791 18.1705 82.348 18.1705ZM89.6506 15.2614L89.6449 12.7784H89.9744L93.1108 9.27273H95.5142L91.6562 13.5682H91.2301L89.6506 15.2614ZM87.7756 18V6.36364H89.8324V18H87.7756ZM93.2528 18L90.4119 14.0284L91.7983 12.5795L95.7131 18H93.2528Z" fill="#E1CFB4"/>
</svg>
