<svg width="16" height="17" viewBox="0 0 16 17" fill="none" xmlns="http://www.w3.org/2000/svg">
<g clip-path="url(#clip0_119_16168)">
<path d="M8 16.5C12.4183 16.5 16 12.9183 16 8.5C16 4.08172 12.4183 0.5 8 0.5C3.58172 0.5 0 4.08172 0 8.5C0 12.9183 3.58172 16.5 8 16.5Z" fill="#F0F0F0"/>
<path d="M16.0005 8.50086C16.0005 5.32918 14.1547 2.58868 11.4788 1.29468V15.707C14.1547 14.4131 16.0005 11.6726 16.0005 8.50086Z" fill="#D80027"/>
<path d="M0.000244141 8.50038C0.000244141 11.6721 1.84603 14.4126 4.52199 15.7066V1.29419C1.84603 2.58819 0.000244141 5.32869 0.000244141 8.50038Z" fill="#D80027"/>
<path d="M9.39168 9.54417L10.783 8.84851L10.0873 8.5007V7.80504L8.69602 8.5007L9.39168 7.10939H8.69602L8.00037 6.06592L7.30471 7.10939H6.60905L7.30471 8.5007L5.9134 7.80504V8.5007L5.21777 8.84851L6.60905 9.54417L6.26124 10.2398H7.65255V11.2833H8.34818V10.2398H9.73949L9.39168 9.54417Z" fill="#D80027"/>
</g>
<defs>
<clipPath id="clip0_119_16168">
<rect width="16" height="16" fill="white" transform="translate(0 0.5)"/>
</clipPath>
</defs>
</svg>
