<svg width="64" height="64" viewBox="0 0 64 64" fill="none" xmlns="http://www.w3.org/2000/svg">
<path d="M32 36C34.2091 36 36 34.2091 36 32C36 29.7909 34.2091 28 32 28C29.7909 28 28 29.7909 28 32C28 34.2091 29.7909 36 32 36Z" fill="#5AC777"/>
<path d="M60 34V30H47.66L52.82 24.82L50 22L40 32L50 42L52.82 39.18L47.66 34H60ZM30 47.66V60H34V47.66L39.18 52.82L42 50L32 40L22 50L24.82 52.82L30 47.66ZM14 22L11.18 24.82L16.34 30H4V34H16.34L11.18 39.18L14 42L24 32L14 22ZM34 16.34V4H30V16.34L24.82 11.18L22 14L32 24L42 14L39.18 11.18L34 16.34Z" fill="#5AC777"/>
</svg>
