<svg width="16" height="17" viewBox="0 0 16 17" fill="none" xmlns="http://www.w3.org/2000/svg">
<g clip-path="url(#clip0_119_16198)">
<path d="M8 16.5C12.4183 16.5 16 12.9183 16 8.5C16 4.08172 12.4183 0.5 8 0.5C3.58172 0.5 0 4.08172 0 8.5C0 12.9183 3.58172 16.5 8 16.5Z" fill="#D80027"/>
<path d="M4.37813 5.36768L5.06875 7.49267H7.30313L5.49688 8.8083L6.1875 10.9333L4.37813 9.6208L2.56875 10.9333L3.2625 8.8083L1.45312 7.49267H3.6875L4.37813 5.36768Z" fill="#FFDA44"/>
<path d="M9.48399 12.8898L8.95586 12.2398L8.17461 12.543L8.62774 11.8398L8.09961 11.1867L8.90899 11.4023L9.36524 10.6992L9.40899 11.5367L10.2215 11.7523L9.43711 12.0523L9.48399 12.8898Z" fill="#FFDA44"/>
<path d="M10.5345 10.9836L10.7845 10.1836L10.1001 9.69922L10.9376 9.68672L11.1845 8.88672L11.4563 9.68047L12.2938 9.67109L11.622 10.1711L11.8907 10.9648L11.2063 10.4805L10.5345 10.9836Z" fill="#FFDA44"/>
<path d="M11.9501 6.37124L11.5814 7.12437L12.1814 7.70874L11.3533 7.58999L10.9845 8.33999L10.8408 7.51499L10.0095 7.39624L10.7533 7.00562L10.6095 6.17749L11.2095 6.76187L11.9501 6.37124Z" fill="#FFDA44"/>
<path d="M9.50596 4.09009L9.44346 4.92446L10.2216 5.24009L9.40596 5.44009L9.34658 6.27759L8.90596 5.56509L8.09033 5.76509L8.63096 5.12446L8.18721 4.41509L8.96533 4.73071L9.50596 4.09009Z" fill="#FFDA44"/>
</g>
<defs>
<clipPath id="clip0_119_16198">
<rect width="16" height="16" fill="white" transform="translate(0 0.5)"/>
</clipPath>
</defs>
</svg>
