<svg width="100" height="32" viewBox="0 0 100 32" fill="none" xmlns="http://www.w3.org/2000/svg">
<g clip-path="url(#clip0_119_10544)">
<path d="M70.0675 2.83252C70.0675 2.83252 68.2083 3.57264 66.046 5.95588C63.8837 8.33912 62.6243 11.0191 63.5563 11.7318C63.9143 12.0027 64.7399 12.0543 66.2379 10.6998C67.6203 9.49949 68.7055 7.99485 69.408 6.30418C70.3755 3.94512 70.0675 2.86154 70.0675 2.83574M81.9015 7.12009C79.4989 5.88816 77.7429 4.37888 75.9159 3.44526C74.1729 2.55033 73.0457 2.17624 71.6364 2.3649C71.4398 2.39994 71.2459 2.44843 71.0559 2.51002C71.0559 2.51002 71.7816 4.9884 68.8936 9.15181C65.9686 13.3733 63.3145 13.3442 62.5598 12.1849C61.7697 10.961 62.7904 8.46651 64.4948 6.24613C66.2798 3.92416 69.4144 1.99887 69.4144 1.99887C69.4144 1.99887 68.4147 1.38774 65.9605 2.7793C63.566 4.13056 59.4445 7.35551 55.6197 12.7944C51.7949 18.2333 51.0371 21.226 50.4888 23.5819C49.9406 25.9377 50.4388 28.4612 53.051 28.4612C55.6633 28.4612 58.7044 24.4768 59.5622 23.0917C61.157 20.5117 62.197 16.5547 60.0266 17.0981C58.9575 17.3658 58.0916 18.5493 57.545 19.6893C57.1999 20.4216 56.936 21.1894 56.7581 21.9791C55.9997 22.2916 55.2874 22.7061 54.6409 23.211C53.9218 23.7437 53.2496 24.3371 52.6318 24.9847C52.6318 24.9847 52.6415 23.1013 54.1427 20.0538C55.6439 17.0062 58.3996 15.6146 59.9605 15.484C61.3666 15.3711 63.1967 16.5644 61.6455 20.9664C60.0943 25.3685 55.5181 30.7203 50.7113 30.7864C46.2754 30.8477 43.373 25.1863 49.5471 15.3066C56.3808 4.39178 64.3964 1.04267 66.999 0.670186C69.6015 0.297704 70.448 1.44579 70.448 1.44579C72.0147 0.803062 73.7067 0.524092 75.3967 0.629874C78.5749 0.844333 81.0323 3.09374 84.2766 4.67396C83.4333 5.4802 82.6287 6.32675 81.9031 7.12009M96.1799 3.44526C93.9773 4.85779 90.9297 6.13809 88.0015 5.86397C87.2597 6.6299 86.4664 7.51676 85.6714 8.48424C90.7491 9.48882 95.1979 6.34288 97.5634 3.66455C98.4258 2.7016 99.1666 1.63638 99.7693 0.492813C98.6924 1.61453 97.4871 2.6055 96.1783 3.44526M89.4172 17.7511C89.4557 17.6842 89.487 17.6134 89.5107 17.5399C89.4957 17.4236 89.4412 17.316 89.3564 17.235C89.2716 17.1541 89.1616 17.1046 89.0447 17.0949C88.561 17.0723 87.9015 17.1642 86.1713 19.0798C84.736 20.6618 83.5007 22.4142 82.4932 24.2978C81.5032 26.107 81.1017 27.455 81.6709 27.8033C81.8558 27.8991 82.0702 27.921 82.2707 27.8646C82.6561 27.7727 83.0931 27.4115 83.7574 26.6423C84.0686 26.2811 84.4137 25.77 84.8265 25.204C85.9714 23.6464 88.848 18.7428 89.4172 17.7511ZM71.4446 19.8345C71.7332 19.0798 72.1008 17.598 71.3365 17.0159C70.5158 16.3983 68.4228 17.8479 68.4115 19.3346C68.397 20.8568 69.8853 21.5453 70.2416 21.642C70.4448 21.6969 70.5158 21.6888 70.6141 21.526C70.9298 20.982 71.2073 20.4168 71.4446 19.8345ZM69.8611 22.6031C69.3424 22.3636 68.8586 22.0549 68.4228 21.6856C67.9857 21.319 67.6205 20.8745 67.3456 20.3746C67.3166 20.3263 67.2876 20.3634 67.2553 20.4069C67.2231 20.4504 67.0941 20.5681 65.9783 22.2032C64.8624 23.8382 63.1484 27.2261 64.6996 27.8033C65.6928 28.1726 67.3456 26.4327 68.247 25.2798C68.8611 24.4751 69.4178 23.628 69.9127 22.745C69.9595 22.6466 69.9127 22.624 69.8627 22.6031M87.4581 26.5166C87.0372 27.1906 86.5567 28.4838 87.9418 27.6792C89.6365 26.7004 92.0504 23.0385 92.0504 23.0385H93.1453C92.149 24.5703 91.0398 26.0255 89.8268 27.3921C88.1095 29.2949 86.0149 31.0234 84.5395 30.8525C82.8157 30.651 83.3559 28.3886 83.3559 28.3886C83.3559 28.3886 80.8904 31.0138 79.1844 30.8251C76.8802 30.5703 77.5833 27.7227 77.5833 27.7227C77.5833 27.7227 74.9775 30.9202 73.2022 30.8219C70.419 30.6606 71.1188 27.2744 71.8928 24.8896C72.3072 23.6141 72.691 22.6128 72.691 22.6128C72.691 22.6128 72.4153 22.6853 71.8219 22.774C71.5123 22.8175 70.9479 22.8498 70.9479 22.8498C70.9479 22.8498 69.7885 24.8944 68.8614 26.1231C67.9342 27.3518 63.9933 31.5878 61.6746 30.7396C59.53 29.956 60.2395 26.673 61.4875 24.064C63.3096 20.2602 68.4341 14.7955 71.3897 15.5179C74.4534 16.2612 71.4591 21.8517 71.4591 21.8517C71.4591 21.8517 71.4591 21.8726 71.4913 21.8871C71.5526 21.9097 71.7122 21.9275 72.0815 21.8549C72.4641 21.7768 72.8391 21.6652 73.2022 21.5211C73.2022 21.5211 76.282 15.0712 79.6843 10.8514C83.0866 6.63151 89.8735 -0.63592 92.5374 1.12168C93.1823 1.55382 92.8921 3.04214 92.0149 4.84811C91.6198 4.97645 91.2183 5.08409 90.812 5.17061C91.399 4.10476 91.7876 3.20661 91.9036 2.57936C92.3052 0.39929 87.2146 4.99807 83.5768 9.9387C81.3856 12.9172 79.4389 16.068 77.7558 19.3604C78.4129 18.9596 79.0402 18.5118 79.6327 18.0204C81.2553 16.675 82.7974 15.2353 84.2508 13.7087C85.6505 12.2758 86.9632 10.7606 88.1821 9.17116C88.5693 9.15243 88.9553 9.1126 89.3382 9.05184C88.0092 10.8556 86.5601 12.5676 85.0006 14.1763C83.5494 15.6436 81.9789 17.2223 80.6147 18.3687C79.3962 19.4049 78.111 20.3599 76.7673 21.2276C76.7673 21.2276 73.5859 27.6437 75.3161 28.0549C76.3336 28.3 78.3427 25.2056 78.3427 25.2056C78.3427 25.2056 80.9646 21.2051 82.5448 19.4007C84.7007 16.9497 86.5567 15.5308 88.411 15.505C89.4914 15.4856 90.1283 16.6337 90.1283 16.6337L90.6362 15.8468H93.7645C93.7645 15.8468 87.9225 25.7603 87.4548 26.5069M96.1783 3.44526C93.9757 4.85779 90.9281 6.13809 87.9999 5.86397C87.2581 6.6299 86.4648 7.51676 85.6698 8.48424C90.7475 9.48882 95.1963 6.34288 97.5618 3.66455C98.4248 2.70169 99.1661 1.63646 99.7693 0.492813C98.6924 1.61453 97.4871 2.6055 96.1783 3.44526ZM52.2464 8.30848H49.2714L47.5896 11.0255H50.5646L52.2464 8.30848ZM38.1598 17.7173C39.4256 15.9823 42.9182 9.90161 42.9182 9.90161C42.9035 9.78546 42.8493 9.6779 42.7648 9.59689C42.6803 9.51588 42.5705 9.46635 42.4538 9.45657C41.9701 9.43399 41.1639 9.59685 39.5627 11.6012C37.9615 13.6055 36.7183 15.2002 35.8121 16.8594C34.8188 18.6703 34.385 19.9473 34.9558 20.294C35.1411 20.3868 35.3539 20.4086 35.5541 20.3553C35.9249 20.2618 36.4103 19.8893 37.0762 19.1234C37.3891 18.7654 37.7438 18.2833 38.1598 17.7173ZM22.1963 9.49365C21.374 8.87285 19.2826 10.3257 19.2713 11.8092C19.2584 13.333 21.153 13.799 21.3981 13.8103C21.4702 13.8162 21.5425 13.8011 21.6061 13.7667C21.6499 13.7412 21.6848 13.703 21.7061 13.6571C21.9289 13.2193 22.1291 12.7705 22.306 12.3123C22.5946 11.5576 22.9606 10.0758 22.1963 9.49365ZM20.9563 14.739C20.3893 14.5619 19.8473 14.3126 19.3438 13.9973C18.8559 13.6792 18.4592 13.2397 18.1925 12.7218C18.1635 12.6735 18.1313 12.7105 18.1022 12.7541C18.0732 12.7976 17.9055 13.0072 16.7865 14.6487C15.6674 16.2902 14.0098 19.6474 15.5626 20.2247C16.5526 20.6004 18.2248 18.846 19.1326 17.6979C19.812 16.7957 20.4397 15.8557 21.0128 14.8825C21.0498 14.7842 21.0128 14.7616 20.9579 14.7439M45.2547 15.7501H46.3448C46.3448 15.7501 40.8833 23.6512 37.7986 23.2836C36.0765 23.082 36.5877 20.9567 36.5877 20.9567C36.5877 20.9567 34.1689 23.7883 31.947 23.2142C29.9314 22.6966 31.2326 19.3443 31.2326 19.3443C31.0037 19.4362 26.6419 24.3526 23.5766 23.1739C20.3694 21.9355 22.0351 17.8189 22.6446 16.5805C23.1622 15.5372 23.7346 14.5214 23.7346 14.5214C23.7346 14.5214 23.2428 14.66 22.9284 14.731C22.6139 14.8019 22.1592 14.8922 22.1592 14.8922C22.1592 14.8922 20.6419 17.3577 19.7147 18.588C18.7875 19.8183 14.8466 24.0462 12.5247 23.2045C10.2027 22.3628 10.7784 19.1137 12.0829 16.5337C14.1984 12.3493 19.2181 7.20716 22.2415 7.9876C25.2955 8.76643 22.7671 13.72 22.7671 13.72C22.7671 13.72 23.375 13.799 24.8311 12.8057C26.9273 11.3754 29.6943 7.52805 32.6903 7.97954C34.1028 8.19239 35.4186 9.63555 33.6191 12.3768C33.0451 13.2572 32.0824 14.0441 31.3455 13.2652C30.886 12.7815 31.2875 11.8995 31.7696 11.2964C31.9572 11.0506 32.2024 10.8546 32.4836 10.7259C32.7648 10.5971 33.0733 10.5394 33.3821 10.5579C33.3821 10.5579 33.8771 9.42916 32.6177 9.44528C31.5987 9.46463 29.0187 11.8398 27.5626 14.2392C26.2275 16.4418 24.2038 20.194 26.2356 21.0116C28.098 21.763 31.6422 17.556 33.2837 15.3518C34.9252 13.1475 38.6661 8.15207 41.804 7.95213C42.8844 7.88118 43.5278 8.8664 43.5278 8.8664L43.8906 8.29236H47.0284C47.0284 8.29236 41.1187 18.1543 40.6576 18.9008C40.2947 19.4846 39.8126 20.7971 41.1413 20.0618C42.47 19.3265 45.2547 15.7501 45.2547 15.7501ZM43.5471 31.5523C41.2367 29.953 38.4701 29.1456 35.6621 29.2513C34.9021 29.272 34.1576 29.4716 33.4892 29.8339C32.8207 30.1961 32.2471 30.7108 31.8147 31.3363C30.6183 29.2481 28.2528 27.9662 24.5957 27.9952C18.686 28.0629 12.8246 30.788 8.18067 30.7848C3.73024 30.7848 0.484326 27.9871 0.589137 23.0191C0.784247 14.3004 8.15165 6.4493 13.6502 2.91636C16.8203 0.886258 19.4712 0.283192 21.2046 0.478301C22.4688 0.618587 23.9894 2.07949 23.03 4.23215C21.6207 7.37809 19.6744 7.12009 19.747 5.61565C19.7873 4.63688 20.4387 4.02091 20.9289 3.68068C21.2401 3.46622 21.79 3.40494 22.077 3.39849C22.3559 3.16307 22.5607 1.44095 20.3033 2.00693C18.0458 2.57291 15.3046 4.79812 12.7021 7.67317C10.0995 10.5482 6.04737 15.9823 5.04602 21.6888C4.5784 24.3349 4.88477 29.161 11.1589 29.1062C16.4801 29.0627 24.3232 25.5588 31.5309 25.6313C34.3286 25.6587 36.7634 26.4134 38.6613 27.584C40.5253 28.7321 42.7602 30.4091 43.5536 31.5539" fill="#A6A097"/>
</g>
<defs>
<clipPath id="clip0_119_10544">
<rect width="99.1802" height="31.1111" fill="white" transform="translate(0.589111 0.444458)"/>
</clipPath>
</defs>
</svg>
