<svg width="64" height="64" viewBox="0 0 64 64" fill="none" xmlns="http://www.w3.org/2000/svg">
<path d="M45.0667 45.0666V50.6666H18C15.7722 50.6666 13.6356 49.7816 12.0603 48.2063C10.485 46.631 9.6 44.4945 9.6 42.2666C9.6 40.0388 10.485 37.9022 12.0603 36.3269C13.6356 34.7516 15.7722 33.8666 18 33.8666H18.9333V30.1333H18C14.782 30.1333 11.6959 31.4116 9.42044 33.6871C7.145 35.9625 5.86667 39.0487 5.86667 42.2666C5.86667 45.4846 7.145 48.5708 9.42044 50.8462C11.6959 53.1216 14.782 54.4 18 54.4H45.0667V60H60V45.0666H45.0667ZM56.2667 56.2666H48.8V48.8H56.2667V56.2666Z" fill="#5AC777"/>
<path d="M41.3333 43.2001H37.6V37.6001H26.4V43.2001H22.6667V37.6001C22.6667 36.6099 23.06 35.6603 23.7601 34.9602C24.4603 34.2601 25.4099 33.8667 26.4 33.8667H37.6C38.5901 33.8667 39.5397 34.2601 40.2399 34.9602C40.94 35.6603 41.3333 36.6099 41.3333 37.6001V43.2001ZM32 32.0001C30.8924 32.0001 29.8097 31.6716 28.8888 31.0563C27.9679 30.4409 27.2501 29.5663 26.8263 28.5431C26.4024 27.5198 26.2915 26.3938 26.5076 25.3075C26.7237 24.2213 27.257 23.2234 28.0402 22.4403C28.8234 21.6571 29.8212 21.1237 30.9075 20.9077C31.9938 20.6916 33.1198 20.8025 34.143 21.2263C35.1663 21.6502 36.0409 22.3679 36.6562 23.2889C37.2716 24.2098 37.6 25.2925 37.6 26.4001C37.5985 27.8848 37.008 29.3083 35.9582 30.3582C34.9083 31.4081 33.4848 31.9986 32 32.0001ZM32 24.5334C31.6308 24.5334 31.2699 24.6429 30.9629 24.848C30.656 25.0531 30.4167 25.3446 30.2754 25.6857C30.1341 26.0268 30.0972 26.4021 30.1692 26.7642C30.2412 27.1263 30.419 27.4589 30.6801 27.72C30.9411 27.981 31.2737 28.1588 31.6358 28.2309C31.9979 28.3029 32.3732 28.2659 32.7143 28.1246C33.0554 27.9833 33.347 27.7441 33.5521 27.4371C33.7572 27.1301 33.8667 26.7692 33.8667 26.4001C33.8667 25.905 33.67 25.4302 33.3199 25.0801C32.9699 24.7301 32.4951 24.5334 32 24.5334Z" fill="#5AC777"/>
<path d="M46 9.6H18.9333V4H4V18.9333H18.9333V13.3333H46C48.2278 13.3333 50.3644 14.2183 51.9397 15.7936C53.515 17.3689 54.4 19.5055 54.4 21.7333C54.4 23.9612 53.515 26.0977 51.9397 27.673C50.3644 29.2483 48.2278 30.1333 46 30.1333H45.0667V33.8667H46C49.218 33.8667 52.3041 32.5883 54.5796 30.3129C56.855 28.0375 58.1333 24.9513 58.1333 21.7333C58.1333 18.5154 56.855 15.4292 54.5796 13.1538C52.3041 10.8783 49.218 9.6 46 9.6ZM15.2 15.2H7.73333V7.73333H15.2V15.2Z" fill="#5AC777"/>
</svg>
