<svg width="110" height="54" viewBox="0 0 110 54" fill="none" xmlns="http://www.w3.org/2000/svg">
<path d="M31.1222 8.45455V23H28.7784L21.9247 13.0923H21.804V23H19.169V8.45455H21.527L28.3736 18.3693H28.5014V8.45455H31.1222ZM35.8612 23H33.0487L38.1694 8.45455H41.4222L46.5501 23H43.7376L39.8526 11.4375H39.739L35.8612 23ZM35.9535 17.2969H43.6239V19.4134H35.9535V17.2969ZM48.4659 23V8.45455H51.1009V14.6122H57.8409V8.45455H60.483V23H57.8409V16.821H51.1009V23H48.4659ZM75.799 13.3622H73.1428C73.067 12.9266 72.9273 12.5407 72.7237 12.2045C72.5201 11.8636 72.2668 11.5748 71.9638 11.3381C71.6607 11.1013 71.3151 10.9238 70.9268 10.8054C70.5433 10.6823 70.129 10.6207 69.6839 10.6207C68.8932 10.6207 68.1925 10.8196 67.5817 11.2173C66.9709 11.6103 66.4927 12.188 66.147 12.9503C65.8014 13.7079 65.6286 14.6335 65.6286 15.7273C65.6286 16.84 65.8014 17.7775 66.147 18.5398C66.4974 19.2973 66.9756 19.8703 67.5817 20.2585C68.1925 20.642 68.8909 20.8338 69.6768 20.8338C70.1125 20.8338 70.5196 20.777 70.8984 20.6634C71.282 20.545 71.6252 20.3722 71.9283 20.1449C72.236 19.9176 72.4941 19.6383 72.7024 19.3068C72.9155 18.9754 73.0623 18.5966 73.1428 18.1705L75.799 18.1847C75.6996 18.8759 75.4841 19.5246 75.1527 20.1307C74.826 20.7367 74.3975 21.2718 73.8672 21.7358C73.3369 22.1951 72.7166 22.5549 72.0064 22.8153C71.2962 23.071 70.5078 23.1989 69.6413 23.1989C68.3629 23.1989 67.2218 22.9029 66.218 22.3111C65.2143 21.7192 64.4235 20.8646 63.8459 19.7472C63.2682 18.6297 62.9794 17.2898 62.9794 15.7273C62.9794 14.16 63.2706 12.8201 63.853 11.7074C64.4354 10.59 65.2285 9.73532 66.2322 9.14347C67.236 8.55161 68.3724 8.25568 69.6413 8.25568C70.451 8.25568 71.2038 8.36932 71.8999 8.59659C72.5959 8.82386 73.2161 9.15767 73.7607 9.59801C74.3052 10.0336 74.7526 10.5687 75.103 11.2031C75.4581 11.8329 75.6901 12.5526 75.799 13.3622ZM91.2092 15.7273C91.2092 17.2945 90.9156 18.6368 90.3285 19.7543C89.7461 20.867 88.9506 21.7192 87.9421 22.3111C86.9383 22.9029 85.7996 23.1989 84.5259 23.1989C83.2522 23.1989 82.1112 22.9029 81.1026 22.3111C80.0988 21.7145 79.3034 20.8598 78.7163 19.7472C78.1339 18.6297 77.8427 17.2898 77.8427 15.7273C77.8427 14.16 78.1339 12.8201 78.7163 11.7074C79.3034 10.59 80.0988 9.73532 81.1026 9.14347C82.1112 8.55161 83.2522 8.25568 84.5259 8.25568C85.7996 8.25568 86.9383 8.55161 87.9421 9.14347C88.9506 9.73532 89.7461 10.59 90.3285 11.7074C90.9156 12.8201 91.2092 14.16 91.2092 15.7273ZM88.56 15.7273C88.56 14.6241 88.3872 13.6937 88.0415 12.9361C87.7006 12.1738 87.2272 11.5985 86.6211 11.2102C86.015 10.8172 85.3166 10.6207 84.5259 10.6207C83.7352 10.6207 83.0368 10.8172 82.4308 11.2102C81.8247 11.5985 81.3488 12.1738 81.0032 12.9361C80.6623 13.6937 80.4918 14.6241 80.4918 15.7273C80.4918 16.8305 80.6623 17.7633 81.0032 18.5256C81.3488 19.2831 81.8247 19.8584 82.4308 20.2514C83.0368 20.6397 83.7352 20.8338 84.5259 20.8338C85.3166 20.8338 86.015 20.6397 86.6211 20.2514C87.2272 19.8584 87.7006 19.2831 88.0415 18.5256C88.3872 17.7633 88.56 16.8305 88.56 15.7273Z" fill="#E1CFB4"/>
<path d="M20.2852 41.1293H18.7341C18.6744 40.7978 18.5634 40.5062 18.401 40.2543C18.2386 40.0024 18.0397 39.7886 17.8044 39.6129C17.5691 39.4373 17.3056 39.3047 17.0139 39.2152C16.7256 39.1257 16.419 39.081 16.0942 39.081C15.5075 39.081 14.9822 39.2285 14.5182 39.5234C14.0575 39.8184 13.6929 40.2509 13.4244 40.821C13.1593 41.3911 13.0267 42.0871 13.0267 42.9091C13.0267 43.7377 13.1593 44.437 13.4244 45.0071C13.6929 45.5772 14.0592 46.008 14.5232 46.2997C14.9872 46.5914 15.5092 46.7372 16.0892 46.7372C16.4107 46.7372 16.7156 46.6941 17.004 46.608C17.2957 46.5185 17.5592 46.3875 17.7945 46.2152C18.0298 46.0429 18.2287 45.8324 18.3911 45.5838C18.5568 45.3319 18.6711 45.0436 18.7341 44.7188L20.2852 44.7237C20.2024 45.2242 20.0416 45.6849 19.803 46.1058C19.5677 46.5234 19.2644 46.8847 18.8932 47.1896C18.5253 47.4912 18.1044 47.7249 17.6304 47.8906C17.1565 48.0563 16.6394 48.1392 16.0793 48.1392C15.1977 48.1392 14.4121 47.9304 13.7227 47.5128C13.0334 47.0919 12.4898 46.4903 12.0921 45.7081C11.6977 44.9259 11.5004 43.9929 11.5004 42.9091C11.5004 41.822 11.6993 40.889 12.097 40.1101C12.4948 39.3279 13.0383 38.728 13.7277 38.3104C14.4171 37.8894 15.201 37.679 16.0793 37.679C16.6195 37.679 17.1233 37.7569 17.5906 37.9126C18.0613 38.0651 18.4839 38.2905 18.8584 38.5888C19.2329 38.8838 19.5428 39.245 19.7881 39.6726C20.0334 40.0968 20.1991 40.5824 20.2852 41.1293ZM25.2208 48.1541C24.5049 48.1541 23.8801 47.9901 23.3465 47.6619C22.8129 47.3338 22.3986 46.8748 22.1036 46.2848C21.8086 45.6948 21.6611 45.0054 21.6611 44.2166C21.6611 43.4245 21.8086 42.7318 22.1036 42.1385C22.3986 41.5452 22.8129 41.0845 23.3465 40.7564C23.8801 40.4283 24.5049 40.2642 25.2208 40.2642C25.9367 40.2642 26.5615 40.4283 27.0951 40.7564C27.6287 41.0845 28.043 41.5452 28.338 42.1385C28.633 42.7318 28.7805 43.4245 28.7805 44.2166C28.7805 45.0054 28.633 45.6948 28.338 46.2848C28.043 46.8748 27.6287 47.3338 27.0951 47.6619C26.5615 47.9901 25.9367 48.1541 25.2208 48.1541ZM25.2258 46.9062C25.6898 46.9062 26.0742 46.7836 26.3792 46.5384C26.6841 46.2931 26.9095 45.9666 27.0553 45.5589C27.2045 45.1513 27.279 44.7022 27.279 44.2116C27.279 43.7244 27.2045 43.277 27.0553 42.8693C26.9095 42.4583 26.6841 42.1286 26.3792 41.88C26.0742 41.6314 25.6898 41.5071 25.2258 41.5071C24.7584 41.5071 24.3707 41.6314 24.0624 41.88C23.7575 42.1286 23.5305 42.4583 23.3813 42.8693C23.2355 43.277 23.1626 43.7244 23.1626 44.2116C23.1626 44.7022 23.2355 45.1513 23.3813 45.5589C23.5305 45.9666 23.7575 46.2931 24.0624 46.5384C24.3707 46.7836 24.7584 46.9062 25.2258 46.9062ZM30.4397 48V40.3636H31.8666V41.6065H31.961C32.1201 41.1856 32.3803 40.8575 32.7416 40.6222C33.1028 40.3835 33.5354 40.2642 34.0392 40.2642C34.5496 40.2642 34.9771 40.3835 35.3218 40.6222C35.6698 40.8608 35.9267 41.1889 36.0924 41.6065H36.172C36.3543 41.1989 36.6443 40.8741 37.042 40.6321C37.4397 40.3868 37.9137 40.2642 38.4639 40.2642C39.1566 40.2642 39.7217 40.4813 40.1592 40.9155C40.6 41.3497 40.8204 42.0043 40.8204 42.8793V48H39.3339V43.0185C39.3339 42.5014 39.193 42.1269 38.9113 41.8949C38.6296 41.6629 38.2932 41.5469 37.9021 41.5469C37.4182 41.5469 37.042 41.696 36.7735 41.9943C36.5051 42.2893 36.3708 42.6688 36.3708 43.1328V48H34.8893V42.924C34.8893 42.5097 34.76 42.1766 34.5015 41.9247C34.243 41.6728 33.9066 41.5469 33.4923 41.5469C33.2106 41.5469 32.9504 41.6214 32.7117 41.7706C32.4764 41.9164 32.2858 42.1203 32.14 42.3821C31.9975 42.6439 31.9262 42.9472 31.9262 43.2919V48H30.4397ZM42.8128 48V40.3636H44.2396V41.6065H44.3341C44.4932 41.1856 44.7533 40.8575 45.1146 40.6222C45.4759 40.3835 45.9084 40.2642 46.4122 40.2642C46.9226 40.2642 47.3502 40.3835 47.6949 40.6222C48.0429 40.8608 48.2997 41.1889 48.4655 41.6065H48.545C48.7273 41.1989 49.0173 40.8741 49.415 40.6321C49.8128 40.3868 50.2867 40.2642 50.8369 40.2642C51.5296 40.2642 52.0947 40.4813 52.5322 40.9155C52.973 41.3497 53.1934 42.0043 53.1934 42.8793V48H51.7069V43.0185C51.7069 42.5014 51.5661 42.1269 51.2844 41.8949C51.0026 41.6629 50.6662 41.5469 50.2751 41.5469C49.7912 41.5469 49.415 41.696 49.1466 41.9943C48.8781 42.2893 48.7439 42.6688 48.7439 43.1328V48H47.2623V42.924C47.2623 42.5097 47.1331 42.1766 46.8746 41.9247C46.616 41.6728 46.2796 41.5469 45.8653 41.5469C45.5836 41.5469 45.3234 41.6214 45.0848 41.7706C44.8495 41.9164 44.6589 42.1203 44.5131 42.3821C44.3705 42.6439 44.2993 42.9472 44.2993 43.2919V48H42.8128ZM58.4024 48.1541C57.6865 48.1541 57.0618 47.9901 56.5281 47.6619C55.9945 47.3338 55.5802 46.8748 55.2852 46.2848C54.9903 45.6948 54.8428 45.0054 54.8428 44.2166C54.8428 43.4245 54.9903 42.7318 55.2852 42.1385C55.5802 41.5452 55.9945 41.0845 56.5281 40.7564C57.0618 40.4283 57.6865 40.2642 58.4024 40.2642C59.1183 40.2642 59.7431 40.4283 60.2767 40.7564C60.8103 41.0845 61.2246 41.5452 61.5196 42.1385C61.8146 42.7318 61.9621 43.4245 61.9621 44.2166C61.9621 45.0054 61.8146 45.6948 61.5196 46.2848C61.2246 46.8748 60.8103 47.3338 60.2767 47.6619C59.7431 47.9901 59.1183 48.1541 58.4024 48.1541ZM58.4074 46.9062C58.8714 46.9062 59.2559 46.7836 59.5608 46.5384C59.8657 46.2931 60.0911 45.9666 60.2369 45.5589C60.3861 45.1513 60.4607 44.7022 60.4607 44.2116C60.4607 43.7244 60.3861 43.277 60.2369 42.8693C60.0911 42.4583 59.8657 42.1286 59.5608 41.88C59.2559 41.6314 58.8714 41.5071 58.4074 41.5071C57.9401 41.5071 57.5523 41.6314 57.2441 41.88C56.9391 42.1286 56.7121 42.4583 56.5629 42.8693C56.4171 43.277 56.3442 43.7244 56.3442 44.2116C56.3442 44.7022 56.4171 45.1513 56.5629 45.5589C56.7121 45.9666 56.9391 46.2931 57.2441 46.5384C57.5523 46.7836 57.9401 46.9062 58.4074 46.9062ZM66.48 48.1491C65.8635 48.1491 65.3134 47.9917 64.8295 47.6768C64.3489 47.3587 63.971 46.9062 63.6959 46.3196C63.4242 45.7296 63.2883 45.022 63.2883 44.1967C63.2883 43.3714 63.4258 42.6655 63.7009 42.0788C63.9793 41.4922 64.3605 41.0431 64.8444 40.7315C65.3283 40.42 65.8768 40.2642 66.49 40.2642C66.9639 40.2642 67.3451 40.3438 67.6334 40.5028C67.9251 40.6586 68.1505 40.8409 68.3096 41.0497C68.472 41.2585 68.5979 41.4425 68.6874 41.6016H68.7769V37.8182H70.2634V48H68.8117V46.8118H68.6874C68.5979 46.9742 68.4687 47.1598 68.2996 47.3686C68.1339 47.5774 67.9052 47.7597 67.6135 47.9155C67.3219 48.0713 66.944 48.1491 66.48 48.1491ZM66.8081 46.8814C67.2357 46.8814 67.597 46.7687 67.892 46.5433C68.1903 46.3146 68.4156 45.9981 68.5681 45.5938C68.7239 45.1894 68.8018 44.7187 68.8018 44.1818C68.8018 43.6515 68.7255 43.1875 68.5731 42.7898C68.4206 42.392 68.1969 42.0821 67.9019 41.8601C67.6069 41.638 67.2423 41.527 66.8081 41.527C66.3607 41.527 65.9878 41.643 65.6895 41.875C65.3912 42.107 65.1659 42.4235 65.0134 42.8246C64.8643 43.2256 64.7897 43.678 64.7897 44.1818C64.7897 44.6922 64.8659 45.1513 65.0184 45.5589C65.1708 45.9666 65.3962 46.2898 65.6945 46.5284C65.9961 46.7637 66.3673 46.8814 66.8081 46.8814ZM72.385 48V40.3636H73.8715V48H72.385ZM73.1357 39.1854C72.8772 39.1854 72.6552 39.0992 72.4695 38.9268C72.2873 38.7512 72.1961 38.5424 72.1961 38.3004C72.1961 38.0552 72.2873 37.8464 72.4695 37.674C72.6552 37.4983 72.8772 37.4105 73.1357 37.4105C73.3943 37.4105 73.6147 37.4983 73.797 37.674C73.9826 37.8464 74.0754 38.0552 74.0754 38.3004C74.0754 38.5424 73.9826 38.7512 73.797 38.9268C73.6147 39.0992 73.3943 39.1854 73.1357 39.1854ZM79.436 40.3636V41.5568H75.2648V40.3636H79.436ZM76.3834 38.5341H77.8699V45.7578C77.8699 46.0462 77.913 46.2633 77.9992 46.4091C78.0854 46.5516 78.1964 46.6494 78.3323 46.7024C78.4715 46.7521 78.6223 46.777 78.7847 46.777C78.904 46.777 79.0084 46.7687 79.0979 46.7521C79.1874 46.7356 79.257 46.7223 79.3067 46.7124L79.5752 47.9403C79.489 47.9735 79.3664 48.0066 79.2073 48.0398C79.0482 48.0762 78.8493 48.0961 78.6107 48.0994C78.2196 48.1061 77.855 48.0365 77.517 47.8906C77.1789 47.7448 76.9055 47.5194 76.6966 47.2145C76.4878 46.9096 76.3834 46.5268 76.3834 46.0661V38.5341ZM81.0803 48V40.3636H82.5669V48H81.0803ZM81.8311 39.1854C81.5725 39.1854 81.3505 39.0992 81.1649 38.9268C80.9826 38.7512 80.8914 38.5424 80.8914 38.3004C80.8914 38.0552 80.9826 37.8464 81.1649 37.674C81.3505 37.4983 81.5725 37.4105 81.8311 37.4105C82.0896 37.4105 82.31 37.4983 82.4923 37.674C82.6779 37.8464 82.7707 38.0552 82.7707 38.3004C82.7707 38.5424 82.6779 38.7512 82.4923 38.9268C82.31 39.0992 82.0896 39.1854 81.8311 39.1854ZM87.8579 48.1541C87.1055 48.1541 86.4575 47.9934 85.914 47.6719C85.3737 47.3471 84.9561 46.8913 84.6611 46.3047C84.3695 45.7147 84.2236 45.0237 84.2236 44.2315C84.2236 43.4493 84.3695 42.7599 84.6611 42.1634C84.9561 41.5668 85.3671 41.1011 85.8941 40.7663C86.4244 40.4316 87.0442 40.2642 87.7535 40.2642C88.1843 40.2642 88.6019 40.3355 89.0063 40.478C89.4107 40.6205 89.7736 40.8442 90.0951 41.1491C90.4166 41.4541 90.6701 41.8501 90.8557 42.3374C91.0413 42.8213 91.1341 43.4096 91.1341 44.1023V44.6293H85.0638V43.5156H89.6775C89.6775 43.1245 89.5979 42.7782 89.4388 42.4766C89.2797 42.1716 89.056 41.9313 88.7677 41.7557C88.4826 41.58 88.1479 41.4922 87.7634 41.4922C87.3458 41.4922 86.9812 41.5949 86.6697 41.8004C86.3614 42.0026 86.1228 42.2678 85.9537 42.5959C85.788 42.9207 85.7052 43.2737 85.7052 43.6548V44.5249C85.7052 45.0353 85.7947 45.4695 85.9736 45.8274C86.1559 46.1854 86.4095 46.4588 86.7343 46.6477C87.0591 46.8333 87.4386 46.9261 87.8728 46.9261C88.1545 46.9261 88.4114 46.8864 88.6434 46.8068C88.8754 46.724 89.0759 46.6013 89.2449 46.4389C89.414 46.2765 89.5432 46.076 89.6327 45.8374L91.0397 46.0909C90.927 46.5052 90.7248 46.8681 90.4331 47.1797C90.1448 47.4879 89.7819 47.7282 89.3444 47.9006C88.9102 48.0696 88.4147 48.1541 87.8579 48.1541ZM98.5058 42.228L97.1585 42.4666C97.1021 42.2943 97.0126 42.1302 96.89 41.9744C96.7707 41.8187 96.6083 41.6911 96.4028 41.5916C96.1973 41.4922 95.9404 41.4425 95.6322 41.4425C95.2113 41.4425 94.8599 41.5369 94.5782 41.7259C94.2965 41.9115 94.1556 42.1518 94.1556 42.4467C94.1556 42.7019 94.2501 42.9074 94.439 43.0632C94.6279 43.219 94.9329 43.3466 95.3538 43.446L96.5669 43.7244C97.2695 43.8868 97.7932 44.1371 98.1379 44.4751C98.4826 44.8132 98.6549 45.2524 98.6549 45.7926C98.6549 46.25 98.5223 46.6577 98.2572 47.0156C97.9954 47.3703 97.6291 47.6487 97.1585 47.8509C96.6911 48.053 96.1492 48.1541 95.5328 48.1541C94.6776 48.1541 93.98 47.9718 93.4397 47.6072C92.8995 47.2393 92.568 46.7173 92.4454 46.0412L93.8822 45.8224C93.9717 46.197 94.1556 46.4804 94.434 46.6726C94.7124 46.8615 95.0754 46.956 95.5228 46.956C96.01 46.956 96.3995 46.8549 96.6911 46.6527C96.9828 46.4472 97.1286 46.197 97.1286 45.902C97.1286 45.6634 97.0392 45.4628 96.8602 45.3004C96.6845 45.138 96.4144 45.0154 96.0498 44.9325L94.7572 44.6491C94.0446 44.4867 93.5176 44.2282 93.1762 43.8736C92.8382 43.5189 92.6691 43.0698 92.6691 42.5263C92.6691 42.0755 92.7951 41.6811 93.047 41.343C93.2989 41.005 93.6469 40.7415 94.091 40.5526C94.5351 40.3603 95.0439 40.2642 95.6173 40.2642C96.4426 40.2642 97.0922 40.4432 97.5661 40.8011C98.0401 41.1558 98.3533 41.6314 98.5058 42.228Z" fill="#B19D7F"/>
</svg>
