<svg width="583" height="563" viewBox="0 0 583 563" fill="none" xmlns="http://www.w3.org/2000/svg">
<g clip-path="url(#clip0_119_22454)">
<rect width="583" height="563" fill="#263C28"/>
<path d="M184.021 233.5H181.209L186.33 218.955H189.582L194.71 233.5H191.898L188.013 221.938H187.899L184.021 233.5ZM184.114 227.797H191.784V229.913H184.114V227.797ZM200.925 237.818C200.001 237.818 199.208 237.693 198.545 237.442C197.883 237.196 197.35 236.864 196.947 236.447C196.545 236.031 196.266 235.569 196.109 235.062L198.425 234.501C198.529 234.714 198.68 234.925 198.879 235.134C199.078 235.347 199.346 235.522 199.682 235.659C200.023 235.801 200.451 235.872 200.967 235.872C201.696 235.872 202.3 235.695 202.778 235.339C203.257 234.989 203.496 234.411 203.496 233.607V231.54H203.368C203.235 231.805 203.041 232.077 202.786 232.357C202.535 232.636 202.201 232.87 201.784 233.06C201.372 233.249 200.854 233.344 200.229 233.344C199.391 233.344 198.631 233.147 197.949 232.754C197.272 232.357 196.732 231.765 196.33 230.979C195.932 230.188 195.733 229.198 195.733 228.01C195.733 226.812 195.932 225.801 196.33 224.977C196.732 224.149 197.274 223.521 197.956 223.095C198.638 222.664 199.398 222.449 200.236 222.449C200.875 222.449 201.401 222.558 201.812 222.776C202.229 222.989 202.561 223.247 202.807 223.55C203.053 223.848 203.24 224.13 203.368 224.395H203.51V222.591H206.045V233.678C206.045 234.61 205.823 235.382 205.378 235.993C204.933 236.604 204.324 237.061 203.553 237.364C202.781 237.667 201.905 237.818 200.925 237.818ZM200.946 231.327C201.491 231.327 201.955 231.194 202.338 230.929C202.722 230.664 203.013 230.283 203.212 229.786C203.411 229.288 203.51 228.692 203.51 227.996C203.51 227.309 203.411 226.708 203.212 226.192C203.018 225.676 202.729 225.276 202.345 224.991C201.966 224.703 201.5 224.558 200.946 224.558C200.373 224.558 199.895 224.707 199.511 225.006C199.128 225.304 198.839 225.714 198.645 226.234C198.451 226.75 198.354 227.338 198.354 227.996C198.354 228.663 198.451 229.248 198.645 229.75C198.844 230.247 199.135 230.635 199.518 230.915C199.907 231.189 200.383 231.327 200.946 231.327ZM208.68 233.5V222.591H211.173V224.409H211.287C211.486 223.779 211.827 223.294 212.31 222.953C212.797 222.607 213.354 222.435 213.979 222.435C214.121 222.435 214.279 222.442 214.455 222.456C214.634 222.465 214.784 222.482 214.902 222.506V224.871C214.793 224.833 214.62 224.8 214.384 224.771C214.152 224.738 213.927 224.722 213.709 224.722C213.24 224.722 212.819 224.823 212.445 225.027C212.075 225.226 211.784 225.503 211.571 225.858C211.358 226.213 211.251 226.623 211.251 227.087V233.5H208.68ZM220.919 233.713C219.854 233.713 218.931 233.479 218.15 233.01C217.368 232.541 216.762 231.885 216.331 231.043C215.905 230.2 215.692 229.215 215.692 228.088C215.692 226.961 215.905 225.974 216.331 225.126C216.762 224.279 217.368 223.621 218.15 223.152C218.931 222.683 219.854 222.449 220.919 222.449C221.985 222.449 222.908 222.683 223.689 223.152C224.471 223.621 225.074 224.279 225.5 225.126C225.931 225.974 226.147 226.961 226.147 228.088C226.147 229.215 225.931 230.2 225.5 231.043C225.074 231.885 224.471 232.541 223.689 233.01C222.908 233.479 221.985 233.713 220.919 233.713ZM220.934 231.653C221.511 231.653 221.994 231.495 222.382 231.178C222.771 230.856 223.06 230.425 223.249 229.885C223.443 229.345 223.54 228.744 223.54 228.081C223.54 227.413 223.443 226.81 223.249 226.27C223.06 225.725 222.771 225.292 222.382 224.97C221.994 224.648 221.511 224.487 220.934 224.487C220.342 224.487 219.849 224.648 219.456 224.97C219.068 225.292 218.777 225.725 218.583 226.27C218.393 226.81 218.299 227.413 218.299 228.081C218.299 228.744 218.393 229.345 218.583 229.885C218.777 230.425 219.068 230.856 219.456 231.178C219.849 231.495 220.342 231.653 220.934 231.653ZM234.941 226.384V228.5H228.393V226.384H234.941ZM237.759 233.5V218.955H247.219V221.163H240.394V225.112H246.729V227.321H240.394V231.291H247.276V233.5H237.759ZM251.896 222.591L254.098 226.618L256.335 222.591H259.055L255.767 228.045L259.112 233.5H256.406L254.098 229.572L251.811 233.5H249.083L252.407 228.045L249.169 222.591H251.896ZM261.044 237.591V222.591H263.572V224.395H263.721C263.854 224.13 264.041 223.848 264.282 223.55C264.524 223.247 264.85 222.989 265.262 222.776C265.674 222.558 266.2 222.449 266.839 222.449C267.682 222.449 268.442 222.664 269.119 223.095C269.801 223.521 270.341 224.153 270.738 224.991C271.141 225.825 271.342 226.848 271.342 228.06C271.342 229.258 271.145 230.276 270.752 231.114C270.359 231.952 269.824 232.591 269.147 233.031C268.47 233.472 267.703 233.692 266.846 233.692C266.221 233.692 265.703 233.588 265.291 233.379C264.879 233.171 264.547 232.92 264.297 232.626C264.05 232.328 263.859 232.046 263.721 231.781H263.615V237.591H261.044ZM263.565 228.045C263.565 228.751 263.664 229.369 263.863 229.899C264.067 230.429 264.358 230.844 264.737 231.142C265.12 231.436 265.584 231.582 266.129 231.582C266.697 231.582 267.173 231.431 267.556 231.128C267.94 230.82 268.229 230.401 268.423 229.871C268.622 229.336 268.721 228.727 268.721 228.045C268.721 227.368 268.624 226.767 268.43 226.241C268.236 225.716 267.947 225.304 267.564 225.006C267.18 224.707 266.702 224.558 266.129 224.558C265.58 224.558 265.113 224.703 264.73 224.991C264.346 225.28 264.055 225.685 263.856 226.206C263.662 226.727 263.565 227.34 263.565 228.045ZM278.302 233.713C277.237 233.713 276.314 233.479 275.532 233.01C274.751 232.541 274.145 231.885 273.714 231.043C273.288 230.2 273.075 229.215 273.075 228.088C273.075 226.961 273.288 225.974 273.714 225.126C274.145 224.279 274.751 223.621 275.532 223.152C276.314 222.683 277.237 222.449 278.302 222.449C279.368 222.449 280.291 222.683 281.072 223.152C281.853 223.621 282.457 224.279 282.883 225.126C283.314 225.974 283.529 226.961 283.529 228.088C283.529 229.215 283.314 230.2 282.883 231.043C282.457 231.885 281.853 232.541 281.072 233.01C280.291 233.479 279.368 233.713 278.302 233.713ZM278.316 231.653C278.894 231.653 279.377 231.495 279.765 231.178C280.154 230.856 280.442 230.425 280.632 229.885C280.826 229.345 280.923 228.744 280.923 228.081C280.923 227.413 280.826 226.81 280.632 226.27C280.442 225.725 280.154 225.292 279.765 224.97C279.377 224.648 278.894 224.487 278.316 224.487C277.725 224.487 277.232 224.648 276.839 224.97C276.451 225.292 276.16 225.725 275.966 226.27C275.776 226.81 275.681 227.413 275.681 228.081C275.681 228.744 275.776 229.345 275.966 229.885C276.16 230.425 276.451 230.856 276.839 231.178C277.232 231.495 277.725 231.653 278.316 231.653ZM285.712 233.5V222.591H288.205V224.409H288.318C288.517 223.779 288.858 223.294 289.341 222.953C289.829 222.607 290.385 222.435 291.01 222.435C291.152 222.435 291.311 222.442 291.486 222.456C291.666 222.465 291.815 222.482 291.933 222.506V224.871C291.824 224.833 291.652 224.8 291.415 224.771C291.183 224.738 290.958 224.722 290.74 224.722C290.271 224.722 289.85 224.823 289.476 225.027C289.107 225.226 288.815 225.503 288.602 225.858C288.389 226.213 288.283 226.623 288.283 227.087V233.5H285.712ZM299.675 222.591V224.58H293.403V222.591H299.675ZM294.952 219.977H297.523V230.219C297.523 230.564 297.575 230.83 297.679 231.014C297.788 231.194 297.93 231.317 298.105 231.384C298.28 231.45 298.474 231.483 298.688 231.483C298.848 231.483 298.995 231.471 299.128 231.447C299.265 231.424 299.369 231.402 299.44 231.384L299.874 233.393C299.736 233.441 299.54 233.493 299.284 233.55C299.033 233.607 298.725 233.64 298.361 233.649C297.717 233.668 297.137 233.571 296.621 233.358C296.105 233.14 295.695 232.804 295.392 232.349C295.094 231.895 294.947 231.327 294.952 230.645V219.977ZM306.26 221.163V218.955H317.865V221.163H313.37V233.5H310.756V221.163H306.26ZM318.856 233.5V222.591H321.349V224.409H321.463C321.662 223.779 322.002 223.294 322.485 222.953C322.973 222.607 323.529 222.435 324.154 222.435C324.297 222.435 324.455 222.442 324.63 222.456C324.81 222.465 324.959 222.482 325.078 222.506V224.871C324.969 224.833 324.796 224.8 324.559 224.771C324.327 224.738 324.102 224.722 323.885 224.722C323.416 224.722 322.994 224.823 322.62 225.027C322.251 225.226 321.96 225.503 321.747 225.858C321.534 226.213 321.427 226.623 321.427 227.087V233.5H318.856ZM329.73 233.72C329.038 233.72 328.416 233.597 327.862 233.351C327.313 233.1 326.877 232.731 326.555 232.243C326.238 231.755 326.079 231.154 326.079 230.439C326.079 229.823 326.193 229.314 326.42 228.912C326.647 228.509 326.958 228.188 327.35 227.946C327.743 227.705 328.186 227.522 328.679 227.399C329.176 227.271 329.69 227.179 330.22 227.122C330.859 227.056 331.377 226.997 331.775 226.945C332.173 226.888 332.462 226.803 332.642 226.689C332.826 226.571 332.919 226.388 332.919 226.142V226.099C332.919 225.564 332.76 225.15 332.443 224.857C332.126 224.563 331.669 224.416 331.072 224.416C330.442 224.416 329.943 224.554 329.574 224.828C329.209 225.103 328.963 225.427 328.835 225.801L326.434 225.46C326.624 224.797 326.936 224.243 327.372 223.798C327.807 223.348 328.34 223.012 328.97 222.79C329.6 222.562 330.296 222.449 331.058 222.449C331.583 222.449 332.107 222.51 332.627 222.634C333.148 222.757 333.624 222.96 334.055 223.244C334.486 223.524 334.832 223.905 335.092 224.388C335.357 224.871 335.49 225.474 335.49 226.199V233.5H333.018V232.001H332.933C332.777 232.304 332.556 232.589 332.272 232.854C331.993 233.114 331.64 233.325 331.214 233.486C330.793 233.642 330.298 233.72 329.73 233.72ZM330.397 231.831C330.913 231.831 331.361 231.729 331.74 231.526C332.118 231.317 332.41 231.043 332.613 230.702C332.822 230.361 332.926 229.989 332.926 229.587V228.301C332.845 228.367 332.708 228.429 332.514 228.486C332.324 228.543 332.111 228.592 331.875 228.635C331.638 228.678 331.404 228.715 331.172 228.749C330.94 228.782 330.738 228.81 330.568 228.834C330.184 228.886 329.841 228.971 329.538 229.089C329.235 229.208 328.996 229.374 328.821 229.587C328.645 229.795 328.558 230.065 328.558 230.396C328.558 230.87 328.731 231.227 329.076 231.469C329.422 231.71 329.862 231.831 330.397 231.831ZM338.075 233.5V222.591H340.646V233.5H338.075ZM339.368 221.043C338.96 221.043 338.61 220.908 338.316 220.638C338.023 220.363 337.876 220.034 337.876 219.651C337.876 219.262 338.023 218.933 338.316 218.663C338.61 218.389 338.96 218.251 339.368 218.251C339.779 218.251 340.13 218.389 340.419 218.663C340.712 218.933 340.859 219.262 340.859 219.651C340.859 220.034 340.712 220.363 340.419 220.638C340.13 220.908 339.779 221.043 339.368 221.043ZM345.861 227.108V233.5H343.29V222.591H345.747V224.445H345.875C346.126 223.834 346.526 223.348 347.075 222.989C347.629 222.629 348.313 222.449 349.128 222.449C349.881 222.449 350.536 222.61 351.095 222.932C351.659 223.254 352.094 223.72 352.402 224.331C352.714 224.942 352.868 225.683 352.864 226.554V233.5H350.293V226.952C350.293 226.223 350.103 225.652 349.724 225.24C349.35 224.828 348.832 224.622 348.169 224.622C347.719 224.622 347.319 224.722 346.969 224.92C346.623 225.115 346.351 225.396 346.152 225.766C345.958 226.135 345.861 226.582 345.861 227.108ZM355.477 233.5V222.591H358.048V233.5H355.477ZM356.77 221.043C356.363 221.043 356.012 220.908 355.719 220.638C355.425 220.363 355.278 220.034 355.278 219.651C355.278 219.262 355.425 218.933 355.719 218.663C356.012 218.389 356.363 218.251 356.77 218.251C357.182 218.251 357.532 218.389 357.821 218.663C358.115 218.933 358.261 219.262 358.261 219.651C358.261 220.034 358.115 220.363 357.821 220.638C357.532 220.908 357.182 221.043 356.77 221.043ZM363.263 227.108V233.5H360.692V222.591H363.15V224.445H363.277C363.528 223.834 363.928 223.348 364.478 222.989C365.032 222.629 365.716 222.449 366.53 222.449C367.283 222.449 367.939 222.61 368.498 222.932C369.061 223.254 369.497 223.72 369.804 224.331C370.117 224.942 370.271 225.683 370.266 226.554V233.5H367.695V226.952C367.695 226.223 367.506 225.652 367.127 225.24C366.753 224.828 366.234 224.622 365.571 224.622C365.122 224.622 364.721 224.722 364.371 224.92C364.025 225.115 363.753 225.396 363.554 225.766C363.36 226.135 363.263 226.582 363.263 227.108ZM377.624 237.818C376.701 237.818 375.908 237.693 375.245 237.442C374.582 237.196 374.049 236.864 373.647 236.447C373.244 236.031 372.965 235.569 372.809 235.062L375.124 234.501C375.228 234.714 375.38 234.925 375.578 235.134C375.777 235.347 376.045 235.522 376.381 235.659C376.722 235.801 377.15 235.872 377.667 235.872C378.396 235.872 378.999 235.695 379.478 235.339C379.956 234.989 380.195 234.411 380.195 233.607V231.54H380.067C379.935 231.805 379.74 232.077 379.485 232.357C379.234 232.636 378.9 232.87 378.483 233.06C378.071 233.249 377.553 233.344 376.928 233.344C376.09 233.344 375.33 233.147 374.648 232.754C373.971 232.357 373.431 231.765 373.029 230.979C372.631 230.188 372.432 229.198 372.432 228.01C372.432 226.812 372.631 225.801 373.029 224.977C373.431 224.149 373.973 223.521 374.655 223.095C375.337 222.664 376.097 222.449 376.935 222.449C377.574 222.449 378.1 222.558 378.512 222.776C378.928 222.989 379.26 223.247 379.506 223.55C379.752 223.848 379.939 224.13 380.067 224.395H380.209V222.591H382.745V233.678C382.745 234.61 382.522 235.382 382.077 235.993C381.632 236.604 381.024 237.061 380.252 237.364C379.48 237.667 378.604 237.818 377.624 237.818ZM377.645 231.327C378.19 231.327 378.654 231.194 379.037 230.929C379.421 230.664 379.712 230.283 379.911 229.786C380.11 229.288 380.209 228.692 380.209 227.996C380.209 227.309 380.11 226.708 379.911 226.192C379.717 225.676 379.428 225.276 379.044 224.991C378.666 224.703 378.199 224.558 377.645 224.558C377.072 224.558 376.594 224.707 376.211 225.006C375.827 225.304 375.538 225.714 375.344 226.234C375.15 226.75 375.053 227.338 375.053 227.996C375.053 228.663 375.15 229.248 375.344 229.75C375.543 230.247 375.834 230.635 376.218 230.915C376.606 231.189 377.082 231.327 377.645 231.327ZM394.687 233.713C393.693 233.713 392.838 233.533 392.123 233.173C391.408 232.813 390.857 232.328 390.468 231.717C390.085 231.102 389.893 230.408 389.893 229.636C389.893 229.054 390.011 228.538 390.248 228.088C390.49 227.638 390.821 227.222 391.243 226.838C391.669 226.455 392.161 226.073 392.72 225.695L395.298 223.94C395.677 223.694 395.963 223.434 396.157 223.159C396.356 222.884 396.456 222.562 396.456 222.193C396.456 221.881 396.323 221.585 396.058 221.305C395.797 221.026 395.438 220.886 394.978 220.886C394.671 220.886 394.398 220.96 394.162 221.107C393.93 221.249 393.747 221.436 393.615 221.668C393.487 221.9 393.423 222.146 393.423 222.406C393.423 222.723 393.511 223.045 393.686 223.372C393.866 223.699 394.098 224.037 394.382 224.388C394.671 224.738 394.978 225.11 395.305 225.503L402.13 233.5H399.346L393.679 227.009C393.257 226.516 392.85 226.031 392.457 225.553C392.069 225.074 391.749 224.577 391.498 224.061C391.252 223.54 391.129 222.977 391.129 222.371C391.129 221.684 391.288 221.071 391.605 220.531C391.922 219.987 392.365 219.558 392.933 219.246C393.506 218.933 394.176 218.777 394.943 218.777C395.71 218.777 396.368 218.929 396.917 219.232C397.467 219.535 397.89 219.937 398.189 220.439C398.487 220.941 398.636 221.488 398.636 222.08C398.636 222.766 398.466 223.382 398.125 223.926C397.784 224.466 397.31 224.956 396.704 225.396L393.764 227.548C393.281 227.899 392.935 228.254 392.727 228.614C392.519 228.969 392.414 229.272 392.414 229.523C392.414 229.906 392.511 230.254 392.706 230.567C392.9 230.879 393.172 231.13 393.522 231.32C393.877 231.504 394.292 231.597 394.765 231.597C395.286 231.597 395.8 231.481 396.306 231.249C396.813 231.012 397.275 230.676 397.691 230.24C398.108 229.804 398.44 229.284 398.686 228.678C398.932 228.067 399.055 227.39 399.055 226.646H401.264C401.264 227.565 401.162 228.365 400.958 229.047C400.755 229.724 400.492 230.297 400.17 230.766C399.848 231.23 399.507 231.601 399.147 231.881C399.034 231.961 398.925 232.042 398.821 232.122C398.717 232.203 398.608 232.283 398.494 232.364C397.983 232.828 397.384 233.169 396.697 233.386C396.015 233.604 395.345 233.713 394.687 233.713ZM252.846 253.862H250.19C250.114 253.427 249.974 253.041 249.771 252.705C249.567 252.364 249.314 252.075 249.011 251.838C248.708 251.601 248.362 251.424 247.974 251.305C247.59 251.182 247.176 251.121 246.731 251.121C245.94 251.121 245.239 251.32 244.629 251.717C244.018 252.11 243.54 252.688 243.194 253.45C242.848 254.208 242.675 255.134 242.675 256.227C242.675 257.34 242.848 258.277 243.194 259.04C243.544 259.797 244.022 260.37 244.629 260.759C245.239 261.142 245.938 261.334 246.724 261.334C247.159 261.334 247.567 261.277 247.945 261.163C248.329 261.045 248.672 260.872 248.975 260.645C249.283 260.418 249.541 260.138 249.749 259.807C249.962 259.475 250.109 259.097 250.19 258.67L252.846 258.685C252.746 259.376 252.531 260.025 252.2 260.631C251.873 261.237 251.444 261.772 250.914 262.236C250.384 262.695 249.763 263.055 249.053 263.315C248.343 263.571 247.555 263.699 246.688 263.699C245.41 263.699 244.269 263.403 243.265 262.811C242.261 262.219 241.47 261.365 240.893 260.247C240.315 259.13 240.026 257.79 240.026 256.227C240.026 254.66 240.317 253.32 240.9 252.207C241.482 251.09 242.275 250.235 243.279 249.643C244.283 249.052 245.419 248.756 246.688 248.756C247.498 248.756 248.251 248.869 248.947 249.097C249.643 249.324 250.263 249.658 250.808 250.098C251.352 250.534 251.799 251.069 252.15 251.703C252.505 252.333 252.737 253.053 252.846 253.862ZM259.904 263.713C258.838 263.713 257.915 263.479 257.134 263.01C256.353 262.541 255.747 261.885 255.316 261.043C254.89 260.2 254.676 259.215 254.676 258.088C254.676 256.961 254.89 255.974 255.316 255.126C255.747 254.279 256.353 253.621 257.134 253.152C257.915 252.683 258.838 252.449 259.904 252.449C260.969 252.449 261.892 252.683 262.674 253.152C263.455 253.621 264.059 254.279 264.485 255.126C264.916 255.974 265.131 256.961 265.131 258.088C265.131 259.215 264.916 260.2 264.485 261.043C264.059 261.885 263.455 262.541 262.674 263.01C261.892 263.479 260.969 263.713 259.904 263.713ZM259.918 261.653C260.496 261.653 260.979 261.495 261.367 261.178C261.755 260.856 262.044 260.425 262.233 259.885C262.427 259.345 262.525 258.744 262.525 258.081C262.525 257.413 262.427 256.81 262.233 256.27C262.044 255.725 261.755 255.292 261.367 254.97C260.979 254.648 260.496 254.487 259.918 254.487C259.326 254.487 258.834 254.648 258.441 254.97C258.052 255.292 257.761 255.725 257.567 256.27C257.378 256.81 257.283 257.413 257.283 258.081C257.283 258.744 257.378 259.345 257.567 259.885C257.761 260.425 258.052 260.856 258.441 261.178C258.834 261.495 259.326 261.653 259.918 261.653ZM269.884 257.108V263.5H267.313V252.591H269.771V254.445H269.898C270.149 253.834 270.549 253.348 271.099 252.989C271.653 252.629 272.337 252.449 273.151 252.449C273.904 252.449 274.56 252.61 275.119 252.932C275.682 253.254 276.118 253.72 276.425 254.331C276.738 254.942 276.892 255.683 276.887 256.554V263.5H274.316V256.952C274.316 256.223 274.127 255.652 273.748 255.24C273.374 254.828 272.855 254.622 272.192 254.622C271.743 254.622 271.343 254.722 270.992 254.92C270.647 255.115 270.374 255.396 270.175 255.766C269.981 256.135 269.884 256.582 269.884 257.108ZM288.123 255.474L285.779 255.73C285.713 255.493 285.597 255.271 285.431 255.062C285.27 254.854 285.052 254.686 284.778 254.558C284.503 254.43 284.167 254.366 283.769 254.366C283.234 254.366 282.784 254.482 282.42 254.714C282.06 254.946 281.882 255.247 281.887 255.616C281.882 255.934 281.998 256.192 282.235 256.391C282.477 256.589 282.874 256.753 283.428 256.881L285.289 257.278C286.321 257.501 287.088 257.854 287.59 258.337C288.097 258.82 288.353 259.452 288.357 260.233C288.353 260.92 288.151 261.526 287.754 262.051C287.361 262.572 286.814 262.979 286.113 263.273C285.412 263.566 284.607 263.713 283.698 263.713C282.363 263.713 281.288 263.434 280.474 262.875C279.659 262.312 279.174 261.528 279.018 260.524L281.525 260.283C281.638 260.775 281.88 261.147 282.249 261.398C282.619 261.649 283.099 261.774 283.691 261.774C284.302 261.774 284.792 261.649 285.161 261.398C285.535 261.147 285.722 260.837 285.722 260.467C285.722 260.155 285.602 259.897 285.36 259.693C285.123 259.49 284.754 259.333 284.252 259.224L282.391 258.834C281.345 258.616 280.571 258.249 280.069 257.733C279.567 257.212 279.318 256.554 279.323 255.759C279.318 255.086 279.501 254.504 279.87 254.011C280.244 253.514 280.763 253.131 281.425 252.861C282.093 252.586 282.862 252.449 283.734 252.449C285.012 252.449 286.018 252.721 286.752 253.266C287.491 253.81 287.948 254.546 288.123 255.474ZM297.43 258.912V252.591H300.001V263.5H297.509V261.561H297.395C297.149 262.172 296.744 262.671 296.18 263.06C295.622 263.448 294.933 263.642 294.114 263.642C293.399 263.642 292.767 263.483 292.217 263.166C291.673 262.844 291.247 262.378 290.939 261.767C290.631 261.152 290.477 260.408 290.477 259.537V252.591H293.048V259.139C293.048 259.83 293.238 260.38 293.616 260.787C293.995 261.194 294.492 261.398 295.108 261.398C295.487 261.398 295.854 261.305 296.209 261.121C296.564 260.936 296.855 260.661 297.082 260.297C297.314 259.928 297.43 259.466 297.43 258.912ZM305.216 248.955V263.5H302.645V248.955H305.216ZM313.308 252.591V254.58H307.036V252.591H313.308ZM308.585 249.977H311.156V260.219C311.156 260.564 311.208 260.83 311.312 261.014C311.421 261.194 311.563 261.317 311.738 261.384C311.913 261.45 312.107 261.483 312.32 261.483C312.481 261.483 312.628 261.471 312.761 261.447C312.898 261.424 313.002 261.402 313.073 261.384L313.506 263.393C313.369 263.441 313.173 263.493 312.917 263.55C312.666 263.607 312.358 263.64 311.994 263.649C311.35 263.668 310.77 263.571 310.254 263.358C309.737 263.14 309.328 262.804 309.025 262.349C308.727 261.895 308.58 261.327 308.585 260.645V249.977ZM315.458 263.5V252.591H318.029V263.5H315.458ZM316.75 251.043C316.343 251.043 315.993 250.908 315.699 250.638C315.406 250.363 315.259 250.034 315.259 249.651C315.259 249.262 315.406 248.933 315.699 248.663C315.993 248.389 316.343 248.251 316.75 248.251C317.162 248.251 317.513 248.389 317.801 248.663C318.095 248.933 318.242 249.262 318.242 249.651C318.242 250.034 318.095 250.363 317.801 250.638C317.513 250.908 317.162 251.043 316.75 251.043ZM323.244 257.108V263.5H320.673V252.591H323.13V254.445H323.258C323.509 253.834 323.909 253.348 324.458 252.989C325.012 252.629 325.696 252.449 326.511 252.449C327.263 252.449 327.919 252.61 328.478 252.932C329.041 253.254 329.477 253.72 329.785 254.331C330.097 254.942 330.251 255.683 330.246 256.554V263.5H327.675V256.952C327.675 256.223 327.486 255.652 327.107 255.24C326.733 254.828 326.215 254.622 325.552 254.622C325.102 254.622 324.702 254.722 324.352 254.92C324.006 255.115 323.734 255.396 323.535 255.766C323.341 256.135 323.244 256.582 323.244 257.108ZM337.604 267.818C336.681 267.818 335.888 267.693 335.225 267.442C334.562 267.196 334.03 266.864 333.627 266.447C333.225 266.031 332.945 265.569 332.789 265.062L335.104 264.501C335.209 264.714 335.36 264.925 335.559 265.134C335.758 265.347 336.025 265.522 336.362 265.659C336.702 265.801 337.131 265.872 337.647 265.872C338.376 265.872 338.98 265.695 339.458 265.339C339.936 264.989 340.175 264.411 340.175 263.607V261.54H340.048C339.915 261.805 339.721 262.077 339.465 262.357C339.214 262.636 338.88 262.87 338.464 263.06C338.052 263.249 337.533 263.344 336.908 263.344C336.07 263.344 335.31 263.147 334.629 262.754C333.951 262.357 333.412 261.765 333.009 260.979C332.612 260.188 332.413 259.198 332.413 258.01C332.413 256.812 332.612 255.801 333.009 254.977C333.412 254.149 333.954 253.521 334.636 253.095C335.317 252.664 336.077 252.449 336.915 252.449C337.555 252.449 338.08 252.558 338.492 252.776C338.909 252.989 339.24 253.247 339.487 253.55C339.733 253.848 339.92 254.13 340.048 254.395H340.19V252.591H342.725V263.678C342.725 264.61 342.503 265.382 342.058 265.993C341.612 266.604 341.004 267.061 340.232 267.364C339.46 267.667 338.585 267.818 337.604 267.818ZM337.626 261.327C338.17 261.327 338.634 261.194 339.018 260.929C339.401 260.664 339.692 260.283 339.891 259.786C340.09 259.288 340.19 258.692 340.19 257.996C340.19 257.309 340.09 256.708 339.891 256.192C339.697 255.676 339.408 255.276 339.025 254.991C338.646 254.703 338.18 254.558 337.626 254.558C337.053 254.558 336.575 254.707 336.191 255.006C335.808 255.304 335.519 255.714 335.325 256.234C335.13 256.75 335.033 257.338 335.033 257.996C335.033 258.663 335.13 259.248 335.325 259.75C335.523 260.247 335.815 260.635 336.198 260.915C336.586 261.189 337.062 261.327 337.626 261.327Z" fill="#F9FAFB"/>
<path d="M146.804 297.5L143.622 285.864H145.054L147.486 295.341H147.599L150.077 285.864H151.668L154.145 295.341H154.259L156.69 285.864H158.122L154.94 297.5H153.486L150.918 288.227H150.827L148.259 297.5H146.804ZM162.543 297.682C161.702 297.682 160.976 297.496 160.366 297.125C159.76 296.75 159.293 296.227 158.963 295.557C158.637 294.883 158.474 294.098 158.474 293.205C158.474 292.311 158.637 291.523 158.963 290.841C159.293 290.155 159.751 289.621 160.338 289.239C160.929 288.852 161.618 288.659 162.406 288.659C162.861 288.659 163.31 288.735 163.753 288.886C164.196 289.038 164.599 289.284 164.963 289.625C165.327 289.962 165.616 290.409 165.832 290.966C166.048 291.523 166.156 292.208 166.156 293.023V293.591H159.429V292.432H164.793C164.793 291.939 164.694 291.5 164.497 291.114C164.304 290.727 164.027 290.422 163.668 290.199C163.312 289.975 162.891 289.864 162.406 289.864C161.872 289.864 161.41 289.996 161.02 290.261C160.634 290.523 160.336 290.864 160.128 291.284C159.92 291.705 159.815 292.155 159.815 292.636V293.409C159.815 294.068 159.929 294.627 160.156 295.085C160.387 295.54 160.707 295.886 161.116 296.125C161.526 296.36 162.001 296.477 162.543 296.477C162.895 296.477 163.213 296.428 163.497 296.33C163.785 296.227 164.033 296.076 164.241 295.875C164.45 295.67 164.611 295.417 164.724 295.114L166.02 295.477C165.884 295.917 165.654 296.303 165.332 296.636C165.01 296.966 164.613 297.223 164.139 297.409C163.666 297.591 163.134 297.682 162.543 297.682ZM176.241 297.682C175.454 297.682 174.762 297.494 174.168 297.119C173.577 296.744 173.115 296.22 172.781 295.545C172.452 294.871 172.287 294.083 172.287 293.182C172.287 292.273 172.452 291.479 172.781 290.801C173.115 290.123 173.577 289.597 174.168 289.222C174.762 288.847 175.454 288.659 176.241 288.659C177.029 288.659 177.719 288.847 178.31 289.222C178.904 289.597 179.366 290.123 179.696 290.801C180.029 291.479 180.196 292.273 180.196 293.182C180.196 294.083 180.029 294.871 179.696 295.545C179.366 296.22 178.904 296.744 178.31 297.119C177.719 297.494 177.029 297.682 176.241 297.682ZM176.241 296.477C176.84 296.477 177.332 296.324 177.719 296.017C178.105 295.71 178.391 295.307 178.577 294.807C178.762 294.307 178.855 293.765 178.855 293.182C178.855 292.598 178.762 292.055 178.577 291.551C178.391 291.047 178.105 290.64 177.719 290.33C177.332 290.019 176.84 289.864 176.241 289.864C175.643 289.864 175.151 290.019 174.764 290.33C174.378 290.64 174.092 291.047 173.906 291.551C173.721 292.055 173.628 292.598 173.628 293.182C173.628 293.765 173.721 294.307 173.906 294.807C174.092 295.307 174.378 295.71 174.764 296.017C175.151 296.324 175.643 296.477 176.241 296.477ZM186.129 288.773V289.909H181.425V288.773H186.129ZM182.834 297.5V287.568C182.834 287.068 182.951 286.652 183.186 286.318C183.421 285.985 183.726 285.735 184.101 285.568C184.476 285.402 184.872 285.318 185.288 285.318C185.618 285.318 185.887 285.345 186.095 285.398C186.304 285.451 186.459 285.5 186.561 285.545L186.175 286.705C186.107 286.682 186.012 286.653 185.891 286.619C185.773 286.585 185.618 286.568 185.425 286.568C184.982 286.568 184.661 286.68 184.464 286.903C184.271 287.127 184.175 287.455 184.175 287.886V297.5H182.834ZM191.895 288.773V289.909H187.19V288.773H191.895ZM188.599 297.5V287.568C188.599 287.068 188.717 286.652 188.952 286.318C189.187 285.985 189.491 285.735 189.866 285.568C190.241 285.402 190.637 285.318 191.054 285.318C191.384 285.318 191.652 285.345 191.861 285.398C192.069 285.451 192.224 285.5 192.327 285.545L191.94 286.705C191.872 286.682 191.777 286.653 191.656 286.619C191.539 286.585 191.384 286.568 191.19 286.568C190.747 286.568 190.427 286.68 190.23 286.903C190.037 287.127 189.94 287.455 189.94 287.886V297.5H188.599ZM197.074 297.682C196.233 297.682 195.508 297.496 194.898 297.125C194.292 296.75 193.824 296.227 193.494 295.557C193.169 294.883 193.006 294.098 193.006 293.205C193.006 292.311 193.169 291.523 193.494 290.841C193.824 290.155 194.282 289.621 194.869 289.239C195.46 288.852 196.15 288.659 196.938 288.659C197.392 288.659 197.841 288.735 198.284 288.886C198.727 289.038 199.131 289.284 199.494 289.625C199.858 289.962 200.148 290.409 200.364 290.966C200.58 291.523 200.688 292.208 200.688 293.023V293.591H193.96V292.432H199.324C199.324 291.939 199.225 291.5 199.028 291.114C198.835 290.727 198.559 290.422 198.199 290.199C197.843 289.975 197.422 289.864 196.938 289.864C196.403 289.864 195.941 289.996 195.551 290.261C195.165 290.523 194.867 290.864 194.659 291.284C194.451 291.705 194.347 292.155 194.347 292.636V293.409C194.347 294.068 194.46 294.627 194.688 295.085C194.919 295.54 195.239 295.886 195.648 296.125C196.057 296.36 196.532 296.477 197.074 296.477C197.426 296.477 197.744 296.428 198.028 296.33C198.316 296.227 198.564 296.076 198.773 295.875C198.981 295.67 199.142 295.417 199.256 295.114L200.551 295.477C200.415 295.917 200.186 296.303 199.864 296.636C199.542 296.966 199.144 297.223 198.67 297.409C198.197 297.591 197.665 297.682 197.074 297.682ZM202.727 297.5V288.773H204.023V290.091H204.114C204.273 289.659 204.561 289.309 204.977 289.04C205.394 288.771 205.864 288.636 206.386 288.636C206.485 288.636 206.608 288.638 206.756 288.642C206.903 288.646 207.015 288.652 207.091 288.659V290.023C207.045 290.011 206.941 289.994 206.778 289.972C206.619 289.945 206.451 289.932 206.273 289.932C205.848 289.932 205.47 290.021 205.136 290.199C204.807 290.373 204.545 290.616 204.352 290.926C204.163 291.233 204.068 291.583 204.068 291.977V297.5H202.727ZM216.976 288.773V289.909H212.453V288.773H216.976ZM213.771 286.682H215.112V295C215.112 295.379 215.167 295.663 215.277 295.852C215.391 296.038 215.535 296.163 215.709 296.227C215.887 296.288 216.074 296.318 216.271 296.318C216.419 296.318 216.54 296.311 216.635 296.295C216.73 296.277 216.805 296.261 216.862 296.25L217.135 297.455C217.044 297.489 216.917 297.523 216.754 297.557C216.591 297.595 216.385 297.614 216.135 297.614C215.756 297.614 215.385 297.532 215.021 297.369C214.661 297.206 214.362 296.958 214.124 296.625C213.889 296.292 213.771 295.871 213.771 295.364V286.682ZM218.993 297.5V288.773H220.288V290.091H220.379C220.538 289.659 220.826 289.309 221.243 289.04C221.66 288.771 222.129 288.636 222.652 288.636C222.75 288.636 222.874 288.638 223.021 288.642C223.169 288.646 223.281 288.652 223.357 288.659V290.023C223.311 290.011 223.207 289.994 223.044 289.972C222.885 289.945 222.716 289.932 222.538 289.932C222.114 289.932 221.735 290.021 221.402 290.199C221.072 290.373 220.811 290.616 220.618 290.926C220.429 291.233 220.334 291.583 220.334 291.977V297.5H218.993ZM227.514 297.705C226.961 297.705 226.459 297.6 226.009 297.392C225.558 297.18 225.2 296.875 224.935 296.477C224.67 296.076 224.537 295.591 224.537 295.023C224.537 294.523 224.635 294.117 224.832 293.807C225.029 293.492 225.293 293.246 225.622 293.068C225.952 292.89 226.315 292.758 226.713 292.67C227.115 292.58 227.518 292.508 227.923 292.455C228.454 292.386 228.884 292.335 229.213 292.301C229.546 292.263 229.789 292.201 229.94 292.114C230.096 292.027 230.173 291.875 230.173 291.659V291.614C230.173 291.053 230.02 290.617 229.713 290.307C229.41 289.996 228.95 289.841 228.332 289.841C227.692 289.841 227.19 289.981 226.827 290.261C226.463 290.542 226.207 290.841 226.06 291.159L224.787 290.705C225.014 290.174 225.317 289.761 225.696 289.466C226.079 289.167 226.495 288.958 226.946 288.841C227.401 288.72 227.848 288.659 228.287 288.659C228.567 288.659 228.889 288.693 229.253 288.761C229.62 288.826 229.974 288.96 230.315 289.165C230.66 289.369 230.946 289.678 231.173 290.091C231.401 290.504 231.514 291.057 231.514 291.75V297.5H230.173V296.318H230.105C230.014 296.508 229.863 296.71 229.651 296.926C229.438 297.142 229.156 297.326 228.804 297.477C228.452 297.629 228.022 297.705 227.514 297.705ZM227.719 296.5C228.249 296.5 228.696 296.396 229.06 296.188C229.427 295.979 229.704 295.71 229.889 295.381C230.079 295.051 230.173 294.705 230.173 294.341V293.114C230.116 293.182 229.991 293.244 229.798 293.301C229.609 293.354 229.389 293.402 229.139 293.443C228.893 293.481 228.652 293.515 228.418 293.545C228.187 293.572 227.999 293.595 227.855 293.614C227.507 293.659 227.181 293.733 226.878 293.835C226.579 293.934 226.336 294.083 226.151 294.284C225.969 294.481 225.878 294.75 225.878 295.091C225.878 295.557 226.05 295.909 226.395 296.148C226.743 296.383 227.185 296.5 227.719 296.5ZM233.962 297.5V288.773H235.303V297.5H233.962ZM234.643 287.318C234.382 287.318 234.157 287.229 233.967 287.051C233.782 286.873 233.689 286.659 233.689 286.409C233.689 286.159 233.782 285.945 233.967 285.767C234.157 285.589 234.382 285.5 234.643 285.5C234.905 285.5 235.128 285.589 235.314 285.767C235.503 285.945 235.598 286.159 235.598 286.409C235.598 286.659 235.503 286.873 235.314 287.051C235.128 287.229 234.905 287.318 234.643 287.318ZM239.099 292.25V297.5H237.759V288.773H239.054V290.136H239.168C239.372 289.693 239.683 289.337 240.099 289.068C240.516 288.795 241.054 288.659 241.713 288.659C242.304 288.659 242.821 288.78 243.264 289.023C243.707 289.261 244.052 289.625 244.298 290.114C244.545 290.598 244.668 291.212 244.668 291.955V297.5H243.327V292.045C243.327 291.36 243.149 290.826 242.793 290.443C242.437 290.057 241.948 289.864 241.327 289.864C240.899 289.864 240.516 289.956 240.179 290.142C239.846 290.328 239.582 290.598 239.389 290.955C239.196 291.311 239.099 291.742 239.099 292.25ZM247.118 297.5V288.773H248.459V297.5H247.118ZM247.8 287.318C247.538 287.318 247.313 287.229 247.124 287.051C246.938 286.873 246.845 286.659 246.845 286.409C246.845 286.159 246.938 285.945 247.124 285.767C247.313 285.589 247.538 285.5 247.8 285.5C248.061 285.5 248.285 285.589 248.47 285.767C248.66 285.945 248.754 286.159 248.754 286.409C248.754 286.659 248.66 286.873 248.47 287.051C248.285 287.229 248.061 287.318 247.8 287.318ZM252.256 292.25V297.5H250.915V288.773H252.21V290.136H252.324C252.528 289.693 252.839 289.337 253.256 289.068C253.672 288.795 254.21 288.659 254.869 288.659C255.46 288.659 255.977 288.78 256.42 289.023C256.864 289.261 257.208 289.625 257.455 290.114C257.701 290.598 257.824 291.212 257.824 291.955V297.5H256.483V292.045C256.483 291.36 256.305 290.826 255.949 290.443C255.593 290.057 255.104 289.864 254.483 289.864C254.055 289.864 253.672 289.956 253.335 290.142C253.002 290.328 252.739 290.598 252.545 290.955C252.352 291.311 252.256 291.742 252.256 292.25ZM263.797 300.955C263.149 300.955 262.592 300.871 262.126 300.705C261.661 300.542 261.272 300.326 260.962 300.057C260.655 299.792 260.411 299.508 260.229 299.205L261.297 298.455C261.418 298.614 261.571 298.795 261.757 299C261.943 299.208 262.196 299.388 262.518 299.54C262.844 299.695 263.27 299.773 263.797 299.773C264.501 299.773 265.083 299.602 265.541 299.261C266 298.92 266.229 298.386 266.229 297.659V295.886H266.115C266.017 296.045 265.876 296.242 265.695 296.477C265.517 296.708 265.259 296.915 264.922 297.097C264.589 297.275 264.138 297.364 263.57 297.364C262.865 297.364 262.232 297.197 261.672 296.864C261.115 296.53 260.674 296.045 260.348 295.409C260.026 294.773 259.865 294 259.865 293.091C259.865 292.197 260.022 291.419 260.337 290.756C260.651 290.089 261.089 289.574 261.649 289.21C262.21 288.843 262.857 288.659 263.592 288.659C264.161 288.659 264.611 288.754 264.945 288.943C265.282 289.129 265.539 289.341 265.717 289.58C265.899 289.814 266.039 290.008 266.138 290.159H266.274V288.773H267.57V297.75C267.57 298.5 267.399 299.11 267.058 299.58C266.721 300.053 266.267 300.4 265.695 300.619C265.126 300.843 264.494 300.955 263.797 300.955ZM263.751 296.159C264.289 296.159 264.744 296.036 265.115 295.79C265.486 295.544 265.768 295.189 265.962 294.727C266.155 294.265 266.251 293.712 266.251 293.068C266.251 292.439 266.157 291.884 265.967 291.403C265.778 290.922 265.498 290.545 265.126 290.273C264.755 290 264.297 289.864 263.751 289.864C263.183 289.864 262.71 290.008 262.331 290.295C261.956 290.583 261.674 290.97 261.484 291.455C261.299 291.939 261.206 292.477 261.206 293.068C261.206 293.674 261.301 294.21 261.49 294.676C261.683 295.138 261.967 295.502 262.342 295.767C262.721 296.028 263.191 296.159 263.751 296.159ZM274.524 300.773V288.773H275.82V290.159H275.979C276.077 290.008 276.214 289.814 276.388 289.58C276.566 289.341 276.82 289.129 277.149 288.943C277.482 288.754 277.933 288.659 278.501 288.659C279.236 288.659 279.884 288.843 280.445 289.21C281.005 289.578 281.443 290.098 281.757 290.773C282.071 291.447 282.229 292.242 282.229 293.159C282.229 294.083 282.071 294.884 281.757 295.562C281.443 296.237 281.007 296.759 280.45 297.131C279.893 297.498 279.251 297.682 278.524 297.682C277.964 297.682 277.515 297.589 277.178 297.403C276.84 297.214 276.581 297 276.399 296.761C276.217 296.519 276.077 296.318 275.979 296.159H275.865V300.773H274.524ZM275.842 293.136C275.842 293.795 275.939 294.377 276.132 294.881C276.325 295.381 276.607 295.773 276.979 296.057C277.35 296.337 277.804 296.477 278.342 296.477C278.903 296.477 279.371 296.33 279.746 296.034C280.125 295.735 280.409 295.333 280.598 294.83C280.791 294.322 280.888 293.758 280.888 293.136C280.888 292.523 280.793 291.97 280.604 291.477C280.418 290.981 280.136 290.589 279.757 290.301C279.382 290.009 278.911 289.864 278.342 289.864C277.797 289.864 277.339 290.002 276.967 290.278C276.596 290.551 276.316 290.934 276.126 291.426C275.937 291.915 275.842 292.485 275.842 293.136ZM284.274 297.5V288.773H285.57V290.091H285.661C285.82 289.659 286.107 289.309 286.524 289.04C286.941 288.771 287.411 288.636 287.933 288.636C288.032 288.636 288.155 288.638 288.303 288.642C288.45 288.646 288.562 288.652 288.638 288.659V290.023C288.592 290.011 288.488 289.994 288.325 289.972C288.166 289.945 287.998 289.932 287.82 289.932C287.395 289.932 287.017 290.021 286.683 290.199C286.354 290.373 286.092 290.616 285.899 290.926C285.71 291.233 285.615 291.583 285.615 291.977V297.5H284.274ZM293.507 297.682C292.719 297.682 292.028 297.494 291.433 297.119C290.842 296.744 290.38 296.22 290.047 295.545C289.717 294.871 289.553 294.083 289.553 293.182C289.553 292.273 289.717 291.479 290.047 290.801C290.38 290.123 290.842 289.597 291.433 289.222C292.028 288.847 292.719 288.659 293.507 288.659C294.295 288.659 294.984 288.847 295.575 289.222C296.17 289.597 296.632 290.123 296.962 290.801C297.295 291.479 297.462 292.273 297.462 293.182C297.462 294.083 297.295 294.871 296.962 295.545C296.632 296.22 296.17 296.744 295.575 297.119C294.984 297.494 294.295 297.682 293.507 297.682ZM293.507 296.477C294.106 296.477 294.598 296.324 294.984 296.017C295.371 295.71 295.657 295.307 295.842 294.807C296.028 294.307 296.121 293.765 296.121 293.182C296.121 292.598 296.028 292.055 295.842 291.551C295.657 291.047 295.371 290.64 294.984 290.33C294.598 290.019 294.106 289.864 293.507 289.864C292.909 289.864 292.416 290.019 292.03 290.33C291.643 290.64 291.357 291.047 291.172 291.551C290.986 292.055 290.893 292.598 290.893 293.182C290.893 293.765 290.986 294.307 291.172 294.807C291.357 295.307 291.643 295.71 292.03 296.017C292.416 296.324 292.909 296.477 293.507 296.477ZM303.031 300.955C302.384 300.955 301.827 300.871 301.361 300.705C300.895 300.542 300.507 300.326 300.196 300.057C299.889 299.792 299.645 299.508 299.463 299.205L300.531 298.455C300.652 298.614 300.806 298.795 300.991 299C301.177 299.208 301.431 299.388 301.753 299.54C302.079 299.695 302.505 299.773 303.031 299.773C303.736 299.773 304.317 299.602 304.776 299.261C305.234 298.92 305.463 298.386 305.463 297.659V295.886H305.349C305.251 296.045 305.111 296.242 304.929 296.477C304.751 296.708 304.493 296.915 304.156 297.097C303.823 297.275 303.372 297.364 302.804 297.364C302.099 297.364 301.467 297.197 300.906 296.864C300.349 296.53 299.908 296.045 299.582 295.409C299.26 294.773 299.099 294 299.099 293.091C299.099 292.197 299.257 291.419 299.571 290.756C299.885 290.089 300.323 289.574 300.884 289.21C301.444 288.843 302.092 288.659 302.827 288.659C303.395 288.659 303.846 288.754 304.179 288.943C304.516 289.129 304.774 289.341 304.952 289.58C305.134 289.814 305.274 290.008 305.372 290.159H305.509V288.773H306.804V297.75C306.804 298.5 306.634 299.11 306.293 299.58C305.955 300.053 305.501 300.4 304.929 300.619C304.361 300.843 303.728 300.955 303.031 300.955ZM302.986 296.159C303.524 296.159 303.978 296.036 304.349 295.79C304.721 295.544 305.003 295.189 305.196 294.727C305.389 294.265 305.486 293.712 305.486 293.068C305.486 292.439 305.391 291.884 305.202 291.403C305.012 290.922 304.732 290.545 304.361 290.273C303.99 290 303.531 289.864 302.986 289.864C302.418 289.864 301.944 290.008 301.565 290.295C301.19 290.583 300.908 290.97 300.719 291.455C300.533 291.939 300.44 292.477 300.44 293.068C300.44 293.674 300.535 294.21 300.724 294.676C300.918 295.138 301.202 295.502 301.577 295.767C301.955 296.028 302.425 296.159 302.986 296.159ZM309.259 297.5V288.773H310.554V290.091H310.645C310.804 289.659 311.092 289.309 311.509 289.04C311.925 288.771 312.395 288.636 312.918 288.636C313.016 288.636 313.139 288.638 313.287 288.642C313.435 288.646 313.546 288.652 313.622 288.659V290.023C313.577 290.011 313.473 289.994 313.31 289.972C313.151 289.945 312.982 289.932 312.804 289.932C312.38 289.932 312.001 290.021 311.668 290.199C311.338 290.373 311.077 290.616 310.884 290.926C310.694 291.233 310.599 291.583 310.599 291.977V297.5H309.259ZM317.78 297.705C317.227 297.705 316.725 297.6 316.274 297.392C315.823 297.18 315.465 296.875 315.2 296.477C314.935 296.076 314.803 295.591 314.803 295.023C314.803 294.523 314.901 294.117 315.098 293.807C315.295 293.492 315.558 293.246 315.888 293.068C316.217 292.89 316.581 292.758 316.979 292.67C317.38 292.58 317.784 292.508 318.189 292.455C318.719 292.386 319.149 292.335 319.479 292.301C319.812 292.263 320.054 292.201 320.206 292.114C320.361 292.027 320.439 291.875 320.439 291.659V291.614C320.439 291.053 320.286 290.617 319.979 290.307C319.676 289.996 319.215 289.841 318.598 289.841C317.958 289.841 317.456 289.981 317.092 290.261C316.729 290.542 316.473 290.841 316.325 291.159L315.053 290.705C315.28 290.174 315.583 289.761 315.962 289.466C316.344 289.167 316.761 288.958 317.212 288.841C317.666 288.72 318.113 288.659 318.553 288.659C318.833 288.659 319.155 288.693 319.518 288.761C319.886 288.826 320.24 288.96 320.581 289.165C320.926 289.369 321.212 289.678 321.439 290.091C321.666 290.504 321.78 291.057 321.78 291.75V297.5H320.439V296.318H320.371C320.28 296.508 320.128 296.71 319.916 296.926C319.704 297.142 319.422 297.326 319.07 297.477C318.717 297.629 318.287 297.705 317.78 297.705ZM317.984 296.5C318.515 296.5 318.962 296.396 319.325 296.188C319.693 295.979 319.969 295.71 320.155 295.381C320.344 295.051 320.439 294.705 320.439 294.341V293.114C320.382 293.182 320.257 293.244 320.064 293.301C319.875 293.354 319.655 293.402 319.405 293.443C319.159 293.481 318.918 293.515 318.683 293.545C318.452 293.572 318.265 293.595 318.121 293.614C317.772 293.659 317.446 293.733 317.143 293.835C316.844 293.934 316.602 294.083 316.416 294.284C316.234 294.481 316.143 294.75 316.143 295.091C316.143 295.557 316.316 295.909 316.661 296.148C317.009 296.383 317.45 296.5 317.984 296.5ZM324.227 297.5V288.773H325.523V290.136H325.636C325.818 289.67 326.112 289.309 326.517 289.051C326.922 288.79 327.409 288.659 327.977 288.659C328.553 288.659 329.032 288.79 329.415 289.051C329.801 289.309 330.102 289.67 330.318 290.136H330.409C330.633 289.686 330.968 289.328 331.415 289.062C331.862 288.794 332.398 288.659 333.023 288.659C333.803 288.659 334.441 288.903 334.938 289.392C335.434 289.877 335.682 290.633 335.682 291.659V297.5H334.341V291.659C334.341 291.015 334.165 290.555 333.812 290.278C333.46 290.002 333.045 289.864 332.568 289.864C331.955 289.864 331.479 290.049 331.142 290.42C330.805 290.788 330.636 291.254 330.636 291.818V297.5H329.273V291.523C329.273 291.027 329.112 290.627 328.79 290.324C328.468 290.017 328.053 289.864 327.545 289.864C327.197 289.864 326.871 289.956 326.568 290.142C326.269 290.328 326.027 290.585 325.841 290.915C325.659 291.241 325.568 291.617 325.568 292.045V297.5H324.227ZM344.315 290.727L343.111 291.068C343.035 290.867 342.923 290.672 342.776 290.483C342.632 290.29 342.435 290.131 342.185 290.006C341.935 289.881 341.615 289.818 341.224 289.818C340.69 289.818 340.245 289.941 339.889 290.188C339.537 290.43 339.361 290.739 339.361 291.114C339.361 291.447 339.482 291.71 339.724 291.903C339.967 292.097 340.346 292.258 340.861 292.386L342.156 292.705C342.937 292.894 343.518 293.184 343.901 293.574C344.283 293.96 344.474 294.458 344.474 295.068C344.474 295.568 344.33 296.015 344.043 296.409C343.759 296.803 343.361 297.114 342.849 297.341C342.338 297.568 341.743 297.682 341.065 297.682C340.175 297.682 339.438 297.489 338.855 297.102C338.272 296.716 337.902 296.152 337.747 295.409L339.02 295.091C339.141 295.561 339.37 295.913 339.707 296.148C340.048 296.383 340.493 296.5 341.043 296.5C341.668 296.5 342.164 296.367 342.531 296.102C342.902 295.833 343.088 295.511 343.088 295.136C343.088 294.833 342.982 294.58 342.77 294.375C342.558 294.167 342.232 294.011 341.793 293.909L340.338 293.568C339.539 293.379 338.952 293.085 338.577 292.688C338.205 292.286 338.02 291.784 338.02 291.182C338.02 290.689 338.158 290.254 338.435 289.875C338.715 289.496 339.096 289.199 339.577 288.983C340.062 288.767 340.611 288.659 341.224 288.659C342.088 288.659 342.766 288.848 343.259 289.227C343.755 289.606 344.107 290.106 344.315 290.727ZM354.788 288.773V289.909H350.266V288.773H354.788ZM351.584 286.682H352.925V295C352.925 295.379 352.98 295.663 353.089 295.852C353.203 296.038 353.347 296.163 353.521 296.227C353.699 296.288 353.887 296.318 354.084 296.318C354.232 296.318 354.353 296.311 354.447 296.295C354.542 296.277 354.618 296.261 354.675 296.25L354.947 297.455C354.857 297.489 354.73 297.523 354.567 297.557C354.404 297.595 354.197 297.614 353.947 297.614C353.569 297.614 353.197 297.532 352.834 297.369C352.474 297.206 352.175 296.958 351.936 296.625C351.701 296.292 351.584 295.871 351.584 295.364V286.682ZM360.257 297.682C359.469 297.682 358.778 297.494 358.183 297.119C357.592 296.744 357.13 296.22 356.797 295.545C356.467 294.871 356.303 294.083 356.303 293.182C356.303 292.273 356.467 291.479 356.797 290.801C357.13 290.123 357.592 289.597 358.183 289.222C358.778 288.847 359.469 288.659 360.257 288.659C361.045 288.659 361.734 288.847 362.325 289.222C362.92 289.597 363.382 290.123 363.712 290.801C364.045 291.479 364.212 292.273 364.212 293.182C364.212 294.083 364.045 294.871 363.712 295.545C363.382 296.22 362.92 296.744 362.325 297.119C361.734 297.494 361.045 297.682 360.257 297.682ZM360.257 296.477C360.856 296.477 361.348 296.324 361.734 296.017C362.121 295.71 362.407 295.307 362.592 294.807C362.778 294.307 362.871 293.765 362.871 293.182C362.871 292.598 362.778 292.055 362.592 291.551C362.407 291.047 362.121 290.64 361.734 290.33C361.348 290.019 360.856 289.864 360.257 289.864C359.659 289.864 359.166 290.019 358.78 290.33C358.393 290.64 358.107 291.047 357.922 291.551C357.736 292.055 357.643 292.598 357.643 293.182C357.643 293.765 357.736 294.307 357.922 294.807C358.107 295.307 358.393 295.71 358.78 296.017C359.166 296.324 359.659 296.477 360.257 296.477ZM374.418 297.682C373.577 297.682 372.851 297.496 372.241 297.125C371.635 296.75 371.168 296.227 370.838 295.557C370.512 294.883 370.349 294.098 370.349 293.205C370.349 292.311 370.512 291.523 370.838 290.841C371.168 290.155 371.626 289.621 372.213 289.239C372.804 288.852 373.493 288.659 374.281 288.659C374.736 288.659 375.185 288.735 375.628 288.886C376.071 289.038 376.474 289.284 376.838 289.625C377.202 289.962 377.491 290.409 377.707 290.966C377.923 291.523 378.031 292.208 378.031 293.023V293.591H371.304V292.432H376.668C376.668 291.939 376.569 291.5 376.372 291.114C376.179 290.727 375.902 290.422 375.543 290.199C375.187 289.975 374.766 289.864 374.281 289.864C373.747 289.864 373.285 289.996 372.895 290.261C372.509 290.523 372.211 290.864 372.003 291.284C371.795 291.705 371.69 292.155 371.69 292.636V293.409C371.69 294.068 371.804 294.627 372.031 295.085C372.262 295.54 372.582 295.886 372.991 296.125C373.401 296.36 373.876 296.477 374.418 296.477C374.77 296.477 375.088 296.428 375.372 296.33C375.66 296.227 375.908 296.076 376.116 295.875C376.325 295.67 376.486 295.417 376.599 295.114L377.895 295.477C377.759 295.917 377.529 296.303 377.207 296.636C376.885 296.966 376.488 297.223 376.014 297.409C375.541 297.591 375.009 297.682 374.418 297.682ZM380.071 297.5V288.773H381.366V290.136H381.48C381.662 289.67 381.955 289.309 382.361 289.051C382.766 288.79 383.253 288.659 383.821 288.659C384.397 288.659 384.876 288.79 385.259 289.051C385.645 289.309 385.946 289.67 386.162 290.136H386.253C386.476 289.686 386.812 289.328 387.259 289.062C387.705 288.794 388.241 288.659 388.866 288.659C389.647 288.659 390.285 288.903 390.781 289.392C391.277 289.877 391.526 290.633 391.526 291.659V297.5H390.185V291.659C390.185 291.015 390.009 290.555 389.656 290.278C389.304 290.002 388.889 289.864 388.412 289.864C387.798 289.864 387.323 290.049 386.986 290.42C386.649 290.788 386.48 291.254 386.48 291.818V297.5H385.116V291.523C385.116 291.027 384.955 290.627 384.634 290.324C384.312 290.017 383.897 289.864 383.389 289.864C383.041 289.864 382.715 289.956 382.412 290.142C382.113 290.328 381.87 290.585 381.685 290.915C381.503 291.241 381.412 291.617 381.412 292.045V297.5H380.071ZM393.977 300.773V288.773H395.273V290.159H395.432C395.53 290.008 395.667 289.814 395.841 289.58C396.019 289.341 396.273 289.129 396.602 288.943C396.936 288.754 397.386 288.659 397.955 288.659C398.689 288.659 399.337 288.843 399.898 289.21C400.458 289.578 400.896 290.098 401.21 290.773C401.525 291.447 401.682 292.242 401.682 293.159C401.682 294.083 401.525 294.884 401.21 295.562C400.896 296.237 400.46 296.759 399.903 297.131C399.347 297.498 398.705 297.682 397.977 297.682C397.417 297.682 396.968 297.589 396.631 297.403C396.294 297.214 396.034 297 395.852 296.761C395.67 296.519 395.53 296.318 395.432 296.159H395.318V300.773H393.977ZM395.295 293.136C395.295 293.795 395.392 294.377 395.585 294.881C395.778 295.381 396.061 295.773 396.432 296.057C396.803 296.337 397.258 296.477 397.795 296.477C398.356 296.477 398.824 296.33 399.199 296.034C399.578 295.735 399.862 295.333 400.051 294.83C400.244 294.322 400.341 293.758 400.341 293.136C400.341 292.523 400.246 291.97 400.057 291.477C399.871 290.981 399.589 290.589 399.21 290.301C398.835 290.009 398.364 289.864 397.795 289.864C397.25 289.864 396.792 290.002 396.42 290.278C396.049 290.551 395.769 290.934 395.58 291.426C395.39 291.915 395.295 292.485 395.295 293.136ZM407.273 297.682C406.485 297.682 405.794 297.494 405.199 297.119C404.608 296.744 404.146 296.22 403.812 295.545C403.483 294.871 403.318 294.083 403.318 293.182C403.318 292.273 403.483 291.479 403.812 290.801C404.146 290.123 404.608 289.597 405.199 289.222C405.794 288.847 406.485 288.659 407.273 288.659C408.061 288.659 408.75 288.847 409.341 289.222C409.936 289.597 410.398 290.123 410.727 290.801C411.061 291.479 411.227 292.273 411.227 293.182C411.227 294.083 411.061 294.871 410.727 295.545C410.398 296.22 409.936 296.744 409.341 297.119C408.75 297.494 408.061 297.682 407.273 297.682ZM407.273 296.477C407.871 296.477 408.364 296.324 408.75 296.017C409.136 295.71 409.422 295.307 409.608 294.807C409.794 294.307 409.886 293.765 409.886 293.182C409.886 292.598 409.794 292.055 409.608 291.551C409.422 291.047 409.136 290.64 408.75 290.33C408.364 290.019 407.871 289.864 407.273 289.864C406.674 289.864 406.182 290.019 405.795 290.33C405.409 290.64 405.123 291.047 404.938 291.551C404.752 292.055 404.659 292.598 404.659 293.182C404.659 293.765 404.752 294.307 404.938 294.807C405.123 295.307 405.409 295.71 405.795 296.017C406.182 296.324 406.674 296.477 407.273 296.477ZM414.955 297.5L412.295 288.773H413.705L415.591 295.455H415.682L417.545 288.773H418.977L420.818 295.432H420.909L422.795 288.773H424.205L421.545 297.5H420.227L418.318 290.795H418.182L416.273 297.5H414.955ZM429.339 297.682C428.499 297.682 427.773 297.496 427.163 297.125C426.557 296.75 426.089 296.227 425.76 295.557C425.434 294.883 425.271 294.098 425.271 293.205C425.271 292.311 425.434 291.523 425.76 290.841C426.089 290.155 426.548 289.621 427.135 289.239C427.726 288.852 428.415 288.659 429.203 288.659C429.658 288.659 430.107 288.735 430.55 288.886C430.993 289.038 431.396 289.284 431.76 289.625C432.124 289.962 432.413 290.409 432.629 290.966C432.845 291.523 432.953 292.208 432.953 293.023V293.591H426.226V292.432H431.589C431.589 291.939 431.491 291.5 431.294 291.114C431.101 290.727 430.824 290.422 430.464 290.199C430.108 289.975 429.688 289.864 429.203 289.864C428.669 289.864 428.207 289.996 427.817 290.261C427.43 290.523 427.133 290.864 426.925 291.284C426.716 291.705 426.612 292.155 426.612 292.636V293.409C426.612 294.068 426.726 294.627 426.953 295.085C427.184 295.54 427.504 295.886 427.913 296.125C428.322 296.36 428.798 296.477 429.339 296.477C429.692 296.477 430.01 296.428 430.294 296.33C430.582 296.227 430.83 296.076 431.038 295.875C431.247 295.67 431.408 295.417 431.521 295.114L432.817 295.477C432.68 295.917 432.451 296.303 432.129 296.636C431.807 296.966 431.41 297.223 430.936 297.409C430.463 297.591 429.93 297.682 429.339 297.682ZM434.993 297.5V288.773H436.288V290.091H436.379C436.538 289.659 436.826 289.309 437.243 289.04C437.66 288.771 438.129 288.636 438.652 288.636C438.75 288.636 438.874 288.638 439.021 288.642C439.169 288.646 439.281 288.652 439.357 288.659V290.023C439.311 290.011 439.207 289.994 439.044 289.972C438.885 289.945 438.716 289.932 438.538 289.932C438.114 289.932 437.735 290.021 437.402 290.199C437.072 290.373 436.811 290.616 436.618 290.926C436.429 291.233 436.334 291.583 436.334 291.977V297.5H434.993ZM165.143 321.5V309.864H166.484V314.159H166.598C166.696 314.008 166.833 313.814 167.007 313.58C167.185 313.341 167.439 313.129 167.768 312.943C168.102 312.754 168.553 312.659 169.121 312.659C169.856 312.659 170.503 312.843 171.064 313.21C171.625 313.578 172.062 314.098 172.376 314.773C172.691 315.447 172.848 316.242 172.848 317.159C172.848 318.083 172.691 318.884 172.376 319.562C172.062 320.237 171.626 320.759 171.07 321.131C170.513 321.498 169.871 321.682 169.143 321.682C168.583 321.682 168.134 321.589 167.797 321.403C167.46 321.214 167.2 321 167.018 320.761C166.837 320.519 166.696 320.318 166.598 320.159H166.439V321.5H165.143ZM166.462 317.136C166.462 317.795 166.558 318.377 166.751 318.881C166.945 319.381 167.227 319.773 167.598 320.057C167.969 320.337 168.424 320.477 168.962 320.477C169.522 320.477 169.99 320.33 170.365 320.034C170.744 319.735 171.028 319.333 171.217 318.83C171.411 318.322 171.507 317.758 171.507 317.136C171.507 316.523 171.412 315.97 171.223 315.477C171.037 314.981 170.755 314.589 170.376 314.301C170.001 314.009 169.53 313.864 168.962 313.864C168.416 313.864 167.958 314.002 167.587 314.278C167.215 314.551 166.935 314.934 166.746 315.426C166.556 315.915 166.462 316.485 166.462 317.136ZM180.399 317.932V312.773H181.74V321.5H180.399V320.023H180.308C180.104 320.466 179.786 320.843 179.354 321.153C178.922 321.46 178.376 321.614 177.717 321.614C177.172 321.614 176.687 321.494 176.263 321.256C175.839 321.013 175.505 320.65 175.263 320.165C175.02 319.676 174.899 319.061 174.899 318.318V312.773H176.24V318.227C176.24 318.864 176.418 319.371 176.774 319.75C177.134 320.129 177.592 320.318 178.149 320.318C178.482 320.318 178.821 320.233 179.166 320.062C179.515 319.892 179.806 319.631 180.041 319.278C180.28 318.926 180.399 318.477 180.399 317.932ZM190.378 314.727L189.173 315.068C189.098 314.867 188.986 314.672 188.838 314.483C188.694 314.29 188.497 314.131 188.247 314.006C187.997 313.881 187.677 313.818 187.287 313.818C186.753 313.818 186.308 313.941 185.952 314.188C185.599 314.43 185.423 314.739 185.423 315.114C185.423 315.447 185.545 315.71 185.787 315.903C186.029 316.097 186.408 316.258 186.923 316.386L188.219 316.705C188.999 316.894 189.58 317.184 189.963 317.574C190.346 317.96 190.537 318.458 190.537 319.068C190.537 319.568 190.393 320.015 190.105 320.409C189.821 320.803 189.423 321.114 188.912 321.341C188.401 321.568 187.806 321.682 187.128 321.682C186.238 321.682 185.501 321.489 184.918 321.102C184.334 320.716 183.965 320.152 183.81 319.409L185.082 319.091C185.204 319.561 185.433 319.913 185.77 320.148C186.111 320.383 186.556 320.5 187.105 320.5C187.73 320.5 188.226 320.367 188.594 320.102C188.965 319.833 189.151 319.511 189.151 319.136C189.151 318.833 189.045 318.58 188.832 318.375C188.62 318.167 188.295 318.011 187.855 317.909L186.401 317.568C185.601 317.379 185.014 317.085 184.639 316.688C184.268 316.286 184.082 315.784 184.082 315.182C184.082 314.689 184.221 314.254 184.497 313.875C184.777 313.496 185.158 313.199 185.639 312.983C186.124 312.767 186.673 312.659 187.287 312.659C188.151 312.659 188.829 312.848 189.321 313.227C189.817 313.606 190.17 314.106 190.378 314.727ZM192.555 321.5V312.773H193.896V321.5H192.555ZM193.237 311.318C192.976 311.318 192.75 311.229 192.561 311.051C192.375 310.873 192.283 310.659 192.283 310.409C192.283 310.159 192.375 309.945 192.561 309.767C192.75 309.589 192.976 309.5 193.237 309.5C193.499 309.5 193.722 309.589 193.908 309.767C194.097 309.945 194.192 310.159 194.192 310.409C194.192 310.659 194.097 310.873 193.908 311.051C193.722 311.229 193.499 311.318 193.237 311.318ZM197.693 316.25V321.5H196.352V312.773H197.648V314.136H197.761C197.966 313.693 198.277 313.337 198.693 313.068C199.11 312.795 199.648 312.659 200.307 312.659C200.898 312.659 201.415 312.78 201.858 313.023C202.301 313.261 202.646 313.625 202.892 314.114C203.138 314.598 203.261 315.212 203.261 315.955V321.5H201.92V316.045C201.92 315.36 201.742 314.826 201.386 314.443C201.03 314.057 200.542 313.864 199.92 313.864C199.492 313.864 199.11 313.956 198.773 314.142C198.439 314.328 198.176 314.598 197.983 314.955C197.79 315.311 197.693 315.742 197.693 316.25ZM209.371 321.682C208.53 321.682 207.804 321.496 207.195 321.125C206.589 320.75 206.121 320.227 205.791 319.557C205.465 318.883 205.303 318.098 205.303 317.205C205.303 316.311 205.465 315.523 205.791 314.841C206.121 314.155 206.579 313.621 207.166 313.239C207.757 312.852 208.446 312.659 209.234 312.659C209.689 312.659 210.138 312.735 210.581 312.886C211.024 313.038 211.428 313.284 211.791 313.625C212.155 313.962 212.445 314.409 212.661 314.966C212.876 315.523 212.984 316.208 212.984 317.023V317.591H206.257V316.432H211.621C211.621 315.939 211.522 315.5 211.325 315.114C211.132 314.727 210.856 314.422 210.496 314.199C210.14 313.975 209.719 313.864 209.234 313.864C208.7 313.864 208.238 313.996 207.848 314.261C207.462 314.523 207.164 314.864 206.956 315.284C206.748 315.705 206.643 316.155 206.643 316.636V317.409C206.643 318.068 206.757 318.627 206.984 319.085C207.215 319.54 207.536 319.886 207.945 320.125C208.354 320.36 208.829 320.477 209.371 320.477C209.723 320.477 210.041 320.428 210.325 320.33C210.613 320.227 210.861 320.076 211.07 319.875C211.278 319.67 211.439 319.417 211.553 319.114L212.848 319.477C212.712 319.917 212.482 320.303 212.161 320.636C211.839 320.966 211.441 321.223 210.967 321.409C210.494 321.591 209.962 321.682 209.371 321.682ZM221.206 314.727L220.001 315.068C219.926 314.867 219.814 314.672 219.666 314.483C219.522 314.29 219.325 314.131 219.075 314.006C218.825 313.881 218.505 313.818 218.115 313.818C217.581 313.818 217.136 313.941 216.78 314.188C216.428 314.43 216.251 314.739 216.251 315.114C216.251 315.447 216.373 315.71 216.615 315.903C216.857 316.097 217.236 316.258 217.751 316.386L219.047 316.705C219.827 316.894 220.409 317.184 220.791 317.574C221.174 317.96 221.365 318.458 221.365 319.068C221.365 319.568 221.221 320.015 220.933 320.409C220.649 320.803 220.251 321.114 219.74 321.341C219.229 321.568 218.634 321.682 217.956 321.682C217.066 321.682 216.329 321.489 215.746 321.102C215.162 320.716 214.793 320.152 214.638 319.409L215.911 319.091C216.032 319.561 216.261 319.913 216.598 320.148C216.939 320.383 217.384 320.5 217.933 320.5C218.558 320.5 219.054 320.367 219.422 320.102C219.793 319.833 219.979 319.511 219.979 319.136C219.979 318.833 219.873 318.58 219.661 318.375C219.448 318.167 219.123 318.011 218.683 317.909L217.229 317.568C216.429 317.379 215.842 317.085 215.467 316.688C215.096 316.286 214.911 315.784 214.911 315.182C214.911 314.689 215.049 314.254 215.325 313.875C215.606 313.496 215.986 313.199 216.467 312.983C216.952 312.767 217.501 312.659 218.115 312.659C218.979 312.659 219.657 312.848 220.149 313.227C220.645 313.606 220.998 314.106 221.206 314.727ZM229.565 314.727L228.361 315.068C228.285 314.867 228.173 314.672 228.026 314.483C227.882 314.29 227.685 314.131 227.435 314.006C227.185 313.881 226.865 313.818 226.474 313.818C225.94 313.818 225.495 313.941 225.139 314.188C224.787 314.43 224.611 314.739 224.611 315.114C224.611 315.447 224.732 315.71 224.974 315.903C225.217 316.097 225.596 316.258 226.111 316.386L227.406 316.705C228.187 316.894 228.768 317.184 229.151 317.574C229.533 317.96 229.724 318.458 229.724 319.068C229.724 319.568 229.58 320.015 229.293 320.409C229.009 320.803 228.611 321.114 228.099 321.341C227.588 321.568 226.993 321.682 226.315 321.682C225.425 321.682 224.688 321.489 224.105 321.102C223.522 320.716 223.152 320.152 222.997 319.409L224.27 319.091C224.391 319.561 224.62 319.913 224.957 320.148C225.298 320.383 225.743 320.5 226.293 320.5C226.918 320.5 227.414 320.367 227.781 320.102C228.152 319.833 228.338 319.511 228.338 319.136C228.338 318.833 228.232 318.58 228.02 318.375C227.808 318.167 227.482 318.011 227.043 317.909L225.588 317.568C224.789 317.379 224.202 317.085 223.827 316.688C223.455 316.286 223.27 315.784 223.27 315.182C223.27 314.689 223.408 314.254 223.685 313.875C223.965 313.496 224.346 313.199 224.827 312.983C225.312 312.767 225.861 312.659 226.474 312.659C227.338 312.659 228.016 312.848 228.509 313.227C229.005 313.606 229.357 314.106 229.565 314.727ZM235.402 321.682C234.561 321.682 233.836 321.496 233.226 321.125C232.62 320.75 232.152 320.227 231.822 319.557C231.497 318.883 231.334 318.098 231.334 317.205C231.334 316.311 231.497 315.523 231.822 314.841C232.152 314.155 232.61 313.621 233.197 313.239C233.788 312.852 234.478 312.659 235.266 312.659C235.72 312.659 236.169 312.735 236.612 312.886C237.055 313.038 237.459 313.284 237.822 313.625C238.186 313.962 238.476 314.409 238.692 314.966C238.908 315.523 239.016 316.208 239.016 317.023V317.591H232.288V316.432H237.652C237.652 315.939 237.554 315.5 237.357 315.114C237.163 314.727 236.887 314.422 236.527 314.199C236.171 313.975 235.75 313.864 235.266 313.864C234.732 313.864 234.269 313.996 233.879 314.261C233.493 314.523 233.196 314.864 232.987 315.284C232.779 315.705 232.675 316.155 232.675 316.636V317.409C232.675 318.068 232.788 318.627 233.016 319.085C233.247 319.54 233.567 319.886 233.976 320.125C234.385 320.36 234.86 320.477 235.402 320.477C235.754 320.477 236.072 320.428 236.357 320.33C236.644 320.227 236.893 320.076 237.101 319.875C237.309 319.67 237.47 319.417 237.584 319.114L238.879 319.477C238.743 319.917 238.514 320.303 238.192 320.636C237.87 320.966 237.472 321.223 236.999 321.409C236.525 321.591 235.993 321.682 235.402 321.682ZM247.237 314.727L246.033 315.068C245.957 314.867 245.845 314.672 245.697 314.483C245.554 314.29 245.357 314.131 245.107 314.006C244.857 313.881 244.536 313.818 244.146 313.818C243.612 313.818 243.167 313.941 242.811 314.188C242.459 314.43 242.283 314.739 242.283 315.114C242.283 315.447 242.404 315.71 242.646 315.903C242.889 316.097 243.268 316.258 243.783 316.386L245.078 316.705C245.858 316.894 246.44 317.184 246.822 317.574C247.205 317.96 247.396 318.458 247.396 319.068C247.396 319.568 247.252 320.015 246.964 320.409C246.68 320.803 246.283 321.114 245.771 321.341C245.26 321.568 244.665 321.682 243.987 321.682C243.097 321.682 242.36 321.489 241.777 321.102C241.194 320.716 240.824 320.152 240.669 319.409L241.942 319.091C242.063 319.561 242.292 319.913 242.629 320.148C242.97 320.383 243.415 320.5 243.964 320.5C244.589 320.5 245.086 320.367 245.453 320.102C245.824 319.833 246.01 319.511 246.01 319.136C246.01 318.833 245.904 318.58 245.692 318.375C245.48 318.167 245.154 318.011 244.714 317.909L243.26 317.568C242.461 317.379 241.874 317.085 241.499 316.688C241.127 316.286 240.942 315.784 240.942 315.182C240.942 314.689 241.08 314.254 241.357 313.875C241.637 313.496 242.018 313.199 242.499 312.983C242.983 312.767 243.533 312.659 244.146 312.659C245.01 312.659 245.688 312.848 246.18 313.227C246.677 313.606 247.029 314.106 247.237 314.727ZM256.483 321.705C255.93 321.705 255.428 321.6 254.977 321.392C254.527 321.18 254.169 320.875 253.903 320.477C253.638 320.076 253.506 319.591 253.506 319.023C253.506 318.523 253.604 318.117 253.801 317.807C253.998 317.492 254.261 317.246 254.591 317.068C254.92 316.89 255.284 316.758 255.682 316.67C256.083 316.58 256.487 316.508 256.892 316.455C257.422 316.386 257.852 316.335 258.182 316.301C258.515 316.263 258.758 316.201 258.909 316.114C259.064 316.027 259.142 315.875 259.142 315.659V315.614C259.142 315.053 258.989 314.617 258.682 314.307C258.379 313.996 257.919 313.841 257.301 313.841C256.661 313.841 256.159 313.981 255.795 314.261C255.432 314.542 255.176 314.841 255.028 315.159L253.756 314.705C253.983 314.174 254.286 313.761 254.665 313.466C255.047 313.167 255.464 312.958 255.915 312.841C256.369 312.72 256.816 312.659 257.256 312.659C257.536 312.659 257.858 312.693 258.222 312.761C258.589 312.826 258.943 312.96 259.284 313.165C259.629 313.369 259.915 313.678 260.142 314.091C260.369 314.504 260.483 315.057 260.483 315.75V321.5H259.142V320.318H259.074C258.983 320.508 258.831 320.71 258.619 320.926C258.407 321.142 258.125 321.326 257.773 321.477C257.42 321.629 256.991 321.705 256.483 321.705ZM256.688 320.5C257.218 320.5 257.665 320.396 258.028 320.188C258.396 319.979 258.672 319.71 258.858 319.381C259.047 319.051 259.142 318.705 259.142 318.341V317.114C259.085 317.182 258.96 317.244 258.767 317.301C258.578 317.354 258.358 317.402 258.108 317.443C257.862 317.481 257.621 317.515 257.386 317.545C257.155 317.572 256.968 317.595 256.824 317.614C256.475 317.659 256.15 317.733 255.847 317.835C255.547 317.934 255.305 318.083 255.119 318.284C254.938 318.481 254.847 318.75 254.847 319.091C254.847 319.557 255.019 319.909 255.364 320.148C255.712 320.383 256.153 320.5 256.688 320.5ZM264.271 316.25V321.5H262.93V312.773H264.226V314.136H264.339C264.544 313.693 264.855 313.337 265.271 313.068C265.688 312.795 266.226 312.659 266.885 312.659C267.476 312.659 267.993 312.78 268.436 313.023C268.879 313.261 269.224 313.625 269.47 314.114C269.716 314.598 269.839 315.212 269.839 315.955V321.5H268.499V316.045C268.499 315.36 268.321 314.826 267.964 314.443C267.608 314.057 267.12 313.864 266.499 313.864C266.071 313.864 265.688 313.956 265.351 314.142C265.018 314.328 264.754 314.598 264.561 314.955C264.368 315.311 264.271 315.742 264.271 316.25ZM275.585 321.682C274.858 321.682 274.216 321.498 273.659 321.131C273.102 320.759 272.667 320.237 272.352 319.562C272.038 318.884 271.881 318.083 271.881 317.159C271.881 316.242 272.038 315.447 272.352 314.773C272.667 314.098 273.104 313.578 273.665 313.21C274.225 312.843 274.873 312.659 275.608 312.659C276.176 312.659 276.625 312.754 276.955 312.943C277.288 313.129 277.542 313.341 277.716 313.58C277.894 313.814 278.032 314.008 278.131 314.159H278.244V309.864H279.585V321.5H278.29V320.159H278.131C278.032 320.318 277.892 320.519 277.71 320.761C277.528 321 277.269 321.214 276.932 321.403C276.595 321.589 276.146 321.682 275.585 321.682ZM275.767 320.477C276.305 320.477 276.759 320.337 277.131 320.057C277.502 319.773 277.784 319.381 277.977 318.881C278.17 318.377 278.267 317.795 278.267 317.136C278.267 316.485 278.172 315.915 277.983 315.426C277.794 314.934 277.513 314.551 277.142 314.278C276.771 314.002 276.313 313.864 275.767 313.864C275.199 313.864 274.725 314.009 274.347 314.301C273.972 314.589 273.689 314.981 273.5 315.477C273.314 315.97 273.222 316.523 273.222 317.136C273.222 317.758 273.316 318.322 273.506 318.83C273.699 319.333 273.983 319.735 274.358 320.034C274.737 320.33 275.206 320.477 275.767 320.477ZM290.614 312.773V313.909H285.909V312.773H290.614ZM287.318 321.5V311.568C287.318 311.068 287.436 310.652 287.67 310.318C287.905 309.985 288.21 309.735 288.585 309.568C288.96 309.402 289.356 309.318 289.773 309.318C290.102 309.318 290.371 309.345 290.58 309.398C290.788 309.451 290.943 309.5 291.045 309.545L290.659 310.705C290.591 310.682 290.496 310.653 290.375 310.619C290.258 310.585 290.102 310.568 289.909 310.568C289.466 310.568 289.146 310.68 288.949 310.903C288.756 311.127 288.659 311.455 288.659 311.886V321.5H287.318ZM294.811 321.705C294.258 321.705 293.756 321.6 293.305 321.392C292.855 321.18 292.497 320.875 292.232 320.477C291.966 320.076 291.834 319.591 291.834 319.023C291.834 318.523 291.932 318.117 292.129 317.807C292.326 317.492 292.589 317.246 292.919 317.068C293.249 316.89 293.612 316.758 294.01 316.67C294.411 316.58 294.815 316.508 295.22 316.455C295.75 316.386 296.18 316.335 296.51 316.301C296.843 316.263 297.086 316.201 297.237 316.114C297.393 316.027 297.47 315.875 297.47 315.659V315.614C297.47 315.053 297.317 314.617 297.01 314.307C296.707 313.996 296.247 313.841 295.629 313.841C294.989 313.841 294.487 313.981 294.124 314.261C293.76 314.542 293.504 314.841 293.357 315.159L292.084 314.705C292.311 314.174 292.614 313.761 292.993 313.466C293.375 313.167 293.792 312.958 294.243 312.841C294.697 312.72 295.144 312.659 295.584 312.659C295.864 312.659 296.186 312.693 296.55 312.761C296.917 312.826 297.271 312.96 297.612 313.165C297.957 313.369 298.243 313.678 298.47 314.091C298.697 314.504 298.811 315.057 298.811 315.75V321.5H297.47V320.318H297.402C297.311 320.508 297.16 320.71 296.947 320.926C296.735 321.142 296.453 321.326 296.101 321.477C295.749 321.629 295.319 321.705 294.811 321.705ZM295.016 320.5C295.546 320.5 295.993 320.396 296.357 320.188C296.724 319.979 297 319.71 297.186 319.381C297.375 319.051 297.47 318.705 297.47 318.341V317.114C297.413 317.182 297.288 317.244 297.095 317.301C296.906 317.354 296.686 317.402 296.436 317.443C296.19 317.481 295.949 317.515 295.714 317.545C295.483 317.572 295.296 317.595 295.152 317.614C294.804 317.659 294.478 317.733 294.175 317.835C293.875 317.934 293.633 318.083 293.447 318.284C293.266 318.481 293.175 318.75 293.175 319.091C293.175 319.557 293.347 319.909 293.692 320.148C294.04 320.383 294.482 320.5 295.016 320.5ZM301.259 321.5V312.773H302.554V314.091H302.645C302.804 313.659 303.092 313.309 303.509 313.04C303.925 312.771 304.395 312.636 304.918 312.636C305.016 312.636 305.139 312.638 305.287 312.642C305.435 312.646 305.546 312.652 305.622 312.659V314.023C305.577 314.011 305.473 313.994 305.31 313.972C305.151 313.945 304.982 313.932 304.804 313.932C304.38 313.932 304.001 314.021 303.668 314.199C303.338 314.373 303.077 314.616 302.884 314.926C302.694 315.233 302.599 315.583 302.599 315.977V321.5H301.259ZM307.212 321.5V312.773H308.507V314.136H308.621C308.803 313.67 309.096 313.309 309.501 313.051C309.907 312.79 310.393 312.659 310.962 312.659C311.537 312.659 312.017 312.79 312.399 313.051C312.786 313.309 313.087 313.67 313.303 314.136H313.393C313.617 313.686 313.952 313.328 314.399 313.062C314.846 312.794 315.382 312.659 316.007 312.659C316.787 312.659 317.426 312.903 317.922 313.392C318.418 313.877 318.666 314.633 318.666 315.659V321.5H317.325V315.659C317.325 315.015 317.149 314.555 316.797 314.278C316.445 314.002 316.03 313.864 315.553 313.864C314.939 313.864 314.464 314.049 314.126 314.42C313.789 314.788 313.621 315.254 313.621 315.818V321.5H312.257V315.523C312.257 315.027 312.096 314.627 311.774 314.324C311.452 314.017 311.037 313.864 310.53 313.864C310.181 313.864 309.856 313.956 309.553 314.142C309.253 314.328 309.011 314.585 308.825 314.915C308.643 315.241 308.553 315.617 308.553 316.045V321.5H307.212ZM324.777 321.682C323.936 321.682 323.211 321.496 322.601 321.125C321.995 320.75 321.527 320.227 321.197 319.557C320.872 318.883 320.709 318.098 320.709 317.205C320.709 316.311 320.872 315.523 321.197 314.841C321.527 314.155 321.985 313.621 322.572 313.239C323.163 312.852 323.853 312.659 324.641 312.659C325.095 312.659 325.544 312.735 325.987 312.886C326.43 313.038 326.834 313.284 327.197 313.625C327.561 313.962 327.851 314.409 328.067 314.966C328.283 315.523 328.391 316.208 328.391 317.023V317.591H321.663V316.432H327.027C327.027 315.939 326.929 315.5 326.732 315.114C326.538 314.727 326.262 314.422 325.902 314.199C325.546 313.975 325.125 313.864 324.641 313.864C324.107 313.864 323.644 313.996 323.254 314.261C322.868 314.523 322.571 314.864 322.362 315.284C322.154 315.705 322.05 316.155 322.05 316.636V317.409C322.05 318.068 322.163 318.627 322.391 319.085C322.622 319.54 322.942 319.886 323.351 320.125C323.76 320.36 324.235 320.477 324.777 320.477C325.129 320.477 325.447 320.428 325.732 320.33C326.019 320.227 326.268 320.076 326.476 319.875C326.684 319.67 326.845 319.417 326.959 319.114L328.254 319.477C328.118 319.917 327.889 320.303 327.567 320.636C327.245 320.966 326.847 321.223 326.374 321.409C325.9 321.591 325.368 321.682 324.777 321.682ZM330.43 321.5V312.773H331.726V314.091H331.817C331.976 313.659 332.264 313.309 332.68 313.04C333.097 312.771 333.567 312.636 334.089 312.636C334.188 312.636 334.311 312.638 334.459 312.642C334.607 312.646 334.718 312.652 334.794 312.659V314.023C334.749 314.011 334.644 313.994 334.482 313.972C334.322 313.945 334.154 313.932 333.976 313.932C333.552 313.932 333.173 314.021 332.839 314.199C332.51 314.373 332.249 314.616 332.055 314.926C331.866 315.233 331.771 315.583 331.771 315.977V321.5H330.43ZM342.565 314.727L341.361 315.068C341.285 314.867 341.173 314.672 341.026 314.483C340.882 314.29 340.685 314.131 340.435 314.006C340.185 313.881 339.865 313.818 339.474 313.818C338.94 313.818 338.495 313.941 338.139 314.188C337.787 314.43 337.611 314.739 337.611 315.114C337.611 315.447 337.732 315.71 337.974 315.903C338.217 316.097 338.596 316.258 339.111 316.386L340.406 316.705C341.187 316.894 341.768 317.184 342.151 317.574C342.533 317.96 342.724 318.458 342.724 319.068C342.724 319.568 342.58 320.015 342.293 320.409C342.009 320.803 341.611 321.114 341.099 321.341C340.588 321.568 339.993 321.682 339.315 321.682C338.425 321.682 337.688 321.489 337.105 321.102C336.522 320.716 336.152 320.152 335.997 319.409L337.27 319.091C337.391 319.561 337.62 319.913 337.957 320.148C338.298 320.383 338.743 320.5 339.293 320.5C339.918 320.5 340.414 320.367 340.781 320.102C341.152 319.833 341.338 319.511 341.338 319.136C341.338 318.833 341.232 318.58 341.02 318.375C340.808 318.167 340.482 318.011 340.043 317.909L338.588 317.568C337.789 317.379 337.202 317.085 336.827 316.688C336.455 316.286 336.27 315.784 336.27 315.182C336.27 314.689 336.408 314.254 336.685 313.875C336.965 313.496 337.346 313.199 337.827 312.983C338.312 312.767 338.861 312.659 339.474 312.659C340.338 312.659 341.016 312.848 341.509 313.227C342.005 313.606 342.357 314.106 342.565 314.727ZM353.129 312.773V313.909H348.425V312.773H353.129ZM349.834 321.5V311.568C349.834 311.068 349.951 310.652 350.186 310.318C350.421 309.985 350.726 309.735 351.101 309.568C351.476 309.402 351.872 309.318 352.288 309.318C352.618 309.318 352.887 309.345 353.095 309.398C353.304 309.451 353.459 309.5 353.561 309.545L353.175 310.705C353.107 310.682 353.012 310.653 352.891 310.619C352.773 310.585 352.618 310.568 352.425 310.568C351.982 310.568 351.661 310.68 351.464 310.903C351.271 311.127 351.175 311.455 351.175 311.886V321.5H349.834ZM358.195 321.682C357.407 321.682 356.715 321.494 356.121 321.119C355.53 320.744 355.068 320.22 354.734 319.545C354.405 318.871 354.24 318.083 354.24 317.182C354.24 316.273 354.405 315.479 354.734 314.801C355.068 314.123 355.53 313.597 356.121 313.222C356.715 312.847 357.407 312.659 358.195 312.659C358.982 312.659 359.672 312.847 360.263 313.222C360.857 313.597 361.32 314.123 361.649 314.801C361.982 315.479 362.149 316.273 362.149 317.182C362.149 318.083 361.982 318.871 361.649 319.545C361.32 320.22 360.857 320.744 360.263 321.119C359.672 321.494 358.982 321.682 358.195 321.682ZM358.195 320.477C358.793 320.477 359.286 320.324 359.672 320.017C360.058 319.71 360.344 319.307 360.53 318.807C360.715 318.307 360.808 317.765 360.808 317.182C360.808 316.598 360.715 316.055 360.53 315.551C360.344 315.047 360.058 314.64 359.672 314.33C359.286 314.019 358.793 313.864 358.195 313.864C357.596 313.864 357.104 314.019 356.717 314.33C356.331 314.64 356.045 315.047 355.859 315.551C355.674 316.055 355.581 316.598 355.581 317.182C355.581 317.765 355.674 318.307 355.859 318.807C356.045 319.307 356.331 319.71 356.717 320.017C357.104 320.324 357.596 320.477 358.195 320.477ZM364.196 321.5V312.773H365.491V314.091H365.582C365.741 313.659 366.029 313.309 366.446 313.04C366.863 312.771 367.332 312.636 367.855 312.636C367.954 312.636 368.077 312.638 368.224 312.642C368.372 312.646 368.484 312.652 368.56 312.659V314.023C368.514 314.011 368.41 313.994 368.247 313.972C368.088 313.945 367.92 313.932 367.741 313.932C367.317 313.932 366.938 314.021 366.605 314.199C366.276 314.373 366.014 314.616 365.821 314.926C365.632 315.233 365.537 315.583 365.537 315.977V321.5H364.196ZM378.172 324.955C377.524 324.955 376.967 324.871 376.501 324.705C376.036 324.542 375.647 324.326 375.337 324.057C375.03 323.792 374.786 323.508 374.604 323.205L375.672 322.455C375.793 322.614 375.946 322.795 376.132 323C376.318 323.208 376.571 323.388 376.893 323.54C377.219 323.695 377.645 323.773 378.172 323.773C378.876 323.773 379.458 323.602 379.916 323.261C380.375 322.92 380.604 322.386 380.604 321.659V319.886H380.49C380.392 320.045 380.251 320.242 380.07 320.477C379.892 320.708 379.634 320.915 379.297 321.097C378.964 321.275 378.513 321.364 377.945 321.364C377.24 321.364 376.607 321.197 376.047 320.864C375.49 320.53 375.049 320.045 374.723 319.409C374.401 318.773 374.24 318 374.24 317.091C374.24 316.197 374.397 315.419 374.712 314.756C375.026 314.089 375.464 313.574 376.024 313.21C376.585 312.843 377.232 312.659 377.967 312.659C378.536 312.659 378.986 312.754 379.32 312.943C379.657 313.129 379.914 313.341 380.092 313.58C380.274 313.814 380.414 314.008 380.513 314.159H380.649V312.773H381.945V321.75C381.945 322.5 381.774 323.11 381.433 323.58C381.096 324.053 380.642 324.4 380.07 324.619C379.501 324.843 378.869 324.955 378.172 324.955ZM378.126 320.159C378.664 320.159 379.119 320.036 379.49 319.79C379.861 319.544 380.143 319.189 380.337 318.727C380.53 318.265 380.626 317.712 380.626 317.068C380.626 316.439 380.532 315.884 380.342 315.403C380.153 314.922 379.873 314.545 379.501 314.273C379.13 314 378.672 313.864 378.126 313.864C377.558 313.864 377.085 314.008 376.706 314.295C376.331 314.583 376.049 314.97 375.859 315.455C375.674 315.939 375.581 316.477 375.581 317.068C375.581 317.674 375.676 318.21 375.865 318.676C376.058 319.138 376.342 319.502 376.717 319.767C377.096 320.028 377.566 320.159 378.126 320.159ZM385.74 309.864V321.5H384.399V309.864H385.74ZM391.741 321.682C390.954 321.682 390.262 321.494 389.668 321.119C389.077 320.744 388.615 320.22 388.281 319.545C387.952 318.871 387.787 318.083 387.787 317.182C387.787 316.273 387.952 315.479 388.281 314.801C388.615 314.123 389.077 313.597 389.668 313.222C390.262 312.847 390.954 312.659 391.741 312.659C392.529 312.659 393.219 312.847 393.81 313.222C394.404 313.597 394.866 314.123 395.196 314.801C395.529 315.479 395.696 316.273 395.696 317.182C395.696 318.083 395.529 318.871 395.196 319.545C394.866 320.22 394.404 320.744 393.81 321.119C393.219 321.494 392.529 321.682 391.741 321.682ZM391.741 320.477C392.34 320.477 392.832 320.324 393.219 320.017C393.605 319.71 393.891 319.307 394.077 318.807C394.262 318.307 394.355 317.765 394.355 317.182C394.355 316.598 394.262 316.055 394.077 315.551C393.891 315.047 393.605 314.64 393.219 314.33C392.832 314.019 392.34 313.864 391.741 313.864C391.143 313.864 390.651 314.019 390.264 314.33C389.878 314.64 389.592 315.047 389.406 315.551C389.221 316.055 389.128 316.598 389.128 317.182C389.128 317.765 389.221 318.307 389.406 318.807C389.592 319.307 389.878 319.71 390.264 320.017C390.651 320.324 391.143 320.477 391.741 320.477ZM397.925 321.5V309.864H399.266V314.159H399.379C399.478 314.008 399.614 313.814 399.788 313.58C399.966 313.341 400.22 313.129 400.55 312.943C400.883 312.754 401.334 312.659 401.902 312.659C402.637 312.659 403.285 312.843 403.845 313.21C404.406 313.578 404.843 314.098 405.158 314.773C405.472 315.447 405.629 316.242 405.629 317.159C405.629 318.083 405.472 318.884 405.158 319.562C404.843 320.237 404.408 320.759 403.851 321.131C403.294 321.498 402.652 321.682 401.925 321.682C401.364 321.682 400.915 321.589 400.578 321.403C400.241 321.214 399.982 321 399.8 320.761C399.618 320.519 399.478 320.318 399.379 320.159H399.22V321.5H397.925ZM399.243 317.136C399.243 317.795 399.339 318.377 399.533 318.881C399.726 319.381 400.008 319.773 400.379 320.057C400.75 320.337 401.205 320.477 401.743 320.477C402.304 320.477 402.771 320.33 403.146 320.034C403.525 319.735 403.809 319.333 403.999 318.83C404.192 318.322 404.288 317.758 404.288 317.136C404.288 316.523 404.194 315.97 404.004 315.477C403.819 314.981 403.536 314.589 403.158 314.301C402.783 314.009 402.311 313.864 401.743 313.864C401.197 313.864 400.739 314.002 400.368 314.278C399.997 314.551 399.716 314.934 399.527 315.426C399.338 315.915 399.243 316.485 399.243 317.136ZM410.249 321.705C409.696 321.705 409.194 321.6 408.743 321.392C408.292 321.18 407.934 320.875 407.669 320.477C407.404 320.076 407.271 319.591 407.271 319.023C407.271 318.523 407.37 318.117 407.567 317.807C407.764 317.492 408.027 317.246 408.357 317.068C408.686 316.89 409.05 316.758 409.447 316.67C409.849 316.58 410.252 316.508 410.658 316.455C411.188 316.386 411.618 316.335 411.947 316.301C412.281 316.263 412.523 316.201 412.675 316.114C412.83 316.027 412.908 315.875 412.908 315.659V315.614C412.908 315.053 412.754 314.617 412.447 314.307C412.144 313.996 411.684 313.841 411.067 313.841C410.427 313.841 409.925 313.981 409.561 314.261C409.197 314.542 408.942 314.841 408.794 315.159L407.521 314.705C407.749 314.174 408.052 313.761 408.43 313.466C408.813 313.167 409.23 312.958 409.68 312.841C410.135 312.72 410.582 312.659 411.021 312.659C411.302 312.659 411.624 312.693 411.987 312.761C412.355 312.826 412.709 312.96 413.05 313.165C413.394 313.369 413.68 313.678 413.908 314.091C414.135 314.504 414.249 315.057 414.249 315.75V321.5H412.908V320.318H412.839C412.749 320.508 412.597 320.71 412.385 320.926C412.173 321.142 411.891 321.326 411.538 321.477C411.186 321.629 410.756 321.705 410.249 321.705ZM410.453 320.5C410.983 320.5 411.43 320.396 411.794 320.188C412.161 319.979 412.438 319.71 412.624 319.381C412.813 319.051 412.908 318.705 412.908 318.341V317.114C412.851 317.182 412.726 317.244 412.533 317.301C412.343 317.354 412.124 317.402 411.874 317.443C411.627 317.481 411.387 317.515 411.152 317.545C410.921 317.572 410.733 317.595 410.589 317.614C410.241 317.659 409.915 317.733 409.612 317.835C409.313 317.934 409.071 318.083 408.885 318.284C408.703 318.481 408.612 318.75 408.612 319.091C408.612 319.557 408.785 319.909 409.129 320.148C409.478 320.383 409.919 320.5 410.453 320.5ZM418.037 309.864V321.5H416.696V309.864H418.037ZM265.925 338.727L264.72 339.068C264.644 338.867 264.533 338.672 264.385 338.483C264.241 338.29 264.044 338.131 263.794 338.006C263.544 337.881 263.224 337.818 262.834 337.818C262.3 337.818 261.855 337.941 261.499 338.188C261.146 338.43 260.97 338.739 260.97 339.114C260.97 339.447 261.091 339.71 261.334 339.903C261.576 340.097 261.955 340.258 262.47 340.386L263.766 340.705C264.546 340.894 265.127 341.184 265.51 341.574C265.893 341.96 266.084 342.458 266.084 343.068C266.084 343.568 265.94 344.015 265.652 344.409C265.368 344.803 264.97 345.114 264.459 345.341C263.947 345.568 263.353 345.682 262.675 345.682C261.785 345.682 261.048 345.489 260.464 345.102C259.881 344.716 259.512 344.152 259.357 343.409L260.629 343.091C260.75 343.561 260.98 343.913 261.317 344.148C261.658 344.383 262.103 344.5 262.652 344.5C263.277 344.5 263.773 344.367 264.141 344.102C264.512 343.833 264.697 343.511 264.697 343.136C264.697 342.833 264.591 342.58 264.379 342.375C264.167 342.167 263.841 342.011 263.402 341.909L261.947 341.568C261.148 341.379 260.561 341.085 260.186 340.688C259.815 340.286 259.629 339.784 259.629 339.182C259.629 338.689 259.768 338.254 260.044 337.875C260.324 337.496 260.705 337.199 261.186 336.983C261.671 336.767 262.22 336.659 262.834 336.659C263.697 336.659 264.375 336.848 264.868 337.227C265.364 337.606 265.716 338.106 265.925 338.727ZM273.602 341.932V336.773H274.943V345.5H273.602V344.023H273.511C273.307 344.466 272.989 344.843 272.557 345.153C272.125 345.46 271.58 345.614 270.92 345.614C270.375 345.614 269.89 345.494 269.466 345.256C269.042 345.013 268.708 344.65 268.466 344.165C268.223 343.676 268.102 343.061 268.102 342.318V336.773H269.443V342.227C269.443 342.864 269.621 343.371 269.977 343.75C270.337 344.129 270.795 344.318 271.352 344.318C271.686 344.318 272.025 344.233 272.369 344.062C272.718 343.892 273.009 343.631 273.244 343.278C273.483 342.926 273.602 342.477 273.602 341.932ZM280.945 345.682C280.126 345.682 279.422 345.489 278.831 345.102C278.24 344.716 277.786 344.184 277.467 343.506C277.149 342.828 276.99 342.053 276.99 341.182C276.99 340.295 277.153 339.513 277.479 338.835C277.808 338.153 278.267 337.621 278.854 337.239C279.445 336.852 280.134 336.659 280.922 336.659C281.536 336.659 282.089 336.773 282.581 337C283.073 337.227 283.477 337.545 283.791 337.955C284.106 338.364 284.301 338.841 284.376 339.386H283.036C282.933 338.989 282.706 338.636 282.354 338.33C282.005 338.019 281.536 337.864 280.945 337.864C280.422 337.864 279.964 338 279.57 338.273C279.179 338.542 278.875 338.922 278.655 339.415C278.439 339.903 278.331 340.477 278.331 341.136C278.331 341.811 278.437 342.398 278.649 342.898C278.865 343.398 279.168 343.786 279.558 344.062C279.952 344.339 280.414 344.477 280.945 344.477C281.293 344.477 281.609 344.417 281.893 344.295C282.178 344.174 282.418 344 282.615 343.773C282.812 343.545 282.952 343.273 283.036 342.955H284.376C284.301 343.47 284.113 343.934 283.814 344.347C283.518 344.756 283.126 345.081 282.638 345.324C282.153 345.562 281.589 345.682 280.945 345.682ZM289.882 345.682C289.064 345.682 288.359 345.489 287.768 345.102C287.178 344.716 286.723 344.184 286.405 343.506C286.087 342.828 285.928 342.053 285.928 341.182C285.928 340.295 286.09 339.513 286.416 338.835C286.746 338.153 287.204 337.621 287.791 337.239C288.382 336.852 289.071 336.659 289.859 336.659C290.473 336.659 291.026 336.773 291.518 337C292.011 337.227 292.414 337.545 292.729 337.955C293.043 338.364 293.238 338.841 293.314 339.386H291.973C291.871 338.989 291.643 338.636 291.291 338.33C290.943 338.019 290.473 337.864 289.882 337.864C289.359 337.864 288.901 338 288.507 338.273C288.117 338.542 287.812 338.922 287.592 339.415C287.376 339.903 287.268 340.477 287.268 341.136C287.268 341.811 287.375 342.398 287.587 342.898C287.803 343.398 288.106 343.786 288.496 344.062C288.89 344.339 289.352 344.477 289.882 344.477C290.231 344.477 290.547 344.417 290.831 344.295C291.115 344.174 291.356 344 291.553 343.773C291.75 343.545 291.89 343.273 291.973 342.955H293.314C293.238 343.47 293.051 343.934 292.751 344.347C292.456 344.756 292.064 345.081 291.575 345.324C291.09 345.562 290.526 345.682 289.882 345.682ZM298.933 345.682C298.092 345.682 297.367 345.496 296.757 345.125C296.151 344.75 295.683 344.227 295.354 343.557C295.028 342.883 294.865 342.098 294.865 341.205C294.865 340.311 295.028 339.523 295.354 338.841C295.683 338.155 296.142 337.621 296.729 337.239C297.32 336.852 298.009 336.659 298.797 336.659C299.251 336.659 299.7 336.735 300.143 336.886C300.587 337.038 300.99 337.284 301.354 337.625C301.717 337.962 302.007 338.409 302.223 338.966C302.439 339.523 302.547 340.208 302.547 341.023V341.591H295.82V340.432H301.183C301.183 339.939 301.085 339.5 300.888 339.114C300.695 338.727 300.418 338.422 300.058 338.199C299.702 337.975 299.282 337.864 298.797 337.864C298.263 337.864 297.801 337.996 297.411 338.261C297.024 338.523 296.727 338.864 296.518 339.284C296.31 339.705 296.206 340.155 296.206 340.636V341.409C296.206 342.068 296.32 342.627 296.547 343.085C296.778 343.54 297.098 343.886 297.507 344.125C297.916 344.36 298.392 344.477 298.933 344.477C299.286 344.477 299.604 344.428 299.888 344.33C300.176 344.227 300.424 344.076 300.632 343.875C300.84 343.67 301.001 343.417 301.115 343.114L302.411 343.477C302.274 343.917 302.045 344.303 301.723 344.636C301.401 344.966 301.003 345.223 300.53 345.409C300.056 345.591 299.524 345.682 298.933 345.682ZM310.768 338.727L309.564 339.068C309.488 338.867 309.376 338.672 309.229 338.483C309.085 338.29 308.888 338.131 308.638 338.006C308.388 337.881 308.068 337.818 307.678 337.818C307.143 337.818 306.698 337.941 306.342 338.188C305.99 338.43 305.814 338.739 305.814 339.114C305.814 339.447 305.935 339.71 306.178 339.903C306.42 340.097 306.799 340.258 307.314 340.386L308.609 340.705C309.39 340.894 309.971 341.184 310.354 341.574C310.736 341.96 310.928 342.458 310.928 343.068C310.928 343.568 310.784 344.015 310.496 344.409C310.212 344.803 309.814 345.114 309.303 345.341C308.791 345.568 308.196 345.682 307.518 345.682C306.628 345.682 305.892 345.489 305.308 345.102C304.725 344.716 304.356 344.152 304.2 343.409L305.473 343.091C305.594 343.561 305.823 343.913 306.161 344.148C306.501 344.383 306.946 344.5 307.496 344.5C308.121 344.5 308.617 344.367 308.984 344.102C309.356 343.833 309.541 343.511 309.541 343.136C309.541 342.833 309.435 342.58 309.223 342.375C309.011 342.167 308.685 342.011 308.246 341.909L306.791 341.568C305.992 341.379 305.405 341.085 305.03 340.688C304.659 340.286 304.473 339.784 304.473 339.182C304.473 338.689 304.611 338.254 304.888 337.875C305.168 337.496 305.549 337.199 306.03 336.983C306.515 336.767 307.064 336.659 307.678 336.659C308.541 336.659 309.219 336.848 309.712 337.227C310.208 337.606 310.56 338.106 310.768 338.727ZM319.128 338.727L317.923 339.068C317.848 338.867 317.736 338.672 317.588 338.483C317.444 338.29 317.247 338.131 316.997 338.006C316.747 337.881 316.427 337.818 316.037 337.818C315.503 337.818 315.058 337.941 314.702 338.188C314.349 338.43 314.173 338.739 314.173 339.114C314.173 339.447 314.295 339.71 314.537 339.903C314.779 340.097 315.158 340.258 315.673 340.386L316.969 340.705C317.749 340.894 318.33 341.184 318.713 341.574C319.096 341.96 319.287 342.458 319.287 343.068C319.287 343.568 319.143 344.015 318.855 344.409C318.571 344.803 318.173 345.114 317.662 345.341C317.151 345.568 316.556 345.682 315.878 345.682C314.988 345.682 314.251 345.489 313.668 345.102C313.084 344.716 312.715 344.152 312.56 343.409L313.832 343.091C313.954 343.561 314.183 343.913 314.52 344.148C314.861 344.383 315.306 344.5 315.855 344.5C316.48 344.5 316.976 344.367 317.344 344.102C317.715 343.833 317.901 343.511 317.901 343.136C317.901 342.833 317.795 342.58 317.582 342.375C317.37 342.167 317.045 342.011 316.605 341.909L315.151 341.568C314.351 341.379 313.764 341.085 313.389 340.688C313.018 340.286 312.832 339.784 312.832 339.182C312.832 338.689 312.971 338.254 313.247 337.875C313.527 337.496 313.908 337.199 314.389 336.983C314.874 336.767 315.423 336.659 316.037 336.659C316.901 336.659 317.579 336.848 318.071 337.227C318.567 337.606 318.92 338.106 319.128 338.727ZM322.283 345.591C322.002 345.591 321.762 345.491 321.561 345.29C321.36 345.089 321.26 344.848 321.26 344.568C321.26 344.288 321.36 344.047 321.561 343.847C321.762 343.646 322.002 343.545 322.283 343.545C322.563 343.545 322.804 343.646 323.004 343.847C323.205 344.047 323.305 344.288 323.305 344.568C323.305 344.754 323.258 344.924 323.163 345.08C323.072 345.235 322.949 345.36 322.794 345.455C322.643 345.545 322.472 345.591 322.283 345.591Z" fill="#E5E7EB"/>
<g opacity="0.04">
<path d="M526.233 390.212C532.146 383.319 524.908 375.472 519.124 379.809C501.222 393.045 470.002 399.722 446.263 393.939C446.145 393.912 446.021 393.913 445.903 393.942C445.784 393.971 445.674 394.028 445.582 394.107C445.49 394.187 445.417 394.287 445.371 394.4C445.324 394.513 445.305 394.635 445.315 394.756C445.321 395.162 445.414 395.561 445.587 395.928C445.76 396.295 446.01 396.62 446.319 396.882C455.943 405.005 482.196 412.787 491.511 405.756C363.07 502.628 252.673 438.176 163.597 328.918C116.162 274.016 82.5303 208.332 35.8387 152.873C-11.1104 99.4358 -77.2204 52.3049 -151.098 54.5857C-151.303 54.5858 -151.505 54.6364 -151.686 54.7331C-151.867 54.8297 -152.022 54.9694 -152.136 55.1397C-152.251 55.3102 -152.322 55.5061 -152.342 55.7103C-152.363 55.9145 -152.334 56.1206 -152.256 56.3107C-152.133 56.6499 -151.908 56.9427 -151.612 57.1491C-151.315 57.3555 -150.963 57.4655 -150.602 57.464C-78.0165 57.3867 -15.1397 104.294 29.5446 158.095C74.827 214.95 106.02 281.429 152.489 337.724C242.091 456.611 364.206 527.895 494.657 412.632C490.853 416.007 487.7 445.926 497.897 458.86C498.189 459.23 498.608 459.479 499.073 459.558C499.538 459.637 500.016 459.54 500.414 459.287L500.461 459.246C500.687 459.1 500.847 458.872 500.908 458.61C500.969 458.347 500.926 458.072 500.788 457.841C491.765 441.665 514.315 404.064 526.233 390.212Z" fill="white"/>
<path d="M165.38 293.8C202.275 340.13 265.292 401.592 320.111 422.105C320.26 422.191 320.376 422.325 320.44 422.485C320.503 422.644 320.511 422.821 320.462 422.986C320.413 423.151 320.309 423.294 320.168 423.393C320.027 423.491 319.857 423.54 319.686 423.53C261.499 408.644 196.441 345.484 164.206 294.663C164.143 294.508 164.133 294.336 164.179 294.175C164.224 294.014 164.322 293.873 164.457 293.774C164.592 293.675 164.756 293.624 164.923 293.629C165.09 293.633 165.251 293.694 165.38 293.8Z" fill="white"/>
<path d="M157.385 278.473C157.428 278.723 157.395 278.98 157.29 279.21C157.184 279.441 157.011 279.633 156.794 279.763C156.576 279.893 156.324 279.955 156.072 279.938C155.819 279.922 155.577 279.83 155.377 279.673C154.903 279.123 154.421 278.563 154.004 277.964C152.549 276.042 151.201 274.042 149.967 271.971C148.73 269.9 147.615 267.76 146.627 265.56C146.322 264.88 146.035 264.202 145.758 263.515C145.71 263.263 145.741 263.003 145.845 262.769C145.95 262.535 146.125 262.339 146.345 262.207C146.564 262.075 146.82 262.014 147.075 262.032C147.331 262.05 147.575 262.146 147.775 262.307C148.265 262.876 148.747 263.436 149.163 264.053C152.08 267.897 154.555 272.058 156.541 276.457C156.879 277.157 157.148 277.834 157.385 278.473Z" fill="white"/>
</g>
</g>
<defs>
<clipPath id="clip0_119_22454">
<rect width="583" height="563" fill="white"/>
</clipPath>
</defs>
</svg>
