<svg width="64" height="64" viewBox="0 0 64 64" fill="none" xmlns="http://www.w3.org/2000/svg">
<path d="M27.584 52.032C27.6931 52.4381 27.8812 52.8186 28.1374 53.1519C28.3937 53.4852 28.7131 53.7648 29.0775 53.9746C29.4418 54.1844 29.8439 54.3204 30.2608 54.3747C30.6777 54.429 31.1013 54.4007 31.5072 54.2912L48.8416 49.648C49.2475 49.5393 49.628 49.3516 49.9613 49.0956C50.2946 48.8397 50.5741 48.5205 50.7839 48.1564C50.9938 47.7924 51.1298 47.3905 51.1841 46.9738C51.2385 46.5571 51.2102 46.1338 51.1008 45.728L42.0256 11.9712C41.9168 11.5653 41.7291 11.1847 41.4732 10.8513C41.2173 10.5179 40.8983 10.2381 40.5342 10.028C40.1702 9.81795 39.7684 9.68162 39.3517 9.62686C38.935 9.57209 38.5115 9.59994 38.1056 9.70883L20.768 14.3552C20.3624 14.464 19.9823 14.6516 19.6493 14.9074C19.3162 15.1631 19.0368 15.4819 18.827 15.8456C18.6172 16.2094 18.4811 16.6109 18.4265 17.0272C18.3719 17.4435 18.3999 17.8665 18.5088 18.272L27.584 52.032ZM32.3392 57.3824C30.6991 57.8215 28.9519 57.5915 27.4812 56.7431C26.0106 55.8947 24.9369 54.4972 24.496 52.8576L15.4208 19.104C15.2021 18.2923 15.1456 17.4455 15.2545 16.612C15.3635 15.7784 15.6357 14.9745 16.0557 14.2463C16.4757 13.5181 17.0352 12.8799 17.7021 12.3682C18.369 11.8564 19.1303 11.4812 19.9424 11.264L37.2736 6.62083C38.9132 6.18169 40.6601 6.41121 42.1307 7.25898C43.6012 8.10675 44.6752 9.50347 45.1168 11.1424L54.192 44.9024C54.4102 45.7139 54.4664 46.5604 54.3572 47.3936C54.248 48.2268 53.9757 49.0303 53.5557 49.7581C53.1358 50.486 52.5765 51.1239 51.9098 51.6354C51.2431 52.1469 50.4821 52.522 49.6704 52.7392L32.3392 57.3824ZM22.4064 57.6H22.8928C22.4077 56.875 22.0456 56.0749 21.8208 55.232L21.568 54.288C20.8896 54.1037 20.2904 53.7017 19.8626 53.1438C19.4348 52.586 19.202 51.9031 19.2 51.2V45.472L15.9872 33.5296L16.0032 51.2032C16.0032 52.044 16.1688 52.8765 16.4907 53.6531C16.8125 54.4298 17.2842 55.1355 17.8788 55.7299C18.4735 56.3242 19.1794 56.7955 19.9562 57.117C20.7331 57.4384 21.5657 57.6005 22.4064 57.6ZM12.7936 52.8032C12.7936 53.2896 12.8384 53.7632 12.9216 54.2272L12.7488 54.1792C11.1088 53.7397 9.71032 52.667 8.86069 51.197C8.01106 49.7269 7.77976 47.9797 8.2176 46.3392L12.7744 29.2832L12.784 41.648L11.312 47.168C10.928 48.5952 11.5744 50.0544 12.7904 50.7648L12.7936 52.8032ZM26.4 17.6C26.7152 17.6 27.0273 17.6621 27.3184 17.7827C27.6096 17.9033 27.8742 18.0801 28.0971 18.303C28.3199 18.5258 28.4967 18.7904 28.6173 19.0816C28.7379 19.3728 28.8 19.6849 28.8 20C28.8 20.3152 28.7379 20.6273 28.6173 20.9185C28.4967 21.2097 28.3199 21.4742 28.0971 21.6971C27.8742 21.9199 27.6096 22.0967 27.3184 22.2173C27.0273 22.338 26.7152 22.4 26.4 22.4C25.7635 22.4 25.153 22.1472 24.7029 21.6971C24.2529 21.247 24 20.6366 24 20C24 19.3635 24.2529 18.7531 24.7029 18.303C25.153 17.8529 25.7635 17.6 26.4 17.6Z" fill="#5AC777"/>
</svg>
