<svg width="16" height="17" viewBox="0 0 16 17" fill="none" xmlns="http://www.w3.org/2000/svg">
<g clip-path="url(#clip0_119_16150)">
<path d="M8 16.5C12.4183 16.5 16 12.9183 16 8.5C16 4.08172 12.4183 0.5 8 0.5C3.58172 0.5 0 4.08172 0 8.5C0 12.9183 3.58172 16.5 8 16.5Z" fill="#F0F0F0"/>
<path d="M15.9999 8.49996C15.9999 5.06025 13.8289 2.1279 10.7825 0.997559V16.0024C13.8289 14.872 15.9999 11.9397 15.9999 8.49996Z" fill="#D80027"/>
<path d="M0.000244141 8.50045C0.000244141 11.9402 2.17128 14.8725 5.21765 16.0029V0.998047C2.17128 2.12839 0.000244141 5.06073 0.000244141 8.50045Z" fill="#0052B4"/>
</g>
<defs>
<clipPath id="clip0_119_16150">
<rect width="16" height="16" fill="white" transform="translate(0 0.5)"/>
</clipPath>
</defs>
</svg>
