<svg width="133" height="38" viewBox="0 0 133 38" fill="none" xmlns="http://www.w3.org/2000/svg">
<g clip-path="url(#clip0_119_10506)">
<path fill-rule="evenodd" clip-rule="evenodd" d="M42.7896 16.0321C42.7896 16.0321 43.0636 14.7631 42.8111 13.5202C42.7872 13.3524 42.7755 13.2869 42.754 13.1616C42.7204 12.9657 42.697 12.8773 42.697 12.8773C42.6446 12.6454 42.5871 12.4092 42.5146 12.1717C42.264 11.3361 41.8881 10.5169 41.4817 9.87629C39.7058 10.1166 37.8616 10.3434 36.0221 10.5819C31.9901 11.129 28.3462 11.2066 27.1108 9.95718C25.946 8.77792 26.7638 4.86232 27.5873 1.99178C27.0388 1.56534 26.3467 1.13328 25.5401 0.883122C25.5401 0.883122 25.4625 0.857872 25.2937 0.810178C25.1249 0.762017 24.9192 0.708244 24.9201 0.707308C24.8481 0.688137 24.7747 0.671304 24.699 0.654471C23.6459 0.427222 22.6425 0.424884 21.7924 0.59836C21.7405 0.608647 21.6872 0.617531 21.6367 0.629221C21.6362 0.629221 21.6353 0.629688 21.6348 0.630156C21.3533 1.31845 20.7497 2.91106 19.9005 4.3793C19.0505 5.8466 17.9549 7.18952 16.6896 7.37842C14.5144 7.7034 11.6434 4.33768 8.7775 0.936895C8.77562 0.935026 8.77374 0.932688 8.77189 0.931284C8.06536 1.07764 7.11428 1.52746 6.51156 1.94502C6.46807 1.97214 6.42552 1.99879 6.38531 2.02545C6.38531 2.02545 6.231 2.1213 6.01544 2.28543C5.96073 2.32704 5.88826 2.38643 5.88826 2.38643C5.5067 2.66511 5.17845 3.05555 4.71694 3.63349C4.30312 4.15064 4.01135 4.70147 3.97768 4.85764H3.97628C6.09306 7.29706 6.96932 8.09197 8.52874 11.2286C9.73933 13.6642 8.41231 14.3698 6.76031 15.0352C5.36362 15.6033 0.301484 16.4169 0.301484 16.4169L0.298678 16.4174C0.0368276 17.1931 -0.030973 18.0025 0.0845219 18.9999C0.0845219 18.9999 0.109772 19.2346 0.131749 19.3581C0.170559 19.5849 0.182716 19.6204 0.182716 19.6204C0.435682 21.1873 1.07815 22.2095 1.35076 22.5751C3.37916 22.3418 4.92081 22.2506 6.06687 22.2506C10.4042 22.2319 10.5188 23.485 10.2911 26.8961C10.1017 29.7264 8.19067 34.6773 7.69035 35.7224C7.69035 35.7224 8.056 36.074 8.51845 36.3616C9.11977 36.7356 9.76411 36.9923 9.83191 37.0166C9.83473 37.0176 9.83706 37.0185 9.83706 37.0185C10.0021 37.077 10.0021 37.0765 10.0975 37.1078C10.1934 37.1396 10.3823 37.1962 10.3823 37.1962C10.9971 37.4099 12.1881 37.6502 13.5422 37.5885C13.6437 37.3313 17.9413 26.2705 20.8282 25.8146C23.054 25.463 26.5226 30.0968 27.173 31.0072C27.9057 30.9707 28.9489 30.7659 29.7648 30.4213C29.7648 30.4213 29.8929 30.3638 30.0711 30.2777C30.2493 30.1912 30.3877 30.1164 30.3877 30.1164C30.3877 30.1164 31.7614 29.2776 32.5802 27.9337L32.6288 27.8556C32.7308 27.9814 28.9718 22.9983 29.3431 20.8095C29.7527 18.3991 39.5814 16.5563 42.7896 16.0321Z" fill="#E1CFB4"/>
<path fill-rule="evenodd" clip-rule="evenodd" d="M25.3311 1.43746C23.9957 5.12628 23.3013 7.3969 22.9244 9.11015C22.6869 10.2235 22.5901 11.0422 22.6214 11.745C22.679 13.7613 23.89 14.3406 24.9285 14.5627C25.9666 14.7848 27.1444 14.7792 28.5514 14.717C29.9481 14.6497 31.523 14.4912 33.1212 14.2976C35.3909 14.0194 39.8629 13.3058 42.0377 12.9678C38.7954 13.4022 35.0781 13.8501 31.9513 13.8936C30.5981 13.9118 29.3552 13.8548 28.2526 13.6673C27.1538 13.47 26.1709 13.1955 25.3288 12.4436C24.749 11.911 24.3847 11.2396 24.1706 10.5676C23.9555 9.88869 23.8737 9.19291 23.8638 8.48498C23.8447 6.69318 24.2786 4.80458 24.7597 3.16146C24.9243 2.61298 25.1212 2.02756 25.3353 1.43652C25.34 1.4239 25.4111 1.22891 25.4162 1.21582L25.3311 1.43746Z" fill="#BAAF9F"/>
<path fill-rule="evenodd" clip-rule="evenodd" d="M23.8639 8.48492C23.8737 9.19285 23.9555 9.88863 24.1706 10.568C24.3848 11.2395 24.749 11.911 25.3289 12.4435C26.1715 13.1954 27.1539 13.4704 28.2527 13.6672C29.3553 13.8547 30.5981 13.9118 31.9513 13.8935C35.0781 13.8505 38.7959 13.4021 42.0377 12.9677C42.2598 12.9397 42.481 12.9079 42.697 12.8775C42.6451 12.6455 42.5872 12.4094 42.5147 12.1714C42.2645 11.3358 41.8881 10.5166 41.4818 9.87647C39.7059 10.1168 37.8622 10.3436 36.0222 10.5816C31.9901 11.1287 28.3462 11.2063 27.1108 9.95736C25.9461 8.77763 26.7639 4.86203 27.5873 1.99149C27.0388 1.56552 26.3473 1.13299 25.5402 0.883301C25.5187 0.945023 25.492 1.00955 25.4682 1.07642C25.2423 1.68101 24.9913 2.39128 24.7603 3.1614C24.2786 4.80451 23.8447 6.69311 23.8639 8.48492Z" fill="#A6A097"/>
<path fill-rule="evenodd" clip-rule="evenodd" d="M10.3823 37.1963C11.5335 34.3113 13.4694 29.7359 15.5356 26.7204C16.2772 25.6459 17.0146 24.7262 17.8338 24.0374C18.2893 23.6624 18.7779 23.3342 19.4129 23.1569C19.78 23.0503 20.1503 23.0017 20.5061 23.0017C21.5432 23.0068 22.3026 23.3197 23.1518 23.7821C23.9995 24.2492 24.7888 24.851 25.5215 25.494C26.9855 26.7826 29.7644 30.4214 29.7644 30.4214H29.7672C29.7672 30.4214 26.9991 26.619 25.3307 24.8178C24.49 23.9168 23.6161 22.9587 22.7277 22.2793C22.2788 21.9421 21.8308 21.6433 21.3501 21.4077C20.8685 21.1851 20.3434 21.0023 19.7192 20.9985C19.5148 20.9985 19.2927 21.0172 19.0594 21.0799C18.2435 21.316 17.86 21.7546 17.4439 22.2016C16.7528 23.0068 16.1164 24.1819 15.4351 25.4729C13.5517 29.0663 11.5055 34.2767 10.3828 37.1954L10.3823 37.1963Z" fill="#BAAF9F"/>
<path fill-rule="evenodd" clip-rule="evenodd" d="M27.173 31.0071C27.9057 30.9706 28.9489 30.7658 29.7644 30.4212C29.7644 30.4212 26.986 26.7824 25.5215 25.4937C24.7888 24.8508 23.9995 24.249 23.1518 23.7819C22.3026 23.3194 21.5432 23.0066 20.5066 23.0015C20.1503 23.0015 19.78 23.0501 19.4134 23.1567C18.7779 23.3344 18.2893 23.6622 17.8338 24.0372C17.0146 24.7259 16.2777 25.6457 15.5361 26.7202C13.4694 29.7357 11.534 34.3111 10.3823 37.1961C10.9972 37.4098 12.1882 37.6501 13.5423 37.5884C13.6438 37.3312 17.9414 26.2709 20.8283 25.815C23.054 25.4633 26.5226 30.0967 27.173 31.0071Z" fill="#A6A097"/>
<path fill-rule="evenodd" clip-rule="evenodd" d="M33.2889 15.3725C38.0354 14.1727 41.6522 13.7144 42.7941 13.5227C41.2856 13.7046 35.6259 14.5626 30.5208 15.575C25.4156 16.591 22.8986 17.6356 24.0666 20.9069C25.1603 23.9551 29.7118 29.3263 30.3192 30.0319C29.8989 29.4806 27.6498 26.4605 26.8778 24.627C24.1751 18.9028 28.4737 16.5859 33.2889 15.3725Z" fill="#BAAF9F"/>
<path fill-rule="evenodd" clip-rule="evenodd" d="M42.7897 16.0322C42.7897 16.0322 43.0637 14.7631 42.8112 13.5203C42.8042 13.5217 42.7995 13.5221 42.7939 13.5226C41.652 13.7143 38.0357 14.1726 33.2892 15.3724C28.4739 16.5863 24.1754 18.9027 26.8776 24.6274C27.65 26.4604 29.8991 29.4805 30.3195 30.0318C30.3597 30.08 30.3878 30.1165 30.3878 30.1165C30.3878 30.1165 31.7615 29.2776 32.5803 27.9338L32.6289 27.8557C32.7309 27.9814 28.9719 22.9983 29.3432 20.8095C29.7528 18.3991 39.5815 16.5563 42.7897 16.0322Z" fill="#A6A097"/>
<path fill-rule="evenodd" clip-rule="evenodd" d="M7.04224 2.66605C7.05439 2.68101 7.0918 2.72824 7.1063 2.74648C7.94001 3.79668 9.34652 5.5076 11.1524 7.52291C12.2503 8.74099 13.3248 9.85432 14.3652 10.7067C14.8903 11.1308 15.4023 11.4965 15.947 11.7761C17.3213 12.4817 18.5454 12.484 19.8266 11.4441C20.6314 10.7741 21.1953 9.90996 21.7241 8.9341C22.5045 7.47008 23.1596 5.72129 23.767 4.01084C24.1186 3.00459 24.4553 2.01283 24.7737 1.11646C24.3501 2.15217 23.9068 3.25475 23.3957 4.32927C22.6308 5.9331 21.7344 7.48971 20.3929 8.65495C19.5017 9.43068 18.3673 10.0086 17.0421 10.1433C16.928 10.1526 16.8121 10.1573 16.6961 10.1573C15.4827 10.1433 14.4395 9.64203 13.4305 8.99161C12.4233 8.32717 11.4367 7.45605 10.4533 6.47317C9.35681 5.3734 8.18316 4.02861 7.1091 2.7446C7.09975 2.73432 7.08993 2.7231 7.08058 2.71234L7.04224 2.66605Z" fill="#BAAF9F"/>
<path fill-rule="evenodd" clip-rule="evenodd" d="M13.4303 8.99179C14.4398 9.64221 15.4826 10.143 16.696 10.1575C16.8119 10.1575 16.9279 10.1528 17.0425 10.143C18.3671 10.0083 19.5015 9.43086 20.3927 8.65466C21.7343 7.48989 22.6306 5.93281 23.3956 4.32898C23.9072 3.25445 24.3752 2.16216 24.7736 1.11616C24.8419 0.937544 24.8606 0.88003 24.92 0.707489C24.8479 0.688319 24.775 0.671486 24.6988 0.654185C23.5812 0.413376 22.517 0.422728 21.6347 0.62987C21.0712 2.00739 19.22 7.0036 16.689 7.38141C14.5142 7.70639 11.638 4.33178 8.77218 0.930999C8.04976 1.08063 7.07062 1.54775 6.4707 1.97326C6.51279 2.02002 6.48941 1.99804 6.53289 2.04807C7.77762 3.56821 9.11306 5.12903 10.4532 6.47335C11.4365 7.45576 12.4231 8.32735 13.4303 8.99179Z" fill="#A6A097"/>
<path fill-rule="evenodd" clip-rule="evenodd" d="M13.855 12.9205C13.4608 12.0106 12.9212 11.1628 12.3671 10.3389C11.8467 9.56272 11.2931 8.8071 10.724 8.0655C9.50594 6.47569 8.21539 4.93872 6.87574 3.45038C6.56339 3.10857 6.24543 2.76255 5.927 2.42542C5.91811 2.41607 5.91344 2.41093 5.90783 2.40625C7.28301 3.91657 9.56579 6.55471 11.2122 10.0808C11.6756 11.074 12.8838 13.9576 10.7591 15.8373C8.56608 17.7783 4.19878 18.3997 0.0895996 18.9992C2.02075 18.7869 3.95236 18.5554 5.87416 18.2721C7.25636 18.0696 8.63902 17.8475 9.99737 17.5356C11.1294 17.2705 12.3863 16.9614 13.3018 16.2156C13.7835 15.8252 14.1398 15.2757 14.2048 14.6501C14.2646 14.0422 14.0771 13.4704 13.855 12.9205Z" fill="#BAAF9F"/>
<path fill-rule="evenodd" clip-rule="evenodd" d="M3.97628 4.85769C6.09306 7.29711 6.96932 8.09201 8.52874 11.2286C9.73933 13.6643 8.41231 14.3699 6.76031 15.0353C5.36362 15.6029 0.301484 16.417 0.301484 16.417L0.298678 16.4175C0.0368277 17.1932 -0.030973 18.0026 0.0845219 19L0.0891977 18.9995C4.19838 18.3996 8.56568 17.7782 10.7591 15.8372C12.8834 13.9575 11.6756 11.0738 11.2118 10.0807C9.56539 6.55458 7.28308 3.91643 5.90743 2.40611C5.89854 2.39583 5.88779 2.38647 5.88779 2.38647C5.50623 2.66516 5.17845 3.0556 4.71694 3.63354C4.30312 4.15069 4.01135 4.70152 3.97768 4.85769" fill="#A6A097"/>
<path fill-rule="evenodd" clip-rule="evenodd" d="M13.7633 19.963C13.1471 19.3411 12.2843 19.062 11.4422 18.9217C10.623 18.7917 9.78554 18.7772 8.95744 18.787C6.02612 18.8356 3.10601 19.2228 0.201342 19.6175L0.183105 19.6203C2.68471 19.3093 4.59295 19.177 6.0668 19.177C7.63977 19.1798 8.7503 19.3215 9.64573 19.6245C9.70979 19.6451 9.77198 19.6666 9.83324 19.6885C9.86737 19.7002 9.9001 19.7129 9.9333 19.725C9.95014 19.7316 9.9665 19.7376 9.9824 19.7442C12.1314 20.5718 12.7145 22.3169 12.7477 24.4374C12.7384 26.4897 12.1936 29.0614 11.4955 31.6575C10.9844 33.5451 10.3859 35.4276 9.83745 37.0189C10.5748 35.0863 11.3454 33.1645 12.044 31.2193C12.7842 29.1479 13.5034 27.0727 14.0191 24.9288C14.2431 23.9988 14.4357 23.0501 14.4498 22.0915C14.4624 21.3335 14.3085 20.5265 13.7633 19.963Z" fill="#BAAF9F"/>
<path fill-rule="evenodd" clip-rule="evenodd" d="M12.7475 24.4374C12.7143 22.3169 12.1312 20.5718 9.98215 19.7442C9.96626 19.7381 9.94989 19.7316 9.93306 19.725C9.90033 19.7129 9.86713 19.7007 9.83346 19.6885C9.77174 19.6666 9.70955 19.6451 9.64549 19.625C8.75005 19.322 7.63999 19.1798 6.06655 19.177C4.59271 19.177 2.68447 19.3093 0.182861 19.6203C0.43536 21.1876 1.07783 22.2093 1.35043 22.5754C3.37931 22.3421 4.92049 22.2505 6.06655 22.2505C10.4039 22.2318 10.5189 23.4849 10.2912 26.8965C10.1019 29.7263 8.19082 34.6772 7.69003 35.7222C7.69003 35.7222 8.05568 36.0739 8.5186 36.3614C9.11992 36.7355 9.76426 36.9922 9.83206 37.017C9.83488 37.0179 9.8372 37.0189 9.8372 37.0189C10.3862 35.4277 10.9842 33.5451 11.4953 31.6575C12.1934 29.0614 12.7381 26.4896 12.7475 24.4374Z" fill="#A6A097"/>
<path fill-rule="evenodd" clip-rule="evenodd" d="M72.8701 25.0821L72.8673 27.9816H71.1802L71.1854 24.7599C71.1914 24.4452 71.1746 24.1642 71.1264 23.9299C71.0343 23.4726 70.7692 23.1912 70.1515 23.1912C69.8976 23.1912 69.6264 23.2379 69.3444 23.3455L69.3393 27.9816H67.6438V22.4224C68.4513 22.1498 69.3168 21.9109 70.3189 21.9109C71.7282 21.9109 72.5563 22.7418 72.7892 23.8865C72.842 24.1577 72.8673 24.5645 72.8701 25.0821Z" fill="#A6A097"/>
<path fill-rule="evenodd" clip-rule="evenodd" d="M114.513 25.0821L114.511 27.9816H112.821L112.826 24.7599C112.83 24.4452 112.821 24.1642 112.771 23.9299C112.679 23.4726 112.409 23.1912 111.797 23.1912C111.537 23.1912 111.268 23.2379 110.987 23.3455L110.978 27.9816H109.283L109.286 22.4224C110.091 22.1498 110.96 21.9109 111.962 21.9109C113.368 21.9109 114.201 22.7418 114.428 23.8865C114.483 24.1577 114.511 24.5645 114.513 25.0821Z" fill="#A6A097"/>
<path fill-rule="evenodd" clip-rule="evenodd" d="M64.5329 23.1734C63.8072 23.1734 63.0353 24.0936 63.2845 25.5721C63.436 26.4708 63.9461 26.7631 64.2762 26.7631C64.5474 26.7631 64.7737 26.6714 64.9687 26.4975L64.9636 23.1996C64.85 23.1883 64.677 23.1734 64.5329 23.1734ZM66.675 27.9816H65.3914C65.3914 27.9816 65.283 27.8016 65.224 27.5753C65.0992 27.6735 64.7092 28.0545 63.9344 28.0545C62.8679 28.0545 61.8691 27.0661 61.5955 25.7241C61.0854 23.1972 62.9174 21.9216 64.677 21.9216C65.3807 21.9216 66.22 22.1003 66.6694 22.2312L66.675 27.9816Z" fill="#A6A097"/>
<path fill-rule="evenodd" clip-rule="evenodd" d="M88.1362 23.1734C87.411 23.1734 86.6371 24.0936 86.891 25.5721C87.0369 26.4708 87.5513 26.7631 87.8809 26.7631C88.1465 26.7631 88.3799 26.6714 88.5753 26.4975L88.5669 23.1996C88.4509 23.1883 88.2826 23.1734 88.1362 23.1734ZM90.2755 27.9816H88.9924C88.9924 27.9816 88.8839 27.8016 88.8306 27.5753C88.7002 27.6735 88.3097 28.0545 87.541 28.0545C86.4707 28.0545 85.471 27.0661 85.1988 25.7241C84.6873 23.1972 86.517 21.9216 88.2826 21.9216C88.9859 21.9216 89.827 22.1157 90.2755 22.2466V27.9816Z" fill="#A6A097"/>
<path fill-rule="evenodd" clip-rule="evenodd" d="M118.23 23.1734C117.504 23.1734 116.735 24.0936 116.985 25.5721C117.137 26.4708 117.646 26.7631 117.981 26.7631C118.247 26.7631 118.474 26.6714 118.669 26.4975L118.665 23.1996C118.55 23.1883 118.377 23.1734 118.23 23.1734ZM120.372 27.9816H119.086C119.086 27.9816 118.983 27.8016 118.923 27.5753C118.793 27.6735 118.406 28.0545 117.635 28.0545C116.565 28.0545 115.566 27.0661 115.296 25.7241C114.781 23.1972 116.613 21.9216 118.377 21.9216C119.075 21.9216 119.919 22.1003 120.37 22.2312L120.372 27.9816Z" fill="#A6A097"/>
<path fill-rule="evenodd" clip-rule="evenodd" d="M100.007 25.0895L100.012 27.9815H98.3179V24.7701C98.3221 24.4507 98.3178 24.1641 98.2748 23.9266C98.1822 23.4922 97.9223 23.1887 97.2863 23.1887C97.0287 23.1887 96.5761 23.2705 96.2974 23.4347C96.3147 23.4711 96.4905 24.0252 96.4905 24.7103L96.4952 27.9815H94.7866L94.789 24.7598C94.7927 24.4288 94.7759 24.1403 94.7268 23.9041C94.6398 23.4599 94.3691 23.1887 93.7682 23.1887C93.5031 23.1887 93.2427 23.2383 92.9616 23.344L92.9565 27.9815H91.261V22.4153C91.946 22.1656 92.9565 21.9113 93.9365 21.9113C94.5697 21.9113 95.0849 22.0735 95.4796 22.3653C95.979 22.1198 96.6607 21.9113 97.4561 21.9113C98.8589 21.9113 99.687 22.7417 99.9203 23.8868C99.9745 24.1702 100.012 24.5807 100.007 25.0895Z" fill="#A6A097"/>
<path fill-rule="evenodd" clip-rule="evenodd" d="M104.209 25.5723C103.966 27.2019 102.661 26.8493 102.507 26.731V23.1993C102.623 23.1834 102.815 23.1699 102.959 23.1699C103.685 23.1699 104.437 24.0826 104.209 25.5723ZM102.818 21.9214C102.113 21.9214 101.275 22.0514 100.826 22.1762V30.7486H102.521L102.507 27.8673C102.683 27.9327 103.159 28.0548 103.457 28.0548C104.765 28.0548 105.607 27.113 105.853 25.8912C106.414 23.0946 104.523 21.9214 102.818 21.9214Z" fill="#A6A097"/>
<path fill-rule="evenodd" clip-rule="evenodd" d="M58.2433 26.0748C58.0857 25.3164 57.5227 24.8352 56.906 24.4967C56.256 24.1366 55.8399 23.9416 55.7847 23.6863C55.7417 23.4595 55.8544 23.0588 56.3481 23.0476C56.8054 23.0368 57.122 23.1612 57.7177 23.4923V22.2415C57.0565 21.9908 56.6647 21.9109 56.1531 21.9109C55.0211 21.9109 54.0794 22.5389 54.3277 23.7742C54.4684 24.4728 54.8691 24.8572 55.384 25.1981C55.9525 25.5595 56.5889 25.8803 56.6736 26.303C56.7381 26.6275 56.545 27.0661 55.8006 27.0661C55.3465 27.0661 54.8532 26.7958 54.4408 26.5784V27.8787C54.8691 28.0405 55.362 28.1565 55.9633 28.1565C57.4577 28.1565 58.536 27.5267 58.2433 26.0748Z" fill="#A6A097"/>
<path fill-rule="evenodd" clip-rule="evenodd" d="M45.9284 21.9951C44.5308 21.9951 43.7293 22.2747 43.0471 22.5067L43.0635 27.9817H44.758L44.7482 23.3951C45.0292 23.2866 45.5024 23.2422 45.7601 23.2422C45.8522 23.2422 45.9331 23.2534 46.0149 23.2646V21.997C45.9822 21.997 45.9551 21.9951 45.9284 21.9951Z" fill="#A6A097"/>
<path fill-rule="evenodd" clip-rule="evenodd" d="M48.3488 27.9815H46.6917L46.7029 22.0136C46.7029 22.0136 46.918 21.9482 47.5254 21.9435C48.2137 21.936 48.3591 22.0136 48.3591 22.0136L48.3488 27.9815Z" fill="#A6A097"/>
<path fill-rule="evenodd" clip-rule="evenodd" d="M61.2423 26.6653C61.1894 26.676 61.124 26.676 61.0431 26.676C60.6985 26.676 60.5343 26.5147 60.5343 25.9503V20.1073C60.5343 20.1073 60.3814 20.026 59.6838 20.0311C59.061 20.0372 58.8445 20.1073 58.8445 20.1073H58.8389V26.0238C58.8389 27.8628 59.8956 28.1658 60.6092 28.1658C61.0375 28.1658 61.3349 28.1059 61.6005 28.0246L61.2423 26.6653Z" fill="#A6A097"/>
<path fill-rule="evenodd" clip-rule="evenodd" d="M108.292 27.9815H106.635L106.646 22.116C106.646 22.116 106.869 21.9973 107.472 21.9949C108.158 21.9875 108.304 22.116 108.304 22.116L108.292 27.9815Z" fill="#A6A097"/>
<path fill-rule="evenodd" clip-rule="evenodd" d="M84.5942 26.5404C84.2646 26.6432 83.8157 26.7742 83.3977 26.7742C82.2235 26.7742 81.7835 25.6043 81.7835 24.1257C81.7835 22.7332 82.1253 21.4605 83.3327 21.4605C83.6904 21.4605 84.1561 21.5315 84.5404 21.9005L85.4013 20.7623C84.9487 20.3093 84.3291 20.0483 83.3327 20.0483C81.467 20.0483 79.9426 21.2641 79.9426 24.1257C79.9426 27.0491 81.3342 28.2087 83.3621 28.2087C83.9232 28.2087 84.8275 28.0245 85.261 27.8515L84.5942 26.5404Z" fill="#A6A097"/>
<path fill-rule="evenodd" clip-rule="evenodd" d="M76.3675 26.8274C76.022 26.8274 75.5343 26.5352 75.3786 25.6257C75.2205 24.6891 75.4431 23.7376 76.0327 23.3023C76.4007 23.0512 76.8183 23.1246 77.1325 23.2167L77.1376 26.5198C76.9211 26.7199 76.6397 26.8274 76.3675 26.8274ZM77.9671 20.031C77.3494 20.0375 77.1325 20.1072 77.1325 20.1072L77.1376 21.9654C77.0025 21.9537 76.8182 21.9112 76.677 21.9112C74.9446 21.9112 73.1462 23.0208 73.7092 25.7941C73.986 27.1524 74.9769 28.1357 76.1627 28.1357C76.5854 28.1357 77.0184 27.9328 77.3863 27.6513L77.5491 27.9814H78.8434V20.1072C78.8434 20.1072 78.6676 20.0259 77.9671 20.031Z" fill="#A6A097"/>
<path fill-rule="evenodd" clip-rule="evenodd" d="M51.6655 23.0691C51.6739 23.0668 51.6791 23.0691 51.6791 23.0691H51.6856C52.1237 23.035 52.487 23.5461 52.5132 24.2984L52.5053 24.6505H50.6564C50.6564 24.6505 50.5199 23.1346 51.6655 23.0691ZM52.2271 25.667C52.5572 25.667 53.0229 25.6582 53.3156 25.6376L53.6911 25.6203C53.6911 25.5988 53.8103 25.0896 53.8 24.5121C53.7697 22.4902 52.7952 21.9436 51.5883 21.9109H51.5818H51.571C50.0822 21.9324 48.9942 22.8288 48.9993 25.0087V25.0353C49.0582 27.2886 50.0607 28.1387 51.6585 28.1701C51.6739 28.1701 51.6739 28.1761 51.6739 28.1761C52.0541 28.1761 52.7952 28.1111 53.5298 27.7436V26.498C52.8434 26.8056 52.5301 26.9679 51.8259 26.9305C50.4942 26.8613 50.6242 25.667 50.6242 25.667L52.2271 25.667Z" fill="#A6A097"/>
<path fill-rule="evenodd" clip-rule="evenodd" d="M39.8628 21.4877C40.1121 21.282 40.6975 21.2006 41.2553 21.2006C42.5379 21.2006 43.0261 21.4779 43.0261 21.4779L43.3992 20.2047C43.3992 20.2047 42.4299 19.702 40.4698 19.8773C38.634 20.0419 38.0654 20.5278 38.0654 20.5278V28.0242H39.8582L39.8629 24.6786H41.3601H42.4514V23.2922H41.3601H39.8628V22.1849V21.4877Z" fill="#A6A097"/>
<path fill-rule="evenodd" clip-rule="evenodd" d="M128.423 20.8496C128.423 21.3359 128.027 21.7254 127.545 21.7254C127.057 21.7254 126.668 21.3359 126.668 20.8496C126.668 20.367 127.057 19.9719 127.545 19.9719C128.027 19.9719 128.423 20.367 128.423 20.8496Z" fill="#A6A097"/>
<path fill-rule="evenodd" clip-rule="evenodd" d="M132.576 23.3346C132.576 22.7777 132.36 22.398 132.043 22.1871C131.726 21.9814 131.336 21.936 130.973 21.936C130.83 21.936 130.692 21.9435 130.561 21.9538C129.846 22.0108 129.208 22.1764 128.915 22.2947V26.2926H130.214V23.2925C130.469 23.2425 130.675 23.2168 130.827 23.2168C131.005 23.2168 131.114 23.2509 131.158 23.2925C131.206 23.3299 131.233 23.3832 131.239 23.5244C131.239 23.647 131.206 23.8218 131.137 24.0449C131.044 24.353 130.925 24.6948 130.805 25.0137V26.2926H131.704C131.714 26.2589 132.37 24.5695 132.478 24.0767C132.543 23.8003 132.576 23.5548 132.576 23.3346Z" fill="#A6A097"/>
<path fill-rule="evenodd" clip-rule="evenodd" d="M123.624 27.976H131.461V27.8138V26.8389H123.624V27.976Z" fill="#A6A097"/>
<path fill-rule="evenodd" clip-rule="evenodd" d="M128.249 22.3199C128.249 22.3199 128.086 22.2745 127.545 22.2745C127.132 22.2745 126.835 22.3199 126.835 22.3199V26.2925H128.249V22.3199Z" fill="#A6A097"/>
<path fill-rule="evenodd" clip-rule="evenodd" d="M124.285 25.0138C124.165 24.6945 124.047 24.3527 123.949 24.0445C123.884 23.822 123.851 23.6471 123.851 23.5241C123.854 23.3834 123.884 23.3296 123.927 23.2922C123.976 23.251 124.084 23.2164 124.263 23.2164C124.415 23.2164 124.621 23.2421 124.869 23.2922V26.2922H126.175V22.2948C125.882 22.1765 125.244 22.011 124.529 21.9539C124.398 21.9436 124.257 21.9362 124.117 21.9362C123.754 21.9362 123.364 21.9815 123.044 22.1873C122.725 22.3981 122.514 22.7774 122.514 23.3347C122.514 23.555 122.546 23.8 122.611 24.0768C122.72 24.5696 123.375 26.259 123.386 26.2922H124.285V25.0138Z" fill="#A6A097"/>
</g>
<defs>
<clipPath id="clip0_119_10506">
<rect width="132.897" height="37.3333" fill="white" transform="translate(0 0.333374)"/>
</clipPath>
</defs>
</svg>
