<svg width="110" height="54" viewBox="0 0 110 54" fill="none" xmlns="http://www.w3.org/2000/svg">
<path d="M31.1222 8.45455V23H28.7784L21.9247 13.0923H21.804V23H19.169V8.45455H21.527L28.3736 18.3693H28.5014V8.45455H31.1222ZM35.8612 23H33.0487L38.1694 8.45455H41.4222L46.5501 23H43.7376L39.8526 11.4375H39.739L35.8612 23ZM35.9535 17.2969H43.6239V19.4134H35.9535V17.2969ZM48.4659 23V8.45455H51.1009V14.6122H57.8409V8.45455H60.483V23H57.8409V16.821H51.1009V23H48.4659ZM75.799 13.3622H73.1428C73.067 12.9266 72.9273 12.5407 72.7237 12.2045C72.5201 11.8636 72.2668 11.5748 71.9638 11.3381C71.6607 11.1013 71.3151 10.9238 70.9268 10.8054C70.5433 10.6823 70.129 10.6207 69.6839 10.6207C68.8932 10.6207 68.1925 10.8196 67.5817 11.2173C66.9709 11.6103 66.4927 12.188 66.147 12.9503C65.8014 13.7079 65.6286 14.6335 65.6286 15.7273C65.6286 16.84 65.8014 17.7775 66.147 18.5398C66.4974 19.2973 66.9756 19.8703 67.5817 20.2585C68.1925 20.642 68.8909 20.8338 69.6768 20.8338C70.1125 20.8338 70.5196 20.777 70.8984 20.6634C71.282 20.545 71.6252 20.3722 71.9283 20.1449C72.236 19.9176 72.4941 19.6383 72.7024 19.3068C72.9155 18.9754 73.0623 18.5966 73.1428 18.1705L75.799 18.1847C75.6996 18.8759 75.4841 19.5246 75.1527 20.1307C74.826 20.7367 74.3975 21.2718 73.8672 21.7358C73.3369 22.1951 72.7166 22.5549 72.0064 22.8153C71.2962 23.071 70.5078 23.1989 69.6413 23.1989C68.3629 23.1989 67.2218 22.9029 66.218 22.3111C65.2143 21.7192 64.4235 20.8646 63.8459 19.7472C63.2682 18.6297 62.9794 17.2898 62.9794 15.7273C62.9794 14.16 63.2706 12.8201 63.853 11.7074C64.4354 10.59 65.2285 9.73532 66.2322 9.14347C67.236 8.55161 68.3724 8.25568 69.6413 8.25568C70.451 8.25568 71.2038 8.36932 71.8999 8.59659C72.5959 8.82386 73.2161 9.15767 73.7607 9.59801C74.3052 10.0336 74.7526 10.5687 75.103 11.2031C75.4581 11.8329 75.6901 12.5526 75.799 13.3622ZM91.2092 15.7273C91.2092 17.2945 90.9156 18.6368 90.3285 19.7543C89.7461 20.867 88.9506 21.7192 87.9421 22.3111C86.9383 22.9029 85.7996 23.1989 84.5259 23.1989C83.2522 23.1989 82.1112 22.9029 81.1026 22.3111C80.0988 21.7145 79.3034 20.8598 78.7163 19.7472C78.1339 18.6297 77.8427 17.2898 77.8427 15.7273C77.8427 14.16 78.1339 12.8201 78.7163 11.7074C79.3034 10.59 80.0988 9.73532 81.1026 9.14347C82.1112 8.55161 83.2522 8.25568 84.5259 8.25568C85.7996 8.25568 86.9383 8.55161 87.9421 9.14347C88.9506 9.73532 89.7461 10.59 90.3285 11.7074C90.9156 12.8201 91.2092 14.16 91.2092 15.7273ZM88.56 15.7273C88.56 14.6241 88.3872 13.6937 88.0415 12.9361C87.7006 12.1738 87.2272 11.5985 86.6211 11.2102C86.015 10.8172 85.3166 10.6207 84.5259 10.6207C83.7352 10.6207 83.0368 10.8172 82.4308 11.2102C81.8247 11.5985 81.3488 12.1738 81.0032 12.9361C80.6623 13.6937 80.4918 14.6241 80.4918 15.7273C80.4918 16.8305 80.6623 17.7633 81.0032 18.5256C81.3488 19.2831 81.8247 19.8584 82.4308 20.2514C83.0368 20.6397 83.7352 20.8338 84.5259 20.8338C85.3166 20.8338 86.015 20.6397 86.6211 20.2514C87.2272 19.8584 87.7006 19.2831 88.0415 18.5256C88.3872 17.7633 88.56 16.8305 88.56 15.7273Z" fill="#E1CFB4"/>
<path d="M1.32173 48V37.8182H7.63565V39.1406H2.85795V42.2429H7.18324V43.5604H2.85795V48H1.32173ZM9.30984 48V40.3636H10.7466V41.5767H10.8262C10.9654 41.1657 11.2106 40.8426 11.562 40.6072C11.9166 40.3686 12.3176 40.2493 12.7651 40.2493C12.8579 40.2493 12.9673 40.2526 13.0932 40.2592C13.2225 40.2659 13.3236 40.2741 13.3965 40.2841V41.706C13.3368 41.6894 13.2308 41.6712 13.0783 41.6513C12.9258 41.6281 12.7734 41.6165 12.6209 41.6165C12.2696 41.6165 11.9564 41.6911 11.6813 41.8402C11.4095 41.986 11.1941 42.1899 11.035 42.4517C10.8759 42.7102 10.7963 43.0052 10.7963 43.3366V48H9.30984ZM17.7006 48.1541C16.9483 48.1541 16.3003 47.9934 15.7567 47.6719C15.2165 47.3471 14.7989 46.8913 14.5039 46.3047C14.2122 45.7147 14.0664 45.0237 14.0664 44.2315C14.0664 43.4493 14.2122 42.7599 14.5039 42.1634C14.7989 41.5668 15.2099 41.1011 15.7369 40.7663C16.2672 40.4316 16.887 40.2642 17.5962 40.2642C18.0271 40.2642 18.4447 40.3355 18.8491 40.478C19.2534 40.6205 19.6164 40.8442 19.9379 41.1491C20.2594 41.4541 20.5129 41.8501 20.6985 42.3374C20.8841 42.8213 20.9769 43.4096 20.9769 44.1023V44.6293H14.9066V43.5156H19.5202C19.5202 43.1245 19.4407 42.7782 19.2816 42.4766C19.1225 42.1716 18.8988 41.9313 18.6104 41.7557C18.3254 41.58 17.9906 41.4922 17.6062 41.4922C17.1886 41.4922 16.824 41.5949 16.5124 41.8004C16.2042 42.0026 15.9656 42.2678 15.7965 42.5959C15.6308 42.9207 15.5479 43.2737 15.5479 43.6548V44.5249C15.5479 45.0353 15.6374 45.4695 15.8164 45.8274C15.9987 46.1854 16.2522 46.4588 16.5771 46.6477C16.9019 46.8333 17.2814 46.9261 17.7156 46.9261C17.9973 46.9261 18.2541 46.8864 18.4862 46.8068C18.7182 46.724 18.9187 46.6013 19.0877 46.4389C19.2567 46.2765 19.386 46.076 19.4755 45.8374L20.8825 46.0909C20.7698 46.5052 20.5676 46.8681 20.2759 47.1797C19.9876 47.4879 19.6246 47.7282 19.1871 47.9006C18.753 48.0696 18.2575 48.1541 17.7006 48.1541ZM25.9174 48.1541C25.1651 48.1541 24.5171 47.9934 23.9735 47.6719C23.4333 47.3471 23.0157 46.8913 22.7207 46.3047C22.429 45.7147 22.2832 45.0237 22.2832 44.2315C22.2832 43.4493 22.429 42.7599 22.7207 42.1634C23.0157 41.5668 23.4267 41.1011 23.9537 40.7663C24.484 40.4316 25.1038 40.2642 25.813 40.2642C26.2439 40.2642 26.6615 40.3355 27.0659 40.478C27.4702 40.6205 27.8332 40.8442 28.1547 41.1491C28.4761 41.4541 28.7297 41.8501 28.9153 42.3374C29.1009 42.8213 29.1937 43.4096 29.1937 44.1023V44.6293H23.1234V43.5156H27.737C27.737 43.1245 27.6575 42.7782 27.4984 42.4766C27.3393 42.1716 27.1156 41.9313 26.8272 41.7557C26.5422 41.58 26.2074 41.4922 25.823 41.4922C25.4054 41.4922 25.0408 41.5949 24.7292 41.8004C24.421 42.0026 24.1824 42.2678 24.0133 42.5959C23.8476 42.9207 23.7647 43.2737 23.7647 43.6548V44.5249C23.7647 45.0353 23.8542 45.4695 24.0332 45.8274C24.2155 46.1854 24.469 46.4588 24.7939 46.6477C25.1187 46.8333 25.4982 46.9261 25.9324 46.9261C26.2141 46.9261 26.4709 46.8864 26.7029 46.8068C26.935 46.724 27.1355 46.6013 27.3045 46.4389C27.4735 46.2765 27.6028 46.076 27.6923 45.8374L29.0993 46.0909C28.9866 46.5052 28.7844 46.8681 28.4927 47.1797C28.2044 47.4879 27.8414 47.7282 27.4039 47.9006C26.9698 48.0696 26.4743 48.1541 25.9174 48.1541ZM34.1653 39.1406V37.8182H42.0453V39.1406H38.8684V48H37.3372V39.1406H34.1653ZM42.8743 48V40.3636H44.3111V41.5767H44.3906C44.5298 41.1657 44.7751 40.8426 45.1264 40.6072C45.4811 40.3686 45.8821 40.2493 46.3295 40.2493C46.4223 40.2493 46.5317 40.2526 46.6577 40.2592C46.7869 40.2659 46.888 40.2741 46.9609 40.2841V41.706C46.9013 41.6894 46.7952 41.6712 46.6428 41.6513C46.4903 41.6281 46.3378 41.6165 46.1854 41.6165C45.834 41.6165 45.5208 41.6911 45.2457 41.8402C44.974 41.986 44.7585 42.1899 44.5994 42.4517C44.4403 42.7102 44.3608 43.0052 44.3608 43.3366V48H42.8743ZM50.4013 48.169C49.9174 48.169 49.4799 48.0795 49.0888 47.9006C48.6977 47.7183 48.3878 47.4548 48.1591 47.1101C47.9337 46.7654 47.821 46.3428 47.821 45.8423C47.821 45.4115 47.9039 45.0568 48.0696 44.7784C48.2353 44.5 48.459 44.2796 48.7408 44.1172C49.0225 43.9548 49.3374 43.8321 49.6854 43.7493C50.0334 43.6664 50.388 43.6035 50.7493 43.5604C51.2067 43.5073 51.5779 43.4643 51.8629 43.4311C52.148 43.3946 52.3551 43.3366 52.4844 43.2571C52.6136 43.1776 52.6783 43.0483 52.6783 42.8693V42.8345C52.6783 42.4003 52.5556 42.0639 52.3104 41.8253C52.0684 41.5866 51.7071 41.4673 51.2266 41.4673C50.7261 41.4673 50.3317 41.5784 50.0433 41.8004C49.7583 42.0192 49.5611 42.2628 49.4517 42.5312L48.0547 42.2131C48.2204 41.7491 48.4624 41.3745 48.7805 41.0895C49.102 40.8011 49.4716 40.5923 49.8892 40.4631C50.3068 40.3305 50.746 40.2642 51.2067 40.2642C51.5116 40.2642 51.8348 40.3007 52.1761 40.3736C52.5208 40.4432 52.8423 40.5724 53.1406 40.7614C53.4422 40.9503 53.6892 41.2204 53.8814 41.5717C54.0736 41.9197 54.1697 42.3722 54.1697 42.929V48H52.718V46.956H52.6584C52.5623 47.1482 52.4181 47.3371 52.2259 47.5227C52.0336 47.7083 51.7867 47.8625 51.4851 47.9851C51.1835 48.1077 50.8222 48.169 50.4013 48.169ZM50.7244 46.9759C51.1354 46.9759 51.4867 46.8946 51.7784 46.7322C52.0734 46.5698 52.2971 46.3577 52.4496 46.0959C52.6054 45.8307 52.6832 45.5473 52.6832 45.2457V44.2614C52.6302 44.3144 52.5275 44.3641 52.375 44.4105C52.2259 44.4536 52.0552 44.4917 51.8629 44.5249C51.6707 44.5547 51.4834 44.5829 51.3011 44.6094C51.1188 44.6326 50.9664 44.6525 50.8438 44.669C50.5554 44.7055 50.2919 44.7668 50.0533 44.853C49.8179 44.9392 49.629 45.0634 49.4865 45.2259C49.3473 45.3849 49.2777 45.5971 49.2777 45.8622C49.2777 46.2301 49.4136 46.5085 49.6854 46.6974C49.9571 46.883 50.3035 46.9759 50.7244 46.9759ZM59.0083 48.1491C58.3919 48.1491 57.8417 47.9917 57.3578 47.6768C56.8772 47.3587 56.4993 46.9062 56.2243 46.3196C55.9525 45.7296 55.8166 45.022 55.8166 44.1967C55.8166 43.3714 55.9541 42.6655 56.2292 42.0788C56.5076 41.4922 56.8888 41.0431 57.3727 40.7315C57.8566 40.42 58.4051 40.2642 59.0183 40.2642C59.4922 40.2642 59.8734 40.3438 60.1618 40.5028C60.4534 40.6586 60.6788 40.8409 60.8379 41.0497C61.0003 41.2585 61.1262 41.4425 61.2157 41.6016H61.3052V37.8182H62.7917V48H61.34V46.8118H61.2157C61.1262 46.9742 60.997 47.1598 60.8279 47.3686C60.6622 47.5774 60.4335 47.7597 60.1419 47.9155C59.8502 48.0713 59.4724 48.1491 59.0083 48.1491ZM59.3365 46.8814C59.764 46.8814 60.1253 46.7687 60.4203 46.5433C60.7186 46.3146 60.944 45.9981 61.0964 45.5938C61.2522 45.1894 61.3301 44.7187 61.3301 44.1818C61.3301 43.6515 61.2538 43.1875 61.1014 42.7898C60.9489 42.392 60.7252 42.0821 60.4302 41.8601C60.1352 41.638 59.7707 41.527 59.3365 41.527C58.889 41.527 58.5162 41.643 58.2179 41.875C57.9196 42.107 57.6942 42.4235 57.5417 42.8246C57.3926 43.2256 57.318 43.678 57.318 44.1818C57.318 44.6922 57.3942 45.1513 57.5467 45.5589C57.6992 45.9666 57.9245 46.2898 58.2228 46.5284C58.5244 46.7637 58.8957 46.8814 59.3365 46.8814ZM68.2045 48.1541C67.4522 48.1541 66.8042 47.9934 66.2607 47.6719C65.7204 47.3471 65.3028 46.8913 65.0078 46.3047C64.7161 45.7147 64.5703 45.0237 64.5703 44.2315C64.5703 43.4493 64.7161 42.7599 65.0078 42.1634C65.3028 41.5668 65.7138 41.1011 66.2408 40.7663C66.7711 40.4316 67.3909 40.2642 68.1001 40.2642C68.531 40.2642 68.9486 40.3355 69.353 40.478C69.7573 40.6205 70.1203 40.8442 70.4418 41.1491C70.7633 41.4541 71.0168 41.8501 71.2024 42.3374C71.388 42.8213 71.4808 43.4096 71.4808 44.1023V44.6293H65.4105V43.5156H70.0241C70.0241 43.1245 69.9446 42.7782 69.7855 42.4766C69.6264 42.1716 69.4027 41.9313 69.1143 41.7557C68.8293 41.58 68.4946 41.4922 68.1101 41.4922C67.6925 41.4922 67.3279 41.5949 67.0163 41.8004C66.7081 42.0026 66.4695 42.2678 66.3004 42.5959C66.1347 42.9207 66.0518 43.2737 66.0518 43.6548V44.5249C66.0518 45.0353 66.1413 45.4695 66.3203 45.8274C66.5026 46.1854 66.7562 46.4588 67.081 46.6477C67.4058 46.8333 67.7853 46.9261 68.2195 46.9261C68.5012 46.9261 68.758 46.8864 68.9901 46.8068C69.2221 46.724 69.4226 46.6013 69.5916 46.4389C69.7607 46.2765 69.8899 46.076 69.9794 45.8374L71.3864 46.0909C71.2737 46.5052 71.0715 46.8681 70.7798 47.1797C70.4915 47.4879 70.1286 47.7282 69.6911 47.9006C69.2569 48.0696 68.7614 48.1541 68.2045 48.1541ZM76.6911 48V46.9759L82.0455 39.1406H76.6463V37.8182H83.9247V38.8423L78.5703 46.6776H83.9695V48H76.6911ZM88.9933 48.1541C88.2773 48.1541 87.6526 47.9901 87.119 47.6619C86.5853 47.3338 86.171 46.8748 85.8761 46.2848C85.5811 45.6948 85.4336 45.0054 85.4336 44.2166C85.4336 43.4245 85.5811 42.7318 85.8761 42.1385C86.171 41.5452 86.5853 41.0845 87.119 40.7564C87.6526 40.4283 88.2773 40.2642 88.9933 40.2642C89.7092 40.2642 90.3339 40.4283 90.8675 40.7564C91.4012 41.0845 91.8155 41.5452 92.1104 42.1385C92.4054 42.7318 92.5529 43.4245 92.5529 44.2166C92.5529 45.0054 92.4054 45.6948 92.1104 46.2848C91.8155 46.8748 91.4012 47.3338 90.8675 47.6619C90.3339 47.9901 89.7092 48.1541 88.9933 48.1541ZM88.9982 46.9062C89.4622 46.9062 89.8467 46.7836 90.1516 46.5384C90.4566 46.2931 90.6819 45.9666 90.8278 45.5589C90.9769 45.1513 91.0515 44.7022 91.0515 44.2116C91.0515 43.7244 90.9769 43.277 90.8278 42.8693C90.6819 42.4583 90.4566 42.1286 90.1516 41.88C89.8467 41.6314 89.4622 41.5071 88.9982 41.5071C88.5309 41.5071 88.1431 41.6314 87.8349 41.88C87.5299 42.1286 87.3029 42.4583 87.1538 42.8693C87.0079 43.277 86.935 43.7244 86.935 44.2116C86.935 44.7022 87.0079 45.1513 87.1538 45.5589C87.3029 45.9666 87.5299 46.2931 87.8349 46.5384C88.1431 46.7836 88.5309 46.9062 88.9982 46.9062ZM95.6987 43.4659V48H94.2122V40.3636H95.639V41.6065H95.7335C95.9092 41.2022 96.1842 40.8774 96.5588 40.6321C96.9366 40.3868 97.4122 40.2642 97.9856 40.2642C98.506 40.2642 98.9617 40.3736 99.3528 40.5923C99.7439 40.8078 100.047 41.1293 100.263 41.5568C100.478 41.9844 100.586 42.513 100.586 43.1428V48H99.0993V43.3217C99.0993 42.7682 98.9551 42.3357 98.6667 42.0241C98.3784 41.7093 97.9823 41.5518 97.4785 41.5518C97.1338 41.5518 96.8272 41.6264 96.5588 41.7756C96.2936 41.9247 96.0832 42.1435 95.9274 42.4318C95.7749 42.7169 95.6987 43.0616 95.6987 43.4659ZM105.871 48.1541C105.118 48.1541 104.47 47.9934 103.927 47.6719C103.386 47.3471 102.969 46.8913 102.674 46.3047C102.382 45.7147 102.236 45.0237 102.236 44.2315C102.236 43.4493 102.382 42.7599 102.674 42.1634C102.969 41.5668 103.38 41.1011 103.907 40.7663C104.437 40.4316 105.057 40.2642 105.766 40.2642C106.197 40.2642 106.615 40.3355 107.019 40.478C107.423 40.6205 107.786 40.8442 108.108 41.1491C108.429 41.4541 108.683 41.8501 108.868 42.3374C109.054 42.8213 109.147 43.4096 109.147 44.1023V44.6293H103.077V43.5156H107.69C107.69 43.1245 107.611 42.7782 107.452 42.4766C107.292 42.1716 107.069 41.9313 106.78 41.7557C106.495 41.58 106.161 41.4922 105.776 41.4922C105.358 41.4922 104.994 41.5949 104.682 41.8004C104.374 42.0026 104.135 42.2678 103.966 42.5959C103.801 42.9207 103.718 43.2737 103.718 43.6548V44.5249C103.718 45.0353 103.807 45.4695 103.986 45.8274C104.169 46.1854 104.422 46.4588 104.747 46.6477C105.072 46.8333 105.451 46.9261 105.885 46.9261C106.167 46.9261 106.424 46.8864 106.656 46.8068C106.888 46.724 107.089 46.6013 107.258 46.4389C107.427 46.2765 107.556 46.076 107.645 45.8374L109.052 46.0909C108.94 46.5052 108.738 46.8681 108.446 47.1797C108.157 47.4879 107.795 47.7282 107.357 47.9006C106.923 48.0696 106.427 48.1541 105.871 48.1541Z" fill="#B19D7F"/>
</svg>
