<svg width="16" height="17" viewBox="0 0 16 17" fill="none" xmlns="http://www.w3.org/2000/svg">
<g clip-path="url(#clip0_119_16147)">
<path d="M0.497559 11.2833C1.6279 14.3296 4.56025 16.5007 7.99996 16.5007C11.4397 16.5007 14.372 14.3296 15.5024 11.2833L7.99996 10.5876L0.497559 11.2833Z" fill="#FFDA44"/>
<path d="M7.99996 0.500488C4.56025 0.500488 1.6279 2.67149 0.497559 5.7179L7.99996 6.41352L15.5024 5.71786C14.372 2.67149 11.4397 0.500488 7.99996 0.500488Z" fill="black"/>
<path d="M0.497594 5.71729C0.176031 6.58394 0 7.52132 0 8.49988C0 9.47844 0.176031 10.4158 0.497594 11.2825H15.5024C15.824 10.4158 16 9.47844 16 8.49988C16 7.52132 15.824 6.58394 15.5024 5.71729H0.497594Z" fill="#D80027"/>
</g>
<defs>
<clipPath id="clip0_119_16147">
<rect width="16" height="16" fill="white" transform="translate(0 0.5)"/>
</clipPath>
</defs>
</svg>
