<svg width="16" height="17" viewBox="0 0 16 17" fill="none" xmlns="http://www.w3.org/2000/svg">
<g clip-path="url(#clip0_119_16189)">
<path d="M10.7829 0.997625C9.91625 0.676031 8.97884 0.5 8.00025 0.5C7.02172 0.5 6.08434 0.676031 5.21772 0.997562L4.86987 8.5L5.21769 16.0024C6.08434 16.324 7.02172 16.5 8.00025 16.5C8.97887 16.5 9.91625 16.324 10.7829 16.0024L11.1307 8.5L10.7829 0.997625Z" fill="#FFDA44"/>
<path d="M0 8.50024C0 11.9399 2.171 14.8723 5.21741 16.0026V0.997803C2.171 2.12818 0 5.06049 0 8.50024Z" fill="#D80027"/>
<path d="M15.9996 8.50024C15.9996 5.06049 13.8286 2.12818 10.7822 0.997803V16.0026C13.8286 14.8723 15.9996 11.9399 15.9996 8.50024Z" fill="#6DA544"/>
</g>
<defs>
<clipPath id="clip0_119_16189">
<rect width="16" height="16" fill="white" transform="translate(0 0.5)"/>
</clipPath>
</defs>
</svg>
