<svg width="176" height="42" viewBox="0 0 176 42" fill="none" xmlns="http://www.w3.org/2000/svg">
<g clip-path="url(#clip0_1096_1511)">
<rect x="8.6123" width="25.2" height="25.2" rx="12.6" fill="#FFD54F"/>
<path d="M25.2273 17.6196V27.3088C27.9625 26.9942 29.4474 25.9251 29.8479 25.4299V17.6196H25.2273Z" fill="#2A4A44"/>
<path d="M20.661 14.6266H16.3899V5.35254H24.6153V27.5928C23.5055 27.8113 21.5167 27.6838 20.661 27.5928V14.6266Z" fill="#2A4A44"/>
<path d="M20.0162 15.2277H11.627V26.3041C12.9815 27.0993 17.7842 27.4802 20.0162 27.5712V15.2277Z" fill="#2A4A44"/>
</g>
<path d="M8.14285 28.6285C15.4617 29.8563 19.1131 35.8131 20.024 38.638C22.2339 27.3028 7.73691 24.988 0.212158 25.2475C0.711168 37.8995 12.8359 41.4184 18.8359 41.5963C18.4795 34.2649 11.5587 29.8963 8.14285 28.6285Z" fill="#56B870"/>
<path d="M34.3407 28.6319C26.2615 29.1479 22.3011 37.759 21.3308 42.0001C20.2615 26.0205 34.806 24.4724 42.212 25.6957C41.0714 37.7961 29.3605 41.3105 23.6476 41.5552C24.6219 33.8323 31.1823 29.7218 34.3407 28.6319Z" fill="#56B870"/>
<path d="M163.156 27.4746C162.156 27.4746 161.236 27.2646 160.396 26.8446C159.556 26.4046 158.826 25.8146 158.206 25.0746C157.586 24.3346 157.106 23.4646 156.766 22.4646C156.446 21.4646 156.286 20.4046 156.286 19.2846C156.286 18.1446 156.466 17.0846 156.826 16.1046C157.206 15.1246 157.726 14.2646 158.386 13.5246C159.046 12.7846 159.826 12.2146 160.726 11.8146C161.626 11.3946 162.596 11.1846 163.636 11.1846C164.836 11.1846 165.896 11.4646 166.816 12.0246C167.736 12.5646 168.486 13.2846 169.066 14.1846V11.4546H172.576V28.8282V33.75L168.556 36.7255V24.4146C167.356 26.4546 165.556 27.4746 163.156 27.4746ZM164.656 24.0546C165.236 24.0546 165.756 23.9446 166.216 23.7246C166.696 23.5046 167.126 23.2046 167.506 22.8246C167.906 22.4246 168.256 21.9746 168.556 21.4746V17.7546C168.456 17.3146 168.266 16.9046 167.986 16.5246C167.726 16.1446 167.406 15.8146 167.026 15.5346C166.666 15.2346 166.276 15.0046 165.856 14.8446C165.436 14.6846 165.016 14.6046 164.596 14.6046C163.976 14.6046 163.406 14.7346 162.886 14.9946C162.386 15.2546 161.946 15.6146 161.566 16.0746C161.186 16.5146 160.896 17.0246 160.696 17.6046C160.496 18.1646 160.396 18.7646 160.396 19.4046C160.396 20.2646 160.576 21.0446 160.936 21.7446C161.296 22.4446 161.796 23.0046 162.436 23.4246C163.076 23.8446 163.816 24.0546 164.656 24.0546Z" fill="#2A4A44"/>
<path d="M172.576 28.8282V33.75L175.712 31.5V26.625L172.576 28.8282Z" fill="#2A4A44"/>
<path d="M140.709 22.5246C140.709 21.5046 140.989 20.6146 141.549 19.8546C142.129 19.0746 142.929 18.4746 143.949 18.0546C144.969 17.6346 146.139 17.4246 147.459 17.4246C148.119 17.4246 148.789 17.4746 149.469 17.5746C150.149 17.6746 150.739 17.8346 151.239 18.0546V17.2146C151.239 16.2146 150.939 15.4446 150.339 14.9046C149.759 14.3646 148.889 14.0946 147.729 14.0946C146.869 14.0946 146.049 14.2446 145.269 14.5446C144.489 14.8446 143.669 15.2846 142.809 15.8646L141.519 13.2246C142.559 12.5446 143.619 12.0346 144.699 11.6946C145.799 11.3546 146.949 11.1846 148.149 11.1846C150.389 11.1846 152.129 11.7446 153.369 12.8646C154.629 13.9846 155.259 15.5846 155.259 17.6646V22.6746C155.259 23.0946 155.329 23.3946 155.469 23.5746C155.629 23.7546 155.879 23.8646 156.219 23.9046V27.1746C155.859 27.2346 155.529 27.2846 155.229 27.3246C154.949 27.3646 154.709 27.3846 154.509 27.3846C153.709 27.3846 153.099 27.2046 152.679 26.8446C152.279 26.4846 152.029 26.0446 151.929 25.5246L151.839 24.7146C151.159 25.5946 150.309 26.2746 149.289 26.7546C148.269 27.2346 147.229 27.4746 146.169 27.4746C145.129 27.4746 144.189 27.2646 143.349 26.8446C142.529 26.4046 141.879 25.8146 141.399 25.0746C140.939 24.3146 140.709 23.4646 140.709 22.5246ZM150.489 23.3346C150.709 23.0946 150.889 22.8546 151.029 22.6146C151.169 22.3746 151.239 22.1546 151.239 21.9546V20.3646C150.759 20.1646 150.239 20.0146 149.679 19.9146C149.119 19.7946 148.589 19.7346 148.089 19.7346C147.049 19.7346 146.189 19.9646 145.509 20.4246C144.849 20.8646 144.519 21.4546 144.519 22.1946C144.519 22.5946 144.629 22.9746 144.849 23.3346C145.069 23.6946 145.389 23.9846 145.809 24.2046C146.229 24.4246 146.729 24.5346 147.309 24.5346C147.909 24.5346 148.499 24.4246 149.079 24.2046C149.659 23.9646 150.129 23.6746 150.489 23.3346Z" fill="#2A4A44"/>
<path d="M133.516 27.4745C132.316 27.4745 131.246 27.2045 130.306 26.6645C129.366 26.1245 128.626 25.3845 128.086 24.4445V27.1745H124.576V5.27454H128.596V14.2145C129.156 13.2745 129.886 12.5345 130.786 11.9945C131.706 11.4545 132.776 11.1845 133.996 11.1845C135.016 11.1845 135.946 11.4045 136.786 11.8445C137.626 12.2645 138.346 12.8545 138.946 13.6145C139.566 14.3745 140.036 15.2445 140.356 16.2245C140.696 17.2045 140.866 18.2545 140.866 19.3745C140.866 20.4945 140.676 21.5445 140.296 22.5245C139.936 23.5045 139.426 24.3745 138.766 25.1345C138.106 25.8745 137.326 26.4545 136.426 26.8745C135.546 27.2745 134.576 27.4745 133.516 27.4745ZM132.406 24.0545C133.046 24.0545 133.626 23.9345 134.146 23.6945C134.686 23.4345 135.146 23.0945 135.526 22.6745C135.926 22.2545 136.226 21.7645 136.426 21.2045C136.646 20.6245 136.756 20.0245 136.756 19.4045C136.756 18.5445 136.576 17.7545 136.216 17.0345C135.876 16.2945 135.396 15.7045 134.776 15.2645C134.176 14.8245 133.466 14.6045 132.646 14.6045C132.066 14.6045 131.506 14.7445 130.966 15.0245C130.446 15.2845 129.976 15.6445 129.556 16.1045C129.156 16.5645 128.836 17.0845 128.596 17.6645V21.4145C128.716 21.8145 128.906 22.1745 129.166 22.4945C129.446 22.8145 129.766 23.0945 130.126 23.3345C130.486 23.5545 130.856 23.7345 131.236 23.8745C131.636 23.9945 132.026 24.0545 132.406 24.0545Z" fill="#2A4A44"/>
<path d="M122.88 27.1746H118.86V18.3546C118.86 17.0946 118.64 16.1746 118.2 15.5946C117.76 15.0146 117.15 14.7246 116.37 14.7246C115.83 14.7246 115.28 14.8646 114.72 15.1446C114.18 15.4246 113.69 15.8146 113.25 16.3146C112.81 16.7946 112.49 17.3546 112.29 17.9946V27.1746H108.27V11.4546H111.9V14.3646C112.3 13.6846 112.81 13.1146 113.43 12.6546C114.05 12.1746 114.76 11.8146 115.56 11.5746C116.38 11.3146 117.24 11.1846 118.14 11.1846C119.12 11.1846 119.92 11.3646 120.54 11.7246C121.18 12.0646 121.66 12.5346 121.98 13.1346C122.32 13.7146 122.55 14.3746 122.67 15.1146C122.81 15.8546 122.88 16.6046 122.88 17.3646V27.1746Z" fill="#2A4A44"/>
<path d="M99.4011 27.4746C98.1411 27.4746 97.0011 27.2646 95.9811 26.8446C94.9611 26.4046 94.0911 25.8146 93.3711 25.0746C92.6511 24.3146 92.0911 23.4546 91.6911 22.4946C91.3111 21.5146 91.1211 20.4846 91.1211 19.4046C91.1211 17.9046 91.4511 16.5346 92.1111 15.2946C92.7911 14.0546 93.7511 13.0646 94.9911 12.3246C96.2511 11.5646 97.7311 11.1846 99.4311 11.1846C101.151 11.1846 102.621 11.5646 103.841 12.3246C105.061 13.0646 105.991 14.0546 106.631 15.2946C107.291 16.5146 107.621 17.8346 107.621 19.2546C107.621 19.4946 107.611 19.7446 107.591 20.0046C107.571 20.2446 107.551 20.4446 107.531 20.6046H95.3811C95.4611 21.4046 95.6911 22.1046 96.0711 22.7046C96.4711 23.3046 96.9711 23.7646 97.5711 24.0846C98.1911 24.3846 98.8511 24.5346 99.5511 24.5346C100.351 24.5346 101.101 24.3446 101.801 23.9646C102.521 23.5646 103.011 23.0446 103.271 22.4046L106.721 23.3646C106.341 24.1646 105.791 24.8746 105.071 25.4946C104.371 26.1146 103.541 26.6046 102.581 26.9646C101.621 27.3046 100.561 27.4746 99.4011 27.4746ZM95.2911 18.0546H103.511C103.431 17.2546 103.201 16.5646 102.821 15.9846C102.461 15.3846 101.981 14.9246 101.381 14.6046C100.781 14.2646 100.111 14.0946 99.3711 14.0946C98.6511 14.0946 97.9911 14.2646 97.3911 14.6046C96.8111 14.9246 96.3311 15.3846 95.9511 15.9846C95.5911 16.5646 95.3711 17.2546 95.2911 18.0546Z" fill="#2A4A44"/>
<path d="M83.2424 27.4746C81.9824 27.4746 80.8424 27.2646 79.8224 26.8446C78.8024 26.4046 77.9324 25.8146 77.2124 25.0746C76.4924 24.3146 75.9324 23.4546 75.5324 22.4946C75.1524 21.5146 74.9624 20.4846 74.9624 19.4046C74.9624 17.9046 75.2924 16.5346 75.9524 15.2946C76.6324 14.0546 77.5924 13.0646 78.8324 12.3246C80.0924 11.5646 81.5724 11.1846 83.2724 11.1846C84.9924 11.1846 86.4624 11.5646 87.6824 12.3246C88.9024 13.0646 89.8324 14.0546 90.4724 15.2946C91.1324 16.5146 91.4624 17.8346 91.4624 19.2546C91.4624 19.4946 91.4524 19.7446 91.4324 20.0046C91.4124 20.2446 91.3924 20.4446 91.3724 20.6046H79.2224C79.3024 21.4046 79.5324 22.1046 79.9124 22.7046C80.3124 23.3046 80.8124 23.7646 81.4124 24.0846C82.0324 24.3846 82.6924 24.5346 83.3924 24.5346C84.1924 24.5346 84.9424 24.3446 85.6424 23.9646C86.3624 23.5646 86.8524 23.0446 87.1124 22.4046L90.5624 23.3646C90.1824 24.1646 89.6324 24.8746 88.9124 25.4946C88.2124 26.1146 87.3824 26.6046 86.4224 26.9646C85.4624 27.3046 84.4024 27.4746 83.2424 27.4746ZM79.1324 18.0546H87.3524C87.2724 17.2546 87.0424 16.5646 86.6624 15.9846C86.3024 15.3846 85.8224 14.9246 85.2224 14.6046C84.6224 14.2646 83.9524 14.0946 83.2124 14.0946C82.4924 14.0946 81.8324 14.2646 81.2324 14.6046C80.6524 14.9246 80.1724 15.3846 79.7924 15.9846C79.4324 16.5646 79.2124 17.2546 79.1324 18.0546Z" fill="#2A4A44"/>
<path d="M75.7157 14.9345C74.4957 14.9345 73.4057 15.1745 72.4457 15.6545C71.4857 16.1145 70.7957 16.7845 70.3757 17.6645V27.1745H66.3557V11.4545H70.0457V14.8145C70.6057 13.7345 71.3157 12.8845 72.1757 12.2645C73.0357 11.6445 73.9457 11.3045 74.9057 11.2445C75.1257 11.2445 75.2957 11.2445 75.4157 11.2445C75.5357 11.2445 75.6357 11.2545 75.7157 11.2745V14.9345Z" fill="#2A4A44"/>
<path d="M55.2919 27.2646C54.2519 27.2646 53.2919 27.0646 52.4119 26.6646C51.5519 26.2446 50.8019 25.6646 50.1619 24.9246C49.5419 24.1846 49.0619 23.3346 48.7219 22.3746C48.3819 21.4146 48.2119 20.3946 48.2119 19.3146C48.2119 18.1746 48.3919 17.1146 48.7519 16.1346C49.1119 15.1546 49.6119 14.2946 50.2519 13.5546C50.9119 12.7946 51.6819 12.2146 52.5619 11.8146C53.4619 11.3946 54.4519 11.1846 55.5319 11.1846C56.7519 11.1846 57.8219 11.4646 58.7419 12.0246C59.6619 12.5646 60.4219 13.2946 61.0219 14.2146V11.4546H64.5319V26.4246C64.5319 27.9846 64.1519 29.3146 63.3919 30.4146C62.6519 31.5346 61.6219 32.3846 60.3019 32.9646C58.9819 33.5646 57.4819 33.8646 55.8019 33.8646C54.1019 33.8646 52.6619 33.5746 51.4819 32.9946C50.3019 32.4346 49.2919 31.6346 48.4519 30.5946L50.6419 28.4646C51.2419 29.2046 51.9919 29.7846 52.8919 30.2046C53.8119 30.6246 54.7819 30.8346 55.8019 30.8346C56.6619 30.8346 57.4419 30.6746 58.1419 30.3546C58.8619 30.0546 59.4319 29.5746 59.8519 28.9146C60.2919 28.2746 60.5119 27.4446 60.5119 26.4246V24.4446C59.9919 25.3446 59.2519 26.0446 58.2919 26.5446C57.3519 27.0246 56.3519 27.2646 55.2919 27.2646ZM56.6419 24.0546C57.0819 24.0546 57.5019 23.9846 57.9019 23.8446C58.3019 23.7046 58.6719 23.5146 59.0119 23.2746C59.3519 23.0346 59.6519 22.7546 59.9119 22.4346C60.1719 22.0946 60.3719 21.7546 60.5119 21.4146V17.6646C60.2719 17.0446 59.9319 16.5046 59.4919 16.0446C59.0719 15.5846 58.5919 15.2346 58.0519 14.9946C57.5319 14.7346 56.9819 14.6046 56.4019 14.6046C55.7819 14.6046 55.2219 14.7346 54.7219 14.9946C54.2219 15.2546 53.7919 15.6246 53.4319 16.1046C53.0719 16.5646 52.7919 17.0846 52.5919 17.6646C52.4119 18.2246 52.3219 18.8146 52.3219 19.4346C52.3219 20.0746 52.4319 20.6746 52.6519 21.2346C52.8719 21.7946 53.1719 22.2846 53.5519 22.7046C53.9519 23.1246 54.4119 23.4546 54.9319 23.6946C55.4719 23.9346 56.0419 24.0546 56.6419 24.0546Z" fill="#2A4A44"/>
<defs>
<clipPath id="clip0_1096_1511">
<rect x="8.6123" width="25.2" height="25.2" rx="12.6" fill="white"/>
</clipPath>
</defs>
</svg>
