<svg width="555" height="563" viewBox="0 0 555 563" fill="none" xmlns="http://www.w3.org/2000/svg">
<g opacity="0.04">
<path d="M526.233 390.212C532.146 383.319 524.908 375.471 519.124 379.809C501.222 393.045 470.002 399.722 446.263 393.939C446.145 393.912 446.021 393.913 445.903 393.942C445.784 393.971 445.674 394.028 445.582 394.107C445.49 394.187 445.417 394.287 445.371 394.4C445.324 394.513 445.305 394.635 445.315 394.756C445.321 395.162 445.414 395.561 445.587 395.928C445.76 396.295 446.01 396.62 446.319 396.882C455.943 405.005 482.196 412.787 491.511 405.756C363.07 502.628 252.673 438.176 163.597 328.918C116.162 274.015 82.5303 208.332 35.8387 152.872C-11.1104 99.4357 -77.2204 52.3048 -151.098 54.5856C-151.303 54.5857 -151.505 54.6363 -151.686 54.733C-151.867 54.8296 -152.022 54.9693 -152.136 55.1397C-152.251 55.3101 -152.322 55.506 -152.342 55.7102C-152.363 55.9144 -152.334 56.1205 -152.256 56.3106C-152.133 56.6498 -151.908 56.9426 -151.612 57.149C-151.315 57.3554 -150.963 57.4654 -150.602 57.4639C-78.0165 57.3866 -15.1397 104.294 29.5446 158.095C74.827 214.95 106.02 281.429 152.489 337.724C242.091 456.611 364.206 527.895 494.657 412.632C490.853 416.007 487.7 445.926 497.897 458.86C498.189 459.23 498.608 459.479 499.073 459.558C499.538 459.637 500.016 459.54 500.414 459.287L500.461 459.246C500.687 459.1 500.847 458.872 500.908 458.609C500.969 458.347 500.926 458.072 500.788 457.841C491.765 441.665 514.315 404.064 526.233 390.212Z" fill="white"/>
<path d="M165.38 293.8C202.275 340.13 265.292 401.592 320.111 422.105C320.26 422.191 320.376 422.325 320.44 422.484C320.503 422.644 320.511 422.821 320.462 422.986C320.413 423.151 320.309 423.294 320.168 423.393C320.027 423.491 319.857 423.54 319.686 423.53C261.499 408.644 196.441 345.484 164.206 294.663C164.143 294.508 164.133 294.336 164.179 294.175C164.224 294.014 164.322 293.873 164.457 293.774C164.592 293.675 164.756 293.624 164.923 293.629C165.09 293.633 165.251 293.694 165.38 293.8Z" fill="white"/>
<path d="M157.385 278.473C157.428 278.723 157.395 278.98 157.29 279.21C157.184 279.44 157.011 279.633 156.794 279.763C156.576 279.893 156.324 279.954 156.072 279.938C155.819 279.922 155.577 279.83 155.377 279.673C154.903 279.123 154.421 278.563 154.004 277.964C152.549 276.042 151.201 274.042 149.967 271.971C148.73 269.9 147.615 267.76 146.627 265.56C146.322 264.88 146.035 264.202 145.758 263.515C145.71 263.263 145.741 263.003 145.845 262.769C145.95 262.535 146.125 262.339 146.345 262.207C146.564 262.075 146.82 262.014 147.075 262.032C147.331 262.05 147.575 262.146 147.775 262.307C148.265 262.876 148.747 263.436 149.163 264.053C152.08 267.897 154.555 272.058 156.541 276.457C156.879 277.157 157.148 277.834 157.385 278.473Z" fill="white"/>
</g>
</svg>
