<svg width="1299" height="818" viewBox="0 0 1299 818" fill="none" xmlns="http://www.w3.org/2000/svg">
<path opacity="0.04" d="M1372.85 -121.197C1373.54 -124.143 1373.07 -127.241 1371.54 -129.848C1370 -132.455 1367.52 -134.369 1364.61 -135.193C1361.69 -135.96 1358.58 -135.542 1355.97 -134.031C1353.36 -132.519 1351.45 -130.036 1350.66 -127.122C1336.01 -31.9539 1271.64 46.2142 1195.16 100.815C1112.36 159.859 1014.92 192.775 919.853 226.514C828.891 258.847 736.913 293.221 658.177 350.097C586.722 401.792 527.007 471.719 506.511 559.099C504.724 565.793 503.644 572.488 502.471 579.535C502.281 580.727 501.817 581.859 501.116 582.841C500.415 583.823 499.495 584.629 498.429 585.196C497.363 585.762 496.18 586.073 494.973 586.104C493.767 586.135 492.569 585.885 491.475 585.375C455.86 570.29 417.592 562.464 378.914 562.355C264.738 560.938 153.929 618.31 81.8766 705.467C40.5469 754.602 12.6393 813.598 0.868921 876.715C-1.68081 891.038 20.3048 897.049 22.8898 882.594C41.1941 778.682 109.266 688.056 199.455 634.757C244.263 607.851 294.525 591.316 346.555 586.366C396.292 582.092 449.808 588.405 494.366 612.19C495.65 612.877 496.711 613.916 497.425 615.185C498.139 616.453 498.477 617.899 498.399 619.353C496.594 677.894 512.132 736.866 550.06 782.66C556.2 790.016 562.876 796.907 570.033 803.278C575.059 807.781 584.607 808.066 587.948 801.031C614.417 745.536 598.45 679.514 559.253 634.231C549.479 623.031 538.341 613.099 526.098 604.667C524.93 603.873 523.999 602.777 523.402 601.497C522.806 600.216 522.566 598.798 522.709 597.393C523.286 592.404 523.918 587.383 524.803 582.477C531.402 543.671 545.929 506.642 567.478 473.701C592.657 436.348 623.99 403.538 660.143 376.666C736.072 318.993 825.748 284.052 914.722 252.273C1009.23 218.481 1106.79 186.728 1191.15 130.882C1269.73 78.8246 1339.35 4.65438 1365.34 -87.9123C1368.51 -98.8471 1371.02 -109.962 1372.85 -121.197ZM563.713 762.62C539.072 729.358 524.595 689.671 522.031 648.356C521.892 646.754 522.245 645.148 523.044 643.752C523.843 642.357 525.05 641.239 526.502 640.549C527.954 639.859 529.583 639.629 531.169 639.89C532.756 640.152 534.224 640.892 535.378 642.011C565.468 672.455 583.998 717.033 577.82 759.262C577.558 760.784 576.855 762.195 575.798 763.321C574.741 764.447 573.377 765.238 571.875 765.596C570.373 765.953 568.798 765.862 567.347 765.333C565.897 764.804 564.633 763.861 563.713 762.62Z" fill="white"/>
</svg>
