<svg width="16" height="17" viewBox="0 0 16 17" fill="none" xmlns="http://www.w3.org/2000/svg">
<g clip-path="url(#clip0_119_16201)">
<path d="M8 16.5C12.4183 16.5 16 12.9183 16 8.5C16 4.08172 12.4183 0.5 8 0.5C3.58172 0.5 0 4.08172 0 8.5C0 12.9183 3.58172 16.5 8 16.5Z" fill="#F0F0F0"/>
<path d="M8.00013 0.499268C4.82844 0.499268 2.08795 2.34505 0.793945 5.02102H15.2063C13.9123 2.34505 11.1718 0.499268 8.00013 0.499268Z" fill="#FF9811"/>
<path d="M8.00013 16.4998C11.1718 16.4998 13.9123 14.654 15.2063 11.978H0.793945C2.08795 14.654 4.82844 16.4998 8.00013 16.4998Z" fill="#6DA544"/>
<path d="M8.00012 11.2822C9.53691 11.2822 10.7827 10.0364 10.7827 8.49963C10.7827 6.96285 9.53691 5.71704 8.00012 5.71704C6.46334 5.71704 5.21753 6.96285 5.21753 8.49963C5.21753 10.0364 6.46334 11.2822 8.00012 11.2822Z" fill="#0052B4"/>
<path d="M8.00011 10.2387C8.9606 10.2387 9.73923 9.46011 9.73923 8.49962C9.73923 7.53913 8.9606 6.7605 8.00011 6.7605C7.03962 6.7605 6.26099 7.53913 6.26099 8.49962C6.26099 9.46011 7.03962 10.2387 8.00011 10.2387Z" fill="#F0F0F0"/>
<path d="M8.00014 6.354L8.53667 7.57082L9.85867 7.42703L9.07317 8.50007L9.85867 9.5731L8.53667 9.42932L8.00014 10.6461L7.4636 9.42932L6.1416 9.57307L6.9271 8.50007L6.1416 7.42703L7.4636 7.57082L8.00014 6.354Z" fill="#0052B4"/>
</g>
<defs>
<clipPath id="clip0_119_16201">
<rect width="16" height="16" fill="white" transform="translate(0 0.5)"/>
</clipPath>
</defs>
</svg>
