<svg width="583" height="563" viewBox="0 0 583 563" fill="none" xmlns="http://www.w3.org/2000/svg">
<g clip-path="url(#clip0_119_22429)">
<rect width="583" height="563" fill="#263C28"/>
<path d="M165.443 245.955V260.5H162.808V245.955H165.443ZM170.753 254.108V260.5H168.182V249.591H170.64V251.445H170.768C171.019 250.834 171.419 250.348 171.968 249.989C172.522 249.629 173.206 249.449 174.02 249.449C174.773 249.449 175.429 249.61 175.988 249.932C176.551 250.254 176.987 250.72 177.295 251.331C177.607 251.942 177.761 252.683 177.756 253.554V260.5H175.185V253.952C175.185 253.223 174.996 252.652 174.617 252.24C174.243 251.828 173.724 251.622 173.062 251.622C172.612 251.622 172.212 251.722 171.861 251.92C171.516 252.115 171.243 252.396 171.045 252.766C170.85 253.135 170.753 253.582 170.753 254.108ZM182.941 254.108V260.5H180.37V249.591H182.827V251.445H182.955C183.206 250.834 183.606 250.348 184.155 249.989C184.709 249.629 185.394 249.449 186.208 249.449C186.961 249.449 187.617 249.61 188.175 249.932C188.739 250.254 189.174 250.72 189.482 251.331C189.795 251.942 189.948 252.683 189.944 253.554V260.5H187.373V253.952C187.373 253.223 187.183 252.652 186.805 252.24C186.43 251.828 185.912 251.622 185.249 251.622C184.799 251.622 184.399 251.722 184.049 251.92C183.703 252.115 183.431 252.396 183.232 252.766C183.038 253.135 182.941 253.582 182.941 254.108ZM197.316 260.713C196.251 260.713 195.327 260.479 194.546 260.01C193.765 259.541 193.159 258.885 192.728 258.043C192.302 257.2 192.089 256.215 192.089 255.088C192.089 253.961 192.302 252.974 192.728 252.126C193.159 251.279 193.765 250.621 194.546 250.152C195.327 249.683 196.251 249.449 197.316 249.449C198.381 249.449 199.305 249.683 200.086 250.152C200.867 250.621 201.471 251.279 201.897 252.126C202.328 252.974 202.543 253.961 202.543 255.088C202.543 256.215 202.328 257.2 201.897 258.043C201.471 258.885 200.867 259.541 200.086 260.01C199.305 260.479 198.381 260.713 197.316 260.713ZM197.33 258.653C197.908 258.653 198.391 258.495 198.779 258.178C199.167 257.856 199.456 257.425 199.645 256.885C199.84 256.345 199.937 255.744 199.937 255.081C199.937 254.413 199.84 253.81 199.645 253.27C199.456 252.725 199.167 252.292 198.779 251.97C198.391 251.648 197.908 251.487 197.33 251.487C196.738 251.487 196.246 251.648 195.853 251.97C195.465 252.292 195.173 252.725 194.979 253.27C194.79 253.81 194.695 254.413 194.695 255.081C194.695 255.744 194.79 256.345 194.979 256.885C195.173 257.425 195.465 257.856 195.853 258.178C196.246 258.495 196.738 258.653 197.33 258.653ZM214.099 249.591L210.214 260.5H207.373L203.488 249.591H206.229L208.736 257.695H208.85L211.364 249.591H214.099ZM218.704 260.72C218.013 260.72 217.39 260.597 216.836 260.351C216.287 260.1 215.852 259.731 215.53 259.243C215.212 258.755 215.054 258.154 215.054 257.439C215.054 256.823 215.167 256.314 215.395 255.912C215.622 255.509 215.932 255.188 216.325 254.946C216.718 254.705 217.161 254.522 217.653 254.399C218.15 254.271 218.664 254.179 219.194 254.122C219.834 254.056 220.352 253.997 220.75 253.945C221.148 253.888 221.436 253.803 221.616 253.689C221.801 253.571 221.893 253.388 221.893 253.142V253.099C221.893 252.564 221.735 252.15 221.417 251.857C221.1 251.563 220.643 251.416 220.047 251.416C219.417 251.416 218.917 251.554 218.548 251.828C218.184 252.103 217.937 252.427 217.809 252.801L215.409 252.46C215.598 251.797 215.911 251.243 216.346 250.798C216.782 250.348 217.315 250.012 217.944 249.79C218.574 249.562 219.27 249.449 220.032 249.449C220.558 249.449 221.081 249.51 221.602 249.634C222.123 249.757 222.599 249.96 223.03 250.244C223.461 250.524 223.806 250.905 224.067 251.388C224.332 251.871 224.464 252.474 224.464 253.199V260.5H221.993V259.001H221.907C221.751 259.304 221.531 259.589 221.247 259.854C220.968 260.114 220.615 260.325 220.189 260.486C219.767 260.642 219.273 260.72 218.704 260.72ZM219.372 258.831C219.888 258.831 220.336 258.729 220.714 258.526C221.093 258.317 221.384 258.043 221.588 257.702C221.796 257.361 221.9 256.989 221.9 256.587V255.301C221.82 255.367 221.683 255.429 221.488 255.486C221.299 255.543 221.086 255.592 220.849 255.635C220.613 255.678 220.378 255.715 220.146 255.749C219.914 255.782 219.713 255.81 219.542 255.834C219.159 255.886 218.816 255.971 218.513 256.089C218.21 256.208 217.97 256.374 217.795 256.587C217.62 256.795 217.532 257.065 217.532 257.396C217.532 257.87 217.705 258.227 218.051 258.469C218.397 258.71 218.837 258.831 219.372 258.831ZM232.497 249.591V251.58H226.226V249.591H232.497ZM227.774 246.977H230.345V257.219C230.345 257.564 230.397 257.83 230.501 258.014C230.61 258.194 230.752 258.317 230.927 258.384C231.103 258.45 231.297 258.483 231.51 258.483C231.671 258.483 231.818 258.471 231.95 258.447C232.087 258.424 232.192 258.402 232.263 258.384L232.696 260.393C232.559 260.441 232.362 260.493 232.106 260.55C231.855 260.607 231.548 260.64 231.183 260.649C230.539 260.668 229.959 260.571 229.443 260.358C228.927 260.14 228.517 259.804 228.214 259.349C227.916 258.895 227.769 258.327 227.774 257.645V246.977ZM234.647 260.5V249.591H237.218V260.5H234.647ZM235.94 248.043C235.533 248.043 235.182 247.908 234.889 247.638C234.595 247.363 234.448 247.034 234.448 246.651C234.448 246.262 234.595 245.933 234.889 245.663C235.182 245.389 235.533 245.251 235.94 245.251C236.352 245.251 236.702 245.389 236.991 245.663C237.285 245.933 237.431 246.262 237.431 246.651C237.431 247.034 237.285 247.363 236.991 247.638C236.702 247.908 236.352 248.043 235.94 248.043ZM249.606 249.591L245.721 260.5H242.881L238.996 249.591H241.737L244.244 257.695H244.358L246.872 249.591H249.606ZM255.844 260.713C254.75 260.713 253.806 260.486 253.01 260.031C252.219 259.572 251.611 258.923 251.185 258.085C250.759 257.242 250.546 256.25 250.546 255.109C250.546 253.987 250.759 253.002 251.185 252.155C251.616 251.303 252.217 250.64 252.989 250.166C253.761 249.688 254.667 249.449 255.709 249.449C256.381 249.449 257.016 249.558 257.612 249.776C258.214 249.989 258.744 250.32 259.203 250.77C259.667 251.22 260.032 251.793 260.297 252.489C260.562 253.18 260.695 254.004 260.695 254.96V255.749H251.753V254.016H258.23C258.226 253.523 258.119 253.085 257.911 252.702C257.702 252.313 257.411 252.008 257.037 251.786C256.668 251.563 256.237 251.452 255.744 251.452C255.219 251.452 254.757 251.58 254.36 251.835C253.962 252.086 253.652 252.418 253.429 252.83C253.211 253.237 253.1 253.684 253.095 254.172V255.685C253.095 256.319 253.211 256.864 253.443 257.318C253.675 257.768 254 258.114 254.416 258.355C254.833 258.592 255.321 258.71 255.879 258.71C256.253 258.71 256.592 258.658 256.895 258.554C257.198 258.445 257.461 258.286 257.683 258.078C257.906 257.87 258.074 257.612 258.188 257.304L260.588 257.574C260.437 258.208 260.148 258.762 259.722 259.236C259.3 259.705 258.761 260.069 258.102 260.33C257.444 260.585 256.691 260.713 255.844 260.713ZM267.944 260.5V245.955H273.399C274.516 245.955 275.454 246.163 276.211 246.58C276.974 246.996 277.549 247.569 277.937 248.298C278.33 249.023 278.527 249.847 278.527 250.77C278.527 251.703 278.33 252.531 277.937 253.256C277.544 253.98 276.964 254.551 276.197 254.967C275.43 255.379 274.486 255.585 273.363 255.585H269.748V253.419H273.008C273.662 253.419 274.197 253.305 274.613 253.078C275.03 252.851 275.338 252.538 275.537 252.141C275.74 251.743 275.842 251.286 275.842 250.77C275.842 250.254 275.74 249.799 275.537 249.406C275.338 249.013 275.028 248.708 274.606 248.49C274.19 248.268 273.652 248.156 272.994 248.156H270.579V260.5H267.944ZM283.646 260.72C282.954 260.72 282.332 260.597 281.778 260.351C281.229 260.1 280.793 259.731 280.471 259.243C280.154 258.755 279.995 258.154 279.995 257.439C279.995 256.823 280.109 256.314 280.336 255.912C280.563 255.509 280.874 255.188 281.267 254.946C281.66 254.705 282.102 254.522 282.595 254.399C283.092 254.271 283.606 254.179 284.136 254.122C284.775 254.056 285.294 253.997 285.691 253.945C286.089 253.888 286.378 253.803 286.558 253.689C286.742 253.571 286.835 253.388 286.835 253.142V253.099C286.835 252.564 286.676 252.15 286.359 251.857C286.042 251.563 285.585 251.416 284.988 251.416C284.358 251.416 283.859 251.554 283.49 251.828C283.125 252.103 282.879 252.427 282.751 252.801L280.35 252.46C280.54 251.797 280.852 251.243 281.288 250.798C281.723 250.348 282.256 250.012 282.886 249.79C283.516 249.562 284.212 249.449 284.974 249.449C285.499 249.449 286.023 249.51 286.544 249.634C287.064 249.757 287.54 249.96 287.971 250.244C288.402 250.524 288.748 250.905 289.008 251.388C289.273 251.871 289.406 252.474 289.406 253.199V260.5H286.934V259.001H286.849C286.693 259.304 286.472 259.589 286.188 259.854C285.909 260.114 285.556 260.325 285.13 260.486C284.709 260.642 284.214 260.72 283.646 260.72ZM284.313 258.831C284.829 258.831 285.277 258.729 285.656 258.526C286.035 258.317 286.326 258.043 286.529 257.702C286.738 257.361 286.842 256.989 286.842 256.587V255.301C286.761 255.367 286.624 255.429 286.43 255.486C286.24 255.543 286.027 255.592 285.791 255.635C285.554 255.678 285.32 255.715 285.088 255.749C284.856 255.782 284.654 255.81 284.484 255.834C284.1 255.886 283.757 255.971 283.454 256.089C283.151 256.208 282.912 256.374 282.737 256.587C282.561 256.795 282.474 257.065 282.474 257.396C282.474 257.87 282.647 258.227 282.992 258.469C283.338 258.71 283.778 258.831 284.313 258.831ZM296.749 260.713C295.66 260.713 294.725 260.474 293.944 259.996C293.168 259.518 292.569 258.857 292.147 258.014C291.731 257.167 291.522 256.191 291.522 255.088C291.522 253.98 291.735 253.002 292.161 252.155C292.588 251.303 293.189 250.64 293.965 250.166C294.747 249.688 295.67 249.449 296.735 249.449C297.621 249.449 298.404 249.612 299.086 249.939C299.773 250.261 300.32 250.718 300.727 251.31C301.134 251.897 301.366 252.583 301.423 253.369H298.965C298.866 252.844 298.629 252.406 298.255 252.055C297.886 251.7 297.391 251.523 296.771 251.523C296.245 251.523 295.784 251.665 295.386 251.949C294.988 252.228 294.678 252.631 294.455 253.156C294.238 253.682 294.129 254.312 294.129 255.045C294.129 255.789 294.238 256.428 294.455 256.963C294.673 257.493 294.979 257.903 295.372 258.192C295.769 258.476 296.236 258.618 296.771 258.618C297.15 258.618 297.488 258.547 297.786 258.405C298.089 258.258 298.343 258.047 298.546 257.773C298.75 257.498 298.89 257.164 298.965 256.771H301.423C301.361 257.543 301.134 258.227 300.741 258.824C300.348 259.416 299.813 259.88 299.136 260.216C298.459 260.547 297.663 260.713 296.749 260.713ZM305.878 257.077L305.871 253.973H306.282L310.203 249.591H313.207L308.385 254.96H307.852L305.878 257.077ZM303.534 260.5V245.955H306.105V260.5H303.534ZM310.381 260.5L306.829 255.536L308.562 253.724L313.456 260.5H310.381ZM318.06 260.72C317.369 260.72 316.746 260.597 316.192 260.351C315.643 260.1 315.207 259.731 314.885 259.243C314.568 258.755 314.409 258.154 314.409 257.439C314.409 256.823 314.523 256.314 314.75 255.912C314.977 255.509 315.288 255.188 315.681 254.946C316.074 254.705 316.516 254.522 317.009 254.399C317.506 254.271 318.02 254.179 318.55 254.122C319.189 254.056 319.708 253.997 320.105 253.945C320.503 253.888 320.792 253.803 320.972 253.689C321.156 253.571 321.249 253.388 321.249 253.142V253.099C321.249 252.564 321.09 252.15 320.773 251.857C320.456 251.563 319.999 251.416 319.402 251.416C318.772 251.416 318.273 251.554 317.904 251.828C317.539 252.103 317.293 252.427 317.165 252.801L314.764 252.46C314.954 251.797 315.266 251.243 315.702 250.798C316.137 250.348 316.67 250.012 317.3 249.79C317.93 249.562 318.626 249.449 319.388 249.449C319.914 249.449 320.437 249.51 320.958 249.634C321.478 249.757 321.954 249.96 322.385 250.244C322.816 250.524 323.162 250.905 323.422 251.388C323.687 251.871 323.82 252.474 323.82 253.199V260.5H321.348V259.001H321.263C321.107 259.304 320.887 259.589 320.602 259.854C320.323 260.114 319.97 260.325 319.544 260.486C319.123 260.642 318.628 260.72 318.06 260.72ZM318.727 258.831C319.244 258.831 319.691 258.729 320.07 258.526C320.449 258.317 320.74 258.043 320.943 257.702C321.152 257.361 321.256 256.989 321.256 256.587V255.301C321.175 255.367 321.038 255.429 320.844 255.486C320.655 255.543 320.441 255.592 320.205 255.635C319.968 255.678 319.734 255.715 319.502 255.749C319.27 255.782 319.068 255.81 318.898 255.834C318.514 255.886 318.171 255.971 317.868 256.089C317.565 256.208 317.326 256.374 317.151 256.587C316.976 256.795 316.888 257.065 316.888 257.396C316.888 257.87 317.061 258.227 317.406 258.469C317.752 258.71 318.192 258.831 318.727 258.831ZM331.149 264.818C330.226 264.818 329.433 264.693 328.77 264.442C328.107 264.196 327.575 263.864 327.172 263.447C326.77 263.031 326.49 262.569 326.334 262.062L328.649 261.501C328.753 261.714 328.905 261.925 329.104 262.134C329.303 262.347 329.57 262.522 329.906 262.659C330.247 262.801 330.676 262.872 331.192 262.872C331.921 262.872 332.525 262.695 333.003 262.339C333.481 261.989 333.72 261.411 333.72 260.607V258.54H333.593C333.46 258.805 333.266 259.077 333.01 259.357C332.759 259.636 332.425 259.87 332.009 260.06C331.597 260.249 331.078 260.344 330.453 260.344C329.615 260.344 328.855 260.147 328.173 259.754C327.496 259.357 326.957 258.765 326.554 257.979C326.156 257.188 325.958 256.198 325.958 255.01C325.958 253.812 326.156 252.801 326.554 251.977C326.957 251.149 327.499 250.521 328.181 250.095C328.862 249.664 329.622 249.449 330.46 249.449C331.1 249.449 331.625 249.558 332.037 249.776C332.454 249.989 332.785 250.247 333.031 250.55C333.278 250.848 333.465 251.13 333.593 251.395H333.735V249.591H336.27V260.678C336.27 261.61 336.048 262.382 335.602 262.993C335.157 263.604 334.549 264.061 333.777 264.364C333.005 264.667 332.129 264.818 331.149 264.818ZM331.171 258.327C331.715 258.327 332.179 258.194 332.563 257.929C332.946 257.664 333.237 257.283 333.436 256.786C333.635 256.288 333.735 255.692 333.735 254.996C333.735 254.309 333.635 253.708 333.436 253.192C333.242 252.676 332.953 252.276 332.57 251.991C332.191 251.703 331.725 251.558 331.171 251.558C330.598 251.558 330.119 251.707 329.736 252.006C329.352 252.304 329.064 252.714 328.869 253.234C328.675 253.75 328.578 254.338 328.578 254.996C328.578 255.663 328.675 256.248 328.869 256.75C329.068 257.247 329.36 257.635 329.743 257.915C330.131 258.189 330.607 258.327 331.171 258.327ZM343.735 260.713C342.641 260.713 341.696 260.486 340.901 260.031C340.11 259.572 339.502 258.923 339.075 258.085C338.649 257.242 338.436 256.25 338.436 255.109C338.436 253.987 338.649 253.002 339.075 252.155C339.506 251.303 340.108 250.64 340.879 250.166C341.651 249.688 342.558 249.449 343.6 249.449C344.272 249.449 344.906 249.558 345.503 249.776C346.104 249.989 346.635 250.32 347.094 250.77C347.558 251.22 347.923 251.793 348.188 252.489C348.453 253.18 348.585 254.004 348.585 254.96V255.749H339.644V254.016H346.121C346.116 253.523 346.01 253.085 345.801 252.702C345.593 252.313 345.302 252.008 344.928 251.786C344.558 251.563 344.128 251.452 343.635 251.452C343.11 251.452 342.648 251.58 342.25 251.835C341.852 252.086 341.542 252.418 341.32 252.83C341.102 253.237 340.991 253.684 340.986 254.172V255.685C340.986 256.319 341.102 256.864 341.334 257.318C341.566 257.768 341.89 258.114 342.307 258.355C342.724 258.592 343.211 258.71 343.77 258.71C344.144 258.71 344.483 258.658 344.786 258.554C345.089 258.445 345.352 258.286 345.574 258.078C345.797 257.87 345.965 257.612 346.078 257.304L348.479 257.574C348.327 258.208 348.039 258.762 347.612 259.236C347.191 259.705 346.651 260.069 345.993 260.33C345.335 260.585 344.582 260.713 343.735 260.713ZM360.764 260.5H355.835V245.955H360.863C362.308 245.955 363.548 246.246 364.585 246.828C365.627 247.406 366.427 248.237 366.986 249.321C367.544 250.405 367.824 251.703 367.824 253.213C367.824 254.728 367.542 256.03 366.979 257.119C366.42 258.208 365.613 259.044 364.557 259.626C363.506 260.209 362.241 260.5 360.764 260.5ZM358.47 258.22H360.636C361.649 258.22 362.495 258.036 363.172 257.666C363.849 257.292 364.358 256.736 364.699 255.997C365.04 255.254 365.21 254.326 365.21 253.213C365.21 252.1 365.04 251.177 364.699 250.443C364.358 249.705 363.854 249.153 363.186 248.788C362.523 248.419 361.699 248.234 360.714 248.234H358.47V258.22ZM375.043 260.713C373.949 260.713 373.005 260.486 372.209 260.031C371.419 259.572 370.81 258.923 370.384 258.085C369.958 257.242 369.745 256.25 369.745 255.109C369.745 253.987 369.958 253.002 370.384 252.155C370.815 251.303 371.416 250.64 372.188 250.166C372.96 249.688 373.867 249.449 374.908 249.449C375.581 249.449 376.215 249.558 376.812 249.776C377.413 249.989 377.943 250.32 378.403 250.77C378.867 251.22 379.231 251.793 379.496 252.489C379.761 253.18 379.894 254.004 379.894 254.96V255.749H370.952V254.016H377.43C377.425 253.523 377.318 253.085 377.11 252.702C376.902 252.313 376.61 252.008 376.236 251.786C375.867 251.563 375.436 251.452 374.944 251.452C374.418 251.452 373.956 251.58 373.559 251.835C373.161 252.086 372.851 252.418 372.628 252.83C372.411 253.237 372.299 253.684 372.295 254.172V255.685C372.295 256.319 372.411 256.864 372.643 257.318C372.875 257.768 373.199 258.114 373.616 258.355C374.032 258.592 374.52 258.71 375.079 258.71C375.453 258.71 375.791 258.658 376.094 258.554C376.397 258.445 376.66 258.286 376.883 258.078C377.105 257.87 377.273 257.612 377.387 257.304L379.787 257.574C379.636 258.208 379.347 258.762 378.921 259.236C378.5 259.705 377.96 260.069 377.302 260.33C376.644 260.585 375.891 260.713 375.043 260.713ZM390.691 252.474L388.347 252.73C388.281 252.493 388.165 252.271 387.999 252.062C387.838 251.854 387.621 251.686 387.346 251.558C387.071 251.43 386.735 251.366 386.338 251.366C385.802 251.366 385.353 251.482 384.988 251.714C384.628 251.946 384.451 252.247 384.455 252.616C384.451 252.934 384.567 253.192 384.803 253.391C385.045 253.589 385.443 253.753 385.997 253.881L387.857 254.278C388.89 254.501 389.657 254.854 390.159 255.337C390.665 255.82 390.921 256.452 390.926 257.233C390.921 257.92 390.72 258.526 390.322 259.051C389.929 259.572 389.382 259.979 388.681 260.273C387.981 260.566 387.176 260.713 386.267 260.713C384.931 260.713 383.856 260.434 383.042 259.875C382.228 259.312 381.742 258.528 381.586 257.524L384.093 257.283C384.207 257.775 384.448 258.147 384.818 258.398C385.187 258.649 385.668 258.774 386.259 258.774C386.87 258.774 387.36 258.649 387.73 258.398C388.104 258.147 388.291 257.837 388.291 257.467C388.291 257.155 388.17 256.897 387.928 256.693C387.692 256.49 387.322 256.333 386.82 256.224L384.96 255.834C383.913 255.616 383.139 255.249 382.637 254.733C382.135 254.212 381.887 253.554 381.892 252.759C381.887 252.086 382.069 251.504 382.438 251.011C382.812 250.514 383.331 250.131 383.994 249.861C384.661 249.586 385.431 249.449 386.302 249.449C387.58 249.449 388.587 249.721 389.32 250.266C390.059 250.81 390.516 251.546 390.691 252.474ZM393.046 260.5V249.591H395.617V260.5H393.046ZM394.338 248.043C393.931 248.043 393.581 247.908 393.287 247.638C392.994 247.363 392.847 247.034 392.847 246.651C392.847 246.262 392.994 245.933 393.287 245.663C393.581 245.389 393.931 245.251 394.338 245.251C394.75 245.251 395.101 245.389 395.389 245.663C395.683 245.933 395.83 246.262 395.83 246.651C395.83 247.034 395.683 247.363 395.389 247.638C395.101 247.908 394.75 248.043 394.338 248.043ZM403.005 264.818C402.081 264.818 401.288 264.693 400.626 264.442C399.963 264.196 399.43 263.864 399.028 263.447C398.625 263.031 398.346 262.569 398.189 262.062L400.505 261.501C400.609 261.714 400.76 261.925 400.959 262.134C401.158 262.347 401.426 262.522 401.762 262.659C402.103 262.801 402.531 262.872 403.047 262.872C403.777 262.872 404.38 262.695 404.858 262.339C405.337 261.989 405.576 261.411 405.576 260.607V258.54H405.448C405.315 258.805 405.121 259.077 404.866 259.357C404.615 259.636 404.281 259.87 403.864 260.06C403.452 260.249 402.934 260.344 402.309 260.344C401.471 260.344 400.711 260.147 400.029 259.754C399.352 259.357 398.812 258.765 398.41 257.979C398.012 257.188 397.813 256.198 397.813 255.01C397.813 253.812 398.012 252.801 398.41 251.977C398.812 251.149 399.354 250.521 400.036 250.095C400.718 249.664 401.478 249.449 402.316 249.449C402.955 249.449 403.481 249.558 403.893 249.776C404.309 249.989 404.641 250.247 404.887 250.55C405.133 250.848 405.32 251.13 405.448 251.395H405.59V249.591H408.126V260.678C408.126 261.61 407.903 262.382 407.458 262.993C407.013 263.604 406.404 264.061 405.633 264.364C404.861 264.667 403.985 264.818 403.005 264.818ZM403.026 258.327C403.571 258.327 404.035 258.194 404.418 257.929C404.802 257.664 405.093 257.283 405.292 256.786C405.491 256.288 405.59 255.692 405.59 254.996C405.59 254.309 405.491 253.708 405.292 253.192C405.098 252.676 404.809 252.276 404.425 251.991C404.046 251.703 403.58 251.558 403.026 251.558C402.453 251.558 401.975 251.707 401.591 252.006C401.208 252.304 400.919 252.714 400.725 253.234C400.531 253.75 400.434 254.338 400.434 254.996C400.434 255.663 400.531 256.248 400.725 256.75C400.924 257.247 401.215 257.635 401.599 257.915C401.987 258.189 402.463 258.327 403.026 258.327ZM413.331 254.108V260.5H410.76V249.591H413.218V251.445H413.346C413.597 250.834 413.997 250.348 414.546 249.989C415.1 249.629 415.784 249.449 416.599 249.449C417.351 249.449 418.007 249.61 418.566 249.932C419.129 250.254 419.565 250.72 419.873 251.331C420.185 251.942 420.339 252.683 420.334 253.554V260.5H417.763V253.952C417.763 253.223 417.574 252.652 417.195 252.24C416.821 251.828 416.303 251.622 415.64 251.622C415.19 251.622 414.79 251.722 414.439 251.92C414.094 252.115 413.822 252.396 413.623 252.766C413.429 253.135 413.331 253.582 413.331 254.108Z" fill="#F9FAFB"/>
<path d="M131.937 294.5L128.755 282.864H130.187L132.619 292.341H132.732L135.21 282.864H136.8L139.278 292.341H139.391L141.823 282.864H143.255L140.073 294.5H138.619L136.05 285.227H135.96L133.391 294.5H131.937ZM147.675 294.682C146.835 294.682 146.109 294.496 145.499 294.125C144.893 293.75 144.425 293.227 144.096 292.557C143.77 291.883 143.607 291.098 143.607 290.205C143.607 289.311 143.77 288.523 144.096 287.841C144.425 287.155 144.884 286.621 145.471 286.239C146.062 285.852 146.751 285.659 147.539 285.659C147.994 285.659 148.442 285.735 148.886 285.886C149.329 286.038 149.732 286.284 150.096 286.625C150.46 286.962 150.749 287.409 150.965 287.966C151.181 288.523 151.289 289.208 151.289 290.023V290.591H144.562V289.432H149.925C149.925 288.939 149.827 288.5 149.63 288.114C149.437 287.727 149.16 287.422 148.8 287.199C148.444 286.975 148.024 286.864 147.539 286.864C147.005 286.864 146.543 286.996 146.153 287.261C145.766 287.523 145.469 287.864 145.261 288.284C145.052 288.705 144.948 289.155 144.948 289.636V290.409C144.948 291.068 145.062 291.627 145.289 292.085C145.52 292.54 145.84 292.886 146.249 293.125C146.658 293.36 147.134 293.477 147.675 293.477C148.028 293.477 148.346 293.428 148.63 293.33C148.918 293.227 149.166 293.076 149.374 292.875C149.583 292.67 149.744 292.417 149.857 292.114L151.153 292.477C151.016 292.917 150.787 293.303 150.465 293.636C150.143 293.966 149.746 294.223 149.272 294.409C148.799 294.591 148.266 294.682 147.675 294.682ZM161.374 294.682C160.556 294.682 159.852 294.489 159.261 294.102C158.67 293.716 158.215 293.184 157.897 292.506C157.579 291.828 157.42 291.053 157.42 290.182C157.42 289.295 157.583 288.513 157.908 287.835C158.238 287.153 158.696 286.621 159.283 286.239C159.874 285.852 160.564 285.659 161.352 285.659C161.965 285.659 162.518 285.773 163.011 286C163.503 286.227 163.906 286.545 164.221 286.955C164.535 287.364 164.73 287.841 164.806 288.386H163.465C163.363 287.989 163.136 287.636 162.783 287.33C162.435 287.019 161.965 286.864 161.374 286.864C160.852 286.864 160.393 287 159.999 287.273C159.609 287.542 159.304 287.922 159.085 288.415C158.869 288.903 158.761 289.477 158.761 290.136C158.761 290.811 158.867 291.398 159.079 291.898C159.295 292.398 159.598 292.786 159.988 293.062C160.382 293.339 160.844 293.477 161.374 293.477C161.723 293.477 162.039 293.417 162.323 293.295C162.607 293.174 162.848 293 163.045 292.773C163.242 292.545 163.382 292.273 163.465 291.955H164.806C164.73 292.47 164.543 292.934 164.244 293.347C163.948 293.756 163.556 294.081 163.067 294.324C162.583 294.562 162.018 294.682 161.374 294.682ZM166.766 294.5V285.773H168.062V287.091H168.153C168.312 286.659 168.6 286.309 169.016 286.04C169.433 285.771 169.903 285.636 170.425 285.636C170.524 285.636 170.647 285.638 170.795 285.642C170.942 285.646 171.054 285.652 171.13 285.659V287.023C171.085 287.011 170.98 286.994 170.817 286.972C170.658 286.945 170.49 286.932 170.312 286.932C169.888 286.932 169.509 287.021 169.175 287.199C168.846 287.373 168.585 287.616 168.391 287.926C168.202 288.233 168.107 288.583 168.107 288.977V294.5H166.766ZM176.113 294.682C175.272 294.682 174.547 294.496 173.937 294.125C173.331 293.75 172.863 293.227 172.533 292.557C172.208 291.883 172.045 291.098 172.045 290.205C172.045 289.311 172.208 288.523 172.533 287.841C172.863 287.155 173.321 286.621 173.908 286.239C174.499 285.852 175.189 285.659 175.977 285.659C176.431 285.659 176.88 285.735 177.323 285.886C177.766 286.038 178.17 286.284 178.533 286.625C178.897 286.962 179.187 287.409 179.403 287.966C179.619 288.523 179.727 289.208 179.727 290.023V290.591H172.999V289.432H178.363C178.363 288.939 178.264 288.5 178.067 288.114C177.874 287.727 177.598 287.422 177.238 287.199C176.882 286.975 176.461 286.864 175.977 286.864C175.442 286.864 174.98 286.996 174.59 287.261C174.204 287.523 173.906 287.864 173.698 288.284C173.49 288.705 173.386 289.155 173.386 289.636V290.409C173.386 291.068 173.499 291.627 173.727 292.085C173.958 292.54 174.278 292.886 174.687 293.125C175.096 293.36 175.571 293.477 176.113 293.477C176.465 293.477 176.783 293.428 177.067 293.33C177.355 293.227 177.603 293.076 177.812 292.875C178.02 292.67 178.181 292.417 178.295 292.114L179.59 292.477C179.454 292.917 179.225 293.303 178.903 293.636C178.581 293.966 178.183 294.223 177.71 294.409C177.236 294.591 176.704 294.682 176.113 294.682ZM184.335 294.705C183.781 294.705 183.28 294.6 182.829 294.392C182.378 294.18 182.02 293.875 181.755 293.477C181.49 293.076 181.357 292.591 181.357 292.023C181.357 291.523 181.456 291.117 181.653 290.807C181.85 290.492 182.113 290.246 182.442 290.068C182.772 289.89 183.136 289.758 183.533 289.67C183.935 289.58 184.338 289.508 184.744 289.455C185.274 289.386 185.704 289.335 186.033 289.301C186.367 289.263 186.609 289.201 186.761 289.114C186.916 289.027 186.994 288.875 186.994 288.659V288.614C186.994 288.053 186.84 287.617 186.533 287.307C186.23 286.996 185.77 286.841 185.153 286.841C184.513 286.841 184.011 286.981 183.647 287.261C183.283 287.542 183.028 287.841 182.88 288.159L181.607 287.705C181.835 287.174 182.138 286.761 182.516 286.466C182.899 286.167 183.316 285.958 183.766 285.841C184.221 285.72 184.668 285.659 185.107 285.659C185.388 285.659 185.71 285.693 186.073 285.761C186.441 285.826 186.795 285.96 187.136 286.165C187.48 286.369 187.766 286.678 187.994 287.091C188.221 287.504 188.335 288.057 188.335 288.75V294.5H186.994V293.318H186.925C186.835 293.508 186.683 293.71 186.471 293.926C186.259 294.142 185.977 294.326 185.624 294.477C185.272 294.629 184.842 294.705 184.335 294.705ZM184.539 293.5C185.069 293.5 185.516 293.396 185.88 293.188C186.247 292.979 186.524 292.71 186.71 292.381C186.899 292.051 186.994 291.705 186.994 291.341V290.114C186.937 290.182 186.812 290.244 186.619 290.301C186.429 290.354 186.21 290.402 185.96 290.443C185.713 290.481 185.473 290.515 185.238 290.545C185.007 290.572 184.819 290.595 184.675 290.614C184.327 290.659 184.001 290.733 183.698 290.835C183.399 290.934 183.156 291.083 182.971 291.284C182.789 291.481 182.698 291.75 182.698 292.091C182.698 292.557 182.871 292.909 183.215 293.148C183.564 293.383 184.005 293.5 184.539 293.5ZM194.577 285.773V286.909H190.055V285.773H194.577ZM191.373 283.682H192.714V292C192.714 292.379 192.769 292.663 192.879 292.852C192.992 293.038 193.136 293.163 193.31 293.227C193.488 293.288 193.676 293.318 193.873 293.318C194.021 293.318 194.142 293.311 194.237 293.295C194.331 293.277 194.407 293.261 194.464 293.25L194.737 294.455C194.646 294.489 194.519 294.523 194.356 294.557C194.193 294.595 193.987 294.614 193.737 294.614C193.358 294.614 192.987 294.532 192.623 294.369C192.263 294.206 191.964 293.958 191.725 293.625C191.49 293.292 191.373 292.871 191.373 292.364V283.682ZM200.16 294.682C199.319 294.682 198.594 294.496 197.984 294.125C197.378 293.75 196.91 293.227 196.58 292.557C196.254 291.883 196.092 291.098 196.092 290.205C196.092 289.311 196.254 288.523 196.58 287.841C196.91 287.155 197.368 286.621 197.955 286.239C198.546 285.852 199.236 285.659 200.023 285.659C200.478 285.659 200.927 285.735 201.37 285.886C201.813 286.038 202.217 286.284 202.58 286.625C202.944 286.962 203.234 287.409 203.45 287.966C203.665 288.523 203.773 289.208 203.773 290.023V290.591H197.046V289.432H202.41C202.41 288.939 202.311 288.5 202.114 288.114C201.921 287.727 201.645 287.422 201.285 287.199C200.929 286.975 200.508 286.864 200.023 286.864C199.489 286.864 199.027 286.996 198.637 287.261C198.251 287.523 197.953 287.864 197.745 288.284C197.537 288.705 197.433 289.155 197.433 289.636V290.409C197.433 291.068 197.546 291.627 197.773 292.085C198.004 292.54 198.325 292.886 198.734 293.125C199.143 293.36 199.618 293.477 200.16 293.477C200.512 293.477 200.83 293.428 201.114 293.33C201.402 293.227 201.65 293.076 201.859 292.875C202.067 292.67 202.228 292.417 202.342 292.114L203.637 292.477C203.501 292.917 203.272 293.303 202.95 293.636C202.628 293.966 202.23 294.223 201.756 294.409C201.283 294.591 200.751 294.682 200.16 294.682ZM213.859 294.682C213.04 294.682 212.336 294.489 211.745 294.102C211.154 293.716 210.7 293.184 210.381 292.506C210.063 291.828 209.904 291.053 209.904 290.182C209.904 289.295 210.067 288.513 210.393 287.835C210.722 287.153 211.181 286.621 211.768 286.239C212.359 285.852 213.048 285.659 213.836 285.659C214.45 285.659 215.003 285.773 215.495 286C215.987 286.227 216.391 286.545 216.705 286.955C217.02 287.364 217.215 287.841 217.29 288.386H215.95C215.847 287.989 215.62 287.636 215.268 287.33C214.919 287.019 214.45 286.864 213.859 286.864C213.336 286.864 212.878 287 212.484 287.273C212.094 287.542 211.789 287.922 211.569 288.415C211.353 288.903 211.245 289.477 211.245 290.136C211.245 290.811 211.351 291.398 211.563 291.898C211.779 292.398 212.082 292.786 212.472 293.062C212.866 293.339 213.328 293.477 213.859 293.477C214.207 293.477 214.523 293.417 214.808 293.295C215.092 293.174 215.332 293 215.529 292.773C215.726 292.545 215.866 292.273 215.95 291.955H217.29C217.215 292.47 217.027 292.934 216.728 293.347C216.433 293.756 216.04 294.081 215.552 294.324C215.067 294.562 214.503 294.682 213.859 294.682ZM224.751 290.932V285.773H226.092V294.5H224.751V293.023H224.66C224.455 293.466 224.137 293.843 223.705 294.153C223.273 294.46 222.728 294.614 222.069 294.614C221.523 294.614 221.039 294.494 220.614 294.256C220.19 294.013 219.857 293.65 219.614 293.165C219.372 292.676 219.251 292.061 219.251 291.318V285.773H220.592V291.227C220.592 291.864 220.77 292.371 221.126 292.75C221.486 293.129 221.944 293.318 222.501 293.318C222.834 293.318 223.173 293.233 223.518 293.062C223.866 292.892 224.158 292.631 224.393 292.278C224.631 291.926 224.751 291.477 224.751 290.932ZM234.729 287.727L233.525 288.068C233.449 287.867 233.337 287.672 233.19 287.483C233.046 287.29 232.849 287.131 232.599 287.006C232.349 286.881 232.029 286.818 231.638 286.818C231.104 286.818 230.659 286.941 230.303 287.188C229.951 287.43 229.775 287.739 229.775 288.114C229.775 288.447 229.896 288.71 230.138 288.903C230.381 289.097 230.76 289.258 231.275 289.386L232.57 289.705C233.351 289.894 233.932 290.184 234.315 290.574C234.697 290.96 234.888 291.458 234.888 292.068C234.888 292.568 234.745 293.015 234.457 293.409C234.173 293.803 233.775 294.114 233.263 294.341C232.752 294.568 232.157 294.682 231.479 294.682C230.589 294.682 229.853 294.489 229.269 294.102C228.686 293.716 228.317 293.152 228.161 292.409L229.434 292.091C229.555 292.561 229.784 292.913 230.121 293.148C230.462 293.383 230.907 293.5 231.457 293.5C232.082 293.5 232.578 293.367 232.945 293.102C233.317 292.833 233.502 292.511 233.502 292.136C233.502 291.833 233.396 291.58 233.184 291.375C232.972 291.167 232.646 291.011 232.207 290.909L230.752 290.568C229.953 290.379 229.366 290.085 228.991 289.688C228.62 289.286 228.434 288.784 228.434 288.182C228.434 287.689 228.572 287.254 228.849 286.875C229.129 286.496 229.51 286.199 229.991 285.983C230.476 285.767 231.025 285.659 231.638 285.659C232.502 285.659 233.18 285.848 233.673 286.227C234.169 286.606 234.521 287.106 234.729 287.727ZM240.702 285.773V286.909H236.18V285.773H240.702ZM237.498 283.682H238.839V292C238.839 292.379 238.894 292.663 239.004 292.852C239.117 293.038 239.261 293.163 239.435 293.227C239.613 293.288 239.801 293.318 239.998 293.318C240.146 293.318 240.267 293.311 240.362 293.295C240.456 293.277 240.532 293.261 240.589 293.25L240.862 294.455C240.771 294.489 240.644 294.523 240.481 294.557C240.318 294.595 240.112 294.614 239.862 294.614C239.483 294.614 239.112 294.532 238.748 294.369C238.388 294.206 238.089 293.958 237.85 293.625C237.615 293.292 237.498 292.871 237.498 292.364V283.682ZM246.171 294.682C245.383 294.682 244.692 294.494 244.097 294.119C243.506 293.744 243.044 293.22 242.711 292.545C242.381 291.871 242.217 291.083 242.217 290.182C242.217 289.273 242.381 288.479 242.711 287.801C243.044 287.123 243.506 286.597 244.097 286.222C244.692 285.847 245.383 285.659 246.171 285.659C246.959 285.659 247.648 285.847 248.239 286.222C248.834 286.597 249.296 287.123 249.626 287.801C249.959 288.479 250.126 289.273 250.126 290.182C250.126 291.083 249.959 291.871 249.626 292.545C249.296 293.22 248.834 293.744 248.239 294.119C247.648 294.494 246.959 294.682 246.171 294.682ZM246.171 293.477C246.77 293.477 247.262 293.324 247.648 293.017C248.035 292.71 248.321 292.307 248.506 291.807C248.692 291.307 248.785 290.765 248.785 290.182C248.785 289.598 248.692 289.055 248.506 288.551C248.321 288.047 248.035 287.64 247.648 287.33C247.262 287.019 246.77 286.864 246.171 286.864C245.573 286.864 245.08 287.019 244.694 287.33C244.308 287.64 244.022 288.047 243.836 288.551C243.65 289.055 243.558 289.598 243.558 290.182C243.558 290.765 243.65 291.307 243.836 291.807C244.022 292.307 244.308 292.71 244.694 293.017C245.08 293.324 245.573 293.477 246.171 293.477ZM252.173 294.5V285.773H253.468V287.136H253.582C253.763 286.67 254.057 286.309 254.462 286.051C254.868 285.79 255.354 285.659 255.923 285.659C256.498 285.659 256.978 285.79 257.36 286.051C257.746 286.309 258.048 286.67 258.263 287.136H258.354C258.578 286.686 258.913 286.328 259.36 286.062C259.807 285.794 260.343 285.659 260.968 285.659C261.748 285.659 262.387 285.903 262.883 286.392C263.379 286.877 263.627 287.633 263.627 288.659V294.5H262.286V288.659C262.286 288.015 262.11 287.555 261.758 287.278C261.406 287.002 260.991 286.864 260.513 286.864C259.9 286.864 259.424 287.049 259.087 287.42C258.75 287.788 258.582 288.254 258.582 288.818V294.5H257.218V288.523C257.218 288.027 257.057 287.627 256.735 287.324C256.413 287.017 255.998 286.864 255.491 286.864C255.142 286.864 254.817 286.956 254.513 287.142C254.214 287.328 253.972 287.585 253.786 287.915C253.604 288.241 253.513 288.617 253.513 289.045V294.5H252.173ZM270.579 297.773V285.773H271.874V287.159H272.033C272.132 287.008 272.268 286.814 272.442 286.58C272.621 286.341 272.874 286.129 273.204 285.943C273.537 285.754 273.988 285.659 274.556 285.659C275.291 285.659 275.939 285.843 276.499 286.21C277.06 286.578 277.497 287.098 277.812 287.773C278.126 288.447 278.283 289.242 278.283 290.159C278.283 291.083 278.126 291.884 277.812 292.562C277.497 293.237 277.062 293.759 276.505 294.131C275.948 294.498 275.306 294.682 274.579 294.682C274.018 294.682 273.569 294.589 273.232 294.403C272.895 294.214 272.636 294 272.454 293.761C272.272 293.519 272.132 293.318 272.033 293.159H271.92V297.773H270.579ZM271.897 290.136C271.897 290.795 271.994 291.377 272.187 291.881C272.38 292.381 272.662 292.773 273.033 293.057C273.405 293.337 273.859 293.477 274.397 293.477C274.958 293.477 275.425 293.33 275.8 293.034C276.179 292.735 276.463 292.333 276.653 291.83C276.846 291.322 276.942 290.758 276.942 290.136C276.942 289.523 276.848 288.97 276.658 288.477C276.473 287.981 276.191 287.589 275.812 287.301C275.437 287.009 274.965 286.864 274.397 286.864C273.852 286.864 273.393 287.002 273.022 287.278C272.651 287.551 272.371 287.934 272.181 288.426C271.992 288.915 271.897 289.485 271.897 290.136ZM282.897 294.705C282.344 294.705 281.842 294.6 281.391 294.392C280.941 294.18 280.583 293.875 280.317 293.477C280.052 293.076 279.92 292.591 279.92 292.023C279.92 291.523 280.018 291.117 280.215 290.807C280.412 290.492 280.675 290.246 281.005 290.068C281.335 289.89 281.698 289.758 282.096 289.67C282.497 289.58 282.901 289.508 283.306 289.455C283.836 289.386 284.266 289.335 284.596 289.301C284.929 289.263 285.172 289.201 285.323 289.114C285.478 289.027 285.556 288.875 285.556 288.659V288.614C285.556 288.053 285.403 287.617 285.096 287.307C284.793 286.996 284.333 286.841 283.715 286.841C283.075 286.841 282.573 286.981 282.21 287.261C281.846 287.542 281.59 287.841 281.442 288.159L280.17 287.705C280.397 287.174 280.7 286.761 281.079 286.466C281.461 286.167 281.878 285.958 282.329 285.841C282.783 285.72 283.23 285.659 283.67 285.659C283.95 285.659 284.272 285.693 284.636 285.761C285.003 285.826 285.357 285.96 285.698 286.165C286.043 286.369 286.329 286.678 286.556 287.091C286.783 287.504 286.897 288.057 286.897 288.75V294.5H285.556V293.318H285.488C285.397 293.508 285.246 293.71 285.033 293.926C284.821 294.142 284.539 294.326 284.187 294.477C283.835 294.629 283.405 294.705 282.897 294.705ZM283.102 293.5C283.632 293.5 284.079 293.396 284.442 293.188C284.81 292.979 285.086 292.71 285.272 292.381C285.461 292.051 285.556 291.705 285.556 291.341V290.114C285.499 290.182 285.374 290.244 285.181 290.301C284.992 290.354 284.772 290.402 284.522 290.443C284.276 290.481 284.035 290.515 283.8 290.545C283.569 290.572 283.382 290.595 283.238 290.614C282.889 290.659 282.564 290.733 282.261 290.835C281.961 290.934 281.719 291.083 281.533 291.284C281.352 291.481 281.261 291.75 281.261 292.091C281.261 292.557 281.433 292.909 281.778 293.148C282.126 293.383 282.567 293.5 283.102 293.5ZM292.89 294.682C292.072 294.682 291.367 294.489 290.776 294.102C290.185 293.716 289.731 293.184 289.413 292.506C289.094 291.828 288.935 291.053 288.935 290.182C288.935 289.295 289.098 288.513 289.424 287.835C289.754 287.153 290.212 286.621 290.799 286.239C291.39 285.852 292.079 285.659 292.867 285.659C293.481 285.659 294.034 285.773 294.526 286C295.019 286.227 295.422 286.545 295.737 286.955C296.051 287.364 296.246 287.841 296.322 288.386H294.981C294.879 287.989 294.651 287.636 294.299 287.33C293.951 287.019 293.481 286.864 292.89 286.864C292.367 286.864 291.909 287 291.515 287.273C291.125 287.542 290.82 287.922 290.6 288.415C290.384 288.903 290.276 289.477 290.276 290.136C290.276 290.811 290.382 291.398 290.594 291.898C290.81 292.398 291.113 292.786 291.504 293.062C291.897 293.339 292.36 293.477 292.89 293.477C293.238 293.477 293.555 293.417 293.839 293.295C294.123 293.174 294.363 293 294.56 292.773C294.757 292.545 294.897 292.273 294.981 291.955H296.322C296.246 292.47 296.058 292.934 295.759 293.347C295.464 293.756 295.072 294.081 294.583 294.324C294.098 294.562 293.534 294.682 292.89 294.682ZM299.532 291.318L299.509 289.659H299.782L303.6 285.773H305.259L301.191 289.886H301.077L299.532 291.318ZM298.282 294.5V282.864H299.623V294.5H298.282ZM303.827 294.5L300.418 290.182L301.373 289.25L305.532 294.5H303.827ZM309.553 294.705C309 294.705 308.498 294.6 308.048 294.392C307.597 294.18 307.239 293.875 306.974 293.477C306.709 293.076 306.576 292.591 306.576 292.023C306.576 291.523 306.674 291.117 306.871 290.807C307.068 290.492 307.332 290.246 307.661 290.068C307.991 289.89 308.354 289.758 308.752 289.67C309.154 289.58 309.557 289.508 309.962 289.455C310.493 289.386 310.923 289.335 311.252 289.301C311.585 289.263 311.828 289.201 311.979 289.114C312.135 289.027 312.212 288.875 312.212 288.659V288.614C312.212 288.053 312.059 287.617 311.752 287.307C311.449 286.996 310.989 286.841 310.371 286.841C309.731 286.841 309.229 286.981 308.866 287.261C308.502 287.542 308.246 287.841 308.099 288.159L306.826 287.705C307.053 287.174 307.356 286.761 307.735 286.466C308.118 286.167 308.534 285.958 308.985 285.841C309.44 285.72 309.887 285.659 310.326 285.659C310.606 285.659 310.928 285.693 311.292 285.761C311.659 285.826 312.013 285.96 312.354 286.165C312.699 286.369 312.985 286.678 313.212 287.091C313.44 287.504 313.553 288.057 313.553 288.75V294.5H312.212V293.318H312.144C312.053 293.508 311.902 293.71 311.69 293.926C311.478 294.142 311.195 294.326 310.843 294.477C310.491 294.629 310.061 294.705 309.553 294.705ZM309.758 293.5C310.288 293.5 310.735 293.396 311.099 293.188C311.466 292.979 311.743 292.71 311.928 292.381C312.118 292.051 312.212 291.705 312.212 291.341V290.114C312.156 290.182 312.031 290.244 311.837 290.301C311.648 290.354 311.428 290.402 311.178 290.443C310.932 290.481 310.692 290.515 310.457 290.545C310.226 290.572 310.038 290.595 309.894 290.614C309.546 290.659 309.22 290.733 308.917 290.835C308.618 290.934 308.375 291.083 308.19 291.284C308.008 291.481 307.917 291.75 307.917 292.091C307.917 292.557 308.089 292.909 308.434 293.148C308.782 293.383 309.224 293.5 309.758 293.5ZM319.523 297.955C318.876 297.955 318.319 297.871 317.853 297.705C317.387 297.542 316.999 297.326 316.688 297.057C316.381 296.792 316.137 296.508 315.955 296.205L317.023 295.455C317.145 295.614 317.298 295.795 317.484 296C317.669 296.208 317.923 296.388 318.245 296.54C318.571 296.695 318.997 296.773 319.523 296.773C320.228 296.773 320.809 296.602 321.268 296.261C321.726 295.92 321.955 295.386 321.955 294.659V292.886H321.842C321.743 293.045 321.603 293.242 321.421 293.477C321.243 293.708 320.986 293.915 320.648 294.097C320.315 294.275 319.864 294.364 319.296 294.364C318.592 294.364 317.959 294.197 317.398 293.864C316.842 293.53 316.4 293.045 316.075 292.409C315.753 291.773 315.592 291 315.592 290.091C315.592 289.197 315.749 288.419 316.063 287.756C316.378 287.089 316.815 286.574 317.376 286.21C317.936 285.843 318.584 285.659 319.319 285.659C319.887 285.659 320.338 285.754 320.671 285.943C321.008 286.129 321.266 286.341 321.444 286.58C321.626 286.814 321.766 287.008 321.864 287.159H322.001V285.773H323.296V294.75C323.296 295.5 323.126 296.11 322.785 296.58C322.448 297.053 321.993 297.4 321.421 297.619C320.853 297.843 320.22 297.955 319.523 297.955ZM319.478 293.159C320.016 293.159 320.47 293.036 320.842 292.79C321.213 292.544 321.495 292.189 321.688 291.727C321.881 291.265 321.978 290.712 321.978 290.068C321.978 289.439 321.883 288.884 321.694 288.403C321.504 287.922 321.224 287.545 320.853 287.273C320.482 287 320.023 286.864 319.478 286.864C318.91 286.864 318.436 287.008 318.058 287.295C317.683 287.583 317.4 287.97 317.211 288.455C317.025 288.939 316.933 289.477 316.933 290.068C316.933 290.674 317.027 291.21 317.217 291.676C317.41 292.138 317.694 292.502 318.069 292.767C318.448 293.028 318.917 293.159 319.478 293.159ZM325.751 294.5V285.773H327.092V294.5H325.751ZM326.433 284.318C326.171 284.318 325.946 284.229 325.756 284.051C325.571 283.873 325.478 283.659 325.478 283.409C325.478 283.159 325.571 282.945 325.756 282.767C325.946 282.589 326.171 282.5 326.433 282.5C326.694 282.5 326.917 282.589 327.103 282.767C327.292 282.945 327.387 283.159 327.387 283.409C327.387 283.659 327.292 283.873 327.103 284.051C326.917 284.229 326.694 284.318 326.433 284.318ZM330.888 289.25V294.5H329.548V285.773H330.843V287.136H330.957C331.161 286.693 331.472 286.337 331.888 286.068C332.305 285.795 332.843 285.659 333.502 285.659C334.093 285.659 334.61 285.78 335.053 286.023C335.496 286.261 335.841 286.625 336.087 287.114C336.334 287.598 336.457 288.212 336.457 288.955V294.5H335.116V289.045C335.116 288.36 334.938 287.826 334.582 287.443C334.226 287.057 333.737 286.864 333.116 286.864C332.688 286.864 332.305 286.956 331.968 287.142C331.635 287.328 331.371 287.598 331.178 287.955C330.985 288.311 330.888 288.742 330.888 289.25ZM342.43 297.955C341.782 297.955 341.225 297.871 340.759 297.705C340.293 297.542 339.905 297.326 339.594 297.057C339.288 296.792 339.043 296.508 338.862 296.205L339.93 295.455C340.051 295.614 340.204 295.795 340.39 296C340.576 296.208 340.829 296.388 341.151 296.54C341.477 296.695 341.903 296.773 342.43 296.773C343.134 296.773 343.716 296.602 344.174 296.261C344.632 295.92 344.862 295.386 344.862 294.659V292.886H344.748C344.649 293.045 344.509 293.242 344.327 293.477C344.149 293.708 343.892 293.915 343.555 294.097C343.221 294.275 342.771 294.364 342.202 294.364C341.498 294.364 340.865 294.197 340.305 293.864C339.748 293.53 339.307 293.045 338.981 292.409C338.659 291.773 338.498 291 338.498 290.091C338.498 289.197 338.655 288.419 338.969 287.756C339.284 287.089 339.721 286.574 340.282 286.21C340.843 285.843 341.49 285.659 342.225 285.659C342.793 285.659 343.244 285.754 343.577 285.943C343.915 286.129 344.172 286.341 344.35 286.58C344.532 286.814 344.672 287.008 344.771 287.159H344.907V285.773H346.202V294.75C346.202 295.5 346.032 296.11 345.691 296.58C345.354 297.053 344.899 297.4 344.327 297.619C343.759 297.843 343.127 297.955 342.43 297.955ZM342.384 293.159C342.922 293.159 343.377 293.036 343.748 292.79C344.119 292.544 344.401 292.189 344.594 291.727C344.788 291.265 344.884 290.712 344.884 290.068C344.884 289.439 344.79 288.884 344.6 288.403C344.411 287.922 344.13 287.545 343.759 287.273C343.388 287 342.93 286.864 342.384 286.864C341.816 286.864 341.343 287.008 340.964 287.295C340.589 287.583 340.307 287.97 340.117 288.455C339.932 288.939 339.839 289.477 339.839 290.068C339.839 290.674 339.933 291.21 340.123 291.676C340.316 292.138 340.6 292.502 340.975 292.767C341.354 293.028 341.824 293.159 342.384 293.159ZM359.339 287.727L358.134 288.068C358.058 287.867 357.947 287.672 357.799 287.483C357.655 287.29 357.458 287.131 357.208 287.006C356.958 286.881 356.638 286.818 356.248 286.818C355.714 286.818 355.269 286.941 354.913 287.188C354.56 287.43 354.384 287.739 354.384 288.114C354.384 288.447 354.505 288.71 354.748 288.903C354.99 289.097 355.369 289.258 355.884 289.386L357.18 289.705C357.96 289.894 358.541 290.184 358.924 290.574C359.307 290.96 359.498 291.458 359.498 292.068C359.498 292.568 359.354 293.015 359.066 293.409C358.782 293.803 358.384 294.114 357.873 294.341C357.362 294.568 356.767 294.682 356.089 294.682C355.199 294.682 354.462 294.489 353.879 294.102C353.295 293.716 352.926 293.152 352.771 292.409L354.043 292.091C354.165 292.561 354.394 292.913 354.731 293.148C355.072 293.383 355.517 293.5 356.066 293.5C356.691 293.5 357.187 293.367 357.555 293.102C357.926 292.833 358.112 292.511 358.112 292.136C358.112 291.833 358.005 291.58 357.793 291.375C357.581 291.167 357.255 291.011 356.816 290.909L355.362 290.568C354.562 290.379 353.975 290.085 353.6 289.688C353.229 289.286 353.043 288.784 353.043 288.182C353.043 287.689 353.182 287.254 353.458 286.875C353.738 286.496 354.119 286.199 354.6 285.983C355.085 285.767 355.634 285.659 356.248 285.659C357.112 285.659 357.79 285.848 358.282 286.227C358.778 286.606 359.13 287.106 359.339 287.727ZM365.062 294.682C364.274 294.682 363.583 294.494 362.988 294.119C362.397 293.744 361.935 293.22 361.602 292.545C361.272 291.871 361.107 291.083 361.107 290.182C361.107 289.273 361.272 288.479 361.602 287.801C361.935 287.123 362.397 286.597 362.988 286.222C363.583 285.847 364.274 285.659 365.062 285.659C365.85 285.659 366.539 285.847 367.13 286.222C367.725 286.597 368.187 287.123 368.516 287.801C368.85 288.479 369.016 289.273 369.016 290.182C369.016 291.083 368.85 291.871 368.516 292.545C368.187 293.22 367.725 293.744 367.13 294.119C366.539 294.494 365.85 294.682 365.062 294.682ZM365.062 293.477C365.66 293.477 366.153 293.324 366.539 293.017C366.925 292.71 367.211 292.307 367.397 291.807C367.583 291.307 367.675 290.765 367.675 290.182C367.675 289.598 367.583 289.055 367.397 288.551C367.211 288.047 366.925 287.64 366.539 287.33C366.153 287.019 365.66 286.864 365.062 286.864C364.463 286.864 363.971 287.019 363.585 287.33C363.198 287.64 362.912 288.047 362.727 288.551C362.541 289.055 362.448 289.598 362.448 290.182C362.448 290.765 362.541 291.307 362.727 291.807C362.912 292.307 363.198 292.71 363.585 293.017C363.971 293.324 364.463 293.477 365.062 293.477ZM372.404 282.864V294.5H371.063V282.864H372.404ZM380.36 290.932V285.773H381.701V294.5H380.36V293.023H380.269C380.065 293.466 379.746 293.843 379.315 294.153C378.883 294.46 378.337 294.614 377.678 294.614C377.133 294.614 376.648 294.494 376.224 294.256C375.799 294.013 375.466 293.65 375.224 293.165C374.981 292.676 374.86 292.061 374.86 291.318V285.773H376.201V291.227C376.201 291.864 376.379 292.371 376.735 292.75C377.095 293.129 377.553 293.318 378.11 293.318C378.443 293.318 378.782 293.233 379.127 293.062C379.476 292.892 379.767 292.631 380.002 292.278C380.241 291.926 380.36 291.477 380.36 290.932ZM387.952 285.773V286.909H383.43V285.773H387.952ZM384.748 283.682H386.089V292C386.089 292.379 386.144 292.663 386.254 292.852C386.367 293.038 386.511 293.163 386.685 293.227C386.863 293.288 387.051 293.318 387.248 293.318C387.396 293.318 387.517 293.311 387.612 293.295C387.706 293.277 387.782 293.261 387.839 293.25L388.112 294.455C388.021 294.489 387.894 294.523 387.731 294.557C387.568 294.595 387.362 294.614 387.112 294.614C386.733 294.614 386.362 294.532 385.998 294.369C385.638 294.206 385.339 293.958 385.1 293.625C384.865 293.292 384.748 292.871 384.748 292.364V283.682ZM389.969 294.5V285.773H391.31V294.5H389.969ZM390.651 284.318C390.39 284.318 390.165 284.229 389.975 284.051C389.79 283.873 389.697 283.659 389.697 283.409C389.697 283.159 389.79 282.945 389.975 282.767C390.165 282.589 390.39 282.5 390.651 282.5C390.913 282.5 391.136 282.589 391.322 282.767C391.511 282.945 391.606 283.159 391.606 283.409C391.606 283.659 391.511 283.873 391.322 284.051C391.136 284.229 390.913 284.318 390.651 284.318ZM397.312 294.682C396.524 294.682 395.833 294.494 395.238 294.119C394.647 293.744 394.185 293.22 393.852 292.545C393.522 291.871 393.357 291.083 393.357 290.182C393.357 289.273 393.522 288.479 393.852 287.801C394.185 287.123 394.647 286.597 395.238 286.222C395.833 285.847 396.524 285.659 397.312 285.659C398.1 285.659 398.789 285.847 399.38 286.222C399.975 286.597 400.437 287.123 400.766 287.801C401.1 288.479 401.266 289.273 401.266 290.182C401.266 291.083 401.1 291.871 400.766 292.545C400.437 293.22 399.975 293.744 399.38 294.119C398.789 294.494 398.1 294.682 397.312 294.682ZM397.312 293.477C397.91 293.477 398.403 293.324 398.789 293.017C399.175 292.71 399.461 292.307 399.647 291.807C399.833 291.307 399.925 290.765 399.925 290.182C399.925 289.598 399.833 289.055 399.647 288.551C399.461 288.047 399.175 287.64 398.789 287.33C398.403 287.019 397.91 286.864 397.312 286.864C396.713 286.864 396.221 287.019 395.835 287.33C395.448 287.64 395.162 288.047 394.977 288.551C394.791 289.055 394.698 289.598 394.698 290.182C394.698 290.765 394.791 291.307 394.977 291.807C395.162 292.307 395.448 292.71 395.835 293.017C396.221 293.324 396.713 293.477 397.312 293.477ZM404.654 289.25V294.5H403.313V285.773H404.609V287.136H404.722C404.927 286.693 405.237 286.337 405.654 286.068C406.071 285.795 406.609 285.659 407.268 285.659C407.859 285.659 408.376 285.78 408.819 286.023C409.262 286.261 409.607 286.625 409.853 287.114C410.099 287.598 410.222 288.212 410.222 288.955V294.5H408.881V289.045C408.881 288.36 408.703 287.826 408.347 287.443C407.991 287.057 407.503 286.864 406.881 286.864C406.453 286.864 406.071 286.956 405.734 287.142C405.4 287.328 405.137 287.598 404.944 287.955C404.751 288.311 404.654 288.742 404.654 289.25ZM418.854 287.727L417.65 288.068C417.574 287.867 417.462 287.672 417.315 287.483C417.171 287.29 416.974 287.131 416.724 287.006C416.474 286.881 416.154 286.818 415.763 286.818C415.229 286.818 414.784 286.941 414.428 287.188C414.076 287.43 413.9 287.739 413.9 288.114C413.9 288.447 414.021 288.71 414.263 288.903C414.506 289.097 414.885 289.258 415.4 289.386L416.695 289.705C417.476 289.894 418.057 290.184 418.44 290.574C418.822 290.96 419.013 291.458 419.013 292.068C419.013 292.568 418.87 293.015 418.582 293.409C418.298 293.803 417.9 294.114 417.388 294.341C416.877 294.568 416.282 294.682 415.604 294.682C414.714 294.682 413.978 294.489 413.394 294.102C412.811 293.716 412.442 293.152 412.286 292.409L413.559 292.091C413.68 292.561 413.909 292.913 414.246 293.148C414.587 293.383 415.032 293.5 415.582 293.5C416.207 293.5 416.703 293.367 417.07 293.102C417.442 292.833 417.627 292.511 417.627 292.136C417.627 291.833 417.521 291.58 417.309 291.375C417.097 291.167 416.771 291.011 416.332 290.909L414.877 290.568C414.078 290.379 413.491 290.085 413.116 289.688C412.745 289.286 412.559 288.784 412.559 288.182C412.559 287.689 412.697 287.254 412.974 286.875C413.254 286.496 413.635 286.199 414.116 285.983C414.601 285.767 415.15 285.659 415.763 285.659C416.627 285.659 417.305 285.848 417.798 286.227C418.294 286.606 418.646 287.106 418.854 287.727ZM429.327 285.773V286.909H424.805V285.773H429.327ZM426.123 283.682H427.464V292C427.464 292.379 427.519 292.663 427.629 292.852C427.742 293.038 427.886 293.163 428.06 293.227C428.238 293.288 428.426 293.318 428.623 293.318C428.771 293.318 428.892 293.311 428.987 293.295C429.081 293.277 429.157 293.261 429.214 293.25L429.487 294.455C429.396 294.489 429.269 294.523 429.106 294.557C428.943 294.595 428.737 294.614 428.487 294.614C428.108 294.614 427.737 294.532 427.373 294.369C427.013 294.206 426.714 293.958 426.475 293.625C426.24 293.292 426.123 292.871 426.123 292.364V283.682ZM432.873 289.25V294.5H431.532V282.864H432.873V287.136H432.987C433.191 286.686 433.498 286.328 433.907 286.062C434.32 285.794 434.869 285.659 435.555 285.659C436.149 285.659 436.67 285.778 437.117 286.017C437.564 286.252 437.911 286.614 438.157 287.102C438.407 287.587 438.532 288.205 438.532 288.955V294.5H437.191V289.045C437.191 288.352 437.011 287.816 436.651 287.438C436.295 287.055 435.801 286.864 435.168 286.864C434.729 286.864 434.335 286.956 433.987 287.142C433.642 287.328 433.369 287.598 433.168 287.955C432.971 288.311 432.873 288.742 432.873 289.25ZM443.553 294.705C443 294.705 442.498 294.6 442.048 294.392C441.597 294.18 441.239 293.875 440.974 293.477C440.709 293.076 440.576 292.591 440.576 292.023C440.576 291.523 440.674 291.117 440.871 290.807C441.068 290.492 441.332 290.246 441.661 290.068C441.991 289.89 442.354 289.758 442.752 289.67C443.154 289.58 443.557 289.508 443.962 289.455C444.493 289.386 444.923 289.335 445.252 289.301C445.585 289.263 445.828 289.201 445.979 289.114C446.135 289.027 446.212 288.875 446.212 288.659V288.614C446.212 288.053 446.059 287.617 445.752 287.307C445.449 286.996 444.989 286.841 444.371 286.841C443.731 286.841 443.229 286.981 442.866 287.261C442.502 287.542 442.246 287.841 442.099 288.159L440.826 287.705C441.053 287.174 441.356 286.761 441.735 286.466C442.118 286.167 442.534 285.958 442.985 285.841C443.44 285.72 443.887 285.659 444.326 285.659C444.606 285.659 444.928 285.693 445.292 285.761C445.659 285.826 446.013 285.96 446.354 286.165C446.699 286.369 446.985 286.678 447.212 287.091C447.44 287.504 447.553 288.057 447.553 288.75V294.5H446.212V293.318H446.144C446.053 293.508 445.902 293.71 445.69 293.926C445.478 294.142 445.195 294.326 444.843 294.477C444.491 294.629 444.061 294.705 443.553 294.705ZM443.758 293.5C444.288 293.5 444.735 293.396 445.099 293.188C445.466 292.979 445.743 292.71 445.928 292.381C446.118 292.051 446.212 291.705 446.212 291.341V290.114C446.156 290.182 446.031 290.244 445.837 290.301C445.648 290.354 445.428 290.402 445.178 290.443C444.932 290.481 444.692 290.515 444.457 290.545C444.226 290.572 444.038 290.595 443.894 290.614C443.546 290.659 443.22 290.733 442.917 290.835C442.618 290.934 442.375 291.083 442.19 291.284C442.008 291.481 441.917 291.75 441.917 292.091C441.917 292.557 442.089 292.909 442.434 293.148C442.782 293.383 443.224 293.5 443.758 293.5ZM453.796 285.773V286.909H449.273V285.773H453.796ZM450.592 283.682H451.933V292C451.933 292.379 451.987 292.663 452.097 292.852C452.211 293.038 452.355 293.163 452.529 293.227C452.707 293.288 452.895 293.318 453.092 293.318C453.239 293.318 453.361 293.311 453.455 293.295C453.55 293.277 453.626 293.261 453.683 293.25L453.955 294.455C453.864 294.489 453.737 294.523 453.575 294.557C453.412 294.595 453.205 294.614 452.955 294.614C452.576 294.614 452.205 294.532 451.842 294.369C451.482 294.206 451.183 293.958 450.944 293.625C450.709 293.292 450.592 292.871 450.592 292.364V283.682ZM160.065 311.727L158.861 312.068C158.785 311.867 158.673 311.672 158.526 311.483C158.382 311.29 158.185 311.131 157.935 311.006C157.685 310.881 157.365 310.818 156.974 310.818C156.44 310.818 155.995 310.941 155.639 311.188C155.287 311.43 155.111 311.739 155.111 312.114C155.111 312.447 155.232 312.71 155.474 312.903C155.717 313.097 156.096 313.258 156.611 313.386L157.906 313.705C158.687 313.894 159.268 314.184 159.651 314.574C160.033 314.96 160.224 315.458 160.224 316.068C160.224 316.568 160.08 317.015 159.793 317.409C159.509 317.803 159.111 318.114 158.599 318.341C158.088 318.568 157.493 318.682 156.815 318.682C155.925 318.682 155.188 318.489 154.605 318.102C154.022 317.716 153.652 317.152 153.497 316.409L154.77 316.091C154.891 316.561 155.12 316.913 155.457 317.148C155.798 317.383 156.243 317.5 156.793 317.5C157.418 317.5 157.914 317.367 158.281 317.102C158.652 316.833 158.838 316.511 158.838 316.136C158.838 315.833 158.732 315.58 158.52 315.375C158.308 315.167 157.982 315.011 157.543 314.909L156.088 314.568C155.289 314.379 154.702 314.085 154.327 313.688C153.955 313.286 153.77 312.784 153.77 312.182C153.77 311.689 153.908 311.254 154.185 310.875C154.465 310.496 154.846 310.199 155.327 309.983C155.812 309.767 156.361 309.659 156.974 309.659C157.838 309.659 158.516 309.848 159.009 310.227C159.505 310.606 159.857 311.106 160.065 311.727ZM166.038 309.773V310.909H161.516V309.773H166.038ZM162.834 307.682H164.175V316C164.175 316.379 164.23 316.663 164.339 316.852C164.453 317.038 164.597 317.163 164.771 317.227C164.949 317.288 165.137 317.318 165.334 317.318C165.482 317.318 165.603 317.311 165.697 317.295C165.792 317.277 165.868 317.261 165.925 317.25L166.197 318.455C166.107 318.489 165.98 318.523 165.817 318.557C165.654 318.595 165.447 318.614 165.197 318.614C164.819 318.614 164.447 318.532 164.084 318.369C163.724 318.206 163.425 317.958 163.186 317.625C162.951 317.292 162.834 316.871 162.834 316.364V307.682ZM170.624 318.705C170.071 318.705 169.569 318.6 169.118 318.392C168.667 318.18 168.309 317.875 168.044 317.477C167.779 317.076 167.646 316.591 167.646 316.023C167.646 315.523 167.745 315.117 167.942 314.807C168.139 314.492 168.402 314.246 168.732 314.068C169.061 313.89 169.425 313.758 169.822 313.67C170.224 313.58 170.627 313.508 171.033 313.455C171.563 313.386 171.993 313.335 172.322 313.301C172.656 313.263 172.898 313.201 173.05 313.114C173.205 313.027 173.283 312.875 173.283 312.659V312.614C173.283 312.053 173.129 311.617 172.822 311.307C172.519 310.996 172.059 310.841 171.442 310.841C170.802 310.841 170.3 310.981 169.936 311.261C169.572 311.542 169.317 311.841 169.169 312.159L167.896 311.705C168.124 311.174 168.427 310.761 168.805 310.466C169.188 310.167 169.605 309.958 170.055 309.841C170.51 309.72 170.957 309.659 171.396 309.659C171.677 309.659 171.999 309.693 172.362 309.761C172.73 309.826 173.084 309.96 173.425 310.165C173.769 310.369 174.055 310.678 174.283 311.091C174.51 311.504 174.624 312.057 174.624 312.75V318.5H173.283V317.318H173.214C173.124 317.508 172.972 317.71 172.76 317.926C172.548 318.142 172.266 318.326 171.913 318.477C171.561 318.629 171.131 318.705 170.624 318.705ZM170.828 317.5C171.358 317.5 171.805 317.396 172.169 317.188C172.536 316.979 172.813 316.71 172.999 316.381C173.188 316.051 173.283 315.705 173.283 315.341V314.114C173.226 314.182 173.101 314.244 172.908 314.301C172.718 314.354 172.499 314.402 172.249 314.443C172.002 314.481 171.762 314.515 171.527 314.545C171.296 314.572 171.108 314.595 170.964 314.614C170.616 314.659 170.29 314.733 169.987 314.835C169.688 314.934 169.446 315.083 169.26 315.284C169.078 315.481 168.987 315.75 168.987 316.091C168.987 316.557 169.16 316.909 169.504 317.148C169.853 317.383 170.294 317.5 170.828 317.5ZM178.412 313.25V318.5H177.071V309.773H178.366V311.136H178.48C178.685 310.693 178.995 310.337 179.412 310.068C179.829 309.795 180.366 309.659 181.026 309.659C181.616 309.659 182.134 309.78 182.577 310.023C183.02 310.261 183.365 310.625 183.611 311.114C183.857 311.598 183.98 312.212 183.98 312.955V318.5H182.639V313.045C182.639 312.36 182.461 311.826 182.105 311.443C181.749 311.057 181.26 310.864 180.639 310.864C180.211 310.864 179.829 310.956 179.491 311.142C179.158 311.328 178.895 311.598 178.702 311.955C178.509 312.311 178.412 312.742 178.412 313.25ZM189.726 318.682C188.999 318.682 188.357 318.498 187.8 318.131C187.243 317.759 186.807 317.237 186.493 316.562C186.179 315.884 186.021 315.083 186.021 314.159C186.021 313.242 186.179 312.447 186.493 311.773C186.807 311.098 187.245 310.578 187.805 310.21C188.366 309.843 189.014 309.659 189.749 309.659C190.317 309.659 190.766 309.754 191.095 309.943C191.429 310.129 191.682 310.341 191.857 310.58C192.035 310.814 192.173 311.008 192.271 311.159H192.385V306.864H193.726V318.5H192.43V317.159H192.271C192.173 317.318 192.033 317.519 191.851 317.761C191.669 318 191.41 318.214 191.072 318.403C190.735 318.589 190.286 318.682 189.726 318.682ZM189.908 317.477C190.446 317.477 190.9 317.337 191.271 317.057C191.643 316.773 191.925 316.381 192.118 315.881C192.311 315.377 192.408 314.795 192.408 314.136C192.408 313.485 192.313 312.915 192.124 312.426C191.934 311.934 191.654 311.551 191.283 311.278C190.911 311.002 190.453 310.864 189.908 310.864C189.339 310.864 188.866 311.009 188.487 311.301C188.112 311.589 187.83 311.981 187.641 312.477C187.455 312.97 187.362 313.523 187.362 314.136C187.362 314.758 187.457 315.322 187.646 315.83C187.839 316.333 188.124 316.735 188.499 317.034C188.877 317.33 189.347 317.477 189.908 317.477ZM204.413 318.682C203.625 318.682 202.934 318.494 202.339 318.119C201.749 317.744 201.286 317.22 200.953 316.545C200.624 315.871 200.459 315.083 200.459 314.182C200.459 313.273 200.624 312.479 200.953 311.801C201.286 311.123 201.749 310.597 202.339 310.222C202.934 309.847 203.625 309.659 204.413 309.659C205.201 309.659 205.891 309.847 206.482 310.222C207.076 310.597 207.538 311.123 207.868 311.801C208.201 312.479 208.368 313.273 208.368 314.182C208.368 315.083 208.201 315.871 207.868 316.545C207.538 317.22 207.076 317.744 206.482 318.119C205.891 318.494 205.201 318.682 204.413 318.682ZM204.413 317.477C205.012 317.477 205.504 317.324 205.891 317.017C206.277 316.71 206.563 316.307 206.749 315.807C206.934 315.307 207.027 314.765 207.027 314.182C207.027 313.598 206.934 313.055 206.749 312.551C206.563 312.047 206.277 311.64 205.891 311.33C205.504 311.019 205.012 310.864 204.413 310.864C203.815 310.864 203.322 311.019 202.936 311.33C202.55 311.64 202.264 312.047 202.078 312.551C201.893 313.055 201.8 313.598 201.8 314.182C201.8 314.765 201.893 315.307 202.078 315.807C202.264 316.307 202.55 316.71 202.936 317.017C203.322 317.324 203.815 317.477 204.413 317.477ZM215.915 314.932V309.773H217.256V318.5H215.915V317.023H215.824C215.619 317.466 215.301 317.843 214.869 318.153C214.438 318.46 213.892 318.614 213.233 318.614C212.688 318.614 212.203 318.494 211.778 318.256C211.354 318.013 211.021 317.65 210.778 317.165C210.536 316.676 210.415 316.061 210.415 315.318V309.773H211.756V315.227C211.756 315.864 211.934 316.371 212.29 316.75C212.65 317.129 213.108 317.318 213.665 317.318C213.998 317.318 214.337 317.233 214.682 317.062C215.03 316.892 215.322 316.631 215.557 316.278C215.795 315.926 215.915 315.477 215.915 314.932ZM223.507 309.773V310.909H218.984V309.773H223.507ZM220.303 307.682H221.643V316C221.643 316.379 221.698 316.663 221.808 316.852C221.922 317.038 222.066 317.163 222.24 317.227C222.418 317.288 222.606 317.318 222.803 317.318C222.95 317.318 223.071 317.311 223.166 317.295C223.261 317.277 223.337 317.261 223.393 317.25L223.666 318.455C223.575 318.489 223.448 318.523 223.286 318.557C223.123 318.595 222.916 318.614 222.666 318.614C222.287 318.614 221.916 318.532 221.553 318.369C221.193 318.206 220.893 317.958 220.655 317.625C220.42 317.292 220.303 316.871 220.303 316.364V307.682ZM232.592 318.705C232.039 318.705 231.537 318.6 231.087 318.392C230.636 318.18 230.278 317.875 230.013 317.477C229.748 317.076 229.615 316.591 229.615 316.023C229.615 315.523 229.714 315.117 229.911 314.807C230.107 314.492 230.371 314.246 230.7 314.068C231.03 313.89 231.393 313.758 231.791 313.67C232.193 313.58 232.596 313.508 233.001 313.455C233.532 313.386 233.962 313.335 234.291 313.301C234.625 313.263 234.867 313.201 235.018 313.114C235.174 313.027 235.251 312.875 235.251 312.659V312.614C235.251 312.053 235.098 311.617 234.791 311.307C234.488 310.996 234.028 310.841 233.411 310.841C232.77 310.841 232.268 310.981 231.905 311.261C231.541 311.542 231.286 311.841 231.138 312.159L229.865 311.705C230.092 311.174 230.395 310.761 230.774 310.466C231.157 310.167 231.573 309.958 232.024 309.841C232.479 309.72 232.926 309.659 233.365 309.659C233.645 309.659 233.967 309.693 234.331 309.761C234.698 309.826 235.053 309.96 235.393 310.165C235.738 310.369 236.024 310.678 236.251 311.091C236.479 311.504 236.592 312.057 236.592 312.75V318.5H235.251V317.318H235.183C235.092 317.508 234.941 317.71 234.729 317.926C234.517 318.142 234.234 318.326 233.882 318.477C233.53 318.629 233.1 318.705 232.592 318.705ZM232.797 317.5C233.327 317.5 233.774 317.396 234.138 317.188C234.505 316.979 234.782 316.71 234.967 316.381C235.157 316.051 235.251 315.705 235.251 315.341V314.114C235.195 314.182 235.07 314.244 234.876 314.301C234.687 314.354 234.467 314.402 234.217 314.443C233.971 314.481 233.731 314.515 233.496 314.545C233.265 314.572 233.077 314.595 232.933 314.614C232.585 314.659 232.259 314.733 231.956 314.835C231.657 314.934 231.414 315.083 231.229 315.284C231.047 315.481 230.956 315.75 230.956 316.091C230.956 316.557 231.128 316.909 231.473 317.148C231.821 317.383 232.263 317.5 232.797 317.5ZM240.381 313.25V318.5H239.04V309.773H240.335V311.136H240.449C240.653 310.693 240.964 310.337 241.381 310.068C241.797 309.795 242.335 309.659 242.994 309.659C243.585 309.659 244.102 309.78 244.545 310.023C244.989 310.261 245.333 310.625 245.58 311.114C245.826 311.598 245.949 312.212 245.949 312.955V318.5H244.608V313.045C244.608 312.36 244.43 311.826 244.074 311.443C243.718 311.057 243.229 310.864 242.608 310.864C242.18 310.864 241.797 310.956 241.46 311.142C241.127 311.328 240.864 311.598 240.67 311.955C240.477 312.311 240.381 312.742 240.381 313.25ZM251.695 318.682C250.967 318.682 250.325 318.498 249.768 318.131C249.212 317.759 248.776 317.237 248.462 316.562C248.147 315.884 247.99 315.083 247.99 314.159C247.99 313.242 248.147 312.447 248.462 311.773C248.776 311.098 249.214 310.578 249.774 310.21C250.335 309.843 250.982 309.659 251.717 309.659C252.286 309.659 252.734 309.754 253.064 309.943C253.397 310.129 253.651 310.341 253.825 310.58C254.003 310.814 254.142 311.008 254.24 311.159H254.354V306.864H255.695V318.5H254.399V317.159H254.24C254.142 317.318 254.001 317.519 253.82 317.761C253.638 318 253.378 318.214 253.041 318.403C252.704 318.589 252.255 318.682 251.695 318.682ZM251.876 317.477C252.414 317.477 252.869 317.337 253.24 317.057C253.611 316.773 253.893 316.381 254.087 315.881C254.28 315.377 254.376 314.795 254.376 314.136C254.376 313.485 254.282 312.915 254.092 312.426C253.903 311.934 253.623 311.551 253.251 311.278C252.88 311.002 252.422 310.864 251.876 310.864C251.308 310.864 250.835 311.009 250.456 311.301C250.081 311.589 249.799 311.981 249.609 312.477C249.424 312.97 249.331 313.523 249.331 314.136C249.331 314.758 249.426 315.322 249.615 315.83C249.808 316.333 250.092 316.735 250.467 317.034C250.846 317.33 251.316 317.477 251.876 317.477ZM262.837 321.773V309.773H264.132V311.159H264.291C264.39 311.008 264.526 310.814 264.7 310.58C264.878 310.341 265.132 310.129 265.462 309.943C265.795 309.754 266.246 309.659 266.814 309.659C267.549 309.659 268.196 309.843 268.757 310.21C269.318 310.578 269.755 311.098 270.07 311.773C270.384 312.447 270.541 313.242 270.541 314.159C270.541 315.083 270.384 315.884 270.07 316.562C269.755 317.237 269.32 317.759 268.763 318.131C268.206 318.498 267.564 318.682 266.837 318.682C266.276 318.682 265.827 318.589 265.49 318.403C265.153 318.214 264.893 318 264.712 317.761C264.53 317.519 264.39 317.318 264.291 317.159H264.178V321.773H262.837ZM264.155 314.136C264.155 314.795 264.251 315.377 264.445 315.881C264.638 316.381 264.92 316.773 265.291 317.057C265.662 317.337 266.117 317.477 266.655 317.477C267.215 317.477 267.683 317.33 268.058 317.034C268.437 316.735 268.721 316.333 268.911 315.83C269.104 315.322 269.2 314.758 269.2 314.136C269.2 313.523 269.106 312.97 268.916 312.477C268.731 311.981 268.448 311.589 268.07 311.301C267.695 311.009 267.223 310.864 266.655 310.864C266.109 310.864 265.651 311.002 265.28 311.278C264.909 311.551 264.628 311.934 264.439 312.426C264.25 312.915 264.155 313.485 264.155 314.136ZM272.587 318.5V309.773H273.882V311.091H273.973C274.132 310.659 274.42 310.309 274.837 310.04C275.253 309.771 275.723 309.636 276.246 309.636C276.344 309.636 276.467 309.638 276.615 309.642C276.763 309.646 276.875 309.652 276.95 309.659V311.023C276.905 311.011 276.801 310.994 276.638 310.972C276.479 310.945 276.31 310.932 276.132 310.932C275.708 310.932 275.329 311.021 274.996 311.199C274.666 311.373 274.405 311.616 274.212 311.926C274.022 312.233 273.928 312.583 273.928 312.977V318.5H272.587ZM281.82 318.682C281.032 318.682 280.34 318.494 279.746 318.119C279.155 317.744 278.693 317.22 278.359 316.545C278.03 315.871 277.865 315.083 277.865 314.182C277.865 313.273 278.03 312.479 278.359 311.801C278.693 311.123 279.155 310.597 279.746 310.222C280.34 309.847 281.032 309.659 281.82 309.659C282.607 309.659 283.297 309.847 283.888 310.222C284.482 310.597 284.945 311.123 285.274 311.801C285.607 312.479 285.774 313.273 285.774 314.182C285.774 315.083 285.607 315.871 285.274 316.545C284.945 317.22 284.482 317.744 283.888 318.119C283.297 318.494 282.607 318.682 281.82 318.682ZM281.82 317.477C282.418 317.477 282.911 317.324 283.297 317.017C283.683 316.71 283.969 316.307 284.155 315.807C284.34 315.307 284.433 314.765 284.433 314.182C284.433 313.598 284.34 313.055 284.155 312.551C283.969 312.047 283.683 311.64 283.297 311.33C282.911 311.019 282.418 310.864 281.82 310.864C281.221 310.864 280.729 311.019 280.342 311.33C279.956 311.64 279.67 312.047 279.484 312.551C279.299 313.055 279.206 313.598 279.206 314.182C279.206 314.765 279.299 315.307 279.484 315.807C279.67 316.307 279.956 316.71 280.342 317.017C280.729 317.324 281.221 317.477 281.82 317.477ZM291.616 309.773V310.909H287.094V309.773H291.616ZM288.412 307.682H289.753V316C289.753 316.379 289.808 316.663 289.918 316.852C290.031 317.038 290.175 317.163 290.349 317.227C290.527 317.288 290.715 317.318 290.912 317.318C291.06 317.318 291.181 317.311 291.276 317.295C291.37 317.277 291.446 317.261 291.503 317.25L291.776 318.455C291.685 318.489 291.558 318.523 291.395 318.557C291.232 318.595 291.026 318.614 290.776 318.614C290.397 318.614 290.026 318.532 289.662 318.369C289.302 318.206 289.003 317.958 288.764 317.625C288.529 317.292 288.412 316.871 288.412 316.364V307.682ZM297.199 318.682C296.358 318.682 295.633 318.496 295.023 318.125C294.417 317.75 293.949 317.227 293.619 316.557C293.294 315.883 293.131 315.098 293.131 314.205C293.131 313.311 293.294 312.523 293.619 311.841C293.949 311.155 294.407 310.621 294.994 310.239C295.585 309.852 296.275 309.659 297.062 309.659C297.517 309.659 297.966 309.735 298.409 309.886C298.852 310.038 299.256 310.284 299.619 310.625C299.983 310.962 300.273 311.409 300.489 311.966C300.705 312.523 300.812 313.208 300.812 314.023V314.591H294.085V313.432H299.449C299.449 312.939 299.35 312.5 299.153 312.114C298.96 311.727 298.684 311.422 298.324 311.199C297.968 310.975 297.547 310.864 297.062 310.864C296.528 310.864 296.066 310.996 295.676 311.261C295.29 311.523 294.992 311.864 294.784 312.284C294.576 312.705 294.472 313.155 294.472 313.636V314.409C294.472 315.068 294.585 315.627 294.812 316.085C295.044 316.54 295.364 316.886 295.773 317.125C296.182 317.36 296.657 317.477 297.199 317.477C297.551 317.477 297.869 317.428 298.153 317.33C298.441 317.227 298.689 317.076 298.898 316.875C299.106 316.67 299.267 316.417 299.381 316.114L300.676 316.477C300.54 316.917 300.311 317.303 299.989 317.636C299.667 317.966 299.269 318.223 298.795 318.409C298.322 318.591 297.79 318.682 297.199 318.682ZM306.398 318.682C305.58 318.682 304.875 318.489 304.284 318.102C303.693 317.716 303.239 317.184 302.92 316.506C302.602 315.828 302.443 315.053 302.443 314.182C302.443 313.295 302.606 312.513 302.932 311.835C303.261 311.153 303.72 310.621 304.307 310.239C304.898 309.852 305.587 309.659 306.375 309.659C306.989 309.659 307.542 309.773 308.034 310C308.527 310.227 308.93 310.545 309.244 310.955C309.559 311.364 309.754 311.841 309.83 312.386H308.489C308.386 311.989 308.159 311.636 307.807 311.33C307.458 311.019 306.989 310.864 306.398 310.864C305.875 310.864 305.417 311 305.023 311.273C304.633 311.542 304.328 311.922 304.108 312.415C303.892 312.903 303.784 313.477 303.784 314.136C303.784 314.811 303.89 315.398 304.102 315.898C304.318 316.398 304.621 316.786 305.011 317.062C305.405 317.339 305.867 317.477 306.398 317.477C306.746 317.477 307.062 317.417 307.347 317.295C307.631 317.174 307.871 317 308.068 316.773C308.265 316.545 308.405 316.273 308.489 315.955H309.83C309.754 316.47 309.566 316.934 309.267 317.347C308.972 317.756 308.58 318.081 308.091 318.324C307.606 318.562 307.042 318.682 306.398 318.682ZM315.585 309.773V310.909H311.062V309.773H315.585ZM312.381 307.682H313.722V316C313.722 316.379 313.777 316.663 313.886 316.852C314 317.038 314.144 317.163 314.318 317.227C314.496 317.288 314.684 317.318 314.881 317.318C315.028 317.318 315.15 317.311 315.244 317.295C315.339 317.277 315.415 317.261 315.472 317.25L315.744 318.455C315.653 318.489 315.527 318.523 315.364 318.557C315.201 318.595 314.994 318.614 314.744 318.614C314.366 318.614 313.994 318.532 313.631 318.369C313.271 318.206 312.972 317.958 312.733 317.625C312.498 317.292 312.381 316.871 312.381 316.364V307.682ZM322.966 321.773C322.739 321.773 322.536 321.754 322.358 321.716C322.18 321.682 322.057 321.648 321.989 321.614L322.33 320.432C322.655 320.515 322.943 320.545 323.193 320.523C323.443 320.5 323.665 320.388 323.858 320.188C324.055 319.991 324.235 319.67 324.398 319.227L324.648 318.545L321.42 309.773H322.875L325.284 316.727H325.375L327.784 309.773H329.239L325.534 319.773C325.367 320.223 325.161 320.597 324.915 320.892C324.669 321.191 324.383 321.413 324.057 321.557C323.735 321.701 323.371 321.773 322.966 321.773ZM334.241 318.682C333.454 318.682 332.762 318.494 332.168 318.119C331.577 317.744 331.115 317.22 330.781 316.545C330.452 315.871 330.287 315.083 330.287 314.182C330.287 313.273 330.452 312.479 330.781 311.801C331.115 311.123 331.577 310.597 332.168 310.222C332.762 309.847 333.454 309.659 334.241 309.659C335.029 309.659 335.719 309.847 336.31 310.222C336.904 310.597 337.366 311.123 337.696 311.801C338.029 312.479 338.196 313.273 338.196 314.182C338.196 315.083 338.029 315.871 337.696 316.545C337.366 317.22 336.904 317.744 336.31 318.119C335.719 318.494 335.029 318.682 334.241 318.682ZM334.241 317.477C334.84 317.477 335.332 317.324 335.719 317.017C336.105 316.71 336.391 316.307 336.577 315.807C336.762 315.307 336.855 314.765 336.855 314.182C336.855 313.598 336.762 313.055 336.577 312.551C336.391 312.047 336.105 311.64 335.719 311.33C335.332 311.019 334.84 310.864 334.241 310.864C333.643 310.864 333.151 311.019 332.764 311.33C332.378 311.64 332.092 312.047 331.906 312.551C331.721 313.055 331.628 313.598 331.628 314.182C331.628 314.765 331.721 315.307 331.906 315.807C332.092 316.307 332.378 316.71 332.764 317.017C333.151 317.324 333.643 317.477 334.241 317.477ZM345.743 314.932V309.773H347.084V318.5H345.743V317.023H345.652C345.447 317.466 345.129 317.843 344.697 318.153C344.266 318.46 343.72 318.614 343.061 318.614C342.516 318.614 342.031 318.494 341.607 318.256C341.182 318.013 340.849 317.65 340.607 317.165C340.364 316.676 340.243 316.061 340.243 315.318V309.773H341.584V315.227C341.584 315.864 341.762 316.371 342.118 316.75C342.478 317.129 342.936 317.318 343.493 317.318C343.826 317.318 344.165 317.233 344.51 317.062C344.858 316.892 345.15 316.631 345.385 316.278C345.624 315.926 345.743 315.477 345.743 314.932ZM349.54 318.5V309.773H350.835V311.091H350.926C351.085 310.659 351.373 310.309 351.79 310.04C352.206 309.771 352.676 309.636 353.199 309.636C353.297 309.636 353.42 309.638 353.568 309.642C353.716 309.646 353.828 309.652 353.903 309.659V311.023C353.858 311.011 353.754 310.994 353.591 310.972C353.432 310.945 353.263 310.932 353.085 310.932C352.661 310.932 352.282 311.021 351.949 311.199C351.619 311.373 351.358 311.616 351.165 311.926C350.975 312.233 350.881 312.583 350.881 312.977V318.5H349.54ZM359.993 321.773V309.773H361.288V311.159H361.447C361.546 311.008 361.682 310.814 361.857 310.58C362.035 310.341 362.288 310.129 362.618 309.943C362.951 309.754 363.402 309.659 363.97 309.659C364.705 309.659 365.353 309.843 365.913 310.21C366.474 310.578 366.911 311.098 367.226 311.773C367.54 312.447 367.697 313.242 367.697 314.159C367.697 315.083 367.54 315.884 367.226 316.562C366.911 317.237 366.476 317.759 365.919 318.131C365.362 318.498 364.72 318.682 363.993 318.682C363.432 318.682 362.983 318.589 362.646 318.403C362.309 318.214 362.05 318 361.868 317.761C361.686 317.519 361.546 317.318 361.447 317.159H361.334V321.773H359.993ZM361.311 314.136C361.311 314.795 361.408 315.377 361.601 315.881C361.794 316.381 362.076 316.773 362.447 317.057C362.819 317.337 363.273 317.477 363.811 317.477C364.372 317.477 364.839 317.33 365.214 317.034C365.593 316.735 365.877 316.333 366.067 315.83C366.26 315.322 366.357 314.758 366.357 314.136C366.357 313.523 366.262 312.97 366.072 312.477C365.887 311.981 365.605 311.589 365.226 311.301C364.851 311.009 364.379 310.864 363.811 310.864C363.266 310.864 362.807 311.002 362.436 311.278C362.065 311.551 361.785 311.934 361.595 312.426C361.406 312.915 361.311 313.485 361.311 314.136ZM369.743 318.5V309.773H371.038V311.091H371.129C371.288 310.659 371.576 310.309 371.993 310.04C372.41 309.771 372.879 309.636 373.402 309.636C373.5 309.636 373.624 309.638 373.771 309.642C373.919 309.646 374.031 309.652 374.107 309.659V311.023C374.061 311.011 373.957 310.994 373.794 310.972C373.635 310.945 373.466 310.932 373.288 310.932C372.864 310.932 372.485 311.021 372.152 311.199C371.822 311.373 371.561 311.616 371.368 311.926C371.179 312.233 371.084 312.583 371.084 312.977V318.5H369.743ZM378.976 318.682C378.188 318.682 377.497 318.494 376.902 318.119C376.311 317.744 375.849 317.22 375.516 316.545C375.186 315.871 375.021 315.083 375.021 314.182C375.021 313.273 375.186 312.479 375.516 311.801C375.849 311.123 376.311 310.597 376.902 310.222C377.497 309.847 378.188 309.659 378.976 309.659C379.764 309.659 380.453 309.847 381.044 310.222C381.639 310.597 382.101 311.123 382.43 311.801C382.764 312.479 382.93 313.273 382.93 314.182C382.93 315.083 382.764 315.871 382.43 316.545C382.101 317.22 381.639 317.744 381.044 318.119C380.453 318.494 379.764 318.682 378.976 318.682ZM378.976 317.477C379.574 317.477 380.067 317.324 380.453 317.017C380.839 316.71 381.125 316.307 381.311 315.807C381.497 315.307 381.589 314.765 381.589 314.182C381.589 313.598 381.497 313.055 381.311 312.551C381.125 312.047 380.839 311.64 380.453 311.33C380.067 311.019 379.574 310.864 378.976 310.864C378.377 310.864 377.885 311.019 377.499 311.33C377.112 311.64 376.826 312.047 376.641 312.551C376.455 313.055 376.362 313.598 376.362 314.182C376.362 314.765 376.455 315.307 376.641 315.807C376.826 316.307 377.112 316.71 377.499 317.017C377.885 317.324 378.377 317.477 378.976 317.477ZM388.273 318.682C387.545 318.682 386.903 318.498 386.347 318.131C385.79 317.759 385.354 317.237 385.04 316.562C384.725 315.884 384.568 315.083 384.568 314.159C384.568 313.242 384.725 312.447 385.04 311.773C385.354 311.098 385.792 310.578 386.352 310.21C386.913 309.843 387.561 309.659 388.295 309.659C388.864 309.659 389.313 309.754 389.642 309.943C389.975 310.129 390.229 310.341 390.403 310.58C390.581 310.814 390.72 311.008 390.818 311.159H390.932V306.864H392.273V318.5H390.977V317.159H390.818C390.72 317.318 390.58 317.519 390.398 317.761C390.216 318 389.956 318.214 389.619 318.403C389.282 318.589 388.833 318.682 388.273 318.682ZM388.455 317.477C388.992 317.477 389.447 317.337 389.818 317.057C390.189 316.773 390.472 316.381 390.665 315.881C390.858 315.377 390.955 314.795 390.955 314.136C390.955 313.485 390.86 312.915 390.67 312.426C390.481 311.934 390.201 311.551 389.83 311.278C389.458 311.002 389 310.864 388.455 310.864C387.886 310.864 387.413 311.009 387.034 311.301C386.659 311.589 386.377 311.981 386.188 312.477C386.002 312.97 385.909 313.523 385.909 314.136C385.909 314.758 386.004 315.322 386.193 315.83C386.386 316.333 386.67 316.735 387.045 317.034C387.424 317.33 387.894 317.477 388.455 317.477ZM400.415 314.932V309.773H401.756V318.5H400.415V317.023H400.324C400.119 317.466 399.801 317.843 399.369 318.153C398.938 318.46 398.392 318.614 397.733 318.614C397.188 318.614 396.703 318.494 396.278 318.256C395.854 318.013 395.521 317.65 395.278 317.165C395.036 316.676 394.915 316.061 394.915 315.318V309.773H396.256V315.227C396.256 315.864 396.434 316.371 396.79 316.75C397.15 317.129 397.608 317.318 398.165 317.318C398.498 317.318 398.837 317.233 399.182 317.062C399.53 316.892 399.822 316.631 400.057 316.278C400.295 315.926 400.415 315.477 400.415 314.932ZM407.757 318.682C406.939 318.682 406.234 318.489 405.643 318.102C405.053 317.716 404.598 317.184 404.28 316.506C403.962 315.828 403.803 315.053 403.803 314.182C403.803 313.295 403.965 312.513 404.291 311.835C404.621 311.153 405.079 310.621 405.666 310.239C406.257 309.852 406.946 309.659 407.734 309.659C408.348 309.659 408.901 309.773 409.393 310C409.886 310.227 410.289 310.545 410.604 310.955C410.918 311.364 411.113 311.841 411.189 312.386H409.848C409.746 311.989 409.518 311.636 409.166 311.33C408.818 311.019 408.348 310.864 407.757 310.864C407.234 310.864 406.776 311 406.382 311.273C405.992 311.542 405.687 311.922 405.467 312.415C405.251 312.903 405.143 313.477 405.143 314.136C405.143 314.811 405.25 315.398 405.462 315.898C405.678 316.398 405.981 316.786 406.371 317.062C406.765 317.339 407.227 317.477 407.757 317.477C408.106 317.477 408.422 317.417 408.706 317.295C408.99 317.174 409.231 317 409.428 316.773C409.625 316.545 409.765 316.273 409.848 315.955H411.189C411.113 316.47 410.926 316.934 410.626 317.347C410.331 317.756 409.939 318.081 409.45 318.324C408.965 318.562 408.401 318.682 407.757 318.682ZM416.945 309.773V310.909H412.422V309.773H416.945ZM413.74 307.682H415.081V316C415.081 316.379 415.136 316.663 415.246 316.852C415.359 317.038 415.503 317.163 415.678 317.227C415.856 317.288 416.043 317.318 416.24 317.318C416.388 317.318 416.509 317.311 416.604 317.295C416.698 317.277 416.774 317.261 416.831 317.25L417.104 318.455C417.013 318.489 416.886 318.523 416.723 318.557C416.56 318.595 416.354 318.614 416.104 318.614C415.725 318.614 415.354 318.532 414.99 318.369C414.63 318.206 414.331 317.958 414.092 317.625C413.857 317.292 413.74 316.871 413.74 316.364V307.682ZM424.987 311.727L423.783 312.068C423.707 311.867 423.595 311.672 423.447 311.483C423.304 311.29 423.107 311.131 422.857 311.006C422.607 310.881 422.286 310.818 421.896 310.818C421.362 310.818 420.917 310.941 420.561 311.188C420.209 311.43 420.033 311.739 420.033 312.114C420.033 312.447 420.154 312.71 420.396 312.903C420.639 313.097 421.018 313.258 421.533 313.386L422.828 313.705C423.608 313.894 424.19 314.184 424.572 314.574C424.955 314.96 425.146 315.458 425.146 316.068C425.146 316.568 425.002 317.015 424.714 317.409C424.43 317.803 424.033 318.114 423.521 318.341C423.01 318.568 422.415 318.682 421.737 318.682C420.847 318.682 420.11 318.489 419.527 318.102C418.944 317.716 418.574 317.152 418.419 316.409L419.692 316.091C419.813 316.561 420.042 316.913 420.379 317.148C420.72 317.383 421.165 317.5 421.714 317.5C422.339 317.5 422.836 317.367 423.203 317.102C423.574 316.833 423.76 316.511 423.76 316.136C423.76 315.833 423.654 315.58 423.442 315.375C423.23 315.167 422.904 315.011 422.464 314.909L421.01 314.568C420.211 314.379 419.624 314.085 419.249 313.688C418.877 313.286 418.692 312.784 418.692 312.182C418.692 311.689 418.83 311.254 419.107 310.875C419.387 310.496 419.768 310.199 420.249 309.983C420.733 309.767 421.283 309.659 421.896 309.659C422.76 309.659 423.438 309.848 423.93 310.227C424.427 310.606 424.779 311.106 424.987 311.727ZM428.142 318.591C427.862 318.591 427.621 318.491 427.42 318.29C427.22 318.089 427.119 317.848 427.119 317.568C427.119 317.288 427.22 317.047 427.42 316.847C427.621 316.646 427.862 316.545 428.142 316.545C428.422 316.545 428.663 316.646 428.864 316.847C429.064 317.047 429.165 317.288 429.165 317.568C429.165 317.754 429.117 317.924 429.023 318.08C428.932 318.235 428.809 318.36 428.653 318.455C428.502 318.545 428.331 318.591 428.142 318.591Z" fill="#E5E7EB"/>
<g opacity="0.04">
<path d="M526.233 390.212C532.146 383.319 524.908 375.472 519.124 379.809C501.222 393.045 470.002 399.722 446.263 393.939C446.145 393.912 446.021 393.913 445.903 393.942C445.784 393.971 445.674 394.028 445.582 394.107C445.49 394.187 445.417 394.287 445.371 394.4C445.324 394.513 445.305 394.635 445.315 394.756C445.321 395.162 445.414 395.561 445.587 395.928C445.76 396.295 446.01 396.62 446.319 396.882C455.943 405.005 482.196 412.787 491.511 405.756C363.07 502.628 252.673 438.176 163.597 328.918C116.162 274.016 82.5303 208.332 35.8387 152.873C-11.1104 99.4359 -77.2204 52.3049 -151.098 54.5857C-151.303 54.5859 -151.505 54.6365 -151.686 54.7331C-151.867 54.8297 -152.022 54.9694 -152.136 55.1398C-152.251 55.3102 -152.322 55.5061 -152.342 55.7103C-152.363 55.9145 -152.334 56.1207 -152.256 56.3107C-152.133 56.6499 -151.908 56.9427 -151.612 57.1491C-151.315 57.3555 -150.963 57.4655 -150.602 57.464C-78.0165 57.3867 -15.1397 104.294 29.5446 158.095C74.827 214.95 106.02 281.429 152.489 337.724C242.091 456.611 364.206 527.895 494.657 412.632C490.853 416.007 487.7 445.926 497.897 458.86C498.189 459.23 498.608 459.479 499.073 459.558C499.538 459.637 500.016 459.54 500.414 459.287L500.461 459.246C500.687 459.1 500.847 458.872 500.908 458.61C500.969 458.348 500.926 458.072 500.788 457.841C491.765 441.665 514.315 404.064 526.233 390.212Z" fill="white"/>
<path d="M165.38 293.8C202.275 340.13 265.292 401.592 320.111 422.105C320.26 422.191 320.376 422.325 320.44 422.485C320.503 422.644 320.511 422.821 320.462 422.986C320.413 423.151 320.309 423.294 320.168 423.393C320.027 423.491 319.857 423.54 319.686 423.53C261.499 408.644 196.441 345.484 164.206 294.663C164.143 294.508 164.133 294.336 164.179 294.175C164.224 294.014 164.322 293.873 164.457 293.774C164.592 293.675 164.756 293.624 164.923 293.629C165.09 293.633 165.251 293.694 165.38 293.8Z" fill="white"/>
<path d="M157.385 278.473C157.428 278.723 157.395 278.98 157.29 279.21C157.184 279.441 157.011 279.634 156.794 279.764C156.576 279.894 156.324 279.955 156.072 279.938C155.819 279.922 155.577 279.83 155.377 279.673C154.903 279.123 154.421 278.563 154.004 277.964C152.549 276.042 151.201 274.042 149.967 271.971C148.73 269.901 147.615 267.76 146.627 265.56C146.322 264.88 146.035 264.202 145.758 263.515C145.71 263.263 145.741 263.003 145.845 262.769C145.95 262.535 146.125 262.339 146.345 262.207C146.564 262.075 146.82 262.014 147.075 262.032C147.331 262.05 147.575 262.146 147.775 262.307C148.265 262.876 148.747 263.436 149.163 264.053C152.08 267.897 154.555 272.058 156.541 276.457C156.879 277.157 157.148 277.834 157.385 278.473Z" fill="white"/>
</g>
</g>
<defs>
<clipPath id="clip0_119_22429">
<rect width="583" height="563" fill="white"/>
</clipPath>
</defs>
</svg>
