<svg width="16" height="17" viewBox="0 0 16 17" fill="none" xmlns="http://www.w3.org/2000/svg">
<g clip-path="url(#clip0_119_16207)">
<path d="M8 16.5C12.4183 16.5 16 12.9183 16 8.5C16 4.08172 12.4183 0.5 8 0.5C3.58172 0.5 0 4.08172 0 8.5C0 12.9183 3.58172 16.5 8 16.5Z" fill="#F0F0F0"/>
<path d="M10.7827 8.49963C10.7827 9.19529 9.5369 10.9344 8.00012 10.9344C6.46334 10.9344 5.21753 9.19529 5.21753 8.49963C5.21753 6.96282 6.46334 5.71704 8.00012 5.71704C9.5369 5.71704 10.7827 6.96282 10.7827 8.49963Z" fill="#D80027"/>
<path d="M10.7827 8.49976C10.7827 10.0366 9.5369 11.2823 8.00012 11.2823C6.46334 11.2823 5.21753 10.0366 5.21753 8.49976" fill="#0052B4"/>
<path d="M11.689 10.2216L10.9512 10.9595L11.4431 11.4514L12.1809 10.7135L11.689 10.2216Z" fill="black"/>
<path d="M10.459 11.4511L9.72119 12.189L10.2131 12.6809L10.9509 11.943L10.459 11.4511Z" fill="black"/>
<path d="M13.1646 11.6965L12.4268 12.4343L12.9187 12.9262L13.6565 12.1884L13.1646 11.6965Z" fill="black"/>
<path d="M11.9353 12.9272L11.1975 13.665L11.6894 14.1569L12.4272 13.4191L11.9353 12.9272Z" fill="black"/>
<path d="M12.427 10.9597L11.6892 11.6975L12.1811 12.1894L12.9189 11.4516L12.427 10.9597Z" fill="black"/>
<path d="M11.1973 12.1892L10.4595 12.927L10.9514 13.4189L11.6892 12.6811L11.1973 12.1892Z" fill="black"/>
<path d="M10.4597 4.07222L12.4272 6.03979L12.9191 5.5479L10.9516 3.58033L10.4597 4.07222Z" fill="black"/>
<path d="M9.72188 4.81075L10.4597 5.54858L10.9516 5.05671L10.2138 4.31887L9.72188 4.81075Z" fill="black"/>
<path d="M10.9516 6.04L11.6895 6.77783L12.1813 6.28596L11.4435 5.54812L10.9516 6.04Z" fill="black"/>
<path d="M11.1967 3.33492L11.9346 4.07275L12.4265 3.58085L11.6886 2.84302L11.1967 3.33492Z" fill="black"/>
<path d="M12.4272 4.56514L13.165 5.30298L13.6569 4.81108L12.9191 4.07324L12.4272 4.56514Z" fill="black"/>
<path d="M4.80229 13.6653L2.83472 11.6978L2.34282 12.1897L4.31039 14.1572L4.80229 13.6653Z" fill="black"/>
<path d="M5.54033 12.9266L4.80249 12.1887L4.31061 12.6806L5.04845 13.4184L5.54033 12.9266Z" fill="black"/>
<path d="M4.31059 11.6973L3.57275 10.9595L3.08086 11.4514L3.81869 12.1892L4.31059 11.6973Z" fill="black"/>
<path d="M6.27836 12.189L4.31079 10.2214L3.81889 10.7133L5.78647 12.6809L6.27836 12.189Z" fill="black"/>
<path d="M2.83516 5.30302L4.80273 3.33545L4.31084 2.84355L2.34326 4.81112L2.83516 5.30302Z" fill="black"/>
<path d="M3.57247 6.03984L5.54004 4.07227L5.04814 3.58037L3.08057 5.54794L3.57247 6.03984Z" fill="black"/>
<path d="M4.31099 6.77812L6.27856 4.81055L5.78669 4.31867L3.81912 6.28624L4.31099 6.77812Z" fill="black"/>
</g>
<defs>
<clipPath id="clip0_119_16207">
<rect width="16" height="16" fill="white" transform="translate(0 0.5)"/>
</clipPath>
</defs>
</svg>
