<svg width="76" height="32" viewBox="0 0 76 32" fill="none" xmlns="http://www.w3.org/2000/svg">
<path d="M58.5879 1.50769V16.0429L58.4024 16.196L58.217 16.3492L58.0393 16.51L57.8693 16.6708L57.707 16.8317L57.5448 17.0001L57.3902 17.1686L57.2357 17.3371V1.50769H40.9861V14.741H39.6416V1.50769H23.3921V14.764H22.0476V1.50769H5.79801V16.6172L1.64868 30.3177H5.29576L7.12703 24.2524H7.65245L10.6814 30.3177H15.0857L12.1495 24.2524H18.81L16.9633 30.3177H20.9426L22.7662 24.2677H23.647V24.2524H24.8988H24.9992H32.5175L30.7558 30.3023H34.7737L36.4813 24.2524H38.2894L38.3358 30.3023H41.7047L45.5758 24.2524H48.1102L46.7967 30.3023H50.7528L52.0432 24.2524H54.3303L54.3149 24.597L54.3231 24.9493L54.3385 25.2862L54.3694 25.6232L54.3926 25.784L54.4157 25.9448L54.4466 26.1057L54.4775 26.2665L54.5161 26.4273L54.5547 26.5805L54.601 26.7336L54.6474 26.8868L54.7015 27.04L54.7556 27.1855L54.8174 27.331L54.8792 27.4688L54.9488 27.6143L55.0184 27.7522L55.0957 27.8824L55.173 28.0202L55.258 28.1504L55.3507 28.2729L55.4435 28.4031L55.5439 28.518L55.6444 28.6405L55.7448 28.7554L55.8607 28.8703L55.9766 28.9775L56.1234 29.1L56.2702 29.2225L56.4248 29.3374L56.587 29.4446L56.7493 29.5518L56.9116 29.6514L57.0816 29.7356L57.2593 29.8275L57.4293 29.9041L57.607 29.9806L57.7847 30.0496L57.9701 30.1185L58.1556 30.1798L58.341 30.2334L58.5265 30.287L58.7119 30.333L59.0828 30.4172L59.4614 30.4785L59.8323 30.5321L60.2032 30.578L60.5664 30.6086L60.9218 30.624L61.2695 30.6393H61.6018L62.0499 30.6321L62.4981 30.6248L62.954 30.6018L63.4099 30.5788L63.8657 30.5405L64.3216 30.5022L64.7775 30.4562L65.2334 30.4026L65.697 30.3413L66.1606 30.2724L66.6242 30.1958L67.0878 30.1192L67.5514 30.035L68.0151 29.9431L68.4787 29.8513L68.95 29.744L70.3254 24.2531H74.8379V1.5084L58.5879 1.50769ZM7.30474 23.6857L7.3279 23.6015L7.38204 23.6857H7.30474ZM21.4603 15.5374L21.2285 16.3109L19.065 23.433L18.98 23.6857H11.8713L11.3227 22.5217L18.98 14.764H14.058L8.06968 21.1585L10.0091 14.764H6.3775V2.08206H21.4603L21.4603 15.5374ZM25.656 21.5567L25.5401 21.564L25.4319 21.5713L25.316 21.5785H25.1924H25.0302H24.8911L24.7597 21.5858H24.6361L23.6702 21.5785L24.1184 19.9397L24.327 19.1279L24.837 17.2211H24.9992H25.1692L25.3315 17.2138H25.486H26.2355L26.6914 17.2211L27.1087 17.2364L27.2941 17.2437L27.4718 17.259L27.6418 17.282L27.7964 17.305L27.9354 17.328L28.0668 17.3663L28.1904 17.4046L28.2986 17.4506L28.3913 17.4966L28.4763 17.5579L28.5536 17.6192L28.6154 17.6958L28.654 17.7571L28.6849 17.8184L28.7158 17.8873L28.7389 17.9639L28.7544 18.0481L28.7626 18.1323V18.2242V18.3237L28.7544 18.431L28.7471 18.5382L28.724 18.6607L28.7008 18.7832L28.6312 19.0436L28.5462 19.3346L28.4612 19.5797L28.3685 19.8171L28.268 20.0392L28.1598 20.2459L28.1057 20.3378L28.0516 20.4297L27.9897 20.5216L27.9201 20.6058L27.8505 20.69L27.781 20.7666L27.7037 20.8432L27.6264 20.9121L27.5414 20.9734L27.4563 21.0424L27.3636 21.096L27.2632 21.1573L27.1627 21.2109L27.0545 21.2568L26.9464 21.3028L26.8305 21.3411L26.7068 21.3871L26.5755 21.4177L26.4364 21.4483L26.2973 21.4789L26.1428 21.5019L25.9882 21.5249L25.826 21.5402L25.656 21.5556L25.656 21.5567ZM36.6436 23.6857L38.2276 18.0953L38.2895 23.6857H36.6436ZM39.0544 14.741H35.2837L32.6875 23.6857H28.685L28.8704 23.6092L29.0558 23.5326L29.2336 23.456L29.4113 23.3718L29.5813 23.2876L29.7435 23.188L29.9058 23.0962L30.0603 22.9966L30.2149 22.8894L30.3617 22.7822L30.5008 22.675L30.6398 22.5524L30.7712 22.4375L30.8948 22.3074L31.0185 22.1848L31.1344 22.047L31.2503 21.9168L31.3584 21.7713L31.4589 21.6334L31.5593 21.4803L31.6521 21.3271L31.7371 21.174L31.8221 21.0131L31.8994 20.8447L31.9767 20.6762L32.0463 20.5077L32.108 20.3316L32.1699 20.1478L32.2162 19.964L32.2704 19.7802L32.309 19.5811L32.3476 19.3896L32.4017 19.0833L32.448 18.7923L32.4789 18.5166L32.5021 18.2562L32.5102 17.9958L32.5021 17.7584L32.4948 17.521L32.4639 17.2989L32.433 17.0922L32.3789 16.8854L32.3248 16.6939L32.2475 16.5101L32.1625 16.334L32.0697 16.1579L31.9616 15.997L31.8379 15.8439L31.7375 15.7367L31.637 15.6294L31.5289 15.5375L31.413 15.4533L31.2893 15.3691L31.1657 15.2926L31.0343 15.2236L30.903 15.1623L30.7639 15.101L30.6248 15.055L30.478 15.0091L30.3312 14.9631L30.1766 14.9248L30.0221 14.8942L29.8676 14.8636L29.7053 14.8406L29.373 14.7946L29.0408 14.7716L28.7008 14.7487L28.3531 14.7414H27.6577H26.97H26.7537H26.3673H25.8882H25.3551H24.8374H24.397H24.0879H23.972V2.08247H39.0548L39.0544 14.741ZM48.2184 23.6857H45.9545L49.3852 18.325L48.2184 23.6857ZM56.6484 14.9937L56.6403 18.0953L56.4471 18.3633L56.2694 18.639L56.0917 18.9147L55.9294 19.1904L55.7749 19.4661L55.6203 19.7494L55.489 20.0251L55.3576 20.3008L55.234 20.5689L55.1258 20.8445L55.0176 21.1126L54.9249 21.373L54.8399 21.6333L54.7626 21.8861L54.693 22.1311L54.6312 22.3762L54.5926 22.537L54.554 22.7055L54.5153 22.8663L54.4845 23.0348L54.4536 23.1956L54.4304 23.3564L54.4073 23.5172L54.3918 23.6857H52.1742L54.0673 14.764L47.6849 14.7567L41.9748 23.6861H41.5575V2.08245H56.6481L56.6484 14.9937ZM65.3489 27.3387L65.0321 27.3923L64.7076 27.4382L64.383 27.4842L64.0662 27.5225L63.7494 27.5531L63.4326 27.5761L63.1235 27.5914H62.8145H62.6136L62.4127 27.5842L62.2195 27.5688L62.0263 27.5459L61.8409 27.5152L61.6632 27.4846L61.4855 27.4463L61.3155 27.4003L61.1532 27.3467L60.9909 27.2932L60.8364 27.2242L60.6896 27.1553L60.5428 27.0711L60.4037 26.9869L60.2723 26.895L60.1487 26.8031L60.0251 26.6959L59.9169 26.581L59.8087 26.4661L59.7083 26.3359L59.6156 26.2057L59.5305 26.0602L59.4532 25.9147L59.3759 25.7616L59.3141 25.6007L59.2599 25.4246L59.2136 25.2485L59.1673 25.0647L59.1364 24.8732L59.1133 24.6741L59.0978 24.4673L59.0896 24.2529H66.1211L65.3489 27.3387ZM74.2657 23.6857H70.4641L71.0899 21.1892H63.4713L62.8454 23.6857H59.1597V23.1726L59.206 22.9582L59.2446 22.7438L59.2909 22.514L59.3372 22.2843L59.4068 22.0316L59.4764 21.7788L59.5537 21.5261L59.6387 21.2811L59.7314 21.036L59.8319 20.7909L59.9401 20.5535L60.0482 20.3161L60.1719 20.0787L60.2955 19.8566L60.4269 19.6269L60.5737 19.4125L60.7205 19.198L60.8673 18.9913L61.0296 18.7922L61.1995 18.6007L61.3773 18.4169L61.555 18.2484L61.7481 18.08L61.9413 17.9191L62.1422 17.7736L62.3586 17.6358L62.5749 17.5132L62.799 17.3984L63.0308 17.2912L63.2703 17.1993L63.5176 17.1227L63.7726 17.0614L64.0353 17.0078L64.3057 16.9695L64.5839 16.9465L64.8698 16.9392L65.0939 16.9465L65.318 16.9618L65.542 16.9924L65.7584 17.0384L65.8666 17.069L65.967 17.0996L66.0675 17.1302L66.1602 17.1762L66.2529 17.2145L66.3456 17.2681L66.4306 17.3217L66.5157 17.3753L66.593 17.4442L66.6703 17.5132L66.7398 17.5821L66.8094 17.6663L66.8713 17.7429L66.9254 17.8348L66.9717 17.9343L67.0181 18.0339L67.0567 18.1411L67.0875 18.256L67.1107 18.3709L67.1339 18.501L67.142 18.6312V18.7691V18.9146L67.1266 19.0678H71.67L71.7396 18.7538L71.8014 18.3938L71.8323 18.2024L71.8478 17.9956L71.8632 17.7888V17.5744L71.8559 17.3523L71.8328 17.1226L71.8096 17.0154L71.7942 16.9005L71.7633 16.7856L71.7324 16.6707L71.6938 16.5482L71.6552 16.4334L71.6089 16.3185L71.5547 16.2036L71.5006 16.0887L71.431 15.9739L71.3614 15.859L71.2841 15.7441L71.1914 15.6216L71.091 15.5067L70.9905 15.3918L70.8823 15.2846L70.7664 15.1774L70.6428 15.0779L70.5192 14.9859L70.3878 14.8941L70.2487 14.8022L70.1097 14.7256L69.9629 14.649L69.8083 14.5724L69.6538 14.5035L69.4915 14.4346L69.3215 14.3733L69.1515 14.3119L68.9815 14.2583L68.7961 14.2124L68.6184 14.1664L68.4252 14.1205L68.232 14.0821L68.0389 14.0438L67.838 14.0132L67.6293 13.9902L67.2044 13.9443L66.7717 13.9059L66.3158 13.8906L65.8522 13.8833L65.5045 13.8906L65.1413 13.8978L64.7627 13.9208L64.3686 13.9514L63.9591 13.9974L63.5418 14.051L63.1169 14.1199L62.6842 14.2118L62.4678 14.2578L62.2437 14.3114L62.0274 14.3727L61.8033 14.434L61.5792 14.5029L61.3551 14.5795L61.1311 14.6561L60.9147 14.7403L60.6906 14.8322L60.4665 14.9317L60.2502 15.0313L60.0261 15.1385L59.8098 15.2534L59.5934 15.3759L59.3771 15.4984L59.1607 15.6363V2.08134H74.2667V23.685L74.2657 23.6857Z" fill="#A6A097"/>
</svg>
