<svg width="583" height="563" viewBox="0 0 583 563" fill="none" xmlns="http://www.w3.org/2000/svg">
<g clip-path="url(#clip0_119_22405)">
<rect width="583" height="563" fill="#263C28"/>
<path d="M183.081 248.5V233.955H185.716V246.291H192.122V248.5H183.081ZM199.054 248.713C197.989 248.713 197.066 248.479 196.284 248.01C195.503 247.541 194.897 246.885 194.466 246.043C194.04 245.2 193.827 244.215 193.827 243.088C193.827 241.961 194.04 240.974 194.466 240.126C194.897 239.279 195.503 238.621 196.284 238.152C197.066 237.683 197.989 237.449 199.054 237.449C200.119 237.449 201.043 237.683 201.824 238.152C202.605 238.621 203.209 239.279 203.635 240.126C204.066 240.974 204.281 241.961 204.281 243.088C204.281 244.215 204.066 245.2 203.635 246.043C203.209 246.885 202.605 247.541 201.824 248.01C201.043 248.479 200.119 248.713 199.054 248.713ZM199.068 246.653C199.646 246.653 200.129 246.495 200.517 246.178C200.905 245.856 201.194 245.425 201.384 244.885C201.578 244.345 201.675 243.744 201.675 243.081C201.675 242.413 201.578 241.81 201.384 241.27C201.194 240.725 200.905 240.292 200.517 239.97C200.129 239.648 199.646 239.487 199.068 239.487C198.477 239.487 197.984 239.648 197.591 239.97C197.203 240.292 196.912 240.725 196.718 241.27C196.528 241.81 196.433 242.413 196.433 243.081C196.433 243.744 196.528 244.345 196.718 244.885C196.912 245.425 197.203 245.856 197.591 246.178C197.984 246.495 198.477 246.653 199.068 246.653ZM211.208 252.818C210.285 252.818 209.492 252.693 208.829 252.442C208.166 252.196 207.633 251.864 207.231 251.447C206.828 251.031 206.549 250.569 206.393 250.062L208.708 249.501C208.812 249.714 208.964 249.925 209.162 250.134C209.361 250.347 209.629 250.522 209.965 250.659C210.306 250.801 210.734 250.872 211.251 250.872C211.98 250.872 212.583 250.695 213.062 250.339C213.54 249.989 213.779 249.411 213.779 248.607V246.54H213.651C213.519 246.805 213.324 247.077 213.069 247.357C212.818 247.636 212.484 247.87 212.067 248.06C211.655 248.249 211.137 248.344 210.512 248.344C209.674 248.344 208.914 248.147 208.232 247.754C207.555 247.357 207.015 246.765 206.613 245.979C206.215 245.188 206.016 244.198 206.016 243.01C206.016 241.812 206.215 240.801 206.613 239.977C207.015 239.149 207.557 238.521 208.239 238.095C208.921 237.664 209.681 237.449 210.519 237.449C211.158 237.449 211.684 237.558 212.096 237.776C212.512 237.989 212.844 238.247 213.09 238.55C213.336 238.848 213.523 239.13 213.651 239.395H213.793V237.591H216.329V248.678C216.329 249.61 216.106 250.382 215.661 250.993C215.216 251.604 214.608 252.061 213.836 252.364C213.064 252.667 212.188 252.818 211.208 252.818ZM211.229 246.327C211.774 246.327 212.238 246.194 212.621 245.929C213.005 245.664 213.296 245.283 213.495 244.786C213.694 244.288 213.793 243.692 213.793 242.996C213.793 242.309 213.694 241.708 213.495 241.192C213.301 240.676 213.012 240.276 212.628 239.991C212.25 239.703 211.783 239.558 211.229 239.558C210.656 239.558 210.178 239.707 209.795 240.006C209.411 240.304 209.122 240.714 208.928 241.234C208.734 241.75 208.637 242.338 208.637 242.996C208.637 243.663 208.734 244.248 208.928 244.75C209.127 245.247 209.418 245.635 209.802 245.915C210.19 246.189 210.666 246.327 211.229 246.327ZM218.964 248.5V237.591H221.535V248.5H218.964ZM220.256 236.043C219.849 236.043 219.499 235.908 219.205 235.638C218.912 235.363 218.765 235.034 218.765 234.651C218.765 234.262 218.912 233.933 219.205 233.663C219.499 233.389 219.849 233.251 220.256 233.251C220.668 233.251 221.019 233.389 221.307 233.663C221.601 233.933 221.748 234.262 221.748 234.651C221.748 235.034 221.601 235.363 221.307 235.638C221.019 235.908 220.668 236.043 220.256 236.043ZM232.801 240.474L230.457 240.73C230.391 240.493 230.275 240.271 230.109 240.062C229.948 239.854 229.73 239.686 229.455 239.558C229.181 239.43 228.845 239.366 228.447 239.366C227.912 239.366 227.462 239.482 227.097 239.714C226.738 239.946 226.56 240.247 226.565 240.616C226.56 240.934 226.676 241.192 226.913 241.391C227.154 241.589 227.552 241.753 228.106 241.881L229.967 242.278C230.999 242.501 231.766 242.854 232.268 243.337C232.775 243.82 233.03 244.452 233.035 245.233C233.03 245.92 232.829 246.526 232.431 247.051C232.038 247.572 231.491 247.979 230.791 248.273C230.09 248.566 229.285 248.713 228.376 248.713C227.041 248.713 225.966 248.434 225.151 247.875C224.337 247.312 223.852 246.528 223.695 245.524L226.203 245.283C226.316 245.775 226.558 246.147 226.927 246.398C227.296 246.649 227.777 246.774 228.369 246.774C228.98 246.774 229.47 246.649 229.839 246.398C230.213 246.147 230.4 245.837 230.4 245.467C230.4 245.155 230.279 244.897 230.038 244.693C229.801 244.49 229.432 244.333 228.93 244.224L227.069 243.834C226.023 243.616 225.249 243.249 224.747 242.733C224.245 242.212 223.996 241.554 224.001 240.759C223.996 240.086 224.178 239.504 224.548 239.011C224.922 238.514 225.44 238.131 226.103 237.861C226.771 237.586 227.54 237.449 228.411 237.449C229.69 237.449 230.696 237.721 231.43 238.266C232.169 238.81 232.625 239.546 232.801 240.474ZM240.602 237.591V239.58H234.331V237.591H240.602ZM235.879 234.977H238.45V245.219C238.45 245.564 238.503 245.83 238.607 246.014C238.716 246.194 238.858 246.317 239.033 246.384C239.208 246.45 239.402 246.483 239.615 246.483C239.776 246.483 239.923 246.471 240.056 246.447C240.193 246.424 240.297 246.402 240.368 246.384L240.801 248.393C240.664 248.441 240.468 248.493 240.212 248.55C239.961 248.607 239.653 248.64 239.289 248.649C238.645 248.668 238.065 248.571 237.548 248.358C237.032 248.14 236.623 247.804 236.32 247.349C236.021 246.895 235.875 246.327 235.879 245.645V234.977ZM242.753 248.5V237.591H245.324V248.5H242.753ZM244.045 236.043C243.638 236.043 243.288 235.908 242.994 235.638C242.701 235.363 242.554 235.034 242.554 234.651C242.554 234.262 242.701 233.933 242.994 233.663C243.288 233.389 243.638 233.251 244.045 233.251C244.457 233.251 244.808 233.389 245.096 233.663C245.39 233.933 245.537 234.262 245.537 234.651C245.537 235.034 245.39 235.363 245.096 235.638C244.808 235.908 244.457 236.043 244.045 236.043ZM252.726 248.713C251.637 248.713 250.702 248.474 249.921 247.996C249.144 247.518 248.545 246.857 248.124 246.014C247.707 245.167 247.499 244.191 247.499 243.088C247.499 241.98 247.712 241.002 248.138 240.155C248.564 239.303 249.165 238.64 249.942 238.166C250.723 237.688 251.646 237.449 252.712 237.449C253.597 237.449 254.381 237.612 255.063 237.939C255.749 238.261 256.296 238.718 256.703 239.31C257.11 239.897 257.343 240.583 257.399 241.369H254.942C254.843 240.844 254.606 240.406 254.232 240.055C253.862 239.7 253.368 239.523 252.747 239.523C252.222 239.523 251.76 239.665 251.362 239.949C250.965 240.228 250.655 240.631 250.432 241.156C250.214 241.682 250.105 242.312 250.105 243.045C250.105 243.789 250.214 244.428 250.432 244.963C250.65 245.493 250.955 245.903 251.348 246.192C251.746 246.476 252.212 246.618 252.747 246.618C253.126 246.618 253.465 246.547 253.763 246.405C254.066 246.258 254.319 246.047 254.523 245.773C254.727 245.498 254.866 245.164 254.942 244.771H257.399C257.338 245.543 257.11 246.227 256.718 246.824C256.325 247.416 255.789 247.88 255.112 248.216C254.435 248.547 253.64 248.713 252.726 248.713ZM268.133 240.474L265.789 240.73C265.723 240.493 265.607 240.271 265.441 240.062C265.28 239.854 265.062 239.686 264.787 239.558C264.513 239.43 264.177 239.366 263.779 239.366C263.244 239.366 262.794 239.482 262.43 239.714C262.07 239.946 261.892 240.247 261.897 240.616C261.892 240.934 262.008 241.192 262.245 241.391C262.486 241.589 262.884 241.753 263.438 241.881L265.299 242.278C266.331 242.501 267.098 242.854 267.6 243.337C268.107 243.82 268.362 244.452 268.367 245.233C268.362 245.92 268.161 246.526 267.763 247.051C267.37 247.572 266.823 247.979 266.123 248.273C265.422 248.566 264.617 248.713 263.708 248.713C262.373 248.713 261.298 248.434 260.483 247.875C259.669 247.312 259.184 246.528 259.028 245.524L261.535 245.283C261.648 245.775 261.89 246.147 262.259 246.398C262.628 246.649 263.109 246.774 263.701 246.774C264.312 246.774 264.802 246.649 265.171 246.398C265.545 246.147 265.732 245.837 265.732 245.467C265.732 245.155 265.611 244.897 265.37 244.693C265.133 244.49 264.764 244.333 264.262 244.224L262.401 243.834C261.355 243.616 260.581 243.249 260.079 242.733C259.577 242.212 259.328 241.554 259.333 240.759C259.328 240.086 259.51 239.504 259.88 239.011C260.254 238.514 260.772 238.131 261.435 237.861C262.103 237.586 262.872 237.449 263.743 237.449C265.022 237.449 266.028 237.721 266.762 238.266C267.501 238.81 267.957 239.546 268.133 240.474ZM275.562 233.955H278.786L283.104 244.494H283.275L287.593 233.955H290.817V248.5H288.289V238.507H288.154L284.134 248.457H282.245L278.225 238.486H278.09V248.5H275.562V233.955ZM296.712 248.72C296.021 248.72 295.398 248.597 294.844 248.351C294.295 248.1 293.859 247.731 293.537 247.243C293.22 246.755 293.062 246.154 293.062 245.439C293.062 244.823 293.175 244.314 293.403 243.912C293.63 243.509 293.94 243.188 294.333 242.946C294.726 242.705 295.169 242.522 295.661 242.399C296.158 242.271 296.672 242.179 297.202 242.122C297.841 242.056 298.36 241.997 298.758 241.945C299.155 241.888 299.444 241.803 299.624 241.689C299.809 241.571 299.901 241.388 299.901 241.142V241.099C299.901 240.564 299.742 240.15 299.425 239.857C299.108 239.563 298.651 239.416 298.055 239.416C297.425 239.416 296.925 239.554 296.556 239.828C296.191 240.103 295.945 240.427 295.817 240.801L293.417 240.46C293.606 239.797 293.919 239.243 294.354 238.798C294.79 238.348 295.323 238.012 295.952 237.79C296.582 237.562 297.278 237.449 298.04 237.449C298.566 237.449 299.089 237.51 299.61 237.634C300.131 237.757 300.607 237.96 301.037 238.244C301.468 238.524 301.814 238.905 302.074 239.388C302.34 239.871 302.472 240.474 302.472 241.199V248.5H300.001V247.001H299.915C299.759 247.304 299.539 247.589 299.255 247.854C298.975 248.114 298.623 248.325 298.197 248.486C297.775 248.642 297.28 248.72 296.712 248.72ZM297.38 246.831C297.896 246.831 298.343 246.729 298.722 246.526C299.101 246.317 299.392 246.043 299.596 245.702C299.804 245.361 299.908 244.989 299.908 244.587V243.301C299.828 243.367 299.69 243.429 299.496 243.486C299.307 243.543 299.094 243.592 298.857 243.635C298.62 243.678 298.386 243.715 298.154 243.749C297.922 243.782 297.721 243.81 297.55 243.834C297.167 243.886 296.823 243.971 296.52 244.089C296.217 244.208 295.978 244.374 295.803 244.587C295.628 244.795 295.54 245.065 295.54 245.396C295.54 245.87 295.713 246.227 296.059 246.469C296.404 246.71 296.845 246.831 297.38 246.831ZM307.628 242.108V248.5H305.057V237.591H307.515V239.445H307.643C307.894 238.834 308.294 238.348 308.843 237.989C309.397 237.629 310.081 237.449 310.895 237.449C311.648 237.449 312.304 237.61 312.863 237.932C313.426 238.254 313.862 238.72 314.17 239.331C314.482 239.942 314.636 240.683 314.631 241.554V248.5H312.06V241.952C312.06 241.223 311.871 240.652 311.492 240.24C311.118 239.828 310.599 239.622 309.937 239.622C309.487 239.622 309.087 239.722 308.736 239.92C308.391 240.115 308.118 240.396 307.92 240.766C307.725 241.135 307.628 241.582 307.628 242.108ZM320.384 248.72C319.693 248.72 319.07 248.597 318.516 248.351C317.967 248.1 317.531 247.731 317.209 247.243C316.892 246.755 316.733 246.154 316.733 245.439C316.733 244.823 316.847 244.314 317.074 243.912C317.302 243.509 317.612 243.188 318.005 242.946C318.398 242.705 318.84 242.522 319.333 242.399C319.83 242.271 320.344 242.179 320.874 242.122C321.513 242.056 322.032 241.997 322.43 241.945C322.827 241.888 323.116 241.803 323.296 241.689C323.481 241.571 323.573 241.388 323.573 241.142V241.099C323.573 240.564 323.414 240.15 323.097 239.857C322.78 239.563 322.323 239.416 321.726 239.416C321.097 239.416 320.597 239.554 320.228 239.828C319.863 240.103 319.617 240.427 319.489 240.801L317.089 240.46C317.278 239.797 317.59 239.243 318.026 238.798C318.462 238.348 318.994 238.012 319.624 237.79C320.254 237.562 320.95 237.449 321.712 237.449C322.238 237.449 322.761 237.51 323.282 237.634C323.803 237.757 324.278 237.96 324.709 238.244C325.14 238.524 325.486 238.905 325.746 239.388C326.011 239.871 326.144 240.474 326.144 241.199V248.5H323.672V247.001H323.587C323.431 247.304 323.211 247.589 322.927 247.854C322.647 248.114 322.295 248.325 321.868 248.486C321.447 248.642 320.952 248.72 320.384 248.72ZM321.052 246.831C321.568 246.831 322.015 246.729 322.394 246.526C322.773 246.317 323.064 246.043 323.268 245.702C323.476 245.361 323.58 244.989 323.58 244.587V243.301C323.5 243.367 323.362 243.429 323.168 243.486C322.979 243.543 322.766 243.592 322.529 243.635C322.292 243.678 322.058 243.715 321.826 243.749C321.594 243.782 321.393 243.81 321.222 243.834C320.839 243.886 320.495 243.971 320.192 244.089C319.889 244.208 319.65 244.374 319.475 244.587C319.3 244.795 319.212 245.065 319.212 245.396C319.212 245.87 319.385 246.227 319.731 246.469C320.076 246.71 320.517 246.831 321.052 246.831ZM333.474 252.818C332.55 252.818 331.757 252.693 331.094 252.442C330.431 252.196 329.899 251.864 329.496 251.447C329.094 251.031 328.814 250.569 328.658 250.062L330.974 249.501C331.078 249.714 331.229 249.925 331.428 250.134C331.627 250.347 331.894 250.522 332.231 250.659C332.572 250.801 333 250.872 333.516 250.872C334.245 250.872 334.849 250.695 335.327 250.339C335.805 249.989 336.045 249.411 336.045 248.607V246.54H335.917C335.784 246.805 335.59 247.077 335.334 247.357C335.083 247.636 334.75 247.87 334.333 248.06C333.921 248.249 333.403 248.344 332.778 248.344C331.939 248.344 331.18 248.147 330.498 247.754C329.821 247.357 329.281 246.765 328.878 245.979C328.481 245.188 328.282 244.198 328.282 243.01C328.282 241.812 328.481 240.801 328.878 239.977C329.281 239.149 329.823 238.521 330.505 238.095C331.187 237.664 331.947 237.449 332.785 237.449C333.424 237.449 333.949 237.558 334.361 237.776C334.778 237.989 335.109 238.247 335.356 238.55C335.602 238.848 335.789 239.13 335.917 239.395H336.059V237.591H338.594V248.678C338.594 249.61 338.372 250.382 337.927 250.993C337.482 251.604 336.873 252.061 336.101 252.364C335.33 252.667 334.454 252.818 333.474 252.818ZM333.495 246.327C334.039 246.327 334.503 246.194 334.887 245.929C335.27 245.664 335.562 245.283 335.76 244.786C335.959 244.288 336.059 243.692 336.059 242.996C336.059 242.309 335.959 241.708 335.76 241.192C335.566 240.676 335.278 240.276 334.894 239.991C334.515 239.703 334.049 239.558 333.495 239.558C332.922 239.558 332.444 239.707 332.06 240.006C331.677 240.304 331.388 240.714 331.194 241.234C331 241.75 330.903 242.338 330.903 242.996C330.903 243.663 331 244.248 331.194 244.75C331.393 245.247 331.684 245.635 332.067 245.915C332.456 246.189 332.931 246.327 333.495 246.327ZM346.059 248.713C344.965 248.713 344.02 248.486 343.225 248.031C342.434 247.572 341.826 246.923 341.4 246.085C340.974 245.242 340.76 244.25 340.76 243.109C340.76 241.987 340.974 241.002 341.4 240.155C341.831 239.303 342.432 238.64 343.204 238.166C343.975 237.688 344.882 237.449 345.924 237.449C346.596 237.449 347.231 237.558 347.827 237.776C348.429 237.989 348.959 238.32 349.418 238.77C349.882 239.22 350.247 239.793 350.512 240.489C350.777 241.18 350.91 242.004 350.91 242.96V243.749H341.968V242.016H348.445C348.44 241.523 348.334 241.085 348.126 240.702C347.917 240.313 347.626 240.008 347.252 239.786C346.883 239.563 346.452 239.452 345.959 239.452C345.434 239.452 344.972 239.58 344.574 239.835C344.177 240.086 343.867 240.418 343.644 240.83C343.426 241.237 343.315 241.684 343.31 242.172V243.685C343.31 244.319 343.426 244.864 343.658 245.318C343.89 245.768 344.215 246.114 344.631 246.355C345.048 246.592 345.536 246.71 346.094 246.71C346.468 246.71 346.807 246.658 347.11 246.554C347.413 246.445 347.676 246.286 347.898 246.078C348.121 245.87 348.289 245.612 348.403 245.304L350.803 245.574C350.652 246.208 350.363 246.762 349.937 247.236C349.515 247.705 348.975 248.069 348.317 248.33C347.659 248.585 346.906 248.713 346.059 248.713ZM353.085 248.5V237.591H355.542V239.445H355.67C355.897 238.82 356.274 238.332 356.799 237.982C357.325 237.626 357.952 237.449 358.681 237.449C359.42 237.449 360.043 237.629 360.549 237.989C361.061 238.344 361.42 238.829 361.629 239.445H361.742C361.984 238.839 362.391 238.356 362.964 237.996C363.542 237.631 364.226 237.449 365.017 237.449C366.02 237.449 366.839 237.766 367.474 238.401C368.108 239.035 368.426 239.961 368.426 241.178V248.5H365.847V241.575C365.847 240.898 365.668 240.403 365.308 240.091C364.948 239.774 364.508 239.615 363.987 239.615C363.366 239.615 362.881 239.809 362.531 240.197C362.185 240.581 362.012 241.08 362.012 241.696V248.5H359.491V241.469C359.491 240.905 359.32 240.455 358.98 240.119C358.643 239.783 358.203 239.615 357.659 239.615C357.289 239.615 356.953 239.71 356.65 239.899C356.347 240.084 356.106 240.347 355.926 240.688C355.746 241.024 355.656 241.417 355.656 241.866V248.5H353.085ZM375.863 248.713C374.77 248.713 373.825 248.486 373.03 248.031C372.239 247.572 371.631 246.923 371.204 246.085C370.778 245.242 370.565 244.25 370.565 243.109C370.565 241.987 370.778 241.002 371.204 240.155C371.635 239.303 372.237 238.64 373.008 238.166C373.78 237.688 374.687 237.449 375.729 237.449C376.401 237.449 377.035 237.558 377.632 237.776C378.233 237.989 378.764 238.32 379.223 238.77C379.687 239.22 380.051 239.793 380.317 240.489C380.582 241.18 380.714 242.004 380.714 242.96V243.749H371.773V242.016H378.25C378.245 241.523 378.139 241.085 377.93 240.702C377.722 240.313 377.431 240.008 377.057 239.786C376.687 239.563 376.256 239.452 375.764 239.452C375.238 239.452 374.777 239.58 374.379 239.835C373.981 240.086 373.671 240.418 373.449 240.83C373.231 241.237 373.12 241.684 373.115 242.172V243.685C373.115 244.319 373.231 244.864 373.463 245.318C373.695 245.768 374.019 246.114 374.436 246.355C374.853 246.592 375.34 246.71 375.899 246.71C376.273 246.71 376.612 246.658 376.915 246.554C377.218 246.445 377.48 246.286 377.703 246.078C377.925 245.87 378.094 245.612 378.207 245.304L380.608 245.574C380.456 246.208 380.167 246.762 379.741 247.236C379.32 247.705 378.78 248.069 378.122 248.33C377.464 248.585 376.711 248.713 375.863 248.713ZM385.46 242.108V248.5H382.889V237.591H385.347V239.445H385.475C385.726 238.834 386.126 238.348 386.675 237.989C387.229 237.629 387.913 237.449 388.727 237.449C389.48 237.449 390.136 237.61 390.695 237.932C391.258 238.254 391.694 238.72 392.002 239.331C392.314 239.942 392.468 240.683 392.463 241.554V248.5H389.892V241.952C389.892 241.223 389.703 240.652 389.324 240.24C388.95 239.828 388.432 239.622 387.769 239.622C387.319 239.622 386.919 239.722 386.568 239.92C386.223 240.115 385.95 240.396 385.752 240.766C385.557 241.135 385.46 241.582 385.46 242.108ZM400.524 237.591V239.58H394.253V237.591H400.524ZM395.801 234.977H398.372V245.219C398.372 245.564 398.424 245.83 398.529 246.014C398.637 246.194 398.78 246.317 398.955 246.384C399.13 246.45 399.324 246.483 399.537 246.483C399.698 246.483 399.845 246.471 399.977 246.447C400.115 246.424 400.219 246.402 400.29 246.384L400.723 248.393C400.586 248.441 400.389 248.493 400.134 248.55C399.883 248.607 399.575 248.64 399.21 248.649C398.566 248.668 397.986 248.571 397.47 248.358C396.954 248.14 396.545 247.804 396.242 247.349C395.943 246.895 395.797 246.327 395.801 245.645V234.977Z" fill="#F9FAFB"/>
<path d="M211.96 282.5L208.778 270.864H210.21L212.642 280.341H212.756L215.233 270.864H216.824L219.301 280.341H219.415L221.847 270.864H223.278L220.097 282.5H218.642L216.074 273.227H215.983L213.415 282.5H211.96ZM227.699 282.682C226.858 282.682 226.133 282.496 225.523 282.125C224.917 281.75 224.449 281.227 224.119 280.557C223.794 279.883 223.631 279.098 223.631 278.205C223.631 277.311 223.794 276.523 224.119 275.841C224.449 275.155 224.907 274.621 225.494 274.239C226.085 273.852 226.775 273.659 227.562 273.659C228.017 273.659 228.466 273.735 228.909 273.886C229.352 274.038 229.756 274.284 230.119 274.625C230.483 274.962 230.773 275.409 230.989 275.966C231.205 276.523 231.312 277.208 231.312 278.023V278.591H224.585V277.432H229.949C229.949 276.939 229.85 276.5 229.653 276.114C229.46 275.727 229.184 275.422 228.824 275.199C228.468 274.975 228.047 274.864 227.562 274.864C227.028 274.864 226.566 274.996 226.176 275.261C225.79 275.523 225.492 275.864 225.284 276.284C225.076 276.705 224.972 277.155 224.972 277.636V278.409C224.972 279.068 225.085 279.627 225.312 280.085C225.544 280.54 225.864 280.886 226.273 281.125C226.682 281.36 227.157 281.477 227.699 281.477C228.051 281.477 228.369 281.428 228.653 281.33C228.941 281.227 229.189 281.076 229.398 280.875C229.606 280.67 229.767 280.417 229.881 280.114L231.176 280.477C231.04 280.917 230.811 281.303 230.489 281.636C230.167 281.966 229.769 282.223 229.295 282.409C228.822 282.591 228.29 282.682 227.699 282.682ZM239.193 277.25V282.5H237.852V270.864H239.193V275.136H239.307C239.511 274.686 239.818 274.328 240.227 274.062C240.64 273.794 241.189 273.659 241.875 273.659C242.47 273.659 242.991 273.778 243.438 274.017C243.884 274.252 244.231 274.614 244.477 275.102C244.727 275.587 244.852 276.205 244.852 276.955V282.5H243.511V277.045C243.511 276.352 243.331 275.816 242.972 275.438C242.616 275.055 242.121 274.864 241.489 274.864C241.049 274.864 240.655 274.956 240.307 275.142C239.962 275.328 239.689 275.598 239.489 275.955C239.292 276.311 239.193 276.742 239.193 277.25ZM249.874 282.705C249.321 282.705 248.819 282.6 248.368 282.392C247.917 282.18 247.559 281.875 247.294 281.477C247.029 281.076 246.896 280.591 246.896 280.023C246.896 279.523 246.995 279.117 247.192 278.807C247.389 278.492 247.652 278.246 247.982 278.068C248.311 277.89 248.675 277.758 249.072 277.67C249.474 277.58 249.877 277.508 250.283 277.455C250.813 277.386 251.243 277.335 251.572 277.301C251.906 277.263 252.148 277.201 252.3 277.114C252.455 277.027 252.533 276.875 252.533 276.659V276.614C252.533 276.053 252.379 275.617 252.072 275.307C251.769 274.996 251.309 274.841 250.692 274.841C250.052 274.841 249.55 274.981 249.186 275.261C248.822 275.542 248.567 275.841 248.419 276.159L247.146 275.705C247.374 275.174 247.677 274.761 248.055 274.466C248.438 274.167 248.855 273.958 249.305 273.841C249.76 273.72 250.207 273.659 250.646 273.659C250.927 273.659 251.249 273.693 251.612 273.761C251.98 273.826 252.334 273.96 252.675 274.165C253.019 274.369 253.305 274.678 253.533 275.091C253.76 275.504 253.874 276.057 253.874 276.75V282.5H252.533V281.318H252.464C252.374 281.508 252.222 281.71 252.01 281.926C251.798 282.142 251.516 282.326 251.163 282.477C250.811 282.629 250.381 282.705 249.874 282.705ZM250.078 281.5C250.608 281.5 251.055 281.396 251.419 281.188C251.786 280.979 252.063 280.71 252.249 280.381C252.438 280.051 252.533 279.705 252.533 279.341V278.114C252.476 278.182 252.351 278.244 252.158 278.301C251.968 278.354 251.749 278.402 251.499 278.443C251.252 278.481 251.012 278.515 250.777 278.545C250.546 278.572 250.358 278.595 250.214 278.614C249.866 278.659 249.54 278.733 249.237 278.835C248.938 278.934 248.696 279.083 248.51 279.284C248.328 279.481 248.237 279.75 248.237 280.091C248.237 280.557 248.41 280.909 248.754 281.148C249.103 281.383 249.544 281.5 250.078 281.5ZM257.662 277.25V282.5H256.321V273.773H257.616V275.136H257.73C257.935 274.693 258.245 274.337 258.662 274.068C259.079 273.795 259.616 273.659 260.276 273.659C260.866 273.659 261.384 273.78 261.827 274.023C262.27 274.261 262.615 274.625 262.861 275.114C263.107 275.598 263.23 276.212 263.23 276.955V282.5H261.889V277.045C261.889 276.36 261.711 275.826 261.355 275.443C260.999 275.057 260.51 274.864 259.889 274.864C259.461 274.864 259.079 274.956 258.741 275.142C258.408 275.328 258.145 275.598 257.952 275.955C257.759 276.311 257.662 276.742 257.662 277.25ZM268.976 282.682C268.249 282.682 267.607 282.498 267.05 282.131C266.493 281.759 266.057 281.237 265.743 280.562C265.429 279.884 265.271 279.083 265.271 278.159C265.271 277.242 265.429 276.447 265.743 275.773C266.057 275.098 266.495 274.578 267.055 274.21C267.616 273.843 268.264 273.659 268.999 273.659C269.567 273.659 270.016 273.754 270.345 273.943C270.679 274.129 270.932 274.341 271.107 274.58C271.285 274.814 271.423 275.008 271.521 275.159H271.635V270.864H272.976V282.5H271.68V281.159H271.521C271.423 281.318 271.283 281.519 271.101 281.761C270.919 282 270.66 282.214 270.322 282.403C269.985 282.589 269.536 282.682 268.976 282.682ZM269.158 281.477C269.696 281.477 270.15 281.337 270.521 281.057C270.893 280.773 271.175 280.381 271.368 279.881C271.561 279.377 271.658 278.795 271.658 278.136C271.658 277.485 271.563 276.915 271.374 276.426C271.184 275.934 270.904 275.551 270.533 275.278C270.161 275.002 269.703 274.864 269.158 274.864C268.589 274.864 268.116 275.009 267.737 275.301C267.362 275.589 267.08 275.981 266.891 276.477C266.705 276.97 266.612 277.523 266.612 278.136C266.612 278.758 266.707 279.322 266.896 279.83C267.089 280.333 267.374 280.735 267.749 281.034C268.127 281.33 268.597 281.477 269.158 281.477ZM276.959 270.864V282.5H275.618V270.864H276.959ZM283.074 282.682C282.233 282.682 281.508 282.496 280.898 282.125C280.292 281.75 279.824 281.227 279.494 280.557C279.169 279.883 279.006 279.098 279.006 278.205C279.006 277.311 279.169 276.523 279.494 275.841C279.824 275.155 280.282 274.621 280.869 274.239C281.46 273.852 282.15 273.659 282.938 273.659C283.392 273.659 283.841 273.735 284.284 273.886C284.727 274.038 285.131 274.284 285.494 274.625C285.858 274.962 286.148 275.409 286.364 275.966C286.58 276.523 286.688 277.208 286.688 278.023V278.591H279.96V277.432H285.324C285.324 276.939 285.225 276.5 285.028 276.114C284.835 275.727 284.559 275.422 284.199 275.199C283.843 274.975 283.422 274.864 282.938 274.864C282.403 274.864 281.941 274.996 281.551 275.261C281.165 275.523 280.867 275.864 280.659 276.284C280.451 276.705 280.347 277.155 280.347 277.636V278.409C280.347 279.068 280.46 279.627 280.688 280.085C280.919 280.54 281.239 280.886 281.648 281.125C282.057 281.36 282.532 281.477 283.074 281.477C283.426 281.477 283.744 281.428 284.028 281.33C284.316 281.227 284.564 281.076 284.773 280.875C284.981 280.67 285.142 280.417 285.256 280.114L286.551 280.477C286.415 280.917 286.186 281.303 285.864 281.636C285.542 281.966 285.144 282.223 284.67 282.409C284.197 282.591 283.665 282.682 283.074 282.682ZM293.227 285.773V273.773H294.523V275.159H294.682C294.78 275.008 294.917 274.814 295.091 274.58C295.269 274.341 295.523 274.129 295.852 273.943C296.186 273.754 296.636 273.659 297.205 273.659C297.939 273.659 298.587 273.843 299.148 274.21C299.708 274.578 300.146 275.098 300.46 275.773C300.775 276.447 300.932 277.242 300.932 278.159C300.932 279.083 300.775 279.884 300.46 280.562C300.146 281.237 299.71 281.759 299.153 282.131C298.597 282.498 297.955 282.682 297.227 282.682C296.667 282.682 296.218 282.589 295.881 282.403C295.544 282.214 295.284 282 295.102 281.761C294.92 281.519 294.78 281.318 294.682 281.159H294.568V285.773H293.227ZM294.545 278.136C294.545 278.795 294.642 279.377 294.835 279.881C295.028 280.381 295.311 280.773 295.682 281.057C296.053 281.337 296.508 281.477 297.045 281.477C297.606 281.477 298.074 281.33 298.449 281.034C298.828 280.735 299.112 280.333 299.301 279.83C299.494 279.322 299.591 278.758 299.591 278.136C299.591 277.523 299.496 276.97 299.307 276.477C299.121 275.981 298.839 275.589 298.46 275.301C298.085 275.009 297.614 274.864 297.045 274.864C296.5 274.864 296.042 275.002 295.67 275.278C295.299 275.551 295.019 275.934 294.83 276.426C294.64 276.915 294.545 277.485 294.545 278.136ZM305.545 282.705C304.992 282.705 304.491 282.6 304.04 282.392C303.589 282.18 303.231 281.875 302.966 281.477C302.701 281.076 302.568 280.591 302.568 280.023C302.568 279.523 302.667 279.117 302.864 278.807C303.061 278.492 303.324 278.246 303.653 278.068C303.983 277.89 304.347 277.758 304.744 277.67C305.146 277.58 305.549 277.508 305.955 277.455C306.485 277.386 306.915 277.335 307.244 277.301C307.578 277.263 307.82 277.201 307.972 277.114C308.127 277.027 308.205 276.875 308.205 276.659V276.614C308.205 276.053 308.051 275.617 307.744 275.307C307.441 274.996 306.981 274.841 306.364 274.841C305.723 274.841 305.222 274.981 304.858 275.261C304.494 275.542 304.239 275.841 304.091 276.159L302.818 275.705C303.045 275.174 303.348 274.761 303.727 274.466C304.11 274.167 304.527 273.958 304.977 273.841C305.432 273.72 305.879 273.659 306.318 273.659C306.598 273.659 306.92 273.693 307.284 273.761C307.652 273.826 308.006 273.96 308.347 274.165C308.691 274.369 308.977 274.678 309.205 275.091C309.432 275.504 309.545 276.057 309.545 276.75V282.5H308.205V281.318H308.136C308.045 281.508 307.894 281.71 307.682 281.926C307.47 282.142 307.188 282.326 306.835 282.477C306.483 282.629 306.053 282.705 305.545 282.705ZM305.75 281.5C306.28 281.5 306.727 281.396 307.091 281.188C307.458 280.979 307.735 280.71 307.92 280.381C308.11 280.051 308.205 279.705 308.205 279.341V278.114C308.148 278.182 308.023 278.244 307.83 278.301C307.64 278.354 307.42 278.402 307.17 278.443C306.924 278.481 306.684 278.515 306.449 278.545C306.218 278.572 306.03 278.595 305.886 278.614C305.538 278.659 305.212 278.733 304.909 278.835C304.61 278.934 304.367 279.083 304.182 279.284C304 279.481 303.909 279.75 303.909 280.091C303.909 280.557 304.081 280.909 304.426 281.148C304.775 281.383 305.216 281.5 305.75 281.5ZM315.538 282.682C314.72 282.682 314.016 282.489 313.425 282.102C312.834 281.716 312.379 281.184 312.061 280.506C311.743 279.828 311.584 279.053 311.584 278.182C311.584 277.295 311.747 276.513 312.072 275.835C312.402 275.153 312.86 274.621 313.447 274.239C314.038 273.852 314.728 273.659 315.516 273.659C316.129 273.659 316.682 273.773 317.175 274C317.667 274.227 318.071 274.545 318.385 274.955C318.699 275.364 318.894 275.841 318.97 276.386H317.629C317.527 275.989 317.3 275.636 316.947 275.33C316.599 275.019 316.129 274.864 315.538 274.864C315.016 274.864 314.557 275 314.163 275.273C313.773 275.542 313.468 275.922 313.249 276.415C313.033 276.903 312.925 277.477 312.925 278.136C312.925 278.811 313.031 279.398 313.243 279.898C313.459 280.398 313.762 280.786 314.152 281.062C314.546 281.339 315.008 281.477 315.538 281.477C315.887 281.477 316.203 281.417 316.487 281.295C316.771 281.174 317.012 281 317.209 280.773C317.406 280.545 317.546 280.273 317.629 279.955H318.97C318.894 280.47 318.707 280.934 318.408 281.347C318.112 281.756 317.72 282.081 317.232 282.324C316.747 282.562 316.182 282.682 315.538 282.682ZM322.18 279.318L322.158 277.659H322.43L326.249 273.773H327.908L323.839 277.886H323.726L322.18 279.318ZM320.93 282.5V270.864H322.271V282.5H320.93ZM326.476 282.5L323.067 278.182L324.021 277.25L328.18 282.5H326.476ZM332.202 282.705C331.649 282.705 331.147 282.6 330.696 282.392C330.245 282.18 329.887 281.875 329.622 281.477C329.357 281.076 329.224 280.591 329.224 280.023C329.224 279.523 329.323 279.117 329.52 278.807C329.717 278.492 329.98 278.246 330.31 278.068C330.639 277.89 331.003 277.758 331.401 277.67C331.802 277.58 332.205 277.508 332.611 277.455C333.141 277.386 333.571 277.335 333.901 277.301C334.234 277.263 334.476 277.201 334.628 277.114C334.783 277.027 334.861 276.875 334.861 276.659V276.614C334.861 276.053 334.707 275.617 334.401 275.307C334.098 274.996 333.637 274.841 333.02 274.841C332.38 274.841 331.878 274.981 331.514 275.261C331.151 275.542 330.895 275.841 330.747 276.159L329.474 275.705C329.702 275.174 330.005 274.761 330.384 274.466C330.766 274.167 331.183 273.958 331.634 273.841C332.088 273.72 332.535 273.659 332.974 273.659C333.255 273.659 333.577 273.693 333.94 273.761C334.308 273.826 334.662 273.96 335.003 274.165C335.348 274.369 335.634 274.678 335.861 275.091C336.088 275.504 336.202 276.057 336.202 276.75V282.5H334.861V281.318H334.793C334.702 281.508 334.55 281.71 334.338 281.926C334.126 282.142 333.844 282.326 333.491 282.477C333.139 282.629 332.709 282.705 332.202 282.705ZM332.406 281.5C332.937 281.5 333.384 281.396 333.747 281.188C334.115 280.979 334.391 280.71 334.577 280.381C334.766 280.051 334.861 279.705 334.861 279.341V278.114C334.804 278.182 334.679 278.244 334.486 278.301C334.296 278.354 334.077 278.402 333.827 278.443C333.58 278.481 333.34 278.515 333.105 278.545C332.874 278.572 332.687 278.595 332.543 278.614C332.194 278.659 331.868 278.733 331.565 278.835C331.266 278.934 331.024 279.083 330.838 279.284C330.656 279.481 330.565 279.75 330.565 280.091C330.565 280.557 330.738 280.909 331.082 281.148C331.431 281.383 331.872 281.5 332.406 281.5ZM342.172 285.955C341.524 285.955 340.967 285.871 340.501 285.705C340.036 285.542 339.647 285.326 339.337 285.057C339.03 284.792 338.786 284.508 338.604 284.205L339.672 283.455C339.793 283.614 339.946 283.795 340.132 284C340.318 284.208 340.571 284.388 340.893 284.54C341.219 284.695 341.645 284.773 342.172 284.773C342.876 284.773 343.458 284.602 343.916 284.261C344.375 283.92 344.604 283.386 344.604 282.659V280.886H344.49C344.392 281.045 344.251 281.242 344.07 281.477C343.892 281.708 343.634 281.915 343.297 282.097C342.964 282.275 342.513 282.364 341.945 282.364C341.24 282.364 340.607 282.197 340.047 281.864C339.49 281.53 339.049 281.045 338.723 280.409C338.401 279.773 338.24 279 338.24 278.091C338.24 277.197 338.397 276.419 338.712 275.756C339.026 275.089 339.464 274.574 340.024 274.21C340.585 273.843 341.232 273.659 341.967 273.659C342.536 273.659 342.986 273.754 343.32 273.943C343.657 274.129 343.914 274.341 344.092 274.58C344.274 274.814 344.414 275.008 344.513 275.159H344.649V273.773H345.945V282.75C345.945 283.5 345.774 284.11 345.433 284.58C345.096 285.053 344.642 285.4 344.07 285.619C343.501 285.843 342.869 285.955 342.172 285.955ZM342.126 281.159C342.664 281.159 343.119 281.036 343.49 280.79C343.861 280.544 344.143 280.189 344.337 279.727C344.53 279.265 344.626 278.712 344.626 278.068C344.626 277.439 344.532 276.884 344.342 276.403C344.153 275.922 343.873 275.545 343.501 275.273C343.13 275 342.672 274.864 342.126 274.864C341.558 274.864 341.085 275.008 340.706 275.295C340.331 275.583 340.049 275.97 339.859 276.455C339.674 276.939 339.581 277.477 339.581 278.068C339.581 278.674 339.676 279.21 339.865 279.676C340.058 280.138 340.342 280.502 340.717 280.767C341.096 281.028 341.566 281.159 342.126 281.159ZM348.399 282.5V273.773H349.74V282.5H348.399ZM349.081 272.318C348.82 272.318 348.594 272.229 348.405 272.051C348.219 271.873 348.126 271.659 348.126 271.409C348.126 271.159 348.219 270.945 348.405 270.767C348.594 270.589 348.82 270.5 349.081 270.5C349.342 270.5 349.566 270.589 349.751 270.767C349.941 270.945 350.036 271.159 350.036 271.409C350.036 271.659 349.941 271.873 349.751 272.051C349.566 272.229 349.342 272.318 349.081 272.318ZM353.537 277.25V282.5H352.196V273.773H353.491V275.136H353.605C353.81 274.693 354.12 274.337 354.537 274.068C354.954 273.795 355.491 273.659 356.151 273.659C356.741 273.659 357.259 273.78 357.702 274.023C358.145 274.261 358.49 274.625 358.736 275.114C358.982 275.598 359.105 276.212 359.105 276.955V282.5H357.764V277.045C357.764 276.36 357.586 275.826 357.23 275.443C356.874 275.057 356.385 274.864 355.764 274.864C355.336 274.864 354.954 274.956 354.616 275.142C354.283 275.328 354.02 275.598 353.827 275.955C353.634 276.311 353.537 276.742 353.537 277.25ZM365.078 285.955C364.43 285.955 363.874 285.871 363.408 285.705C362.942 285.542 362.554 285.326 362.243 285.057C361.936 284.792 361.692 284.508 361.51 284.205L362.578 283.455C362.699 283.614 362.853 283.795 363.038 284C363.224 284.208 363.478 284.388 363.8 284.54C364.125 284.695 364.552 284.773 365.078 284.773C365.783 284.773 366.364 284.602 366.822 284.261C367.281 283.92 367.51 283.386 367.51 282.659V280.886H367.396C367.298 281.045 367.158 281.242 366.976 281.477C366.798 281.708 366.54 281.915 366.203 282.097C365.87 282.275 365.419 282.364 364.851 282.364C364.146 282.364 363.514 282.197 362.953 281.864C362.396 281.53 361.955 281.045 361.629 280.409C361.307 279.773 361.146 279 361.146 278.091C361.146 277.197 361.304 276.419 361.618 275.756C361.932 275.089 362.37 274.574 362.93 274.21C363.491 273.843 364.139 273.659 364.874 273.659C365.442 273.659 365.893 273.754 366.226 273.943C366.563 274.129 366.821 274.341 366.999 274.58C367.18 274.814 367.321 275.008 367.419 275.159H367.555V273.773H368.851V282.75C368.851 283.5 368.68 284.11 368.339 284.58C368.002 285.053 367.548 285.4 366.976 285.619C366.408 285.843 365.775 285.955 365.078 285.955ZM365.033 281.159C365.571 281.159 366.025 281.036 366.396 280.79C366.768 280.544 367.05 280.189 367.243 279.727C367.436 279.265 367.533 278.712 367.533 278.068C367.533 277.439 367.438 276.884 367.249 276.403C367.059 275.922 366.779 275.545 366.408 275.273C366.036 275 365.578 274.864 365.033 274.864C364.464 274.864 363.991 275.008 363.612 275.295C363.237 275.583 362.955 275.97 362.766 276.455C362.58 276.939 362.487 277.477 362.487 278.068C362.487 278.674 362.582 279.21 362.771 279.676C362.964 280.138 363.249 280.502 363.624 280.767C364.002 281.028 364.472 281.159 365.033 281.159ZM373.305 280.909L373.214 281.523C373.15 281.955 373.052 282.417 372.919 282.909C372.79 283.402 372.656 283.866 372.516 284.301C372.375 284.737 372.26 285.083 372.169 285.341H371.146C371.196 285.098 371.26 284.778 371.339 284.381C371.419 283.983 371.499 283.538 371.578 283.045C371.661 282.557 371.73 282.057 371.783 281.545L371.851 280.909H373.305ZM178.648 306.682C177.92 306.682 177.278 306.498 176.722 306.131C176.165 305.759 175.729 305.237 175.415 304.562C175.1 303.884 174.943 303.083 174.943 302.159C174.943 301.242 175.1 300.447 175.415 299.773C175.729 299.098 176.167 298.578 176.727 298.21C177.288 297.843 177.936 297.659 178.67 297.659C179.239 297.659 179.688 297.754 180.017 297.943C180.35 298.129 180.604 298.341 180.778 298.58C180.956 298.814 181.095 299.008 181.193 299.159H181.307V294.864H182.648V306.5H181.352V305.159H181.193C181.095 305.318 180.955 305.519 180.773 305.761C180.591 306 180.331 306.214 179.994 306.403C179.657 306.589 179.208 306.682 178.648 306.682ZM178.83 305.477C179.367 305.477 179.822 305.337 180.193 305.057C180.564 304.773 180.847 304.381 181.04 303.881C181.233 303.377 181.33 302.795 181.33 302.136C181.33 301.485 181.235 300.915 181.045 300.426C180.856 299.934 180.576 299.551 180.205 299.278C179.833 299.002 179.375 298.864 178.83 298.864C178.261 298.864 177.788 299.009 177.409 299.301C177.034 299.589 176.752 299.981 176.562 300.477C176.377 300.97 176.284 301.523 176.284 302.136C176.284 302.758 176.379 303.322 176.568 303.83C176.761 304.333 177.045 304.735 177.42 305.034C177.799 305.33 178.269 305.477 178.83 305.477ZM188.835 306.682C188.047 306.682 187.356 306.494 186.761 306.119C186.17 305.744 185.708 305.22 185.375 304.545C185.045 303.871 184.881 303.083 184.881 302.182C184.881 301.273 185.045 300.479 185.375 299.801C185.708 299.123 186.17 298.597 186.761 298.222C187.356 297.847 188.047 297.659 188.835 297.659C189.623 297.659 190.313 297.847 190.903 298.222C191.498 298.597 191.96 299.123 192.29 299.801C192.623 300.479 192.79 301.273 192.79 302.182C192.79 303.083 192.623 303.871 192.29 304.545C191.96 305.22 191.498 305.744 190.903 306.119C190.313 306.494 189.623 306.682 188.835 306.682ZM188.835 305.477C189.434 305.477 189.926 305.324 190.312 305.017C190.699 304.71 190.985 304.307 191.17 303.807C191.356 303.307 191.449 302.765 191.449 302.182C191.449 301.598 191.356 301.055 191.17 300.551C190.985 300.047 190.699 299.64 190.312 299.33C189.926 299.019 189.434 298.864 188.835 298.864C188.237 298.864 187.744 299.019 187.358 299.33C186.972 299.64 186.686 300.047 186.5 300.551C186.314 301.055 186.222 301.598 186.222 302.182C186.222 302.765 186.314 303.307 186.5 303.807C186.686 304.307 186.972 304.71 187.358 305.017C187.744 305.324 188.237 305.477 188.835 305.477ZM198.382 306.682C197.564 306.682 196.859 306.489 196.268 306.102C195.678 305.716 195.223 305.184 194.905 304.506C194.587 303.828 194.428 303.053 194.428 302.182C194.428 301.295 194.59 300.513 194.916 299.835C195.246 299.153 195.704 298.621 196.291 298.239C196.882 297.852 197.571 297.659 198.359 297.659C198.973 297.659 199.526 297.773 200.018 298C200.511 298.227 200.914 298.545 201.229 298.955C201.543 299.364 201.738 299.841 201.814 300.386H200.473C200.371 299.989 200.143 299.636 199.791 299.33C199.443 299.019 198.973 298.864 198.382 298.864C197.859 298.864 197.401 299 197.007 299.273C196.617 299.542 196.312 299.922 196.092 300.415C195.876 300.903 195.768 301.477 195.768 302.136C195.768 302.811 195.875 303.398 196.087 303.898C196.303 304.398 196.606 304.786 196.996 305.062C197.39 305.339 197.852 305.477 198.382 305.477C198.731 305.477 199.047 305.417 199.331 305.295C199.615 305.174 199.856 305 200.053 304.773C200.25 304.545 200.39 304.273 200.473 303.955H201.814C201.738 304.47 201.551 304.934 201.251 305.347C200.956 305.756 200.564 306.081 200.075 306.324C199.59 306.562 199.026 306.682 198.382 306.682ZM209.274 302.932V297.773H210.615V306.5H209.274V305.023H209.183C208.979 305.466 208.661 305.843 208.229 306.153C207.797 306.46 207.251 306.614 206.592 306.614C206.047 306.614 205.562 306.494 205.138 306.256C204.714 306.013 204.38 305.65 204.138 305.165C203.895 304.676 203.774 304.061 203.774 303.318V297.773H205.115V303.227C205.115 303.864 205.293 304.371 205.649 304.75C206.009 305.129 206.467 305.318 207.024 305.318C207.357 305.318 207.696 305.233 208.041 305.062C208.39 304.892 208.681 304.631 208.916 304.278C209.155 303.926 209.274 303.477 209.274 302.932ZM213.071 306.5V297.773H214.366V299.136H214.48C214.662 298.67 214.955 298.309 215.361 298.051C215.766 297.79 216.253 297.659 216.821 297.659C217.397 297.659 217.876 297.79 218.259 298.051C218.645 298.309 218.946 298.67 219.162 299.136H219.253C219.476 298.686 219.812 298.328 220.259 298.062C220.705 297.794 221.241 297.659 221.866 297.659C222.647 297.659 223.285 297.903 223.781 298.392C224.277 298.877 224.526 299.633 224.526 300.659V306.5H223.185V300.659C223.185 300.015 223.009 299.555 222.656 299.278C222.304 299.002 221.889 298.864 221.412 298.864C220.798 298.864 220.323 299.049 219.986 299.42C219.649 299.788 219.48 300.254 219.48 300.818V306.5H218.116V300.523C218.116 300.027 217.955 299.627 217.634 299.324C217.312 299.017 216.897 298.864 216.389 298.864C216.041 298.864 215.715 298.956 215.412 299.142C215.113 299.328 214.87 299.585 214.685 299.915C214.503 300.241 214.412 300.617 214.412 301.045V306.5H213.071ZM230.636 306.682C229.795 306.682 229.07 306.496 228.46 306.125C227.854 305.75 227.386 305.227 227.057 304.557C226.731 303.883 226.568 303.098 226.568 302.205C226.568 301.311 226.731 300.523 227.057 299.841C227.386 299.155 227.845 298.621 228.432 298.239C229.023 297.852 229.712 297.659 230.5 297.659C230.955 297.659 231.403 297.735 231.847 297.886C232.29 298.038 232.693 298.284 233.057 298.625C233.42 298.962 233.71 299.409 233.926 299.966C234.142 300.523 234.25 301.208 234.25 302.023V302.591H227.523V301.432H232.886C232.886 300.939 232.788 300.5 232.591 300.114C232.398 299.727 232.121 299.422 231.761 299.199C231.405 298.975 230.985 298.864 230.5 298.864C229.966 298.864 229.504 298.996 229.114 299.261C228.727 299.523 228.43 299.864 228.222 300.284C228.013 300.705 227.909 301.155 227.909 301.636V302.409C227.909 303.068 228.023 303.627 228.25 304.085C228.481 304.54 228.801 304.886 229.21 305.125C229.619 305.36 230.095 305.477 230.636 305.477C230.989 305.477 231.307 305.428 231.591 305.33C231.879 305.227 232.127 305.076 232.335 304.875C232.544 304.67 232.705 304.417 232.818 304.114L234.114 304.477C233.977 304.917 233.748 305.303 233.426 305.636C233.104 305.966 232.706 306.223 232.233 306.409C231.759 306.591 231.227 306.682 230.636 306.682ZM237.631 301.25V306.5H236.29V297.773H237.585V299.136H237.699C237.903 298.693 238.214 298.337 238.631 298.068C239.047 297.795 239.585 297.659 240.244 297.659C240.835 297.659 241.352 297.78 241.795 298.023C242.239 298.261 242.583 298.625 242.83 299.114C243.076 299.598 243.199 300.212 243.199 300.955V306.5H241.858V301.045C241.858 300.36 241.68 299.826 241.324 299.443C240.968 299.057 240.479 298.864 239.858 298.864C239.43 298.864 239.047 298.956 238.71 299.142C238.377 299.328 238.114 299.598 237.92 299.955C237.727 300.311 237.631 300.742 237.631 301.25ZM249.445 297.773V298.909H244.922V297.773H249.445ZM246.24 295.682H247.581V304C247.581 304.379 247.636 304.663 247.746 304.852C247.859 305.038 248.003 305.163 248.178 305.227C248.356 305.288 248.543 305.318 248.74 305.318C248.888 305.318 249.009 305.311 249.104 305.295C249.198 305.277 249.274 305.261 249.331 305.25L249.604 306.455C249.513 306.489 249.386 306.523 249.223 306.557C249.06 306.595 248.854 306.614 248.604 306.614C248.225 306.614 247.854 306.532 247.49 306.369C247.13 306.206 246.831 305.958 246.592 305.625C246.357 305.292 246.24 304.871 246.24 304.364V295.682ZM254.03 306.705C253.477 306.705 252.975 306.6 252.524 306.392C252.073 306.18 251.715 305.875 251.45 305.477C251.185 305.076 251.053 304.591 251.053 304.023C251.053 303.523 251.151 303.117 251.348 302.807C251.545 302.492 251.808 302.246 252.138 302.068C252.467 301.89 252.831 301.758 253.229 301.67C253.63 301.58 254.034 301.508 254.439 301.455C254.969 301.386 255.399 301.335 255.729 301.301C256.062 301.263 256.304 301.201 256.456 301.114C256.611 301.027 256.689 300.875 256.689 300.659V300.614C256.689 300.053 256.536 299.617 256.229 299.307C255.926 298.996 255.465 298.841 254.848 298.841C254.208 298.841 253.706 298.981 253.342 299.261C252.979 299.542 252.723 299.841 252.575 300.159L251.303 299.705C251.53 299.174 251.833 298.761 252.212 298.466C252.594 298.167 253.011 297.958 253.462 297.841C253.916 297.72 254.363 297.659 254.803 297.659C255.083 297.659 255.405 297.693 255.768 297.761C256.136 297.826 256.49 297.96 256.831 298.165C257.176 298.369 257.462 298.678 257.689 299.091C257.916 299.504 258.03 300.057 258.03 300.75V306.5H256.689V305.318H256.621C256.53 305.508 256.378 305.71 256.166 305.926C255.954 306.142 255.672 306.326 255.32 306.477C254.967 306.629 254.537 306.705 254.03 306.705ZM254.234 305.5C254.765 305.5 255.212 305.396 255.575 305.188C255.943 304.979 256.219 304.71 256.405 304.381C256.594 304.051 256.689 303.705 256.689 303.341V302.114C256.632 302.182 256.507 302.244 256.314 302.301C256.125 302.354 255.905 302.402 255.655 302.443C255.409 302.481 255.168 302.515 254.933 302.545C254.702 302.572 254.515 302.595 254.371 302.614C254.022 302.659 253.696 302.733 253.393 302.835C253.094 302.934 252.852 303.083 252.666 303.284C252.484 303.481 252.393 303.75 252.393 304.091C252.393 304.557 252.566 304.909 252.911 305.148C253.259 305.383 253.7 305.5 254.234 305.5ZM264.273 297.773V298.909H259.75V297.773H264.273ZM261.068 295.682H262.409V304C262.409 304.379 262.464 304.663 262.574 304.852C262.688 305.038 262.831 305.163 263.006 305.227C263.184 305.288 263.371 305.318 263.568 305.318C263.716 305.318 263.837 305.311 263.932 305.295C264.027 305.277 264.102 305.261 264.159 305.25L264.432 306.455C264.341 306.489 264.214 306.523 264.051 306.557C263.888 306.595 263.682 306.614 263.432 306.614C263.053 306.614 262.682 306.532 262.318 306.369C261.958 306.206 261.659 305.958 261.42 305.625C261.186 305.292 261.068 304.871 261.068 304.364V295.682ZM266.29 306.5V297.773H267.631V306.5H266.29ZM266.972 296.318C266.71 296.318 266.485 296.229 266.295 296.051C266.11 295.873 266.017 295.659 266.017 295.409C266.017 295.159 266.11 294.945 266.295 294.767C266.485 294.589 266.71 294.5 266.972 294.5C267.233 294.5 267.456 294.589 267.642 294.767C267.831 294.945 267.926 295.159 267.926 295.409C267.926 295.659 267.831 295.873 267.642 296.051C267.456 296.229 267.233 296.318 266.972 296.318ZM273.632 306.682C272.844 306.682 272.153 306.494 271.558 306.119C270.967 305.744 270.505 305.22 270.172 304.545C269.842 303.871 269.678 303.083 269.678 302.182C269.678 301.273 269.842 300.479 270.172 299.801C270.505 299.123 270.967 298.597 271.558 298.222C272.153 297.847 272.844 297.659 273.632 297.659C274.42 297.659 275.109 297.847 275.7 298.222C276.295 298.597 276.757 299.123 277.087 299.801C277.42 300.479 277.587 301.273 277.587 302.182C277.587 303.083 277.42 303.871 277.087 304.545C276.757 305.22 276.295 305.744 275.7 306.119C275.109 306.494 274.42 306.682 273.632 306.682ZM273.632 305.477C274.231 305.477 274.723 305.324 275.109 305.017C275.496 304.71 275.782 304.307 275.967 303.807C276.153 303.307 276.246 302.765 276.246 302.182C276.246 301.598 276.153 301.055 275.967 300.551C275.782 300.047 275.496 299.64 275.109 299.33C274.723 299.019 274.231 298.864 273.632 298.864C273.034 298.864 272.541 299.019 272.155 299.33C271.768 299.64 271.482 300.047 271.297 300.551C271.111 301.055 271.018 301.598 271.018 302.182C271.018 302.765 271.111 303.307 271.297 303.807C271.482 304.307 271.768 304.71 272.155 305.017C272.541 305.324 273.034 305.477 273.632 305.477ZM280.974 301.25V306.5H279.634V297.773H280.929V299.136H281.043C281.247 298.693 281.558 298.337 281.974 298.068C282.391 297.795 282.929 297.659 283.588 297.659C284.179 297.659 284.696 297.78 285.139 298.023C285.582 298.261 285.927 298.625 286.173 299.114C286.42 299.598 286.543 300.212 286.543 300.955V306.5H285.202V301.045C285.202 300.36 285.024 299.826 284.668 299.443C284.312 299.057 283.823 298.864 283.202 298.864C282.774 298.864 282.391 298.956 282.054 299.142C281.721 299.328 281.457 299.598 281.264 299.955C281.071 300.311 280.974 300.742 280.974 301.25ZM290.993 304.909L290.902 305.523C290.838 305.955 290.739 306.417 290.607 306.909C290.478 307.402 290.343 307.866 290.203 308.301C290.063 308.737 289.947 309.083 289.857 309.341H288.834C288.883 309.098 288.947 308.778 289.027 308.381C289.107 307.983 289.186 307.538 289.266 307.045C289.349 306.557 289.417 306.057 289.47 305.545L289.538 304.909H290.993ZM301.773 297.773V298.909H297.25V297.773H301.773ZM298.568 295.682H299.909V304C299.909 304.379 299.964 304.663 300.074 304.852C300.188 305.038 300.331 305.163 300.506 305.227C300.684 305.288 300.871 305.318 301.068 305.318C301.216 305.318 301.337 305.311 301.432 305.295C301.527 305.277 301.602 305.261 301.659 305.25L301.932 306.455C301.841 306.489 301.714 306.523 301.551 306.557C301.388 306.595 301.182 306.614 300.932 306.614C300.553 306.614 300.182 306.532 299.818 306.369C299.458 306.206 299.159 305.958 298.92 305.625C298.686 305.292 298.568 304.871 298.568 304.364V295.682ZM303.79 306.5V297.773H305.085V299.091H305.176C305.335 298.659 305.623 298.309 306.04 298.04C306.456 297.771 306.926 297.636 307.449 297.636C307.547 297.636 307.67 297.638 307.818 297.642C307.966 297.646 308.078 297.652 308.153 297.659V299.023C308.108 299.011 308.004 298.994 307.841 298.972C307.682 298.945 307.513 298.932 307.335 298.932C306.911 298.932 306.532 299.021 306.199 299.199C305.869 299.373 305.608 299.616 305.415 299.926C305.225 300.233 305.131 300.583 305.131 300.977V306.5H303.79ZM312.311 306.705C311.758 306.705 311.256 306.6 310.805 306.392C310.355 306.18 309.997 305.875 309.732 305.477C309.466 305.076 309.334 304.591 309.334 304.023C309.334 303.523 309.432 303.117 309.629 302.807C309.826 302.492 310.089 302.246 310.419 302.068C310.749 301.89 311.112 301.758 311.51 301.67C311.911 301.58 312.315 301.508 312.72 301.455C313.25 301.386 313.68 301.335 314.01 301.301C314.343 301.263 314.586 301.201 314.737 301.114C314.893 301.027 314.97 300.875 314.97 300.659V300.614C314.97 300.053 314.817 299.617 314.51 299.307C314.207 298.996 313.747 298.841 313.129 298.841C312.489 298.841 311.987 298.981 311.624 299.261C311.26 299.542 311.004 299.841 310.857 300.159L309.584 299.705C309.811 299.174 310.114 298.761 310.493 298.466C310.875 298.167 311.292 297.958 311.743 297.841C312.197 297.72 312.644 297.659 313.084 297.659C313.364 297.659 313.686 297.693 314.05 297.761C314.417 297.826 314.771 297.96 315.112 298.165C315.457 298.369 315.743 298.678 315.97 299.091C316.197 299.504 316.311 300.057 316.311 300.75V306.5H314.97V305.318H314.902C314.811 305.508 314.66 305.71 314.447 305.926C314.235 306.142 313.953 306.326 313.601 306.477C313.249 306.629 312.819 306.705 312.311 306.705ZM312.516 305.5C313.046 305.5 313.493 305.396 313.857 305.188C314.224 304.979 314.5 304.71 314.686 304.381C314.875 304.051 314.97 303.705 314.97 303.341V302.114C314.913 302.182 314.788 302.244 314.595 302.301C314.406 302.354 314.186 302.402 313.936 302.443C313.69 302.481 313.449 302.515 313.214 302.545C312.983 302.572 312.796 302.595 312.652 302.614C312.304 302.659 311.978 302.733 311.675 302.835C311.375 302.934 311.133 303.083 310.947 303.284C310.766 303.481 310.675 303.75 310.675 304.091C310.675 304.557 310.847 304.909 311.192 305.148C311.54 305.383 311.982 305.5 312.516 305.5ZM320.099 301.25V306.5H318.759V297.773H320.054V299.136H320.168C320.372 298.693 320.683 298.337 321.099 298.068C321.516 297.795 322.054 297.659 322.713 297.659C323.304 297.659 323.821 297.78 324.264 298.023C324.707 298.261 325.052 298.625 325.298 299.114C325.545 299.598 325.668 300.212 325.668 300.955V306.5H324.327V301.045C324.327 300.36 324.149 299.826 323.793 299.443C323.437 299.057 322.948 298.864 322.327 298.864C321.899 298.864 321.516 298.956 321.179 299.142C320.846 299.328 320.582 299.598 320.389 299.955C320.196 300.311 320.099 300.742 320.099 301.25ZM334.3 299.727L333.095 300.068C333.019 299.867 332.908 299.672 332.76 299.483C332.616 299.29 332.419 299.131 332.169 299.006C331.919 298.881 331.599 298.818 331.209 298.818C330.675 298.818 330.23 298.941 329.874 299.188C329.521 299.43 329.345 299.739 329.345 300.114C329.345 300.447 329.466 300.71 329.709 300.903C329.951 301.097 330.33 301.258 330.845 301.386L332.141 301.705C332.921 301.894 333.502 302.184 333.885 302.574C334.268 302.96 334.459 303.458 334.459 304.068C334.459 304.568 334.315 305.015 334.027 305.409C333.743 305.803 333.345 306.114 332.834 306.341C332.322 306.568 331.728 306.682 331.05 306.682C330.16 306.682 329.423 306.489 328.839 306.102C328.256 305.716 327.887 305.152 327.732 304.409L329.004 304.091C329.125 304.561 329.355 304.913 329.692 305.148C330.033 305.383 330.478 305.5 331.027 305.5C331.652 305.5 332.148 305.367 332.516 305.102C332.887 304.833 333.072 304.511 333.072 304.136C333.072 303.833 332.966 303.58 332.754 303.375C332.542 303.167 332.216 303.011 331.777 302.909L330.322 302.568C329.523 302.379 328.936 302.085 328.561 301.688C328.19 301.286 328.004 300.784 328.004 300.182C328.004 299.689 328.143 299.254 328.419 298.875C328.699 298.496 329.08 298.199 329.561 297.983C330.046 297.767 330.595 297.659 331.209 297.659C332.072 297.659 332.75 297.848 333.243 298.227C333.739 298.606 334.091 299.106 334.3 299.727ZM336.477 309.773V297.773H337.773V299.159H337.932C338.03 299.008 338.167 298.814 338.341 298.58C338.519 298.341 338.773 298.129 339.102 297.943C339.436 297.754 339.886 297.659 340.455 297.659C341.189 297.659 341.837 297.843 342.398 298.21C342.958 298.578 343.396 299.098 343.71 299.773C344.025 300.447 344.182 301.242 344.182 302.159C344.182 303.083 344.025 303.884 343.71 304.562C343.396 305.237 342.96 305.759 342.403 306.131C341.847 306.498 341.205 306.682 340.477 306.682C339.917 306.682 339.468 306.589 339.131 306.403C338.794 306.214 338.534 306 338.352 305.761C338.17 305.519 338.03 305.318 337.932 305.159H337.818V309.773H336.477ZM337.795 302.136C337.795 302.795 337.892 303.377 338.085 303.881C338.278 304.381 338.561 304.773 338.932 305.057C339.303 305.337 339.758 305.477 340.295 305.477C340.856 305.477 341.324 305.33 341.699 305.034C342.078 304.735 342.362 304.333 342.551 303.83C342.744 303.322 342.841 302.758 342.841 302.136C342.841 301.523 342.746 300.97 342.557 300.477C342.371 299.981 342.089 299.589 341.71 299.301C341.335 299.009 340.864 298.864 340.295 298.864C339.75 298.864 339.292 299.002 338.92 299.278C338.549 299.551 338.269 299.934 338.08 300.426C337.89 300.915 337.795 301.485 337.795 302.136ZM349.773 306.682C348.985 306.682 348.294 306.494 347.699 306.119C347.108 305.744 346.646 305.22 346.312 304.545C345.983 303.871 345.818 303.083 345.818 302.182C345.818 301.273 345.983 300.479 346.312 299.801C346.646 299.123 347.108 298.597 347.699 298.222C348.294 297.847 348.985 297.659 349.773 297.659C350.561 297.659 351.25 297.847 351.841 298.222C352.436 298.597 352.898 299.123 353.227 299.801C353.561 300.479 353.727 301.273 353.727 302.182C353.727 303.083 353.561 303.871 353.227 304.545C352.898 305.22 352.436 305.744 351.841 306.119C351.25 306.494 350.561 306.682 349.773 306.682ZM349.773 305.477C350.371 305.477 350.864 305.324 351.25 305.017C351.636 304.71 351.922 304.307 352.108 303.807C352.294 303.307 352.386 302.765 352.386 302.182C352.386 301.598 352.294 301.055 352.108 300.551C351.922 300.047 351.636 299.64 351.25 299.33C350.864 299.019 350.371 298.864 349.773 298.864C349.174 298.864 348.682 299.019 348.295 299.33C347.909 299.64 347.623 300.047 347.438 300.551C347.252 301.055 347.159 301.598 347.159 302.182C347.159 302.765 347.252 303.307 347.438 303.807C347.623 304.307 347.909 304.71 348.295 305.017C348.682 305.324 349.174 305.477 349.773 305.477ZM355.774 306.5V297.773H357.07V299.091H357.161C357.32 298.659 357.607 298.309 358.024 298.04C358.441 297.771 358.911 297.636 359.433 297.636C359.532 297.636 359.655 297.638 359.803 297.642C359.95 297.646 360.062 297.652 360.138 297.659V299.023C360.092 299.011 359.988 298.994 359.825 298.972C359.666 298.945 359.498 298.932 359.32 298.932C358.895 298.932 358.517 299.021 358.183 299.199C357.854 299.373 357.592 299.616 357.399 299.926C357.21 300.233 357.115 300.583 357.115 300.977V306.5H355.774ZM366.07 297.773V298.909H361.547V297.773H366.07ZM362.865 295.682H364.206V304C364.206 304.379 364.261 304.663 364.371 304.852C364.484 305.038 364.628 305.163 364.803 305.227C364.981 305.288 365.168 305.318 365.365 305.318C365.513 305.318 365.634 305.311 365.729 305.295C365.823 305.277 365.899 305.261 365.956 305.25L366.229 306.455C366.138 306.489 366.011 306.523 365.848 306.557C365.685 306.595 365.479 306.614 365.229 306.614C364.85 306.614 364.479 306.532 364.115 306.369C363.755 306.206 363.456 305.958 363.217 305.625C362.982 305.292 362.865 304.871 362.865 304.364V295.682ZM370.655 306.705C370.102 306.705 369.6 306.6 369.149 306.392C368.698 306.18 368.34 305.875 368.075 305.477C367.81 305.076 367.678 304.591 367.678 304.023C367.678 303.523 367.776 303.117 367.973 302.807C368.17 302.492 368.433 302.246 368.763 302.068C369.092 301.89 369.456 301.758 369.854 301.67C370.255 301.58 370.659 301.508 371.064 301.455C371.594 301.386 372.024 301.335 372.354 301.301C372.687 301.263 372.929 301.201 373.081 301.114C373.236 301.027 373.314 300.875 373.314 300.659V300.614C373.314 300.053 373.161 299.617 372.854 299.307C372.551 298.996 372.09 298.841 371.473 298.841C370.833 298.841 370.331 298.981 369.967 299.261C369.604 299.542 369.348 299.841 369.2 300.159L367.928 299.705C368.155 299.174 368.458 298.761 368.837 298.466C369.219 298.167 369.636 297.958 370.087 297.841C370.541 297.72 370.988 297.659 371.428 297.659C371.708 297.659 372.03 297.693 372.393 297.761C372.761 297.826 373.115 297.96 373.456 298.165C373.801 298.369 374.087 298.678 374.314 299.091C374.541 299.504 374.655 300.057 374.655 300.75V306.5H373.314V305.318H373.246C373.155 305.508 373.003 305.71 372.791 305.926C372.579 306.142 372.297 306.326 371.945 306.477C371.592 306.629 371.162 306.705 370.655 306.705ZM370.859 305.5C371.39 305.5 371.837 305.396 372.2 305.188C372.568 304.979 372.844 304.71 373.03 304.381C373.219 304.051 373.314 303.705 373.314 303.341V302.114C373.257 302.182 373.132 302.244 372.939 302.301C372.75 302.354 372.53 302.402 372.28 302.443C372.034 302.481 371.793 302.515 371.558 302.545C371.327 302.572 371.14 302.595 370.996 302.614C370.647 302.659 370.321 302.733 370.018 302.835C369.719 302.934 369.477 303.083 369.291 303.284C369.109 303.481 369.018 303.75 369.018 304.091C369.018 304.557 369.191 304.909 369.536 305.148C369.884 305.383 370.325 305.5 370.859 305.5ZM380.898 297.773V298.909H376.375V297.773H380.898ZM377.693 295.682H379.034V304C379.034 304.379 379.089 304.663 379.199 304.852C379.313 305.038 379.456 305.163 379.631 305.227C379.809 305.288 379.996 305.318 380.193 305.318C380.341 305.318 380.462 305.311 380.557 305.295C380.652 305.277 380.727 305.261 380.784 305.25L381.057 306.455C380.966 306.489 380.839 306.523 380.676 306.557C380.513 306.595 380.307 306.614 380.057 306.614C379.678 306.614 379.307 306.532 378.943 306.369C378.583 306.206 378.284 305.958 378.045 305.625C377.811 305.292 377.693 304.871 377.693 304.364V295.682ZM382.915 306.5V297.773H384.256V306.5H382.915ZM383.597 296.318C383.335 296.318 383.11 296.229 382.92 296.051C382.735 295.873 382.642 295.659 382.642 295.409C382.642 295.159 382.735 294.945 382.92 294.767C383.11 294.589 383.335 294.5 383.597 294.5C383.858 294.5 384.081 294.589 384.267 294.767C384.456 294.945 384.551 295.159 384.551 295.409C384.551 295.659 384.456 295.873 384.267 296.051C384.081 296.229 383.858 296.318 383.597 296.318ZM390.257 306.682C389.469 306.682 388.778 306.494 388.183 306.119C387.592 305.744 387.13 305.22 386.797 304.545C386.467 303.871 386.303 303.083 386.303 302.182C386.303 301.273 386.467 300.479 386.797 299.801C387.13 299.123 387.592 298.597 388.183 298.222C388.778 297.847 389.469 297.659 390.257 297.659C391.045 297.659 391.734 297.847 392.325 298.222C392.92 298.597 393.382 299.123 393.712 299.801C394.045 300.479 394.212 301.273 394.212 302.182C394.212 303.083 394.045 303.871 393.712 304.545C393.382 305.22 392.92 305.744 392.325 306.119C391.734 306.494 391.045 306.682 390.257 306.682ZM390.257 305.477C390.856 305.477 391.348 305.324 391.734 305.017C392.121 304.71 392.407 304.307 392.592 303.807C392.778 303.307 392.871 302.765 392.871 302.182C392.871 301.598 392.778 301.055 392.592 300.551C392.407 300.047 392.121 299.64 391.734 299.33C391.348 299.019 390.856 298.864 390.257 298.864C389.659 298.864 389.166 299.019 388.78 299.33C388.393 299.64 388.107 300.047 387.922 300.551C387.736 301.055 387.643 301.598 387.643 302.182C387.643 302.765 387.736 303.307 387.922 303.807C388.107 304.307 388.393 304.71 388.78 305.017C389.166 305.324 389.659 305.477 390.257 305.477ZM397.599 301.25V306.5H396.259V297.773H397.554V299.136H397.668C397.872 298.693 398.183 298.337 398.599 298.068C399.016 297.795 399.554 297.659 400.213 297.659C400.804 297.659 401.321 297.78 401.764 298.023C402.207 298.261 402.552 298.625 402.798 299.114C403.045 299.598 403.168 300.212 403.168 300.955V306.5H401.827V301.045C401.827 300.36 401.649 299.826 401.293 299.443C400.937 299.057 400.448 298.864 399.827 298.864C399.399 298.864 399.016 298.956 398.679 299.142C398.346 299.328 398.082 299.598 397.889 299.955C397.696 300.311 397.599 300.742 397.599 301.25ZM407.618 304.909L407.527 305.523C407.463 305.955 407.364 306.417 407.232 306.909C407.103 307.402 406.968 307.866 406.828 308.301C406.688 308.737 406.572 309.083 406.482 309.341H405.459C405.508 309.098 405.572 308.778 405.652 308.381C405.732 307.983 405.811 307.538 405.891 307.045C405.974 306.557 406.042 306.057 406.095 305.545L406.163 304.909H407.618ZM173.952 330.705C173.399 330.705 172.897 330.6 172.446 330.392C171.995 330.18 171.637 329.875 171.372 329.477C171.107 329.076 170.974 328.591 170.974 328.023C170.974 327.523 171.073 327.117 171.27 326.807C171.467 326.492 171.73 326.246 172.06 326.068C172.389 325.89 172.753 325.758 173.151 325.67C173.552 325.58 173.955 325.508 174.361 325.455C174.891 325.386 175.321 325.335 175.651 325.301C175.984 325.263 176.226 325.201 176.378 325.114C176.533 325.027 176.611 324.875 176.611 324.659V324.614C176.611 324.053 176.457 323.617 176.151 323.307C175.848 322.996 175.387 322.841 174.77 322.841C174.13 322.841 173.628 322.981 173.264 323.261C172.901 323.542 172.645 323.841 172.497 324.159L171.224 323.705C171.452 323.174 171.755 322.761 172.134 322.466C172.516 322.167 172.933 321.958 173.384 321.841C173.838 321.72 174.285 321.659 174.724 321.659C175.005 321.659 175.327 321.693 175.69 321.761C176.058 321.826 176.412 321.96 176.753 322.165C177.098 322.369 177.384 322.678 177.611 323.091C177.838 323.504 177.952 324.057 177.952 324.75V330.5H176.611V329.318H176.543C176.452 329.508 176.3 329.71 176.088 329.926C175.876 330.142 175.594 330.326 175.241 330.477C174.889 330.629 174.459 330.705 173.952 330.705ZM174.156 329.5C174.687 329.5 175.134 329.396 175.497 329.188C175.865 328.979 176.141 328.71 176.327 328.381C176.516 328.051 176.611 327.705 176.611 327.341V326.114C176.554 326.182 176.429 326.244 176.236 326.301C176.046 326.354 175.827 326.402 175.577 326.443C175.33 326.481 175.09 326.515 174.855 326.545C174.624 326.572 174.437 326.595 174.293 326.614C173.944 326.659 173.618 326.733 173.315 326.835C173.016 326.934 172.774 327.083 172.588 327.284C172.406 327.481 172.315 327.75 172.315 328.091C172.315 328.557 172.488 328.909 172.832 329.148C173.181 329.383 173.622 329.5 174.156 329.5ZM181.74 325.25V330.5H180.399V321.773H181.695V323.136H181.808C182.013 322.693 182.323 322.337 182.74 322.068C183.157 321.795 183.695 321.659 184.354 321.659C184.945 321.659 185.462 321.78 185.905 322.023C186.348 322.261 186.693 322.625 186.939 323.114C187.185 323.598 187.308 324.212 187.308 324.955V330.5H185.967V325.045C185.967 324.36 185.789 323.826 185.433 323.443C185.077 323.057 184.589 322.864 183.967 322.864C183.539 322.864 183.157 322.956 182.82 323.142C182.486 323.328 182.223 323.598 182.03 323.955C181.837 324.311 181.74 324.742 181.74 325.25ZM193.054 330.682C192.327 330.682 191.685 330.498 191.128 330.131C190.571 329.759 190.135 329.237 189.821 328.562C189.507 327.884 189.349 327.083 189.349 326.159C189.349 325.242 189.507 324.447 189.821 323.773C190.135 323.098 190.573 322.578 191.134 322.21C191.694 321.843 192.342 321.659 193.077 321.659C193.645 321.659 194.094 321.754 194.423 321.943C194.757 322.129 195.01 322.341 195.185 322.58C195.363 322.814 195.501 323.008 195.599 323.159H195.713V318.864H197.054V330.5H195.759V329.159H195.599C195.501 329.318 195.361 329.519 195.179 329.761C194.997 330 194.738 330.214 194.401 330.403C194.063 330.589 193.615 330.682 193.054 330.682ZM193.236 329.477C193.774 329.477 194.228 329.337 194.599 329.057C194.971 328.773 195.253 328.381 195.446 327.881C195.639 327.377 195.736 326.795 195.736 326.136C195.736 325.485 195.641 324.915 195.452 324.426C195.262 323.934 194.982 323.551 194.611 323.278C194.24 323.002 193.781 322.864 193.236 322.864C192.668 322.864 192.194 323.009 191.815 323.301C191.44 323.589 191.158 323.981 190.969 324.477C190.783 324.97 190.69 325.523 190.69 326.136C190.69 326.758 190.785 327.322 190.974 327.83C191.168 328.333 191.452 328.735 191.827 329.034C192.205 329.33 192.675 329.477 193.236 329.477ZM207.491 330.682C206.764 330.682 206.122 330.498 205.565 330.131C205.009 329.759 204.573 329.237 204.259 328.562C203.944 327.884 203.787 327.083 203.787 326.159C203.787 325.242 203.944 324.447 204.259 323.773C204.573 323.098 205.01 322.578 205.571 322.21C206.132 321.843 206.779 321.659 207.514 321.659C208.082 321.659 208.531 321.754 208.861 321.943C209.194 322.129 209.448 322.341 209.622 322.58C209.8 322.814 209.938 323.008 210.037 323.159H210.151V318.864H211.491V330.5H210.196V329.159H210.037C209.938 329.318 209.798 329.519 209.616 329.761C209.435 330 209.175 330.214 208.838 330.403C208.501 330.589 208.052 330.682 207.491 330.682ZM207.673 329.477C208.211 329.477 208.666 329.337 209.037 329.057C209.408 328.773 209.69 328.381 209.884 327.881C210.077 327.377 210.173 326.795 210.173 326.136C210.173 325.485 210.079 324.915 209.889 324.426C209.7 323.934 209.42 323.551 209.048 323.278C208.677 323.002 208.219 322.864 207.673 322.864C207.105 322.864 206.632 323.009 206.253 323.301C205.878 323.589 205.596 323.981 205.406 324.477C205.221 324.97 205.128 325.523 205.128 326.136C205.128 326.758 205.223 327.322 205.412 327.83C205.605 328.333 205.889 328.735 206.264 329.034C206.643 329.33 207.113 329.477 207.673 329.477ZM217.793 330.682C216.952 330.682 216.226 330.496 215.616 330.125C215.01 329.75 214.543 329.227 214.213 328.557C213.887 327.883 213.724 327.098 213.724 326.205C213.724 325.311 213.887 324.523 214.213 323.841C214.543 323.155 215.001 322.621 215.588 322.239C216.179 321.852 216.868 321.659 217.656 321.659C218.111 321.659 218.56 321.735 219.003 321.886C219.446 322.038 219.849 322.284 220.213 322.625C220.577 322.962 220.866 323.409 221.082 323.966C221.298 324.523 221.406 325.208 221.406 326.023V326.591H214.679V325.432H220.043C220.043 324.939 219.944 324.5 219.747 324.114C219.554 323.727 219.277 323.422 218.918 323.199C218.562 322.975 218.141 322.864 217.656 322.864C217.122 322.864 216.66 322.996 216.27 323.261C215.884 323.523 215.586 323.864 215.378 324.284C215.17 324.705 215.065 325.155 215.065 325.636V326.409C215.065 327.068 215.179 327.627 215.406 328.085C215.637 328.54 215.957 328.886 216.366 329.125C216.776 329.36 217.251 329.477 217.793 329.477C218.145 329.477 218.463 329.428 218.747 329.33C219.035 329.227 219.283 329.076 219.491 328.875C219.7 328.67 219.861 328.417 219.974 328.114L221.27 328.477C221.134 328.917 220.904 329.303 220.582 329.636C220.26 329.966 219.863 330.223 219.389 330.409C218.916 330.591 218.384 330.682 217.793 330.682ZM224.787 318.864V330.5H223.446V318.864H224.787ZM227.243 330.5V321.773H228.584V330.5H227.243ZM227.925 320.318C227.663 320.318 227.438 320.229 227.249 320.051C227.063 319.873 226.97 319.659 226.97 319.409C226.97 319.159 227.063 318.945 227.249 318.767C227.438 318.589 227.663 318.5 227.925 318.5C228.186 318.5 228.41 318.589 228.595 318.767C228.785 318.945 228.879 319.159 228.879 319.409C228.879 319.659 228.785 319.873 228.595 320.051C228.41 320.229 228.186 320.318 227.925 320.318ZM238.176 321.773L234.949 330.5H233.585L230.358 321.773H231.812L234.222 328.727H234.312L236.722 321.773H238.176ZM243.293 330.682C242.452 330.682 241.726 330.496 241.116 330.125C240.51 329.75 240.043 329.227 239.713 328.557C239.387 327.883 239.224 327.098 239.224 326.205C239.224 325.311 239.387 324.523 239.713 323.841C240.043 323.155 240.501 322.621 241.088 322.239C241.679 321.852 242.368 321.659 243.156 321.659C243.611 321.659 244.06 321.735 244.503 321.886C244.946 322.038 245.349 322.284 245.713 322.625C246.077 322.962 246.366 323.409 246.582 323.966C246.798 324.523 246.906 325.208 246.906 326.023V326.591H240.179V325.432H245.543C245.543 324.939 245.444 324.5 245.247 324.114C245.054 323.727 244.777 323.422 244.418 323.199C244.062 322.975 243.641 322.864 243.156 322.864C242.622 322.864 242.16 322.996 241.77 323.261C241.384 323.523 241.086 323.864 240.878 324.284C240.67 324.705 240.565 325.155 240.565 325.636V326.409C240.565 327.068 240.679 327.627 240.906 328.085C241.137 328.54 241.457 328.886 241.866 329.125C242.276 329.36 242.751 329.477 243.293 329.477C243.645 329.477 243.963 329.428 244.247 329.33C244.535 329.227 244.783 329.076 244.991 328.875C245.2 328.67 245.361 328.417 245.474 328.114L246.77 328.477C246.634 328.917 246.404 329.303 246.082 329.636C245.76 329.966 245.363 330.223 244.889 330.409C244.416 330.591 243.884 330.682 243.293 330.682ZM248.946 330.5V321.773H250.241V323.091H250.332C250.491 322.659 250.779 322.309 251.196 322.04C251.613 321.771 252.082 321.636 252.605 321.636C252.704 321.636 252.827 321.638 252.974 321.642C253.122 321.646 253.234 321.652 253.31 321.659V323.023C253.264 323.011 253.16 322.994 252.997 322.972C252.838 322.945 252.67 322.932 252.491 322.932C252.067 322.932 251.688 323.021 251.355 323.199C251.026 323.373 250.764 323.616 250.571 323.926C250.382 324.233 250.287 324.583 250.287 324.977V330.5H248.946ZM256.028 333.773C255.801 333.773 255.598 333.754 255.42 333.716C255.242 333.682 255.119 333.648 255.051 333.614L255.392 332.432C255.718 332.515 256.006 332.545 256.256 332.523C256.506 332.5 256.727 332.388 256.92 332.188C257.117 331.991 257.297 331.67 257.46 331.227L257.71 330.545L254.483 321.773H255.938L258.347 328.727H258.438L260.847 321.773H262.301L258.597 331.773C258.43 332.223 258.223 332.597 257.977 332.892C257.731 333.191 257.445 333.413 257.119 333.557C256.797 333.701 256.434 333.773 256.028 333.773ZM272.457 321.773V322.909H267.753V321.773H272.457ZM269.162 330.5V320.568C269.162 320.068 269.279 319.652 269.514 319.318C269.749 318.985 270.054 318.735 270.429 318.568C270.804 318.402 271.2 318.318 271.616 318.318C271.946 318.318 272.215 318.345 272.423 318.398C272.632 318.451 272.787 318.5 272.889 318.545L272.503 319.705C272.435 319.682 272.34 319.653 272.219 319.619C272.101 319.585 271.946 319.568 271.753 319.568C271.31 319.568 270.99 319.68 270.793 319.903C270.599 320.127 270.503 320.455 270.503 320.886V330.5H269.162ZM277.523 330.682C276.735 330.682 276.044 330.494 275.449 330.119C274.858 329.744 274.396 329.22 274.062 328.545C273.733 327.871 273.568 327.083 273.568 326.182C273.568 325.273 273.733 324.479 274.062 323.801C274.396 323.123 274.858 322.597 275.449 322.222C276.044 321.847 276.735 321.659 277.523 321.659C278.311 321.659 279 321.847 279.591 322.222C280.186 322.597 280.648 323.123 280.977 323.801C281.311 324.479 281.477 325.273 281.477 326.182C281.477 327.083 281.311 327.871 280.977 328.545C280.648 329.22 280.186 329.744 279.591 330.119C279 330.494 278.311 330.682 277.523 330.682ZM277.523 329.477C278.121 329.477 278.614 329.324 279 329.017C279.386 328.71 279.672 328.307 279.858 327.807C280.044 327.307 280.136 326.765 280.136 326.182C280.136 325.598 280.044 325.055 279.858 324.551C279.672 324.047 279.386 323.64 279 323.33C278.614 323.019 278.121 322.864 277.523 322.864C276.924 322.864 276.432 323.019 276.045 323.33C275.659 323.64 275.373 324.047 275.188 324.551C275.002 325.055 274.909 325.598 274.909 326.182C274.909 326.765 275.002 327.307 275.188 327.807C275.373 328.307 275.659 328.71 276.045 329.017C276.432 329.324 276.924 329.477 277.523 329.477ZM283.524 330.5V321.773H284.82V323.091H284.911C285.07 322.659 285.357 322.309 285.774 322.04C286.191 321.771 286.661 321.636 287.183 321.636C287.282 321.636 287.405 321.638 287.553 321.642C287.7 321.646 287.812 321.652 287.888 321.659V323.023C287.842 323.011 287.738 322.994 287.575 322.972C287.416 322.945 287.248 322.932 287.07 322.932C286.645 322.932 286.267 323.021 285.933 323.199C285.604 323.373 285.342 323.616 285.149 323.926C284.96 324.233 284.865 324.583 284.865 324.977V330.5H283.524ZM297.636 330.682C296.795 330.682 296.07 330.496 295.46 330.125C294.854 329.75 294.386 329.227 294.057 328.557C293.731 327.883 293.568 327.098 293.568 326.205C293.568 325.311 293.731 324.523 294.057 323.841C294.386 323.155 294.845 322.621 295.432 322.239C296.023 321.852 296.712 321.659 297.5 321.659C297.955 321.659 298.403 321.735 298.847 321.886C299.29 322.038 299.693 322.284 300.057 322.625C300.42 322.962 300.71 323.409 300.926 323.966C301.142 324.523 301.25 325.208 301.25 326.023V326.591H294.523V325.432H299.886C299.886 324.939 299.788 324.5 299.591 324.114C299.398 323.727 299.121 323.422 298.761 323.199C298.405 322.975 297.985 322.864 297.5 322.864C296.966 322.864 296.504 322.996 296.114 323.261C295.727 323.523 295.43 323.864 295.222 324.284C295.013 324.705 294.909 325.155 294.909 325.636V326.409C294.909 327.068 295.023 327.627 295.25 328.085C295.481 328.54 295.801 328.886 296.21 329.125C296.619 329.36 297.095 329.477 297.636 329.477C297.989 329.477 298.307 329.428 298.591 329.33C298.879 329.227 299.127 329.076 299.335 328.875C299.544 328.67 299.705 328.417 299.818 328.114L301.114 328.477C300.977 328.917 300.748 329.303 300.426 329.636C300.104 329.966 299.706 330.223 299.233 330.409C298.759 330.591 298.227 330.682 297.636 330.682ZM307.176 321.773V322.909H302.472V321.773H307.176ZM303.881 330.5V320.568C303.881 320.068 303.998 319.652 304.233 319.318C304.468 318.985 304.773 318.735 305.148 318.568C305.523 318.402 305.919 318.318 306.335 318.318C306.665 318.318 306.934 318.345 307.142 318.398C307.35 318.451 307.506 318.5 307.608 318.545L307.222 319.705C307.153 319.682 307.059 319.653 306.938 319.619C306.82 319.585 306.665 319.568 306.472 319.568C306.028 319.568 305.708 319.68 305.511 319.903C305.318 320.127 305.222 320.455 305.222 320.886V330.5H303.881ZM312.942 321.773V322.909H308.237V321.773H312.942ZM309.646 330.5V320.568C309.646 320.068 309.764 319.652 309.999 319.318C310.233 318.985 310.538 318.735 310.913 318.568C311.288 318.402 311.684 318.318 312.101 318.318C312.43 318.318 312.699 318.345 312.908 318.398C313.116 318.451 313.271 318.5 313.374 318.545L312.987 319.705C312.919 319.682 312.824 319.653 312.703 319.619C312.586 319.585 312.43 319.568 312.237 319.568C311.794 319.568 311.474 319.68 311.277 319.903C311.084 320.127 310.987 320.455 310.987 320.886V330.5H309.646ZM314.821 330.5V321.773H316.162V330.5H314.821ZM315.503 320.318C315.241 320.318 315.016 320.229 314.827 320.051C314.641 319.873 314.548 319.659 314.548 319.409C314.548 319.159 314.641 318.945 314.827 318.767C315.016 318.589 315.241 318.5 315.503 318.5C315.764 318.5 315.988 318.589 316.173 318.767C316.363 318.945 316.457 319.159 316.457 319.409C316.457 319.659 316.363 319.873 316.173 320.051C315.988 320.229 315.764 320.318 315.503 320.318ZM322.163 330.682C321.345 330.682 320.641 330.489 320.05 330.102C319.459 329.716 319.004 329.184 318.686 328.506C318.368 327.828 318.209 327.053 318.209 326.182C318.209 325.295 318.372 324.513 318.697 323.835C319.027 323.153 319.485 322.621 320.072 322.239C320.663 321.852 321.353 321.659 322.141 321.659C322.754 321.659 323.307 321.773 323.8 322C324.292 322.227 324.696 322.545 325.01 322.955C325.324 323.364 325.519 323.841 325.595 324.386H324.254C324.152 323.989 323.925 323.636 323.572 323.33C323.224 323.019 322.754 322.864 322.163 322.864C321.641 322.864 321.182 323 320.788 323.273C320.398 323.542 320.093 323.922 319.874 324.415C319.658 324.903 319.55 325.477 319.55 326.136C319.55 326.811 319.656 327.398 319.868 327.898C320.084 328.398 320.387 328.786 320.777 329.062C321.171 329.339 321.633 329.477 322.163 329.477C322.512 329.477 322.828 329.417 323.112 329.295C323.396 329.174 323.637 329 323.834 328.773C324.031 328.545 324.171 328.273 324.254 327.955H325.595C325.519 328.47 325.332 328.934 325.033 329.347C324.737 329.756 324.345 330.081 323.857 330.324C323.372 330.562 322.807 330.682 322.163 330.682ZM327.555 330.5V321.773H328.896V330.5H327.555ZM328.237 320.318C327.976 320.318 327.75 320.229 327.561 320.051C327.375 319.873 327.283 319.659 327.283 319.409C327.283 319.159 327.375 318.945 327.561 318.767C327.75 318.589 327.976 318.5 328.237 318.5C328.499 318.5 328.722 318.589 328.908 318.767C329.097 318.945 329.192 319.159 329.192 319.409C329.192 319.659 329.097 319.873 328.908 320.051C328.722 320.229 328.499 320.318 328.237 320.318ZM335.011 330.682C334.17 330.682 333.445 330.496 332.835 330.125C332.229 329.75 331.761 329.227 331.432 328.557C331.106 327.883 330.943 327.098 330.943 326.205C330.943 325.311 331.106 324.523 331.432 323.841C331.761 323.155 332.22 322.621 332.807 322.239C333.398 321.852 334.087 321.659 334.875 321.659C335.33 321.659 335.778 321.735 336.222 321.886C336.665 322.038 337.068 322.284 337.432 322.625C337.795 322.962 338.085 323.409 338.301 323.966C338.517 324.523 338.625 325.208 338.625 326.023V326.591H331.898V325.432H337.261C337.261 324.939 337.163 324.5 336.966 324.114C336.773 323.727 336.496 323.422 336.136 323.199C335.78 322.975 335.36 322.864 334.875 322.864C334.341 322.864 333.879 322.996 333.489 323.261C333.102 323.523 332.805 323.864 332.597 324.284C332.388 324.705 332.284 325.155 332.284 325.636V326.409C332.284 327.068 332.398 327.627 332.625 328.085C332.856 328.54 333.176 328.886 333.585 329.125C333.994 329.36 334.47 329.477 335.011 329.477C335.364 329.477 335.682 329.428 335.966 329.33C336.254 329.227 336.502 329.076 336.71 328.875C336.919 328.67 337.08 328.417 337.193 328.114L338.489 328.477C338.352 328.917 338.123 329.303 337.801 329.636C337.479 329.966 337.081 330.223 336.608 330.409C336.134 330.591 335.602 330.682 335.011 330.682ZM342.006 325.25V330.5H340.665V321.773H341.96V323.136H342.074C342.278 322.693 342.589 322.337 343.006 322.068C343.422 321.795 343.96 321.659 344.619 321.659C345.21 321.659 345.727 321.78 346.17 322.023C346.614 322.261 346.958 322.625 347.205 323.114C347.451 323.598 347.574 324.212 347.574 324.955V330.5H346.233V325.045C346.233 324.36 346.055 323.826 345.699 323.443C345.343 323.057 344.854 322.864 344.233 322.864C343.805 322.864 343.422 322.956 343.085 323.142C342.752 323.328 342.489 323.598 342.295 323.955C342.102 324.311 342.006 324.742 342.006 325.25ZM353.82 321.773V322.909H349.297V321.773H353.82ZM350.615 319.682H351.956V328C351.956 328.379 352.011 328.663 352.121 328.852C352.234 329.038 352.378 329.163 352.553 329.227C352.731 329.288 352.918 329.318 353.115 329.318C353.263 329.318 353.384 329.311 353.479 329.295C353.573 329.277 353.649 329.261 353.706 329.25L353.979 330.455C353.888 330.489 353.761 330.523 353.598 330.557C353.435 330.595 353.229 330.614 352.979 330.614C352.6 330.614 352.229 330.532 351.865 330.369C351.505 330.206 351.206 329.958 350.967 329.625C350.732 329.292 350.615 328.871 350.615 328.364V319.682ZM363.996 330.682C363.155 330.682 362.429 330.496 361.82 330.125C361.214 329.75 360.746 329.227 360.416 328.557C360.09 327.883 359.928 327.098 359.928 326.205C359.928 325.311 360.09 324.523 360.416 323.841C360.746 323.155 361.204 322.621 361.791 322.239C362.382 321.852 363.071 321.659 363.859 321.659C364.314 321.659 364.763 321.735 365.206 321.886C365.649 322.038 366.053 322.284 366.416 322.625C366.78 322.962 367.07 323.409 367.286 323.966C367.501 324.523 367.609 325.208 367.609 326.023V326.591H360.882V325.432H366.246C366.246 324.939 366.147 324.5 365.95 324.114C365.757 323.727 365.481 323.422 365.121 323.199C364.765 322.975 364.344 322.864 363.859 322.864C363.325 322.864 362.863 322.996 362.473 323.261C362.087 323.523 361.789 323.864 361.581 324.284C361.373 324.705 361.268 325.155 361.268 325.636V326.409C361.268 327.068 361.382 327.627 361.609 328.085C361.84 328.54 362.161 328.886 362.57 329.125C362.979 329.36 363.454 329.477 363.996 329.477C364.348 329.477 364.666 329.428 364.95 329.33C365.238 329.227 365.486 329.076 365.695 328.875C365.903 328.67 366.064 328.417 366.178 328.114L367.473 328.477C367.337 328.917 367.107 329.303 366.786 329.636C366.464 329.966 366.066 330.223 365.592 330.409C365.119 330.591 364.587 330.682 363.996 330.682ZM370.415 321.773L372.506 325.341L374.597 321.773H376.142L373.324 326.136L376.142 330.5H374.597L372.506 327.114L370.415 330.5H368.869L371.642 326.136L368.869 321.773H370.415ZM378.055 333.773V321.773H379.351V323.159H379.51C379.608 323.008 379.745 322.814 379.919 322.58C380.097 322.341 380.351 322.129 380.68 321.943C381.014 321.754 381.464 321.659 382.033 321.659C382.768 321.659 383.415 321.843 383.976 322.21C384.536 322.578 384.974 323.098 385.288 323.773C385.603 324.447 385.76 325.242 385.76 326.159C385.76 327.083 385.603 327.884 385.288 328.562C384.974 329.237 384.538 329.759 383.982 330.131C383.425 330.498 382.783 330.682 382.055 330.682C381.495 330.682 381.046 330.589 380.709 330.403C380.372 330.214 380.112 330 379.93 329.761C379.749 329.519 379.608 329.318 379.51 329.159H379.396V333.773H378.055ZM379.374 326.136C379.374 326.795 379.47 327.377 379.663 327.881C379.857 328.381 380.139 328.773 380.51 329.057C380.881 329.337 381.336 329.477 381.874 329.477C382.434 329.477 382.902 329.33 383.277 329.034C383.656 328.735 383.94 328.333 384.129 327.83C384.322 327.322 384.419 326.758 384.419 326.136C384.419 325.523 384.324 324.97 384.135 324.477C383.949 323.981 383.667 323.589 383.288 323.301C382.913 323.009 382.442 322.864 381.874 322.864C381.328 322.864 380.87 323.002 380.499 323.278C380.127 323.551 379.847 323.934 379.658 324.426C379.468 324.915 379.374 325.485 379.374 326.136ZM391.351 330.682C390.563 330.682 389.872 330.494 389.277 330.119C388.686 329.744 388.224 329.22 387.891 328.545C387.561 327.871 387.396 327.083 387.396 326.182C387.396 325.273 387.561 324.479 387.891 323.801C388.224 323.123 388.686 322.597 389.277 322.222C389.872 321.847 390.563 321.659 391.351 321.659C392.139 321.659 392.828 321.847 393.419 322.222C394.014 322.597 394.476 323.123 394.805 323.801C395.139 324.479 395.305 325.273 395.305 326.182C395.305 327.083 395.139 327.871 394.805 328.545C394.476 329.22 394.014 329.744 393.419 330.119C392.828 330.494 392.139 330.682 391.351 330.682ZM391.351 329.477C391.949 329.477 392.442 329.324 392.828 329.017C393.214 328.71 393.5 328.307 393.686 327.807C393.872 327.307 393.964 326.765 393.964 326.182C393.964 325.598 393.872 325.055 393.686 324.551C393.5 324.047 393.214 323.64 392.828 323.33C392.442 323.019 391.949 322.864 391.351 322.864C390.752 322.864 390.26 323.019 389.874 323.33C389.487 323.64 389.201 324.047 389.016 324.551C388.83 325.055 388.737 325.598 388.737 326.182C388.737 326.765 388.83 327.307 389.016 327.807C389.201 328.307 389.487 328.71 389.874 329.017C390.26 329.324 390.752 329.477 391.351 329.477ZM397.352 330.5V321.773H398.648V323.091H398.739C398.898 322.659 399.186 322.309 399.602 322.04C400.019 321.771 400.489 321.636 401.011 321.636C401.11 321.636 401.233 321.638 401.381 321.642C401.528 321.646 401.64 321.652 401.716 321.659V323.023C401.67 323.011 401.566 322.994 401.403 322.972C401.244 322.945 401.076 322.932 400.898 322.932C400.473 322.932 400.095 323.021 399.761 323.199C399.432 323.373 399.17 323.616 398.977 323.926C398.788 324.233 398.693 324.583 398.693 324.977V330.5H397.352ZM407.648 321.773V322.909H403.125V321.773H407.648ZM404.443 319.682H405.784V328C405.784 328.379 405.839 328.663 405.949 328.852C406.063 329.038 406.206 329.163 406.381 329.227C406.559 329.288 406.746 329.318 406.943 329.318C407.091 329.318 407.212 329.311 407.307 329.295C407.402 329.277 407.477 329.261 407.534 329.25L407.807 330.455C407.716 330.489 407.589 330.523 407.426 330.557C407.263 330.595 407.057 330.614 406.807 330.614C406.428 330.614 406.057 330.532 405.693 330.369C405.333 330.206 405.034 329.958 404.795 329.625C404.561 329.292 404.443 328.871 404.443 328.364V319.682ZM410.642 330.591C410.362 330.591 410.121 330.491 409.92 330.29C409.72 330.089 409.619 329.848 409.619 329.568C409.619 329.288 409.72 329.047 409.92 328.847C410.121 328.646 410.362 328.545 410.642 328.545C410.922 328.545 411.163 328.646 411.364 328.847C411.564 329.047 411.665 329.288 411.665 329.568C411.665 329.754 411.617 329.924 411.523 330.08C411.432 330.235 411.309 330.36 411.153 330.455C411.002 330.545 410.831 330.591 410.642 330.591Z" fill="#E5E7EB"/>
<g opacity="0.04">
<path d="M526.233 390.212C532.146 383.319 524.908 375.472 519.124 379.809C501.222 393.045 470.002 399.722 446.263 393.939C446.145 393.912 446.021 393.913 445.903 393.942C445.784 393.971 445.674 394.028 445.582 394.107C445.49 394.187 445.417 394.287 445.371 394.4C445.324 394.513 445.305 394.635 445.315 394.756C445.321 395.162 445.414 395.561 445.587 395.928C445.76 396.295 446.01 396.62 446.319 396.882C455.943 405.005 482.196 412.787 491.511 405.756C363.07 502.628 252.673 438.176 163.597 328.918C116.162 274.016 82.5303 208.332 35.8387 152.873C-11.1104 99.4359 -77.2204 52.3049 -151.098 54.5857C-151.303 54.5859 -151.505 54.6365 -151.686 54.7331C-151.867 54.8297 -152.022 54.9694 -152.136 55.1398C-152.251 55.3102 -152.322 55.5061 -152.342 55.7103C-152.363 55.9145 -152.334 56.1207 -152.256 56.3107C-152.133 56.6499 -151.908 56.9427 -151.612 57.1491C-151.315 57.3555 -150.963 57.4655 -150.602 57.464C-78.0165 57.3867 -15.1397 104.294 29.5446 158.095C74.827 214.95 106.02 281.429 152.489 337.724C242.091 456.611 364.206 527.895 494.657 412.632C490.853 416.007 487.7 445.926 497.897 458.86C498.189 459.23 498.608 459.479 499.073 459.558C499.538 459.637 500.016 459.54 500.414 459.287L500.461 459.246C500.687 459.1 500.847 458.872 500.908 458.61C500.969 458.348 500.926 458.072 500.788 457.841C491.765 441.665 514.315 404.064 526.233 390.212Z" fill="white"/>
<path d="M165.38 293.8C202.275 340.13 265.292 401.593 320.111 422.105C320.26 422.191 320.376 422.325 320.44 422.485C320.503 422.644 320.511 422.821 320.462 422.986C320.413 423.151 320.309 423.294 320.168 423.393C320.027 423.491 319.857 423.54 319.686 423.53C261.499 408.644 196.441 345.484 164.206 294.663C164.143 294.508 164.133 294.336 164.179 294.175C164.224 294.014 164.322 293.873 164.457 293.774C164.592 293.675 164.756 293.624 164.923 293.629C165.09 293.633 165.251 293.694 165.38 293.8Z" fill="white"/>
<path d="M157.385 278.473C157.428 278.723 157.395 278.98 157.29 279.21C157.184 279.441 157.011 279.633 156.794 279.763C156.576 279.893 156.324 279.955 156.072 279.938C155.819 279.922 155.577 279.83 155.377 279.673C154.903 279.123 154.421 278.563 154.004 277.964C152.549 276.042 151.201 274.042 149.967 271.971C148.73 269.9 147.615 267.76 146.627 265.56C146.322 264.88 146.035 264.202 145.758 263.515C145.71 263.263 145.741 263.003 145.845 262.769C145.95 262.535 146.125 262.339 146.345 262.207C146.564 262.075 146.82 262.014 147.075 262.032C147.331 262.05 147.575 262.146 147.775 262.307C148.265 262.876 148.747 263.436 149.163 264.053C152.08 267.897 154.555 272.058 156.541 276.457C156.879 277.157 157.148 277.834 157.385 278.473Z" fill="white"/>
</g>
</g>
<defs>
<clipPath id="clip0_119_22405">
<rect width="583" height="563" fill="white"/>
</clipPath>
</defs>
</svg>
