<svg width="50" height="48" viewBox="0 0 50 48" fill="none" xmlns="http://www.w3.org/2000/svg">
<path fill-rule="evenodd" clip-rule="evenodd" d="M40.938 28.8985C41.8165 26.7777 42.2687 24.5046 42.2687 22.209L44.991 22.209H49.5045V24.7165C48.3821 24.812 46.1516 25.4472 46.209 27.2239C46.2663 29.0006 47.5701 30.4956 48.2149 31.0209C48.2388 31.4747 48.0573 32.6687 47.1403 33.815C46.0418 33.6717 43.7301 33.7003 43.2716 34.9612C42.8131 36.2221 43.2716 38.4956 43.5582 39.4747C43.0567 40.0239 41.9248 41.2227 41.409 41.6239C40.5015 41.0269 38.3713 40.1194 37.1104 41.2657C35.8495 42.412 35.7731 44.5135 35.8925 45.4209L33.0985 46.6388C32.5731 45.7314 31.1069 44.0454 29.4448 44.5612C27.7827 45.077 26.8418 47.0687 26.5791 48H23.4985C23.1642 46.9015 22.166 44.7045 20.8478 44.7045C19.5296 44.7045 17.7194 46.0896 16.9791 46.7821L14.1134 45.6359C14.3045 44.5851 14.357 42.326 13.0388 41.6956C11.7206 41.0651 9.57612 41.6717 8.66866 42.0538L6.30448 39.7612C6.90149 38.6388 7.80896 36.2078 6.66269 35.4627C5.51642 34.7176 3.65373 34.5314 2.86567 34.5314L1.36119 31.5224C2.38806 30.7582 4.22687 28.886 3.36716 27.5105C2.50746 26.135 0.764179 25.2657 0 25.003V22.209H4.65672L7.30746 22.209C7.30746 24.5046 7.75961 26.7777 8.63809 28.8985C9.51657 31.0194 10.8042 32.9464 12.4274 34.5696C14.0506 36.1929 15.9777 37.4805 18.0985 38.359C20.2194 39.2374 22.4925 39.6896 24.7881 39.6896C27.0836 39.6896 29.3567 39.2374 31.4776 38.359C33.5984 37.4805 35.5255 36.1929 37.1487 34.5696C38.7719 32.9464 40.0595 31.0194 40.938 28.8985Z" fill="#2A6EBF"/>
<path d="M39.1164 22.209C39.1164 24.0906 38.7458 25.9538 38.0258 27.6922C37.3057 29.4306 36.2503 31.0101 34.9198 32.3407C33.5892 33.6712 32.0097 34.7266 30.2713 35.4467C28.5329 36.1667 26.6697 36.5373 24.7881 36.5373C22.9064 36.5373 21.0432 36.1667 19.3048 35.4467C17.5665 34.7266 15.9869 33.6712 14.6564 32.3407C13.3259 31.0101 12.2705 29.4306 11.5504 27.6922C10.8303 25.9538 10.4597 24.0906 10.4597 22.209L24.7881 22.209H39.1164Z" fill="#208B5D"/>
<path fill-rule="evenodd" clip-rule="evenodd" d="M23.0702 16.1103C24.5698 17.6099 24.3829 18.6477 23.6275 19.4031C22.8721 20.1585 21.8343 20.3455 20.3347 18.8459C18.8351 17.3464 18.197 13.9727 18.197 13.9727C18.197 13.9727 21.5698 14.6103 23.07 16.1104L23.0702 16.1103Z" fill="#FFD700"/>
<path fill-rule="evenodd" clip-rule="evenodd" d="M23.2479 12.0586C24.5101 13.3209 24.3528 14.1942 23.7169 14.8301C23.081 15.466 22.2077 15.6233 20.9454 14.3612C19.6832 13.099 19.146 10.2595 19.146 10.2595C19.146 10.2595 21.9873 10.7968 23.2482 12.0589L23.2479 12.0586Z" fill="#FFD700"/>
<path fill-rule="evenodd" clip-rule="evenodd" d="M23.3624 8.43554C24.473 9.54613 24.3346 10.3146 23.7751 10.8741C23.2156 11.4336 22.4471 11.572 21.3366 10.4614C20.2261 9.35097 19.7534 6.85254 19.7534 6.85254C19.7534 6.85254 22.2523 7.32509 23.3627 8.43554H23.3624Z" fill="#FFD700"/>
<path fill-rule="evenodd" clip-rule="evenodd" d="M24.9042 14.0986C23.4046 15.5982 23.5916 16.636 24.347 17.3914C25.1023 18.1468 26.1402 18.3338 27.6398 16.8342C29.1394 15.3347 29.7774 11.9609 29.7774 11.9609C29.7774 11.9609 26.4031 12.6001 24.9043 14.0989L24.9042 14.0986Z" fill="#FFD700"/>
<path fill-rule="evenodd" clip-rule="evenodd" d="M24.7251 10.0474C23.4629 11.3097 23.6202 12.183 24.2561 12.8189C24.892 13.4548 25.7653 13.6121 27.0276 12.3499C28.2898 11.0877 28.827 8.24829 28.827 8.24829C28.827 8.24829 25.9871 8.7846 24.7248 10.0466L24.7251 10.0474Z" fill="#FFD700"/>
<path fill-rule="evenodd" clip-rule="evenodd" d="M24.6103 6.42431C23.4997 7.5349 23.6382 8.30333 24.1977 8.86285C24.7572 9.42237 25.5256 9.56078 26.6362 8.45019C27.7467 7.33974 28.2194 4.84131 28.2194 4.84131C28.2194 4.84131 25.7205 5.31371 24.6101 6.42431H24.6103Z" fill="#FFD700"/>
<path fill-rule="evenodd" clip-rule="evenodd" d="M24.6679 4.35367C24.6679 6.21622 23.9072 6.7445 22.9691 6.7445C22.0311 6.7445 21.2705 6.21607 21.2705 4.35367C21.2705 2.49127 22.9691 0 22.9691 0C22.9691 0 24.667 2.49127 24.667 4.35367H24.6679Z" fill="#FFD700"/>
<path fill-rule="evenodd" clip-rule="evenodd" d="M23.4985 36.4813C23.4985 36.4813 23.4985 36.4813 24.2418 36.5301C24.4908 36.5464 24.9314 36.5301 24.9314 36.5301L24.5149 22.209H23.8612L23.4985 36.4813Z" fill="white"/>
<path fill-rule="evenodd" clip-rule="evenodd" d="M24.1677 36.3939C24.1677 36.3939 22.1805 25.3639 29.6598 22.9253C24.3484 29.9146 24.7459 36.1755 24.7459 36.1755" fill="white"/>
</svg>
