<svg width="158" height="54" viewBox="0 0 158 54" fill="none" xmlns="http://www.w3.org/2000/svg">
<path d="M31.1222 8.45455V23H28.7784L21.9247 13.0923H21.804V23H19.169V8.45455H21.527L28.3736 18.3693H28.5014V8.45455H31.1222ZM35.8612 23H33.0487L38.1694 8.45455H41.4222L46.5501 23H43.7376L39.8526 11.4375H39.739L35.8612 23ZM35.9535 17.2969H43.6239V19.4134H35.9535V17.2969ZM48.4659 23V8.45455H51.1009V14.6122H57.8409V8.45455H60.483V23H57.8409V16.821H51.1009V23H48.4659ZM75.799 13.3622H73.1428C73.067 12.9266 72.9273 12.5407 72.7237 12.2045C72.5201 11.8636 72.2668 11.5748 71.9638 11.3381C71.6607 11.1013 71.3151 10.9238 70.9268 10.8054C70.5433 10.6823 70.129 10.6207 69.6839 10.6207C68.8932 10.6207 68.1925 10.8196 67.5817 11.2173C66.9709 11.6103 66.4927 12.188 66.147 12.9503C65.8014 13.7079 65.6286 14.6335 65.6286 15.7273C65.6286 16.84 65.8014 17.7775 66.147 18.5398C66.4974 19.2973 66.9756 19.8703 67.5817 20.2585C68.1925 20.642 68.8909 20.8338 69.6768 20.8338C70.1125 20.8338 70.5196 20.777 70.8984 20.6634C71.282 20.545 71.6252 20.3722 71.9283 20.1449C72.236 19.9176 72.4941 19.6383 72.7024 19.3068C72.9155 18.9754 73.0623 18.5966 73.1428 18.1705L75.799 18.1847C75.6996 18.8759 75.4841 19.5246 75.1527 20.1307C74.826 20.7367 74.3975 21.2718 73.8672 21.7358C73.3369 22.1951 72.7166 22.5549 72.0064 22.8153C71.2962 23.071 70.5078 23.1989 69.6413 23.1989C68.3629 23.1989 67.2218 22.9029 66.218 22.3111C65.2143 21.7192 64.4235 20.8646 63.8459 19.7472C63.2682 18.6297 62.9794 17.2898 62.9794 15.7273C62.9794 14.16 63.2706 12.8201 63.853 11.7074C64.4354 10.59 65.2285 9.73532 66.2322 9.14347C67.236 8.55161 68.3724 8.25568 69.6413 8.25568C70.451 8.25568 71.2038 8.36932 71.8999 8.59659C72.5959 8.82386 73.2161 9.15767 73.7607 9.59801C74.3052 10.0336 74.7526 10.5687 75.103 11.2031C75.4581 11.8329 75.6901 12.5526 75.799 13.3622ZM91.2092 15.7273C91.2092 17.2945 90.9156 18.6368 90.3285 19.7543C89.7461 20.867 88.9506 21.7192 87.9421 22.3111C86.9383 22.9029 85.7996 23.1989 84.5259 23.1989C83.2522 23.1989 82.1112 22.9029 81.1026 22.3111C80.0988 21.7145 79.3034 20.8598 78.7163 19.7472C78.1339 18.6297 77.8427 17.2898 77.8427 15.7273C77.8427 14.16 78.1339 12.8201 78.7163 11.7074C79.3034 10.59 80.0988 9.73532 81.1026 9.14347C82.1112 8.55161 83.2522 8.25568 84.5259 8.25568C85.7996 8.25568 86.9383 8.55161 87.9421 9.14347C88.9506 9.73532 89.7461 10.59 90.3285 11.7074C90.9156 12.8201 91.2092 14.16 91.2092 15.7273ZM88.56 15.7273C88.56 14.6241 88.3872 13.6937 88.0415 12.9361C87.7006 12.1738 87.2272 11.5985 86.6211 11.2102C86.015 10.8172 85.3166 10.6207 84.5259 10.6207C83.7352 10.6207 83.0368 10.8172 82.4308 11.2102C81.8247 11.5985 81.3488 12.1738 81.0032 12.9361C80.6623 13.6937 80.4918 14.6241 80.4918 15.7273C80.4918 16.8305 80.6623 17.7633 81.0032 18.5256C81.3488 19.2831 81.8247 19.8584 82.4308 20.2514C83.0368 20.6397 83.7352 20.8338 84.5259 20.8338C85.3166 20.8338 86.015 20.6397 86.6211 20.2514C87.2272 19.8584 87.7006 19.2831 88.0415 18.5256C88.3872 17.7633 88.56 16.8305 88.56 15.7273Z" fill="#E1CFB4"/>
<path d="M9.8608 37.8182H11.7251L14.9666 45.733H15.0859L18.3274 37.8182H20.1918V48H18.7301V40.6321H18.6357L15.6328 47.9851H14.4197L11.4169 40.6271H11.3224V48H9.8608V37.8182ZM24.5282 48.169C24.0443 48.169 23.6068 48.0795 23.2157 47.9006C22.8246 47.7183 22.5147 47.4548 22.286 47.1101C22.0607 46.7654 21.948 46.3428 21.948 45.8423C21.948 45.4115 22.0308 45.0568 22.1966 44.7784C22.3623 44.5 22.586 44.2796 22.8677 44.1172C23.1494 43.9548 23.4643 43.8321 23.8123 43.7493C24.1603 43.6664 24.515 43.6035 24.8762 43.5604C25.3336 43.5073 25.7048 43.4643 25.9899 43.4311C26.2749 43.3946 26.4821 43.3366 26.6113 43.2571C26.7406 43.1776 26.8052 43.0483 26.8052 42.8693V42.8345C26.8052 42.4003 26.6826 42.0639 26.4373 41.8253C26.1954 41.5866 25.8341 41.4673 25.3535 41.4673C24.853 41.4673 24.4586 41.5784 24.1703 41.8004C23.8852 42.0192 23.688 42.2628 23.5787 42.5312L22.1816 42.2131C22.3474 41.7491 22.5893 41.3745 22.9075 41.0895C23.229 40.8011 23.5985 40.5923 24.0162 40.4631C24.4338 40.3305 24.8729 40.2642 25.3336 40.2642C25.6386 40.2642 25.9617 40.3007 26.3031 40.3736C26.6478 40.4432 26.9693 40.5724 27.2676 40.7614C27.5692 40.9503 27.8161 41.2204 28.0083 41.5717C28.2006 41.9197 28.2967 42.3722 28.2967 42.929V48H26.845V46.956H26.7853C26.6892 47.1482 26.545 47.3371 26.3528 47.5227C26.1606 47.7083 25.9136 47.8625 25.612 47.9851C25.3104 48.1077 24.9492 48.169 24.5282 48.169ZM24.8514 46.9759C25.2624 46.9759 25.6137 46.8946 25.9054 46.7322C26.2003 46.5698 26.4241 46.3577 26.5765 46.0959C26.7323 45.8307 26.8102 45.5473 26.8102 45.2457V44.2614C26.7572 44.3144 26.6544 44.3641 26.502 44.4105C26.3528 44.4536 26.1821 44.4917 25.9899 44.5249C25.7976 44.5547 25.6104 44.5829 25.4281 44.6094C25.2458 44.6326 25.0933 44.6525 24.9707 44.669C24.6824 44.7055 24.4189 44.7668 24.1802 44.853C23.9449 44.9392 23.756 45.0634 23.6135 45.2259C23.4743 45.3849 23.4047 45.5971 23.4047 45.8622C23.4047 46.2301 23.5405 46.5085 23.8123 46.6974C24.0841 46.883 24.4305 46.9759 24.8514 46.9759ZM31.7631 43.4659V48H30.2766V40.3636H31.7035V41.6065H31.7979C31.9736 41.2022 32.2487 40.8774 32.6232 40.6321C33.0011 40.3868 33.4767 40.2642 34.0501 40.2642C34.5704 40.2642 35.0262 40.3736 35.4173 40.5923C35.8084 40.8078 36.1116 41.1293 36.3271 41.5568C36.5425 41.9844 36.6502 42.513 36.6502 43.1428V48H35.1637V43.3217C35.1637 42.7682 35.0195 42.3357 34.7312 42.0241C34.4428 41.7093 34.0468 41.5518 33.543 41.5518C33.1983 41.5518 32.8917 41.6264 32.6232 41.7756C32.3581 41.9247 32.1476 42.1435 31.9918 42.4318C31.8394 42.7169 31.7631 43.0616 31.7631 43.4659ZM40.8661 48.169C40.3822 48.169 39.9447 48.0795 39.5536 47.9006C39.1625 47.7183 38.8526 47.4548 38.6239 47.1101C38.3986 46.7654 38.2859 46.3428 38.2859 45.8423C38.2859 45.4115 38.3687 45.0568 38.5344 44.7784C38.7002 44.5 38.9239 44.2796 39.2056 44.1172C39.4873 43.9548 39.8022 43.8321 40.1502 43.7493C40.4982 43.6664 40.8529 43.6035 41.2141 43.5604C41.6715 43.5073 42.0427 43.4643 42.3278 43.4311C42.6128 43.3946 42.82 43.3366 42.9492 43.2571C43.0785 43.1776 43.1431 43.0483 43.1431 42.8693V42.8345C43.1431 42.4003 43.0205 42.0639 42.7752 41.8253C42.5333 41.5866 42.172 41.4673 41.6914 41.4673C41.1909 41.4673 40.7965 41.5784 40.5082 41.8004C40.2231 42.0192 40.0259 42.2628 39.9165 42.5312L38.5195 42.2131C38.6853 41.7491 38.9272 41.3745 39.2454 41.0895C39.5669 40.8011 39.9364 40.5923 40.354 40.4631C40.7717 40.3305 41.2108 40.2642 41.6715 40.2642C41.9764 40.2642 42.2996 40.3007 42.641 40.3736C42.9857 40.4432 43.3072 40.5724 43.6055 40.7614C43.9071 40.9503 44.154 41.2204 44.3462 41.5717C44.5385 41.9197 44.6346 42.3722 44.6346 42.929V48H43.1829V46.956H43.1232C43.0271 47.1482 42.8829 47.3371 42.6907 47.5227C42.4985 47.7083 42.2515 47.8625 41.9499 47.9851C41.6483 48.1077 41.2871 48.169 40.8661 48.169ZM41.1893 46.9759C41.6003 46.9759 41.9516 46.8946 42.2433 46.7322C42.5382 46.5698 42.762 46.3577 42.9144 46.0959C43.0702 45.8307 43.1481 45.5473 43.1481 45.2457V44.2614C43.0951 44.3144 42.9923 44.3641 42.8398 44.4105C42.6907 44.4536 42.52 44.4917 42.3278 44.5249C42.1355 44.5547 41.9483 44.5829 41.766 44.6094C41.5837 44.6326 41.4312 44.6525 41.3086 44.669C41.0202 44.7055 40.7567 44.7668 40.5181 44.853C40.2828 44.9392 40.0939 45.0634 39.9513 45.2259C39.8121 45.3849 39.7425 45.5971 39.7425 45.8622C39.7425 46.2301 39.8784 46.5085 40.1502 46.6974C40.422 46.883 40.7683 46.9759 41.1893 46.9759ZM49.8162 51.0227C49.2097 51.0227 48.6877 50.9432 48.2502 50.7841C47.816 50.625 47.4614 50.4145 47.1863 50.1527C46.9112 49.8909 46.7057 49.6042 46.5698 49.2926L47.8475 48.7656C47.937 48.9115 48.0563 49.0656 48.2054 49.228C48.3579 49.3937 48.5634 49.5346 48.8219 49.6506C49.0837 49.7666 49.4202 49.8246 49.8311 49.8246C50.3946 49.8246 50.8603 49.687 51.2282 49.4119C51.5961 49.1402 51.78 48.706 51.78 48.1094V46.608H51.6855C51.5961 46.7704 51.4668 46.951 51.2978 47.1499C51.132 47.3487 50.9034 47.5211 50.6117 47.6669C50.32 47.8127 49.9405 47.8857 49.4732 47.8857C48.87 47.8857 48.3264 47.7448 47.8425 47.4631C47.3619 47.178 46.9808 46.7588 46.699 46.2053C46.4206 45.6484 46.2814 44.964 46.2814 44.152C46.2814 43.34 46.419 42.6439 46.6941 42.0639C46.9725 41.4839 47.3536 41.0398 47.8375 40.7315C48.3214 40.42 48.87 40.2642 49.4831 40.2642C49.9571 40.2642 50.3399 40.3438 50.6316 40.5028C50.9232 40.6586 51.1503 40.8409 51.3127 41.0497C51.4784 41.2585 51.606 41.4425 51.6955 41.6016H51.8049V40.3636H53.2615V48.169C53.2615 48.8253 53.1091 49.3639 52.8042 49.7848C52.4992 50.2057 52.0866 50.5173 51.5662 50.7195C51.0492 50.9216 50.4659 51.0227 49.8162 51.0227ZM49.8013 46.6527C50.2289 46.6527 50.5901 46.5533 50.8851 46.3544C51.1834 46.1522 51.4088 45.8639 51.5613 45.4893C51.717 45.1115 51.7949 44.6591 51.7949 44.1321C51.7949 43.6184 51.7187 43.166 51.5662 42.7749C51.4138 42.3838 51.19 42.0788 50.8951 41.8601C50.6001 41.638 50.2355 41.527 49.8013 41.527C49.3539 41.527 48.981 41.643 48.6827 41.875C48.3844 42.1037 48.159 42.4152 48.0066 42.8097C47.8574 43.2041 47.7828 43.6449 47.7828 44.1321C47.7828 44.6326 47.8591 45.0717 48.0115 45.4496C48.164 45.8274 48.3894 46.1224 48.6877 46.3345C48.9893 46.5466 49.3605 46.6527 49.8013 46.6527ZM58.5463 48.1541C57.794 48.1541 57.146 47.9934 56.6025 47.6719C56.0622 47.3471 55.6446 46.8913 55.3496 46.3047C55.0579 45.7147 54.9121 45.0237 54.9121 44.2315C54.9121 43.4493 55.0579 42.7599 55.3496 42.1634C55.6446 41.5668 56.0556 41.1011 56.5826 40.7663C57.1129 40.4316 57.7327 40.2642 58.4419 40.2642C58.8728 40.2642 59.2904 40.3355 59.6948 40.478C60.0991 40.6205 60.4621 40.8442 60.7836 41.1491C61.1051 41.4541 61.3586 41.8501 61.5442 42.3374C61.7298 42.8213 61.8226 43.4096 61.8226 44.1023V44.6293H55.7523V43.5156H60.3659C60.3659 43.1245 60.2864 42.7782 60.1273 42.4766C59.9682 42.1716 59.7445 41.9313 59.4561 41.7557C59.1711 41.58 58.8364 41.4922 58.4519 41.4922C58.0343 41.4922 57.6697 41.5949 57.3581 41.8004C57.0499 42.0026 56.8113 42.2678 56.6422 42.5959C56.4765 42.9207 56.3936 43.2737 56.3936 43.6548V44.5249C56.3936 45.0353 56.4831 45.4695 56.6621 45.8274C56.8444 46.1854 57.098 46.4588 57.4228 46.6477C57.7476 46.8333 58.1271 46.9261 58.5613 46.9261C58.843 46.9261 59.0998 46.8864 59.3319 46.8068C59.5639 46.724 59.7644 46.6013 59.9334 46.4389C60.1025 46.2765 60.2317 46.076 60.3212 45.8374L61.7282 46.0909C61.6155 46.5052 61.4133 46.8681 61.1216 47.1797C60.8333 47.4879 60.4703 47.7282 60.0328 47.9006C59.5987 48.0696 59.1032 48.1541 58.5463 48.1541ZM63.4719 48V40.3636H64.8988V41.6065H64.9933C65.1523 41.1856 65.4125 40.8575 65.7738 40.6222C66.1351 40.3835 66.5676 40.2642 67.0714 40.2642C67.5818 40.2642 68.0094 40.3835 68.354 40.6222C68.7021 40.8608 68.9589 41.1889 69.1246 41.6065H69.2042C69.3865 41.1989 69.6765 40.8741 70.0742 40.6321C70.4719 40.3868 70.9459 40.2642 71.4961 40.2642C72.1888 40.2642 72.7539 40.4813 73.1914 40.9155C73.6322 41.3497 73.8526 42.0043 73.8526 42.8793V48H72.3661V43.0185C72.3661 42.5014 72.2253 42.1269 71.9435 41.8949C71.6618 41.6629 71.3254 41.5469 70.9343 41.5469C70.4504 41.5469 70.0742 41.696 69.8058 41.9943C69.5373 42.2893 69.4031 42.6688 69.4031 43.1328V48H67.9215V42.924C67.9215 42.5097 67.7923 42.1766 67.5337 41.9247C67.2752 41.6728 66.9388 41.5469 66.5245 41.5469C66.2428 41.5469 65.9826 41.6214 65.744 41.7706C65.5086 41.9164 65.3181 42.1203 65.1722 42.3821C65.0297 42.6439 64.9585 42.9472 64.9585 43.2919V48H63.4719ZM79.1362 48.1541C78.3838 48.1541 77.7359 47.9934 77.1923 47.6719C76.652 47.3471 76.2344 46.8913 75.9395 46.3047C75.6478 45.7147 75.502 45.0237 75.502 44.2315C75.502 43.4493 75.6478 42.7599 75.9395 42.1634C76.2344 41.5668 76.6454 41.1011 77.1724 40.7663C77.7027 40.4316 78.3225 40.2642 79.0318 40.2642C79.4627 40.2642 79.8803 40.3355 80.2846 40.478C80.689 40.6205 81.0519 40.8442 81.3734 41.1491C81.6949 41.4541 81.9484 41.8501 82.1341 42.3374C82.3197 42.8213 82.4125 43.4096 82.4125 44.1023V44.6293H76.3422V43.5156H80.9558C80.9558 43.1245 80.8762 42.7782 80.7172 42.4766C80.5581 42.1716 80.3343 41.9313 80.046 41.7557C79.7609 41.58 79.4262 41.4922 79.0417 41.4922C78.6241 41.4922 78.2595 41.5949 77.948 41.8004C77.6397 42.0026 77.4011 42.2678 77.2321 42.5959C77.0663 42.9207 76.9835 43.2737 76.9835 43.6548V44.5249C76.9835 45.0353 77.073 45.4695 77.252 45.8274C77.4342 46.1854 77.6878 46.4588 78.0126 46.6477C78.3374 46.8333 78.7169 46.9261 79.1511 46.9261C79.4328 46.9261 79.6897 46.8864 79.9217 46.8068C80.1537 46.724 80.3542 46.6013 80.5233 46.4389C80.6923 46.2765 80.8216 46.076 80.911 45.8374L82.318 46.0909C82.2053 46.5052 82.0031 46.8681 81.7115 47.1797C81.4231 47.4879 81.0602 47.7282 80.6227 47.9006C80.1885 48.0696 79.693 48.1541 79.1362 48.1541ZM85.5483 43.4659V48H84.0618V40.3636H85.4886V41.6065H85.5831C85.7588 41.2022 86.0339 40.8774 86.4084 40.6321C86.7862 40.3868 87.2618 40.2642 87.8352 40.2642C88.3556 40.2642 88.8113 40.3736 89.2024 40.5923C89.5935 40.8078 89.8968 41.1293 90.1122 41.5568C90.3277 41.9844 90.4354 42.513 90.4354 43.1428V48H88.9489V43.3217C88.9489 42.7682 88.8047 42.3357 88.5163 42.0241C88.228 41.7093 87.8319 41.5518 87.3281 41.5518C86.9834 41.5518 86.6768 41.6264 86.4084 41.7756C86.1432 41.9247 85.9328 42.1435 85.777 42.4318C85.6245 42.7169 85.5483 43.0616 85.5483 43.4659ZM95.9936 40.3636V41.5568H91.8224V40.3636H95.9936ZM92.9411 38.5341H94.4276V45.7578C94.4276 46.0462 94.4706 46.2633 94.5568 46.4091C94.643 46.5516 94.754 46.6494 94.8899 46.7024C95.0291 46.7521 95.1799 46.777 95.3423 46.777C95.4616 46.777 95.5661 46.7687 95.6555 46.7521C95.745 46.7356 95.8146 46.7223 95.8643 46.7124L96.1328 47.9403C96.0466 47.9735 95.924 48.0066 95.7649 48.0398C95.6058 48.0762 95.407 48.0961 95.1683 48.0994C94.7772 48.1061 94.4126 48.0365 94.0746 47.8906C93.7365 47.7448 93.4631 47.5194 93.2543 47.2145C93.0455 46.9096 92.9411 46.5268 92.9411 46.0661V38.5341ZM107.016 40.4929C106.963 40.0223 106.744 39.6577 106.359 39.3991C105.975 39.1373 105.491 39.0064 104.908 39.0064C104.49 39.0064 104.129 39.0727 103.824 39.2053C103.519 39.3345 103.282 39.5135 103.113 39.7422C102.947 39.9676 102.864 40.2244 102.864 40.5128C102.864 40.7547 102.921 40.9635 103.033 41.1392C103.149 41.3149 103.3 41.4624 103.486 41.5817C103.675 41.6977 103.877 41.7955 104.092 41.875C104.308 41.9512 104.515 42.0142 104.714 42.0639L105.708 42.3224C106.033 42.402 106.366 42.5097 106.707 42.6456C107.049 42.7815 107.365 42.9605 107.657 43.1825C107.949 43.4046 108.184 43.6797 108.363 44.0078C108.545 44.3359 108.636 44.7287 108.636 45.1861C108.636 45.7628 108.487 46.2749 108.189 46.7223C107.894 47.1697 107.465 47.5227 106.901 47.7812C106.341 48.0398 105.663 48.169 104.868 48.169C104.106 48.169 103.446 48.0481 102.889 47.8061C102.332 47.5642 101.897 47.2211 101.582 46.777C101.267 46.3295 101.093 45.7992 101.06 45.1861H102.601C102.631 45.554 102.75 45.8606 102.959 46.1058C103.171 46.3478 103.441 46.5284 103.769 46.6477C104.101 46.7637 104.464 46.8217 104.858 46.8217C105.292 46.8217 105.678 46.7538 106.016 46.6179C106.358 46.4787 106.626 46.2865 106.822 46.0412C107.017 45.7926 107.115 45.5026 107.115 45.1712C107.115 44.8696 107.029 44.6226 106.857 44.4304C106.688 44.2382 106.457 44.0791 106.165 43.9531C105.877 43.8272 105.551 43.7161 105.186 43.62L103.983 43.2919C103.168 43.0698 102.521 42.7434 102.044 42.3125C101.57 41.8816 101.333 41.3116 101.333 40.6023C101.333 40.0156 101.492 39.5036 101.81 39.0661C102.129 38.6286 102.559 38.2888 103.103 38.0469C103.647 37.8016 104.26 37.679 104.942 37.679C105.632 37.679 106.24 37.8 106.767 38.0419C107.297 38.2839 107.715 38.617 108.02 39.0412C108.325 39.4621 108.484 39.946 108.497 40.4929H107.016ZM113.644 48.1541C112.892 48.1541 112.244 47.9934 111.7 47.6719C111.16 47.3471 110.742 46.8913 110.447 46.3047C110.156 45.7147 110.01 45.0237 110.01 44.2315C110.01 43.4493 110.156 42.7599 110.447 42.1634C110.742 41.5668 111.153 41.1011 111.68 40.7663C112.211 40.4316 112.83 40.2642 113.54 40.2642C113.97 40.2642 114.388 40.3355 114.792 40.478C115.197 40.6205 115.56 40.8442 115.881 41.1491C116.203 41.4541 116.456 41.8501 116.642 42.3374C116.827 42.8213 116.92 43.4096 116.92 44.1023V44.6293H110.85V43.5156H115.464C115.464 43.1245 115.384 42.7782 115.225 42.4766C115.066 42.1716 114.842 41.9313 114.554 41.7557C114.269 41.58 113.934 41.4922 113.55 41.4922C113.132 41.4922 112.767 41.5949 112.456 41.8004C112.148 42.0026 111.909 42.2678 111.74 42.5959C111.574 42.9207 111.491 43.2737 111.491 43.6548V44.5249C111.491 45.0353 111.581 45.4695 111.76 45.8274C111.942 46.1854 112.196 46.4588 112.52 46.6477C112.845 46.8333 113.225 46.9261 113.659 46.9261C113.941 46.9261 114.198 46.8864 114.43 46.8068C114.662 46.724 114.862 46.6013 115.031 46.4389C115.2 46.2765 115.329 46.076 115.419 45.8374L116.826 46.0909C116.713 46.5052 116.511 46.8681 116.219 47.1797C115.931 47.4879 115.568 47.7282 115.131 47.9006C114.696 48.0696 114.201 48.1541 113.644 48.1541ZM118.57 48V40.3636H120.006V41.5767H120.086C120.225 41.1657 120.47 40.8426 120.822 40.6072C121.176 40.3686 121.577 40.2493 122.025 40.2493C122.118 40.2493 122.227 40.2526 122.353 40.2592C122.482 40.2659 122.583 40.2741 122.656 40.2841V41.706C122.597 41.6894 122.491 41.6712 122.338 41.6513C122.186 41.6281 122.033 41.6165 121.881 41.6165C121.529 41.6165 121.216 41.6911 120.941 41.8402C120.669 41.986 120.454 42.1899 120.295 42.4517C120.136 42.7102 120.056 43.0052 120.056 43.3366V48H118.57ZM130.708 40.3636L127.939 48H126.348L123.574 40.3636H125.169L127.103 46.2401H127.183L129.112 40.3636H130.708ZM132.105 48V40.3636H133.591V48H132.105ZM132.855 39.1854C132.597 39.1854 132.375 39.0992 132.189 38.9268C132.007 38.7512 131.916 38.5424 131.916 38.3004C131.916 38.0552 132.007 37.8464 132.189 37.674C132.375 37.4983 132.597 37.4105 132.855 37.4105C133.114 37.4105 133.334 37.4983 133.517 37.674C133.702 37.8464 133.795 38.0552 133.795 38.3004C133.795 38.5424 133.702 38.7512 133.517 38.9268C133.334 39.0992 133.114 39.1854 132.855 39.1854ZM138.808 48.1541C138.069 48.1541 137.432 47.9867 136.899 47.652C136.368 47.3139 135.961 46.8482 135.676 46.255C135.391 45.6617 135.248 44.9822 135.248 44.2166C135.248 43.4411 135.394 42.7566 135.686 42.1634C135.977 41.5668 136.388 41.1011 136.919 40.7663C137.449 40.4316 138.074 40.2642 138.793 40.2642C139.373 40.2642 139.89 40.3719 140.344 40.5874C140.798 40.7995 141.164 41.0978 141.443 41.4822C141.724 41.8667 141.892 42.3158 141.945 42.8295H140.498C140.419 42.4716 140.236 42.1634 139.951 41.9048C139.669 41.6463 139.292 41.517 138.818 41.517C138.403 41.517 138.04 41.6264 137.729 41.8452C137.421 42.0606 137.18 42.3688 137.008 42.7699C136.836 43.1676 136.749 43.6383 136.749 44.1818C136.749 44.7386 136.834 45.2192 137.003 45.6236C137.172 46.0279 137.411 46.3411 137.719 46.5632C138.03 46.7853 138.397 46.8963 138.818 46.8963C139.099 46.8963 139.355 46.8449 139.583 46.7422C139.815 46.6361 140.009 46.4853 140.165 46.2898C140.324 46.0942 140.435 45.8589 140.498 45.5838H141.945C141.892 46.0777 141.731 46.5185 141.463 46.9062C141.194 47.294 140.834 47.599 140.384 47.821C139.936 48.0431 139.411 48.1541 138.808 48.1541ZM146.826 48.1541C146.073 48.1541 145.425 47.9934 144.882 47.6719C144.342 47.3471 143.924 46.8913 143.629 46.3047C143.337 45.7147 143.191 45.0237 143.191 44.2315C143.191 43.4493 143.337 42.7599 143.629 42.1634C143.924 41.5668 144.335 41.1011 144.862 40.7663C145.392 40.4316 146.012 40.2642 146.721 40.2642C147.152 40.2642 147.57 40.3355 147.974 40.478C148.378 40.6205 148.741 40.8442 149.063 41.1491C149.384 41.4541 149.638 41.8501 149.824 42.3374C150.009 42.8213 150.102 43.4096 150.102 44.1023V44.6293H144.032V43.5156H148.645C148.645 43.1245 148.566 42.7782 148.407 42.4766C148.248 42.1716 148.024 41.9313 147.735 41.7557C147.45 41.58 147.116 41.4922 146.731 41.4922C146.314 41.4922 145.949 41.5949 145.637 41.8004C145.329 42.0026 145.091 42.2678 144.922 42.5959C144.756 42.9207 144.673 43.2737 144.673 43.6548V44.5249C144.673 45.0353 144.762 45.4695 144.941 45.8274C145.124 46.1854 145.377 46.4588 145.702 46.6477C146.027 46.8333 146.406 46.9261 146.841 46.9261C147.122 46.9261 147.379 46.8864 147.611 46.8068C147.843 46.724 148.044 46.6013 148.213 46.4389C148.382 46.2765 148.511 46.076 148.6 45.8374L150.007 46.0909C149.895 46.5052 149.693 46.8681 149.401 47.1797C149.113 47.4879 148.75 47.7282 148.312 47.9006C147.878 48.0696 147.382 48.1541 146.826 48.1541ZM157.474 42.228L156.126 42.4666C156.07 42.2943 155.98 42.1302 155.858 41.9744C155.738 41.8187 155.576 41.6911 155.371 41.5916C155.165 41.4922 154.908 41.4425 154.6 41.4425C154.179 41.4425 153.828 41.5369 153.546 41.7259C153.264 41.9115 153.123 42.1518 153.123 42.4467C153.123 42.7019 153.218 42.9074 153.407 43.0632C153.596 43.219 153.901 43.3466 154.322 43.446L155.535 43.7244C156.237 43.8868 156.761 44.1371 157.106 44.4751C157.45 44.8132 157.623 45.2524 157.623 45.7926C157.623 46.25 157.49 46.6577 157.225 47.0156C156.963 47.3703 156.597 47.6487 156.126 47.8509C155.659 48.053 155.117 48.1541 154.501 48.1541C153.645 48.1541 152.948 47.9718 152.407 47.6072C151.867 47.2393 151.536 46.7173 151.413 46.0412L152.85 45.8224C152.939 46.197 153.123 46.4804 153.402 46.6726C153.68 46.8615 154.043 46.956 154.491 46.956C154.978 46.956 155.367 46.8549 155.659 46.6527C155.951 46.4472 156.096 46.197 156.096 45.902C156.096 45.6634 156.007 45.4628 155.828 45.3004C155.652 45.138 155.382 45.0154 155.018 44.9325L153.725 44.6491C153.012 44.4867 152.485 44.2282 152.144 43.8736C151.806 43.5189 151.637 43.0698 151.637 42.5263C151.637 42.0755 151.763 41.6811 152.015 41.343C152.267 41.005 152.615 40.7415 153.059 40.5526C153.503 40.3603 154.012 40.2642 154.585 40.2642C155.41 40.2642 156.06 40.4432 156.534 40.8011C157.008 41.1558 157.321 41.6314 157.474 42.228Z" fill="#B19D7F"/>
</svg>
