<svg width="583" height="563" viewBox="0 0 583 563" fill="none" xmlns="http://www.w3.org/2000/svg">
<g clip-path="url(#clip0_119_22394)">
<rect width="583" height="563" fill="#A99474"/>
<path d="M210.532 245.955H213.757L218.075 256.494H218.245L222.564 245.955H225.788V260.5H223.26V250.507H223.125L219.105 260.457H217.216L213.196 250.486H213.061V260.5H210.532V245.955ZM231.683 260.72C230.992 260.72 230.369 260.597 229.815 260.351C229.266 260.1 228.83 259.731 228.508 259.243C228.191 258.755 228.032 258.154 228.032 257.439C228.032 256.823 228.146 256.314 228.373 255.912C228.6 255.509 228.911 255.188 229.304 254.946C229.697 254.705 230.139 254.522 230.632 254.399C231.129 254.271 231.643 254.179 232.173 254.122C232.812 254.056 233.331 253.997 233.728 253.945C234.126 253.888 234.415 253.803 234.595 253.689C234.779 253.571 234.872 253.388 234.872 253.142V253.099C234.872 252.564 234.713 252.15 234.396 251.857C234.079 251.563 233.622 251.416 233.025 251.416C232.395 251.416 231.896 251.554 231.527 251.828C231.162 252.103 230.916 252.427 230.788 252.801L228.387 252.46C228.577 251.797 228.889 251.243 229.325 250.798C229.761 250.348 230.293 250.012 230.923 249.79C231.553 249.562 232.249 249.449 233.011 249.449C233.537 249.449 234.06 249.51 234.581 249.634C235.101 249.757 235.577 249.96 236.008 250.244C236.439 250.524 236.785 250.905 237.045 251.388C237.31 251.871 237.443 252.474 237.443 253.199V260.5H234.971V259.001H234.886C234.73 259.304 234.51 259.589 234.225 259.854C233.946 260.114 233.593 260.325 233.167 260.486C232.746 260.642 232.251 260.72 231.683 260.72ZM232.35 258.831C232.867 258.831 233.314 258.729 233.693 258.526C234.072 258.317 234.363 258.043 234.566 257.702C234.775 257.361 234.879 256.989 234.879 256.587V255.301C234.798 255.367 234.661 255.429 234.467 255.486C234.278 255.543 234.065 255.592 233.828 255.635C233.591 255.678 233.357 255.715 233.125 255.749C232.893 255.782 232.691 255.81 232.521 255.834C232.137 255.886 231.794 255.971 231.491 256.089C231.188 256.208 230.949 256.374 230.774 256.587C230.599 256.795 230.511 257.065 230.511 257.396C230.511 257.87 230.684 258.227 231.029 258.469C231.375 258.71 231.815 258.831 232.35 258.831ZM240.028 260.5V249.591H242.521V251.409H242.635C242.833 250.779 243.174 250.294 243.657 249.953C244.145 249.607 244.701 249.435 245.326 249.435C245.468 249.435 245.627 249.442 245.802 249.456C245.982 249.465 246.131 249.482 246.25 249.506V251.871C246.141 251.833 245.968 251.8 245.731 251.771C245.499 251.738 245.274 251.722 245.056 251.722C244.588 251.722 244.166 251.823 243.792 252.027C243.423 252.226 243.132 252.503 242.919 252.858C242.706 253.213 242.599 253.623 242.599 254.087V260.5H240.028ZM250.301 257.077L250.294 253.973H250.706L254.627 249.591H257.631L252.809 254.96H252.276L250.301 257.077ZM247.958 260.5V245.955H250.529V260.5H247.958ZM254.804 260.5L251.253 255.536L252.986 253.724L257.88 260.5H254.804ZM263.725 260.713C262.631 260.713 261.686 260.486 260.891 260.031C260.1 259.572 259.492 258.923 259.066 258.085C258.64 257.242 258.426 256.25 258.426 255.109C258.426 253.987 258.64 253.002 259.066 252.155C259.497 251.303 260.098 250.64 260.87 250.166C261.641 249.688 262.548 249.449 263.59 249.449C264.262 249.449 264.897 249.558 265.493 249.776C266.095 249.989 266.625 250.32 267.084 250.77C267.548 251.22 267.913 251.793 268.178 252.489C268.443 253.18 268.576 254.004 268.576 254.96V255.749H259.634V254.016H266.111C266.106 253.523 266 253.085 265.792 252.702C265.583 252.313 265.292 252.008 264.918 251.786C264.549 251.563 264.118 251.452 263.625 251.452C263.1 251.452 262.638 251.58 262.24 251.835C261.843 252.086 261.533 252.418 261.31 252.83C261.092 253.237 260.981 253.684 260.976 254.172V255.685C260.976 256.319 261.092 256.864 261.324 257.318C261.556 257.768 261.881 258.114 262.297 258.355C262.714 258.592 263.202 258.71 263.76 258.71C264.134 258.71 264.473 258.658 264.776 258.554C265.079 258.445 265.342 258.286 265.564 258.078C265.787 257.87 265.955 257.612 266.069 257.304L268.469 257.574C268.318 258.208 268.029 258.762 267.603 259.236C267.181 259.705 266.641 260.069 265.983 260.33C265.325 260.585 264.572 260.713 263.725 260.713ZM276.198 249.591V251.58H269.927V249.591H276.198ZM271.475 246.977H274.046V257.219C274.046 257.564 274.098 257.83 274.202 258.014C274.311 258.194 274.453 258.317 274.629 258.384C274.804 258.45 274.998 258.483 275.211 258.483C275.372 258.483 275.519 258.471 275.651 258.447C275.789 258.424 275.893 258.402 275.964 258.384L276.397 260.393C276.26 260.441 276.063 260.493 275.808 260.55C275.557 260.607 275.249 260.64 274.884 260.649C274.24 260.668 273.66 260.571 273.144 260.358C272.628 260.14 272.219 259.804 271.915 259.349C271.617 258.895 271.47 258.327 271.475 257.645V246.977ZM283.423 260.5V245.955H292.883V248.163H286.058V252.112H292.393V254.321H286.058V258.291H292.94V260.5H283.423ZM297.56 249.591L299.762 253.618L301.999 249.591H304.719L301.431 255.045L304.776 260.5H302.07L299.762 256.572L297.475 260.5H294.748L298.071 255.045L294.833 249.591H297.56ZM306.708 264.591V249.591H309.236V251.395H309.385C309.518 251.13 309.705 250.848 309.946 250.55C310.188 250.247 310.515 249.989 310.926 249.776C311.338 249.558 311.864 249.449 312.503 249.449C313.346 249.449 314.106 249.664 314.783 250.095C315.465 250.521 316.005 251.153 316.402 251.991C316.805 252.825 317.006 253.848 317.006 255.06C317.006 256.258 316.81 257.276 316.417 258.114C316.024 258.952 315.489 259.591 314.811 260.031C314.134 260.472 313.367 260.692 312.51 260.692C311.885 260.692 311.367 260.588 310.955 260.379C310.543 260.171 310.212 259.92 309.961 259.626C309.714 259.328 309.523 259.046 309.385 258.781H309.279V264.591H306.708ZM309.229 255.045C309.229 255.751 309.328 256.369 309.527 256.899C309.731 257.429 310.022 257.844 310.401 258.142C310.784 258.436 311.248 258.582 311.793 258.582C312.361 258.582 312.837 258.431 313.221 258.128C313.604 257.82 313.893 257.401 314.087 256.871C314.286 256.336 314.385 255.727 314.385 255.045C314.385 254.368 314.288 253.767 314.094 253.241C313.9 252.716 313.611 252.304 313.228 252.006C312.844 251.707 312.366 251.558 311.793 251.558C311.244 251.558 310.777 251.703 310.394 251.991C310.01 252.28 309.719 252.685 309.52 253.206C309.326 253.727 309.229 254.34 309.229 255.045ZM324.037 260.713C322.944 260.713 321.999 260.486 321.203 260.031C320.413 259.572 319.804 258.923 319.378 258.085C318.952 257.242 318.739 256.25 318.739 255.109C318.739 253.987 318.952 253.002 319.378 252.155C319.809 251.303 320.41 250.64 321.182 250.166C321.954 249.688 322.861 249.449 323.902 249.449C324.575 249.449 325.209 249.558 325.806 249.776C326.407 249.989 326.937 250.32 327.397 250.77C327.861 251.22 328.225 251.793 328.49 252.489C328.756 253.18 328.888 254.004 328.888 254.96V255.749H319.946V254.016H326.424C326.419 253.523 326.312 253.085 326.104 252.702C325.896 252.313 325.605 252.008 325.23 251.786C324.861 251.563 324.43 251.452 323.938 251.452C323.412 251.452 322.951 251.58 322.553 251.835C322.155 252.086 321.845 252.418 321.623 252.83C321.405 253.237 321.293 253.684 321.289 254.172V255.685C321.289 256.319 321.405 256.864 321.637 257.318C321.869 257.768 322.193 258.114 322.61 258.355C323.026 258.592 323.514 258.71 324.073 258.71C324.447 258.71 324.785 258.658 325.088 258.554C325.391 258.445 325.654 258.286 325.877 258.078C326.099 257.87 326.267 257.612 326.381 257.304L328.782 257.574C328.63 258.208 328.341 258.762 327.915 259.236C327.494 259.705 326.954 260.069 326.296 260.33C325.638 260.585 324.885 260.713 324.037 260.713ZM331.063 260.5V249.591H333.556V251.409H333.67C333.869 250.779 334.21 250.294 334.692 249.953C335.18 249.607 335.737 249.435 336.362 249.435C336.504 249.435 336.662 249.442 336.837 249.456C337.017 249.465 337.166 249.482 337.285 249.506V251.871C337.176 251.833 337.003 251.8 336.766 251.771C336.534 251.738 336.309 251.722 336.092 251.722C335.623 251.722 335.201 251.823 334.827 252.027C334.458 252.226 334.167 252.503 333.954 252.858C333.741 253.213 333.634 253.623 333.634 254.087V260.5H331.063ZM345.026 249.591V251.58H338.755V249.591H345.026ZM340.303 246.977H342.874V257.219C342.874 257.564 342.926 257.83 343.031 258.014C343.139 258.194 343.281 258.317 343.457 258.384C343.632 258.45 343.826 258.483 344.039 258.483C344.2 258.483 344.347 258.471 344.479 258.447C344.617 258.424 344.721 258.402 344.792 258.384L345.225 260.393C345.088 260.441 344.891 260.493 344.636 260.55C344.385 260.607 344.077 260.64 343.712 260.649C343.068 260.668 342.488 260.571 341.972 260.358C341.456 260.14 341.047 259.804 340.744 259.349C340.445 258.895 340.299 258.327 340.303 257.645V246.977ZM347.176 260.5V249.591H349.748V260.5H347.176ZM348.469 248.043C348.062 248.043 347.712 247.908 347.418 247.638C347.124 247.363 346.978 247.034 346.978 246.651C346.978 246.262 347.124 245.933 347.418 245.663C347.712 245.389 348.062 245.251 348.469 245.251C348.881 245.251 349.231 245.389 349.52 245.663C349.814 245.933 349.961 246.262 349.961 246.651C349.961 247.034 349.814 247.363 349.52 247.638C349.231 247.908 348.881 248.043 348.469 248.043ZM361.013 252.474L358.67 252.73C358.603 252.493 358.487 252.271 358.322 252.062C358.161 251.854 357.943 251.686 357.668 251.558C357.394 251.43 357.058 251.366 356.66 251.366C356.125 251.366 355.675 251.482 355.31 251.714C354.951 251.946 354.773 252.247 354.778 252.616C354.773 252.934 354.889 253.192 355.126 253.391C355.367 253.589 355.765 253.753 356.319 253.881L358.18 254.278C359.212 254.501 359.979 254.854 360.481 255.337C360.987 255.82 361.243 256.452 361.248 257.233C361.243 257.92 361.042 258.526 360.644 259.051C360.251 259.572 359.704 259.979 359.004 260.273C358.303 260.566 357.498 260.713 356.589 260.713C355.254 260.713 354.179 260.434 353.364 259.875C352.55 259.312 352.065 258.528 351.908 257.524L354.415 257.283C354.529 257.775 354.771 258.147 355.14 258.398C355.509 258.649 355.99 258.774 356.582 258.774C357.192 258.774 357.683 258.649 358.052 258.398C358.426 258.147 358.613 257.837 358.613 257.467C358.613 257.155 358.492 256.897 358.251 256.693C358.014 256.49 357.645 256.333 357.143 256.224L355.282 255.834C354.236 255.616 353.461 255.249 352.96 254.733C352.458 254.212 352.209 253.554 352.214 252.759C352.209 252.086 352.391 251.504 352.761 251.011C353.135 250.514 353.653 250.131 354.316 249.861C354.984 249.586 355.753 249.449 356.624 249.449C357.903 249.449 358.909 249.721 359.643 250.266C360.381 250.81 360.838 251.546 361.013 252.474ZM368.197 260.713C367.104 260.713 366.159 260.486 365.364 260.031C364.573 259.572 363.964 258.923 363.538 258.085C363.112 257.242 362.899 256.25 362.899 255.109C362.899 253.987 363.112 253.002 363.538 252.155C363.969 251.303 364.571 250.64 365.342 250.166C366.114 249.688 367.021 249.449 368.062 249.449C368.735 249.449 369.369 249.558 369.966 249.776C370.567 249.989 371.098 250.32 371.557 250.77C372.021 251.22 372.385 251.793 372.651 252.489C372.916 253.18 373.048 254.004 373.048 254.96V255.749H364.107V254.016H370.584C370.579 253.523 370.473 253.085 370.264 252.702C370.056 252.313 369.765 252.008 369.391 251.786C369.021 251.563 368.59 251.452 368.098 251.452C367.572 251.452 367.111 251.58 366.713 251.835C366.315 252.086 366.005 252.418 365.783 252.83C365.565 253.237 365.454 253.684 365.449 254.172V255.685C365.449 256.319 365.565 256.864 365.797 257.318C366.029 257.768 366.353 258.114 366.77 258.355C367.187 258.592 367.674 258.71 368.233 258.71C368.607 258.71 368.946 258.658 369.249 258.554C369.552 258.445 369.814 258.286 370.037 258.078C370.259 257.87 370.428 257.612 370.541 257.304L372.942 257.574C372.79 258.208 372.501 258.762 372.075 259.236C371.654 259.705 371.114 260.069 370.456 260.33C369.798 260.585 369.045 260.713 368.197 260.713Z" fill="#F9FAFB"/>
<path d="M180.212 288.682C180.212 289.909 179.99 290.97 179.547 291.864C179.104 292.758 178.496 293.447 177.723 293.932C176.95 294.417 176.068 294.659 175.075 294.659C174.083 294.659 173.2 294.417 172.428 293.932C171.655 293.447 171.047 292.758 170.604 291.864C170.161 290.97 169.939 289.909 169.939 288.682C169.939 287.455 170.161 286.394 170.604 285.5C171.047 284.606 171.655 283.917 172.428 283.432C173.2 282.947 174.083 282.705 175.075 282.705C176.068 282.705 176.95 282.947 177.723 283.432C178.496 283.917 179.104 284.606 179.547 285.5C179.99 286.394 180.212 287.455 180.212 288.682ZM178.848 288.682C178.848 287.674 178.679 286.824 178.342 286.131C178.009 285.438 177.556 284.913 176.984 284.557C176.416 284.201 175.78 284.023 175.075 284.023C174.371 284.023 173.732 284.201 173.161 284.557C172.592 284.913 172.14 285.438 171.803 286.131C171.469 286.824 171.303 287.674 171.303 288.682C171.303 289.689 171.469 290.54 171.803 291.233C172.14 291.926 172.592 292.451 173.161 292.807C173.732 293.163 174.371 293.341 175.075 293.341C175.78 293.341 176.416 293.163 176.984 292.807C177.556 292.451 178.009 291.926 178.342 291.233C178.679 290.54 178.848 289.689 178.848 288.682ZM187.899 290.932V285.773H189.24V294.5H187.899V293.023H187.808C187.604 293.466 187.286 293.843 186.854 294.153C186.422 294.46 185.876 294.614 185.217 294.614C184.672 294.614 184.187 294.494 183.763 294.256C183.339 294.013 183.005 293.65 182.763 293.165C182.52 292.676 182.399 292.061 182.399 291.318V285.773H183.74V291.227C183.74 291.864 183.918 292.371 184.274 292.75C184.634 293.129 185.092 293.318 185.649 293.318C185.982 293.318 186.321 293.233 186.666 293.062C187.015 292.892 187.306 292.631 187.541 292.278C187.78 291.926 187.899 291.477 187.899 290.932ZM191.696 294.5V285.773H192.991V287.091H193.082C193.241 286.659 193.529 286.309 193.946 286.04C194.363 285.771 194.832 285.636 195.355 285.636C195.454 285.636 195.577 285.638 195.724 285.642C195.872 285.646 195.984 285.652 196.06 285.659V287.023C196.014 287.011 195.91 286.994 195.747 286.972C195.588 286.945 195.42 286.932 195.241 286.932C194.817 286.932 194.438 287.021 194.105 287.199C193.776 287.373 193.514 287.616 193.321 287.926C193.132 288.233 193.037 288.583 193.037 288.977V294.5H191.696ZM205.695 294.682C204.876 294.682 204.172 294.489 203.581 294.102C202.99 293.716 202.536 293.184 202.217 292.506C201.899 291.828 201.74 291.053 201.74 290.182C201.74 289.295 201.903 288.513 202.229 287.835C202.558 287.153 203.017 286.621 203.604 286.239C204.195 285.852 204.884 285.659 205.672 285.659C206.286 285.659 206.839 285.773 207.331 286C207.823 286.227 208.227 286.545 208.541 286.955C208.856 287.364 209.051 287.841 209.126 288.386H207.786C207.683 287.989 207.456 287.636 207.104 287.33C206.755 287.019 206.286 286.864 205.695 286.864C205.172 286.864 204.714 287 204.32 287.273C203.929 287.542 203.625 287.922 203.405 288.415C203.189 288.903 203.081 289.477 203.081 290.136C203.081 290.811 203.187 291.398 203.399 291.898C203.615 292.398 203.918 292.786 204.308 293.062C204.702 293.339 205.164 293.477 205.695 293.477C206.043 293.477 206.359 293.417 206.643 293.295C206.928 293.174 207.168 293 207.365 292.773C207.562 292.545 207.702 292.273 207.786 291.955H209.126C209.051 292.47 208.863 292.934 208.564 293.347C208.268 293.756 207.876 294.081 207.388 294.324C206.903 294.562 206.339 294.682 205.695 294.682ZM216.587 290.932V285.773H217.928V294.5H216.587V293.023H216.496C216.291 293.466 215.973 293.843 215.541 294.153C215.109 294.46 214.564 294.614 213.905 294.614C213.359 294.614 212.875 294.494 212.45 294.256C212.026 294.013 211.693 293.65 211.45 293.165C211.208 292.676 211.087 292.061 211.087 291.318V285.773H212.428V291.227C212.428 291.864 212.606 292.371 212.962 292.75C213.321 293.129 213.78 293.318 214.337 293.318C214.67 293.318 215.009 293.233 215.354 293.062C215.702 292.892 215.994 292.631 216.229 292.278C216.467 291.926 216.587 291.477 216.587 290.932ZM226.565 287.727L225.361 288.068C225.285 287.867 225.173 287.672 225.026 287.483C224.882 287.29 224.685 287.131 224.435 287.006C224.185 286.881 223.865 286.818 223.474 286.818C222.94 286.818 222.495 286.941 222.139 287.188C221.787 287.43 221.611 287.739 221.611 288.114C221.611 288.447 221.732 288.71 221.974 288.903C222.217 289.097 222.596 289.258 223.111 289.386L224.406 289.705C225.187 289.894 225.768 290.184 226.151 290.574C226.533 290.96 226.724 291.458 226.724 292.068C226.724 292.568 226.58 293.015 226.293 293.409C226.009 293.803 225.611 294.114 225.099 294.341C224.588 294.568 223.993 294.682 223.315 294.682C222.425 294.682 221.688 294.489 221.105 294.102C220.522 293.716 220.152 293.152 219.997 292.409L221.27 292.091C221.391 292.561 221.62 292.913 221.957 293.148C222.298 293.383 222.743 293.5 223.293 293.5C223.918 293.5 224.414 293.367 224.781 293.102C225.152 292.833 225.338 292.511 225.338 292.136C225.338 291.833 225.232 291.58 225.02 291.375C224.808 291.167 224.482 291.011 224.043 290.909L222.588 290.568C221.789 290.379 221.202 290.085 220.827 289.688C220.455 289.286 220.27 288.784 220.27 288.182C220.27 287.689 220.408 287.254 220.685 286.875C220.965 286.496 221.346 286.199 221.827 285.983C222.312 285.767 222.861 285.659 223.474 285.659C224.338 285.659 225.016 285.848 225.509 286.227C226.005 286.606 226.357 287.106 226.565 287.727ZM232.538 285.773V286.909H228.016V285.773H232.538ZM229.334 283.682H230.675V292C230.675 292.379 230.73 292.663 230.839 292.852C230.953 293.038 231.097 293.163 231.271 293.227C231.449 293.288 231.637 293.318 231.834 293.318C231.982 293.318 232.103 293.311 232.197 293.295C232.292 293.277 232.368 293.261 232.425 293.25L232.697 294.455C232.607 294.489 232.48 294.523 232.317 294.557C232.154 294.595 231.947 294.614 231.697 294.614C231.319 294.614 230.947 294.532 230.584 294.369C230.224 294.206 229.925 293.958 229.686 293.625C229.451 293.292 229.334 292.871 229.334 292.364V283.682ZM238.007 294.682C237.219 294.682 236.528 294.494 235.933 294.119C235.342 293.744 234.88 293.22 234.547 292.545C234.217 291.871 234.053 291.083 234.053 290.182C234.053 289.273 234.217 288.479 234.547 287.801C234.88 287.123 235.342 286.597 235.933 286.222C236.528 285.847 237.219 285.659 238.007 285.659C238.795 285.659 239.484 285.847 240.075 286.222C240.67 286.597 241.132 287.123 241.462 287.801C241.795 288.479 241.962 289.273 241.962 290.182C241.962 291.083 241.795 291.871 241.462 292.545C241.132 293.22 240.67 293.744 240.075 294.119C239.484 294.494 238.795 294.682 238.007 294.682ZM238.007 293.477C238.606 293.477 239.098 293.324 239.484 293.017C239.871 292.71 240.157 292.307 240.342 291.807C240.528 291.307 240.621 290.765 240.621 290.182C240.621 289.598 240.528 289.055 240.342 288.551C240.157 288.047 239.871 287.64 239.484 287.33C239.098 287.019 238.606 286.864 238.007 286.864C237.409 286.864 236.916 287.019 236.53 287.33C236.143 287.64 235.857 288.047 235.672 288.551C235.486 289.055 235.393 289.598 235.393 290.182C235.393 290.765 235.486 291.307 235.672 291.807C235.857 292.307 236.143 292.71 236.53 293.017C236.916 293.324 237.409 293.477 238.007 293.477ZM244.009 294.5V285.773H245.304V287.136H245.418C245.599 286.67 245.893 286.309 246.298 286.051C246.704 285.79 247.19 285.659 247.759 285.659C248.334 285.659 248.813 285.79 249.196 286.051C249.582 286.309 249.884 286.67 250.099 287.136H250.19C250.414 286.686 250.749 286.328 251.196 286.062C251.643 285.794 252.179 285.659 252.804 285.659C253.584 285.659 254.223 285.903 254.719 286.392C255.215 286.877 255.463 287.633 255.463 288.659V294.5H254.122V288.659C254.122 288.015 253.946 287.555 253.594 287.278C253.241 287.002 252.827 286.864 252.349 286.864C251.736 286.864 251.26 287.049 250.923 287.42C250.586 287.788 250.418 288.254 250.418 288.818V294.5H249.054V288.523C249.054 288.027 248.893 287.627 248.571 287.324C248.249 287.017 247.834 286.864 247.327 286.864C246.978 286.864 246.652 286.956 246.349 287.142C246.05 287.328 245.808 287.585 245.622 287.915C245.44 288.241 245.349 288.617 245.349 289.045V294.5H244.009ZM261.574 294.682C260.733 294.682 260.008 294.496 259.398 294.125C258.792 293.75 258.324 293.227 257.994 292.557C257.669 291.883 257.506 291.098 257.506 290.205C257.506 289.311 257.669 288.523 257.994 287.841C258.324 287.155 258.782 286.621 259.369 286.239C259.96 285.852 260.65 285.659 261.438 285.659C261.892 285.659 262.341 285.735 262.784 285.886C263.227 286.038 263.631 286.284 263.994 286.625C264.358 286.962 264.648 287.409 264.864 287.966C265.08 288.523 265.188 289.208 265.188 290.023V290.591H258.46V289.432H263.824C263.824 288.939 263.725 288.5 263.528 288.114C263.335 287.727 263.059 287.422 262.699 287.199C262.343 286.975 261.922 286.864 261.438 286.864C260.903 286.864 260.441 286.996 260.051 287.261C259.665 287.523 259.367 287.864 259.159 288.284C258.951 288.705 258.847 289.155 258.847 289.636V290.409C258.847 291.068 258.96 291.627 259.188 292.085C259.419 292.54 259.739 292.886 260.148 293.125C260.557 293.36 261.032 293.477 261.574 293.477C261.926 293.477 262.244 293.428 262.528 293.33C262.816 293.227 263.064 293.076 263.273 292.875C263.481 292.67 263.642 292.417 263.756 292.114L265.051 292.477C264.915 292.917 264.686 293.303 264.364 293.636C264.042 293.966 263.644 294.223 263.17 294.409C262.697 294.591 262.165 294.682 261.574 294.682ZM267.227 294.5V285.773H268.523V287.091H268.614C268.773 286.659 269.061 286.309 269.477 286.04C269.894 285.771 270.364 285.636 270.886 285.636C270.985 285.636 271.108 285.638 271.256 285.642C271.403 285.646 271.515 285.652 271.591 285.659V287.023C271.545 287.011 271.441 286.994 271.278 286.972C271.119 286.945 270.951 286.932 270.773 286.932C270.348 286.932 269.97 287.021 269.636 287.199C269.307 287.373 269.045 287.616 268.852 287.926C268.663 288.233 268.568 288.583 268.568 288.977V294.5H267.227ZM279.362 287.727L278.158 288.068C278.082 287.867 277.97 287.672 277.822 287.483C277.679 287.29 277.482 287.131 277.232 287.006C276.982 286.881 276.661 286.818 276.271 286.818C275.737 286.818 275.292 286.941 274.936 287.188C274.584 287.43 274.408 287.739 274.408 288.114C274.408 288.447 274.529 288.71 274.771 288.903C275.014 289.097 275.393 289.258 275.908 289.386L277.203 289.705C277.983 289.894 278.565 290.184 278.947 290.574C279.33 290.96 279.521 291.458 279.521 292.068C279.521 292.568 279.377 293.015 279.089 293.409C278.805 293.803 278.408 294.114 277.896 294.341C277.385 294.568 276.79 294.682 276.112 294.682C275.222 294.682 274.485 294.489 273.902 294.102C273.319 293.716 272.949 293.152 272.794 292.409L274.067 292.091C274.188 292.561 274.417 292.913 274.754 293.148C275.095 293.383 275.54 293.5 276.089 293.5C276.714 293.5 277.211 293.367 277.578 293.102C277.949 292.833 278.135 292.511 278.135 292.136C278.135 291.833 278.029 291.58 277.817 291.375C277.605 291.167 277.279 291.011 276.839 290.909L275.385 290.568C274.586 290.379 273.999 290.085 273.624 289.688C273.252 289.286 273.067 288.784 273.067 288.182C273.067 287.689 273.205 287.254 273.482 286.875C273.762 286.496 274.143 286.199 274.624 285.983C275.108 285.767 275.658 285.659 276.271 285.659C277.135 285.659 277.813 285.848 278.305 286.227C278.802 286.606 279.154 287.106 279.362 287.727ZM287.381 289.25V294.5H286.04V282.864H287.381V287.136H287.494C287.699 286.686 288.006 286.328 288.415 286.062C288.828 285.794 289.377 285.659 290.062 285.659C290.657 285.659 291.178 285.778 291.625 286.017C292.072 286.252 292.419 286.614 292.665 287.102C292.915 287.587 293.04 288.205 293.04 288.955V294.5H291.699V289.045C291.699 288.352 291.519 287.816 291.159 287.438C290.803 287.055 290.309 286.864 289.676 286.864C289.237 286.864 288.843 286.956 288.494 287.142C288.15 287.328 287.877 287.598 287.676 287.955C287.479 288.311 287.381 288.742 287.381 289.25ZM298.061 294.705C297.508 294.705 297.006 294.6 296.555 294.392C296.105 294.18 295.747 293.875 295.482 293.477C295.216 293.076 295.084 292.591 295.084 292.023C295.084 291.523 295.182 291.117 295.379 290.807C295.576 290.492 295.839 290.246 296.169 290.068C296.499 289.89 296.862 289.758 297.26 289.67C297.661 289.58 298.065 289.508 298.47 289.455C299 289.386 299.43 289.335 299.76 289.301C300.093 289.263 300.336 289.201 300.487 289.114C300.643 289.027 300.72 288.875 300.72 288.659V288.614C300.72 288.053 300.567 287.617 300.26 287.307C299.957 286.996 299.497 286.841 298.879 286.841C298.239 286.841 297.737 286.981 297.374 287.261C297.01 287.542 296.754 287.841 296.607 288.159L295.334 287.705C295.561 287.174 295.864 286.761 296.243 286.466C296.625 286.167 297.042 285.958 297.493 285.841C297.947 285.72 298.394 285.659 298.834 285.659C299.114 285.659 299.436 285.693 299.8 285.761C300.167 285.826 300.521 285.96 300.862 286.165C301.207 286.369 301.493 286.678 301.72 287.091C301.947 287.504 302.061 288.057 302.061 288.75V294.5H300.72V293.318H300.652C300.561 293.508 300.41 293.71 300.197 293.926C299.985 294.142 299.703 294.326 299.351 294.477C298.999 294.629 298.569 294.705 298.061 294.705ZM298.266 293.5C298.796 293.5 299.243 293.396 299.607 293.188C299.974 292.979 300.25 292.71 300.436 292.381C300.625 292.051 300.72 291.705 300.72 291.341V290.114C300.663 290.182 300.538 290.244 300.345 290.301C300.156 290.354 299.936 290.402 299.686 290.443C299.44 290.481 299.199 290.515 298.964 290.545C298.733 290.572 298.546 290.595 298.402 290.614C298.054 290.659 297.728 290.733 297.425 290.835C297.125 290.934 296.883 291.083 296.697 291.284C296.516 291.481 296.425 291.75 296.425 292.091C296.425 292.557 296.597 292.909 296.942 293.148C297.29 293.383 297.732 293.5 298.266 293.5ZM311.332 285.773L308.105 294.5H306.741L303.514 285.773H304.969L307.378 292.727H307.469L309.878 285.773H311.332ZM316.449 294.682C315.608 294.682 314.883 294.496 314.273 294.125C313.667 293.75 313.199 293.227 312.869 292.557C312.544 291.883 312.381 291.098 312.381 290.205C312.381 289.311 312.544 288.523 312.869 287.841C313.199 287.155 313.657 286.621 314.244 286.239C314.835 285.852 315.525 285.659 316.312 285.659C316.767 285.659 317.216 285.735 317.659 285.886C318.102 286.038 318.506 286.284 318.869 286.625C319.233 286.962 319.523 287.409 319.739 287.966C319.955 288.523 320.062 289.208 320.062 290.023V290.591H313.335V289.432H318.699C318.699 288.939 318.6 288.5 318.403 288.114C318.21 287.727 317.934 287.422 317.574 287.199C317.218 286.975 316.797 286.864 316.312 286.864C315.778 286.864 315.316 286.996 314.926 287.261C314.54 287.523 314.242 287.864 314.034 288.284C313.826 288.705 313.722 289.155 313.722 289.636V290.409C313.722 291.068 313.835 291.627 314.062 292.085C314.294 292.54 314.614 292.886 315.023 293.125C315.432 293.36 315.907 293.477 316.449 293.477C316.801 293.477 317.119 293.428 317.403 293.33C317.691 293.227 317.939 293.076 318.148 292.875C318.356 292.67 318.517 292.417 318.631 292.114L319.926 292.477C319.79 292.917 319.561 293.303 319.239 293.636C318.917 293.966 318.519 294.223 318.045 294.409C317.572 294.591 317.04 294.682 316.449 294.682ZM326.602 294.5V285.773H327.898V287.091H327.989C328.148 286.659 328.436 286.309 328.852 286.04C329.269 285.771 329.739 285.636 330.261 285.636C330.36 285.636 330.483 285.638 330.631 285.642C330.778 285.646 330.89 285.652 330.966 285.659V287.023C330.92 287.011 330.816 286.994 330.653 286.972C330.494 286.945 330.326 286.932 330.148 286.932C329.723 286.932 329.345 287.021 329.011 287.199C328.682 287.373 328.42 287.616 328.227 287.926C328.038 288.233 327.943 288.583 327.943 288.977V294.5H326.602ZM335.949 294.682C335.108 294.682 334.383 294.496 333.773 294.125C333.167 293.75 332.699 293.227 332.369 292.557C332.044 291.883 331.881 291.098 331.881 290.205C331.881 289.311 332.044 288.523 332.369 287.841C332.699 287.155 333.157 286.621 333.744 286.239C334.335 285.852 335.025 285.659 335.812 285.659C336.267 285.659 336.716 285.735 337.159 285.886C337.602 286.038 338.006 286.284 338.369 286.625C338.733 286.962 339.023 287.409 339.239 287.966C339.455 288.523 339.562 289.208 339.562 290.023V290.591H332.835V289.432H338.199C338.199 288.939 338.1 288.5 337.903 288.114C337.71 287.727 337.434 287.422 337.074 287.199C336.718 286.975 336.297 286.864 335.812 286.864C335.278 286.864 334.816 286.996 334.426 287.261C334.04 287.523 333.742 287.864 333.534 288.284C333.326 288.705 333.222 289.155 333.222 289.636V290.409C333.222 291.068 333.335 291.627 333.562 292.085C333.794 292.54 334.114 292.886 334.523 293.125C334.932 293.36 335.407 293.477 335.949 293.477C336.301 293.477 336.619 293.428 336.903 293.33C337.191 293.227 337.439 293.076 337.648 292.875C337.856 292.67 338.017 292.417 338.131 292.114L339.426 292.477C339.29 292.917 339.061 293.303 338.739 293.636C338.417 293.966 338.019 294.223 337.545 294.409C337.072 294.591 336.54 294.682 335.949 294.682ZM341.602 297.773V285.773H342.898V287.159H343.057C343.155 287.008 343.292 286.814 343.466 286.58C343.644 286.341 343.898 286.129 344.227 285.943C344.561 285.754 345.011 285.659 345.58 285.659C346.314 285.659 346.962 285.843 347.523 286.21C348.083 286.578 348.521 287.098 348.835 287.773C349.15 288.447 349.307 289.242 349.307 290.159C349.307 291.083 349.15 291.884 348.835 292.562C348.521 293.237 348.085 293.759 347.528 294.131C346.972 294.498 346.33 294.682 345.602 294.682C345.042 294.682 344.593 294.589 344.256 294.403C343.919 294.214 343.659 294 343.477 293.761C343.295 293.519 343.155 293.318 343.057 293.159H342.943V297.773H341.602ZM342.92 290.136C342.92 290.795 343.017 291.377 343.21 291.881C343.403 292.381 343.686 292.773 344.057 293.057C344.428 293.337 344.883 293.477 345.42 293.477C345.981 293.477 346.449 293.33 346.824 293.034C347.203 292.735 347.487 292.333 347.676 291.83C347.869 291.322 347.966 290.758 347.966 290.136C347.966 289.523 347.871 288.97 347.682 288.477C347.496 287.981 347.214 287.589 346.835 287.301C346.46 287.009 345.989 286.864 345.42 286.864C344.875 286.864 344.417 287.002 344.045 287.278C343.674 287.551 343.394 287.934 343.205 288.426C343.015 288.915 342.92 289.485 342.92 290.136ZM354.898 294.682C354.11 294.682 353.419 294.494 352.824 294.119C352.233 293.744 351.771 293.22 351.438 292.545C351.108 291.871 350.943 291.083 350.943 290.182C350.943 289.273 351.108 288.479 351.438 287.801C351.771 287.123 352.233 286.597 352.824 286.222C353.419 285.847 354.11 285.659 354.898 285.659C355.686 285.659 356.375 285.847 356.966 286.222C357.561 286.597 358.023 287.123 358.352 287.801C358.686 288.479 358.852 289.273 358.852 290.182C358.852 291.083 358.686 291.871 358.352 292.545C358.023 293.22 357.561 293.744 356.966 294.119C356.375 294.494 355.686 294.682 354.898 294.682ZM354.898 293.477C355.496 293.477 355.989 293.324 356.375 293.017C356.761 292.71 357.047 292.307 357.233 291.807C357.419 291.307 357.511 290.765 357.511 290.182C357.511 289.598 357.419 289.055 357.233 288.551C357.047 288.047 356.761 287.64 356.375 287.33C355.989 287.019 355.496 286.864 354.898 286.864C354.299 286.864 353.807 287.019 353.42 287.33C353.034 287.64 352.748 288.047 352.562 288.551C352.377 289.055 352.284 289.598 352.284 290.182C352.284 290.765 352.377 291.307 352.562 291.807C352.748 292.307 353.034 292.71 353.42 293.017C353.807 293.324 354.299 293.477 354.898 293.477ZM360.899 294.5V285.773H362.195V287.091H362.286C362.445 286.659 362.732 286.309 363.149 286.04C363.566 285.771 364.036 285.636 364.558 285.636C364.657 285.636 364.78 285.638 364.928 285.642C365.075 285.646 365.187 285.652 365.263 285.659V287.023C365.217 287.011 365.113 286.994 364.95 286.972C364.791 286.945 364.623 286.932 364.445 286.932C364.02 286.932 363.642 287.021 363.308 287.199C362.979 287.373 362.717 287.616 362.524 287.926C362.335 288.233 362.24 288.583 362.24 288.977V294.5H360.899ZM371.195 285.773V286.909H366.672V285.773H371.195ZM367.99 283.682H369.331V292C369.331 292.379 369.386 292.663 369.496 292.852C369.609 293.038 369.753 293.163 369.928 293.227C370.106 293.288 370.293 293.318 370.49 293.318C370.638 293.318 370.759 293.311 370.854 293.295C370.948 293.277 371.024 293.261 371.081 293.25L371.354 294.455C371.263 294.489 371.136 294.523 370.973 294.557C370.81 294.595 370.604 294.614 370.354 294.614C369.975 294.614 369.604 294.532 369.24 294.369C368.88 294.206 368.581 293.958 368.342 293.625C368.107 293.292 367.99 292.871 367.99 292.364V283.682ZM376.777 294.682C375.936 294.682 375.211 294.496 374.601 294.125C373.995 293.75 373.527 293.227 373.197 292.557C372.872 291.883 372.709 291.098 372.709 290.205C372.709 289.311 372.872 288.523 373.197 287.841C373.527 287.155 373.985 286.621 374.572 286.239C375.163 285.852 375.853 285.659 376.641 285.659C377.095 285.659 377.544 285.735 377.987 285.886C378.43 286.038 378.834 286.284 379.197 286.625C379.561 286.962 379.851 287.409 380.067 287.966C380.283 288.523 380.391 289.208 380.391 290.023V290.591H373.663V289.432H379.027C379.027 288.939 378.929 288.5 378.732 288.114C378.538 287.727 378.262 287.422 377.902 287.199C377.546 286.975 377.125 286.864 376.641 286.864C376.107 286.864 375.644 286.996 375.254 287.261C374.868 287.523 374.571 287.864 374.362 288.284C374.154 288.705 374.05 289.155 374.05 289.636V290.409C374.05 291.068 374.163 291.627 374.391 292.085C374.622 292.54 374.942 292.886 375.351 293.125C375.76 293.36 376.235 293.477 376.777 293.477C377.129 293.477 377.447 293.428 377.732 293.33C378.019 293.227 378.268 293.076 378.476 292.875C378.684 292.67 378.845 292.417 378.959 292.114L380.254 292.477C380.118 292.917 379.889 293.303 379.567 293.636C379.245 293.966 378.847 294.223 378.374 294.409C377.9 294.591 377.368 294.682 376.777 294.682ZM385.726 294.682C384.999 294.682 384.357 294.498 383.8 294.131C383.243 293.759 382.807 293.237 382.493 292.562C382.179 291.884 382.021 291.083 382.021 290.159C382.021 289.242 382.179 288.447 382.493 287.773C382.807 287.098 383.245 286.578 383.805 286.21C384.366 285.843 385.014 285.659 385.749 285.659C386.317 285.659 386.766 285.754 387.095 285.943C387.429 286.129 387.682 286.341 387.857 286.58C388.035 286.814 388.173 287.008 388.271 287.159H388.385V282.864H389.726V294.5H388.43V293.159H388.271C388.173 293.318 388.033 293.519 387.851 293.761C387.669 294 387.41 294.214 387.072 294.403C386.735 294.589 386.286 294.682 385.726 294.682ZM385.908 293.477C386.446 293.477 386.9 293.337 387.271 293.057C387.643 292.773 387.925 292.381 388.118 291.881C388.311 291.377 388.408 290.795 388.408 290.136C388.408 289.485 388.313 288.915 388.124 288.426C387.934 287.934 387.654 287.551 387.283 287.278C386.911 287.002 386.453 286.864 385.908 286.864C385.339 286.864 384.866 287.009 384.487 287.301C384.112 287.589 383.83 287.981 383.641 288.477C383.455 288.97 383.362 289.523 383.362 290.136C383.362 290.758 383.457 291.322 383.646 291.83C383.839 292.333 384.124 292.735 384.499 293.034C384.877 293.33 385.347 293.477 385.908 293.477ZM399.436 294.705C398.883 294.705 398.381 294.6 397.93 294.392C397.48 294.18 397.122 293.875 396.857 293.477C396.591 293.076 396.459 292.591 396.459 292.023C396.459 291.523 396.557 291.117 396.754 290.807C396.951 290.492 397.214 290.246 397.544 290.068C397.874 289.89 398.237 289.758 398.635 289.67C399.036 289.58 399.44 289.508 399.845 289.455C400.375 289.386 400.805 289.335 401.135 289.301C401.468 289.263 401.711 289.201 401.862 289.114C402.018 289.027 402.095 288.875 402.095 288.659V288.614C402.095 288.053 401.942 287.617 401.635 287.307C401.332 286.996 400.872 286.841 400.254 286.841C399.614 286.841 399.112 286.981 398.749 287.261C398.385 287.542 398.129 287.841 397.982 288.159L396.709 287.705C396.936 287.174 397.239 286.761 397.618 286.466C398 286.167 398.417 285.958 398.868 285.841C399.322 285.72 399.769 285.659 400.209 285.659C400.489 285.659 400.811 285.693 401.175 285.761C401.542 285.826 401.896 285.96 402.237 286.165C402.582 286.369 402.868 286.678 403.095 287.091C403.322 287.504 403.436 288.057 403.436 288.75V294.5H402.095V293.318H402.027C401.936 293.508 401.785 293.71 401.572 293.926C401.36 294.142 401.078 294.326 400.726 294.477C400.374 294.629 399.944 294.705 399.436 294.705ZM399.641 293.5C400.171 293.5 400.618 293.396 400.982 293.188C401.349 292.979 401.625 292.71 401.811 292.381C402 292.051 402.095 291.705 402.095 291.341V290.114C402.038 290.182 401.913 290.244 401.72 290.301C401.531 290.354 401.311 290.402 401.061 290.443C400.815 290.481 400.574 290.515 400.339 290.545C400.108 290.572 399.921 290.595 399.777 290.614C399.429 290.659 399.103 290.733 398.8 290.835C398.5 290.934 398.258 291.083 398.072 291.284C397.891 291.481 397.8 291.75 397.8 292.091C397.8 292.557 397.972 292.909 398.317 293.148C398.665 293.383 399.107 293.5 399.641 293.5ZM407.224 289.25V294.5H405.884V285.773H407.179V287.136H407.293C407.497 286.693 407.808 286.337 408.224 286.068C408.641 285.795 409.179 285.659 409.838 285.659C410.429 285.659 410.946 285.78 411.389 286.023C411.832 286.261 412.177 286.625 412.423 287.114C412.67 287.598 412.793 288.212 412.793 288.955V294.5H411.452V289.045C411.452 288.36 411.274 287.826 410.918 287.443C410.562 287.057 410.073 286.864 409.452 286.864C409.024 286.864 408.641 286.956 408.304 287.142C407.971 287.328 407.707 287.598 407.514 287.955C407.321 288.311 407.224 288.742 407.224 289.25ZM208.272 318.705C207.719 318.705 207.217 318.6 206.766 318.392C206.316 318.18 205.958 317.875 205.692 317.477C205.427 317.076 205.295 316.591 205.295 316.023C205.295 315.523 205.393 315.117 205.59 314.807C205.787 314.492 206.05 314.246 206.38 314.068C206.71 313.89 207.073 313.758 207.471 313.67C207.872 313.58 208.276 313.508 208.681 313.455C209.211 313.386 209.641 313.335 209.971 313.301C210.304 313.263 210.547 313.201 210.698 313.114C210.853 313.027 210.931 312.875 210.931 312.659V312.614C210.931 312.053 210.778 311.617 210.471 311.307C210.168 310.996 209.708 310.841 209.09 310.841C208.45 310.841 207.948 310.981 207.585 311.261C207.221 311.542 206.965 311.841 206.817 312.159L205.545 311.705C205.772 311.174 206.075 310.761 206.454 310.466C206.836 310.167 207.253 309.958 207.704 309.841C208.158 309.72 208.605 309.659 209.045 309.659C209.325 309.659 209.647 309.693 210.011 309.761C210.378 309.826 210.732 309.96 211.073 310.165C211.418 310.369 211.704 310.678 211.931 311.091C212.158 311.504 212.272 312.057 212.272 312.75V318.5H210.931V317.318H210.863C210.772 317.508 210.621 317.71 210.408 317.926C210.196 318.142 209.914 318.326 209.562 318.477C209.21 318.629 208.78 318.705 208.272 318.705ZM208.477 317.5C209.007 317.5 209.454 317.396 209.817 317.188C210.185 316.979 210.461 316.71 210.647 316.381C210.836 316.051 210.931 315.705 210.931 315.341V314.114C210.874 314.182 210.749 314.244 210.556 314.301C210.367 314.354 210.147 314.402 209.897 314.443C209.651 314.481 209.41 314.515 209.175 314.545C208.944 314.572 208.757 314.595 208.613 314.614C208.264 314.659 207.939 314.733 207.636 314.835C207.336 314.934 207.094 315.083 206.908 315.284C206.727 315.481 206.636 315.75 206.636 316.091C206.636 316.557 206.808 316.909 207.153 317.148C207.501 317.383 207.942 317.5 208.477 317.5ZM221.543 309.773L218.316 318.5H216.952L213.725 309.773H215.18L217.589 316.727H217.68L220.089 309.773H221.543ZM226.66 318.682C225.819 318.682 225.094 318.496 224.484 318.125C223.878 317.75 223.41 317.227 223.08 316.557C222.754 315.883 222.592 315.098 222.592 314.205C222.592 313.311 222.754 312.523 223.08 311.841C223.41 311.155 223.868 310.621 224.455 310.239C225.046 309.852 225.736 309.659 226.523 309.659C226.978 309.659 227.427 309.735 227.87 309.886C228.313 310.038 228.717 310.284 229.08 310.625C229.444 310.962 229.734 311.409 229.95 311.966C230.165 312.523 230.273 313.208 230.273 314.023V314.591H223.546V313.432H228.91C228.91 312.939 228.811 312.5 228.614 312.114C228.421 311.727 228.145 311.422 227.785 311.199C227.429 310.975 227.008 310.864 226.523 310.864C225.989 310.864 225.527 310.996 225.137 311.261C224.751 311.523 224.453 311.864 224.245 312.284C224.037 312.705 223.933 313.155 223.933 313.636V314.409C223.933 315.068 224.046 315.627 224.273 316.085C224.504 316.54 224.825 316.886 225.234 317.125C225.643 317.36 226.118 317.477 226.66 317.477C227.012 317.477 227.33 317.428 227.614 317.33C227.902 317.227 228.15 317.076 228.359 316.875C228.567 316.67 228.728 316.417 228.842 316.114L230.137 316.477C230.001 316.917 229.772 317.303 229.45 317.636C229.128 317.966 228.73 318.223 228.256 318.409C227.783 318.591 227.251 318.682 226.66 318.682ZM232.313 318.5V309.773H233.609V311.091H233.7C233.859 310.659 234.147 310.309 234.563 310.04C234.98 309.771 235.45 309.636 235.972 309.636C236.071 309.636 236.194 309.638 236.342 309.642C236.489 309.646 236.601 309.652 236.677 309.659V311.023C236.631 311.011 236.527 310.994 236.364 310.972C236.205 310.945 236.037 310.932 235.859 310.932C235.434 310.932 235.056 311.021 234.722 311.199C234.393 311.373 234.131 311.616 233.938 311.926C233.749 312.233 233.654 312.583 233.654 312.977V318.5H232.313ZM240.835 318.705C240.281 318.705 239.78 318.6 239.329 318.392C238.878 318.18 238.52 317.875 238.255 317.477C237.99 317.076 237.857 316.591 237.857 316.023C237.857 315.523 237.956 315.117 238.153 314.807C238.35 314.492 238.613 314.246 238.942 314.068C239.272 313.89 239.636 313.758 240.033 313.67C240.435 313.58 240.838 313.508 241.244 313.455C241.774 313.386 242.204 313.335 242.533 313.301C242.867 313.263 243.109 313.201 243.261 313.114C243.416 313.027 243.494 312.875 243.494 312.659V312.614C243.494 312.053 243.34 311.617 243.033 311.307C242.73 310.996 242.27 310.841 241.653 310.841C241.013 310.841 240.511 310.981 240.147 311.261C239.783 311.542 239.528 311.841 239.38 312.159L238.107 311.705C238.335 311.174 238.638 310.761 239.016 310.466C239.399 310.167 239.816 309.958 240.266 309.841C240.721 309.72 241.168 309.659 241.607 309.659C241.888 309.659 242.21 309.693 242.573 309.761C242.941 309.826 243.295 309.96 243.636 310.165C243.98 310.369 244.266 310.678 244.494 311.091C244.721 311.504 244.835 312.057 244.835 312.75V318.5H243.494V317.318H243.425C243.335 317.508 243.183 317.71 242.971 317.926C242.759 318.142 242.477 318.326 242.124 318.477C241.772 318.629 241.342 318.705 240.835 318.705ZM241.039 317.5C241.569 317.5 242.016 317.396 242.38 317.188C242.747 316.979 243.024 316.71 243.21 316.381C243.399 316.051 243.494 315.705 243.494 315.341V314.114C243.437 314.182 243.312 314.244 243.119 314.301C242.929 314.354 242.71 314.402 242.46 314.443C242.213 314.481 241.973 314.515 241.738 314.545C241.507 314.572 241.319 314.595 241.175 314.614C240.827 314.659 240.501 314.733 240.198 314.835C239.899 314.934 239.656 315.083 239.471 315.284C239.289 315.481 239.198 315.75 239.198 316.091C239.198 316.557 239.371 316.909 239.715 317.148C240.064 317.383 240.505 317.5 241.039 317.5ZM250.805 321.955C250.157 321.955 249.6 321.871 249.134 321.705C248.668 321.542 248.28 321.326 247.969 321.057C247.663 320.792 247.418 320.508 247.237 320.205L248.305 319.455C248.426 319.614 248.579 319.795 248.765 320C248.951 320.208 249.204 320.388 249.526 320.54C249.852 320.695 250.278 320.773 250.805 320.773C251.509 320.773 252.091 320.602 252.549 320.261C253.007 319.92 253.237 319.386 253.237 318.659V316.886H253.123C253.024 317.045 252.884 317.242 252.702 317.477C252.524 317.708 252.267 317.915 251.93 318.097C251.596 318.275 251.146 318.364 250.577 318.364C249.873 318.364 249.24 318.197 248.68 317.864C248.123 317.53 247.682 317.045 247.356 316.409C247.034 315.773 246.873 315 246.873 314.091C246.873 313.197 247.03 312.419 247.344 311.756C247.659 311.089 248.096 310.574 248.657 310.21C249.218 309.843 249.865 309.659 250.6 309.659C251.168 309.659 251.619 309.754 251.952 309.943C252.29 310.129 252.547 310.341 252.725 310.58C252.907 310.814 253.047 311.008 253.146 311.159H253.282V309.773H254.577V318.75C254.577 319.5 254.407 320.11 254.066 320.58C253.729 321.053 253.274 321.4 252.702 321.619C252.134 321.843 251.502 321.955 250.805 321.955ZM250.759 317.159C251.297 317.159 251.752 317.036 252.123 316.79C252.494 316.544 252.776 316.189 252.969 315.727C253.163 315.265 253.259 314.712 253.259 314.068C253.259 313.439 253.165 312.884 252.975 312.403C252.786 311.922 252.505 311.545 252.134 311.273C251.763 311 251.305 310.864 250.759 310.864C250.191 310.864 249.718 311.008 249.339 311.295C248.964 311.583 248.682 311.97 248.492 312.455C248.307 312.939 248.214 313.477 248.214 314.068C248.214 314.674 248.308 315.21 248.498 315.676C248.691 316.138 248.975 316.502 249.35 316.767C249.729 317.028 250.199 317.159 250.759 317.159ZM260.691 318.682C259.85 318.682 259.125 318.496 258.515 318.125C257.909 317.75 257.441 317.227 257.112 316.557C256.786 315.883 256.623 315.098 256.623 314.205C256.623 313.311 256.786 312.523 257.112 311.841C257.441 311.155 257.899 310.621 258.487 310.239C259.077 309.852 259.767 309.659 260.555 309.659C261.009 309.659 261.458 309.735 261.901 309.886C262.344 310.038 262.748 310.284 263.112 310.625C263.475 310.962 263.765 311.409 263.981 311.966C264.197 312.523 264.305 313.208 264.305 314.023V314.591H257.577V313.432H262.941C262.941 312.939 262.843 312.5 262.646 312.114C262.452 311.727 262.176 311.422 261.816 311.199C261.46 310.975 261.04 310.864 260.555 310.864C260.021 310.864 259.558 310.996 259.168 311.261C258.782 311.523 258.485 311.864 258.276 312.284C258.068 312.705 257.964 313.155 257.964 313.636V314.409C257.964 315.068 258.077 315.627 258.305 316.085C258.536 316.54 258.856 316.886 259.265 317.125C259.674 317.36 260.149 317.477 260.691 317.477C261.043 317.477 261.362 317.428 261.646 317.33C261.933 317.227 262.182 317.076 262.39 316.875C262.598 316.67 262.759 316.417 262.873 316.114L264.168 316.477C264.032 316.917 263.803 317.303 263.481 317.636C263.159 317.966 262.761 318.223 262.288 318.409C261.814 318.591 261.282 318.682 260.691 318.682ZM274.39 318.682C273.602 318.682 272.911 318.494 272.316 318.119C271.725 317.744 271.263 317.22 270.93 316.545C270.6 315.871 270.435 315.083 270.435 314.182C270.435 313.273 270.6 312.479 270.93 311.801C271.263 311.123 271.725 310.597 272.316 310.222C272.911 309.847 273.602 309.659 274.39 309.659C275.178 309.659 275.867 309.847 276.458 310.222C277.053 310.597 277.515 311.123 277.844 311.801C278.178 312.479 278.344 313.273 278.344 314.182C278.344 315.083 278.178 315.871 277.844 316.545C277.515 317.22 277.053 317.744 276.458 318.119C275.867 318.494 275.178 318.682 274.39 318.682ZM274.39 317.477C274.988 317.477 275.481 317.324 275.867 317.017C276.254 316.71 276.54 316.307 276.725 315.807C276.911 315.307 277.004 314.765 277.004 314.182C277.004 313.598 276.911 313.055 276.725 312.551C276.54 312.047 276.254 311.64 275.867 311.33C275.481 311.019 274.988 310.864 274.39 310.864C273.791 310.864 273.299 311.019 272.913 311.33C272.526 311.64 272.24 312.047 272.055 312.551C271.869 313.055 271.776 313.598 271.776 314.182C271.776 314.765 271.869 315.307 272.055 315.807C272.24 316.307 272.526 316.71 272.913 317.017C273.299 317.324 273.791 317.477 274.39 317.477ZM284.278 309.773V310.909H279.573V309.773H284.278ZM280.982 318.5V308.568C280.982 308.068 281.1 307.652 281.335 307.318C281.569 306.985 281.874 306.735 282.249 306.568C282.624 306.402 283.02 306.318 283.437 306.318C283.766 306.318 284.035 306.345 284.244 306.398C284.452 306.451 284.607 306.5 284.71 306.545L284.323 307.705C284.255 307.682 284.16 307.653 284.039 307.619C283.922 307.585 283.766 307.568 283.573 307.568C283.13 307.568 282.81 307.68 282.613 307.903C282.42 308.127 282.323 308.455 282.323 308.886V318.5H280.982ZM290.748 313.841C290.737 313.212 290.839 312.706 291.055 312.324C291.271 311.941 291.551 311.663 291.896 311.489C292.244 311.314 292.612 311.227 292.998 311.227C293.384 311.227 293.737 311.312 294.055 311.483C294.377 311.65 294.744 311.913 295.157 312.273C295.437 312.515 295.661 312.686 295.827 312.784C295.998 312.883 296.183 312.932 296.384 312.932C296.71 312.932 296.968 312.814 297.157 312.58C297.346 312.341 297.437 311.996 297.43 311.545H298.657C298.668 312.174 298.566 312.68 298.35 313.062C298.138 313.445 297.858 313.723 297.509 313.898C297.161 314.072 296.793 314.159 296.407 314.159C296.021 314.159 295.668 314.076 295.35 313.909C295.032 313.739 294.665 313.473 294.248 313.114C293.971 312.871 293.748 312.701 293.577 312.602C293.407 312.504 293.221 312.455 293.021 312.455C292.714 312.455 292.46 312.562 292.259 312.778C292.062 312.991 291.968 313.345 291.975 313.841H290.748ZM305.045 318.659C304.567 318.652 304.09 318.561 303.613 318.386C303.136 318.212 302.7 317.919 302.306 317.506C301.912 317.089 301.596 316.527 301.357 315.818C301.119 315.106 300.999 314.212 300.999 313.136C300.999 312.106 301.096 311.193 301.289 310.398C301.482 309.598 301.763 308.926 302.13 308.381C302.497 307.831 302.941 307.415 303.46 307.131C303.982 306.847 304.571 306.705 305.227 306.705C305.878 306.705 306.458 306.835 306.965 307.097C307.477 307.354 307.893 307.714 308.215 308.176C308.537 308.638 308.746 309.17 308.84 309.773H307.454C307.325 309.25 307.075 308.816 306.704 308.472C306.333 308.127 305.84 307.955 305.227 307.955C304.325 307.955 303.615 308.347 303.096 309.131C302.581 309.915 302.321 311.015 302.317 312.432H302.408C302.621 312.11 302.872 311.835 303.164 311.608C303.46 311.377 303.785 311.199 304.141 311.074C304.497 310.949 304.874 310.886 305.272 310.886C305.939 310.886 306.549 311.053 307.102 311.386C307.655 311.716 308.098 312.172 308.431 312.756C308.764 313.335 308.931 314 308.931 314.75C308.931 315.47 308.77 316.129 308.448 316.727C308.126 317.322 307.674 317.795 307.09 318.148C306.511 318.496 305.829 318.667 305.045 318.659ZM305.045 317.409C305.522 317.409 305.95 317.29 306.329 317.051C306.711 316.812 307.013 316.492 307.232 316.091C307.456 315.689 307.567 315.242 307.567 314.75C307.567 314.269 307.46 313.831 307.244 313.438C307.031 313.04 306.738 312.723 306.363 312.489C305.992 312.254 305.567 312.136 305.09 312.136C304.73 312.136 304.395 312.208 304.085 312.352C303.774 312.492 303.501 312.686 303.266 312.932C303.035 313.178 302.853 313.46 302.721 313.778C302.588 314.093 302.522 314.424 302.522 314.773C302.522 315.235 302.63 315.667 302.846 316.068C303.066 316.47 303.365 316.794 303.744 317.04C304.126 317.286 304.56 317.409 305.045 317.409ZM314.961 318.659C314.105 318.659 313.376 318.426 312.773 317.96C312.171 317.491 311.711 316.811 311.393 315.92C311.075 315.027 310.915 313.947 310.915 312.682C310.915 311.424 311.075 310.35 311.393 309.46C311.715 308.566 312.177 307.884 312.779 307.415C313.385 306.941 314.112 306.705 314.961 306.705C315.809 306.705 316.535 306.941 317.137 307.415C317.743 307.884 318.205 308.566 318.523 309.46C318.845 310.35 319.006 311.424 319.006 312.682C319.006 313.947 318.847 315.027 318.529 315.92C318.211 316.811 317.751 317.491 317.148 317.96C316.546 318.426 315.817 318.659 314.961 318.659ZM314.961 317.409C315.809 317.409 316.469 317 316.938 316.182C317.408 315.364 317.643 314.197 317.643 312.682C317.643 311.674 317.535 310.816 317.319 310.108C317.107 309.4 316.8 308.86 316.398 308.489C316.001 308.117 315.522 307.932 314.961 307.932C314.12 307.932 313.463 308.347 312.989 309.176C312.516 310.002 312.279 311.17 312.279 312.682C312.279 313.689 312.385 314.545 312.597 315.25C312.809 315.955 313.114 316.491 313.512 316.858C313.914 317.225 314.397 317.409 314.961 317.409ZM324.961 318.659C324.105 318.659 323.376 318.426 322.773 317.96C322.171 317.491 321.711 316.811 321.393 315.92C321.075 315.027 320.915 313.947 320.915 312.682C320.915 311.424 321.075 310.35 321.393 309.46C321.715 308.566 322.177 307.884 322.779 307.415C323.385 306.941 324.112 306.705 324.961 306.705C325.809 306.705 326.535 306.941 327.137 307.415C327.743 307.884 328.205 308.566 328.523 309.46C328.845 310.35 329.006 311.424 329.006 312.682C329.006 313.947 328.847 315.027 328.529 315.92C328.211 316.811 327.751 317.491 327.148 317.96C326.546 318.426 325.817 318.659 324.961 318.659ZM324.961 317.409C325.809 317.409 326.469 317 326.938 316.182C327.408 315.364 327.643 314.197 327.643 312.682C327.643 311.674 327.535 310.816 327.319 310.108C327.107 309.4 326.8 308.86 326.398 308.489C326.001 308.117 325.522 307.932 324.961 307.932C324.12 307.932 323.463 308.347 322.989 309.176C322.516 310.002 322.279 311.17 322.279 312.682C322.279 313.689 322.385 314.545 322.597 315.25C322.809 315.955 323.114 316.491 323.512 316.858C323.914 317.225 324.397 317.409 324.961 317.409ZM337.097 316.318V315.705C337.097 315.28 337.184 314.892 337.359 314.54C337.537 314.184 337.794 313.9 338.131 313.688C338.472 313.472 338.885 313.364 339.37 313.364C339.862 313.364 340.275 313.472 340.609 313.688C340.942 313.9 341.194 314.184 341.364 314.54C341.535 314.892 341.62 315.28 341.62 315.705V316.318C341.62 316.742 341.533 317.133 341.359 317.489C341.188 317.841 340.934 318.125 340.597 318.341C340.264 318.553 339.855 318.659 339.37 318.659C338.878 318.659 338.463 318.553 338.126 318.341C337.789 318.125 337.533 317.841 337.359 317.489C337.184 317.133 337.097 316.742 337.097 316.318ZM338.256 315.705V316.318C338.256 316.67 338.34 316.987 338.506 317.267C338.673 317.544 338.961 317.682 339.37 317.682C339.768 317.682 340.048 317.544 340.211 317.267C340.378 316.987 340.461 316.67 340.461 316.318V315.705C340.461 315.352 340.381 315.038 340.222 314.761C340.063 314.481 339.779 314.341 339.37 314.341C338.972 314.341 338.686 314.481 338.512 314.761C338.342 315.038 338.256 315.352 338.256 315.705ZM331.302 309.659V309.045C331.302 308.621 331.389 308.233 331.563 307.881C331.741 307.525 331.999 307.241 332.336 307.028C332.677 306.812 333.09 306.705 333.575 306.705C334.067 306.705 334.48 306.812 334.813 307.028C335.147 307.241 335.398 307.525 335.569 307.881C335.739 308.233 335.825 308.621 335.825 309.045V309.659C335.825 310.083 335.737 310.473 335.563 310.83C335.393 311.182 335.139 311.466 334.802 311.682C334.469 311.894 334.059 312 333.575 312C333.082 312 332.667 311.894 332.33 311.682C331.993 311.466 331.737 311.182 331.563 310.83C331.389 310.473 331.302 310.083 331.302 309.659ZM332.461 309.045V309.659C332.461 310.011 332.544 310.328 332.711 310.608C332.878 310.884 333.165 311.023 333.575 311.023C333.972 311.023 334.253 310.884 334.415 310.608C334.582 310.328 334.665 310.011 334.665 309.659V309.045C334.665 308.693 334.586 308.379 334.427 308.102C334.268 307.822 333.984 307.682 333.575 307.682C333.177 307.682 332.891 307.822 332.717 308.102C332.546 308.379 332.461 308.693 332.461 309.045ZM331.734 318.5L339.734 306.864H341.029L333.029 318.5H331.734ZM348.87 318.5V306.864H352.802C353.711 306.864 354.457 307.019 355.04 307.33C355.624 307.636 356.056 308.059 356.336 308.597C356.616 309.134 356.756 309.746 356.756 310.432C356.756 311.117 356.616 311.725 356.336 312.256C356.056 312.786 355.626 313.203 355.046 313.506C354.467 313.805 353.726 313.955 352.825 313.955H349.643V312.682H352.779C353.4 312.682 353.9 312.591 354.279 312.409C354.662 312.227 354.938 311.97 355.109 311.636C355.283 311.299 355.37 310.898 355.37 310.432C355.37 309.966 355.283 309.559 355.109 309.21C354.934 308.862 354.656 308.593 354.273 308.403C353.891 308.21 353.385 308.114 352.756 308.114H350.279V318.5H348.87ZM354.347 313.273L357.211 318.5H355.575L352.756 313.273H354.347ZM368.923 312.682C368.923 313.909 368.701 314.97 368.258 315.864C367.815 316.758 367.207 317.447 366.434 317.932C365.661 318.417 364.779 318.659 363.786 318.659C362.794 318.659 361.911 318.417 361.138 317.932C360.366 317.447 359.758 316.758 359.315 315.864C358.871 314.97 358.65 313.909 358.65 312.682C358.65 311.455 358.871 310.394 359.315 309.5C359.758 308.606 360.366 307.917 361.138 307.432C361.911 306.947 362.794 306.705 363.786 306.705C364.779 306.705 365.661 306.947 366.434 307.432C367.207 307.917 367.815 308.606 368.258 309.5C368.701 310.394 368.923 311.455 368.923 312.682ZM367.559 312.682C367.559 311.674 367.39 310.824 367.053 310.131C366.72 309.438 366.267 308.913 365.695 308.557C365.127 308.201 364.491 308.023 363.786 308.023C363.082 308.023 362.443 308.201 361.871 308.557C361.303 308.913 360.851 309.438 360.513 310.131C360.18 310.824 360.013 311.674 360.013 312.682C360.013 313.689 360.18 314.54 360.513 315.233C360.851 315.926 361.303 316.451 361.871 316.807C362.443 317.163 363.082 317.341 363.786 317.341C364.491 317.341 365.127 317.163 365.695 316.807C366.267 316.451 366.72 315.926 367.053 315.233C367.39 314.54 367.559 313.689 367.559 312.682ZM372.701 306.864V318.5H371.292V306.864H372.701ZM376.322 318.591C376.041 318.591 375.801 318.491 375.6 318.29C375.399 318.089 375.299 317.848 375.299 317.568C375.299 317.288 375.399 317.047 375.6 316.847C375.801 316.646 376.041 316.545 376.322 316.545C376.602 316.545 376.843 316.646 377.043 316.847C377.244 317.047 377.344 317.288 377.344 317.568C377.344 317.754 377.297 317.924 377.202 318.08C377.112 318.235 376.988 318.36 376.833 318.455C376.682 318.545 376.511 318.591 376.322 318.591Z" fill="#F9FAFB"/>
<path opacity="0.04" d="M672.476 -5.85571C672.834 -7.38768 672.589 -8.99895 671.79 -10.3545C670.991 -11.7101 669.701 -12.7057 668.187 -13.1344C666.669 -13.5332 665.054 -13.3159 663.696 -12.5297C662.337 -11.7436 661.344 -10.4523 660.933 -8.93721C653.315 40.5525 619.842 81.2017 580.072 109.595C537.011 140.3 486.34 157.417 436.905 174.962C389.602 191.776 341.771 209.651 300.827 239.228C263.669 266.11 232.616 302.474 221.957 347.913C221.028 351.395 220.467 354.876 219.856 358.54C219.758 359.16 219.517 359.749 219.152 360.26C218.787 360.771 218.309 361.19 217.754 361.484C217.2 361.779 216.585 361.94 215.957 361.957C215.33 361.973 214.707 361.843 214.138 361.578C195.618 353.733 175.718 349.663 155.604 349.607C96.23 348.87 38.6066 378.705 1.13776 424.028C-20.3546 449.579 -34.8672 480.259 -40.988 513.081C-42.314 520.529 -30.8809 523.655 -29.5367 516.138C-20.018 462.102 15.3807 414.974 62.2812 387.257C85.5822 373.266 111.72 364.667 138.777 362.093C164.641 359.871 192.471 363.154 215.642 375.522C216.309 375.879 216.861 376.42 217.232 377.079C217.604 377.739 217.779 378.491 217.739 379.247C216.8 409.69 224.88 440.356 244.604 464.17C247.797 467.995 251.268 471.579 254.99 474.892C257.604 477.234 262.569 477.382 264.306 473.724C278.071 444.865 269.767 410.532 249.384 386.984C244.302 381.159 238.51 375.995 232.143 371.61C231.536 371.197 231.051 370.627 230.741 369.961C230.431 369.295 230.306 368.558 230.381 367.827C230.681 365.233 231.01 362.622 231.47 360.071C234.901 339.891 242.456 320.634 253.661 303.504C266.755 284.08 283.049 267.018 301.85 253.044C341.334 223.053 387.968 204.883 434.236 188.357C483.385 170.785 534.115 154.272 577.983 125.231C618.848 98.1599 655.054 59.5897 668.567 11.4529C670.214 5.76654 671.519 -0.0133501 672.476 -5.85571ZM251.704 453.749C238.89 436.452 231.361 415.814 230.028 394.329C229.956 393.496 230.139 392.661 230.555 391.935C230.97 391.21 231.598 390.628 232.353 390.269C233.108 389.91 233.955 389.791 234.78 389.927C235.605 390.063 236.369 390.447 236.969 391.03C252.616 406.861 262.252 430.043 259.04 452.003C258.904 452.794 258.538 453.528 257.988 454.114C257.439 454.699 256.729 455.11 255.948 455.296C255.167 455.482 254.348 455.435 253.594 455.16C252.839 454.885 252.182 454.394 251.704 453.749Z" fill="white"/>
</g>
<defs>
<clipPath id="clip0_119_22394">
<rect width="583" height="563" fill="white"/>
</clipPath>
</defs>
</svg>
