<svg width="164" height="48" viewBox="0 0 164 48" fill="none" xmlns="http://www.w3.org/2000/svg">
<path fill-rule="evenodd" clip-rule="evenodd" d="M40.938 28.8985C41.8165 26.7777 42.2687 24.5046 42.2687 22.209L44.991 22.209H49.5045V24.7165C48.3821 24.812 46.1516 25.4472 46.209 27.2239C46.2663 29.0006 47.5701 30.4956 48.2149 31.0209C48.2388 31.4747 48.0573 32.6687 47.1403 33.815C46.0418 33.6717 43.7301 33.7003 43.2716 34.9612C42.8131 36.2221 43.2716 38.4956 43.5582 39.4747C43.0567 40.0239 41.9248 41.2227 41.409 41.6239C40.5015 41.0269 38.3713 40.1194 37.1104 41.2657C35.8495 42.412 35.7731 44.5135 35.8925 45.4209L33.0985 46.6388C32.5731 45.7314 31.1069 44.0454 29.4448 44.5612C27.7827 45.077 26.8418 47.0687 26.5791 48H23.4985C23.1642 46.9015 22.166 44.7045 20.8478 44.7045C19.5296 44.7045 17.7194 46.0896 16.9791 46.7821L14.1134 45.6359C14.3045 44.5851 14.357 42.326 13.0388 41.6956C11.7206 41.0651 9.57612 41.6717 8.66866 42.0538L6.30448 39.7612C6.90149 38.6388 7.80896 36.2078 6.66269 35.4627C5.51642 34.7176 3.65373 34.5314 2.86567 34.5314L1.36119 31.5224C2.38806 30.7582 4.22687 28.886 3.36716 27.5105C2.50746 26.135 0.764179 25.2657 0 25.003V22.209H4.65672L7.30746 22.209C7.30746 24.5046 7.75961 26.7777 8.63809 28.8985C9.51657 31.0194 10.8042 32.9464 12.4274 34.5696C14.0506 36.1929 15.9777 37.4805 18.0985 38.359C20.2194 39.2374 22.4925 39.6896 24.7881 39.6896C27.0836 39.6896 29.3567 39.2374 31.4776 38.359C33.5984 37.4805 35.5255 36.1929 37.1487 34.5696C38.7719 32.9464 40.0595 31.0194 40.938 28.8985Z" fill="#2A6EBF"/>
<path d="M39.1164 22.209C39.1164 24.0906 38.7458 25.9538 38.0258 27.6922C37.3057 29.4306 36.2503 31.0101 34.9198 32.3407C33.5892 33.6712 32.0097 34.7266 30.2713 35.4467C28.5329 36.1667 26.6697 36.5373 24.7881 36.5373C22.9064 36.5373 21.0432 36.1667 19.3048 35.4467C17.5665 34.7266 15.9869 33.6712 14.6564 32.3407C13.3259 31.0101 12.2705 29.4306 11.5504 27.6922C10.8303 25.9538 10.4597 24.0906 10.4597 22.209L24.7881 22.209H39.1164Z" fill="#208B5D"/>
<path fill-rule="evenodd" clip-rule="evenodd" d="M23.0702 16.1103C24.5698 17.6099 24.3829 18.6477 23.6275 19.4031C22.8721 20.1585 21.8343 20.3455 20.3347 18.8459C18.8351 17.3464 18.197 13.9727 18.197 13.9727C18.197 13.9727 21.5698 14.6103 23.07 16.1104L23.0702 16.1103Z" fill="#FFD700"/>
<path fill-rule="evenodd" clip-rule="evenodd" d="M23.2479 12.0586C24.5101 13.3209 24.3528 14.1942 23.7169 14.8301C23.081 15.466 22.2077 15.6233 20.9454 14.3612C19.6832 13.099 19.146 10.2595 19.146 10.2595C19.146 10.2595 21.9873 10.7968 23.2482 12.0589L23.2479 12.0586Z" fill="#FFD700"/>
<path fill-rule="evenodd" clip-rule="evenodd" d="M23.3624 8.43554C24.473 9.54613 24.3346 10.3146 23.7751 10.8741C23.2156 11.4336 22.4471 11.572 21.3366 10.4614C20.2261 9.35097 19.7534 6.85254 19.7534 6.85254C19.7534 6.85254 22.2523 7.32509 23.3627 8.43554H23.3624Z" fill="#FFD700"/>
<path fill-rule="evenodd" clip-rule="evenodd" d="M24.9042 14.0986C23.4046 15.5982 23.5916 16.636 24.347 17.3914C25.1023 18.1468 26.1402 18.3338 27.6398 16.8342C29.1394 15.3347 29.7774 11.9609 29.7774 11.9609C29.7774 11.9609 26.4031 12.6001 24.9043 14.0989L24.9042 14.0986Z" fill="#FFD700"/>
<path fill-rule="evenodd" clip-rule="evenodd" d="M24.7251 10.0474C23.4629 11.3097 23.6202 12.183 24.2561 12.8189C24.892 13.4548 25.7653 13.6121 27.0276 12.3499C28.2898 11.0877 28.827 8.24829 28.827 8.24829C28.827 8.24829 25.9871 8.7846 24.7248 10.0466L24.7251 10.0474Z" fill="#FFD700"/>
<path fill-rule="evenodd" clip-rule="evenodd" d="M24.6103 6.42431C23.4997 7.5349 23.6382 8.30333 24.1977 8.86285C24.7572 9.42237 25.5256 9.56078 26.6362 8.45019C27.7467 7.33974 28.2194 4.84131 28.2194 4.84131C28.2194 4.84131 25.7205 5.31371 24.6101 6.42431H24.6103Z" fill="#FFD700"/>
<path fill-rule="evenodd" clip-rule="evenodd" d="M24.6679 4.35367C24.6679 6.21622 23.9072 6.7445 22.9691 6.7445C22.0311 6.7445 21.2705 6.21607 21.2705 4.35367C21.2705 2.49127 22.9691 0 22.9691 0C22.9691 0 24.667 2.49127 24.667 4.35367H24.6679Z" fill="#FFD700"/>
<path fill-rule="evenodd" clip-rule="evenodd" d="M23.4985 36.4813C23.4985 36.4813 23.4985 36.4813 24.2418 36.5301C24.4908 36.5464 24.9314 36.5301 24.9314 36.5301L24.5149 22.209H23.8612L23.4985 36.4813Z" fill="white"/>
<path fill-rule="evenodd" clip-rule="evenodd" d="M24.1677 36.3939C24.1677 36.3939 22.1805 25.3639 29.6598 22.9253C24.3484 29.9146 24.7459 36.1755 24.7459 36.1755" fill="white"/>
<path d="M152.351 29.3804C150.184 29.3804 148.322 28.9371 146.763 28.0505C145.214 27.155 144.019 25.9102 143.177 24.3162C142.344 22.7132 141.927 20.855 141.927 18.7416C141.927 16.6192 142.344 14.761 143.177 13.167C144.019 11.564 145.214 10.3192 146.763 9.43264C148.322 8.53712 150.184 8.08936 152.351 8.08936C154.519 8.08936 156.377 8.53712 157.926 9.43264C159.484 10.3192 160.68 11.564 161.513 13.167C162.354 14.761 162.775 16.6192 162.775 18.7416C162.775 20.855 162.354 22.7132 161.513 24.3162C160.68 25.9102 159.484 27.155 157.926 28.0505C156.377 28.9371 154.519 29.3804 152.351 29.3804ZM152.392 24.4237C153.18 24.4237 153.847 24.1819 154.393 23.6983C154.939 23.2147 155.356 22.5431 155.642 21.6834C155.938 20.8237 156.086 19.8297 156.086 18.7013C156.086 17.555 155.938 16.552 155.642 15.6923C155.356 14.8326 154.939 14.161 154.393 13.6774C153.847 13.1938 153.18 12.952 152.392 12.952C151.577 12.952 150.887 13.1938 150.323 13.6774C149.768 14.161 149.342 14.8326 149.047 15.6923C148.76 16.552 148.617 17.555 148.617 18.7013C148.617 19.8297 148.76 20.8237 149.047 21.6834C149.342 22.5431 149.768 23.2147 150.323 23.6983C150.887 24.1819 151.577 24.4237 152.392 24.4237Z" fill="#F3F4F6"/>
<path d="M131.672 29.3804C129.496 29.3804 127.629 28.9326 126.071 28.0371C124.521 27.1416 123.33 25.8968 122.498 24.3028C121.665 22.6998 121.248 20.8461 121.248 18.7416C121.248 16.6282 121.665 14.7744 122.498 13.1804C123.339 11.5774 124.535 10.3282 126.084 9.43264C127.642 8.53712 129.501 8.08936 131.659 8.08936C133.566 8.08936 135.227 8.43413 136.642 9.12368C138.066 9.81324 139.177 10.7894 139.974 12.052C140.78 13.3058 141.205 14.7789 141.25 16.4714H135.111C134.986 15.4147 134.627 14.5864 134.036 13.9864C133.454 13.3864 132.693 13.0864 131.753 13.0864C130.992 13.0864 130.324 13.3013 129.751 13.7311C129.178 14.152 128.73 14.7789 128.408 15.6117C128.095 16.4356 127.938 17.4565 127.938 18.6744C127.938 19.8923 128.095 20.9222 128.408 21.764C128.73 22.5968 129.178 23.2282 129.751 23.658C130.324 24.0789 130.992 24.2894 131.753 24.2894C132.362 24.2894 132.899 24.1595 133.365 23.8998C133.839 23.6401 134.229 23.2595 134.533 22.758C134.838 22.2476 135.03 21.6297 135.111 20.9043H141.25C141.187 22.6058 140.762 24.0923 139.974 25.364C139.195 26.6356 138.098 27.6252 136.683 28.3326C135.277 29.0311 133.607 29.3804 131.672 29.3804Z" fill="#F3F4F6"/>
<path d="M85.4276 29.4834C84.1112 29.4834 82.9426 29.264 81.9217 28.8252C80.9097 28.3774 80.1082 27.7058 79.5172 26.8103C78.9351 25.9058 78.644 24.773 78.644 23.4118C78.644 22.2655 78.8455 21.2983 79.2485 20.5103C79.6515 19.7222 80.2067 19.0819 80.9142 18.5894C81.6217 18.0968 82.4366 17.7252 83.359 17.4745C84.2814 17.2148 85.2664 17.0401 86.3142 16.9506C87.4873 16.8431 88.4321 16.7312 89.1485 16.6148C89.8649 16.4894 90.3843 16.3148 90.7067 16.0909C91.0381 15.858 91.2037 15.5312 91.2037 15.1103V15.0431C91.2037 14.3536 90.9664 13.8207 90.4918 13.4446C90.0172 13.0685 89.3769 12.8804 88.5709 12.8804C87.7023 12.8804 87.0037 13.0685 86.4754 13.4446C85.947 13.8207 85.6112 14.3401 85.4679 15.0028L79.4097 14.7879C79.5888 13.5342 80.05 12.4148 80.7933 11.4297C81.5455 10.4357 82.5754 9.65655 83.8828 9.09237C85.1993 8.51923 86.7799 8.23267 88.6246 8.23267C89.9411 8.23267 91.1545 8.38938 92.2649 8.70281C93.3754 9.00729 94.3426 9.45505 95.1664 10.0461C95.9903 10.6282 96.6261 11.3446 97.0739 12.1954C97.5306 13.0461 97.759 14.0177 97.759 15.1103V29.1342H91.5799V26.2595H91.4187C91.0515 26.958 90.5814 27.5491 90.0082 28.0327C89.444 28.5162 88.7769 28.8789 88.0067 29.1207C87.2455 29.3625 86.3858 29.4834 85.4276 29.4834ZM87.456 25.1849C88.1634 25.1849 88.7993 25.0416 89.3634 24.7551C89.9366 24.4685 90.3933 24.0745 90.7336 23.573C91.0739 23.0625 91.244 22.4715 91.244 21.7998V19.8386C91.056 19.9371 90.8276 20.0267 90.559 20.1073C90.2993 20.1879 90.0127 20.264 89.6993 20.3357C89.3858 20.4073 89.0634 20.47 88.7321 20.5237C88.4008 20.5774 88.0828 20.6267 87.7784 20.6715C87.1605 20.77 86.6321 20.9222 86.1933 21.1282C85.7634 21.3342 85.4321 21.6028 85.1993 21.9342C84.9754 22.2565 84.8634 22.6416 84.8634 23.0894C84.8634 23.77 85.1052 24.2894 85.5888 24.6476C86.0814 25.0058 86.7037 25.1849 87.456 25.1849Z" fill="#F3F4F6"/>
<path d="M64.097 17.6536V29.4208H57.5283V8.78794H63.7746V12.576H64.0029C64.4597 11.3133 65.2388 10.3238 66.3403 9.60735C67.4418 8.88197 68.7537 8.51929 70.2761 8.51929C71.7268 8.51929 72.985 8.84615 74.0507 9.49988C75.1253 10.1447 75.9582 11.0491 76.5492 12.2133C77.1492 13.3685 77.4447 14.7208 77.4358 16.27V29.4208H70.8671V17.5596C70.8761 16.4133 70.585 15.5178 69.994 14.873C69.4119 14.2282 68.6015 13.9059 67.5626 13.9059C66.8731 13.9059 66.2641 14.0581 65.7358 14.3626C65.2164 14.6581 64.8134 15.0835 64.5268 15.6387C64.2492 16.1939 64.1059 16.8656 64.097 17.6536Z" fill="#F3F4F6"/>
<path fill-rule="evenodd" clip-rule="evenodd" d="M106.739 19.1223V17.6715C106.748 16.8834 106.896 16.2118 107.183 15.6566C107.478 15.1014 107.886 14.676 108.405 14.3805C108.933 14.076 109.542 13.9237 110.232 13.9237C111.289 13.9237 112.108 14.2461 112.69 14.8909C113.272 15.5357 113.559 16.4312 113.55 17.5775V29.4387H120.118V16.2879C120.127 14.7297 119.832 13.3685 119.232 12.2043C118.641 11.0402 117.808 10.1402 116.733 9.50434C115.659 8.85957 114.396 8.53718 112.945 8.53718C111.405 8.53718 110.102 8.89539 109.036 9.61181C107.98 10.3282 107.218 11.3223 106.753 12.5939H106.524V1.92822H100.171V19.1223H106.739ZM106.739 23.2775H100.171V29.4387H106.739V23.2775Z" fill="#F3F4F6"/>
<path d="M163.545 38.7251L161.005 38.8814C160.962 38.6643 160.868 38.4689 160.725 38.2952C160.582 38.1172 160.393 37.9761 160.158 37.8719C159.928 37.7634 159.653 37.7091 159.331 37.7091C158.901 37.7091 158.539 37.8003 158.244 37.9826C157.948 38.1606 157.801 38.3994 157.801 38.699C157.801 38.9378 157.896 39.1397 158.087 39.3047C158.278 39.4697 158.606 39.6022 159.071 39.702L160.881 40.0667C161.854 40.2665 162.579 40.5878 163.057 41.0307C163.534 41.4735 163.773 42.0553 163.773 42.7761C163.773 43.4317 163.58 44.007 163.193 44.502C162.811 44.997 162.286 45.3834 161.617 45.6613C160.953 45.9349 160.187 46.0716 159.318 46.0716C157.994 46.0716 156.939 45.7959 156.153 45.2445C155.371 44.6887 154.913 43.9332 154.779 42.978L157.508 42.8347C157.59 43.2385 157.79 43.5468 158.107 43.7596C158.424 43.968 158.83 44.0722 159.325 44.0722C159.811 44.0722 160.202 43.9788 160.497 43.7921C160.797 43.6011 160.949 43.3558 160.953 43.0562C160.949 42.8043 160.842 42.5981 160.634 42.4374C160.425 42.2724 160.104 42.1465 159.67 42.0597L157.938 41.7145C156.961 41.5191 156.233 41.1805 155.756 40.6985C155.282 40.2165 155.046 39.6022 155.046 38.8553C155.046 38.2127 155.22 37.6591 155.567 37.1946C155.919 36.73 156.411 36.3718 157.045 36.1199C157.684 35.8681 158.43 35.7422 159.286 35.7422C160.549 35.7422 161.544 36.0092 162.269 36.5433C162.998 37.0773 163.424 37.8046 163.545 38.7251Z" fill="#F3F4F6"/>
<path d="M149.737 46.0716C148.707 46.0716 147.822 45.8632 147.079 45.4464C146.341 45.0252 145.772 44.4304 145.373 43.6619C144.973 42.889 144.774 41.975 144.774 40.9199C144.774 39.8909 144.973 38.9878 145.373 38.2106C145.772 37.4334 146.335 36.8277 147.06 36.3935C147.789 35.9593 148.645 35.7422 149.626 35.7422C150.286 35.7422 150.9 35.8486 151.469 36.0613C152.042 36.2697 152.541 36.5845 152.967 37.0057C153.397 37.4269 153.731 37.9566 153.97 38.5948C154.209 39.2288 154.328 39.9712 154.328 40.8222V41.5842H145.881V39.8648H151.716C151.716 39.4654 151.63 39.1115 151.456 38.8032C151.282 38.495 151.041 38.254 150.733 38.0803C150.429 37.9023 150.075 37.8133 149.671 37.8133C149.25 37.8133 148.877 37.911 148.551 38.1064C148.23 38.2974 147.978 38.5558 147.796 38.8814C147.613 39.2027 147.52 39.5609 147.516 39.956V41.5908C147.516 42.0857 147.607 42.5134 147.789 42.8738C147.976 43.2342 148.239 43.5121 148.577 43.7075C148.916 43.9028 149.318 44.0005 149.782 44.0005C150.09 44.0005 150.373 43.9571 150.629 43.8703C150.885 43.7834 151.104 43.6532 151.287 43.4795C151.469 43.3058 151.608 43.0931 151.703 42.8412L154.269 43.0106C154.139 43.6271 153.872 44.1655 153.468 44.6258C153.069 45.0817 152.552 45.4377 151.918 45.6939C151.289 45.9457 150.561 46.0716 149.737 46.0716Z" fill="#F3F4F6"/>
<path d="M141.097 45.8763V35.8725H143.872V45.8763H141.097ZM142.491 34.5829C142.079 34.5829 141.725 34.4462 141.43 34.1726C141.139 33.8947 140.993 33.5626 140.993 33.1762C140.993 32.7941 141.139 32.4662 141.43 32.1927C141.725 31.9148 142.079 31.7759 142.491 31.7759C142.904 31.7759 143.255 31.9148 143.546 32.1927C143.841 32.4662 143.989 32.7941 143.989 33.1762C143.989 33.5626 143.841 33.8947 143.546 34.1726C143.255 34.4462 142.904 34.5829 142.491 34.5829Z" fill="#F3F4F6"/>
<path d="M140.207 35.8726V37.9567H134.183V35.8726H140.207ZM135.551 33.4758H138.325V42.8023C138.325 43.0585 138.364 43.2582 138.442 43.4015C138.52 43.5404 138.629 43.6381 138.768 43.6946C138.911 43.751 139.076 43.7792 139.263 43.7792C139.393 43.7792 139.523 43.7684 139.654 43.7467C139.784 43.7206 139.884 43.7011 139.953 43.688L140.39 45.7526C140.251 45.796 140.055 45.846 139.803 45.9024C139.552 45.9632 139.246 46.0001 138.885 46.0131C138.217 46.0392 137.63 45.9502 137.127 45.7461C136.627 45.542 136.239 45.2251 135.961 44.7952C135.683 44.3654 135.546 43.8226 135.551 43.167V33.4758Z" fill="#F3F4F6"/>
<path d="M130.806 45.8763V35.8725H133.581V45.8763H130.806ZM132.2 34.5829C131.787 34.5829 131.434 34.4462 131.138 34.1726C130.847 33.8947 130.702 33.5626 130.702 33.1762C130.702 32.7941 130.847 32.4662 131.138 32.1927C131.434 31.9148 131.787 31.7759 132.2 31.7759C132.612 31.7759 132.964 31.9148 133.255 32.1927C133.55 32.4662 133.698 32.7941 133.698 33.1762C133.698 33.5626 133.55 33.8947 133.255 34.1726C132.964 34.4462 132.612 34.5829 132.2 34.5829Z" fill="#F3F4F6"/>
<path d="M123.75 46.0391C122.99 46.0391 122.302 45.8437 121.685 45.4529C121.073 45.0578 120.587 44.4781 120.226 43.714C119.87 42.9454 119.692 42.0032 119.692 40.8874C119.692 39.7411 119.877 38.788 120.246 38.0282C120.615 37.264 121.105 36.6931 121.718 36.3153C122.334 35.9332 123.009 35.7422 123.743 35.7422C124.303 35.7422 124.77 35.8377 125.143 36.0288C125.521 36.2155 125.825 36.4499 126.055 36.7321C126.29 37.01 126.468 37.2836 126.589 37.5528H126.674V32.5378H129.442V45.8762H126.707V44.2741H126.589C126.459 44.552 126.275 44.8277 126.036 45.1012C125.801 45.3704 125.495 45.594 125.117 45.772C124.744 45.9501 124.288 46.0391 123.75 46.0391ZM124.629 43.8312C125.076 43.8312 125.454 43.7096 125.762 43.4665C126.075 43.219 126.314 42.8738 126.479 42.4309C126.648 41.988 126.733 41.4692 126.733 40.8743C126.733 40.2795 126.65 39.7628 126.485 39.3243C126.32 38.8857 126.081 38.5471 125.769 38.3083C125.456 38.0695 125.076 37.9501 124.629 37.9501C124.173 37.9501 123.789 38.0738 123.476 38.3213C123.164 38.5688 122.927 38.9118 122.766 39.3503C122.606 39.7889 122.525 40.2969 122.525 40.8743C122.525 41.4562 122.606 41.9707 122.766 42.4179C122.931 42.8608 123.168 43.2081 123.476 43.46C123.789 43.7074 124.173 43.8312 124.629 43.8312Z" fill="#F3F4F6"/>
<path d="M114.253 46.0716C113.241 46.0716 112.366 45.8567 111.628 45.4269C110.894 44.9927 110.328 44.3891 109.928 43.6163C109.529 42.8391 109.329 41.9381 109.329 40.9134C109.329 39.88 109.529 38.9769 109.928 38.2041C110.328 37.4269 110.894 36.8233 111.628 36.3935C112.366 35.9593 113.241 35.7422 114.253 35.7422C115.264 35.7422 116.137 35.9593 116.871 36.3935C117.609 36.8233 118.178 37.4269 118.577 38.2041C118.977 38.9769 119.176 39.88 119.176 40.9134C119.176 41.9381 118.977 42.8391 118.577 43.6163C118.178 44.3891 117.609 44.9927 116.871 45.4269C116.137 45.8567 115.264 46.0716 114.253 46.0716ZM114.266 43.9224C114.726 43.9224 115.11 43.7921 115.418 43.5316C115.727 43.2667 115.959 42.9064 116.115 42.4505C116.276 41.9946 116.356 41.4757 116.356 40.8939C116.356 40.3121 116.276 39.7932 116.115 39.3373C115.959 38.8814 115.727 38.521 115.418 38.2562C115.11 37.9913 114.726 37.8589 114.266 37.8589C113.801 37.8589 113.41 37.9913 113.093 38.2562C112.781 38.521 112.544 38.8814 112.383 39.3373C112.227 39.7932 112.149 40.3121 112.149 40.8939C112.149 41.4757 112.227 41.9946 112.383 42.4505C112.544 42.9064 112.781 43.2667 113.093 43.5316C113.41 43.7921 113.801 43.9224 114.266 43.9224Z" fill="#F3F4F6"/>
<path d="M93.9214 45.8762V35.8724H96.5656V37.6374H96.6828C96.8913 37.0513 97.2386 36.5889 97.7249 36.2502C98.2112 35.9115 98.793 35.7422 99.4704 35.7422C100.156 35.7422 100.74 35.9137 101.222 36.2567C101.704 36.5954 102.026 37.0556 102.186 37.6374H102.29C102.495 37.0643 102.864 36.6062 103.398 36.2632C103.936 35.9159 104.572 35.7422 105.306 35.7422C106.239 35.7422 106.997 36.0396 107.579 36.6345C108.165 37.225 108.458 38.0629 108.458 39.1484V45.8762H105.69V39.6955C105.69 39.1397 105.543 38.7229 105.247 38.445C104.952 38.1672 104.583 38.0282 104.14 38.0282C103.636 38.0282 103.244 38.1889 102.961 38.5102C102.679 38.8271 102.538 39.2461 102.538 39.7672V45.8762H99.8481V39.6369C99.8481 39.1463 99.707 38.7555 99.4248 38.4646C99.1469 38.1737 98.78 38.0282 98.3241 38.0282C98.0158 38.0282 97.7379 38.1064 97.4904 38.2627C97.2473 38.4146 97.0541 38.6296 96.9108 38.9075C96.7675 39.181 96.6959 39.5023 96.6959 39.8714V45.8762H93.9214Z" fill="#F3F4F6"/>
<path d="M78.1101 45.8762V35.8724H80.7543V37.6374H80.8716C81.08 37.0513 81.4273 36.5889 81.9136 36.2502C82.3999 35.9115 82.9817 35.7422 83.6591 35.7422C84.3451 35.7422 84.9291 35.9137 85.4111 36.2567C85.893 36.5954 86.2143 37.0556 86.375 37.6374H86.4792C86.6832 37.0643 87.0523 36.6062 87.5864 36.2632C88.1248 35.9159 88.7609 35.7422 89.4946 35.7422C90.4282 35.7422 91.1858 36.0396 91.7676 36.6345C92.3538 37.225 92.6469 38.0629 92.6469 39.1484V45.8762H89.8789V39.6955C89.8789 39.1397 89.7313 38.7229 89.436 38.445C89.1408 38.1672 88.7717 38.0282 88.3288 38.0282C87.8252 38.0282 87.4322 38.1889 87.15 38.5102C86.8678 38.8271 86.7267 39.2461 86.7267 39.7672V45.8762H84.0368V39.6369C84.0368 39.1463 83.8957 38.7555 83.6135 38.4646C83.3356 38.1737 82.9687 38.0282 82.5128 38.0282C82.2045 38.0282 81.9267 38.1064 81.6792 38.2627C81.436 38.4146 81.2428 38.6296 81.0995 38.9075C80.9562 39.181 80.8846 39.5023 80.8846 39.8714V45.8762H78.1101Z" fill="#F3F4F6"/>
<path d="M72.2992 46.0716C71.2876 46.0716 70.4127 45.8567 69.6745 45.4269C68.9408 44.9927 68.3741 44.3891 67.9747 43.6163C67.5752 42.8391 67.3755 41.9381 67.3755 40.9134C67.3755 39.88 67.5752 38.9769 67.9747 38.2041C68.3741 37.4269 68.9408 36.8233 69.6745 36.3935C70.4127 35.9593 71.2876 35.7422 72.2992 35.7422C73.3109 35.7422 74.1836 35.9593 74.9174 36.3935C75.6555 36.8233 76.2243 37.4269 76.6238 38.2041C77.0232 38.9769 77.223 39.88 77.223 40.9134C77.223 41.9381 77.0232 42.8391 76.6238 43.6163C76.2243 44.3891 75.6555 44.9927 74.9174 45.4269C74.1836 45.8567 73.3109 46.0716 72.2992 46.0716ZM72.3123 43.9224C72.7725 43.9224 73.1568 43.7921 73.465 43.5316C73.7733 43.2667 74.0056 42.9064 74.1619 42.4505C74.3226 41.9946 74.4029 41.4757 74.4029 40.8939C74.4029 40.3121 74.3226 39.7932 74.1619 39.3373C74.0056 38.8814 73.7733 38.521 73.465 38.2562C73.1568 37.9913 72.7725 37.8589 72.3123 37.8589C71.8477 37.8589 71.4569 37.9913 71.1399 38.2562C70.8273 38.521 70.5907 38.8814 70.43 39.3373C70.2737 39.7932 70.1956 40.3121 70.1956 40.8939C70.1956 41.4757 70.2737 41.9946 70.43 42.4505C70.5907 42.9064 70.8273 43.2667 71.1399 43.5316C71.4569 43.7921 71.8477 43.9224 72.3123 43.9224Z" fill="#F3F4F6"/>
<path d="M62.4521 46.0716C61.4274 46.0716 60.546 45.8545 59.8078 45.4203C59.074 44.9818 58.5096 44.3739 58.1145 43.5967C57.7237 42.8195 57.5283 41.9251 57.5283 40.9134C57.5283 39.8887 57.7259 38.9899 58.121 38.2171C58.5205 37.4399 59.0871 36.8342 59.8209 36.4C60.5546 35.9615 61.4274 35.7422 62.439 35.7422C63.3118 35.7422 64.0759 35.9007 64.7316 36.2176C65.3872 36.5346 65.9061 36.9796 66.2882 37.5528C66.6702 38.1259 66.8808 38.7989 66.9199 39.5718H64.3017C64.2279 39.0724 64.0325 38.6708 63.7156 38.3669C63.4029 38.0586 62.9926 37.9045 62.4846 37.9045C62.0548 37.9045 61.6792 38.0217 61.3579 38.2562C61.0409 38.4863 60.7934 38.8228 60.6154 39.2657C60.4374 39.7085 60.3484 40.2448 60.3484 40.8743C60.3484 41.5126 60.4352 42.0553 60.6089 42.5026C60.7869 42.9498 61.0366 43.2906 61.3579 43.5251C61.6792 43.7596 62.0548 43.8768 62.4846 43.8768C62.8016 43.8768 63.086 43.8117 63.3378 43.6814C63.594 43.5511 63.8046 43.3623 63.9696 43.1148C64.1389 42.8629 64.2496 42.5612 64.3017 42.2095H66.9199C66.8765 42.9737 66.6681 43.6467 66.2947 44.2285C65.9256 44.806 65.4154 45.2575 64.7641 45.5832C64.1129 45.9088 63.3422 46.0716 62.4521 46.0716Z" fill="#F3F4F6"/>
</svg>
