<svg width="16" height="17" viewBox="0 0 16 17" fill="none" xmlns="http://www.w3.org/2000/svg">
<g clip-path="url(#clip0_119_16156)">
<path d="M8 16.5C12.4183 16.5 16 12.9183 16 8.5C16 4.08172 12.4183 0.5 8 0.5C3.58172 0.5 0 4.08172 0 8.5C0 12.9183 3.58172 16.5 8 16.5Z" fill="#F0F0F0"/>
<path d="M8.00021 0.499756C4.56049 0.499756 1.62815 2.67076 0.497803 5.71716H15.5026C14.3723 2.67076 11.4399 0.499756 8.00021 0.499756Z" fill="#A2001D"/>
<path d="M8.00021 16.5004C11.4399 16.5004 14.3723 14.3294 15.5026 11.283H0.497803C1.62815 14.3294 4.56049 16.5004 8.00021 16.5004Z" fill="#0052B4"/>
</g>
<defs>
<clipPath id="clip0_119_16156">
<rect width="16" height="16" fill="white" transform="translate(0 0.5)"/>
</clipPath>
</defs>
</svg>
