<svg width="583" height="563" viewBox="0 0 583 563" fill="none" xmlns="http://www.w3.org/2000/svg">
<g clip-path="url(#clip0_119_22419)">
<rect width="583" height="563" fill="#A99474"/>
<path d="M163.896 222.953C163.83 222.333 163.55 221.85 163.058 221.504C162.57 221.159 161.936 220.986 161.155 220.986C160.605 220.986 160.134 221.069 159.741 221.234C159.348 221.4 159.048 221.625 158.839 221.909C158.631 222.193 158.524 222.518 158.52 222.882C158.52 223.185 158.588 223.448 158.726 223.67C158.868 223.893 159.059 224.082 159.301 224.239C159.542 224.39 159.81 224.518 160.104 224.622C160.397 224.726 160.693 224.814 160.991 224.885L162.355 225.226C162.904 225.354 163.432 225.527 163.939 225.744C164.45 225.962 164.907 226.237 165.309 226.568C165.717 226.9 166.039 227.3 166.275 227.768C166.512 228.237 166.631 228.786 166.631 229.416C166.631 230.268 166.413 231.019 165.977 231.668C165.541 232.312 164.912 232.816 164.088 233.18C163.269 233.54 162.277 233.72 161.112 233.72C159.98 233.72 158.998 233.545 158.165 233.195C157.336 232.844 156.687 232.333 156.219 231.661C155.755 230.988 155.504 230.169 155.466 229.203H158.058C158.096 229.71 158.252 230.131 158.527 230.467C158.801 230.804 159.159 231.054 159.599 231.22C160.044 231.386 160.541 231.469 161.091 231.469C161.664 231.469 162.166 231.384 162.596 231.213C163.032 231.038 163.373 230.796 163.619 230.489C163.865 230.176 163.991 229.812 163.996 229.395C163.991 229.016 163.88 228.704 163.662 228.457C163.444 228.206 163.139 227.998 162.746 227.832C162.357 227.662 161.903 227.51 161.382 227.378L159.727 226.952C158.529 226.644 157.582 226.178 156.886 225.553C156.195 224.923 155.849 224.087 155.849 223.045C155.849 222.188 156.081 221.438 156.545 220.794C157.014 220.15 157.651 219.651 158.456 219.295C159.261 218.936 160.172 218.756 161.19 218.756C162.222 218.756 163.127 218.936 163.903 219.295C164.684 219.651 165.298 220.145 165.743 220.78C166.188 221.41 166.417 222.134 166.432 222.953H163.896ZM174.313 222.591V224.58H168.042V222.591H174.313ZM169.59 219.977H172.161V230.219C172.161 230.564 172.213 230.83 172.318 231.014C172.427 231.194 172.569 231.317 172.744 231.384C172.919 231.45 173.113 231.483 173.326 231.483C173.487 231.483 173.634 231.471 173.767 231.447C173.904 231.424 174.008 231.402 174.079 231.384L174.512 233.393C174.375 233.441 174.178 233.493 173.923 233.55C173.672 233.607 173.364 233.64 172.999 233.649C172.356 233.668 171.776 233.571 171.259 233.358C170.743 233.14 170.334 232.804 170.031 232.349C169.732 231.895 169.586 231.327 169.59 230.645V219.977ZM179.603 233.72C178.912 233.72 178.289 233.597 177.735 233.351C177.186 233.1 176.75 232.731 176.428 232.243C176.111 231.755 175.952 231.154 175.952 230.439C175.952 229.823 176.066 229.314 176.293 228.912C176.52 228.509 176.831 228.188 177.224 227.946C177.617 227.705 178.059 227.522 178.552 227.399C179.049 227.271 179.563 227.179 180.093 227.122C180.732 227.056 181.251 226.997 181.648 226.945C182.046 226.888 182.335 226.803 182.515 226.689C182.699 226.571 182.792 226.388 182.792 226.142V226.099C182.792 225.564 182.633 225.15 182.316 224.857C181.999 224.563 181.542 224.416 180.945 224.416C180.315 224.416 179.816 224.554 179.447 224.828C179.082 225.103 178.836 225.427 178.708 225.801L176.307 225.46C176.497 224.797 176.809 224.243 177.245 223.798C177.68 223.348 178.213 223.012 178.843 222.79C179.473 222.562 180.169 222.449 180.931 222.449C181.456 222.449 181.98 222.51 182.501 222.634C183.021 222.757 183.497 222.96 183.928 223.244C184.359 223.524 184.705 223.905 184.965 224.388C185.23 224.871 185.363 225.474 185.363 226.199V233.5H182.891V232.001H182.806C182.65 232.304 182.43 232.589 182.145 232.854C181.866 233.114 181.513 233.325 181.087 233.486C180.666 233.642 180.171 233.72 179.603 233.72ZM180.27 231.831C180.787 231.831 181.234 231.729 181.613 231.526C181.992 231.317 182.283 231.043 182.486 230.702C182.695 230.361 182.799 229.989 182.799 229.587V228.301C182.718 228.367 182.581 228.429 182.387 228.486C182.198 228.543 181.984 228.592 181.748 228.635C181.511 228.678 181.277 228.715 181.045 228.749C180.813 228.782 180.611 228.81 180.441 228.834C180.057 228.886 179.714 228.971 179.411 229.089C179.108 229.208 178.869 229.374 178.694 229.587C178.519 229.795 178.431 230.065 178.431 230.396C178.431 230.87 178.604 231.227 178.949 231.469C179.295 231.71 179.735 231.831 180.27 231.831ZM193.395 222.591V224.58H187.124V222.591H193.395ZM188.672 219.977H191.243V230.219C191.243 230.564 191.296 230.83 191.4 231.014C191.509 231.194 191.651 231.317 191.826 231.384C192.001 231.45 192.195 231.483 192.408 231.483C192.569 231.483 192.716 231.471 192.849 231.447C192.986 231.424 193.09 231.402 193.161 231.384L193.594 233.393C193.457 233.441 193.26 233.493 193.005 233.55C192.754 233.607 192.446 233.64 192.081 233.649C191.438 233.668 190.858 233.571 190.341 233.358C189.825 233.14 189.416 232.804 189.113 232.349C188.814 231.895 188.668 231.327 188.672 230.645V219.977ZM200.258 233.713C199.164 233.713 198.22 233.486 197.424 233.031C196.633 232.572 196.025 231.923 195.599 231.085C195.173 230.242 194.96 229.25 194.96 228.109C194.96 226.987 195.173 226.002 195.599 225.155C196.03 224.303 196.631 223.64 197.403 223.166C198.175 222.688 199.081 222.449 200.123 222.449C200.795 222.449 201.43 222.558 202.026 222.776C202.628 222.989 203.158 223.32 203.617 223.77C204.081 224.22 204.446 224.793 204.711 225.489C204.976 226.18 205.109 227.004 205.109 227.96V228.749H196.167V227.016H202.644C202.64 226.523 202.533 226.085 202.325 225.702C202.116 225.313 201.825 225.008 201.451 224.786C201.082 224.563 200.651 224.452 200.159 224.452C199.633 224.452 199.171 224.58 198.774 224.835C198.376 225.086 198.066 225.418 197.843 225.83C197.625 226.237 197.514 226.684 197.509 227.172V228.685C197.509 229.319 197.625 229.864 197.857 230.318C198.089 230.768 198.414 231.114 198.83 231.355C199.247 231.592 199.735 231.71 200.294 231.71C200.668 231.71 201.006 231.658 201.309 231.554C201.612 231.445 201.875 231.286 202.097 231.078C202.32 230.87 202.488 230.612 202.602 230.304L205.002 230.574C204.851 231.208 204.562 231.762 204.136 232.236C203.714 232.705 203.175 233.069 202.517 233.33C201.858 233.585 201.106 233.713 200.258 233.713ZM213.896 226.384V228.5H207.348V226.384H213.896ZM221.359 233.713C220.294 233.713 219.37 233.479 218.589 233.01C217.808 232.541 217.202 231.885 216.771 231.043C216.345 230.2 216.132 229.215 216.132 228.088C216.132 226.961 216.345 225.974 216.771 225.126C217.202 224.279 217.808 223.621 218.589 223.152C219.37 222.683 220.294 222.449 221.359 222.449C222.424 222.449 223.347 222.683 224.129 223.152C224.91 223.621 225.514 224.279 225.94 225.126C226.371 225.974 226.586 226.961 226.586 228.088C226.586 229.215 226.371 230.2 225.94 231.043C225.514 231.885 224.91 232.541 224.129 233.01C223.347 233.479 222.424 233.713 221.359 233.713ZM221.373 231.653C221.951 231.653 222.434 231.495 222.822 231.178C223.21 230.856 223.499 230.425 223.688 229.885C223.883 229.345 223.98 228.744 223.98 228.081C223.98 227.413 223.883 226.81 223.688 226.27C223.499 225.725 223.21 225.292 222.822 224.97C222.434 224.648 221.951 224.487 221.373 224.487C220.781 224.487 220.289 224.648 219.896 224.97C219.508 225.292 219.216 225.725 219.022 226.27C218.833 226.81 218.738 227.413 218.738 228.081C218.738 228.744 218.833 229.345 219.022 229.885C219.216 230.425 219.508 230.856 219.896 231.178C220.289 231.495 220.781 231.653 221.373 231.653ZM234.294 222.591V224.58H227.845V222.591H234.294ZM229.457 233.5V221.561C229.457 220.827 229.609 220.216 229.912 219.729C230.22 219.241 230.631 218.876 231.148 218.635C231.664 218.393 232.237 218.273 232.866 218.273C233.311 218.273 233.707 218.308 234.052 218.379C234.398 218.45 234.654 218.514 234.819 218.571L234.308 220.56C234.199 220.527 234.062 220.493 233.896 220.46C233.73 220.422 233.546 220.403 233.342 220.403C232.864 220.403 232.525 220.519 232.327 220.751C232.132 220.979 232.035 221.305 232.035 221.732V233.5H229.457ZM242.47 226.384V228.5H235.922V226.384H242.47ZM250.622 222.591V224.58H244.351V222.591H250.622ZM245.899 219.977H248.47V230.219C248.47 230.564 248.522 230.83 248.626 231.014C248.735 231.194 248.877 231.317 249.052 231.384C249.228 231.45 249.422 231.483 249.635 231.483C249.796 231.483 249.943 231.471 250.075 231.447C250.212 231.424 250.317 231.402 250.388 231.384L250.821 233.393C250.684 233.441 250.487 233.493 250.231 233.55C249.98 233.607 249.673 233.64 249.308 233.649C248.664 233.668 248.084 233.571 247.568 233.358C247.052 233.14 246.642 232.804 246.339 232.349C246.041 231.895 245.894 231.327 245.899 230.645V219.977ZM255.578 227.108V233.5H253.007V218.955H255.521V224.445H255.649C255.904 223.829 256.3 223.344 256.835 222.989C257.374 222.629 258.061 222.449 258.894 222.449C259.652 222.449 260.312 222.607 260.876 222.925C261.439 223.242 261.875 223.706 262.183 224.317C262.495 224.928 262.651 225.673 262.651 226.554V233.5H260.08V226.952C260.08 226.218 259.891 225.647 259.512 225.24C259.138 224.828 258.613 224.622 257.936 224.622C257.481 224.622 257.074 224.722 256.714 224.92C256.359 225.115 256.079 225.396 255.876 225.766C255.677 226.135 255.578 226.582 255.578 227.108ZM270.102 233.713C269.008 233.713 268.063 233.486 267.268 233.031C266.477 232.572 265.869 231.923 265.443 231.085C265.017 230.242 264.803 229.25 264.803 228.109C264.803 226.987 265.017 226.002 265.443 225.155C265.874 224.303 266.475 223.64 267.247 223.166C268.018 222.688 268.925 222.449 269.967 222.449C270.639 222.449 271.274 222.558 271.87 222.776C272.472 222.989 273.002 223.32 273.461 223.77C273.925 224.22 274.29 224.793 274.555 225.489C274.82 226.18 274.953 227.004 274.953 227.96V228.749H266.011V227.016H272.488C272.483 226.523 272.377 226.085 272.169 225.702C271.96 225.313 271.669 225.008 271.295 224.786C270.926 224.563 270.495 224.452 270.002 224.452C269.477 224.452 269.015 224.58 268.617 224.835C268.22 225.086 267.91 225.418 267.687 225.83C267.469 226.237 267.358 226.684 267.353 227.172V228.685C267.353 229.319 267.469 229.864 267.701 230.318C267.933 230.768 268.258 231.114 268.674 231.355C269.091 231.592 269.579 231.71 270.137 231.71C270.511 231.71 270.85 231.658 271.153 231.554C271.456 231.445 271.719 231.286 271.941 231.078C272.164 230.87 272.332 230.612 272.445 230.304L274.846 230.574C274.695 231.208 274.406 231.762 273.98 232.236C273.558 232.705 273.018 233.069 272.36 233.33C271.702 233.585 270.949 233.713 270.102 233.713ZM283.74 226.384V228.5H277.192V226.384H283.74ZM288.426 233.5H285.613L290.734 218.955H293.987L299.115 233.5H296.302L292.417 221.938H292.303L288.426 233.5ZM288.518 227.797H296.188V229.913H288.518V227.797ZM300.917 233.5V222.591H303.41V224.409H303.523C303.722 223.779 304.063 223.294 304.546 222.953C305.034 222.607 305.59 222.435 306.215 222.435C306.357 222.435 306.516 222.442 306.691 222.456C306.871 222.465 307.02 222.482 307.138 222.506V224.871C307.029 224.833 306.857 224.8 306.62 224.771C306.388 224.738 306.163 224.722 305.945 224.722C305.476 224.722 305.055 224.823 304.681 225.027C304.312 225.226 304.02 225.503 303.807 225.858C303.594 226.213 303.488 226.623 303.488 227.087V233.5H300.917ZM314.88 222.591V224.58H308.608V222.591H314.88ZM310.157 219.977H312.728V230.219C312.728 230.564 312.78 230.83 312.884 231.014C312.993 231.194 313.135 231.317 313.31 231.384C313.485 231.45 313.68 231.483 313.893 231.483C314.054 231.483 314.2 231.471 314.333 231.447C314.47 231.424 314.574 231.402 314.645 231.384L315.079 233.393C314.941 233.441 314.745 233.493 314.489 233.55C314.238 233.607 313.93 233.64 313.566 233.649C312.922 233.668 312.342 233.571 311.826 233.358C311.31 233.14 310.9 232.804 310.597 232.349C310.299 231.895 310.152 231.327 310.157 230.645V219.977ZM322.105 233.5V218.955H327.559C328.677 218.955 329.614 219.163 330.372 219.58C331.134 219.996 331.709 220.569 332.097 221.298C332.49 222.023 332.687 222.847 332.687 223.77C332.687 224.703 332.49 225.531 332.097 226.256C331.704 226.98 331.124 227.551 330.357 227.967C329.59 228.379 328.646 228.585 327.524 228.585H323.909V226.419H327.169C327.822 226.419 328.357 226.305 328.774 226.078C329.19 225.851 329.498 225.538 329.697 225.141C329.901 224.743 330.002 224.286 330.002 223.77C330.002 223.254 329.901 222.799 329.697 222.406C329.498 222.013 329.188 221.708 328.767 221.49C328.35 221.268 327.812 221.156 327.154 221.156H324.74V233.5H322.105ZM334.862 233.5V222.591H337.355V224.409H337.469C337.667 223.779 338.008 223.294 338.491 222.953C338.979 222.607 339.535 222.435 340.16 222.435C340.302 222.435 340.461 222.442 340.636 222.456C340.816 222.465 340.965 222.482 341.084 222.506V224.871C340.975 224.833 340.802 224.8 340.565 224.771C340.333 224.738 340.108 224.722 339.89 224.722C339.422 224.722 339 224.823 338.626 225.027C338.257 225.226 337.966 225.503 337.753 225.858C337.54 226.213 337.433 226.623 337.433 227.087V233.5H334.862ZM347.101 233.713C346.036 233.713 345.112 233.479 344.331 233.01C343.55 232.541 342.944 231.885 342.513 231.043C342.087 230.2 341.874 229.215 341.874 228.088C341.874 226.961 342.087 225.974 342.513 225.126C342.944 224.279 343.55 223.621 344.331 223.152C345.112 222.683 346.036 222.449 347.101 222.449C348.166 222.449 349.09 222.683 349.871 223.152C350.652 223.621 351.256 224.279 351.682 225.126C352.113 225.974 352.328 226.961 352.328 228.088C352.328 229.215 352.113 230.2 351.682 231.043C351.256 231.885 350.652 232.541 349.871 233.01C349.09 233.479 348.166 233.713 347.101 233.713ZM347.115 231.653C347.693 231.653 348.176 231.495 348.564 231.178C348.952 230.856 349.241 230.425 349.431 229.885C349.625 229.345 349.722 228.744 349.722 228.081C349.722 227.413 349.625 226.81 349.431 226.27C349.241 225.725 348.952 225.292 348.564 224.97C348.176 224.648 347.693 224.487 347.115 224.487C346.523 224.487 346.031 224.648 345.638 224.97C345.25 225.292 344.959 225.725 344.764 226.27C344.575 226.81 344.48 227.413 344.48 228.081C344.48 228.744 344.575 229.345 344.764 229.885C344.959 230.425 345.25 230.856 345.638 231.178C346.031 231.495 346.523 231.653 347.115 231.653ZM359.269 233.713C358.18 233.713 357.245 233.474 356.464 232.996C355.687 232.518 355.088 231.857 354.667 231.014C354.25 230.167 354.042 229.191 354.042 228.088C354.042 226.98 354.255 226.002 354.681 225.155C355.107 224.303 355.708 223.64 356.485 223.166C357.266 222.688 358.189 222.449 359.255 222.449C360.14 222.449 360.924 222.612 361.606 222.939C362.292 223.261 362.839 223.718 363.246 224.31C363.653 224.897 363.885 225.583 363.942 226.369H361.485C361.385 225.844 361.149 225.406 360.775 225.055C360.405 224.7 359.911 224.523 359.29 224.523C358.765 224.523 358.303 224.665 357.905 224.949C357.508 225.228 357.198 225.631 356.975 226.156C356.757 226.682 356.648 227.312 356.648 228.045C356.648 228.789 356.757 229.428 356.975 229.963C357.193 230.493 357.498 230.903 357.891 231.192C358.289 231.476 358.755 231.618 359.29 231.618C359.669 231.618 360.008 231.547 360.306 231.405C360.609 231.258 360.862 231.047 361.066 230.773C361.269 230.498 361.409 230.164 361.485 229.771H363.942C363.881 230.543 363.653 231.227 363.26 231.824C362.867 232.416 362.332 232.88 361.655 233.216C360.978 233.547 360.183 233.713 359.269 233.713ZM370.883 233.713C369.789 233.713 368.845 233.486 368.049 233.031C367.258 232.572 366.65 231.923 366.224 231.085C365.798 230.242 365.585 229.25 365.585 228.109C365.585 226.987 365.798 226.002 366.224 225.155C366.655 224.303 367.256 223.64 368.028 223.166C368.8 222.688 369.706 222.449 370.748 222.449C371.42 222.449 372.055 222.558 372.651 222.776C373.253 222.989 373.783 223.32 374.242 223.77C374.706 224.22 375.071 224.793 375.336 225.489C375.601 226.18 375.734 227.004 375.734 227.96V228.749H366.792V227.016H373.269C373.265 226.523 373.158 226.085 372.95 225.702C372.741 225.313 372.45 225.008 372.076 224.786C371.707 224.563 371.276 224.452 370.784 224.452C370.258 224.452 369.796 224.58 369.399 224.835C369.001 225.086 368.691 225.418 368.468 225.83C368.25 226.237 368.139 226.684 368.134 227.172V228.685C368.134 229.319 368.25 229.864 368.482 230.318C368.714 230.768 369.039 231.114 369.455 231.355C369.872 231.592 370.36 231.71 370.919 231.71C371.293 231.71 371.631 231.658 371.934 231.554C372.237 231.445 372.5 231.286 372.722 231.078C372.945 230.87 373.113 230.612 373.227 230.304L375.627 230.574C375.476 231.208 375.187 231.762 374.761 232.236C374.339 232.705 373.8 233.069 373.142 233.33C372.483 233.585 371.731 233.713 370.883 233.713ZM386.531 225.474L384.187 225.73C384.121 225.493 384.005 225.271 383.839 225.062C383.678 224.854 383.461 224.686 383.186 224.558C382.911 224.43 382.575 224.366 382.177 224.366C381.642 224.366 381.193 224.482 380.828 224.714C380.468 224.946 380.291 225.247 380.295 225.616C380.291 225.934 380.407 226.192 380.643 226.391C380.885 226.589 381.282 226.753 381.836 226.881L383.697 227.278C384.729 227.501 385.497 227.854 385.998 228.337C386.505 228.82 386.761 229.452 386.765 230.233C386.761 230.92 386.559 231.526 386.162 232.051C385.769 232.572 385.222 232.979 384.521 233.273C383.82 233.566 383.015 233.713 382.106 233.713C380.771 233.713 379.696 233.434 378.882 232.875C378.068 232.312 377.582 231.528 377.426 230.524L379.933 230.283C380.047 230.775 380.288 231.147 380.657 231.398C381.027 231.649 381.507 231.774 382.099 231.774C382.71 231.774 383.2 231.649 383.569 231.398C383.943 231.147 384.131 230.837 384.131 230.467C384.131 230.155 384.01 229.897 383.768 229.693C383.532 229.49 383.162 229.333 382.66 229.224L380.8 228.834C379.753 228.616 378.979 228.249 378.477 227.733C377.975 227.212 377.727 226.554 377.731 225.759C377.727 225.086 377.909 224.504 378.278 224.011C378.652 223.514 379.171 223.131 379.834 222.861C380.501 222.586 381.271 222.449 382.142 222.449C383.42 222.449 384.426 222.721 385.16 223.266C385.899 223.81 386.356 224.546 386.531 225.474ZM397.508 225.474L395.164 225.73C395.098 225.493 394.982 225.271 394.816 225.062C394.655 224.854 394.437 224.686 394.162 224.558C393.888 224.43 393.552 224.366 393.154 224.366C392.619 224.366 392.169 224.482 391.805 224.714C391.445 224.946 391.267 225.247 391.272 225.616C391.267 225.934 391.383 226.192 391.62 226.391C391.861 226.589 392.259 226.753 392.813 226.881L394.674 227.278C395.706 227.501 396.473 227.854 396.975 228.337C397.482 228.82 397.737 229.452 397.742 230.233C397.737 230.92 397.536 231.526 397.138 232.051C396.745 232.572 396.198 232.979 395.498 233.273C394.797 233.566 393.992 233.713 393.083 233.713C391.748 233.713 390.673 233.434 389.858 232.875C389.044 232.312 388.559 231.528 388.403 230.524L390.91 230.283C391.023 230.775 391.265 231.147 391.634 231.398C392.003 231.649 392.484 231.774 393.076 231.774C393.687 231.774 394.177 231.649 394.546 231.398C394.92 231.147 395.107 230.837 395.107 230.467C395.107 230.155 394.986 229.897 394.745 229.693C394.508 229.49 394.139 229.333 393.637 229.224L391.776 228.834C390.73 228.616 389.956 228.249 389.454 227.733C388.952 227.212 388.703 226.554 388.708 225.759C388.703 225.086 388.885 224.504 389.255 224.011C389.629 223.514 390.147 223.131 390.81 222.861C391.478 222.586 392.247 222.449 393.118 222.449C394.397 222.449 395.403 222.721 396.137 223.266C396.876 223.81 397.332 224.546 397.508 225.474ZM399.862 233.5V222.591H402.433V233.5H399.862ZM401.155 221.043C400.747 221.043 400.397 220.908 400.104 220.638C399.81 220.363 399.663 220.034 399.663 219.651C399.663 219.262 399.81 218.933 400.104 218.663C400.397 218.389 400.747 218.251 401.155 218.251C401.567 218.251 401.917 218.389 402.206 218.663C402.499 218.933 402.646 219.262 402.646 219.651C402.646 220.034 402.499 220.363 402.206 220.638C401.917 220.908 401.567 221.043 401.155 221.043ZM407.648 227.108V233.5H405.077V222.591H407.534V224.445H407.662C407.913 223.834 408.313 223.348 408.862 222.989C409.416 222.629 410.101 222.449 410.915 222.449C411.668 222.449 412.324 222.61 412.882 222.932C413.446 223.254 413.881 223.72 414.189 224.331C414.502 224.942 414.655 225.683 414.651 226.554V233.5H412.08V226.952C412.08 226.223 411.89 225.652 411.512 225.24C411.137 224.828 410.619 224.622 409.956 224.622C409.506 224.622 409.106 224.722 408.756 224.92C408.41 225.115 408.138 225.396 407.939 225.766C407.745 226.135 407.648 226.582 407.648 227.108ZM422.009 237.818C421.085 237.818 420.292 237.693 419.629 237.442C418.967 237.196 418.434 236.864 418.031 236.447C417.629 236.031 417.35 235.569 417.193 235.062L419.509 234.501C419.613 234.714 419.764 234.925 419.963 235.134C420.162 235.347 420.43 235.522 420.766 235.659C421.107 235.801 421.535 235.872 422.051 235.872C422.78 235.872 423.384 235.695 423.862 235.339C424.341 234.989 424.58 234.411 424.58 233.607V231.54H424.452C424.319 231.805 424.125 232.077 423.869 232.357C423.619 232.636 423.285 232.87 422.868 233.06C422.456 233.249 421.938 233.344 421.313 233.344C420.475 233.344 419.715 233.147 419.033 232.754C418.356 232.357 417.816 231.765 417.414 230.979C417.016 230.188 416.817 229.198 416.817 228.01C416.817 226.812 417.016 225.801 417.414 224.977C417.816 224.149 418.358 223.521 419.04 223.095C419.722 222.664 420.482 222.449 421.32 222.449C421.959 222.449 422.485 222.558 422.896 222.776C423.313 222.989 423.645 223.247 423.891 223.55C424.137 223.848 424.324 224.13 424.452 224.395H424.594V222.591H427.129V233.678C427.129 234.61 426.907 235.382 426.462 235.993C426.017 236.604 425.408 237.061 424.637 237.364C423.865 237.667 422.989 237.818 422.009 237.818ZM422.03 231.327C422.575 231.327 423.039 231.194 423.422 230.929C423.806 230.664 424.097 230.283 424.296 229.786C424.494 229.288 424.594 228.692 424.594 227.996C424.594 227.309 424.494 226.708 424.296 226.192C424.102 225.676 423.813 225.276 423.429 224.991C423.05 224.703 422.584 224.558 422.03 224.558C421.457 224.558 420.979 224.707 420.595 225.006C420.212 225.304 419.923 225.714 419.729 226.234C419.535 226.75 419.438 227.338 419.438 227.996C419.438 228.663 419.535 229.248 419.729 229.75C419.928 230.247 420.219 230.635 420.602 230.915C420.991 231.189 421.467 231.327 422.03 231.327ZM237.568 263.713C236.574 263.713 235.719 263.533 235.004 263.173C234.289 262.813 233.738 262.328 233.349 261.717C232.966 261.102 232.774 260.408 232.774 259.636C232.774 259.054 232.892 258.538 233.129 258.088C233.371 257.638 233.702 257.222 234.123 256.838C234.55 256.455 235.042 256.073 235.601 255.695L238.179 253.94C238.558 253.694 238.844 253.434 239.038 253.159C239.237 252.884 239.336 252.562 239.336 252.193C239.336 251.881 239.204 251.585 238.939 251.305C238.678 251.026 238.318 250.886 237.859 250.886C237.551 250.886 237.279 250.96 237.042 251.107C236.81 251.249 236.628 251.436 236.496 251.668C236.368 251.9 236.304 252.146 236.304 252.406C236.304 252.723 236.391 253.045 236.567 253.372C236.747 253.699 236.979 254.037 237.263 254.388C237.551 254.738 237.859 255.11 238.186 255.503L245.011 263.5H242.227L236.559 257.009C236.138 256.516 235.731 256.031 235.338 255.553C234.95 255.074 234.63 254.577 234.379 254.061C234.133 253.54 234.01 252.977 234.01 252.371C234.01 251.684 234.168 251.071 234.486 250.531C234.803 249.987 235.246 249.558 235.814 249.246C236.387 248.933 237.057 248.777 237.824 248.777C238.591 248.777 239.249 248.929 239.798 249.232C240.347 249.535 240.771 249.937 241.069 250.439C241.368 250.941 241.517 251.488 241.517 252.08C241.517 252.766 241.346 253.382 241.006 253.926C240.665 254.466 240.191 254.956 239.585 255.396L236.645 257.548C236.162 257.899 235.816 258.254 235.608 258.614C235.399 258.969 235.295 259.272 235.295 259.523C235.295 259.906 235.392 260.254 235.586 260.567C235.781 260.879 236.053 261.13 236.403 261.32C236.758 261.504 237.173 261.597 237.646 261.597C238.167 261.597 238.681 261.481 239.187 261.249C239.694 261.012 240.156 260.676 240.572 260.24C240.989 259.804 241.32 259.284 241.567 258.678C241.813 258.067 241.936 257.39 241.936 256.646H244.145C244.145 257.565 244.043 258.365 243.839 259.047C243.636 259.724 243.373 260.297 243.051 260.766C242.729 261.23 242.388 261.601 242.028 261.881C241.915 261.961 241.806 262.042 241.702 262.122C241.597 262.203 241.488 262.283 241.375 262.364C240.863 262.828 240.265 263.169 239.578 263.386C238.896 263.604 238.226 263.713 237.568 263.713ZM251.558 263.5V248.955H257.012C258.13 248.955 259.067 249.163 259.825 249.58C260.587 249.996 261.162 250.569 261.551 251.298C261.944 252.023 262.14 252.847 262.14 253.77C262.14 254.703 261.944 255.531 261.551 256.256C261.158 256.98 260.578 257.551 259.811 257.967C259.044 258.379 258.099 258.585 256.977 258.585H253.362V256.419H256.622C257.275 256.419 257.81 256.305 258.227 256.078C258.643 255.851 258.951 255.538 259.15 255.141C259.354 254.743 259.455 254.286 259.455 253.77C259.455 253.254 259.354 252.799 259.15 252.406C258.951 252.013 258.641 251.708 258.22 251.49C257.803 251.268 257.266 251.156 256.607 251.156H254.193V263.5H251.558ZM267.259 263.72C266.568 263.72 265.945 263.597 265.391 263.351C264.842 263.1 264.406 262.731 264.084 262.243C263.767 261.755 263.608 261.154 263.608 260.439C263.608 259.823 263.722 259.314 263.949 258.912C264.177 258.509 264.487 258.188 264.88 257.946C265.273 257.705 265.715 257.522 266.208 257.399C266.705 257.271 267.219 257.179 267.749 257.122C268.388 257.056 268.907 256.997 269.305 256.945C269.702 256.888 269.991 256.803 270.171 256.689C270.356 256.571 270.448 256.388 270.448 256.142V256.099C270.448 255.564 270.289 255.15 269.972 254.857C269.655 254.563 269.198 254.416 268.601 254.416C267.972 254.416 267.472 254.554 267.103 254.828C266.738 255.103 266.492 255.427 266.364 255.801L263.964 255.46C264.153 254.797 264.465 254.243 264.901 253.798C265.337 253.348 265.869 253.012 266.499 252.79C267.129 252.562 267.825 252.449 268.587 252.449C269.113 252.449 269.636 252.51 270.157 252.634C270.678 252.757 271.153 252.96 271.584 253.244C272.015 253.524 272.361 253.905 272.621 254.388C272.886 254.871 273.019 255.474 273.019 256.199V263.5H270.547V262.001H270.462C270.306 262.304 270.086 262.589 269.802 262.854C269.522 263.114 269.17 263.325 268.743 263.486C268.322 263.642 267.827 263.72 267.259 263.72ZM267.927 261.831C268.443 261.831 268.89 261.729 269.269 261.526C269.648 261.317 269.939 261.043 270.143 260.702C270.351 260.361 270.455 259.989 270.455 259.587V258.301C270.375 258.367 270.237 258.429 270.043 258.486C269.854 258.543 269.641 258.592 269.404 258.635C269.167 258.678 268.933 258.715 268.701 258.749C268.469 258.782 268.268 258.81 268.097 258.834C267.714 258.886 267.37 258.971 267.067 259.089C266.764 259.208 266.525 259.374 266.35 259.587C266.175 259.795 266.087 260.065 266.087 260.396C266.087 260.87 266.26 261.227 266.606 261.469C266.951 261.71 267.392 261.831 267.927 261.831ZM280.363 263.713C279.274 263.713 278.339 263.474 277.557 262.996C276.781 262.518 276.182 261.857 275.76 261.014C275.344 260.167 275.135 259.191 275.135 258.088C275.135 256.98 275.349 256.002 275.775 255.155C276.201 254.303 276.802 253.64 277.579 253.166C278.36 252.688 279.283 252.449 280.349 252.449C281.234 252.449 282.018 252.612 282.699 252.939C283.386 253.261 283.933 253.718 284.34 254.31C284.747 254.897 284.979 255.583 285.036 256.369H282.579C282.479 255.844 282.242 255.406 281.868 255.055C281.499 254.7 281.004 254.523 280.384 254.523C279.858 254.523 279.397 254.665 278.999 254.949C278.601 255.228 278.291 255.631 278.069 256.156C277.851 256.682 277.742 257.312 277.742 258.045C277.742 258.789 277.851 259.428 278.069 259.963C278.287 260.493 278.592 260.903 278.985 261.192C279.383 261.476 279.849 261.618 280.384 261.618C280.763 261.618 281.101 261.547 281.4 261.405C281.703 261.258 281.956 261.047 282.16 260.773C282.363 260.498 282.503 260.164 282.579 259.771H285.036C284.974 260.543 284.747 261.227 284.354 261.824C283.961 262.416 283.426 262.88 282.749 263.216C282.072 263.547 281.277 263.713 280.363 263.713ZM289.491 260.077L289.484 256.973H289.896L293.816 252.591H296.82L291.998 257.96H291.465L289.491 260.077ZM287.147 263.5V248.955H289.718V263.5H287.147ZM293.994 263.5L290.443 258.536L292.176 256.724L297.069 263.5H293.994ZM301.673 263.72C300.982 263.72 300.359 263.597 299.805 263.351C299.256 263.1 298.82 262.731 298.498 262.243C298.181 261.755 298.023 261.154 298.023 260.439C298.023 259.823 298.136 259.314 298.363 258.912C298.591 258.509 298.901 258.188 299.294 257.946C299.687 257.705 300.13 257.522 300.622 257.399C301.119 257.271 301.633 257.179 302.163 257.122C302.802 257.056 303.321 256.997 303.719 256.945C304.116 256.888 304.405 256.803 304.585 256.689C304.77 256.571 304.862 256.388 304.862 256.142V256.099C304.862 255.564 304.703 255.15 304.386 254.857C304.069 254.563 303.612 254.416 303.015 254.416C302.386 254.416 301.886 254.554 301.517 254.828C301.152 255.103 300.906 255.427 300.778 255.801L298.378 255.46C298.567 254.797 298.88 254.243 299.315 253.798C299.751 253.348 300.283 253.012 300.913 252.79C301.543 252.562 302.239 252.449 303.001 252.449C303.527 252.449 304.05 252.51 304.571 252.634C305.092 252.757 305.568 252.96 305.998 253.244C306.429 253.524 306.775 253.905 307.035 254.388C307.3 254.871 307.433 255.474 307.433 256.199V263.5H304.961V262.001H304.876C304.72 262.304 304.5 262.589 304.216 262.854C303.936 263.114 303.584 263.325 303.157 263.486C302.736 263.642 302.241 263.72 301.673 263.72ZM302.341 261.831C302.857 261.831 303.304 261.729 303.683 261.526C304.062 261.317 304.353 261.043 304.557 260.702C304.765 260.361 304.869 259.989 304.869 259.587V258.301C304.789 258.367 304.651 258.429 304.457 258.486C304.268 258.543 304.055 258.592 303.818 258.635C303.581 258.678 303.347 258.715 303.115 258.749C302.883 258.782 302.682 258.81 302.511 258.834C302.128 258.886 301.784 258.971 301.481 259.089C301.178 259.208 300.939 259.374 300.764 259.587C300.589 259.795 300.501 260.065 300.501 260.396C300.501 260.87 300.674 261.227 301.02 261.469C301.365 261.71 301.806 261.831 302.341 261.831ZM314.763 267.818C313.839 267.818 313.046 267.693 312.383 267.442C311.72 267.196 311.188 266.864 310.785 266.447C310.383 266.031 310.104 265.569 309.947 265.062L312.263 264.501C312.367 264.714 312.518 264.925 312.717 265.134C312.916 265.347 313.184 265.522 313.52 265.659C313.861 265.801 314.289 265.872 314.805 265.872C315.534 265.872 316.138 265.695 316.616 265.339C317.095 264.989 317.334 264.411 317.334 263.607V261.54H317.206C317.073 261.805 316.879 262.077 316.623 262.357C316.372 262.636 316.039 262.87 315.622 263.06C315.21 263.249 314.692 263.344 314.067 263.344C313.229 263.344 312.469 263.147 311.787 262.754C311.11 262.357 310.57 261.765 310.167 260.979C309.77 260.188 309.571 259.198 309.571 258.01C309.571 256.812 309.77 255.801 310.167 254.977C310.57 254.149 311.112 253.521 311.794 253.095C312.476 252.664 313.236 252.449 314.074 252.449C314.713 252.449 315.238 252.558 315.65 252.776C316.067 252.989 316.398 253.247 316.645 253.55C316.891 253.848 317.078 254.13 317.206 254.395H317.348V252.591H319.883V263.678C319.883 264.61 319.661 265.382 319.216 265.993C318.771 266.604 318.162 267.061 317.39 267.364C316.619 267.667 315.743 267.818 314.763 267.818ZM314.784 261.327C315.328 261.327 315.792 261.194 316.176 260.929C316.559 260.664 316.851 260.283 317.05 259.786C317.248 259.288 317.348 258.692 317.348 257.996C317.348 257.309 317.248 256.708 317.05 256.192C316.855 255.676 316.567 255.276 316.183 254.991C315.804 254.703 315.338 254.558 314.784 254.558C314.211 254.558 313.733 254.707 313.349 255.006C312.966 255.304 312.677 255.714 312.483 256.234C312.289 256.75 312.192 257.338 312.192 257.996C312.192 258.663 312.289 259.248 312.483 259.75C312.682 260.247 312.973 260.635 313.356 260.915C313.745 261.189 314.22 261.327 314.784 261.327ZM322.518 263.5V252.591H325.089V263.5H322.518ZM323.811 251.043C323.404 251.043 323.053 250.908 322.76 250.638C322.466 250.363 322.319 250.034 322.319 249.651C322.319 249.262 322.466 248.933 322.76 248.663C323.053 248.389 323.404 248.251 323.811 248.251C324.223 248.251 324.573 248.389 324.862 248.663C325.156 248.933 325.302 249.262 325.302 249.651C325.302 250.034 325.156 250.363 324.862 250.638C324.573 250.908 324.223 251.043 323.811 251.043ZM330.304 257.108V263.5H327.733V252.591H330.191V254.445H330.318C330.569 253.834 330.969 253.348 331.519 252.989C332.073 252.629 332.757 252.449 333.571 252.449C334.324 252.449 334.98 252.61 335.539 252.932C336.102 253.254 336.538 253.72 336.845 254.331C337.158 254.942 337.312 255.683 337.307 256.554V263.5H334.736V256.952C334.736 256.223 334.547 255.652 334.168 255.24C333.794 254.828 333.275 254.622 332.612 254.622C332.163 254.622 331.762 254.722 331.412 254.92C331.066 255.115 330.794 255.396 330.595 255.766C330.401 256.135 330.304 256.582 330.304 257.108ZM344.665 267.818C343.742 267.818 342.949 267.693 342.286 267.442C341.623 267.196 341.09 266.864 340.688 266.447C340.285 266.031 340.006 265.569 339.85 265.062L342.165 264.501C342.269 264.714 342.421 264.925 342.619 265.134C342.818 265.347 343.086 265.522 343.422 265.659C343.763 265.801 344.191 265.872 344.708 265.872C345.437 265.872 346.04 265.695 346.519 265.339C346.997 264.989 347.236 264.411 347.236 263.607V261.54H347.108C346.976 261.805 346.781 262.077 346.526 262.357C346.275 262.636 345.941 262.87 345.524 263.06C345.112 263.249 344.594 263.344 343.969 263.344C343.131 263.344 342.371 263.147 341.689 262.754C341.012 262.357 340.472 261.765 340.07 260.979C339.672 260.188 339.473 259.198 339.473 258.01C339.473 256.812 339.672 255.801 340.07 254.977C340.472 254.149 341.014 253.521 341.696 253.095C342.378 252.664 343.138 252.449 343.976 252.449C344.615 252.449 345.141 252.558 345.553 252.776C345.969 252.989 346.301 253.247 346.547 253.55C346.793 253.848 346.98 254.13 347.108 254.395H347.25V252.591H349.786V263.678C349.786 264.61 349.563 265.382 349.118 265.993C348.673 266.604 348.065 267.061 347.293 267.364C346.521 267.667 345.645 267.818 344.665 267.818ZM344.686 261.327C345.231 261.327 345.695 261.194 346.078 260.929C346.462 260.664 346.753 260.283 346.952 259.786C347.151 259.288 347.25 258.692 347.25 257.996C347.25 257.309 347.151 256.708 346.952 256.192C346.758 255.676 346.469 255.276 346.085 254.991C345.707 254.703 345.24 254.558 344.686 254.558C344.113 254.558 343.635 254.707 343.252 255.006C342.868 255.304 342.579 255.714 342.385 256.234C342.191 256.75 342.094 257.338 342.094 257.996C342.094 258.663 342.191 259.248 342.385 259.75C342.584 260.247 342.875 260.635 343.259 260.915C343.647 261.189 344.123 261.327 344.686 261.327Z" fill="#F9FAFB"/>
<path d="M170.009 291.682C170.009 292.909 169.787 293.97 169.344 294.864C168.901 295.758 168.293 296.447 167.52 296.932C166.747 297.417 165.865 297.659 164.872 297.659C163.88 297.659 162.997 297.417 162.224 296.932C161.452 296.447 160.844 295.758 160.401 294.864C159.957 293.97 159.736 292.909 159.736 291.682C159.736 290.455 159.957 289.394 160.401 288.5C160.844 287.606 161.452 286.917 162.224 286.432C162.997 285.947 163.88 285.705 164.872 285.705C165.865 285.705 166.747 285.947 167.52 286.432C168.293 286.917 168.901 287.606 169.344 288.5C169.787 289.394 170.009 290.455 170.009 291.682ZM168.645 291.682C168.645 290.674 168.476 289.824 168.139 289.131C167.806 288.438 167.353 287.913 166.781 287.557C166.213 287.201 165.577 287.023 164.872 287.023C164.168 287.023 163.529 287.201 162.957 287.557C162.389 287.913 161.937 288.438 161.599 289.131C161.266 289.824 161.099 290.674 161.099 291.682C161.099 292.689 161.266 293.54 161.599 294.233C161.937 294.926 162.389 295.451 162.957 295.807C163.529 296.163 164.168 296.341 164.872 296.341C165.577 296.341 166.213 296.163 166.781 295.807C167.353 295.451 167.806 294.926 168.139 294.233C168.476 293.54 168.645 292.689 168.645 291.682ZM177.696 293.932V288.773H179.037V297.5H177.696V296.023H177.605C177.401 296.466 177.082 296.843 176.651 297.153C176.219 297.46 175.673 297.614 175.014 297.614C174.469 297.614 173.984 297.494 173.56 297.256C173.135 297.013 172.802 296.65 172.56 296.165C172.317 295.676 172.196 295.061 172.196 294.318V288.773H173.537V294.227C173.537 294.864 173.715 295.371 174.071 295.75C174.431 296.129 174.889 296.318 175.446 296.318C175.779 296.318 176.118 296.233 176.463 296.062C176.812 295.892 177.103 295.631 177.338 295.278C177.577 294.926 177.696 294.477 177.696 293.932ZM181.493 297.5V288.773H182.788V290.091H182.879C183.038 289.659 183.326 289.309 183.743 289.04C184.16 288.771 184.629 288.636 185.152 288.636C185.25 288.636 185.374 288.638 185.521 288.642C185.669 288.646 185.781 288.652 185.857 288.659V290.023C185.811 290.011 185.707 289.994 185.544 289.972C185.385 289.945 185.216 289.932 185.038 289.932C184.614 289.932 184.235 290.021 183.902 290.199C183.572 290.373 183.311 290.616 183.118 290.926C182.929 291.233 182.834 291.583 182.834 291.977V297.5H181.493ZM194.514 297.705C193.961 297.705 193.459 297.6 193.009 297.392C192.558 297.18 192.2 296.875 191.935 296.477C191.67 296.076 191.537 295.591 191.537 295.023C191.537 294.523 191.635 294.117 191.832 293.807C192.029 293.492 192.293 293.246 192.622 293.068C192.952 292.89 193.315 292.758 193.713 292.67C194.115 292.58 194.518 292.508 194.923 292.455C195.454 292.386 195.884 292.335 196.213 292.301C196.546 292.263 196.789 292.201 196.94 292.114C197.096 292.027 197.173 291.875 197.173 291.659V291.614C197.173 291.053 197.02 290.617 196.713 290.307C196.41 289.996 195.95 289.841 195.332 289.841C194.692 289.841 194.19 289.981 193.827 290.261C193.463 290.542 193.207 290.841 193.06 291.159L191.787 290.705C192.014 290.174 192.317 289.761 192.696 289.466C193.079 289.167 193.495 288.958 193.946 288.841C194.401 288.72 194.848 288.659 195.287 288.659C195.567 288.659 195.889 288.693 196.253 288.761C196.62 288.826 196.974 288.96 197.315 289.165C197.66 289.369 197.946 289.678 198.173 290.091C198.401 290.504 198.514 291.057 198.514 291.75V297.5H197.173V296.318H197.105C197.014 296.508 196.863 296.71 196.651 296.926C196.438 297.142 196.156 297.326 195.804 297.477C195.452 297.629 195.022 297.705 194.514 297.705ZM194.719 296.5C195.249 296.5 195.696 296.396 196.06 296.188C196.427 295.979 196.704 295.71 196.889 295.381C197.079 295.051 197.173 294.705 197.173 294.341V293.114C197.116 293.182 196.991 293.244 196.798 293.301C196.609 293.354 196.389 293.402 196.139 293.443C195.893 293.481 195.652 293.515 195.418 293.545C195.187 293.572 194.999 293.595 194.855 293.614C194.507 293.659 194.181 293.733 193.878 293.835C193.579 293.934 193.336 294.083 193.151 294.284C192.969 294.481 192.878 294.75 192.878 295.091C192.878 295.557 193.05 295.909 193.395 296.148C193.743 296.383 194.185 296.5 194.719 296.5ZM204.257 297.682C203.53 297.682 202.888 297.498 202.331 297.131C201.774 296.759 201.339 296.237 201.024 295.562C200.71 294.884 200.553 294.083 200.553 293.159C200.553 292.242 200.71 291.447 201.024 290.773C201.339 290.098 201.776 289.578 202.337 289.21C202.897 288.843 203.545 288.659 204.28 288.659C204.848 288.659 205.297 288.754 205.626 288.943C205.96 289.129 206.214 289.341 206.388 289.58C206.566 289.814 206.704 290.008 206.803 290.159H206.916V285.864H208.257V297.5H206.962V296.159H206.803C206.704 296.318 206.564 296.519 206.382 296.761C206.2 297 205.941 297.214 205.604 297.403C205.267 297.589 204.818 297.682 204.257 297.682ZM204.439 296.477C204.977 296.477 205.431 296.337 205.803 296.057C206.174 295.773 206.456 295.381 206.649 294.881C206.842 294.377 206.939 293.795 206.939 293.136C206.939 292.485 206.844 291.915 206.655 291.426C206.465 290.934 206.185 290.551 205.814 290.278C205.443 290.002 204.984 289.864 204.439 289.864C203.871 289.864 203.397 290.009 203.018 290.301C202.643 290.589 202.361 290.981 202.172 291.477C201.986 291.97 201.893 292.523 201.893 293.136C201.893 293.758 201.988 294.322 202.178 294.83C202.371 295.333 202.655 295.735 203.03 296.034C203.409 296.33 203.878 296.477 204.439 296.477ZM218.036 288.773L214.808 297.5H213.445L210.217 288.773H211.672L214.081 295.727H214.172L216.581 288.773H218.036ZM222.108 297.705C221.555 297.705 221.053 297.6 220.602 297.392C220.152 297.18 219.794 296.875 219.528 296.477C219.263 296.076 219.131 295.591 219.131 295.023C219.131 294.523 219.229 294.117 219.426 293.807C219.623 293.492 219.886 293.246 220.216 293.068C220.545 292.89 220.909 292.758 221.307 292.67C221.708 292.58 222.112 292.508 222.517 292.455C223.047 292.386 223.477 292.335 223.807 292.301C224.14 292.263 224.383 292.201 224.534 292.114C224.689 292.027 224.767 291.875 224.767 291.659V291.614C224.767 291.053 224.614 290.617 224.307 290.307C224.004 289.996 223.544 289.841 222.926 289.841C222.286 289.841 221.784 289.981 221.42 290.261C221.057 290.542 220.801 290.841 220.653 291.159L219.381 290.705C219.608 290.174 219.911 289.761 220.29 289.466C220.672 289.167 221.089 288.958 221.54 288.841C221.994 288.72 222.441 288.659 222.881 288.659C223.161 288.659 223.483 288.693 223.847 288.761C224.214 288.826 224.568 288.96 224.909 289.165C225.254 289.369 225.54 289.678 225.767 290.091C225.994 290.504 226.108 291.057 226.108 291.75V297.5H224.767V296.318H224.699C224.608 296.508 224.456 296.71 224.244 296.926C224.032 297.142 223.75 297.326 223.398 297.477C223.045 297.629 222.616 297.705 222.108 297.705ZM222.312 296.5C222.843 296.5 223.29 296.396 223.653 296.188C224.021 295.979 224.297 295.71 224.483 295.381C224.672 295.051 224.767 294.705 224.767 294.341V293.114C224.71 293.182 224.585 293.244 224.392 293.301C224.203 293.354 223.983 293.402 223.733 293.443C223.487 293.481 223.246 293.515 223.011 293.545C222.78 293.572 222.593 293.595 222.449 293.614C222.1 293.659 221.775 293.733 221.472 293.835C221.172 293.934 220.93 294.083 220.744 294.284C220.563 294.481 220.472 294.75 220.472 295.091C220.472 295.557 220.644 295.909 220.989 296.148C221.337 296.383 221.778 296.5 222.312 296.5ZM229.896 292.25V297.5H228.555V288.773H229.851V290.136H229.964C230.169 289.693 230.48 289.337 230.896 289.068C231.313 288.795 231.851 288.659 232.51 288.659C233.101 288.659 233.618 288.78 234.061 289.023C234.504 289.261 234.849 289.625 235.095 290.114C235.341 290.598 235.464 291.212 235.464 291.955V297.5H234.124V292.045C234.124 291.36 233.946 290.826 233.589 290.443C233.233 290.057 232.745 289.864 232.124 289.864C231.696 289.864 231.313 289.956 230.976 290.142C230.643 290.328 230.379 290.598 230.186 290.955C229.993 291.311 229.896 291.742 229.896 292.25ZM241.46 297.682C240.642 297.682 239.938 297.489 239.347 297.102C238.756 296.716 238.301 296.184 237.983 295.506C237.665 294.828 237.506 294.053 237.506 293.182C237.506 292.295 237.669 291.513 237.994 290.835C238.324 290.153 238.782 289.621 239.369 289.239C239.96 288.852 240.65 288.659 241.438 288.659C242.051 288.659 242.604 288.773 243.097 289C243.589 289.227 243.992 289.545 244.307 289.955C244.621 290.364 244.816 290.841 244.892 291.386H243.551C243.449 290.989 243.222 290.636 242.869 290.33C242.521 290.019 242.051 289.864 241.46 289.864C240.938 289.864 240.479 290 240.085 290.273C239.695 290.542 239.39 290.922 239.17 291.415C238.955 291.903 238.847 292.477 238.847 293.136C238.847 293.811 238.953 294.398 239.165 294.898C239.381 295.398 239.684 295.786 240.074 296.062C240.468 296.339 240.93 296.477 241.46 296.477C241.809 296.477 242.125 296.417 242.409 296.295C242.693 296.174 242.934 296 243.131 295.773C243.328 295.545 243.468 295.273 243.551 294.955H244.892C244.816 295.47 244.629 295.934 244.33 296.347C244.034 296.756 243.642 297.081 243.153 297.324C242.669 297.562 242.104 297.682 241.46 297.682ZM250.511 297.682C249.67 297.682 248.945 297.496 248.335 297.125C247.729 296.75 247.261 296.227 246.932 295.557C246.606 294.883 246.443 294.098 246.443 293.205C246.443 292.311 246.606 291.523 246.932 290.841C247.261 290.155 247.72 289.621 248.307 289.239C248.898 288.852 249.587 288.659 250.375 288.659C250.83 288.659 251.278 288.735 251.722 288.886C252.165 289.038 252.568 289.284 252.932 289.625C253.295 289.962 253.585 290.409 253.801 290.966C254.017 291.523 254.125 292.208 254.125 293.023V293.591H247.398V292.432H252.761C252.761 291.939 252.663 291.5 252.466 291.114C252.273 290.727 251.996 290.422 251.636 290.199C251.28 289.975 250.86 289.864 250.375 289.864C249.841 289.864 249.379 289.996 248.989 290.261C248.602 290.523 248.305 290.864 248.097 291.284C247.888 291.705 247.784 292.155 247.784 292.636V293.409C247.784 294.068 247.898 294.627 248.125 295.085C248.356 295.54 248.676 295.886 249.085 296.125C249.494 296.36 249.97 296.477 250.511 296.477C250.864 296.477 251.182 296.428 251.466 296.33C251.754 296.227 252.002 296.076 252.21 295.875C252.419 295.67 252.58 295.417 252.693 295.114L253.989 295.477C253.852 295.917 253.623 296.303 253.301 296.636C252.979 296.966 252.581 297.223 252.108 297.409C251.634 297.591 251.102 297.682 250.511 297.682ZM259.46 297.682C258.733 297.682 258.091 297.498 257.534 297.131C256.977 296.759 256.542 296.237 256.227 295.562C255.913 294.884 255.756 294.083 255.756 293.159C255.756 292.242 255.913 291.447 256.227 290.773C256.542 290.098 256.979 289.578 257.54 289.21C258.1 288.843 258.748 288.659 259.483 288.659C260.051 288.659 260.5 288.754 260.83 288.943C261.163 289.129 261.417 289.341 261.591 289.58C261.769 289.814 261.907 290.008 262.006 290.159H262.119V285.864H263.46V297.5H262.165V296.159H262.006C261.907 296.318 261.767 296.519 261.585 296.761C261.403 297 261.144 297.214 260.807 297.403C260.47 297.589 260.021 297.682 259.46 297.682ZM259.642 296.477C260.18 296.477 260.634 296.337 261.006 296.057C261.377 295.773 261.659 295.381 261.852 294.881C262.045 294.377 262.142 293.795 262.142 293.136C262.142 292.485 262.047 291.915 261.858 291.426C261.669 290.934 261.388 290.551 261.017 290.278C260.646 290.002 260.188 289.864 259.642 289.864C259.074 289.864 258.6 290.009 258.222 290.301C257.847 290.589 257.564 290.981 257.375 291.477C257.189 291.97 257.097 292.523 257.097 293.136C257.097 293.758 257.191 294.322 257.381 294.83C257.574 295.333 257.858 295.735 258.233 296.034C258.612 296.33 259.081 296.477 259.642 296.477ZM274.489 288.773V289.909H269.784V288.773H274.489ZM271.193 297.5V287.568C271.193 287.068 271.311 286.652 271.545 286.318C271.78 285.985 272.085 285.735 272.46 285.568C272.835 285.402 273.231 285.318 273.648 285.318C273.977 285.318 274.246 285.345 274.455 285.398C274.663 285.451 274.818 285.5 274.92 285.545L274.534 286.705C274.466 286.682 274.371 286.653 274.25 286.619C274.133 286.585 273.977 286.568 273.784 286.568C273.341 286.568 273.021 286.68 272.824 286.903C272.631 287.127 272.534 287.455 272.534 287.886V297.5H271.193ZM278.686 297.705C278.133 297.705 277.631 297.6 277.18 297.392C276.73 297.18 276.372 296.875 276.107 296.477C275.841 296.076 275.709 295.591 275.709 295.023C275.709 294.523 275.807 294.117 276.004 293.807C276.201 293.492 276.464 293.246 276.794 293.068C277.124 292.89 277.487 292.758 277.885 292.67C278.286 292.58 278.69 292.508 279.095 292.455C279.625 292.386 280.055 292.335 280.385 292.301C280.718 292.263 280.961 292.201 281.112 292.114C281.268 292.027 281.345 291.875 281.345 291.659V291.614C281.345 291.053 281.192 290.617 280.885 290.307C280.582 289.996 280.122 289.841 279.504 289.841C278.864 289.841 278.362 289.981 277.999 290.261C277.635 290.542 277.379 290.841 277.232 291.159L275.959 290.705C276.186 290.174 276.489 289.761 276.868 289.466C277.25 289.167 277.667 288.958 278.118 288.841C278.572 288.72 279.019 288.659 279.459 288.659C279.739 288.659 280.061 288.693 280.425 288.761C280.792 288.826 281.146 288.96 281.487 289.165C281.832 289.369 282.118 289.678 282.345 290.091C282.572 290.504 282.686 291.057 282.686 291.75V297.5H281.345V296.318H281.277C281.186 296.508 281.035 296.71 280.822 296.926C280.61 297.142 280.328 297.326 279.976 297.477C279.624 297.629 279.194 297.705 278.686 297.705ZM278.891 296.5C279.421 296.5 279.868 296.396 280.232 296.188C280.599 295.979 280.875 295.71 281.061 295.381C281.25 295.051 281.345 294.705 281.345 294.341V293.114C281.288 293.182 281.163 293.244 280.97 293.301C280.781 293.354 280.561 293.402 280.311 293.443C280.065 293.481 279.824 293.515 279.589 293.545C279.358 293.572 279.171 293.595 279.027 293.614C278.679 293.659 278.353 293.733 278.05 293.835C277.75 293.934 277.508 294.083 277.322 294.284C277.141 294.481 277.05 294.75 277.05 295.091C277.05 295.557 277.222 295.909 277.567 296.148C277.915 296.383 278.357 296.5 278.891 296.5ZM288.679 297.682C287.861 297.682 287.156 297.489 286.565 297.102C285.974 296.716 285.52 296.184 285.202 295.506C284.884 294.828 284.724 294.053 284.724 293.182C284.724 292.295 284.887 291.513 285.213 290.835C285.543 290.153 286.001 289.621 286.588 289.239C287.179 288.852 287.868 288.659 288.656 288.659C289.27 288.659 289.823 288.773 290.315 289C290.808 289.227 291.211 289.545 291.526 289.955C291.84 290.364 292.035 290.841 292.111 291.386H290.77C290.668 290.989 290.44 290.636 290.088 290.33C289.74 290.019 289.27 289.864 288.679 289.864C288.156 289.864 287.698 290 287.304 290.273C286.914 290.542 286.609 290.922 286.389 291.415C286.173 291.903 286.065 292.477 286.065 293.136C286.065 293.811 286.171 294.398 286.384 294.898C286.599 295.398 286.902 295.786 287.293 296.062C287.687 296.339 288.149 296.477 288.679 296.477C289.027 296.477 289.344 296.417 289.628 296.295C289.912 296.174 290.152 296 290.349 295.773C290.546 295.545 290.687 295.273 290.77 294.955H292.111C292.035 295.47 291.848 295.934 291.548 296.347C291.253 296.756 290.861 297.081 290.372 297.324C289.887 297.562 289.323 297.682 288.679 297.682ZM294.071 297.5V288.773H295.412V297.5H294.071ZM294.753 287.318C294.491 287.318 294.266 287.229 294.077 287.051C293.891 286.873 293.798 286.659 293.798 286.409C293.798 286.159 293.891 285.945 294.077 285.767C294.266 285.589 294.491 285.5 294.753 285.5C295.014 285.5 295.238 285.589 295.423 285.767C295.613 285.945 295.707 286.159 295.707 286.409C295.707 286.659 295.613 286.873 295.423 287.051C295.238 287.229 295.014 287.318 294.753 287.318ZM299.209 285.864V297.5H297.868V285.864H299.209ZM301.665 297.5V288.773H303.006V297.5H301.665ZM302.347 287.318C302.085 287.318 301.86 287.229 301.67 287.051C301.485 286.873 301.392 286.659 301.392 286.409C301.392 286.159 301.485 285.945 301.67 285.767C301.86 285.589 302.085 285.5 302.347 285.5C302.608 285.5 302.831 285.589 303.017 285.767C303.206 285.945 303.301 286.159 303.301 286.409C303.301 286.659 303.206 286.873 303.017 287.051C302.831 287.229 302.608 287.318 302.347 287.318ZM309.257 288.773V289.909H304.734V288.773H309.257ZM306.053 286.682H307.393V295C307.393 295.379 307.448 295.663 307.558 295.852C307.672 296.038 307.816 296.163 307.99 296.227C308.168 296.288 308.356 296.318 308.553 296.318C308.7 296.318 308.821 296.311 308.916 296.295C309.011 296.277 309.087 296.261 309.143 296.25L309.416 297.455C309.325 297.489 309.198 297.523 309.036 297.557C308.873 297.595 308.666 297.614 308.416 297.614C308.037 297.614 307.666 297.532 307.303 297.369C306.943 297.206 306.643 296.958 306.405 296.625C306.17 296.292 306.053 295.871 306.053 295.364V286.682ZM311.274 297.5V288.773H312.615V297.5H311.274ZM311.956 287.318C311.695 287.318 311.469 287.229 311.28 287.051C311.094 286.873 311.001 286.659 311.001 286.409C311.001 286.159 311.094 285.945 311.28 285.767C311.469 285.589 311.695 285.5 311.956 285.5C312.217 285.5 312.441 285.589 312.626 285.767C312.816 285.945 312.911 286.159 312.911 286.409C312.911 286.659 312.816 286.873 312.626 287.051C312.441 287.229 312.217 287.318 311.956 287.318ZM318.73 297.682C317.889 297.682 317.164 297.496 316.554 297.125C315.948 296.75 315.48 296.227 315.151 295.557C314.825 294.883 314.662 294.098 314.662 293.205C314.662 292.311 314.825 291.523 315.151 290.841C315.48 290.155 315.938 289.621 316.526 289.239C317.116 288.852 317.806 288.659 318.594 288.659C319.048 288.659 319.497 288.735 319.94 288.886C320.384 289.038 320.787 289.284 321.151 289.625C321.514 289.962 321.804 290.409 322.02 290.966C322.236 291.523 322.344 292.208 322.344 293.023V293.591H315.616V292.432H320.98C320.98 291.939 320.882 291.5 320.685 291.114C320.491 290.727 320.215 290.422 319.855 290.199C319.499 289.975 319.079 289.864 318.594 289.864C318.06 289.864 317.598 289.996 317.207 290.261C316.821 290.523 316.524 290.864 316.315 291.284C316.107 291.705 316.003 292.155 316.003 292.636V293.409C316.003 294.068 316.116 294.627 316.344 295.085C316.575 295.54 316.895 295.886 317.304 296.125C317.713 296.36 318.188 296.477 318.73 296.477C319.082 296.477 319.401 296.428 319.685 296.33C319.973 296.227 320.221 296.076 320.429 295.875C320.637 295.67 320.798 295.417 320.912 295.114L322.207 295.477C322.071 295.917 321.842 296.303 321.52 296.636C321.198 296.966 320.8 297.223 320.327 297.409C319.853 297.591 319.321 297.682 318.73 297.682ZM330.565 290.727L329.361 291.068C329.285 290.867 329.173 290.672 329.026 290.483C328.882 290.29 328.685 290.131 328.435 290.006C328.185 289.881 327.865 289.818 327.474 289.818C326.94 289.818 326.495 289.941 326.139 290.188C325.787 290.43 325.611 290.739 325.611 291.114C325.611 291.447 325.732 291.71 325.974 291.903C326.217 292.097 326.596 292.258 327.111 292.386L328.406 292.705C329.187 292.894 329.768 293.184 330.151 293.574C330.533 293.96 330.724 294.458 330.724 295.068C330.724 295.568 330.58 296.015 330.293 296.409C330.009 296.803 329.611 297.114 329.099 297.341C328.588 297.568 327.993 297.682 327.315 297.682C326.425 297.682 325.688 297.489 325.105 297.102C324.522 296.716 324.152 296.152 323.997 295.409L325.27 295.091C325.391 295.561 325.62 295.913 325.957 296.148C326.298 296.383 326.743 296.5 327.293 296.5C327.918 296.5 328.414 296.367 328.781 296.102C329.152 295.833 329.338 295.511 329.338 295.136C329.338 294.833 329.232 294.58 329.02 294.375C328.808 294.167 328.482 294.011 328.043 293.909L326.588 293.568C325.789 293.379 325.202 293.085 324.827 292.688C324.455 292.286 324.27 291.784 324.27 291.182C324.27 290.689 324.408 290.254 324.685 289.875C324.965 289.496 325.346 289.199 325.827 288.983C326.312 288.767 326.861 288.659 327.474 288.659C328.338 288.659 329.016 288.848 329.509 289.227C330.005 289.606 330.357 290.106 330.565 290.727ZM340.902 297.682C340.061 297.682 339.336 297.496 338.726 297.125C338.12 296.75 337.652 296.227 337.322 295.557C336.997 294.883 336.834 294.098 336.834 293.205C336.834 292.311 336.997 291.523 337.322 290.841C337.652 290.155 338.11 289.621 338.697 289.239C339.288 288.852 339.978 288.659 340.766 288.659C341.22 288.659 341.669 288.735 342.112 288.886C342.555 289.038 342.959 289.284 343.322 289.625C343.686 289.962 343.976 290.409 344.192 290.966C344.408 291.523 344.516 292.208 344.516 293.023V293.591H337.788V292.432H343.152C343.152 291.939 343.054 291.5 342.857 291.114C342.663 290.727 342.387 290.422 342.027 290.199C341.671 289.975 341.25 289.864 340.766 289.864C340.232 289.864 339.769 289.996 339.379 290.261C338.993 290.523 338.696 290.864 338.487 291.284C338.279 291.705 338.175 292.155 338.175 292.636V293.409C338.175 294.068 338.288 294.627 338.516 295.085C338.747 295.54 339.067 295.886 339.476 296.125C339.885 296.36 340.36 296.477 340.902 296.477C341.254 296.477 341.572 296.428 341.857 296.33C342.144 296.227 342.393 296.076 342.601 295.875C342.809 295.67 342.97 295.417 343.084 295.114L344.379 295.477C344.243 295.917 344.014 296.303 343.692 296.636C343.37 296.966 342.972 297.223 342.499 297.409C342.025 297.591 341.493 297.682 340.902 297.682ZM347.896 292.25V297.5H346.555V288.773H347.851V290.136H347.964C348.169 289.693 348.48 289.337 348.896 289.068C349.313 288.795 349.851 288.659 350.51 288.659C351.101 288.659 351.618 288.78 352.061 289.023C352.504 289.261 352.849 289.625 353.095 290.114C353.341 290.598 353.464 291.212 353.464 291.955V297.5H352.124V292.045C352.124 291.36 351.946 290.826 351.589 290.443C351.233 290.057 350.745 289.864 350.124 289.864C349.696 289.864 349.313 289.956 348.976 290.142C348.643 290.328 348.379 290.598 348.186 290.955C347.993 291.311 347.896 291.742 347.896 292.25ZM362.097 290.727L360.892 291.068C360.816 290.867 360.705 290.672 360.557 290.483C360.413 290.29 360.216 290.131 359.966 290.006C359.716 289.881 359.396 289.818 359.006 289.818C358.472 289.818 358.027 289.941 357.67 290.188C357.318 290.43 357.142 290.739 357.142 291.114C357.142 291.447 357.263 291.71 357.506 291.903C357.748 292.097 358.127 292.258 358.642 292.386L359.938 292.705C360.718 292.894 361.299 293.184 361.682 293.574C362.064 293.96 362.256 294.458 362.256 295.068C362.256 295.568 362.112 296.015 361.824 296.409C361.54 296.803 361.142 297.114 360.631 297.341C360.119 297.568 359.525 297.682 358.847 297.682C357.956 297.682 357.22 297.489 356.636 297.102C356.053 296.716 355.684 296.152 355.528 295.409L356.801 295.091C356.922 295.561 357.152 295.913 357.489 296.148C357.83 296.383 358.275 296.5 358.824 296.5C359.449 296.5 359.945 296.367 360.312 296.102C360.684 295.833 360.869 295.511 360.869 295.136C360.869 294.833 360.763 294.58 360.551 294.375C360.339 294.167 360.013 294.011 359.574 293.909L358.119 293.568C357.32 293.379 356.733 293.085 356.358 292.688C355.987 292.286 355.801 291.784 355.801 291.182C355.801 290.689 355.939 290.254 356.216 289.875C356.496 289.496 356.877 289.199 357.358 288.983C357.843 288.767 358.392 288.659 359.006 288.659C359.869 288.659 360.547 288.848 361.04 289.227C361.536 289.606 361.888 290.106 362.097 290.727ZM369.774 293.932V288.773H371.115V297.5H369.774V296.023H369.683C369.479 296.466 369.161 296.843 368.729 297.153C368.297 297.46 367.751 297.614 367.092 297.614C366.547 297.614 366.062 297.494 365.638 297.256C365.214 297.013 364.88 296.65 364.638 296.165C364.395 295.676 364.274 295.061 364.274 294.318V288.773H365.615V294.227C365.615 294.864 365.793 295.371 366.149 295.75C366.509 296.129 366.967 296.318 367.524 296.318C367.857 296.318 368.196 296.233 368.541 296.062C368.89 295.892 369.181 295.631 369.416 295.278C369.655 294.926 369.774 294.477 369.774 293.932ZM373.571 297.5V288.773H374.866V290.091H374.957C375.116 289.659 375.404 289.309 375.821 289.04C376.238 288.771 376.707 288.636 377.23 288.636C377.329 288.636 377.452 288.638 377.599 288.642C377.747 288.646 377.859 288.652 377.935 288.659V290.023C377.889 290.011 377.785 289.994 377.622 289.972C377.463 289.945 377.295 289.932 377.116 289.932C376.692 289.932 376.313 290.021 375.98 290.199C375.651 290.373 375.389 290.616 375.196 290.926C375.007 291.233 374.912 291.583 374.912 291.977V297.5H373.571ZM382.918 297.682C382.077 297.682 381.351 297.496 380.741 297.125C380.135 296.75 379.668 296.227 379.338 295.557C379.012 294.883 378.849 294.098 378.849 293.205C378.849 292.311 379.012 291.523 379.338 290.841C379.668 290.155 380.126 289.621 380.713 289.239C381.304 288.852 381.993 288.659 382.781 288.659C383.236 288.659 383.685 288.735 384.128 288.886C384.571 289.038 384.974 289.284 385.338 289.625C385.702 289.962 385.991 290.409 386.207 290.966C386.423 291.523 386.531 292.208 386.531 293.023V293.591H379.804V292.432H385.168C385.168 291.939 385.069 291.5 384.872 291.114C384.679 290.727 384.402 290.422 384.043 290.199C383.687 289.975 383.266 289.864 382.781 289.864C382.247 289.864 381.785 289.996 381.395 290.261C381.009 290.523 380.711 290.864 380.503 291.284C380.295 291.705 380.19 292.155 380.19 292.636V293.409C380.19 294.068 380.304 294.627 380.531 295.085C380.762 295.54 381.082 295.886 381.491 296.125C381.901 296.36 382.376 296.477 382.918 296.477C383.27 296.477 383.588 296.428 383.872 296.33C384.16 296.227 384.408 296.076 384.616 295.875C384.825 295.67 384.986 295.417 385.099 295.114L386.395 295.477C386.259 295.917 386.029 296.303 385.707 296.636C385.385 296.966 384.988 297.223 384.514 297.409C384.041 297.591 383.509 297.682 382.918 297.682ZM396.866 288.773V289.909H392.344V288.773H396.866ZM393.662 286.682H395.003V295C395.003 295.379 395.058 295.663 395.168 295.852C395.281 296.038 395.425 296.163 395.599 296.227C395.777 296.288 395.965 296.318 396.162 296.318C396.31 296.318 396.431 296.311 396.526 296.295C396.62 296.277 396.696 296.261 396.753 296.25L397.026 297.455C396.935 297.489 396.808 297.523 396.645 297.557C396.482 297.595 396.276 297.614 396.026 297.614C395.647 297.614 395.276 297.532 394.912 297.369C394.552 297.206 394.253 296.958 394.014 296.625C393.779 296.292 393.662 295.871 393.662 295.364V286.682ZM402.335 297.682C401.547 297.682 400.856 297.494 400.261 297.119C399.67 296.744 399.208 296.22 398.875 295.545C398.545 294.871 398.381 294.083 398.381 293.182C398.381 292.273 398.545 291.479 398.875 290.801C399.208 290.123 399.67 289.597 400.261 289.222C400.856 288.847 401.547 288.659 402.335 288.659C403.123 288.659 403.813 288.847 404.403 289.222C404.998 289.597 405.46 290.123 405.79 290.801C406.123 291.479 406.29 292.273 406.29 293.182C406.29 294.083 406.123 294.871 405.79 295.545C405.46 296.22 404.998 296.744 404.403 297.119C403.813 297.494 403.123 297.682 402.335 297.682ZM402.335 296.477C402.934 296.477 403.426 296.324 403.812 296.017C404.199 295.71 404.485 295.307 404.67 294.807C404.856 294.307 404.949 293.765 404.949 293.182C404.949 292.598 404.856 292.055 404.67 291.551C404.485 291.047 404.199 290.64 403.812 290.33C403.426 290.019 402.934 289.864 402.335 289.864C401.737 289.864 401.244 290.019 400.858 290.33C400.472 290.64 400.186 291.047 400 291.551C399.814 292.055 399.722 292.598 399.722 293.182C399.722 293.765 399.814 294.307 400 294.807C400.186 295.307 400.472 295.71 400.858 296.017C401.244 296.324 401.737 296.477 402.335 296.477ZM408.337 300.773V288.773H409.632V290.159H409.791C409.89 290.008 410.026 289.814 410.2 289.58C410.378 289.341 410.632 289.129 410.962 288.943C411.295 288.754 411.746 288.659 412.314 288.659C413.049 288.659 413.696 288.843 414.257 289.21C414.818 289.578 415.255 290.098 415.57 290.773C415.884 291.447 416.041 292.242 416.041 293.159C416.041 294.083 415.884 294.884 415.57 295.562C415.255 296.237 414.82 296.759 414.263 297.131C413.706 297.498 413.064 297.682 412.337 297.682C411.776 297.682 411.327 297.589 410.99 297.403C410.653 297.214 410.393 297 410.212 296.761C410.03 296.519 409.89 296.318 409.791 296.159H409.678V300.773H408.337ZM409.655 293.136C409.655 293.795 409.751 294.377 409.945 294.881C410.138 295.381 410.42 295.773 410.791 296.057C411.162 296.337 411.617 296.477 412.155 296.477C412.715 296.477 413.183 296.33 413.558 296.034C413.937 295.735 414.221 295.333 414.411 294.83C414.604 294.322 414.7 293.758 414.7 293.136C414.7 292.523 414.606 291.97 414.416 291.477C414.231 290.981 413.948 290.589 413.57 290.301C413.195 290.009 412.723 289.864 412.155 289.864C411.609 289.864 411.151 290.002 410.78 290.278C410.409 290.551 410.128 290.934 409.939 291.426C409.75 291.915 409.655 292.485 409.655 293.136ZM423.087 291.886V293.136H417.996V291.886H423.087ZM189.935 316.25V321.5H188.594V312.773H189.89V314.136H190.004C190.208 313.693 190.519 313.337 190.935 313.068C191.352 312.795 191.89 312.659 192.549 312.659C193.14 312.659 193.657 312.78 194.1 313.023C194.543 313.261 194.888 313.625 195.134 314.114C195.38 314.598 195.504 315.212 195.504 315.955V321.5H194.163V316.045C194.163 315.36 193.985 314.826 193.629 314.443C193.272 314.057 192.784 313.864 192.163 313.864C191.735 313.864 191.352 313.956 191.015 314.142C190.682 314.328 190.418 314.598 190.225 314.955C190.032 315.311 189.935 315.742 189.935 316.25ZM201.499 321.682C200.711 321.682 200.02 321.494 199.425 321.119C198.835 320.744 198.372 320.22 198.039 319.545C197.71 318.871 197.545 318.083 197.545 317.182C197.545 316.273 197.71 315.479 198.039 314.801C198.372 314.123 198.835 313.597 199.425 313.222C200.02 312.847 200.711 312.659 201.499 312.659C202.287 312.659 202.977 312.847 203.567 313.222C204.162 313.597 204.624 314.123 204.954 314.801C205.287 315.479 205.454 316.273 205.454 317.182C205.454 318.083 205.287 318.871 204.954 319.545C204.624 320.22 204.162 320.744 203.567 321.119C202.977 321.494 202.287 321.682 201.499 321.682ZM201.499 320.477C202.098 320.477 202.59 320.324 202.977 320.017C203.363 319.71 203.649 319.307 203.835 318.807C204.02 318.307 204.113 317.765 204.113 317.182C204.113 316.598 204.02 316.055 203.835 315.551C203.649 315.047 203.363 314.64 202.977 314.33C202.59 314.019 202.098 313.864 201.499 313.864C200.901 313.864 200.408 314.019 200.022 314.33C199.636 314.64 199.35 315.047 199.164 315.551C198.978 316.055 198.886 316.598 198.886 317.182C198.886 317.765 198.978 318.307 199.164 318.807C199.35 319.307 199.636 319.71 200.022 320.017C200.408 320.324 200.901 320.477 201.499 320.477ZM211.296 312.773V313.909H206.773V312.773H211.296ZM208.092 310.682H209.433V319C209.433 319.379 209.487 319.663 209.597 319.852C209.711 320.038 209.855 320.163 210.029 320.227C210.207 320.288 210.395 320.318 210.592 320.318C210.739 320.318 210.861 320.311 210.955 320.295C211.05 320.277 211.126 320.261 211.183 320.25L211.455 321.455C211.364 321.489 211.237 321.523 211.075 321.557C210.912 321.595 210.705 321.614 210.455 321.614C210.076 321.614 209.705 321.532 209.342 321.369C208.982 321.206 208.683 320.958 208.444 320.625C208.209 320.292 208.092 319.871 208.092 319.364V310.682ZM216.765 321.682C215.947 321.682 215.242 321.489 214.651 321.102C214.06 320.716 213.606 320.184 213.288 319.506C212.969 318.828 212.81 318.053 212.81 317.182C212.81 316.295 212.973 315.513 213.299 314.835C213.629 314.153 214.087 313.621 214.674 313.239C215.265 312.852 215.954 312.659 216.742 312.659C217.356 312.659 217.909 312.773 218.401 313C218.894 313.227 219.297 313.545 219.612 313.955C219.926 314.364 220.121 314.841 220.197 315.386H218.856C218.754 314.989 218.526 314.636 218.174 314.33C217.826 314.019 217.356 313.864 216.765 313.864C216.242 313.864 215.784 314 215.39 314.273C215 314.542 214.695 314.922 214.475 315.415C214.259 315.903 214.151 316.477 214.151 317.136C214.151 317.811 214.257 318.398 214.469 318.898C214.685 319.398 214.988 319.786 215.379 320.062C215.772 320.339 216.235 320.477 216.765 320.477C217.113 320.477 217.43 320.417 217.714 320.295C217.998 320.174 218.238 320 218.435 319.773C218.632 319.545 218.772 319.273 218.856 318.955H220.197C220.121 319.47 219.933 319.934 219.634 320.347C219.339 320.756 218.947 321.081 218.458 321.324C217.973 321.562 217.409 321.682 216.765 321.682ZM223.498 316.25V321.5H222.157V309.864H223.498V314.136H223.612C223.816 313.686 224.123 313.328 224.532 313.062C224.945 312.794 225.494 312.659 226.18 312.659C226.774 312.659 227.295 312.778 227.742 313.017C228.189 313.252 228.536 313.614 228.782 314.102C229.032 314.587 229.157 315.205 229.157 315.955V321.5H227.816V316.045C227.816 315.352 227.636 314.816 227.276 314.438C226.92 314.055 226.426 313.864 225.793 313.864C225.354 313.864 224.96 313.956 224.612 314.142C224.267 314.328 223.994 314.598 223.793 314.955C223.596 315.311 223.498 315.742 223.498 316.25ZM236.11 324.773V312.773H237.406V314.159H237.565C237.663 314.008 237.799 313.814 237.974 313.58C238.152 313.341 238.406 313.129 238.735 312.943C239.068 312.754 239.519 312.659 240.087 312.659C240.822 312.659 241.47 312.843 242.031 313.21C242.591 313.578 243.029 314.098 243.343 314.773C243.657 315.447 243.815 316.242 243.815 317.159C243.815 318.083 243.657 318.884 243.343 319.562C243.029 320.237 242.593 320.759 242.036 321.131C241.479 321.498 240.837 321.682 240.11 321.682C239.549 321.682 239.101 321.589 238.763 321.403C238.426 321.214 238.167 321 237.985 320.761C237.803 320.519 237.663 320.318 237.565 320.159H237.451V324.773H236.11ZM237.428 317.136C237.428 317.795 237.525 318.377 237.718 318.881C237.911 319.381 238.193 319.773 238.565 320.057C238.936 320.337 239.39 320.477 239.928 320.477C240.489 320.477 240.957 320.33 241.332 320.034C241.71 319.735 241.995 319.333 242.184 318.83C242.377 318.322 242.474 317.758 242.474 317.136C242.474 316.523 242.379 315.97 242.19 315.477C242.004 314.981 241.722 314.589 241.343 314.301C240.968 314.009 240.496 313.864 239.928 313.864C239.383 313.864 238.924 314.002 238.553 314.278C238.182 314.551 237.902 314.934 237.712 315.426C237.523 315.915 237.428 316.485 237.428 317.136ZM245.86 321.5V312.773H247.156V314.091H247.246C247.406 313.659 247.693 313.309 248.11 313.04C248.527 312.771 248.996 312.636 249.519 312.636C249.618 312.636 249.741 312.638 249.888 312.642C250.036 312.646 250.148 312.652 250.224 312.659V314.023C250.178 314.011 250.074 313.994 249.911 313.972C249.752 313.945 249.584 313.932 249.406 313.932C248.981 313.932 248.603 314.021 248.269 314.199C247.94 314.373 247.678 314.616 247.485 314.926C247.296 315.233 247.201 315.583 247.201 315.977V321.5H245.86ZM255.093 321.682C254.305 321.682 253.614 321.494 253.019 321.119C252.428 320.744 251.966 320.22 251.633 319.545C251.303 318.871 251.138 318.083 251.138 317.182C251.138 316.273 251.303 315.479 251.633 314.801C251.966 314.123 252.428 313.597 253.019 313.222C253.614 312.847 254.305 312.659 255.093 312.659C255.881 312.659 256.57 312.847 257.161 313.222C257.756 313.597 258.218 314.123 258.548 314.801C258.881 315.479 259.048 316.273 259.048 317.182C259.048 318.083 258.881 318.871 258.548 319.545C258.218 320.22 257.756 320.744 257.161 321.119C256.57 321.494 255.881 321.682 255.093 321.682ZM255.093 320.477C255.692 320.477 256.184 320.324 256.57 320.017C256.957 319.71 257.243 319.307 257.428 318.807C257.614 318.307 257.707 317.765 257.707 317.182C257.707 316.598 257.614 316.055 257.428 315.551C257.243 315.047 256.957 314.64 256.57 314.33C256.184 314.019 255.692 313.864 255.093 313.864C254.495 313.864 254.002 314.019 253.616 314.33C253.229 314.64 252.943 315.047 252.758 315.551C252.572 316.055 252.479 316.598 252.479 317.182C252.479 317.765 252.572 318.307 252.758 318.807C252.943 319.307 253.229 319.71 253.616 320.017C254.002 320.324 254.495 320.477 255.093 320.477ZM264.39 321.682C263.663 321.682 263.021 321.498 262.464 321.131C261.907 320.759 261.471 320.237 261.157 319.562C260.843 318.884 260.685 318.083 260.685 317.159C260.685 316.242 260.843 315.447 261.157 314.773C261.471 314.098 261.909 313.578 262.469 313.21C263.03 312.843 263.678 312.659 264.413 312.659C264.981 312.659 265.43 312.754 265.759 312.943C266.093 313.129 266.346 313.341 266.521 313.58C266.699 313.814 266.837 314.008 266.935 314.159H267.049V309.864H268.39V321.5H267.094V320.159H266.935C266.837 320.318 266.697 320.519 266.515 320.761C266.333 321 266.074 321.214 265.737 321.403C265.399 321.589 264.951 321.682 264.39 321.682ZM264.572 320.477C265.11 320.477 265.564 320.337 265.935 320.057C266.307 319.773 266.589 319.381 266.782 318.881C266.975 318.377 267.072 317.795 267.072 317.136C267.072 316.485 266.977 315.915 266.788 315.426C266.598 314.934 266.318 314.551 265.947 314.278C265.576 314.002 265.117 313.864 264.572 313.864C264.004 313.864 263.53 314.009 263.151 314.301C262.776 314.589 262.494 314.981 262.305 315.477C262.119 315.97 262.026 316.523 262.026 317.136C262.026 317.758 262.121 318.322 262.31 318.83C262.504 319.333 262.788 319.735 263.163 320.034C263.541 320.33 264.011 320.477 264.572 320.477ZM276.532 317.932V312.773H277.873V321.5H276.532V320.023H276.441C276.237 320.466 275.918 320.843 275.487 321.153C275.055 321.46 274.509 321.614 273.85 321.614C273.305 321.614 272.82 321.494 272.396 321.256C271.971 321.013 271.638 320.65 271.396 320.165C271.153 319.676 271.032 319.061 271.032 318.318V312.773H272.373V318.227C272.373 318.864 272.551 319.371 272.907 319.75C273.267 320.129 273.725 320.318 274.282 320.318C274.615 320.318 274.954 320.233 275.299 320.062C275.647 319.892 275.939 319.631 276.174 319.278C276.413 318.926 276.532 318.477 276.532 317.932ZM283.874 321.682C283.056 321.682 282.352 321.489 281.761 321.102C281.17 320.716 280.715 320.184 280.397 319.506C280.079 318.828 279.92 318.053 279.92 317.182C279.92 316.295 280.083 315.513 280.408 314.835C280.738 314.153 281.196 313.621 281.783 313.239C282.374 312.852 283.064 312.659 283.852 312.659C284.465 312.659 285.018 312.773 285.511 313C286.003 313.227 286.406 313.545 286.721 313.955C287.035 314.364 287.23 314.841 287.306 315.386H285.965C285.863 314.989 285.636 314.636 285.283 314.33C284.935 314.019 284.465 313.864 283.874 313.864C283.352 313.864 282.893 314 282.499 314.273C282.109 314.542 281.804 314.922 281.585 315.415C281.369 315.903 281.261 316.477 281.261 317.136C281.261 317.811 281.367 318.398 281.579 318.898C281.795 319.398 282.098 319.786 282.488 320.062C282.882 320.339 283.344 320.477 283.874 320.477C284.223 320.477 284.539 320.417 284.823 320.295C285.107 320.174 285.348 320 285.545 319.773C285.742 319.545 285.882 319.273 285.965 318.955H287.306C287.23 319.47 287.043 319.934 286.744 320.347C286.448 320.756 286.056 321.081 285.567 321.324C285.083 321.562 284.518 321.682 283.874 321.682ZM293.062 312.773V313.909H288.539V312.773H293.062ZM289.857 310.682H291.198V319C291.198 319.379 291.253 319.663 291.363 319.852C291.477 320.038 291.621 320.163 291.795 320.227C291.973 320.288 292.16 320.318 292.357 320.318C292.505 320.318 292.626 320.311 292.721 320.295C292.816 320.277 292.891 320.261 292.948 320.25L293.221 321.455C293.13 321.489 293.003 321.523 292.84 321.557C292.677 321.595 292.471 321.614 292.221 321.614C291.842 321.614 291.471 321.532 291.107 321.369C290.747 321.206 290.448 320.958 290.21 320.625C289.975 320.292 289.857 319.871 289.857 319.364V310.682ZM300.92 316.25V321.5H299.579V309.864H300.92V314.136H301.033C301.238 313.686 301.545 313.328 301.954 313.062C302.367 312.794 302.916 312.659 303.602 312.659C304.196 312.659 304.717 312.778 305.164 313.017C305.611 313.252 305.958 313.614 306.204 314.102C306.454 314.587 306.579 315.205 306.579 315.955V321.5H305.238V316.045C305.238 315.352 305.058 314.816 304.698 314.438C304.342 314.055 303.848 313.864 303.215 313.864C302.776 313.864 302.382 313.956 302.033 314.142C301.689 314.328 301.416 314.598 301.215 314.955C301.018 315.311 300.92 315.742 300.92 316.25ZM311.6 321.705C311.047 321.705 310.545 321.6 310.094 321.392C309.644 321.18 309.286 320.875 309.021 320.477C308.755 320.076 308.623 319.591 308.623 319.023C308.623 318.523 308.721 318.117 308.918 317.807C309.115 317.492 309.379 317.246 309.708 317.068C310.038 316.89 310.401 316.758 310.799 316.67C311.201 316.58 311.604 316.508 312.009 316.455C312.54 316.386 312.969 316.335 313.299 316.301C313.632 316.263 313.875 316.201 314.026 316.114C314.182 316.027 314.259 315.875 314.259 315.659V315.614C314.259 315.053 314.106 314.617 313.799 314.307C313.496 313.996 313.036 313.841 312.418 313.841C311.778 313.841 311.276 313.981 310.913 314.261C310.549 314.542 310.293 314.841 310.146 315.159L308.873 314.705C309.1 314.174 309.403 313.761 309.782 313.466C310.165 313.167 310.581 312.958 311.032 312.841C311.487 312.72 311.933 312.659 312.373 312.659C312.653 312.659 312.975 312.693 313.339 312.761C313.706 312.826 314.06 312.96 314.401 313.165C314.746 313.369 315.032 313.678 315.259 314.091C315.487 314.504 315.6 315.057 315.6 315.75V321.5H314.259V320.318H314.191C314.1 320.508 313.949 320.71 313.737 320.926C313.524 321.142 313.242 321.326 312.89 321.477C312.538 321.629 312.108 321.705 311.6 321.705ZM311.805 320.5C312.335 320.5 312.782 320.396 313.146 320.188C313.513 319.979 313.79 319.71 313.975 319.381C314.165 319.051 314.259 318.705 314.259 318.341V317.114C314.202 317.182 314.077 317.244 313.884 317.301C313.695 317.354 313.475 317.402 313.225 317.443C312.979 317.481 312.738 317.515 312.504 317.545C312.272 317.572 312.085 317.595 311.941 317.614C311.593 317.659 311.267 317.733 310.964 317.835C310.665 317.934 310.422 318.083 310.237 318.284C310.055 318.481 309.964 318.75 309.964 319.091C309.964 319.557 310.136 319.909 310.481 320.148C310.829 320.383 311.271 320.5 311.805 320.5ZM319.388 316.25V321.5H318.048V312.773H319.343V314.136H319.457C319.661 313.693 319.972 313.337 320.388 313.068C320.805 312.795 321.343 312.659 322.002 312.659C322.593 312.659 323.11 312.78 323.553 313.023C323.996 313.261 324.341 313.625 324.587 314.114C324.834 314.598 324.957 315.212 324.957 315.955V321.5H323.616V316.045C323.616 315.36 323.438 314.826 323.082 314.443C322.726 314.057 322.237 313.864 321.616 313.864C321.188 313.864 320.805 313.956 320.468 314.142C320.135 314.328 319.871 314.598 319.678 314.955C319.485 315.311 319.388 315.742 319.388 316.25ZM330.702 321.682C329.975 321.682 329.333 321.498 328.776 321.131C328.219 320.759 327.784 320.237 327.469 319.562C327.155 318.884 326.998 318.083 326.998 317.159C326.998 316.242 327.155 315.447 327.469 314.773C327.784 314.098 328.221 313.578 328.782 313.21C329.343 312.843 329.99 312.659 330.725 312.659C331.293 312.659 331.742 312.754 332.072 312.943C332.405 313.129 332.659 313.341 332.833 313.58C333.011 313.814 333.149 314.008 333.248 314.159H333.362V309.864H334.702V321.5H333.407V320.159H333.248C333.149 320.318 333.009 320.519 332.827 320.761C332.646 321 332.386 321.214 332.049 321.403C331.712 321.589 331.263 321.682 330.702 321.682ZM330.884 320.477C331.422 320.477 331.877 320.337 332.248 320.057C332.619 319.773 332.901 319.381 333.094 318.881C333.288 318.377 333.384 317.795 333.384 317.136C333.384 316.485 333.29 315.915 333.1 315.426C332.911 314.934 332.63 314.551 332.259 314.278C331.888 314.002 331.43 313.864 330.884 313.864C330.316 313.864 329.843 314.009 329.464 314.301C329.089 314.589 328.807 314.981 328.617 315.477C328.432 315.97 328.339 316.523 328.339 317.136C328.339 317.758 328.433 318.322 328.623 318.83C328.816 319.333 329.1 319.735 329.475 320.034C329.854 320.33 330.324 320.477 330.884 320.477ZM338.685 309.864V321.5H337.344V309.864H338.685ZM341.141 321.5V312.773H342.482V321.5H341.141ZM341.823 311.318C341.562 311.318 341.336 311.229 341.147 311.051C340.961 310.873 340.869 310.659 340.869 310.409C340.869 310.159 340.961 309.945 341.147 309.767C341.336 309.589 341.562 309.5 341.823 309.5C342.085 309.5 342.308 309.589 342.494 309.767C342.683 309.945 342.778 310.159 342.778 310.409C342.778 310.659 342.683 310.873 342.494 311.051C342.308 311.229 342.085 311.318 341.823 311.318ZM346.279 316.25V321.5H344.938V312.773H346.234V314.136H346.347C346.552 313.693 346.862 313.337 347.279 313.068C347.696 312.795 348.234 312.659 348.893 312.659C349.484 312.659 350.001 312.78 350.444 313.023C350.887 313.261 351.232 313.625 351.478 314.114C351.724 314.598 351.847 315.212 351.847 315.955V321.5H350.506V316.045C350.506 315.36 350.328 314.826 349.972 314.443C349.616 314.057 349.128 313.864 348.506 313.864C348.078 313.864 347.696 313.956 347.359 314.142C347.025 314.328 346.762 314.598 346.569 314.955C346.376 315.311 346.279 315.742 346.279 316.25ZM357.82 324.955C357.173 324.955 356.616 324.871 356.15 324.705C355.684 324.542 355.296 324.326 354.985 324.057C354.678 323.792 354.434 323.508 354.252 323.205L355.32 322.455C355.442 322.614 355.595 322.795 355.781 323C355.966 323.208 356.22 323.388 356.542 323.54C356.868 323.695 357.294 323.773 357.82 323.773C358.525 323.773 359.106 323.602 359.565 323.261C360.023 322.92 360.252 322.386 360.252 321.659V319.886H360.138C360.04 320.045 359.9 320.242 359.718 320.477C359.54 320.708 359.282 320.915 358.945 321.097C358.612 321.275 358.161 321.364 357.593 321.364C356.888 321.364 356.256 321.197 355.695 320.864C355.138 320.53 354.697 320.045 354.371 319.409C354.049 318.773 353.888 318 353.888 317.091C353.888 316.197 354.046 315.419 354.36 314.756C354.674 314.089 355.112 313.574 355.673 313.21C356.233 312.843 356.881 312.659 357.616 312.659C358.184 312.659 358.635 312.754 358.968 312.943C359.305 313.129 359.563 313.341 359.741 313.58C359.923 313.814 360.063 314.008 360.161 314.159H360.298V312.773H361.593V321.75C361.593 322.5 361.423 323.11 361.082 323.58C360.745 324.053 360.29 324.4 359.718 324.619C359.15 324.843 358.517 324.955 357.82 324.955ZM357.775 320.159C358.313 320.159 358.767 320.036 359.138 319.79C359.51 319.544 359.792 319.189 359.985 318.727C360.178 318.265 360.275 317.712 360.275 317.068C360.275 316.439 360.18 315.884 359.991 315.403C359.801 314.922 359.521 314.545 359.15 314.273C358.779 314 358.32 313.864 357.775 313.864C357.207 313.864 356.733 314.008 356.354 314.295C355.979 314.583 355.697 314.97 355.508 315.455C355.322 315.939 355.229 316.477 355.229 317.068C355.229 317.674 355.324 318.21 355.513 318.676C355.707 319.138 355.991 319.502 356.366 319.767C356.745 320.028 357.214 320.159 357.775 320.159ZM371.116 321.705C370.563 321.705 370.061 321.6 369.61 321.392C369.159 321.18 368.801 320.875 368.536 320.477C368.271 320.076 368.138 319.591 368.138 319.023C368.138 318.523 368.237 318.117 368.434 317.807C368.631 317.492 368.894 317.246 369.224 317.068C369.553 316.89 369.917 316.758 370.315 316.67C370.716 316.58 371.12 316.508 371.525 316.455C372.055 316.386 372.485 316.335 372.815 316.301C373.148 316.263 373.39 316.201 373.542 316.114C373.697 316.027 373.775 315.875 373.775 315.659V315.614C373.775 315.053 373.621 314.617 373.315 314.307C373.012 313.996 372.551 313.841 371.934 313.841C371.294 313.841 370.792 313.981 370.428 314.261C370.065 314.542 369.809 314.841 369.661 315.159L368.388 314.705C368.616 314.174 368.919 313.761 369.298 313.466C369.68 313.167 370.097 312.958 370.548 312.841C371.002 312.72 371.449 312.659 371.888 312.659C372.169 312.659 372.491 312.693 372.854 312.761C373.222 312.826 373.576 312.96 373.917 313.165C374.262 313.369 374.548 313.678 374.775 314.091C375.002 314.504 375.116 315.057 375.116 315.75V321.5H373.775V320.318H373.707C373.616 320.508 373.464 320.71 373.252 320.926C373.04 321.142 372.758 321.326 372.406 321.477C372.053 321.629 371.623 321.705 371.116 321.705ZM371.32 320.5C371.851 320.5 372.298 320.396 372.661 320.188C373.029 319.979 373.305 319.71 373.491 319.381C373.68 319.051 373.775 318.705 373.775 318.341V317.114C373.718 317.182 373.593 317.244 373.4 317.301C373.21 317.354 372.991 317.402 372.741 317.443C372.495 317.481 372.254 317.515 372.019 317.545C371.788 317.572 371.601 317.595 371.457 317.614C371.108 317.659 370.782 317.733 370.479 317.835C370.18 317.934 369.938 318.083 369.752 318.284C369.57 318.481 369.479 318.75 369.479 319.091C369.479 319.557 369.652 319.909 369.996 320.148C370.345 320.383 370.786 320.5 371.32 320.5ZM378.904 316.25V321.5H377.563V312.773H378.859V314.136H378.972C379.177 313.693 379.487 313.337 379.904 313.068C380.321 312.795 380.859 312.659 381.518 312.659C382.109 312.659 382.626 312.78 383.069 313.023C383.512 313.261 383.857 313.625 384.103 314.114C384.349 314.598 384.472 315.212 384.472 315.955V321.5H383.131V316.045C383.131 315.36 382.953 314.826 382.597 314.443C382.241 314.057 381.753 313.864 381.131 313.864C380.703 313.864 380.321 313.956 379.984 314.142C379.65 314.328 379.387 314.598 379.194 314.955C379.001 315.311 378.904 315.742 378.904 316.25ZM390.218 321.682C389.491 321.682 388.849 321.498 388.292 321.131C387.735 320.759 387.299 320.237 386.985 319.562C386.671 318.884 386.513 318.083 386.513 317.159C386.513 316.242 386.671 315.447 386.985 314.773C387.299 314.098 387.737 313.578 388.298 313.21C388.858 312.843 389.506 312.659 390.241 312.659C390.809 312.659 391.258 312.754 391.587 312.943C391.921 313.129 392.174 313.341 392.349 313.58C392.527 313.814 392.665 314.008 392.763 314.159H392.877V309.864H394.218V321.5H392.923V320.159H392.763C392.665 320.318 392.525 320.519 392.343 320.761C392.161 321 391.902 321.214 391.565 321.403C391.228 321.589 390.779 321.682 390.218 321.682ZM390.4 320.477C390.938 320.477 391.392 320.337 391.763 320.057C392.135 319.773 392.417 319.381 392.61 318.881C392.803 318.377 392.9 317.795 392.9 317.136C392.9 316.485 392.805 315.915 392.616 315.426C392.426 314.934 392.146 314.551 391.775 314.278C391.404 314.002 390.945 313.864 390.4 313.864C389.832 313.864 389.358 314.009 388.979 314.301C388.604 314.589 388.322 314.981 388.133 315.477C387.947 315.97 387.854 316.523 387.854 317.136C387.854 317.758 387.949 318.322 388.138 318.83C388.332 319.333 388.616 319.735 388.991 320.034C389.37 320.33 389.839 320.477 390.4 320.477ZM243.118 348.773V336.773H244.413V338.159H244.572C244.671 338.008 244.807 337.814 244.982 337.58C245.16 337.341 245.413 337.129 245.743 336.943C246.076 336.754 246.527 336.659 247.095 336.659C247.83 336.659 248.478 336.843 249.038 337.21C249.599 337.578 250.036 338.098 250.351 338.773C250.665 339.447 250.822 340.242 250.822 341.159C250.822 342.083 250.665 342.884 250.351 343.562C250.036 344.237 249.601 344.759 249.044 345.131C248.487 345.498 247.845 345.682 247.118 345.682C246.557 345.682 246.108 345.589 245.771 345.403C245.434 345.214 245.175 345 244.993 344.761C244.811 344.519 244.671 344.318 244.572 344.159H244.459V348.773H243.118ZM244.436 341.136C244.436 341.795 244.533 342.377 244.726 342.881C244.919 343.381 245.201 343.773 245.572 344.057C245.944 344.337 246.398 344.477 246.936 344.477C247.497 344.477 247.964 344.33 248.339 344.034C248.718 343.735 249.002 343.333 249.192 342.83C249.385 342.322 249.482 341.758 249.482 341.136C249.482 340.523 249.387 339.97 249.197 339.477C249.012 338.981 248.73 338.589 248.351 338.301C247.976 338.009 247.504 337.864 246.936 337.864C246.391 337.864 245.932 338.002 245.561 338.278C245.19 338.551 244.91 338.934 244.72 339.426C244.531 339.915 244.436 340.485 244.436 341.136ZM252.868 345.5V336.773H254.163V338.091H254.254C254.413 337.659 254.701 337.309 255.118 337.04C255.535 336.771 256.004 336.636 256.527 336.636C256.625 336.636 256.749 336.638 256.896 336.642C257.044 336.646 257.156 336.652 257.232 336.659V338.023C257.186 338.011 257.082 337.994 256.919 337.972C256.76 337.945 256.591 337.932 256.413 337.932C255.989 337.932 255.61 338.021 255.277 338.199C254.947 338.373 254.686 338.616 254.493 338.926C254.304 339.233 254.209 339.583 254.209 339.977V345.5H252.868ZM262.214 345.682C261.374 345.682 260.648 345.496 260.038 345.125C259.432 344.75 258.964 344.227 258.635 343.557C258.309 342.883 258.146 342.098 258.146 341.205C258.146 340.311 258.309 339.523 258.635 338.841C258.964 338.155 259.423 337.621 260.01 337.239C260.601 336.852 261.29 336.659 262.078 336.659C262.533 336.659 262.982 336.735 263.425 336.886C263.868 337.038 264.271 337.284 264.635 337.625C264.999 337.962 265.288 338.409 265.504 338.966C265.72 339.523 265.828 340.208 265.828 341.023V341.591H259.101V340.432H264.464C264.464 339.939 264.366 339.5 264.169 339.114C263.976 338.727 263.699 338.422 263.339 338.199C262.983 337.975 262.563 337.864 262.078 337.864C261.544 337.864 261.082 337.996 260.692 338.261C260.305 338.523 260.008 338.864 259.8 339.284C259.591 339.705 259.487 340.155 259.487 340.636V341.409C259.487 342.068 259.601 342.627 259.828 343.085C260.059 343.54 260.379 343.886 260.788 344.125C261.197 344.36 261.673 344.477 262.214 344.477C262.567 344.477 262.885 344.428 263.169 344.33C263.457 344.227 263.705 344.076 263.913 343.875C264.122 343.67 264.283 343.417 264.396 343.114L265.692 343.477C265.555 343.917 265.326 344.303 265.004 344.636C264.682 344.966 264.285 345.223 263.811 345.409C263.338 345.591 262.805 345.682 262.214 345.682ZM274.05 338.727L272.845 339.068C272.769 338.867 272.658 338.672 272.51 338.483C272.366 338.29 272.169 338.131 271.919 338.006C271.669 337.881 271.349 337.818 270.959 337.818C270.425 337.818 269.98 337.941 269.624 338.188C269.271 338.43 269.095 338.739 269.095 339.114C269.095 339.447 269.216 339.71 269.459 339.903C269.701 340.097 270.08 340.258 270.595 340.386L271.891 340.705C272.671 340.894 273.252 341.184 273.635 341.574C274.018 341.96 274.209 342.458 274.209 343.068C274.209 343.568 274.065 344.015 273.777 344.409C273.493 344.803 273.095 345.114 272.584 345.341C272.072 345.568 271.478 345.682 270.8 345.682C269.91 345.682 269.173 345.489 268.589 345.102C268.006 344.716 267.637 344.152 267.482 343.409L268.754 343.091C268.875 343.561 269.105 343.913 269.442 344.148C269.783 344.383 270.228 344.5 270.777 344.5C271.402 344.5 271.898 344.367 272.266 344.102C272.637 343.833 272.822 343.511 272.822 343.136C272.822 342.833 272.716 342.58 272.504 342.375C272.292 342.167 271.966 342.011 271.527 341.909L270.072 341.568C269.273 341.379 268.686 341.085 268.311 340.688C267.94 340.286 267.754 339.784 267.754 339.182C267.754 338.689 267.893 338.254 268.169 337.875C268.449 337.496 268.83 337.199 269.311 336.983C269.796 336.767 270.345 336.659 270.959 336.659C271.822 336.659 272.5 336.848 272.993 337.227C273.489 337.606 273.841 338.106 274.05 338.727ZM279.886 345.682C279.045 345.682 278.32 345.496 277.71 345.125C277.104 344.75 276.636 344.227 276.307 343.557C275.981 342.883 275.818 342.098 275.818 341.205C275.818 340.311 275.981 339.523 276.307 338.841C276.636 338.155 277.095 337.621 277.682 337.239C278.273 336.852 278.962 336.659 279.75 336.659C280.205 336.659 280.653 336.735 281.097 336.886C281.54 337.038 281.943 337.284 282.307 337.625C282.67 337.962 282.96 338.409 283.176 338.966C283.392 339.523 283.5 340.208 283.5 341.023V341.591H276.773V340.432H282.136C282.136 339.939 282.038 339.5 281.841 339.114C281.648 338.727 281.371 338.422 281.011 338.199C280.655 337.975 280.235 337.864 279.75 337.864C279.216 337.864 278.754 337.996 278.364 338.261C277.977 338.523 277.68 338.864 277.472 339.284C277.263 339.705 277.159 340.155 277.159 340.636V341.409C277.159 342.068 277.273 342.627 277.5 343.085C277.731 343.54 278.051 343.886 278.46 344.125C278.869 344.36 279.345 344.477 279.886 344.477C280.239 344.477 280.557 344.428 280.841 344.33C281.129 344.227 281.377 344.076 281.585 343.875C281.794 343.67 281.955 343.417 282.068 343.114L283.364 343.477C283.227 343.917 282.998 344.303 282.676 344.636C282.354 344.966 281.956 345.223 281.483 345.409C281.009 345.591 280.477 345.682 279.886 345.682ZM285.54 345.5V336.773H286.835V338.091H286.926C287.085 337.659 287.373 337.309 287.79 337.04C288.206 336.771 288.676 336.636 289.199 336.636C289.297 336.636 289.42 336.638 289.568 336.642C289.716 336.646 289.828 336.652 289.903 336.659V338.023C289.858 338.011 289.754 337.994 289.591 337.972C289.432 337.945 289.263 337.932 289.085 337.932C288.661 337.932 288.282 338.021 287.949 338.199C287.619 338.373 287.358 338.616 287.165 338.926C286.975 339.233 286.881 339.583 286.881 339.977V345.5H285.54ZM298.895 336.773L295.668 345.5H294.304L291.077 336.773H292.531L294.94 343.727H295.031L297.44 336.773H298.895ZM302.967 345.705C302.414 345.705 301.912 345.6 301.462 345.392C301.011 345.18 300.653 344.875 300.388 344.477C300.123 344.076 299.99 343.591 299.99 343.023C299.99 342.523 300.089 342.117 300.286 341.807C300.482 341.492 300.746 341.246 301.075 341.068C301.405 340.89 301.768 340.758 302.166 340.67C302.568 340.58 302.971 340.508 303.376 340.455C303.907 340.386 304.337 340.335 304.666 340.301C305 340.263 305.242 340.201 305.393 340.114C305.549 340.027 305.626 339.875 305.626 339.659V339.614C305.626 339.053 305.473 338.617 305.166 338.307C304.863 337.996 304.403 337.841 303.786 337.841C303.145 337.841 302.643 337.981 302.28 338.261C301.916 338.542 301.661 338.841 301.513 339.159L300.24 338.705C300.467 338.174 300.77 337.761 301.149 337.466C301.532 337.167 301.948 336.958 302.399 336.841C302.854 336.72 303.301 336.659 303.74 336.659C304.02 336.659 304.342 336.693 304.706 336.761C305.073 336.826 305.428 336.96 305.768 337.165C306.113 337.369 306.399 337.678 306.626 338.091C306.854 338.504 306.967 339.057 306.967 339.75V345.5H305.626V344.318H305.558C305.467 344.508 305.316 344.71 305.104 344.926C304.892 345.142 304.609 345.326 304.257 345.477C303.905 345.629 303.475 345.705 302.967 345.705ZM303.172 344.5C303.702 344.5 304.149 344.396 304.513 344.188C304.88 343.979 305.157 343.71 305.342 343.381C305.532 343.051 305.626 342.705 305.626 342.341V341.114C305.57 341.182 305.445 341.244 305.251 341.301C305.062 341.354 304.842 341.402 304.592 341.443C304.346 341.481 304.106 341.515 303.871 341.545C303.64 341.572 303.452 341.595 303.308 341.614C302.96 341.659 302.634 341.733 302.331 341.835C302.032 341.934 301.789 342.083 301.604 342.284C301.422 342.481 301.331 342.75 301.331 343.091C301.331 343.557 301.503 343.909 301.848 344.148C302.196 344.383 302.638 344.5 303.172 344.5ZM313.21 336.773V337.909H308.688V336.773H313.21ZM310.006 334.682H311.347V343C311.347 343.379 311.402 343.663 311.511 343.852C311.625 344.038 311.769 344.163 311.943 344.227C312.121 344.288 312.309 344.318 312.506 344.318C312.653 344.318 312.775 344.311 312.869 344.295C312.964 344.277 313.04 344.261 313.097 344.25L313.369 345.455C313.278 345.489 313.152 345.523 312.989 345.557C312.826 345.595 312.619 345.614 312.369 345.614C311.991 345.614 311.619 345.532 311.256 345.369C310.896 345.206 310.597 344.958 310.358 344.625C310.123 344.292 310.006 343.871 310.006 343.364V334.682ZM315.227 345.5V336.773H316.568V345.5H315.227ZM315.909 335.318C315.648 335.318 315.422 335.229 315.233 335.051C315.047 334.873 314.955 334.659 314.955 334.409C314.955 334.159 315.047 333.945 315.233 333.767C315.422 333.589 315.648 333.5 315.909 333.5C316.17 333.5 316.394 333.589 316.58 333.767C316.769 333.945 316.864 334.159 316.864 334.409C316.864 334.659 316.769 334.873 316.58 335.051C316.394 335.229 316.17 335.318 315.909 335.318ZM322.57 345.682C321.782 345.682 321.09 345.494 320.496 345.119C319.905 344.744 319.443 344.22 319.109 343.545C318.78 342.871 318.615 342.083 318.615 341.182C318.615 340.273 318.78 339.479 319.109 338.801C319.443 338.123 319.905 337.597 320.496 337.222C321.09 336.847 321.782 336.659 322.57 336.659C323.357 336.659 324.047 336.847 324.638 337.222C325.232 337.597 325.695 338.123 326.024 338.801C326.357 339.479 326.524 340.273 326.524 341.182C326.524 342.083 326.357 342.871 326.024 343.545C325.695 344.22 325.232 344.744 324.638 345.119C324.047 345.494 323.357 345.682 322.57 345.682ZM322.57 344.477C323.168 344.477 323.661 344.324 324.047 344.017C324.433 343.71 324.719 343.307 324.905 342.807C325.09 342.307 325.183 341.765 325.183 341.182C325.183 340.598 325.09 340.055 324.905 339.551C324.719 339.047 324.433 338.64 324.047 338.33C323.661 338.019 323.168 337.864 322.57 337.864C321.971 337.864 321.479 338.019 321.092 338.33C320.706 338.64 320.42 339.047 320.234 339.551C320.049 340.055 319.956 340.598 319.956 341.182C319.956 341.765 320.049 342.307 320.234 342.807C320.42 343.307 320.706 343.71 321.092 344.017C321.479 344.324 321.971 344.477 322.57 344.477ZM329.912 340.25V345.5H328.571V336.773H329.866V338.136H329.98C330.185 337.693 330.495 337.337 330.912 337.068C331.329 336.795 331.866 336.659 332.526 336.659C333.116 336.659 333.634 336.78 334.077 337.023C334.52 337.261 334.865 337.625 335.111 338.114C335.357 338.598 335.48 339.212 335.48 339.955V345.5H334.139V340.045C334.139 339.36 333.961 338.826 333.605 338.443C333.249 338.057 332.76 337.864 332.139 337.864C331.711 337.864 331.329 337.956 330.991 338.142C330.658 338.328 330.395 338.598 330.202 338.955C330.009 339.311 329.912 339.742 329.912 340.25ZM338.908 345.591C338.627 345.591 338.387 345.491 338.186 345.29C337.985 345.089 337.885 344.848 337.885 344.568C337.885 344.288 337.985 344.047 338.186 343.847C338.387 343.646 338.627 343.545 338.908 343.545C339.188 343.545 339.429 343.646 339.629 343.847C339.83 344.047 339.93 344.288 339.93 344.568C339.93 344.754 339.883 344.924 339.788 345.08C339.697 345.235 339.574 345.36 339.419 345.455C339.268 345.545 339.097 345.591 338.908 345.591Z" fill="#E5E7EB"/>
<path opacity="0.04" d="M672.476 -5.85571C672.834 -7.38768 672.589 -8.99895 671.79 -10.3545C670.991 -11.7101 669.701 -12.7057 668.187 -13.1344C666.669 -13.5332 665.054 -13.3159 663.696 -12.5297C662.337 -11.7436 661.344 -10.4523 660.933 -8.93721C653.315 40.5525 619.842 81.2017 580.072 109.595C537.011 140.3 486.34 157.417 436.905 174.962C389.602 191.776 341.771 209.651 300.827 239.228C263.669 266.11 232.615 302.474 221.957 347.913C221.028 351.395 220.466 354.876 219.856 358.54C219.758 359.16 219.516 359.749 219.152 360.26C218.787 360.771 218.309 361.19 217.754 361.484C217.2 361.779 216.585 361.94 215.957 361.957C215.33 361.973 214.707 361.843 214.138 361.578C195.618 353.733 175.718 349.663 155.604 349.607C96.2299 348.87 38.6064 378.705 1.13764 424.028C-20.3547 449.579 -34.8673 480.259 -40.9882 513.081C-42.3141 520.529 -30.8811 523.655 -29.5368 516.138C-20.0181 462.102 15.3805 414.974 62.2811 387.257C85.5821 373.266 111.72 364.667 138.777 362.093C164.641 359.871 192.47 363.154 215.642 375.522C216.309 375.879 216.861 376.42 217.232 377.079C217.604 377.739 217.779 378.491 217.739 379.247C216.8 409.69 224.88 440.356 244.603 464.17C247.797 467.995 251.268 471.579 254.99 474.892C257.604 477.234 262.569 477.382 264.306 473.724C278.071 444.865 269.767 410.532 249.384 386.984C244.302 381.159 238.51 375.995 232.143 371.61C231.536 371.197 231.051 370.627 230.741 369.961C230.431 369.295 230.306 368.558 230.38 367.827C230.68 365.233 231.009 362.622 231.47 360.071C234.901 339.891 242.456 320.634 253.661 303.504C266.755 284.08 283.049 267.018 301.849 253.044C341.334 223.053 387.968 204.883 434.236 188.357C483.385 170.785 534.115 154.272 577.983 125.231C618.848 98.1599 655.053 59.5897 668.567 11.4529C670.214 5.76654 671.519 -0.0133501 672.476 -5.85571ZM251.704 453.749C238.89 436.452 231.361 415.814 230.028 394.329C229.955 393.496 230.139 392.661 230.555 391.935C230.97 391.21 231.598 390.628 232.353 390.269C233.108 389.91 233.955 389.791 234.78 389.927C235.605 390.063 236.369 390.447 236.969 391.03C252.616 406.861 262.252 430.043 259.04 452.003C258.903 452.794 258.538 453.528 257.988 454.114C257.439 454.699 256.729 455.11 255.948 455.296C255.167 455.482 254.348 455.435 253.593 455.16C252.839 454.885 252.182 454.394 251.704 453.749Z" fill="white"/>
</g>
<defs>
<clipPath id="clip0_119_22419">
<rect width="583" height="563" fill="white"/>
</clipPath>
</defs>
</svg>
