<svg width="110" height="54" viewBox="0 0 110 54" fill="none" xmlns="http://www.w3.org/2000/svg">
<path d="M31.1222 8.45455V23H28.7784L21.9247 13.0923H21.804V23H19.169V8.45455H21.527L28.3736 18.3693H28.5014V8.45455H31.1222ZM35.8612 23H33.0487L38.1694 8.45455H41.4222L46.5501 23H43.7376L39.8526 11.4375H39.739L35.8612 23ZM35.9535 17.2969H43.6239V19.4134H35.9535V17.2969ZM48.4659 23V8.45455H51.1009V14.6122H57.8409V8.45455H60.483V23H57.8409V16.821H51.1009V23H48.4659ZM75.799 13.3622H73.1428C73.067 12.9266 72.9273 12.5407 72.7237 12.2045C72.5201 11.8636 72.2668 11.5748 71.9638 11.3381C71.6607 11.1013 71.3151 10.9238 70.9268 10.8054C70.5433 10.6823 70.129 10.6207 69.6839 10.6207C68.8932 10.6207 68.1925 10.8196 67.5817 11.2173C66.9709 11.6103 66.4927 12.188 66.147 12.9503C65.8014 13.7079 65.6286 14.6335 65.6286 15.7273C65.6286 16.84 65.8014 17.7775 66.147 18.5398C66.4974 19.2973 66.9756 19.8703 67.5817 20.2585C68.1925 20.642 68.8909 20.8338 69.6768 20.8338C70.1125 20.8338 70.5196 20.777 70.8984 20.6634C71.282 20.545 71.6252 20.3722 71.9283 20.1449C72.236 19.9176 72.4941 19.6383 72.7024 19.3068C72.9155 18.9754 73.0623 18.5966 73.1428 18.1705L75.799 18.1847C75.6996 18.8759 75.4841 19.5246 75.1527 20.1307C74.826 20.7367 74.3975 21.2718 73.8672 21.7358C73.3369 22.1951 72.7166 22.5549 72.0064 22.8153C71.2962 23.071 70.5078 23.1989 69.6413 23.1989C68.3629 23.1989 67.2218 22.9029 66.218 22.3111C65.2143 21.7192 64.4235 20.8646 63.8459 19.7472C63.2682 18.6297 62.9794 17.2898 62.9794 15.7273C62.9794 14.16 63.2706 12.8201 63.853 11.7074C64.4354 10.59 65.2285 9.73532 66.2322 9.14347C67.236 8.55161 68.3724 8.25568 69.6413 8.25568C70.451 8.25568 71.2038 8.36932 71.8999 8.59659C72.5959 8.82386 73.2161 9.15767 73.7607 9.59801C74.3052 10.0336 74.7526 10.5687 75.103 11.2031C75.4581 11.8329 75.6901 12.5526 75.799 13.3622ZM91.2092 15.7273C91.2092 17.2945 90.9156 18.6368 90.3285 19.7543C89.7461 20.867 88.9506 21.7192 87.9421 22.3111C86.9383 22.9029 85.7996 23.1989 84.5259 23.1989C83.2522 23.1989 82.1112 22.9029 81.1026 22.3111C80.0988 21.7145 79.3034 20.8598 78.7163 19.7472C78.1339 18.6297 77.8427 17.2898 77.8427 15.7273C77.8427 14.16 78.1339 12.8201 78.7163 11.7074C79.3034 10.59 80.0988 9.73532 81.1026 9.14347C82.1112 8.55161 83.2522 8.25568 84.5259 8.25568C85.7996 8.25568 86.9383 8.55161 87.9421 9.14347C88.9506 9.73532 89.7461 10.59 90.3285 11.7074C90.9156 12.8201 91.2092 14.16 91.2092 15.7273ZM88.56 15.7273C88.56 14.6241 88.3872 13.6937 88.0415 12.9361C87.7006 12.1738 87.2272 11.5985 86.6211 11.2102C86.015 10.8172 85.3166 10.6207 84.5259 10.6207C83.7352 10.6207 83.0368 10.8172 82.4308 11.2102C81.8247 11.5985 81.3488 12.1738 81.0032 12.9361C80.6623 13.6937 80.4918 14.6241 80.4918 15.7273C80.4918 16.8305 80.6623 17.7633 81.0032 18.5256C81.3488 19.2831 81.8247 19.8584 82.4308 20.2514C83.0368 20.6397 83.7352 20.8338 84.5259 20.8338C85.3166 20.8338 86.015 20.6397 86.6211 20.2514C87.2272 19.8584 87.7006 19.2831 88.0415 18.5256C88.3872 17.7633 88.56 16.8305 88.56 15.7273Z" fill="#E1CFB4"/>
<path d="M26.061 48V37.8182H27.5972V46.6776H32.2108V48H26.061ZM37.0606 48.1541C36.3447 48.1541 35.72 47.9901 35.1863 47.6619C34.6527 47.3338 34.2384 46.8748 33.9434 46.2848C33.6485 45.6948 33.501 45.0054 33.501 44.2166C33.501 43.4245 33.6485 42.7318 33.9434 42.1385C34.2384 41.5452 34.6527 41.0845 35.1863 40.7564C35.72 40.4283 36.3447 40.2642 37.0606 40.2642C37.7765 40.2642 38.4013 40.4283 38.9349 40.7564C39.4685 41.0845 39.8828 41.5452 40.1778 42.1385C40.4728 42.7318 40.6203 43.4245 40.6203 44.2166C40.6203 45.0054 40.4728 45.6948 40.1778 46.2848C39.8828 46.8748 39.4685 47.3338 38.9349 47.6619C38.4013 47.9901 37.7765 48.1541 37.0606 48.1541ZM37.0656 46.9062C37.5296 46.9062 37.9141 46.7836 38.219 46.5384C38.5239 46.2931 38.7493 45.9666 38.8952 45.5589C39.0443 45.1513 39.1189 44.7022 39.1189 44.2116C39.1189 43.7244 39.0443 43.277 38.8952 42.8693C38.7493 42.4583 38.5239 42.1286 38.219 41.88C37.9141 41.6314 37.5296 41.5071 37.0656 41.5071C36.5983 41.5071 36.2105 41.6314 35.9023 41.88C35.5973 42.1286 35.3703 42.4583 35.2211 42.8693C35.0753 43.277 35.0024 43.7244 35.0024 44.2116C35.0024 44.7022 35.0753 45.1513 35.2211 45.5589C35.3703 45.9666 35.5973 46.2931 35.9023 46.5384C36.2105 46.7836 36.5983 46.9062 37.0656 46.9062ZM45.4813 51.0227C44.8747 51.0227 44.3527 50.9432 43.9152 50.7841C43.481 50.625 43.1264 50.4145 42.8513 50.1527C42.5762 49.8909 42.3707 49.6042 42.2348 49.2926L43.5125 48.7656C43.602 48.9115 43.7213 49.0656 43.8705 49.228C44.0229 49.3937 44.2284 49.5346 44.4869 49.6506C44.7488 49.7666 45.0852 49.8246 45.4962 49.8246C46.0596 49.8246 46.5253 49.687 46.8932 49.4119C47.2611 49.1402 47.445 48.706 47.445 48.1094V46.608H47.3506C47.2611 46.7704 47.1318 46.951 46.9628 47.1499C46.7971 47.3487 46.5684 47.5211 46.2767 47.6669C45.9851 47.8127 45.6056 47.8857 45.1382 47.8857C44.535 47.8857 43.9914 47.7448 43.5075 47.4631C43.027 47.178 42.6458 46.7588 42.3641 46.2053C42.0857 45.6484 41.9465 44.964 41.9465 44.152C41.9465 43.34 42.084 42.6439 42.3591 42.0639C42.6375 41.4839 43.0187 41.0398 43.5026 40.7315C43.9865 40.42 44.535 40.2642 45.1482 40.2642C45.6221 40.2642 46.0049 40.3438 46.2966 40.5028C46.5883 40.6586 46.8153 40.8409 46.9777 41.0497C47.1434 41.2585 47.271 41.4425 47.3605 41.6016H47.4699V40.3636H48.9266V48.169C48.9266 48.8253 48.7741 49.3639 48.4692 49.7848C48.1643 50.2057 47.7516 50.5173 47.2313 50.7195C46.7142 50.9216 46.1309 51.0227 45.4813 51.0227ZM45.4664 46.6527C45.8939 46.6527 46.2552 46.5533 46.5502 46.3544C46.8485 46.1522 47.0738 45.8639 47.2263 45.4893C47.3821 45.1115 47.46 44.6591 47.46 44.1321C47.46 43.6184 47.3837 43.166 47.2313 42.7749C47.0788 42.3838 46.8551 42.0788 46.5601 41.8601C46.2651 41.638 45.9005 41.527 45.4664 41.527C45.0189 41.527 44.646 41.643 44.3477 41.875C44.0494 42.1037 43.8241 42.4152 43.6716 42.8097C43.5225 43.2041 43.4479 43.6449 43.4479 44.1321C43.4479 44.6326 43.5241 45.0717 43.6766 45.4496C43.829 45.8274 44.0544 46.1224 44.3527 46.3345C44.6543 46.5466 45.0255 46.6527 45.4664 46.6527ZM50.9202 48V40.3636H52.4067V48H50.9202ZM51.6709 39.1854C51.4124 39.1854 51.1903 39.0992 51.0047 38.9268C50.8224 38.7512 50.7313 38.5424 50.7313 38.3004C50.7313 38.0552 50.8224 37.8464 51.0047 37.674C51.1903 37.4983 51.4124 37.4105 51.6709 37.4105C51.9294 37.4105 52.1498 37.4983 52.3321 37.674C52.5177 37.8464 52.6105 38.0552 52.6105 38.3004C52.6105 38.5424 52.5177 38.7512 52.3321 38.9268C52.1498 39.0992 51.9294 39.1854 51.6709 39.1854ZM60.1288 42.228L58.7815 42.4666C58.7252 42.2943 58.6357 42.1302 58.5131 41.9744C58.3937 41.8187 58.2313 41.6911 58.0258 41.5916C57.8203 41.4922 57.5635 41.4425 57.2552 41.4425C56.8343 41.4425 56.483 41.5369 56.2013 41.7259C55.9195 41.9115 55.7787 42.1518 55.7787 42.4467C55.7787 42.7019 55.8731 42.9074 56.0621 43.0632C56.251 43.219 56.5559 43.3466 56.9768 43.446L58.1899 43.7244C58.8925 43.8868 59.4162 44.1371 59.7609 44.4751C60.1056 44.8132 60.278 45.2524 60.278 45.7926C60.278 46.25 60.1454 46.6577 59.8802 47.0156C59.6184 47.3703 59.2522 47.6487 58.7815 47.8509C58.3142 48.053 57.7723 48.1541 57.1558 48.1541C56.3007 48.1541 55.603 47.9718 55.0628 47.6072C54.5225 47.2393 54.1911 46.7173 54.0684 46.0412L55.5052 45.8224C55.5947 46.197 55.7787 46.4804 56.0571 46.6726C56.3355 46.8615 56.6984 46.956 57.1459 46.956C57.6331 46.956 58.0225 46.8549 58.3142 46.6527C58.6059 46.4472 58.7517 46.197 58.7517 45.902C58.7517 45.6634 58.6622 45.4628 58.4832 45.3004C58.3076 45.138 58.0374 45.0154 57.6729 44.9325L56.3802 44.6491C55.6676 44.4867 55.1407 44.2282 54.7993 43.8736C54.4612 43.5189 54.2922 43.0698 54.2922 42.5263C54.2922 42.0755 54.4181 41.6811 54.67 41.343C54.9219 41.005 55.2699 40.7415 55.714 40.5526C56.1582 40.3603 56.6669 40.2642 57.2403 40.2642C58.0656 40.2642 58.7152 40.4432 59.1892 40.8011C59.6631 41.1558 59.9764 41.6314 60.1288 42.228ZM65.477 40.3636V41.5568H61.3058V40.3636H65.477ZM62.4244 38.5341H63.911V45.7578C63.911 46.0462 63.954 46.2633 64.0402 46.4091C64.1264 46.5516 64.2374 46.6494 64.3733 46.7024C64.5125 46.7521 64.6633 46.777 64.8257 46.777C64.945 46.777 65.0494 46.7687 65.1389 46.7521C65.2284 46.7356 65.298 46.7223 65.3477 46.7124L65.6162 47.9403C65.53 47.9735 65.4074 48.0066 65.2483 48.0398C65.0892 48.0762 64.8904 48.0961 64.6517 48.0994C64.2606 48.1061 63.896 48.0365 63.558 47.8906C63.2199 47.7448 62.9465 47.5194 62.7377 47.2145C62.5289 46.9096 62.4244 46.5268 62.4244 46.0661V38.5341ZM67.1214 48V40.3636H68.6079V48H67.1214ZM67.8721 39.1854C67.6135 39.1854 67.3915 39.0992 67.2059 38.9268C67.0236 38.7512 66.9324 38.5424 66.9324 38.3004C66.9324 38.0552 67.0236 37.8464 67.2059 37.674C67.3915 37.4983 67.6135 37.4105 67.8721 37.4105C68.1306 37.4105 68.351 37.4983 68.5333 37.674C68.7189 37.8464 68.8117 38.0552 68.8117 38.3004C68.8117 38.5424 68.7189 38.7512 68.5333 38.9268C68.351 39.0992 68.1306 39.1854 67.8721 39.1854ZM73.8243 48.1541C73.0852 48.1541 72.4488 47.9867 71.9152 47.652C71.3849 47.3139 70.9772 46.8482 70.6922 46.255C70.4072 45.6617 70.2646 44.9822 70.2646 44.2166C70.2646 43.4411 70.4105 42.7566 70.7021 42.1634C70.9938 41.5668 71.4048 41.1011 71.9351 40.7663C72.4654 40.4316 73.0902 40.2642 73.8094 40.2642C74.3894 40.2642 74.9065 40.3719 75.3605 40.5874C75.8146 40.7995 76.1808 41.0978 76.4593 41.4822C76.741 41.8667 76.9084 42.3158 76.9614 42.8295H75.5146C75.4351 42.4716 75.2528 42.1634 74.9678 41.9048C74.686 41.6463 74.3082 41.517 73.8343 41.517C73.42 41.517 73.057 41.6264 72.7455 41.8452C72.4372 42.0606 72.1969 42.3688 72.0246 42.7699C71.8522 43.1676 71.7661 43.6383 71.7661 44.1818C71.7661 44.7386 71.8506 45.2192 72.0196 45.6236C72.1887 46.0279 72.4273 46.3411 72.7355 46.5632C73.0471 46.7853 73.4133 46.8963 73.8343 46.8963C74.116 46.8963 74.3712 46.8449 74.5999 46.7422C74.8319 46.6361 75.0258 46.4853 75.1816 46.2898C75.3406 46.0942 75.4517 45.8589 75.5146 45.5838H76.9614C76.9084 46.0777 76.7476 46.5185 76.4791 46.9062C76.2107 47.294 75.8511 47.599 75.4003 47.821C74.9529 48.0431 74.4275 48.1541 73.8243 48.1541ZM84.2733 42.228L82.926 42.4666C82.8697 42.2943 82.7802 42.1302 82.6576 41.9744C82.5383 41.8187 82.3759 41.6911 82.1704 41.5916C81.9649 41.4922 81.708 41.4425 81.3998 41.4425C80.9788 41.4425 80.6275 41.5369 80.3458 41.7259C80.0641 41.9115 79.9232 42.1518 79.9232 42.4467C79.9232 42.7019 80.0177 42.9074 80.2066 43.0632C80.3955 43.219 80.7004 43.3466 81.1214 43.446L82.3344 43.7244C83.0371 43.8868 83.5608 44.1371 83.9055 44.4751C84.2501 44.8132 84.4225 45.2524 84.4225 45.7926C84.4225 46.25 84.2899 46.6577 84.0248 47.0156C83.7629 47.3703 83.3967 47.6487 82.926 47.8509C82.4587 48.053 81.9168 48.1541 81.3003 48.1541C80.4452 48.1541 79.7475 47.9718 79.2073 47.6072C78.6671 47.2393 78.3356 46.7173 78.213 46.0412L79.6498 45.8224C79.7393 46.197 79.9232 46.4804 80.2016 46.6726C80.48 46.8615 80.843 46.956 81.2904 46.956C81.7776 46.956 82.1671 46.8549 82.4587 46.6527C82.7504 46.4472 82.8962 46.197 82.8962 45.902C82.8962 45.6634 82.8067 45.4628 82.6278 45.3004C82.4521 45.138 82.182 45.0154 81.8174 44.9325L80.5248 44.6491C79.8122 44.4867 79.2852 44.2282 78.9438 43.8736C78.6057 43.5189 78.4367 43.0698 78.4367 42.5263C78.4367 42.0755 78.5626 41.6811 78.8145 41.343C79.0664 41.005 79.4144 40.7415 79.8586 40.5526C80.3027 40.3603 80.8115 40.2642 81.3849 40.2642C82.2101 40.2642 82.8598 40.4432 83.3337 40.8011C83.8077 41.1558 84.1209 41.6314 84.2733 42.228Z" fill="#B19D7F"/>
</svg>
