<svg width="474" height="229" viewBox="0 0 474 229" fill="none" xmlns="http://www.w3.org/2000/svg">
<path d="M213.122 8.45455V23H210.778L203.925 13.0923H203.804V23H201.169V8.45455H203.527L210.374 18.3693H210.501V8.45455H213.122ZM217.861 23H215.049L220.169 8.45455H223.422L228.55 23H225.738L221.853 11.4375H221.739L217.861 23ZM217.953 17.2969H225.624V19.4134H217.953V17.2969ZM230.466 23V8.45455H233.101V14.6122H239.841V8.45455H242.483V23H239.841V16.821H233.101V23H230.466ZM257.799 13.3622H255.143C255.067 12.9266 254.927 12.5407 254.724 12.2045C254.52 11.8636 254.267 11.5748 253.964 11.3381C253.661 11.1013 253.315 10.9238 252.927 10.8054C252.543 10.6823 252.129 10.6207 251.684 10.6207C250.893 10.6207 250.192 10.8196 249.582 11.2173C248.971 11.6103 248.493 12.188 248.147 12.9503C247.801 13.7079 247.629 14.6335 247.629 15.7273C247.629 16.84 247.801 17.7775 248.147 18.5398C248.497 19.2973 248.976 19.8703 249.582 20.2585C250.192 20.642 250.891 20.8338 251.677 20.8338C252.112 20.8338 252.52 20.777 252.898 20.6634C253.282 20.545 253.625 20.3722 253.928 20.1449C254.236 19.9176 254.494 19.6383 254.702 19.3068C254.915 18.9754 255.062 18.5966 255.143 18.1705L257.799 18.1847C257.7 18.8759 257.484 19.5246 257.153 20.1307C256.826 20.7367 256.397 21.2718 255.867 21.7358C255.337 22.1951 254.717 22.5549 254.006 22.8153C253.296 23.071 252.508 23.1989 251.641 23.1989C250.363 23.1989 249.222 22.9029 248.218 22.3111C247.214 21.7192 246.424 20.8646 245.846 19.7472C245.268 18.6297 244.979 17.2898 244.979 15.7273C244.979 14.16 245.271 12.8201 245.853 11.7074C246.435 10.59 247.228 9.73532 248.232 9.14347C249.236 8.55161 250.372 8.25568 251.641 8.25568C252.451 8.25568 253.204 8.36932 253.9 8.59659C254.596 8.82386 255.216 9.15767 255.761 9.59801C256.305 10.0336 256.753 10.5687 257.103 11.2031C257.458 11.8329 257.69 12.5526 257.799 13.3622ZM273.209 15.7273C273.209 17.2945 272.916 18.6368 272.328 19.7543C271.746 20.867 270.951 21.7192 269.942 22.3111C268.938 22.9029 267.8 23.1989 266.526 23.1989C265.252 23.1989 264.111 22.9029 263.103 22.3111C262.099 21.7145 261.303 20.8598 260.716 19.7472C260.134 18.6297 259.843 17.2898 259.843 15.7273C259.843 14.16 260.134 12.8201 260.716 11.7074C261.303 10.59 262.099 9.73532 263.103 9.14347C264.111 8.55161 265.252 8.25568 266.526 8.25568C267.8 8.25568 268.938 8.55161 269.942 9.14347C270.951 9.73532 271.746 10.59 272.328 11.7074C272.916 12.8201 273.209 14.16 273.209 15.7273ZM270.56 15.7273C270.56 14.6241 270.387 13.6937 270.042 12.9361C269.701 12.1738 269.227 11.5985 268.621 11.2102C268.015 10.8172 267.317 10.6207 266.526 10.6207C265.735 10.6207 265.037 10.8172 264.431 11.2102C263.825 11.5985 263.349 12.1738 263.003 12.9361C262.662 13.6937 262.492 14.6241 262.492 15.7273C262.492 16.8305 262.662 17.7633 263.003 18.5256C263.349 19.2831 263.825 19.8584 264.431 20.2514C265.037 20.6397 265.735 20.8338 266.526 20.8338C267.317 20.8338 268.015 20.6397 268.621 20.2514C269.227 19.8584 269.701 19.2831 270.042 18.5256C270.387 17.7633 270.56 16.8305 270.56 15.7273Z" fill="#E1CFB4"/>
<path d="M224.741 48V37.8182H228.37C229.162 37.8182 229.818 37.9624 230.339 38.2507C230.859 38.5391 231.248 38.9335 231.507 39.4339C231.766 39.9311 231.895 40.4912 231.895 41.1143C231.895 41.7408 231.764 42.3042 231.502 42.8047C231.244 43.3018 230.852 43.6963 230.329 43.9879C229.808 44.2763 229.154 44.4205 228.365 44.4205H225.869V43.1179H228.226C228.726 43.1179 229.132 43.0317 229.444 42.8594C229.755 42.6837 229.984 42.4451 230.13 42.1435C230.276 41.8419 230.349 41.4988 230.349 41.1143C230.349 40.7299 230.276 40.3885 230.13 40.0902C229.984 39.7919 229.754 39.5582 229.439 39.3892C229.127 39.2202 228.716 39.1357 228.206 39.1357H226.277V48H224.741ZM233.696 48V37.8182H235.232V46.6776H239.846V48H233.696ZM249.658 41.1293H248.107C248.047 40.7978 247.936 40.5062 247.774 40.2543C247.612 40.0024 247.413 39.7886 247.177 39.6129C246.942 39.4373 246.679 39.3047 246.387 39.2152C246.099 39.1257 245.792 39.081 245.467 39.081C244.881 39.081 244.355 39.2285 243.891 39.5234C243.431 39.8184 243.066 40.2509 242.797 40.821C242.532 41.3911 242.4 42.0871 242.4 42.9091C242.4 43.7377 242.532 44.437 242.797 45.0071C243.066 45.5772 243.432 46.008 243.896 46.2997C244.36 46.5914 244.882 46.7372 245.462 46.7372C245.784 46.7372 246.089 46.6941 246.377 46.608C246.669 46.5185 246.932 46.3875 247.168 46.2152C247.403 46.0429 247.602 45.8324 247.764 45.5838C247.93 45.3319 248.044 45.0436 248.107 44.7188L249.658 44.7237C249.575 45.2242 249.415 45.6849 249.176 46.1058C248.941 46.5234 248.637 46.8847 248.266 47.1896C247.898 47.4912 247.477 47.7249 247.003 47.8906C246.53 48.0563 246.012 48.1392 245.452 48.1392C244.571 48.1392 243.785 47.9304 243.096 47.5128C242.406 47.0919 241.863 46.4903 241.465 45.7081C241.071 44.9259 240.873 43.9929 240.873 42.9091C240.873 41.822 241.072 40.889 241.47 40.1101C241.868 39.3279 242.411 38.728 243.101 38.3104C243.79 37.8894 244.574 37.679 245.452 37.679C245.993 37.679 246.496 37.7569 246.964 37.9126C247.434 38.0651 247.857 38.2905 248.231 38.5888C248.606 38.8838 248.916 39.245 249.161 39.6726C249.406 40.0968 249.572 40.5824 249.658 41.1293Z" fill="#B19D7F"/>
<g clip-path="url(#clip0_119_10722)">
<path d="M237.033 63.2812V94.8617C237.033 105.907 228.079 114.862 217.033 114.862H74.6167C63.571 114.862 54.6167 123.816 54.6167 134.862V166.442" stroke="#FFD700"/>
<path d="M236.719 62.7114V94.2919C236.719 105.338 245.673 114.292 256.719 114.292H398.719C409.764 114.292 418.719 123.246 418.719 134.292V165.872" stroke="#FFD700"/>
<path d="M237 62V167" stroke="#FFD700" stroke-width="2"/>
</g>
<path d="M31.1222 183.455V198H28.7784L21.9247 188.092H21.804V198H19.169V183.455H21.527L28.3736 193.369H28.5014V183.455H31.1222ZM35.8612 198H33.0487L38.1694 183.455H41.4222L46.5501 198H43.7376L39.8526 186.438H39.739L35.8612 198ZM35.9535 192.297H43.6239V194.413H35.9535V192.297ZM48.4659 198V183.455H51.1009V189.612H57.8409V183.455H60.483V198H57.8409V191.821H51.1009V198H48.4659ZM75.799 188.362H73.1428C73.067 187.927 72.9273 187.541 72.7237 187.205C72.5201 186.864 72.2668 186.575 71.9638 186.338C71.6607 186.101 71.3151 185.924 70.9268 185.805C70.5433 185.682 70.129 185.621 69.6839 185.621C68.8932 185.621 68.1925 185.82 67.5817 186.217C66.9709 186.61 66.4927 187.188 66.147 187.95C65.8014 188.708 65.6286 189.634 65.6286 190.727C65.6286 191.84 65.8014 192.777 66.147 193.54C66.4974 194.297 66.9756 194.87 67.5817 195.259C68.1925 195.642 68.8909 195.834 69.6768 195.834C70.1125 195.834 70.5196 195.777 70.8984 195.663C71.282 195.545 71.6252 195.372 71.9283 195.145C72.236 194.918 72.4941 194.638 72.7024 194.307C72.9155 193.975 73.0623 193.597 73.1428 193.17L75.799 193.185C75.6996 193.876 75.4841 194.525 75.1527 195.131C74.826 195.737 74.3975 196.272 73.8672 196.736C73.3369 197.195 72.7166 197.555 72.0064 197.815C71.2962 198.071 70.5078 198.199 69.6413 198.199C68.3629 198.199 67.2218 197.903 66.218 197.311C65.2143 196.719 64.4235 195.865 63.8459 194.747C63.2682 193.63 62.9794 192.29 62.9794 190.727C62.9794 189.16 63.2706 187.82 63.853 186.707C64.4354 185.59 65.2285 184.735 66.2322 184.143C67.236 183.552 68.3724 183.256 69.6413 183.256C70.451 183.256 71.2038 183.369 71.8999 183.597C72.5959 183.824 73.2161 184.158 73.7607 184.598C74.3052 185.034 74.7526 185.569 75.103 186.203C75.4581 186.833 75.6901 187.553 75.799 188.362ZM91.2092 190.727C91.2092 192.295 90.9156 193.637 90.3285 194.754C89.7461 195.867 88.9506 196.719 87.9421 197.311C86.9383 197.903 85.7996 198.199 84.5259 198.199C83.2522 198.199 82.1112 197.903 81.1026 197.311C80.0988 196.714 79.3034 195.86 78.7163 194.747C78.1339 193.63 77.8427 192.29 77.8427 190.727C77.8427 189.16 78.1339 187.82 78.7163 186.707C79.3034 185.59 80.0988 184.735 81.1026 184.143C82.1112 183.552 83.2522 183.256 84.5259 183.256C85.7996 183.256 86.9383 183.552 87.9421 184.143C88.9506 184.735 89.7461 185.59 90.3285 186.707C90.9156 187.82 91.2092 189.16 91.2092 190.727ZM88.56 190.727C88.56 189.624 88.3872 188.694 88.0415 187.936C87.7006 187.174 87.2272 186.598 86.6211 186.21C86.015 185.817 85.3166 185.621 84.5259 185.621C83.7352 185.621 83.0368 185.817 82.4308 186.21C81.8247 186.598 81.3488 187.174 81.0032 187.936C80.6623 188.694 80.4918 189.624 80.4918 190.727C80.4918 191.83 80.6623 192.763 81.0032 193.526C81.3488 194.283 81.8247 194.858 82.4308 195.251C83.0368 195.64 83.7352 195.834 84.5259 195.834C85.3166 195.834 86.015 195.64 86.6211 195.251C87.2272 194.858 87.7006 194.283 88.0415 193.526C88.3872 192.763 88.56 191.83 88.56 190.727Z" fill="#E1CFB4"/>
<path d="M1.32173 223V212.818H7.63565V214.141H2.85795V217.243H7.18324V218.56H2.85795V223H1.32173ZM9.30984 223V215.364H10.7466V216.577H10.8262C10.9654 216.166 11.2106 215.843 11.562 215.607C11.9166 215.369 12.3176 215.249 12.7651 215.249C12.8579 215.249 12.9673 215.253 13.0932 215.259C13.2225 215.266 13.3236 215.274 13.3965 215.284V216.706C13.3368 216.689 13.2308 216.671 13.0783 216.651C12.9258 216.628 12.7734 216.616 12.6209 216.616C12.2696 216.616 11.9564 216.691 11.6813 216.84C11.4095 216.986 11.1941 217.19 11.035 217.452C10.8759 217.71 10.7963 218.005 10.7963 218.337V223H9.30984ZM17.7006 223.154C16.9483 223.154 16.3003 222.993 15.7567 222.672C15.2165 222.347 14.7989 221.891 14.5039 221.305C14.2122 220.715 14.0664 220.024 14.0664 219.232C14.0664 218.449 14.2122 217.76 14.5039 217.163C14.7989 216.567 15.2099 216.101 15.7369 215.766C16.2672 215.432 16.887 215.264 17.5962 215.264C18.0271 215.264 18.4447 215.335 18.8491 215.478C19.2534 215.621 19.6164 215.844 19.9379 216.149C20.2594 216.454 20.5129 216.85 20.6985 217.337C20.8841 217.821 20.9769 218.41 20.9769 219.102V219.629H14.9066V218.516H19.5202C19.5202 218.125 19.4407 217.778 19.2816 217.477C19.1225 217.172 18.8988 216.931 18.6104 216.756C18.3254 216.58 17.9906 216.492 17.6062 216.492C17.1886 216.492 16.824 216.595 16.5124 216.8C16.2042 217.003 15.9656 217.268 15.7965 217.596C15.6308 217.921 15.5479 218.274 15.5479 218.655V219.525C15.5479 220.035 15.6374 220.469 15.8164 220.827C15.9987 221.185 16.2522 221.459 16.5771 221.648C16.9019 221.833 17.2814 221.926 17.7156 221.926C17.9973 221.926 18.2541 221.886 18.4862 221.807C18.7182 221.724 18.9187 221.601 19.0877 221.439C19.2567 221.277 19.386 221.076 19.4755 220.837L20.8825 221.091C20.7698 221.505 20.5676 221.868 20.2759 222.18C19.9876 222.488 19.6246 222.728 19.1871 222.901C18.753 223.07 18.2575 223.154 17.7006 223.154ZM25.9174 223.154C25.1651 223.154 24.5171 222.993 23.9735 222.672C23.4333 222.347 23.0157 221.891 22.7207 221.305C22.429 220.715 22.2832 220.024 22.2832 219.232C22.2832 218.449 22.429 217.76 22.7207 217.163C23.0157 216.567 23.4267 216.101 23.9537 215.766C24.484 215.432 25.1038 215.264 25.813 215.264C26.2439 215.264 26.6615 215.335 27.0659 215.478C27.4702 215.621 27.8332 215.844 28.1547 216.149C28.4761 216.454 28.7297 216.85 28.9153 217.337C29.1009 217.821 29.1937 218.41 29.1937 219.102V219.629H23.1234V218.516H27.737C27.737 218.125 27.6575 217.778 27.4984 217.477C27.3393 217.172 27.1156 216.931 26.8272 216.756C26.5422 216.58 26.2074 216.492 25.823 216.492C25.4054 216.492 25.0408 216.595 24.7292 216.8C24.421 217.003 24.1824 217.268 24.0133 217.596C23.8476 217.921 23.7647 218.274 23.7647 218.655V219.525C23.7647 220.035 23.8542 220.469 24.0332 220.827C24.2155 221.185 24.469 221.459 24.7939 221.648C25.1187 221.833 25.4982 221.926 25.9324 221.926C26.2141 221.926 26.4709 221.886 26.7029 221.807C26.935 221.724 27.1355 221.601 27.3045 221.439C27.4735 221.277 27.6028 221.076 27.6923 220.837L29.0993 221.091C28.9866 221.505 28.7844 221.868 28.4927 222.18C28.2044 222.488 27.8414 222.728 27.4039 222.901C26.9698 223.07 26.4743 223.154 25.9174 223.154ZM34.1653 214.141V212.818H42.0453V214.141H38.8684V223H37.3372V214.141H34.1653ZM42.8743 223V215.364H44.3111V216.577H44.3906C44.5298 216.166 44.7751 215.843 45.1264 215.607C45.4811 215.369 45.8821 215.249 46.3295 215.249C46.4223 215.249 46.5317 215.253 46.6577 215.259C46.7869 215.266 46.888 215.274 46.9609 215.284V216.706C46.9013 216.689 46.7952 216.671 46.6428 216.651C46.4903 216.628 46.3378 216.616 46.1854 216.616C45.834 216.616 45.5208 216.691 45.2457 216.84C44.974 216.986 44.7585 217.19 44.5994 217.452C44.4403 217.71 44.3608 218.005 44.3608 218.337V223H42.8743ZM50.4013 223.169C49.9174 223.169 49.4799 223.08 49.0888 222.901C48.6977 222.718 48.3878 222.455 48.1591 222.11C47.9337 221.765 47.821 221.343 47.821 220.842C47.821 220.411 47.9039 220.057 48.0696 219.778C48.2353 219.5 48.459 219.28 48.7408 219.117C49.0225 218.955 49.3374 218.832 49.6854 218.749C50.0334 218.666 50.388 218.603 50.7493 218.56C51.2067 218.507 51.5779 218.464 51.8629 218.431C52.148 218.395 52.3551 218.337 52.4844 218.257C52.6136 218.178 52.6783 218.048 52.6783 217.869V217.835C52.6783 217.4 52.5556 217.064 52.3104 216.825C52.0684 216.587 51.7071 216.467 51.2266 216.467C50.7261 216.467 50.3317 216.578 50.0433 216.8C49.7583 217.019 49.5611 217.263 49.4517 217.531L48.0547 217.213C48.2204 216.749 48.4624 216.375 48.7805 216.089C49.102 215.801 49.4716 215.592 49.8892 215.463C50.3068 215.33 50.746 215.264 51.2067 215.264C51.5116 215.264 51.8348 215.301 52.1761 215.374C52.5208 215.443 52.8423 215.572 53.1406 215.761C53.4422 215.95 53.6892 216.22 53.8814 216.572C54.0736 216.92 54.1697 217.372 54.1697 217.929V223H52.718V221.956H52.6584C52.5623 222.148 52.4181 222.337 52.2259 222.523C52.0336 222.708 51.7867 222.862 51.4851 222.985C51.1835 223.108 50.8222 223.169 50.4013 223.169ZM50.7244 221.976C51.1354 221.976 51.4867 221.895 51.7784 221.732C52.0734 221.57 52.2971 221.358 52.4496 221.096C52.6054 220.831 52.6832 220.547 52.6832 220.246V219.261C52.6302 219.314 52.5275 219.364 52.375 219.411C52.2259 219.454 52.0552 219.492 51.8629 219.525C51.6707 219.555 51.4834 219.583 51.3011 219.609C51.1188 219.633 50.9664 219.652 50.8438 219.669C50.5554 219.705 50.2919 219.767 50.0533 219.853C49.8179 219.939 49.629 220.063 49.4865 220.226C49.3473 220.385 49.2777 220.597 49.2777 220.862C49.2777 221.23 49.4136 221.509 49.6854 221.697C49.9571 221.883 50.3035 221.976 50.7244 221.976ZM59.0083 223.149C58.3919 223.149 57.8417 222.992 57.3578 222.677C56.8772 222.359 56.4993 221.906 56.2243 221.32C55.9525 220.73 55.8166 220.022 55.8166 219.197C55.8166 218.371 55.9541 217.665 56.2292 217.079C56.5076 216.492 56.8888 216.043 57.3727 215.732C57.8566 215.42 58.4051 215.264 59.0183 215.264C59.4922 215.264 59.8734 215.344 60.1618 215.503C60.4534 215.659 60.6788 215.841 60.8379 216.05C61.0003 216.259 61.1262 216.442 61.2157 216.602H61.3052V212.818H62.7917V223H61.34V221.812H61.2157C61.1262 221.974 60.997 222.16 60.8279 222.369C60.6622 222.577 60.4335 222.76 60.1419 222.915C59.8502 223.071 59.4724 223.149 59.0083 223.149ZM59.3365 221.881C59.764 221.881 60.1253 221.769 60.4203 221.543C60.7186 221.315 60.944 220.998 61.0964 220.594C61.2522 220.189 61.3301 219.719 61.3301 219.182C61.3301 218.652 61.2538 218.187 61.1014 217.79C60.9489 217.392 60.7252 217.082 60.4302 216.86C60.1352 216.638 59.7707 216.527 59.3365 216.527C58.889 216.527 58.5162 216.643 58.2179 216.875C57.9196 217.107 57.6942 217.424 57.5417 217.825C57.3926 218.226 57.318 218.678 57.318 219.182C57.318 219.692 57.3942 220.151 57.5467 220.559C57.6992 220.967 57.9245 221.29 58.2228 221.528C58.5244 221.764 58.8957 221.881 59.3365 221.881ZM68.2045 223.154C67.4522 223.154 66.8042 222.993 66.2607 222.672C65.7204 222.347 65.3028 221.891 65.0078 221.305C64.7161 220.715 64.5703 220.024 64.5703 219.232C64.5703 218.449 64.7161 217.76 65.0078 217.163C65.3028 216.567 65.7138 216.101 66.2408 215.766C66.7711 215.432 67.3909 215.264 68.1001 215.264C68.531 215.264 68.9486 215.335 69.353 215.478C69.7573 215.621 70.1203 215.844 70.4418 216.149C70.7633 216.454 71.0168 216.85 71.2024 217.337C71.388 217.821 71.4808 218.41 71.4808 219.102V219.629H65.4105V218.516H70.0241C70.0241 218.125 69.9446 217.778 69.7855 217.477C69.6264 217.172 69.4027 216.931 69.1143 216.756C68.8293 216.58 68.4946 216.492 68.1101 216.492C67.6925 216.492 67.3279 216.595 67.0163 216.8C66.7081 217.003 66.4695 217.268 66.3004 217.596C66.1347 217.921 66.0518 218.274 66.0518 218.655V219.525C66.0518 220.035 66.1413 220.469 66.3203 220.827C66.5026 221.185 66.7562 221.459 67.081 221.648C67.4058 221.833 67.7853 221.926 68.2195 221.926C68.5012 221.926 68.758 221.886 68.9901 221.807C69.2221 221.724 69.4226 221.601 69.5916 221.439C69.7607 221.277 69.8899 221.076 69.9794 220.837L71.3864 221.091C71.2737 221.505 71.0715 221.868 70.7798 222.18C70.4915 222.488 70.1286 222.728 69.6911 222.901C69.2569 223.07 68.7614 223.154 68.2045 223.154ZM76.6911 223V221.976L82.0455 214.141H76.6463V212.818H83.9247V213.842L78.5703 221.678H83.9695V223H76.6911ZM88.9933 223.154C88.2773 223.154 87.6526 222.99 87.119 222.662C86.5853 222.334 86.171 221.875 85.8761 221.285C85.5811 220.695 85.4336 220.005 85.4336 219.217C85.4336 218.424 85.5811 217.732 85.8761 217.138C86.171 216.545 86.5853 216.085 87.119 215.756C87.6526 215.428 88.2773 215.264 88.9933 215.264C89.7092 215.264 90.3339 215.428 90.8675 215.756C91.4012 216.085 91.8155 216.545 92.1104 217.138C92.4054 217.732 92.5529 218.424 92.5529 219.217C92.5529 220.005 92.4054 220.695 92.1104 221.285C91.8155 221.875 91.4012 222.334 90.8675 222.662C90.3339 222.99 89.7092 223.154 88.9933 223.154ZM88.9982 221.906C89.4622 221.906 89.8467 221.784 90.1516 221.538C90.4566 221.293 90.6819 220.967 90.8278 220.559C90.9769 220.151 91.0515 219.702 91.0515 219.212C91.0515 218.724 90.9769 218.277 90.8278 217.869C90.6819 217.458 90.4566 217.129 90.1516 216.88C89.8467 216.631 89.4622 216.507 88.9982 216.507C88.5309 216.507 88.1431 216.631 87.8349 216.88C87.5299 217.129 87.3029 217.458 87.1538 217.869C87.0079 218.277 86.935 218.724 86.935 219.212C86.935 219.702 87.0079 220.151 87.1538 220.559C87.3029 220.967 87.5299 221.293 87.8349 221.538C88.1431 221.784 88.5309 221.906 88.9982 221.906ZM95.6987 218.466V223H94.2122V215.364H95.639V216.607H95.7335C95.9092 216.202 96.1842 215.877 96.5588 215.632C96.9366 215.387 97.4122 215.264 97.9856 215.264C98.506 215.264 98.9617 215.374 99.3528 215.592C99.7439 215.808 100.047 216.129 100.263 216.557C100.478 216.984 100.586 217.513 100.586 218.143V223H99.0993V218.322C99.0993 217.768 98.9551 217.336 98.6667 217.024C98.3784 216.709 97.9823 216.552 97.4785 216.552C97.1338 216.552 96.8272 216.626 96.5588 216.776C96.2936 216.925 96.0832 217.143 95.9274 217.432C95.7749 217.717 95.6987 218.062 95.6987 218.466ZM105.871 223.154C105.118 223.154 104.47 222.993 103.927 222.672C103.386 222.347 102.969 221.891 102.674 221.305C102.382 220.715 102.236 220.024 102.236 219.232C102.236 218.449 102.382 217.76 102.674 217.163C102.969 216.567 103.38 216.101 103.907 215.766C104.437 215.432 105.057 215.264 105.766 215.264C106.197 215.264 106.615 215.335 107.019 215.478C107.423 215.621 107.786 215.844 108.108 216.149C108.429 216.454 108.683 216.85 108.868 217.337C109.054 217.821 109.147 218.41 109.147 219.102V219.629H103.077V218.516H107.69C107.69 218.125 107.611 217.778 107.452 217.477C107.292 217.172 107.069 216.931 106.78 216.756C106.495 216.58 106.161 216.492 105.776 216.492C105.358 216.492 104.994 216.595 104.682 216.8C104.374 217.003 104.135 217.268 103.966 217.596C103.801 217.921 103.718 218.274 103.718 218.655V219.525C103.718 220.035 103.807 220.469 103.986 220.827C104.169 221.185 104.422 221.459 104.747 221.648C105.072 221.833 105.451 221.926 105.885 221.926C106.167 221.926 106.424 221.886 106.656 221.807C106.888 221.724 107.089 221.601 107.258 221.439C107.427 221.277 107.556 221.076 107.645 220.837L109.052 221.091C108.94 221.505 108.738 221.868 108.446 222.18C108.157 222.488 107.795 222.728 107.357 222.901C106.923 223.07 106.427 223.154 105.871 223.154Z" fill="#B19D7F"/>
<path d="M213.122 183.455V198H210.778L203.925 188.092H203.804V198H201.169V183.455H203.527L210.374 193.369H210.501V183.455H213.122ZM217.861 198H215.049L220.169 183.455H223.422L228.55 198H225.738L221.853 186.438H221.739L217.861 198ZM217.953 192.297H225.624V194.413H217.953V192.297ZM230.466 198V183.455H233.101V189.612H239.841V183.455H242.483V198H239.841V191.821H233.101V198H230.466ZM257.799 188.362H255.143C255.067 187.927 254.927 187.541 254.724 187.205C254.52 186.864 254.267 186.575 253.964 186.338C253.661 186.101 253.315 185.924 252.927 185.805C252.543 185.682 252.129 185.621 251.684 185.621C250.893 185.621 250.192 185.82 249.582 186.217C248.971 186.61 248.493 187.188 248.147 187.95C247.801 188.708 247.629 189.634 247.629 190.727C247.629 191.84 247.801 192.777 248.147 193.54C248.497 194.297 248.976 194.87 249.582 195.259C250.192 195.642 250.891 195.834 251.677 195.834C252.112 195.834 252.52 195.777 252.898 195.663C253.282 195.545 253.625 195.372 253.928 195.145C254.236 194.918 254.494 194.638 254.702 194.307C254.915 193.975 255.062 193.597 255.143 193.17L257.799 193.185C257.7 193.876 257.484 194.525 257.153 195.131C256.826 195.737 256.397 196.272 255.867 196.736C255.337 197.195 254.717 197.555 254.006 197.815C253.296 198.071 252.508 198.199 251.641 198.199C250.363 198.199 249.222 197.903 248.218 197.311C247.214 196.719 246.424 195.865 245.846 194.747C245.268 193.63 244.979 192.29 244.979 190.727C244.979 189.16 245.271 187.82 245.853 186.707C246.435 185.59 247.228 184.735 248.232 184.143C249.236 183.552 250.372 183.256 251.641 183.256C252.451 183.256 253.204 183.369 253.9 183.597C254.596 183.824 255.216 184.158 255.761 184.598C256.305 185.034 256.753 185.569 257.103 186.203C257.458 186.833 257.69 187.553 257.799 188.362ZM273.209 190.727C273.209 192.295 272.916 193.637 272.328 194.754C271.746 195.867 270.951 196.719 269.942 197.311C268.938 197.903 267.8 198.199 266.526 198.199C265.252 198.199 264.111 197.903 263.103 197.311C262.099 196.714 261.303 195.86 260.716 194.747C260.134 193.63 259.843 192.29 259.843 190.727C259.843 189.16 260.134 187.82 260.716 186.707C261.303 185.59 262.099 184.735 263.103 184.143C264.111 183.552 265.252 183.256 266.526 183.256C267.8 183.256 268.938 183.552 269.942 184.143C270.951 184.735 271.746 185.59 272.328 186.707C272.916 187.82 273.209 189.16 273.209 190.727ZM270.56 190.727C270.56 189.624 270.387 188.694 270.042 187.936C269.701 187.174 269.227 186.598 268.621 186.21C268.015 185.817 267.317 185.621 266.526 185.621C265.735 185.621 265.037 185.817 264.431 186.21C263.825 186.598 263.349 187.174 263.003 187.936C262.662 188.694 262.492 189.624 262.492 190.727C262.492 191.83 262.662 192.763 263.003 193.526C263.349 194.283 263.825 194.858 264.431 195.251C265.037 195.64 265.735 195.834 266.526 195.834C267.317 195.834 268.015 195.64 268.621 195.251C269.227 194.858 269.701 194.283 270.042 193.526C270.387 192.763 270.56 191.83 270.56 190.727Z" fill="#E1CFB4"/>
<path d="M208.061 223V212.818H209.597V221.678H214.211V223H208.061ZM219.061 223.154C218.345 223.154 217.72 222.99 217.186 222.662C216.653 222.334 216.238 221.875 215.943 221.285C215.648 220.695 215.501 220.005 215.501 219.217C215.501 218.424 215.648 217.732 215.943 217.138C216.238 216.545 216.653 216.085 217.186 215.756C217.72 215.428 218.345 215.264 219.061 215.264C219.777 215.264 220.401 215.428 220.935 215.756C221.469 216.085 221.883 216.545 222.178 217.138C222.473 217.732 222.62 218.424 222.62 219.217C222.62 220.005 222.473 220.695 222.178 221.285C221.883 221.875 221.469 222.334 220.935 222.662C220.401 222.99 219.777 223.154 219.061 223.154ZM219.066 221.906C219.53 221.906 219.914 221.784 220.219 221.538C220.524 221.293 220.749 220.967 220.895 220.559C221.044 220.151 221.119 219.702 221.119 219.212C221.119 218.724 221.044 218.277 220.895 217.869C220.749 217.458 220.524 217.129 220.219 216.88C219.914 216.631 219.53 216.507 219.066 216.507C218.598 216.507 218.21 216.631 217.902 216.88C217.597 217.129 217.37 217.458 217.221 217.869C217.075 218.277 217.002 218.724 217.002 219.212C217.002 219.702 217.075 220.151 217.221 220.559C217.37 220.967 217.597 221.293 217.902 221.538C218.21 221.784 218.598 221.906 219.066 221.906ZM227.481 226.023C226.875 226.023 226.353 225.943 225.915 225.784C225.481 225.625 225.126 225.415 224.851 225.153C224.576 224.891 224.371 224.604 224.235 224.293L225.513 223.766C225.602 223.911 225.721 224.066 225.87 224.228C226.023 224.394 226.228 224.535 226.487 224.651C226.749 224.767 227.085 224.825 227.496 224.825C228.06 224.825 228.525 224.687 228.893 224.412C229.261 224.14 229.445 223.706 229.445 223.109V221.608H229.351C229.261 221.77 229.132 221.951 228.963 222.15C228.797 222.349 228.568 222.521 228.277 222.667C227.985 222.813 227.606 222.886 227.138 222.886C226.535 222.886 225.991 222.745 225.508 222.463C225.027 222.178 224.646 221.759 224.364 221.205C224.086 220.648 223.946 219.964 223.946 219.152C223.946 218.34 224.084 217.644 224.359 217.064C224.638 216.484 225.019 216.04 225.503 215.732C225.986 215.42 226.535 215.264 227.148 215.264C227.622 215.264 228.005 215.344 228.297 215.503C228.588 215.659 228.815 215.841 228.978 216.05C229.143 216.259 229.271 216.442 229.361 216.602H229.47V215.364H230.927V223.169C230.927 223.825 230.774 224.364 230.469 224.785C230.164 225.206 229.752 225.517 229.231 225.719C228.714 225.922 228.131 226.023 227.481 226.023ZM227.466 221.653C227.894 221.653 228.255 221.553 228.55 221.354C228.848 221.152 229.074 220.864 229.226 220.489C229.382 220.112 229.46 219.659 229.46 219.132C229.46 218.618 229.384 218.166 229.231 217.775C229.079 217.384 228.855 217.079 228.56 216.86C228.265 216.638 227.901 216.527 227.466 216.527C227.019 216.527 226.646 216.643 226.348 216.875C226.049 217.104 225.824 217.415 225.672 217.81C225.522 218.204 225.448 218.645 225.448 219.132C225.448 219.633 225.524 220.072 225.677 220.45C225.829 220.827 226.054 221.122 226.353 221.335C226.654 221.547 227.026 221.653 227.466 221.653ZM232.92 223V215.364H234.407V223H232.92ZM233.671 214.185C233.412 214.185 233.19 214.099 233.005 213.927C232.822 213.751 232.731 213.542 232.731 213.3C232.731 213.055 232.822 212.846 233.005 212.674C233.19 212.498 233.412 212.411 233.671 212.411C233.929 212.411 234.15 212.498 234.332 212.674C234.518 212.846 234.611 213.055 234.611 213.3C234.611 213.542 234.518 213.751 234.332 213.927C234.15 214.099 233.929 214.185 233.671 214.185ZM242.129 217.228L240.782 217.467C240.725 217.294 240.636 217.13 240.513 216.974C240.394 216.819 240.231 216.691 240.026 216.592C239.82 216.492 239.563 216.442 239.255 216.442C238.834 216.442 238.483 216.537 238.201 216.726C237.92 216.911 237.779 217.152 237.779 217.447C237.779 217.702 237.873 217.907 238.062 218.063C238.251 218.219 238.556 218.347 238.977 218.446L240.19 218.724C240.893 218.887 241.416 219.137 241.761 219.475C242.106 219.813 242.278 220.252 242.278 220.793C242.278 221.25 242.145 221.658 241.88 222.016C241.618 222.37 241.252 222.649 240.782 222.851C240.314 223.053 239.772 223.154 239.156 223.154C238.301 223.154 237.603 222.972 237.063 222.607C236.523 222.239 236.191 221.717 236.068 221.041L237.505 220.822C237.595 221.197 237.779 221.48 238.057 221.673C238.335 221.862 238.698 221.956 239.146 221.956C239.633 221.956 240.023 221.855 240.314 221.653C240.606 221.447 240.752 221.197 240.752 220.902C240.752 220.663 240.662 220.463 240.483 220.3C240.308 220.138 240.037 220.015 239.673 219.933L238.38 219.649C237.668 219.487 237.141 219.228 236.799 218.874C236.461 218.519 236.292 218.07 236.292 217.526C236.292 217.076 236.418 216.681 236.67 216.343C236.922 216.005 237.27 215.741 237.714 215.553C238.158 215.36 238.667 215.264 239.24 215.264C240.066 215.264 240.715 215.443 241.189 215.801C241.663 216.156 241.976 216.631 242.129 217.228ZM247.477 215.364V216.557H243.306V215.364H247.477ZM244.424 213.534H245.911V220.758C245.911 221.046 245.954 221.263 246.04 221.409C246.126 221.552 246.237 221.649 246.373 221.702C246.513 221.752 246.663 221.777 246.826 221.777C246.945 221.777 247.049 221.769 247.139 221.752C247.228 221.736 247.298 221.722 247.348 221.712L247.616 222.94C247.53 222.973 247.407 223.007 247.248 223.04C247.089 223.076 246.89 223.096 246.652 223.099C246.261 223.106 245.896 223.036 245.558 222.891C245.22 222.745 244.946 222.519 244.738 222.214C244.529 221.91 244.424 221.527 244.424 221.066V213.534ZM249.121 223V215.364H250.608V223H249.121ZM249.872 214.185C249.614 214.185 249.391 214.099 249.206 213.927C249.024 213.751 248.932 213.542 248.932 213.3C248.932 213.055 249.024 212.846 249.206 212.674C249.391 212.498 249.614 212.411 249.872 212.411C250.131 212.411 250.351 212.498 250.533 212.674C250.719 212.846 250.812 213.055 250.812 213.3C250.812 213.542 250.719 213.751 250.533 213.927C250.351 214.099 250.131 214.185 249.872 214.185ZM255.824 223.154C255.085 223.154 254.449 222.987 253.915 222.652C253.385 222.314 252.977 221.848 252.692 221.255C252.407 220.662 252.265 219.982 252.265 219.217C252.265 218.441 252.41 217.757 252.702 217.163C252.994 216.567 253.405 216.101 253.935 215.766C254.465 215.432 255.09 215.264 255.809 215.264C256.389 215.264 256.906 215.372 257.361 215.587C257.815 215.799 258.181 216.098 258.459 216.482C258.741 216.867 258.908 217.316 258.961 217.83H257.515C257.435 217.472 257.253 217.163 256.968 216.905C256.686 216.646 256.308 216.517 255.834 216.517C255.42 216.517 255.057 216.626 254.745 216.845C254.437 217.061 254.197 217.369 254.025 217.77C253.852 218.168 253.766 218.638 253.766 219.182C253.766 219.739 253.851 220.219 254.02 220.624C254.189 221.028 254.427 221.341 254.736 221.563C255.047 221.785 255.413 221.896 255.834 221.896C256.116 221.896 256.371 221.845 256.6 221.742C256.832 221.636 257.026 221.485 257.182 221.29C257.341 221.094 257.452 220.859 257.515 220.584H258.961C258.908 221.078 258.748 221.518 258.479 221.906C258.211 222.294 257.851 222.599 257.4 222.821C256.953 223.043 256.428 223.154 255.824 223.154ZM266.273 217.228L264.926 217.467C264.87 217.294 264.78 217.13 264.658 216.974C264.538 216.819 264.376 216.691 264.17 216.592C263.965 216.492 263.708 216.442 263.4 216.442C262.979 216.442 262.628 216.537 262.346 216.726C262.064 216.911 261.923 217.152 261.923 217.447C261.923 217.702 262.018 217.907 262.207 218.063C262.396 218.219 262.7 218.347 263.121 218.446L264.334 218.724C265.037 218.887 265.561 219.137 265.905 219.475C266.25 219.813 266.422 220.252 266.422 220.793C266.422 221.25 266.29 221.658 266.025 222.016C265.763 222.37 265.397 222.649 264.926 222.851C264.459 223.053 263.917 223.154 263.3 223.154C262.445 223.154 261.748 222.972 261.207 222.607C260.667 222.239 260.336 221.717 260.213 221.041L261.65 220.822C261.739 221.197 261.923 221.48 262.202 221.673C262.48 221.862 262.843 221.956 263.29 221.956C263.778 221.956 264.167 221.855 264.459 221.653C264.75 221.447 264.896 221.197 264.896 220.902C264.896 220.663 264.807 220.463 264.628 220.3C264.452 220.138 264.182 220.015 263.817 219.933L262.525 219.649C261.812 219.487 261.285 219.228 260.944 218.874C260.606 218.519 260.437 218.07 260.437 217.526C260.437 217.076 260.563 216.681 260.815 216.343C261.066 216.005 261.414 215.741 261.859 215.553C262.303 215.36 262.811 215.264 263.385 215.264C264.21 215.264 264.86 215.443 265.334 215.801C265.808 216.156 266.121 216.631 266.273 217.228Z" fill="#B19D7F"/>
<path d="M395.122 183.455V198H392.778L385.925 188.092H385.804V198H383.169V183.455H385.527L392.374 193.369H392.501V183.455H395.122ZM399.861 198H397.049L402.169 183.455H405.422L410.55 198H407.738L403.853 186.438H403.739L399.861 198ZM399.953 192.297H407.624V194.413H399.953V192.297ZM412.466 198V183.455H415.101V189.612H421.841V183.455H424.483V198H421.841V191.821H415.101V198H412.466ZM439.799 188.362H437.143C437.067 187.927 436.927 187.541 436.724 187.205C436.52 186.864 436.267 186.575 435.964 186.338C435.661 186.101 435.315 185.924 434.927 185.805C434.543 185.682 434.129 185.621 433.684 185.621C432.893 185.621 432.192 185.82 431.582 186.217C430.971 186.61 430.493 187.188 430.147 187.95C429.801 188.708 429.629 189.634 429.629 190.727C429.629 191.84 429.801 192.777 430.147 193.54C430.497 194.297 430.976 194.87 431.582 195.259C432.192 195.642 432.891 195.834 433.677 195.834C434.112 195.834 434.52 195.777 434.898 195.663C435.282 195.545 435.625 195.372 435.928 195.145C436.236 194.918 436.494 194.638 436.702 194.307C436.915 193.975 437.062 193.597 437.143 193.17L439.799 193.185C439.7 193.876 439.484 194.525 439.153 195.131C438.826 195.737 438.397 196.272 437.867 196.736C437.337 197.195 436.717 197.555 436.006 197.815C435.296 198.071 434.508 198.199 433.641 198.199C432.363 198.199 431.222 197.903 430.218 197.311C429.214 196.719 428.424 195.865 427.846 194.747C427.268 193.63 426.979 192.29 426.979 190.727C426.979 189.16 427.271 187.82 427.853 186.707C428.435 185.59 429.228 184.735 430.232 184.143C431.236 183.552 432.372 183.256 433.641 183.256C434.451 183.256 435.204 183.369 435.9 183.597C436.596 183.824 437.216 184.158 437.761 184.598C438.305 185.034 438.753 185.569 439.103 186.203C439.458 186.833 439.69 187.553 439.799 188.362ZM455.209 190.727C455.209 192.295 454.916 193.637 454.328 194.754C453.746 195.867 452.951 196.719 451.942 197.311C450.938 197.903 449.8 198.199 448.526 198.199C447.252 198.199 446.111 197.903 445.103 197.311C444.099 196.714 443.303 195.86 442.716 194.747C442.134 193.63 441.843 192.29 441.843 190.727C441.843 189.16 442.134 187.82 442.716 186.707C443.303 185.59 444.099 184.735 445.103 184.143C446.111 183.552 447.252 183.256 448.526 183.256C449.8 183.256 450.938 183.552 451.942 184.143C452.951 184.735 453.746 185.59 454.328 186.707C454.916 187.82 455.209 189.16 455.209 190.727ZM452.56 190.727C452.56 189.624 452.387 188.694 452.042 187.936C451.701 187.174 451.227 186.598 450.621 186.21C450.015 185.817 449.317 185.621 448.526 185.621C447.735 185.621 447.037 185.817 446.431 186.21C445.825 186.598 445.349 187.174 445.003 187.936C444.662 188.694 444.492 189.624 444.492 190.727C444.492 191.83 444.662 192.763 445.003 193.526C445.349 194.283 445.825 194.858 446.431 195.251C447.037 195.64 447.735 195.834 448.526 195.834C449.317 195.834 450.015 195.64 450.621 195.251C451.227 194.858 451.701 194.283 452.042 193.526C452.387 192.763 452.56 191.83 452.56 190.727Z" fill="#E1CFB4"/>
<path d="M384.285 216.129H382.734C382.674 215.798 382.563 215.506 382.401 215.254C382.239 215.002 382.04 214.789 381.804 214.613C381.569 214.437 381.306 214.305 381.014 214.215C380.726 214.126 380.419 214.081 380.094 214.081C379.508 214.081 378.982 214.228 378.518 214.523C378.057 214.818 377.693 215.251 377.424 215.821C377.159 216.391 377.027 217.087 377.027 217.909C377.027 218.738 377.159 219.437 377.424 220.007C377.693 220.577 378.059 221.008 378.523 221.3C378.987 221.591 379.509 221.737 380.089 221.737C380.411 221.737 380.716 221.694 381.004 221.608C381.296 221.518 381.559 221.388 381.794 221.215C382.03 221.043 382.229 220.832 382.391 220.584C382.557 220.332 382.671 220.044 382.734 219.719L384.285 219.724C384.202 220.224 384.042 220.685 383.803 221.106C383.568 221.523 383.264 221.885 382.893 222.19C382.525 222.491 382.104 222.725 381.63 222.891C381.156 223.056 380.639 223.139 380.079 223.139C379.198 223.139 378.412 222.93 377.723 222.513C377.033 222.092 376.49 221.49 376.092 220.708C375.698 219.926 375.5 218.993 375.5 217.909C375.5 216.822 375.699 215.889 376.097 215.11C376.495 214.328 377.038 213.728 377.728 213.31C378.417 212.889 379.201 212.679 380.079 212.679C380.62 212.679 381.123 212.757 381.591 212.913C382.061 213.065 382.484 213.29 382.858 213.589C383.233 213.884 383.543 214.245 383.788 214.673C384.033 215.097 384.199 215.582 384.285 216.129ZM389.221 223.154C388.505 223.154 387.88 222.99 387.347 222.662C386.813 222.334 386.399 221.875 386.104 221.285C385.809 220.695 385.661 220.005 385.661 219.217C385.661 218.424 385.809 217.732 386.104 217.138C386.399 216.545 386.813 216.085 387.347 215.756C387.88 215.428 388.505 215.264 389.221 215.264C389.937 215.264 390.561 215.428 391.095 215.756C391.629 216.085 392.043 216.545 392.338 217.138C392.633 217.732 392.78 218.424 392.78 219.217C392.78 220.005 392.633 220.695 392.338 221.285C392.043 221.875 391.629 222.334 391.095 222.662C390.561 222.99 389.937 223.154 389.221 223.154ZM389.226 221.906C389.69 221.906 390.074 221.784 390.379 221.538C390.684 221.293 390.909 220.967 391.055 220.559C391.204 220.151 391.279 219.702 391.279 219.212C391.279 218.724 391.204 218.277 391.055 217.869C390.909 217.458 390.684 217.129 390.379 216.88C390.074 216.631 389.69 216.507 389.226 216.507C388.758 216.507 388.371 216.631 388.062 216.88C387.757 217.129 387.53 217.458 387.381 217.869C387.235 218.277 387.163 218.724 387.163 219.212C387.163 219.702 387.235 220.151 387.381 220.559C387.53 220.967 387.757 221.293 388.062 221.538C388.371 221.784 388.758 221.906 389.226 221.906ZM394.44 223V215.364H395.867V216.607H395.961C396.12 216.186 396.38 215.857 396.742 215.622C397.103 215.384 397.535 215.264 398.039 215.264C398.55 215.264 398.977 215.384 399.322 215.622C399.67 215.861 399.927 216.189 400.092 216.607H400.172C400.354 216.199 400.644 215.874 401.042 215.632C401.44 215.387 401.914 215.264 402.464 215.264C403.157 215.264 403.722 215.481 404.159 215.915C404.6 216.35 404.82 217.004 404.82 217.879V223H403.334V218.018C403.334 217.501 403.193 217.127 402.911 216.895C402.63 216.663 402.293 216.547 401.902 216.547C401.418 216.547 401.042 216.696 400.774 216.994C400.505 217.289 400.371 217.669 400.371 218.133V223H398.889V217.924C398.889 217.51 398.76 217.177 398.502 216.925C398.243 216.673 397.907 216.547 397.492 216.547C397.211 216.547 396.95 216.621 396.712 216.771C396.476 216.916 396.286 217.12 396.14 217.382C395.997 217.644 395.926 217.947 395.926 218.292V223H394.44ZM406.813 223V215.364H408.24V216.607H408.334C408.493 216.186 408.753 215.857 409.115 215.622C409.476 215.384 409.908 215.264 410.412 215.264C410.923 215.264 411.35 215.384 411.695 215.622C412.043 215.861 412.3 216.189 412.465 216.607H412.545C412.727 216.199 413.017 215.874 413.415 215.632C413.813 215.387 414.287 215.264 414.837 215.264C415.53 215.264 416.095 215.481 416.532 215.915C416.973 216.35 417.193 217.004 417.193 217.879V223H415.707V218.018C415.707 217.501 415.566 217.127 415.284 216.895C415.003 216.663 414.666 216.547 414.275 216.547C413.791 216.547 413.415 216.696 413.147 216.994C412.878 217.289 412.744 217.669 412.744 218.133V223H411.262V217.924C411.262 217.51 411.133 217.177 410.875 216.925C410.616 216.673 410.28 216.547 409.865 216.547C409.584 216.547 409.323 216.621 409.085 216.771C408.849 216.916 408.659 217.12 408.513 217.382C408.371 217.644 408.299 217.947 408.299 218.292V223H406.813ZM422.402 223.154C421.687 223.154 421.062 222.99 420.528 222.662C419.995 222.334 419.58 221.875 419.285 221.285C418.99 220.695 418.843 220.005 418.843 219.217C418.843 218.424 418.99 217.732 419.285 217.138C419.58 216.545 419.995 216.085 420.528 215.756C421.062 215.428 421.687 215.264 422.402 215.264C423.118 215.264 423.743 215.428 424.277 215.756C424.81 216.085 425.225 216.545 425.52 217.138C425.815 217.732 425.962 218.424 425.962 219.217C425.962 220.005 425.815 220.695 425.52 221.285C425.225 221.875 424.81 222.334 424.277 222.662C423.743 222.99 423.118 223.154 422.402 223.154ZM422.407 221.906C422.871 221.906 423.256 221.784 423.561 221.538C423.866 221.293 424.091 220.967 424.237 220.559C424.386 220.151 424.461 219.702 424.461 219.212C424.461 218.724 424.386 218.277 424.237 217.869C424.091 217.458 423.866 217.129 423.561 216.88C423.256 216.631 422.871 216.507 422.407 216.507C421.94 216.507 421.552 216.631 421.244 216.88C420.939 217.129 420.712 217.458 420.563 217.869C420.417 218.277 420.344 218.724 420.344 219.212C420.344 219.702 420.417 220.151 420.563 220.559C420.712 220.967 420.939 221.293 421.244 221.538C421.552 221.784 421.94 221.906 422.407 221.906ZM430.48 223.149C429.864 223.149 429.313 222.992 428.829 222.677C428.349 222.359 427.971 221.906 427.696 221.32C427.424 220.73 427.288 220.022 427.288 219.197C427.288 218.371 427.426 217.665 427.701 217.079C427.979 216.492 428.36 216.043 428.844 215.732C429.328 215.42 429.877 215.264 430.49 215.264C430.964 215.264 431.345 215.344 431.633 215.503C431.925 215.659 432.15 215.841 432.31 216.05C432.472 216.259 432.598 216.442 432.687 216.602H432.777V212.818H434.263V223H432.812V221.812H432.687C432.598 221.974 432.469 222.16 432.3 222.369C432.134 222.577 431.905 222.76 431.614 222.915C431.322 223.071 430.944 223.149 430.48 223.149ZM430.808 221.881C431.236 221.881 431.597 221.769 431.892 221.543C432.19 221.315 432.416 220.998 432.568 220.594C432.724 220.189 432.802 219.719 432.802 219.182C432.802 218.652 432.726 218.187 432.573 217.79C432.421 217.392 432.197 217.082 431.902 216.86C431.607 216.638 431.242 216.527 430.808 216.527C430.361 216.527 429.988 216.643 429.69 216.875C429.391 217.107 429.166 217.424 429.013 217.825C428.864 218.226 428.79 218.678 428.79 219.182C428.79 219.692 428.866 220.151 429.018 220.559C429.171 220.967 429.396 221.29 429.695 221.528C429.996 221.764 430.367 221.881 430.808 221.881ZM436.385 223V215.364H437.872V223H436.385ZM437.136 214.185C436.877 214.185 436.655 214.099 436.47 213.927C436.287 213.751 436.196 213.542 436.196 213.3C436.196 213.055 436.287 212.846 436.47 212.674C436.655 212.498 436.877 212.411 437.136 212.411C437.394 212.411 437.615 212.498 437.797 212.674C437.983 212.846 438.075 213.055 438.075 213.3C438.075 213.542 437.983 213.751 437.797 213.927C437.615 214.099 437.394 214.185 437.136 214.185ZM443.436 215.364V216.557H439.265V215.364H443.436ZM440.383 213.534H441.87V220.758C441.87 221.046 441.913 221.263 441.999 221.409C442.085 221.552 442.196 221.649 442.332 221.702C442.472 221.752 442.622 221.777 442.785 221.777C442.904 221.777 443.008 221.769 443.098 221.752C443.187 221.736 443.257 221.722 443.307 221.712L443.575 222.94C443.489 222.973 443.366 223.007 443.207 223.04C443.048 223.076 442.849 223.096 442.611 223.099C442.22 223.106 441.855 223.036 441.517 222.891C441.179 222.745 440.905 222.519 440.697 222.214C440.488 221.91 440.383 221.527 440.383 221.066V213.534ZM445.08 223V215.364H446.567V223H445.08ZM445.831 214.185C445.573 214.185 445.35 214.099 445.165 213.927C444.983 213.751 444.891 213.542 444.891 213.3C444.891 213.055 444.983 212.846 445.165 212.674C445.35 212.498 445.573 212.411 445.831 212.411C446.09 212.411 446.31 212.498 446.492 212.674C446.678 212.846 446.771 213.055 446.771 213.3C446.771 213.542 446.678 213.751 446.492 213.927C446.31 214.099 446.09 214.185 445.831 214.185ZM451.858 223.154C451.105 223.154 450.458 222.993 449.914 222.672C449.374 222.347 448.956 221.891 448.661 221.305C448.369 220.715 448.224 220.024 448.224 219.232C448.224 218.449 448.369 217.76 448.661 217.163C448.956 216.567 449.367 216.101 449.894 215.766C450.424 215.432 451.044 215.264 451.753 215.264C452.184 215.264 452.602 215.335 453.006 215.478C453.411 215.621 453.774 215.844 454.095 216.149C454.417 216.454 454.67 216.85 454.856 217.337C455.041 217.821 455.134 218.41 455.134 219.102V219.629H449.064V218.516H453.677C453.677 218.125 453.598 217.778 453.439 217.477C453.28 217.172 453.056 216.931 452.768 216.756C452.483 216.58 452.148 216.492 451.763 216.492C451.346 216.492 450.981 216.595 450.67 216.8C450.361 217.003 450.123 217.268 449.954 217.596C449.788 217.921 449.705 218.274 449.705 218.655V219.525C449.705 220.035 449.795 220.469 449.974 220.827C450.156 221.185 450.409 221.459 450.734 221.648C451.059 221.833 451.439 221.926 451.873 221.926C452.155 221.926 452.411 221.886 452.643 221.807C452.875 221.724 453.076 221.601 453.245 221.439C453.414 221.277 453.543 221.076 453.633 220.837L455.04 221.091C454.927 221.505 454.725 221.868 454.433 222.18C454.145 222.488 453.782 222.728 453.344 222.901C452.91 223.07 452.415 223.154 451.858 223.154ZM462.506 217.228L461.158 217.467C461.102 217.294 461.013 217.13 460.89 216.974C460.771 216.819 460.608 216.691 460.403 216.592C460.197 216.492 459.94 216.442 459.632 216.442C459.211 216.442 458.86 216.537 458.578 216.726C458.296 216.911 458.156 217.152 458.156 217.447C458.156 217.702 458.25 217.907 458.439 218.063C458.628 218.219 458.933 218.347 459.354 218.446L460.567 218.724C461.27 218.887 461.793 219.137 462.138 219.475C462.483 219.813 462.655 220.252 462.655 220.793C462.655 221.25 462.522 221.658 462.257 222.016C461.995 222.37 461.629 222.649 461.158 222.851C460.691 223.053 460.149 223.154 459.533 223.154C458.678 223.154 457.98 222.972 457.44 222.607C456.899 222.239 456.568 221.717 456.445 221.041L457.882 220.822C457.972 221.197 458.156 221.48 458.434 221.673C458.712 221.862 459.075 221.956 459.523 221.956C460.01 221.956 460.399 221.855 460.691 221.653C460.983 221.447 461.129 221.197 461.129 220.902C461.129 220.663 461.039 220.463 460.86 220.3C460.685 220.138 460.414 220.015 460.05 219.933L458.757 219.649C458.045 219.487 457.518 219.228 457.176 218.874C456.838 218.519 456.669 218.07 456.669 217.526C456.669 217.076 456.795 216.681 457.047 216.343C457.299 216.005 457.647 215.741 458.091 215.553C458.535 215.36 459.044 215.264 459.617 215.264C460.443 215.264 461.092 215.443 461.566 215.801C462.04 216.156 462.353 216.631 462.506 217.228Z" fill="#B19D7F"/>
<defs>
<clipPath id="clip0_119_10722">
<rect width="366" height="105" fill="white" transform="translate(54 62)"/>
</clipPath>
</defs>
</svg>
