<svg width="64" height="64" viewBox="0 0 64 64" fill="none" xmlns="http://www.w3.org/2000/svg">
<g clip-path="url(#clip0_119_22206)">
<path d="M32 52.5715V61.7143M43.4286 48V57.1429M20.5714 48V57.1429M57.1428 2.28577H6.85713C5.64472 2.28577 4.48196 2.7674 3.62465 3.62471C2.76734 4.48202 2.28571 5.64478 2.28571 6.85719V34.2858C2.28571 35.4982 2.76734 36.6609 3.62465 37.5183C4.48196 38.3756 5.64472 38.8572 6.85713 38.8572H57.1428C58.3553 38.8572 59.518 38.3756 60.3753 37.5183C61.2326 36.6609 61.7143 35.4982 61.7143 34.2858V6.85719C61.7143 5.64478 61.2326 4.48202 60.3753 3.62471C59.518 2.7674 58.3553 2.28577 57.1428 2.28577Z" stroke="#5AC777" stroke-width="3" stroke-linecap="round" stroke-linejoin="round"/>
<path d="M32 28.5715C33.0506 28.5715 34.0908 28.3646 35.0615 27.9626C36.0321 27.5605 36.914 26.9713 37.6568 26.2284C38.3997 25.4855 38.989 24.6036 39.391 23.633C39.7931 22.6624 40 21.6221 40 20.5715C40 19.521 39.7931 18.4807 39.391 17.5101C38.989 16.5395 38.3997 15.6575 37.6568 14.9147C36.914 14.1718 36.0321 13.5825 35.0615 13.1805C34.0908 12.7785 33.0506 12.5715 32 12.5715C29.8783 12.5715 27.8434 13.4144 26.3431 14.9147C24.8428 16.415 24 18.4498 24 20.5715C24 22.6933 24.8428 24.7281 26.3431 26.2284C27.8434 27.7287 29.8783 28.5715 32 28.5715ZM12.6857 21.7144C12.3826 21.7144 12.0919 21.594 11.8776 21.3797C11.6633 21.1653 11.5428 20.8746 11.5428 20.5715C11.5428 20.2684 11.6633 19.9777 11.8776 19.7634C12.0919 19.5491 12.3826 19.4287 12.6857 19.4287M12.6857 21.7144C12.9888 21.7144 13.2795 21.594 13.4938 21.3797C13.7082 21.1653 13.8286 20.8746 13.8286 20.5715C13.8286 20.2684 13.7082 19.9777 13.4938 19.7634C13.2795 19.5491 12.9888 19.4287 12.6857 19.4287M51.3143 21.7144C51.0112 21.7144 50.7205 21.594 50.5062 21.3797C50.2918 21.1653 50.1714 20.8746 50.1714 20.5715C50.1714 20.2684 50.2918 19.9777 50.5062 19.7634C50.7205 19.5491 51.0112 19.4287 51.3143 19.4287M51.3143 21.7144C51.6174 21.7144 51.9081 21.594 52.1224 21.3797C52.3367 21.1653 52.4571 20.8746 52.4571 20.5715C52.4571 20.2684 52.3367 19.9777 52.1224 19.7634C51.9081 19.5491 51.6174 19.4287 51.3143 19.4287" stroke="#5AC777" stroke-width="3" stroke-linecap="round" stroke-linejoin="round"/>
</g>
<defs>
<clipPath id="clip0_119_22206">
<rect width="64" height="64" fill="white"/>
</clipPath>
</defs>
</svg>
