<svg width="110" height="54" viewBox="0 0 110 54" fill="none" xmlns="http://www.w3.org/2000/svg">
<path d="M31.1222 8.45455V23H28.7784L21.9247 13.0923H21.804V23H19.169V8.45455H21.527L28.3736 18.3693H28.5014V8.45455H31.1222ZM35.8612 23H33.0487L38.1694 8.45455H41.4222L46.5501 23H43.7376L39.8526 11.4375H39.739L35.8612 23ZM35.9535 17.2969H43.6239V19.4134H35.9535V17.2969ZM48.4659 23V8.45455H51.1009V14.6122H57.8409V8.45455H60.483V23H57.8409V16.821H51.1009V23H48.4659ZM75.799 13.3622H73.1428C73.067 12.9266 72.9273 12.5407 72.7237 12.2045C72.5201 11.8636 72.2668 11.5748 71.9638 11.3381C71.6607 11.1013 71.3151 10.9238 70.9268 10.8054C70.5433 10.6823 70.129 10.6207 69.6839 10.6207C68.8932 10.6207 68.1925 10.8196 67.5817 11.2173C66.9709 11.6103 66.4927 12.188 66.147 12.9503C65.8014 13.7079 65.6286 14.6335 65.6286 15.7273C65.6286 16.84 65.8014 17.7775 66.147 18.5398C66.4974 19.2973 66.9756 19.8703 67.5817 20.2585C68.1925 20.642 68.8909 20.8338 69.6768 20.8338C70.1125 20.8338 70.5196 20.777 70.8984 20.6634C71.282 20.545 71.6252 20.3722 71.9283 20.1449C72.236 19.9176 72.4941 19.6383 72.7024 19.3068C72.9155 18.9754 73.0623 18.5966 73.1428 18.1705L75.799 18.1847C75.6996 18.8759 75.4841 19.5246 75.1527 20.1307C74.826 20.7367 74.3975 21.2718 73.8672 21.7358C73.3369 22.1951 72.7166 22.5549 72.0064 22.8153C71.2962 23.071 70.5078 23.1989 69.6413 23.1989C68.3629 23.1989 67.2218 22.9029 66.218 22.3111C65.2143 21.7192 64.4235 20.8646 63.8459 19.7472C63.2682 18.6297 62.9794 17.2898 62.9794 15.7273C62.9794 14.16 63.2706 12.8201 63.853 11.7074C64.4354 10.59 65.2285 9.73532 66.2322 9.14347C67.236 8.55161 68.3724 8.25568 69.6413 8.25568C70.451 8.25568 71.2038 8.36932 71.8999 8.59659C72.5959 8.82386 73.2161 9.15767 73.7607 9.59801C74.3052 10.0336 74.7526 10.5687 75.103 11.2031C75.4581 11.8329 75.6901 12.5526 75.799 13.3622ZM91.2092 15.7273C91.2092 17.2945 90.9156 18.6368 90.3285 19.7543C89.7461 20.867 88.9506 21.7192 87.9421 22.3111C86.9383 22.9029 85.7996 23.1989 84.5259 23.1989C83.2522 23.1989 82.1112 22.9029 81.1026 22.3111C80.0988 21.7145 79.3034 20.8598 78.7163 19.7472C78.1339 18.6297 77.8427 17.2898 77.8427 15.7273C77.8427 14.16 78.1339 12.8201 78.7163 11.7074C79.3034 10.59 80.0988 9.73532 81.1026 9.14347C82.1112 8.55161 83.2522 8.25568 84.5259 8.25568C85.7996 8.25568 86.9383 8.55161 87.9421 9.14347C88.9506 9.73532 89.7461 10.59 90.3285 11.7074C90.9156 12.8201 91.2092 14.16 91.2092 15.7273ZM88.56 15.7273C88.56 14.6241 88.3872 13.6937 88.0415 12.9361C87.7006 12.1738 87.2272 11.5985 86.6211 11.2102C86.015 10.8172 85.3166 10.6207 84.5259 10.6207C83.7352 10.6207 83.0368 10.8172 82.4308 11.2102C81.8247 11.5985 81.3488 12.1738 81.0032 12.9361C80.6623 13.6937 80.4918 14.6241 80.4918 15.7273C80.4918 16.8305 80.6623 17.7633 81.0032 18.5256C81.3488 19.2831 81.8247 19.8584 82.4308 20.2514C83.0368 20.6397 83.7352 20.8338 84.5259 20.8338C85.3166 20.8338 86.015 20.6397 86.6211 20.2514C87.2272 19.8584 87.7006 19.2831 88.0415 18.5256C88.3872 17.7633 88.56 16.8305 88.56 15.7273Z" fill="#E1CFB4"/>
<path d="M42.7407 48V37.8182H46.3699C47.1621 37.8182 47.8183 37.9624 48.3387 38.2507C48.859 38.5391 49.2485 38.9335 49.507 39.4339C49.7655 39.9311 49.8948 40.4912 49.8948 41.1143C49.8948 41.7408 49.7639 42.3042 49.502 42.8047C49.2435 43.3018 48.8524 43.6963 48.3287 43.9879C47.8084 44.2763 47.1538 44.4205 46.365 44.4205H43.8692V43.1179H46.2258C46.7262 43.1179 47.1323 43.0317 47.4438 42.8594C47.7554 42.6837 47.984 42.4451 48.1299 42.1435C48.2757 41.8419 48.3486 41.4988 48.3486 41.1143C48.3486 40.7299 48.2757 40.3885 48.1299 40.0902C47.984 39.7919 47.7537 39.5582 47.4388 39.3892C47.1273 39.2202 46.7163 39.1357 46.2059 39.1357H44.2769V48H42.7407ZM51.6958 48V37.8182H53.232V46.6776H57.8456V48H51.6958ZM67.6583 41.1293H66.1072C66.0475 40.7978 65.9365 40.5062 65.7741 40.2543C65.6117 40.0024 65.4128 39.7886 65.1775 39.6129C64.9421 39.4373 64.6787 39.3047 64.387 39.2152C64.0986 39.1257 63.7921 39.081 63.4672 39.081C62.8806 39.081 62.3553 39.2285 61.8912 39.5234C61.4305 39.8184 61.066 40.2509 60.7975 40.821C60.5323 41.3911 60.3998 42.0871 60.3998 42.9091C60.3998 43.7377 60.5323 44.437 60.7975 45.0071C61.066 45.5772 61.4322 46.008 61.8962 46.2997C62.3602 46.5914 62.8823 46.7372 63.4623 46.7372C63.7838 46.7372 64.0887 46.6941 64.377 46.608C64.6687 46.5185 64.9322 46.3875 65.1675 46.2152C65.4028 46.0429 65.6017 45.8324 65.7641 45.5838C65.9298 45.3319 66.0442 45.0436 66.1072 44.7188L67.6583 44.7237C67.5754 45.2242 67.4147 45.6849 67.176 46.1058C66.9407 46.5234 66.6375 46.8847 66.2662 47.1896C65.8983 47.4912 65.4774 47.7249 65.0035 47.8906C64.5295 48.0563 64.0125 48.1392 63.4523 48.1392C62.5707 48.1392 61.7852 47.9304 61.0958 47.5128C60.4064 47.0919 59.8628 46.4903 59.4651 45.7081C59.0707 44.9259 58.8735 43.9929 58.8735 42.9091C58.8735 41.822 59.0724 40.889 59.4701 40.1101C59.8678 39.3279 60.4114 38.728 61.1008 38.3104C61.7902 37.8894 62.574 37.679 63.4523 37.679C63.9926 37.679 64.4964 37.7569 64.9637 37.9126C65.4343 38.0651 65.8569 38.2905 66.2314 38.5888C66.606 38.8838 66.9159 39.245 67.1611 39.6726C67.4064 40.0968 67.5721 40.5824 67.6583 41.1293Z" fill="#B19D7F"/>
</svg>
