<svg width="583" height="563" viewBox="0 0 583 563" fill="none" xmlns="http://www.w3.org/2000/svg">
<g clip-path="url(#clip0_119_22380)">
<rect width="583" height="563" fill="#263C28"/>
<path d="M176.506 255H171.577V240.455H176.606C178.05 240.455 179.29 240.746 180.327 241.328C181.369 241.906 182.169 242.737 182.728 243.821C183.287 244.905 183.566 246.203 183.566 247.713C183.566 249.228 183.284 250.53 182.721 251.619C182.162 252.708 181.355 253.544 180.299 254.126C179.248 254.709 177.983 255 176.506 255ZM174.212 252.72H176.378C177.392 252.72 178.237 252.536 178.914 252.166C179.591 251.792 180.1 251.236 180.441 250.497C180.782 249.754 180.952 248.826 180.952 247.713C180.952 246.6 180.782 245.677 180.441 244.943C180.1 244.205 179.596 243.653 178.928 243.288C178.265 242.919 177.441 242.734 176.456 242.734H174.212V252.72ZM185.956 255V244.091H188.527V255H185.956ZM187.248 242.543C186.841 242.543 186.491 242.408 186.197 242.138C185.904 241.863 185.757 241.534 185.757 241.151C185.757 240.762 185.904 240.433 186.197 240.163C186.491 239.889 186.841 239.751 187.248 239.751C187.66 239.751 188.011 239.889 188.3 240.163C188.593 240.433 188.74 240.762 188.74 241.151C188.74 241.534 188.593 241.863 188.3 242.138C188.011 242.408 187.66 242.543 187.248 242.543ZM200.915 244.091L197.03 255H194.189L190.304 244.091H193.046L195.553 252.195H195.666L198.181 244.091H200.915ZM207.153 255.213C206.059 255.213 205.114 254.986 204.319 254.531C203.528 254.072 202.92 253.423 202.493 252.585C202.067 251.742 201.854 250.75 201.854 249.609C201.854 248.487 202.067 247.502 202.493 246.655C202.924 245.803 203.526 245.14 204.297 244.666C205.069 244.188 205.976 243.949 207.018 243.949C207.69 243.949 208.324 244.058 208.921 244.276C209.522 244.489 210.053 244.82 210.512 245.27C210.976 245.72 211.34 246.293 211.606 246.989C211.871 247.68 212.003 248.504 212.003 249.46V250.249H203.062V248.516H209.539C209.534 248.023 209.428 247.585 209.219 247.202C209.011 246.813 208.72 246.508 208.346 246.286C207.976 246.063 207.546 245.952 207.053 245.952C206.528 245.952 206.066 246.08 205.668 246.335C205.27 246.586 204.96 246.918 204.738 247.33C204.52 247.737 204.409 248.184 204.404 248.672V250.185C204.404 250.819 204.52 251.364 204.752 251.818C204.984 252.268 205.308 252.614 205.725 252.855C206.142 253.092 206.629 253.21 207.188 253.21C207.562 253.21 207.901 253.158 208.204 253.054C208.507 252.945 208.769 252.786 208.992 252.578C209.215 252.37 209.383 252.112 209.496 251.804L211.897 252.074C211.745 252.708 211.456 253.262 211.03 253.736C210.609 254.205 210.069 254.569 209.411 254.83C208.753 255.085 208 255.213 207.153 255.213ZM214.178 255V244.091H216.671V245.909H216.785C216.984 245.279 217.325 244.794 217.808 244.453C218.295 244.107 218.852 243.935 219.477 243.935C219.619 243.935 219.777 243.942 219.953 243.956C220.133 243.965 220.282 243.982 220.4 244.006V246.371C220.291 246.333 220.118 246.3 219.882 246.271C219.65 246.238 219.425 246.222 219.207 246.222C218.738 246.222 218.317 246.323 217.943 246.527C217.573 246.726 217.282 247.003 217.069 247.358C216.856 247.713 216.749 248.123 216.749 248.587V255H214.178ZM230.73 246.974L228.387 247.23C228.32 246.993 228.204 246.771 228.039 246.562C227.878 246.354 227.66 246.186 227.385 246.058C227.11 245.93 226.774 245.866 226.377 245.866C225.842 245.866 225.392 245.982 225.027 246.214C224.667 246.446 224.49 246.747 224.494 247.116C224.49 247.434 224.606 247.692 224.843 247.891C225.084 248.089 225.482 248.253 226.036 248.381L227.896 248.778C228.929 249.001 229.696 249.354 230.198 249.837C230.704 250.32 230.96 250.952 230.965 251.733C230.96 252.42 230.759 253.026 230.361 253.551C229.968 254.072 229.421 254.479 228.72 254.773C228.02 255.066 227.215 255.213 226.306 255.213C224.97 255.213 223.896 254.934 223.081 254.375C222.267 253.812 221.781 253.028 221.625 252.024L224.132 251.783C224.246 252.275 224.487 252.647 224.857 252.898C225.226 253.149 225.707 253.274 226.298 253.274C226.909 253.274 227.399 253.149 227.769 252.898C228.143 252.647 228.33 252.337 228.33 251.967C228.33 251.655 228.209 251.397 227.968 251.193C227.731 250.99 227.361 250.833 226.86 250.724L224.999 250.334C223.952 250.116 223.178 249.749 222.676 249.233C222.174 248.712 221.926 248.054 221.931 247.259C221.926 246.586 222.108 246.004 222.477 245.511C222.852 245.014 223.37 244.631 224.033 244.361C224.7 244.086 225.47 243.949 226.341 243.949C227.619 243.949 228.626 244.221 229.36 244.766C230.098 245.31 230.555 246.046 230.73 246.974ZM237.914 255.213C236.82 255.213 235.876 254.986 235.08 254.531C234.29 254.072 233.681 253.423 233.255 252.585C232.829 251.742 232.616 250.75 232.616 249.609C232.616 248.487 232.829 247.502 233.255 246.655C233.686 245.803 234.287 245.14 235.059 244.666C235.831 244.188 236.738 243.949 237.779 243.949C238.452 243.949 239.086 244.058 239.683 244.276C240.284 244.489 240.814 244.82 241.274 245.27C241.738 245.72 242.102 246.293 242.367 246.989C242.633 247.68 242.765 248.504 242.765 249.46V250.249H233.823V248.516H240.301C240.296 248.023 240.189 247.585 239.981 247.202C239.773 246.813 239.481 246.508 239.107 246.286C238.738 246.063 238.307 245.952 237.815 245.952C237.289 245.952 236.828 246.08 236.43 246.335C236.032 246.586 235.722 246.918 235.499 247.33C235.282 247.737 235.17 248.184 235.166 248.672V250.185C235.166 250.819 235.282 251.364 235.514 251.818C235.746 252.268 236.07 252.614 236.487 252.855C236.903 253.092 237.391 253.21 237.95 253.21C238.324 253.21 238.662 253.158 238.965 253.054C239.268 252.945 239.531 252.786 239.754 252.578C239.976 252.37 240.144 252.112 240.258 251.804L242.659 252.074C242.507 252.708 242.218 253.262 241.792 253.736C241.371 254.205 240.831 254.569 240.173 254.83C239.515 255.085 238.762 255.213 237.914 255.213ZM250.015 255V240.455H255.469C256.587 240.455 257.524 240.663 258.282 241.08C259.044 241.496 259.619 242.069 260.008 242.798C260.401 243.523 260.597 244.347 260.597 245.27C260.597 246.203 260.401 247.031 260.008 247.756C259.615 248.48 259.035 249.051 258.268 249.467C257.501 249.879 256.556 250.085 255.434 250.085H251.819V247.919H255.079C255.732 247.919 256.267 247.805 256.684 247.578C257.1 247.351 257.408 247.038 257.607 246.641C257.811 246.243 257.912 245.786 257.912 245.27C257.912 244.754 257.811 244.299 257.607 243.906C257.408 243.513 257.098 243.208 256.677 242.99C256.26 242.768 255.723 242.656 255.064 242.656H252.65V255H250.015ZM262.772 255V244.091H265.265V245.909H265.379C265.578 245.279 265.919 244.794 266.401 244.453C266.889 244.107 267.445 243.935 268.07 243.935C268.213 243.935 268.371 243.942 268.546 243.956C268.726 243.965 268.875 243.982 268.994 244.006V246.371C268.885 246.333 268.712 246.3 268.475 246.271C268.243 246.238 268.018 246.222 267.801 246.222C267.332 246.222 266.91 246.323 266.536 246.527C266.167 246.726 265.876 247.003 265.663 247.358C265.45 247.713 265.343 248.123 265.343 248.587V255H262.772ZM275.011 255.213C273.946 255.213 273.023 254.979 272.241 254.51C271.46 254.041 270.854 253.385 270.423 252.543C269.997 251.7 269.784 250.715 269.784 249.588C269.784 248.461 269.997 247.474 270.423 246.626C270.854 245.779 271.46 245.121 272.241 244.652C273.023 244.183 273.946 243.949 275.011 243.949C276.077 243.949 277 244.183 277.781 244.652C278.562 245.121 279.166 245.779 279.592 246.626C280.023 247.474 280.238 248.461 280.238 249.588C280.238 250.715 280.023 251.7 279.592 252.543C279.166 253.385 278.562 254.041 277.781 254.51C277 254.979 276.077 255.213 275.011 255.213ZM275.025 253.153C275.603 253.153 276.086 252.995 276.474 252.678C276.863 252.356 277.151 251.925 277.341 251.385C277.535 250.845 277.632 250.244 277.632 249.581C277.632 248.913 277.535 248.31 277.341 247.77C277.151 247.225 276.863 246.792 276.474 246.47C276.086 246.148 275.603 245.987 275.025 245.987C274.434 245.987 273.941 246.148 273.548 246.47C273.16 246.792 272.869 247.225 272.675 247.77C272.485 248.31 272.39 248.913 272.39 249.581C272.39 250.244 272.485 250.845 272.675 251.385C272.869 251.925 273.16 252.356 273.548 252.678C273.941 252.995 274.434 253.153 275.025 253.153ZM286.469 255.192C285.612 255.192 284.845 254.972 284.168 254.531C283.491 254.091 282.956 253.452 282.563 252.614C282.17 251.776 281.973 250.758 281.973 249.56C281.973 248.348 282.172 247.325 282.57 246.491C282.972 245.653 283.514 245.021 284.196 244.595C284.878 244.164 285.638 243.949 286.476 243.949C287.115 243.949 287.641 244.058 288.053 244.276C288.465 244.489 288.791 244.747 289.033 245.05C289.274 245.348 289.461 245.63 289.594 245.895H289.7V240.455H292.279V255H289.75V253.281H289.594C289.461 253.546 289.27 253.828 289.019 254.126C288.768 254.42 288.436 254.671 288.024 254.879C287.612 255.088 287.094 255.192 286.469 255.192ZM287.186 253.082C287.731 253.082 288.195 252.936 288.578 252.642C288.962 252.344 289.253 251.929 289.452 251.399C289.651 250.869 289.75 250.251 289.75 249.545C289.75 248.84 289.651 248.227 289.452 247.706C289.258 247.185 288.969 246.78 288.585 246.491C288.207 246.203 287.74 246.058 287.186 246.058C286.613 246.058 286.135 246.207 285.752 246.506C285.368 246.804 285.079 247.216 284.885 247.741C284.691 248.267 284.594 248.868 284.594 249.545C284.594 250.227 284.691 250.836 284.885 251.371C285.084 251.901 285.375 252.32 285.759 252.628C286.147 252.931 286.623 253.082 287.186 253.082ZM301.971 250.412V244.091H304.542V255H302.05V253.061H301.936C301.69 253.672 301.285 254.171 300.721 254.56C300.163 254.948 299.474 255.142 298.655 255.142C297.94 255.142 297.308 254.983 296.758 254.666C296.214 254.344 295.788 253.878 295.48 253.267C295.172 252.652 295.018 251.908 295.018 251.037V244.091H297.589V250.639C297.589 251.33 297.779 251.88 298.157 252.287C298.536 252.694 299.033 252.898 299.649 252.898C300.028 252.898 300.395 252.805 300.75 252.621C301.105 252.436 301.396 252.161 301.623 251.797C301.855 251.428 301.971 250.966 301.971 250.412ZM311.945 255.213C310.856 255.213 309.921 254.974 309.139 254.496C308.363 254.018 307.764 253.357 307.343 252.514C306.926 251.667 306.718 250.691 306.718 249.588C306.718 248.48 306.931 247.502 307.357 246.655C307.783 245.803 308.384 245.14 309.161 244.666C309.942 244.188 310.865 243.949 311.931 243.949C312.816 243.949 313.6 244.112 314.281 244.439C314.968 244.761 315.515 245.218 315.922 245.81C316.329 246.397 316.561 247.083 316.618 247.869H314.161C314.061 247.344 313.825 246.906 313.45 246.555C313.081 246.2 312.586 246.023 311.966 246.023C311.441 246.023 310.979 246.165 310.581 246.449C310.183 246.728 309.873 247.131 309.651 247.656C309.433 248.182 309.324 248.812 309.324 249.545C309.324 250.289 309.433 250.928 309.651 251.463C309.869 251.993 310.174 252.403 310.567 252.692C310.965 252.976 311.431 253.118 311.966 253.118C312.345 253.118 312.683 253.047 312.982 252.905C313.285 252.758 313.538 252.547 313.742 252.273C313.945 251.998 314.085 251.664 314.161 251.271H316.618C316.557 252.043 316.329 252.727 315.936 253.324C315.543 253.916 315.008 254.38 314.331 254.716C313.654 255.047 312.859 255.213 311.945 255.213ZM324.177 244.091V246.08H317.905V244.091H324.177ZM319.454 241.477H322.025V251.719C322.025 252.064 322.077 252.33 322.181 252.514C322.29 252.694 322.432 252.817 322.607 252.884C322.782 252.95 322.976 252.983 323.189 252.983C323.35 252.983 323.497 252.971 323.63 252.947C323.767 252.924 323.871 252.902 323.942 252.884L324.376 254.893C324.238 254.941 324.042 254.993 323.786 255.05C323.535 255.107 323.227 255.14 322.863 255.149C322.219 255.168 321.639 255.071 321.123 254.858C320.607 254.64 320.197 254.304 319.894 253.849C319.596 253.395 319.449 252.827 319.454 252.145V241.477ZM331.401 255V240.455H336.856C337.973 240.455 338.911 240.663 339.669 241.08C340.431 241.496 341.006 242.069 341.394 242.798C341.787 243.523 341.984 244.347 341.984 245.27C341.984 246.203 341.787 247.031 341.394 247.756C341.001 248.48 340.421 249.051 339.654 249.467C338.887 249.879 337.943 250.085 336.82 250.085H333.205V247.919H336.465C337.119 247.919 337.654 247.805 338.07 247.578C338.487 247.351 338.795 247.038 338.994 246.641C339.197 246.243 339.299 245.786 339.299 245.27C339.299 244.754 339.197 244.299 338.994 243.906C338.795 243.513 338.485 243.208 338.063 242.99C337.647 242.768 337.109 242.656 336.451 242.656H334.036V255H331.401ZM348.761 255.213C347.696 255.213 346.773 254.979 345.991 254.51C345.21 254.041 344.604 253.385 344.173 252.543C343.747 251.7 343.534 250.715 343.534 249.588C343.534 248.461 343.747 247.474 344.173 246.626C344.604 245.779 345.21 245.121 345.991 244.652C346.773 244.183 347.696 243.949 348.761 243.949C349.827 243.949 350.75 244.183 351.531 244.652C352.312 245.121 352.916 245.779 353.342 246.626C353.773 247.474 353.988 248.461 353.988 249.588C353.988 250.715 353.773 251.7 353.342 252.543C352.916 253.385 352.312 254.041 351.531 254.51C350.75 254.979 349.827 255.213 348.761 255.213ZM348.775 253.153C349.353 253.153 349.836 252.995 350.224 252.678C350.613 252.356 350.901 251.925 351.091 251.385C351.285 250.845 351.382 250.244 351.382 249.581C351.382 248.913 351.285 248.31 351.091 247.77C350.901 247.225 350.613 246.792 350.224 246.47C349.836 246.148 349.353 245.987 348.775 245.987C348.184 245.987 347.691 246.148 347.298 246.47C346.91 246.792 346.619 247.225 346.425 247.77C346.235 248.31 346.14 248.913 346.14 249.581C346.14 250.244 346.235 250.845 346.425 251.385C346.619 251.925 346.91 252.356 347.298 252.678C347.691 252.995 348.184 253.153 348.775 253.153ZM356.171 255V244.091H358.664V245.909H358.777C358.976 245.279 359.317 244.794 359.8 244.453C360.288 244.107 360.844 243.935 361.469 243.935C361.611 243.935 361.77 243.942 361.945 243.956C362.125 243.965 362.274 243.982 362.392 244.006V246.371C362.283 246.333 362.11 246.3 361.874 246.271C361.642 246.238 361.417 246.222 361.199 246.222C360.73 246.222 360.309 246.323 359.935 246.527C359.566 246.726 359.274 247.003 359.061 247.358C358.848 247.713 358.742 248.123 358.742 248.587V255H356.171ZM370.134 244.091V246.08H363.862V244.091H370.134ZM365.411 241.477H367.982V251.719C367.982 252.064 368.034 252.33 368.138 252.514C368.247 252.694 368.389 252.817 368.564 252.884C368.739 252.95 368.933 252.983 369.146 252.983C369.307 252.983 369.454 252.971 369.587 252.947C369.724 252.924 369.828 252.902 369.899 252.884L370.333 254.893C370.195 254.941 369.999 254.993 369.743 255.05C369.492 255.107 369.184 255.14 368.82 255.149C368.176 255.168 367.596 255.071 367.08 254.858C366.564 254.64 366.154 254.304 365.851 253.849C365.553 253.395 365.406 252.827 365.411 252.145V241.477ZM377.809 244.091V246.08H371.361V244.091H377.809ZM372.973 255V243.061C372.973 242.327 373.124 241.716 373.427 241.229C373.735 240.741 374.147 240.376 374.663 240.135C375.179 239.893 375.752 239.773 376.382 239.773C376.827 239.773 377.222 239.808 377.568 239.879C377.914 239.95 378.169 240.014 378.335 240.071L377.824 242.06C377.715 242.027 377.577 241.993 377.412 241.96C377.246 241.922 377.061 241.903 376.858 241.903C376.38 241.903 376.041 242.019 375.842 242.251C375.648 242.479 375.551 242.805 375.551 243.232V255H372.973ZM384.171 255.213C383.106 255.213 382.183 254.979 381.401 254.51C380.62 254.041 380.014 253.385 379.583 252.543C379.157 251.7 378.944 250.715 378.944 249.588C378.944 248.461 379.157 247.474 379.583 246.626C380.014 245.779 380.62 245.121 381.401 244.652C382.183 244.183 383.106 243.949 384.171 243.949C385.237 243.949 386.16 244.183 386.941 244.652C387.722 245.121 388.326 245.779 388.752 246.626C389.183 247.474 389.399 248.461 389.399 249.588C389.399 250.715 389.183 251.7 388.752 252.543C388.326 253.385 387.722 254.041 386.941 254.51C386.16 254.979 385.237 255.213 384.171 255.213ZM384.186 253.153C384.763 253.153 385.246 252.995 385.634 252.678C386.023 252.356 386.311 251.925 386.501 251.385C386.695 250.845 386.792 250.244 386.792 249.581C386.792 248.913 386.695 248.31 386.501 247.77C386.311 247.225 386.023 246.792 385.634 246.47C385.246 246.148 384.763 245.987 384.186 245.987C383.594 245.987 383.101 246.148 382.708 246.47C382.32 246.792 382.029 247.225 381.835 247.77C381.645 248.31 381.551 248.913 381.551 249.581C381.551 250.244 381.645 250.845 381.835 251.385C382.029 251.925 382.32 252.356 382.708 252.678C383.101 252.995 383.594 253.153 384.186 253.153ZM394.152 240.455V255H391.581V240.455H394.152ZM396.796 255V244.091H399.367V255H396.796ZM398.088 242.543C397.681 242.543 397.331 242.408 397.037 242.138C396.744 241.863 396.597 241.534 396.597 241.151C396.597 240.762 396.744 240.433 397.037 240.163C397.331 239.889 397.681 239.751 398.088 239.751C398.5 239.751 398.851 239.889 399.139 240.163C399.433 240.433 399.58 240.762 399.58 241.151C399.58 241.534 399.433 241.863 399.139 242.138C398.851 242.408 398.5 242.543 398.088 242.543ZM406.769 255.213C405.704 255.213 404.78 254.979 403.999 254.51C403.218 254.041 402.612 253.385 402.181 252.543C401.755 251.7 401.542 250.715 401.542 249.588C401.542 248.461 401.755 247.474 402.181 246.626C402.612 245.779 403.218 245.121 403.999 244.652C404.78 244.183 405.704 243.949 406.769 243.949C407.834 243.949 408.758 244.183 409.539 244.652C410.32 245.121 410.924 245.779 411.35 246.626C411.781 247.474 411.996 248.461 411.996 249.588C411.996 250.715 411.781 251.7 411.35 252.543C410.924 253.385 410.32 254.041 409.539 254.51C408.758 254.979 407.834 255.213 406.769 255.213ZM406.783 253.153C407.361 253.153 407.844 252.995 408.232 252.678C408.62 252.356 408.909 251.925 409.099 251.385C409.293 250.845 409.39 250.244 409.39 249.581C409.39 248.913 409.293 248.31 409.099 247.77C408.909 247.225 408.62 246.792 408.232 246.47C407.844 246.148 407.361 245.987 406.783 245.987C406.191 245.987 405.699 246.148 405.306 246.47C404.918 246.792 404.626 247.225 404.432 247.77C404.243 248.31 404.148 248.913 404.148 249.581C404.148 250.244 404.243 250.845 404.432 251.385C404.626 251.925 404.918 252.356 405.306 252.678C405.699 252.995 406.191 253.153 406.783 253.153Z" fill="#F9FAFB"/>
<path d="M194.609 289L191.427 277.364H192.859L195.29 286.841H195.404L197.881 277.364H199.472L201.95 286.841H202.063L204.495 277.364H205.927L202.745 289H201.29L198.722 279.727H198.631L196.063 289H194.609ZM210.347 289.182C209.506 289.182 208.781 288.996 208.171 288.625C207.565 288.25 207.097 287.727 206.768 287.057C206.442 286.383 206.279 285.598 206.279 284.705C206.279 283.811 206.442 283.023 206.768 282.341C207.097 281.655 207.556 281.121 208.143 280.739C208.734 280.352 209.423 280.159 210.211 280.159C210.665 280.159 211.114 280.235 211.558 280.386C212.001 280.538 212.404 280.784 212.768 281.125C213.131 281.462 213.421 281.909 213.637 282.466C213.853 283.023 213.961 283.708 213.961 284.523V285.091H207.234V283.932H212.597C212.597 283.439 212.499 283 212.302 282.614C212.109 282.227 211.832 281.922 211.472 281.699C211.116 281.475 210.696 281.364 210.211 281.364C209.677 281.364 209.215 281.496 208.825 281.761C208.438 282.023 208.141 282.364 207.933 282.784C207.724 283.205 207.62 283.655 207.62 284.136V284.909C207.62 285.568 207.734 286.127 207.961 286.585C208.192 287.04 208.512 287.386 208.921 287.625C209.33 287.86 209.806 287.977 210.347 287.977C210.7 287.977 211.018 287.928 211.302 287.83C211.59 287.727 211.838 287.576 212.046 287.375C212.254 287.17 212.415 286.917 212.529 286.614L213.825 286.977C213.688 287.417 213.459 287.803 213.137 288.136C212.815 288.466 212.417 288.723 211.944 288.909C211.47 289.091 210.938 289.182 210.347 289.182ZM221.842 283.75V289H220.501V277.364H221.842V281.636H221.955C222.16 281.186 222.467 280.828 222.876 280.562C223.289 280.294 223.838 280.159 224.523 280.159C225.118 280.159 225.639 280.278 226.086 280.517C226.533 280.752 226.879 281.114 227.126 281.602C227.376 282.087 227.501 282.705 227.501 283.455V289H226.16V283.545C226.16 282.852 225.98 282.316 225.62 281.938C225.264 281.555 224.77 281.364 224.137 281.364C223.698 281.364 223.304 281.456 222.955 281.642C222.611 281.828 222.338 282.098 222.137 282.455C221.94 282.811 221.842 283.242 221.842 283.75ZM232.522 289.205C231.969 289.205 231.467 289.1 231.016 288.892C230.566 288.68 230.208 288.375 229.942 287.977C229.677 287.576 229.545 287.091 229.545 286.523C229.545 286.023 229.643 285.617 229.84 285.307C230.037 284.992 230.3 284.746 230.63 284.568C230.96 284.39 231.323 284.258 231.721 284.17C232.122 284.08 232.526 284.008 232.931 283.955C233.461 283.886 233.891 283.835 234.221 283.801C234.554 283.763 234.797 283.701 234.948 283.614C235.103 283.527 235.181 283.375 235.181 283.159V283.114C235.181 282.553 235.028 282.117 234.721 281.807C234.418 281.496 233.958 281.341 233.34 281.341C232.7 281.341 232.198 281.481 231.835 281.761C231.471 282.042 231.215 282.341 231.067 282.659L229.795 282.205C230.022 281.674 230.325 281.261 230.704 280.966C231.086 280.667 231.503 280.458 231.954 280.341C232.408 280.22 232.855 280.159 233.295 280.159C233.575 280.159 233.897 280.193 234.261 280.261C234.628 280.326 234.982 280.46 235.323 280.665C235.668 280.869 235.954 281.178 236.181 281.591C236.408 282.004 236.522 282.557 236.522 283.25V289H235.181V287.818H235.113C235.022 288.008 234.871 288.21 234.658 288.426C234.446 288.642 234.164 288.826 233.812 288.977C233.46 289.129 233.03 289.205 232.522 289.205ZM232.727 288C233.257 288 233.704 287.896 234.067 287.688C234.435 287.479 234.711 287.21 234.897 286.881C235.086 286.551 235.181 286.205 235.181 285.841V284.614C235.124 284.682 234.999 284.744 234.806 284.801C234.617 284.854 234.397 284.902 234.147 284.943C233.901 284.981 233.66 285.015 233.425 285.045C233.194 285.072 233.007 285.095 232.863 285.114C232.514 285.159 232.189 285.233 231.886 285.335C231.586 285.434 231.344 285.583 231.158 285.784C230.977 285.981 230.886 286.25 230.886 286.591C230.886 287.057 231.058 287.409 231.403 287.648C231.751 287.883 232.192 288 232.727 288ZM240.31 283.75V289H238.969V280.273H240.265V281.636H240.379C240.583 281.193 240.894 280.837 241.31 280.568C241.727 280.295 242.265 280.159 242.924 280.159C243.515 280.159 244.032 280.28 244.475 280.523C244.918 280.761 245.263 281.125 245.509 281.614C245.755 282.098 245.879 282.712 245.879 283.455V289H244.538V283.545C244.538 282.86 244.36 282.326 244.004 281.943C243.647 281.557 243.159 281.364 242.538 281.364C242.11 281.364 241.727 281.456 241.39 281.642C241.057 281.828 240.793 282.098 240.6 282.455C240.407 282.811 240.31 283.242 240.31 283.75ZM251.624 289.182C250.897 289.182 250.255 288.998 249.698 288.631C249.141 288.259 248.706 287.737 248.391 287.062C248.077 286.384 247.92 285.583 247.92 284.659C247.92 283.742 248.077 282.947 248.391 282.273C248.706 281.598 249.143 281.078 249.704 280.71C250.264 280.343 250.912 280.159 251.647 280.159C252.215 280.159 252.664 280.254 252.994 280.443C253.327 280.629 253.581 280.841 253.755 281.08C253.933 281.314 254.071 281.508 254.17 281.659H254.283V277.364H255.624V289H254.329V287.659H254.17C254.071 287.818 253.931 288.019 253.749 288.261C253.567 288.5 253.308 288.714 252.971 288.903C252.634 289.089 252.185 289.182 251.624 289.182ZM251.806 287.977C252.344 287.977 252.799 287.837 253.17 287.557C253.541 287.273 253.823 286.881 254.016 286.381C254.21 285.877 254.306 285.295 254.306 284.636C254.306 283.985 254.211 283.415 254.022 282.926C253.833 282.434 253.552 282.051 253.181 281.778C252.81 281.502 252.352 281.364 251.806 281.364C251.238 281.364 250.764 281.509 250.386 281.801C250.011 282.089 249.728 282.481 249.539 282.977C249.353 283.47 249.261 284.023 249.261 284.636C249.261 285.258 249.355 285.822 249.545 286.33C249.738 286.833 250.022 287.235 250.397 287.534C250.776 287.83 251.246 287.977 251.806 287.977ZM259.607 277.364V289H258.266V277.364H259.607ZM265.722 289.182C264.881 289.182 264.156 288.996 263.546 288.625C262.94 288.25 262.472 287.727 262.143 287.057C261.817 286.383 261.654 285.598 261.654 284.705C261.654 283.811 261.817 283.023 262.143 282.341C262.472 281.655 262.931 281.121 263.518 280.739C264.109 280.352 264.798 280.159 265.586 280.159C266.04 280.159 266.489 280.235 266.933 280.386C267.376 280.538 267.779 280.784 268.143 281.125C268.506 281.462 268.796 281.909 269.012 282.466C269.228 283.023 269.336 283.708 269.336 284.523V285.091H262.609V283.932H267.972C267.972 283.439 267.874 283 267.677 282.614C267.484 282.227 267.207 281.922 266.847 281.699C266.491 281.475 266.071 281.364 265.586 281.364C265.052 281.364 264.59 281.496 264.2 281.761C263.813 282.023 263.516 282.364 263.308 282.784C263.099 283.205 262.995 283.655 262.995 284.136V284.909C262.995 285.568 263.109 286.127 263.336 286.585C263.567 287.04 263.887 287.386 264.296 287.625C264.705 287.86 265.181 287.977 265.722 287.977C266.075 287.977 266.393 287.928 266.677 287.83C266.965 287.727 267.213 287.576 267.421 287.375C267.629 287.17 267.79 286.917 267.904 286.614L269.2 286.977C269.063 287.417 268.834 287.803 268.512 288.136C268.19 288.466 267.792 288.723 267.319 288.909C266.845 289.091 266.313 289.182 265.722 289.182ZM278.444 289.205C277.891 289.205 277.389 289.1 276.938 288.892C276.487 288.68 276.129 288.375 275.864 287.977C275.599 287.576 275.467 287.091 275.467 286.523C275.467 286.023 275.565 285.617 275.762 285.307C275.959 284.992 276.222 284.746 276.552 284.568C276.881 284.39 277.245 284.258 277.643 284.17C278.044 284.08 278.448 284.008 278.853 283.955C279.383 283.886 279.813 283.835 280.143 283.801C280.476 283.763 280.719 283.701 280.87 283.614C281.025 283.527 281.103 283.375 281.103 283.159V283.114C281.103 282.553 280.95 282.117 280.643 281.807C280.34 281.496 279.879 281.341 279.262 281.341C278.622 281.341 278.12 281.481 277.756 281.761C277.393 282.042 277.137 282.341 276.989 282.659L275.717 282.205C275.944 281.674 276.247 281.261 276.626 280.966C277.008 280.667 277.425 280.458 277.876 280.341C278.33 280.22 278.777 280.159 279.217 280.159C279.497 280.159 279.819 280.193 280.183 280.261C280.55 280.326 280.904 280.46 281.245 280.665C281.59 280.869 281.876 281.178 282.103 281.591C282.33 282.004 282.444 282.557 282.444 283.25V289H281.103V287.818H281.035C280.944 288.008 280.792 288.21 280.58 288.426C280.368 288.642 280.086 288.826 279.734 288.977C279.381 289.129 278.951 289.205 278.444 289.205ZM278.648 288C279.179 288 279.626 287.896 279.989 287.688C280.357 287.479 280.633 287.21 280.819 286.881C281.008 286.551 281.103 286.205 281.103 285.841V284.614C281.046 284.682 280.921 284.744 280.728 284.801C280.539 284.854 280.319 284.902 280.069 284.943C279.823 284.981 279.582 285.015 279.347 285.045C279.116 285.072 278.929 285.095 278.785 285.114C278.436 285.159 278.111 285.233 277.808 285.335C277.508 285.434 277.266 285.583 277.08 285.784C276.898 285.981 276.808 286.25 276.808 286.591C276.808 287.057 276.98 287.409 277.325 287.648C277.673 287.883 278.114 288 278.648 288ZM291.369 289L288.71 280.273H290.119L292.005 286.955H292.096L293.96 280.273H295.391L297.232 286.932H297.323L299.21 280.273H300.619L297.96 289H296.641L294.732 282.295H294.596L292.687 289H291.369ZM302.391 289V280.273H303.732V289H302.391ZM303.073 278.818C302.812 278.818 302.586 278.729 302.397 278.551C302.211 278.373 302.119 278.159 302.119 277.909C302.119 277.659 302.211 277.445 302.397 277.267C302.586 277.089 302.812 277 303.073 277C303.335 277 303.558 277.089 303.744 277.267C303.933 277.445 304.028 277.659 304.028 277.909C304.028 278.159 303.933 278.373 303.744 278.551C303.558 278.729 303.335 278.818 303.073 278.818ZM309.484 289.182C308.756 289.182 308.114 288.998 307.558 288.631C307.001 288.259 306.565 287.737 306.251 287.062C305.936 286.384 305.779 285.583 305.779 284.659C305.779 283.742 305.936 282.947 306.251 282.273C306.565 281.598 307.003 281.078 307.563 280.71C308.124 280.343 308.772 280.159 309.506 280.159C310.075 280.159 310.523 280.254 310.853 280.443C311.186 280.629 311.44 280.841 311.614 281.08C311.792 281.314 311.931 281.508 312.029 281.659H312.143V277.364H313.484V289H312.188V287.659H312.029C311.931 287.818 311.79 288.019 311.609 288.261C311.427 288.5 311.167 288.714 310.83 288.903C310.493 289.089 310.044 289.182 309.484 289.182ZM309.665 287.977C310.203 287.977 310.658 287.837 311.029 287.557C311.4 287.273 311.683 286.881 311.876 286.381C312.069 285.877 312.165 285.295 312.165 284.636C312.165 283.985 312.071 283.415 311.881 282.926C311.692 282.434 311.412 282.051 311.04 281.778C310.669 281.502 310.211 281.364 309.665 281.364C309.097 281.364 308.624 281.509 308.245 281.801C307.87 282.089 307.588 282.481 307.398 282.977C307.213 283.47 307.12 284.023 307.12 284.636C307.12 285.258 307.215 285.822 307.404 286.33C307.597 286.833 307.881 287.235 308.256 287.534C308.635 287.83 309.105 287.977 309.665 287.977ZM319.785 289.182C318.944 289.182 318.219 288.996 317.609 288.625C317.003 288.25 316.535 287.727 316.205 287.057C315.879 286.383 315.717 285.598 315.717 284.705C315.717 283.811 315.879 283.023 316.205 282.341C316.535 281.655 316.993 281.121 317.58 280.739C318.171 280.352 318.861 280.159 319.648 280.159C320.103 280.159 320.552 280.235 320.995 280.386C321.438 280.538 321.842 280.784 322.205 281.125C322.569 281.462 322.859 281.909 323.075 282.466C323.29 283.023 323.398 283.708 323.398 284.523V285.091H316.671V283.932H322.035C322.035 283.439 321.936 283 321.739 282.614C321.546 282.227 321.27 281.922 320.91 281.699C320.554 281.475 320.133 281.364 319.648 281.364C319.114 281.364 318.652 281.496 318.262 281.761C317.876 282.023 317.578 282.364 317.37 282.784C317.162 283.205 317.058 283.655 317.058 284.136V284.909C317.058 285.568 317.171 286.127 317.398 286.585C317.629 287.04 317.95 287.386 318.359 287.625C318.768 287.86 319.243 287.977 319.785 287.977C320.137 287.977 320.455 287.928 320.739 287.83C321.027 287.727 321.275 287.576 321.484 287.375C321.692 287.17 321.853 286.917 321.967 286.614L323.262 286.977C323.126 287.417 322.897 287.803 322.575 288.136C322.253 288.466 321.855 288.723 321.381 288.909C320.908 289.091 320.376 289.182 319.785 289.182ZM329.938 289V280.273H331.234V281.591H331.325C331.484 281.159 331.772 280.809 332.188 280.54C332.605 280.271 333.075 280.136 333.597 280.136C333.696 280.136 333.819 280.138 333.967 280.142C334.114 280.146 334.226 280.152 334.302 280.159V281.523C334.256 281.511 334.152 281.494 333.989 281.472C333.83 281.445 333.662 281.432 333.484 281.432C333.059 281.432 332.681 281.521 332.347 281.699C332.018 281.873 331.756 282.116 331.563 282.426C331.374 282.733 331.279 283.083 331.279 283.477V289H329.938ZM338.46 289.205C337.906 289.205 337.405 289.1 336.954 288.892C336.503 288.68 336.145 288.375 335.88 287.977C335.615 287.576 335.482 287.091 335.482 286.523C335.482 286.023 335.581 285.617 335.778 285.307C335.975 284.992 336.238 284.746 336.567 284.568C336.897 284.39 337.261 284.258 337.658 284.17C338.06 284.08 338.463 284.008 338.869 283.955C339.399 283.886 339.829 283.835 340.158 283.801C340.492 283.763 340.734 283.701 340.886 283.614C341.041 283.527 341.119 283.375 341.119 283.159V283.114C341.119 282.553 340.965 282.117 340.658 281.807C340.355 281.496 339.895 281.341 339.278 281.341C338.638 281.341 338.136 281.481 337.772 281.761C337.408 282.042 337.153 282.341 337.005 282.659L335.732 282.205C335.96 281.674 336.263 281.261 336.641 280.966C337.024 280.667 337.441 280.458 337.891 280.341C338.346 280.22 338.793 280.159 339.232 280.159C339.513 280.159 339.835 280.193 340.198 280.261C340.566 280.326 340.92 280.46 341.261 280.665C341.605 280.869 341.891 281.178 342.119 281.591C342.346 282.004 342.46 282.557 342.46 283.25V289H341.119V287.818H341.05C340.96 288.008 340.808 288.21 340.596 288.426C340.384 288.642 340.102 288.826 339.749 288.977C339.397 289.129 338.967 289.205 338.46 289.205ZM338.664 288C339.194 288 339.641 287.896 340.005 287.688C340.372 287.479 340.649 287.21 340.835 286.881C341.024 286.551 341.119 286.205 341.119 285.841V284.614C341.062 284.682 340.937 284.744 340.744 284.801C340.554 284.854 340.335 284.902 340.085 284.943C339.838 284.981 339.598 285.015 339.363 285.045C339.132 285.072 338.944 285.095 338.8 285.114C338.452 285.159 338.126 285.233 337.823 285.335C337.524 285.434 337.281 285.583 337.096 285.784C336.914 285.981 336.823 286.25 336.823 286.591C336.823 287.057 336.996 287.409 337.34 287.648C337.689 287.883 338.13 288 338.664 288ZM346.248 283.75V289H344.907V280.273H346.202V281.636H346.316C346.521 281.193 346.831 280.837 347.248 280.568C347.665 280.295 348.202 280.159 348.862 280.159C349.452 280.159 349.969 280.28 350.413 280.523C350.856 280.761 351.201 281.125 351.447 281.614C351.693 282.098 351.816 282.712 351.816 283.455V289H350.475V283.545C350.475 282.86 350.297 282.326 349.941 281.943C349.585 281.557 349.096 281.364 348.475 281.364C348.047 281.364 347.665 281.456 347.327 281.642C346.994 281.828 346.731 282.098 346.538 282.455C346.344 282.811 346.248 283.242 346.248 283.75ZM357.789 292.455C357.141 292.455 356.585 292.371 356.119 292.205C355.653 292.042 355.264 291.826 354.954 291.557C354.647 291.292 354.403 291.008 354.221 290.705L355.289 289.955C355.41 290.114 355.564 290.295 355.749 290.5C355.935 290.708 356.189 290.888 356.511 291.04C356.836 291.195 357.263 291.273 357.789 291.273C358.494 291.273 359.075 291.102 359.533 290.761C359.992 290.42 360.221 289.886 360.221 289.159V287.386H360.107C360.009 287.545 359.869 287.742 359.687 287.977C359.509 288.208 359.251 288.415 358.914 288.597C358.581 288.775 358.13 288.864 357.562 288.864C356.857 288.864 356.225 288.697 355.664 288.364C355.107 288.03 354.666 287.545 354.34 286.909C354.018 286.273 353.857 285.5 353.857 284.591C353.857 283.697 354.014 282.919 354.329 282.256C354.643 281.589 355.081 281.074 355.641 280.71C356.202 280.343 356.85 280.159 357.585 280.159C358.153 280.159 358.603 280.254 358.937 280.443C359.274 280.629 359.531 280.841 359.71 281.08C359.891 281.314 360.031 281.508 360.13 281.659H360.266V280.273H361.562V289.25C361.562 290 361.391 290.61 361.05 291.08C360.713 291.553 360.259 291.9 359.687 292.119C359.119 292.343 358.486 292.455 357.789 292.455ZM357.744 287.659C358.281 287.659 358.736 287.536 359.107 287.29C359.478 287.044 359.761 286.689 359.954 286.227C360.147 285.765 360.244 285.212 360.244 284.568C360.244 283.939 360.149 283.384 359.96 282.903C359.77 282.422 359.49 282.045 359.119 281.773C358.747 281.5 358.289 281.364 357.744 281.364C357.175 281.364 356.702 281.508 356.323 281.795C355.948 282.083 355.666 282.47 355.477 282.955C355.291 283.439 355.198 283.977 355.198 284.568C355.198 285.174 355.293 285.71 355.482 286.176C355.675 286.638 355.96 287.002 356.335 287.267C356.713 287.528 357.183 287.659 357.744 287.659ZM367.675 289.182C366.835 289.182 366.109 288.996 365.499 288.625C364.893 288.25 364.425 287.727 364.096 287.057C363.77 286.383 363.607 285.598 363.607 284.705C363.607 283.811 363.77 283.023 364.096 282.341C364.425 281.655 364.884 281.121 365.471 280.739C366.062 280.352 366.751 280.159 367.539 280.159C367.994 280.159 368.442 280.235 368.886 280.386C369.329 280.538 369.732 280.784 370.096 281.125C370.46 281.462 370.749 281.909 370.965 282.466C371.181 283.023 371.289 283.708 371.289 284.523V285.091H364.562V283.932H369.925C369.925 283.439 369.827 283 369.63 282.614C369.437 282.227 369.16 281.922 368.8 281.699C368.444 281.475 368.024 281.364 367.539 281.364C367.005 281.364 366.543 281.496 366.153 281.761C365.766 282.023 365.469 282.364 365.261 282.784C365.052 283.205 364.948 283.655 364.948 284.136V284.909C364.948 285.568 365.062 286.127 365.289 286.585C365.52 287.04 365.84 287.386 366.249 287.625C366.658 287.86 367.134 287.977 367.675 287.977C368.028 287.977 368.346 287.928 368.63 287.83C368.918 287.727 369.166 287.576 369.374 287.375C369.583 287.17 369.744 286.917 369.857 286.614L371.153 286.977C371.016 287.417 370.787 287.803 370.465 288.136C370.143 288.466 369.746 288.723 369.272 288.909C368.799 289.091 368.266 289.182 367.675 289.182ZM381.374 289.182C380.586 289.182 379.895 288.994 379.3 288.619C378.71 288.244 378.247 287.72 377.914 287.045C377.585 286.371 377.42 285.583 377.42 284.682C377.42 283.773 377.585 282.979 377.914 282.301C378.247 281.623 378.71 281.097 379.3 280.722C379.895 280.347 380.586 280.159 381.374 280.159C382.162 280.159 382.852 280.347 383.442 280.722C384.037 281.097 384.499 281.623 384.829 282.301C385.162 282.979 385.329 283.773 385.329 284.682C385.329 285.583 385.162 286.371 384.829 287.045C384.499 287.72 384.037 288.244 383.442 288.619C382.852 288.994 382.162 289.182 381.374 289.182ZM381.374 287.977C381.973 287.977 382.465 287.824 382.852 287.517C383.238 287.21 383.524 286.807 383.71 286.307C383.895 285.807 383.988 285.265 383.988 284.682C383.988 284.098 383.895 283.555 383.71 283.051C383.524 282.547 383.238 282.14 382.852 281.83C382.465 281.519 381.973 281.364 381.374 281.364C380.776 281.364 380.283 281.519 379.897 281.83C379.511 282.14 379.225 282.547 379.039 283.051C378.853 283.555 378.761 284.098 378.761 284.682C378.761 285.265 378.853 285.807 379.039 286.307C379.225 286.807 379.511 287.21 379.897 287.517C380.283 287.824 380.776 287.977 381.374 287.977ZM391.262 280.273V281.409H386.558V280.273H391.262ZM387.967 289V279.068C387.967 278.568 388.084 278.152 388.319 277.818C388.554 277.485 388.859 277.235 389.234 277.068C389.609 276.902 390.004 276.818 390.421 276.818C390.751 276.818 391.02 276.845 391.228 276.898C391.436 276.951 391.592 277 391.694 277.045L391.308 278.205C391.239 278.182 391.145 278.153 391.023 278.119C390.906 278.085 390.751 278.068 390.558 278.068C390.114 278.068 389.794 278.18 389.597 278.403C389.404 278.627 389.308 278.955 389.308 279.386V289H387.967ZM170.626 316.273V304.273H171.921V305.659H172.08C172.179 305.508 172.315 305.314 172.489 305.08C172.667 304.841 172.921 304.629 173.251 304.443C173.584 304.254 174.035 304.159 174.603 304.159C175.338 304.159 175.986 304.343 176.546 304.71C177.107 305.078 177.544 305.598 177.859 306.273C178.173 306.947 178.33 307.742 178.33 308.659C178.33 309.583 178.173 310.384 177.859 311.062C177.544 311.737 177.109 312.259 176.552 312.631C175.995 312.998 175.353 313.182 174.626 313.182C174.065 313.182 173.616 313.089 173.279 312.903C172.942 312.714 172.683 312.5 172.501 312.261C172.319 312.019 172.179 311.818 172.08 311.659H171.967V316.273H170.626ZM171.944 308.636C171.944 309.295 172.04 309.877 172.234 310.381C172.427 310.881 172.709 311.273 173.08 311.557C173.451 311.837 173.906 311.977 174.444 311.977C175.004 311.977 175.472 311.83 175.847 311.534C176.226 311.235 176.51 310.833 176.7 310.33C176.893 309.822 176.989 309.258 176.989 308.636C176.989 308.023 176.895 307.47 176.705 306.977C176.52 306.481 176.237 306.089 175.859 305.801C175.484 305.509 175.012 305.364 174.444 305.364C173.898 305.364 173.44 305.502 173.069 305.778C172.698 306.051 172.417 306.434 172.228 306.926C172.039 307.415 171.944 307.985 171.944 308.636ZM180.376 313V304.273H181.671V305.591H181.762C181.921 305.159 182.209 304.809 182.626 304.54C183.042 304.271 183.512 304.136 184.035 304.136C184.133 304.136 184.256 304.138 184.404 304.142C184.552 304.146 184.664 304.152 184.739 304.159V305.523C184.694 305.511 184.59 305.494 184.427 305.472C184.268 305.445 184.099 305.432 183.921 305.432C183.497 305.432 183.118 305.521 182.785 305.699C182.455 305.873 182.194 306.116 182.001 306.426C181.811 306.733 181.717 307.083 181.717 307.477V313H180.376ZM189.609 313.182C188.821 313.182 188.129 312.994 187.535 312.619C186.944 312.244 186.482 311.72 186.148 311.045C185.819 310.371 185.654 309.583 185.654 308.682C185.654 307.773 185.819 306.979 186.148 306.301C186.482 305.623 186.944 305.097 187.535 304.722C188.129 304.347 188.821 304.159 189.609 304.159C190.397 304.159 191.086 304.347 191.677 304.722C192.272 305.097 192.734 305.623 193.063 306.301C193.397 306.979 193.563 307.773 193.563 308.682C193.563 309.583 193.397 310.371 193.063 311.045C192.734 311.72 192.272 312.244 191.677 312.619C191.086 312.994 190.397 313.182 189.609 313.182ZM189.609 311.977C190.207 311.977 190.7 311.824 191.086 311.517C191.472 311.21 191.758 310.807 191.944 310.307C192.129 309.807 192.222 309.265 192.222 308.682C192.222 308.098 192.129 307.555 191.944 307.051C191.758 306.547 191.472 306.14 191.086 305.83C190.7 305.519 190.207 305.364 189.609 305.364C189.01 305.364 188.518 305.519 188.131 305.83C187.745 306.14 187.459 306.547 187.273 307.051C187.088 307.555 186.995 308.098 186.995 308.682C186.995 309.265 187.088 309.807 187.273 310.307C187.459 310.807 187.745 311.21 188.131 311.517C188.518 311.824 189.01 311.977 189.609 311.977ZM199.156 313.182C198.337 313.182 197.633 312.989 197.042 312.602C196.451 312.216 195.996 311.684 195.678 311.006C195.36 310.328 195.201 309.553 195.201 308.682C195.201 307.795 195.364 307.013 195.69 306.335C196.019 305.653 196.478 305.121 197.065 304.739C197.656 304.352 198.345 304.159 199.133 304.159C199.746 304.159 200.299 304.273 200.792 304.5C201.284 304.727 201.688 305.045 202.002 305.455C202.317 305.864 202.512 306.341 202.587 306.886H201.246C201.144 306.489 200.917 306.136 200.565 305.83C200.216 305.519 199.746 305.364 199.156 305.364C198.633 305.364 198.174 305.5 197.781 305.773C197.39 306.042 197.085 306.422 196.866 306.915C196.65 307.403 196.542 307.977 196.542 308.636C196.542 309.311 196.648 309.898 196.86 310.398C197.076 310.898 197.379 311.286 197.769 311.562C198.163 311.839 198.625 311.977 199.156 311.977C199.504 311.977 199.82 311.917 200.104 311.795C200.388 311.674 200.629 311.5 200.826 311.273C201.023 311.045 201.163 310.773 201.246 310.455H202.587C202.512 310.97 202.324 311.434 202.025 311.847C201.729 312.256 201.337 312.581 200.849 312.824C200.364 313.062 199.799 313.182 199.156 313.182ZM208.207 313.182C207.366 313.182 206.64 312.996 206.031 312.625C205.424 312.25 204.957 311.727 204.627 311.057C204.301 310.383 204.138 309.598 204.138 308.705C204.138 307.811 204.301 307.023 204.627 306.341C204.957 305.655 205.415 305.121 206.002 304.739C206.593 304.352 207.282 304.159 208.07 304.159C208.525 304.159 208.974 304.235 209.417 304.386C209.86 304.538 210.263 304.784 210.627 305.125C210.991 305.462 211.281 305.909 211.496 306.466C211.712 307.023 211.82 307.708 211.82 308.523V309.091H205.093V307.932H210.457C210.457 307.439 210.358 307 210.161 306.614C209.968 306.227 209.692 305.922 209.332 305.699C208.976 305.475 208.555 305.364 208.07 305.364C207.536 305.364 207.074 305.496 206.684 305.761C206.298 306.023 206 306.364 205.792 306.784C205.584 307.205 205.479 307.655 205.479 308.136V308.909C205.479 309.568 205.593 310.127 205.82 310.585C206.051 311.04 206.371 311.386 206.781 311.625C207.19 311.86 207.665 311.977 208.207 311.977C208.559 311.977 208.877 311.928 209.161 311.83C209.449 311.727 209.697 311.576 209.906 311.375C210.114 311.17 210.275 310.917 210.388 310.614L211.684 310.977C211.548 311.417 211.318 311.803 210.996 312.136C210.674 312.466 210.277 312.723 209.803 312.909C209.33 313.091 208.798 313.182 208.207 313.182ZM220.042 306.227L218.837 306.568C218.762 306.367 218.65 306.172 218.502 305.983C218.358 305.79 218.161 305.631 217.911 305.506C217.661 305.381 217.341 305.318 216.951 305.318C216.417 305.318 215.972 305.441 215.616 305.688C215.263 305.93 215.087 306.239 215.087 306.614C215.087 306.947 215.209 307.21 215.451 307.403C215.693 307.597 216.072 307.758 216.587 307.886L217.883 308.205C218.663 308.394 219.245 308.684 219.627 309.074C220.01 309.46 220.201 309.958 220.201 310.568C220.201 311.068 220.057 311.515 219.769 311.909C219.485 312.303 219.087 312.614 218.576 312.841C218.065 313.068 217.47 313.182 216.792 313.182C215.902 313.182 215.165 312.989 214.582 312.602C213.998 312.216 213.629 311.652 213.474 310.909L214.746 310.591C214.868 311.061 215.097 311.413 215.434 311.648C215.775 311.883 216.22 312 216.769 312C217.394 312 217.89 311.867 218.258 311.602C218.629 311.333 218.815 311.011 218.815 310.636C218.815 310.333 218.709 310.08 218.496 309.875C218.284 309.667 217.959 309.511 217.519 309.409L216.065 309.068C215.265 308.879 214.678 308.585 214.303 308.188C213.932 307.786 213.746 307.284 213.746 306.682C213.746 306.189 213.885 305.754 214.161 305.375C214.442 304.996 214.822 304.699 215.303 304.483C215.788 304.267 216.337 304.159 216.951 304.159C217.815 304.159 218.493 304.348 218.985 304.727C219.481 305.106 219.834 305.606 220.042 306.227ZM228.401 306.227L227.197 306.568C227.121 306.367 227.009 306.172 226.862 305.983C226.718 305.79 226.521 305.631 226.271 305.506C226.021 305.381 225.701 305.318 225.31 305.318C224.776 305.318 224.331 305.441 223.975 305.688C223.623 305.93 223.447 306.239 223.447 306.614C223.447 306.947 223.568 307.21 223.81 307.403C224.053 307.597 224.432 307.758 224.947 307.886L226.242 308.205C227.022 308.394 227.604 308.684 227.987 309.074C228.369 309.46 228.56 309.958 228.56 310.568C228.56 311.068 228.416 311.515 228.129 311.909C227.844 312.303 227.447 312.614 226.935 312.841C226.424 313.068 225.829 313.182 225.151 313.182C224.261 313.182 223.524 312.989 222.941 312.602C222.358 312.216 221.988 311.652 221.833 310.909L223.106 310.591C223.227 311.061 223.456 311.413 223.793 311.648C224.134 311.883 224.579 312 225.129 312C225.754 312 226.25 311.867 226.617 311.602C226.988 311.333 227.174 311.011 227.174 310.636C227.174 310.333 227.068 310.08 226.856 309.875C226.644 309.667 226.318 309.511 225.879 309.409L224.424 309.068C223.625 308.879 223.038 308.585 222.663 308.188C222.291 307.786 222.106 307.284 222.106 306.682C222.106 306.189 222.244 305.754 222.521 305.375C222.801 304.996 223.182 304.699 223.663 304.483C224.147 304.267 224.697 304.159 225.31 304.159C226.174 304.159 226.852 304.348 227.344 304.727C227.841 305.106 228.193 305.606 228.401 306.227ZM234.238 313.182C233.397 313.182 232.672 312.996 232.062 312.625C231.456 312.25 230.988 311.727 230.658 311.057C230.333 310.383 230.17 309.598 230.17 308.705C230.17 307.811 230.333 307.023 230.658 306.341C230.988 305.655 231.446 305.121 232.033 304.739C232.624 304.352 233.314 304.159 234.102 304.159C234.556 304.159 235.005 304.235 235.448 304.386C235.891 304.538 236.295 304.784 236.658 305.125C237.022 305.462 237.312 305.909 237.528 306.466C237.744 307.023 237.852 307.708 237.852 308.523V309.091H231.124V307.932H236.488C236.488 307.439 236.389 307 236.192 306.614C235.999 306.227 235.723 305.922 235.363 305.699C235.007 305.475 234.586 305.364 234.102 305.364C233.567 305.364 233.105 305.496 232.715 305.761C232.329 306.023 232.031 306.364 231.823 306.784C231.615 307.205 231.511 307.655 231.511 308.136V308.909C231.511 309.568 231.624 310.127 231.852 310.585C232.083 311.04 232.403 311.386 232.812 311.625C233.221 311.86 233.696 311.977 234.238 311.977C234.59 311.977 234.908 311.928 235.192 311.83C235.48 311.727 235.728 311.576 235.937 311.375C236.145 311.17 236.306 310.917 236.42 310.614L237.715 310.977C237.579 311.417 237.35 311.803 237.028 312.136C236.706 312.466 236.308 312.723 235.835 312.909C235.361 313.091 234.829 313.182 234.238 313.182ZM243.187 313.182C242.46 313.182 241.817 312.998 241.261 312.631C240.704 312.259 240.268 311.737 239.954 311.062C239.639 310.384 239.482 309.583 239.482 308.659C239.482 307.742 239.639 306.947 239.954 306.273C240.268 305.598 240.706 305.078 241.266 304.71C241.827 304.343 242.475 304.159 243.21 304.159C243.778 304.159 244.227 304.254 244.556 304.443C244.889 304.629 245.143 304.841 245.317 305.08C245.496 305.314 245.634 305.508 245.732 305.659H245.846V301.364H247.187V313H245.891V311.659H245.732C245.634 311.818 245.494 312.019 245.312 312.261C245.13 312.5 244.871 312.714 244.533 312.903C244.196 313.089 243.747 313.182 243.187 313.182ZM243.369 311.977C243.906 311.977 244.361 311.837 244.732 311.557C245.103 311.273 245.386 310.881 245.579 310.381C245.772 309.877 245.869 309.295 245.869 308.636C245.869 307.985 245.774 307.415 245.585 306.926C245.395 306.434 245.115 306.051 244.744 305.778C244.372 305.502 243.914 305.364 243.369 305.364C242.8 305.364 242.327 305.509 241.948 305.801C241.573 306.089 241.291 306.481 241.102 306.977C240.916 307.47 240.823 308.023 240.823 308.636C240.823 309.258 240.918 309.822 241.107 310.33C241.3 310.833 241.585 311.235 241.96 311.534C242.338 311.83 242.808 311.977 243.369 311.977ZM256.897 313.205C256.344 313.205 255.842 313.1 255.391 312.892C254.941 312.68 254.583 312.375 254.317 311.977C254.052 311.576 253.92 311.091 253.92 310.523C253.92 310.023 254.018 309.617 254.215 309.307C254.412 308.992 254.675 308.746 255.005 308.568C255.335 308.39 255.698 308.258 256.096 308.17C256.497 308.08 256.901 308.008 257.306 307.955C257.836 307.886 258.266 307.835 258.596 307.801C258.929 307.763 259.172 307.701 259.323 307.614C259.478 307.527 259.556 307.375 259.556 307.159V307.114C259.556 306.553 259.403 306.117 259.096 305.807C258.793 305.496 258.333 305.341 257.715 305.341C257.075 305.341 256.573 305.481 256.21 305.761C255.846 306.042 255.59 306.341 255.442 306.659L254.17 306.205C254.397 305.674 254.7 305.261 255.079 304.966C255.461 304.667 255.878 304.458 256.329 304.341C256.783 304.22 257.23 304.159 257.67 304.159C257.95 304.159 258.272 304.193 258.636 304.261C259.003 304.326 259.357 304.46 259.698 304.665C260.043 304.869 260.329 305.178 260.556 305.591C260.783 306.004 260.897 306.557 260.897 307.25V313H259.556V311.818H259.488C259.397 312.008 259.246 312.21 259.033 312.426C258.821 312.642 258.539 312.826 258.187 312.977C257.835 313.129 257.405 313.205 256.897 313.205ZM257.102 312C257.632 312 258.079 311.896 258.442 311.688C258.81 311.479 259.086 311.21 259.272 310.881C259.461 310.551 259.556 310.205 259.556 309.841V308.614C259.499 308.682 259.374 308.744 259.181 308.801C258.992 308.854 258.772 308.902 258.522 308.943C258.276 308.981 258.035 309.015 257.8 309.045C257.569 309.072 257.382 309.095 257.238 309.114C256.889 309.159 256.564 309.233 256.261 309.335C255.961 309.434 255.719 309.583 255.533 309.784C255.352 309.981 255.261 310.25 255.261 310.591C255.261 311.057 255.433 311.409 255.778 311.648C256.126 311.883 256.567 312 257.102 312ZM266.867 316.455C266.219 316.455 265.663 316.371 265.197 316.205C264.731 316.042 264.343 315.826 264.032 315.557C263.725 315.292 263.481 315.008 263.299 314.705L264.367 313.955C264.488 314.114 264.642 314.295 264.827 314.5C265.013 314.708 265.267 314.888 265.589 315.04C265.915 315.195 266.341 315.273 266.867 315.273C267.572 315.273 268.153 315.102 268.612 314.761C269.07 314.42 269.299 313.886 269.299 313.159V311.386H269.185C269.087 311.545 268.947 311.742 268.765 311.977C268.587 312.208 268.329 312.415 267.992 312.597C267.659 312.775 267.208 312.864 266.64 312.864C265.935 312.864 265.303 312.697 264.742 312.364C264.185 312.03 263.744 311.545 263.418 310.909C263.096 310.273 262.935 309.5 262.935 308.591C262.935 307.697 263.093 306.919 263.407 306.256C263.721 305.589 264.159 305.074 264.719 304.71C265.28 304.343 265.928 304.159 266.663 304.159C267.231 304.159 267.682 304.254 268.015 304.443C268.352 304.629 268.61 304.841 268.788 305.08C268.969 305.314 269.11 305.508 269.208 305.659H269.344V304.273H270.64V313.25C270.64 314 270.469 314.61 270.129 315.08C269.791 315.553 269.337 315.9 268.765 316.119C268.197 316.343 267.564 316.455 266.867 316.455ZM266.822 311.659C267.36 311.659 267.814 311.536 268.185 311.29C268.557 311.044 268.839 310.689 269.032 310.227C269.225 309.765 269.322 309.212 269.322 308.568C269.322 307.939 269.227 307.384 269.038 306.903C268.848 306.422 268.568 306.045 268.197 305.773C267.826 305.5 267.367 305.364 266.822 305.364C266.254 305.364 265.78 305.508 265.401 305.795C265.026 306.083 264.744 306.47 264.555 306.955C264.369 307.439 264.276 307.977 264.276 308.568C264.276 309.174 264.371 309.71 264.56 310.176C264.754 310.638 265.038 311.002 265.413 311.267C265.791 311.528 266.261 311.659 266.822 311.659ZM273.094 313V304.273H274.39V305.591H274.481C274.64 305.159 274.928 304.809 275.344 304.54C275.761 304.271 276.231 304.136 276.754 304.136C276.852 304.136 276.975 304.138 277.123 304.142C277.271 304.146 277.382 304.152 277.458 304.159V305.523C277.413 305.511 277.308 305.494 277.146 305.472C276.987 305.445 276.818 305.432 276.64 305.432C276.216 305.432 275.837 305.521 275.504 305.699C275.174 305.873 274.913 306.116 274.719 306.426C274.53 306.733 274.435 307.083 274.435 307.477V313H273.094ZM279.048 313V304.273H280.388V313H279.048ZM279.729 302.818C279.468 302.818 279.243 302.729 279.053 302.551C278.868 302.373 278.775 302.159 278.775 301.909C278.775 301.659 278.868 301.445 279.053 301.267C279.243 301.089 279.468 301 279.729 301C279.991 301 280.214 301.089 280.4 301.267C280.589 301.445 280.684 301.659 280.684 301.909C280.684 302.159 280.589 302.373 280.4 302.551C280.214 302.729 279.991 302.818 279.729 302.818ZM286.39 313.182C285.572 313.182 284.867 312.989 284.276 312.602C283.685 312.216 283.231 311.684 282.913 311.006C282.594 310.328 282.435 309.553 282.435 308.682C282.435 307.795 282.598 307.013 282.924 306.335C283.254 305.653 283.712 305.121 284.299 304.739C284.89 304.352 285.579 304.159 286.367 304.159C286.981 304.159 287.534 304.273 288.026 304.5C288.519 304.727 288.922 305.045 289.237 305.455C289.551 305.864 289.746 306.341 289.822 306.886H288.481C288.379 306.489 288.151 306.136 287.799 305.83C287.451 305.519 286.981 305.364 286.39 305.364C285.867 305.364 285.409 305.5 285.015 305.773C284.625 306.042 284.32 306.422 284.1 306.915C283.884 307.403 283.776 307.977 283.776 308.636C283.776 309.311 283.882 309.898 284.094 310.398C284.31 310.898 284.613 311.286 285.004 311.562C285.397 311.839 285.86 311.977 286.39 311.977C286.738 311.977 287.055 311.917 287.339 311.795C287.623 311.674 287.863 311.5 288.06 311.273C288.257 311.045 288.397 310.773 288.481 310.455H289.822C289.746 310.97 289.558 311.434 289.259 311.847C288.964 312.256 288.572 312.581 288.083 312.824C287.598 313.062 287.034 313.182 286.39 313.182ZM297.282 309.432V304.273H298.623V313H297.282V311.523H297.191C296.987 311.966 296.668 312.343 296.237 312.653C295.805 312.96 295.259 313.114 294.6 313.114C294.055 313.114 293.57 312.994 293.146 312.756C292.721 312.513 292.388 312.15 292.146 311.665C291.903 311.176 291.782 310.561 291.782 309.818V304.273H293.123V309.727C293.123 310.364 293.301 310.871 293.657 311.25C294.017 311.629 294.475 311.818 295.032 311.818C295.365 311.818 295.704 311.733 296.049 311.562C296.397 311.392 296.689 311.131 296.924 310.778C297.163 310.426 297.282 309.977 297.282 309.432ZM302.42 301.364V313H301.079V301.364H302.42ZM308.671 304.273V305.409H304.148V304.273H308.671ZM305.467 302.182H306.808V310.5C306.808 310.879 306.862 311.163 306.972 311.352C307.086 311.538 307.23 311.663 307.404 311.727C307.582 311.788 307.77 311.818 307.967 311.818C308.114 311.818 308.236 311.811 308.33 311.795C308.425 311.777 308.501 311.761 308.558 311.75L308.83 312.955C308.739 312.989 308.612 313.023 308.45 313.057C308.287 313.095 308.08 313.114 307.83 313.114C307.451 313.114 307.08 313.032 306.717 312.869C306.357 312.706 306.058 312.458 305.819 312.125C305.584 311.792 305.467 311.371 305.467 310.864V302.182ZM316.188 309.432V304.273H317.529V313H316.188V311.523H316.097C315.893 311.966 315.575 312.343 315.143 312.653C314.711 312.96 314.165 313.114 313.506 313.114C312.961 313.114 312.476 312.994 312.052 312.756C311.628 312.513 311.294 312.15 311.052 311.665C310.809 311.176 310.688 310.561 310.688 309.818V304.273H312.029V309.727C312.029 310.364 312.207 310.871 312.563 311.25C312.923 311.629 313.381 311.818 313.938 311.818C314.272 311.818 314.611 311.733 314.955 311.562C315.304 311.392 315.595 311.131 315.83 310.778C316.069 310.426 316.188 309.977 316.188 309.432ZM319.985 313V304.273H321.281V305.591H321.371C321.531 305.159 321.818 304.809 322.235 304.54C322.652 304.271 323.121 304.136 323.644 304.136C323.743 304.136 323.866 304.138 324.013 304.142C324.161 304.146 324.273 304.152 324.349 304.159V305.523C324.303 305.511 324.199 305.494 324.036 305.472C323.877 305.445 323.709 305.432 323.531 305.432C323.106 305.432 322.728 305.521 322.394 305.699C322.065 305.873 321.803 306.116 321.61 306.426C321.421 306.733 321.326 307.083 321.326 307.477V313H319.985ZM328.506 313.205C327.953 313.205 327.451 313.1 327.001 312.892C326.55 312.68 326.192 312.375 325.927 311.977C325.662 311.576 325.529 311.091 325.529 310.523C325.529 310.023 325.628 309.617 325.825 309.307C326.022 308.992 326.285 308.746 326.614 308.568C326.944 308.39 327.308 308.258 327.705 308.17C328.107 308.08 328.51 308.008 328.915 307.955C329.446 307.886 329.876 307.835 330.205 307.801C330.539 307.763 330.781 307.701 330.933 307.614C331.088 307.527 331.165 307.375 331.165 307.159V307.114C331.165 306.553 331.012 306.117 330.705 305.807C330.402 305.496 329.942 305.341 329.325 305.341C328.684 305.341 328.183 305.481 327.819 305.761C327.455 306.042 327.2 306.341 327.052 306.659L325.779 306.205C326.006 305.674 326.309 305.261 326.688 304.966C327.071 304.667 327.487 304.458 327.938 304.341C328.393 304.22 328.84 304.159 329.279 304.159C329.559 304.159 329.881 304.193 330.245 304.261C330.612 304.326 330.967 304.46 331.308 304.665C331.652 304.869 331.938 305.178 332.165 305.591C332.393 306.004 332.506 306.557 332.506 307.25V313H331.165V311.818H331.097C331.006 312.008 330.855 312.21 330.643 312.426C330.431 312.642 330.148 312.826 329.796 312.977C329.444 313.129 329.014 313.205 328.506 313.205ZM328.711 312C329.241 312 329.688 311.896 330.052 311.688C330.419 311.479 330.696 311.21 330.881 310.881C331.071 310.551 331.165 310.205 331.165 309.841V308.614C331.109 308.682 330.984 308.744 330.79 308.801C330.601 308.854 330.381 308.902 330.131 308.943C329.885 308.981 329.645 309.015 329.41 309.045C329.179 309.072 328.991 309.095 328.847 309.114C328.499 309.159 328.173 309.233 327.87 309.335C327.571 309.434 327.328 309.583 327.143 309.784C326.961 309.981 326.87 310.25 326.87 310.591C326.87 311.057 327.042 311.409 327.387 311.648C327.736 311.883 328.177 312 328.711 312ZM336.295 301.364V313H334.954V301.364H336.295ZM343.251 316.273V304.273H344.546V305.659H344.705C344.804 305.508 344.94 305.314 345.114 305.08C345.292 304.841 345.546 304.629 345.876 304.443C346.209 304.254 346.66 304.159 347.228 304.159C347.963 304.159 348.611 304.343 349.171 304.71C349.732 305.078 350.169 305.598 350.484 306.273C350.798 306.947 350.955 307.742 350.955 308.659C350.955 309.583 350.798 310.384 350.484 311.062C350.169 311.737 349.734 312.259 349.177 312.631C348.62 312.998 347.978 313.182 347.251 313.182C346.69 313.182 346.241 313.089 345.904 312.903C345.567 312.714 345.308 312.5 345.126 312.261C344.944 312.019 344.804 311.818 344.705 311.659H344.592V316.273H343.251ZM344.569 308.636C344.569 309.295 344.665 309.877 344.859 310.381C345.052 310.881 345.334 311.273 345.705 311.557C346.076 311.837 346.531 311.977 347.069 311.977C347.629 311.977 348.097 311.83 348.472 311.534C348.851 311.235 349.135 310.833 349.325 310.33C349.518 309.822 349.614 309.258 349.614 308.636C349.614 308.023 349.52 307.47 349.33 306.977C349.145 306.481 348.862 306.089 348.484 305.801C348.109 305.509 347.637 305.364 347.069 305.364C346.523 305.364 346.065 305.502 345.694 305.778C345.323 306.051 345.042 306.434 344.853 306.926C344.664 307.415 344.569 307.985 344.569 308.636ZM353.001 313V304.273H354.296V305.591H354.387C354.546 305.159 354.834 304.809 355.251 304.54C355.667 304.271 356.137 304.136 356.66 304.136C356.758 304.136 356.881 304.138 357.029 304.142C357.177 304.146 357.289 304.152 357.364 304.159V305.523C357.319 305.511 357.215 305.494 357.052 305.472C356.893 305.445 356.724 305.432 356.546 305.432C356.122 305.432 355.743 305.521 355.41 305.699C355.08 305.873 354.819 306.116 354.626 306.426C354.436 306.733 354.342 307.083 354.342 307.477V313H353.001ZM362.234 313.182C361.446 313.182 360.754 312.994 360.16 312.619C359.569 312.244 359.107 311.72 358.773 311.045C358.444 310.371 358.279 309.583 358.279 308.682C358.279 307.773 358.444 306.979 358.773 306.301C359.107 305.623 359.569 305.097 360.16 304.722C360.754 304.347 361.446 304.159 362.234 304.159C363.022 304.159 363.711 304.347 364.302 304.722C364.897 305.097 365.359 305.623 365.688 306.301C366.022 306.979 366.188 307.773 366.188 308.682C366.188 309.583 366.022 310.371 365.688 311.045C365.359 311.72 364.897 312.244 364.302 312.619C363.711 312.994 363.022 313.182 362.234 313.182ZM362.234 311.977C362.832 311.977 363.325 311.824 363.711 311.517C364.097 311.21 364.383 310.807 364.569 310.307C364.754 309.807 364.847 309.265 364.847 308.682C364.847 308.098 364.754 307.555 364.569 307.051C364.383 306.547 364.097 306.14 363.711 305.83C363.325 305.519 362.832 305.364 362.234 305.364C361.635 305.364 361.143 305.519 360.756 305.83C360.37 306.14 360.084 306.547 359.898 307.051C359.713 307.555 359.62 308.098 359.62 308.682C359.62 309.265 359.713 309.807 359.898 310.307C360.084 310.807 360.37 311.21 360.756 311.517C361.143 311.824 361.635 311.977 362.234 311.977ZM371.531 313.182C370.803 313.182 370.161 312.998 369.604 312.631C369.048 312.259 368.612 311.737 368.298 311.062C367.983 310.384 367.826 309.583 367.826 308.659C367.826 307.742 367.983 306.947 368.298 306.273C368.612 305.598 369.049 305.078 369.61 304.71C370.171 304.343 370.818 304.159 371.553 304.159C372.121 304.159 372.57 304.254 372.9 304.443C373.233 304.629 373.487 304.841 373.661 305.08C373.839 305.314 373.978 305.508 374.076 305.659H374.19V301.364H375.531V313H374.235V311.659H374.076C373.978 311.818 373.837 312.019 373.656 312.261C373.474 312.5 373.214 312.714 372.877 312.903C372.54 313.089 372.091 313.182 371.531 313.182ZM371.712 311.977C372.25 311.977 372.705 311.837 373.076 311.557C373.447 311.273 373.729 310.881 373.923 310.381C374.116 309.877 374.212 309.295 374.212 308.636C374.212 307.985 374.118 307.415 373.928 306.926C373.739 306.434 373.459 306.051 373.087 305.778C372.716 305.502 372.258 305.364 371.712 305.364C371.144 305.364 370.671 305.509 370.292 305.801C369.917 306.089 369.635 306.481 369.445 306.977C369.26 307.47 369.167 308.023 369.167 308.636C369.167 309.258 369.262 309.822 369.451 310.33C369.644 310.833 369.928 311.235 370.303 311.534C370.682 311.83 371.152 311.977 371.712 311.977ZM383.673 309.432V304.273H385.013V313H383.673V311.523H383.582C383.377 311.966 383.059 312.343 382.627 312.653C382.195 312.96 381.65 313.114 380.991 313.114C380.445 313.114 379.96 312.994 379.536 312.756C379.112 312.513 378.779 312.15 378.536 311.665C378.294 311.176 378.173 310.561 378.173 309.818V304.273H379.513V309.727C379.513 310.364 379.692 310.871 380.048 311.25C380.407 311.629 380.866 311.818 381.423 311.818C381.756 311.818 382.095 311.733 382.44 311.562C382.788 311.392 383.08 311.131 383.315 310.778C383.553 310.426 383.673 309.977 383.673 309.432ZM391.015 313.182C390.197 313.182 389.492 312.989 388.901 312.602C388.31 312.216 387.856 311.684 387.538 311.006C387.219 310.328 387.06 309.553 387.06 308.682C387.06 307.795 387.223 307.013 387.549 306.335C387.879 305.653 388.337 305.121 388.924 304.739C389.515 304.352 390.204 304.159 390.992 304.159C391.606 304.159 392.159 304.273 392.651 304.5C393.144 304.727 393.547 305.045 393.862 305.455C394.176 305.864 394.371 306.341 394.447 306.886H393.106C393.004 306.489 392.776 306.136 392.424 305.83C392.076 305.519 391.606 305.364 391.015 305.364C390.492 305.364 390.034 305.5 389.64 305.773C389.25 306.042 388.945 306.422 388.725 306.915C388.509 307.403 388.401 307.977 388.401 308.636C388.401 309.311 388.507 309.898 388.719 310.398C388.935 310.898 389.238 311.286 389.629 311.562C390.022 311.839 390.485 311.977 391.015 311.977C391.363 311.977 391.68 311.917 391.964 311.795C392.248 311.674 392.488 311.5 392.685 311.273C392.882 311.045 393.022 310.773 393.106 310.455H394.447C394.371 310.97 394.183 311.434 393.884 311.847C393.589 312.256 393.197 312.581 392.708 312.824C392.223 313.062 391.659 313.182 391.015 313.182ZM400.202 304.273V305.409H395.68V304.273H400.202ZM396.998 302.182H398.339V310.5C398.339 310.879 398.394 311.163 398.504 311.352C398.617 311.538 398.761 311.663 398.935 311.727C399.113 311.788 399.301 311.818 399.498 311.818C399.646 311.818 399.767 311.811 399.862 311.795C399.956 311.777 400.032 311.761 400.089 311.75L400.362 312.955C400.271 312.989 400.144 313.023 399.981 313.057C399.818 313.095 399.612 313.114 399.362 313.114C398.983 313.114 398.612 313.032 398.248 312.869C397.888 312.706 397.589 312.458 397.35 312.125C397.115 311.792 396.998 311.371 396.998 310.864V302.182ZM408.245 306.227L407.04 306.568C406.965 306.367 406.853 306.172 406.705 305.983C406.561 305.79 406.364 305.631 406.114 305.506C405.864 305.381 405.544 305.318 405.154 305.318C404.62 305.318 404.175 305.441 403.819 305.688C403.467 305.93 403.29 306.239 403.29 306.614C403.29 306.947 403.412 307.21 403.654 307.403C403.897 307.597 404.275 307.758 404.79 307.886L406.086 308.205C406.866 308.394 407.448 308.684 407.83 309.074C408.213 309.46 408.404 309.958 408.404 310.568C408.404 311.068 408.26 311.515 407.972 311.909C407.688 312.303 407.29 312.614 406.779 312.841C406.268 313.068 405.673 313.182 404.995 313.182C404.105 313.182 403.368 312.989 402.785 312.602C402.201 312.216 401.832 311.652 401.677 310.909L402.95 310.591C403.071 311.061 403.3 311.413 403.637 311.648C403.978 311.883 404.423 312 404.972 312C405.597 312 406.094 311.867 406.461 311.602C406.832 311.333 407.018 311.011 407.018 310.636C407.018 310.333 406.912 310.08 406.7 309.875C406.487 309.667 406.162 309.511 405.722 309.409L404.268 309.068C403.469 308.879 402.881 308.585 402.506 308.188C402.135 307.786 401.95 307.284 401.95 306.682C401.95 306.189 402.088 305.754 402.364 305.375C402.645 304.996 403.025 304.699 403.506 304.483C403.991 304.267 404.54 304.159 405.154 304.159C406.018 304.159 406.696 304.348 407.188 304.727C407.684 305.106 408.037 305.606 408.245 306.227ZM411.4 313.091C411.12 313.091 410.879 312.991 410.678 312.79C410.478 312.589 410.377 312.348 410.377 312.068C410.377 311.788 410.478 311.547 410.678 311.347C410.879 311.146 411.12 311.045 411.4 311.045C411.68 311.045 411.921 311.146 412.121 311.347C412.322 311.547 412.423 311.788 412.423 312.068C412.423 312.254 412.375 312.424 412.281 312.58C412.19 312.735 412.067 312.86 411.911 312.955C411.76 313.045 411.589 313.091 411.4 313.091Z" fill="#E5E7EB"/>
<g opacity="0.04">
<path d="M526.233 390.212C532.146 383.319 524.908 375.471 519.124 379.809C501.222 393.045 470.002 399.722 446.263 393.939C446.145 393.912 446.021 393.913 445.903 393.942C445.784 393.971 445.674 394.028 445.582 394.107C445.49 394.187 445.417 394.287 445.371 394.4C445.324 394.513 445.305 394.635 445.315 394.756C445.321 395.162 445.414 395.561 445.587 395.928C445.76 396.295 446.01 396.62 446.319 396.882C455.943 405.005 482.196 412.787 491.511 405.756C363.07 502.628 252.673 438.176 163.597 328.918C116.162 274.015 82.5303 208.332 35.8387 152.872C-11.1104 99.4357 -77.2204 52.3048 -151.098 54.5856C-151.303 54.5857 -151.505 54.6363 -151.686 54.733C-151.867 54.8296 -152.022 54.9693 -152.136 55.1397C-152.251 55.3101 -152.322 55.506 -152.342 55.7102C-152.363 55.9144 -152.334 56.1205 -152.256 56.3106C-152.133 56.6498 -151.908 56.9426 -151.612 57.149C-151.315 57.3554 -150.963 57.4654 -150.602 57.4639C-78.0165 57.3866 -15.1397 104.294 29.5446 158.095C74.827 214.95 106.02 281.429 152.489 337.724C242.091 456.611 364.206 527.895 494.657 412.632C490.853 416.007 487.7 445.926 497.897 458.86C498.189 459.23 498.608 459.479 499.073 459.558C499.538 459.637 500.016 459.54 500.414 459.287L500.461 459.246C500.687 459.1 500.847 458.872 500.908 458.609C500.969 458.347 500.926 458.072 500.788 457.841C491.765 441.665 514.315 404.064 526.233 390.212Z" fill="white"/>
<path d="M165.38 293.8C202.275 340.13 265.292 401.592 320.111 422.105C320.26 422.191 320.376 422.325 320.44 422.484C320.503 422.644 320.511 422.821 320.462 422.986C320.413 423.151 320.309 423.294 320.168 423.393C320.027 423.491 319.857 423.54 319.686 423.53C261.499 408.644 196.441 345.484 164.206 294.663C164.143 294.508 164.133 294.336 164.179 294.175C164.224 294.014 164.322 293.873 164.457 293.774C164.592 293.675 164.756 293.624 164.923 293.629C165.09 293.633 165.251 293.694 165.38 293.8Z" fill="white"/>
<path d="M157.385 278.473C157.428 278.723 157.395 278.98 157.29 279.21C157.184 279.44 157.011 279.633 156.794 279.763C156.576 279.893 156.324 279.954 156.072 279.938C155.819 279.922 155.577 279.83 155.377 279.673C154.903 279.123 154.421 278.563 154.004 277.964C152.549 276.042 151.201 274.042 149.967 271.971C148.73 269.9 147.615 267.76 146.627 265.56C146.322 264.88 146.035 264.202 145.758 263.515C145.71 263.263 145.741 263.003 145.845 262.769C145.95 262.535 146.125 262.339 146.345 262.207C146.564 262.075 146.82 262.014 147.075 262.032C147.331 262.05 147.575 262.146 147.775 262.307C148.265 262.876 148.747 263.436 149.163 264.053C152.08 267.897 154.555 272.058 156.541 276.457C156.879 277.157 157.148 277.834 157.385 278.473Z" fill="white"/>
</g>
</g>
<defs>
<clipPath id="clip0_119_22380">
<rect width="583" height="563" fill="white"/>
</clipPath>
</defs>
</svg>
