<svg width="16" height="17" viewBox="0 0 16 17" fill="none" xmlns="http://www.w3.org/2000/svg">
<g clip-path="url(#clip0_119_16180)">
<path d="M8 16.5C12.4183 16.5 16 12.9183 16 8.5C16 4.08172 12.4183 0.5 8 0.5C3.58172 0.5 0 4.08172 0 8.5C0 12.9183 3.58172 16.5 8 16.5Z" fill="#F0F0F0"/>
<path d="M15.9999 8.5C15.9999 4.08175 12.4182 0.5 7.99993 0.5C6.43493 0.5 4.97512 0.949844 3.74206 1.72659L5.49559 2.47162L3.13037 3.47656L5.49559 4.48147L3.13037 5.48634L5.49559 6.49119L3.13037 7.49591L5.49559 8.50056L3.13037 9.50544L5.49559 10.5103L3.13037 11.515L5.49559 12.5198L3.13037 13.5247L5.49559 14.5294L3.74284 15.274C4.97575 16.0504 6.43525 16.5 7.99993 16.5C12.4182 16.5 15.9999 12.9183 15.9999 8.5Z" fill="#751A46"/>
</g>
<defs>
<clipPath id="clip0_119_16180">
<rect width="16" height="16" fill="white" transform="translate(0 0.5)"/>
</clipPath>
</defs>
</svg>
