<svg width="64" height="64" viewBox="0 0 64 64" fill="none" xmlns="http://www.w3.org/2000/svg">
<path d="M16 51.28C15.0969 51.28 14.3236 50.96 13.68 50.32C13.04 49.6764 12.72 48.9031 12.72 48C12.72 47.0969 13.04 46.3235 13.68 45.68C14.3236 45.04 15.0969 44.72 16 44.72C16.9031 44.72 17.6764 45.04 18.32 45.68C18.96 46.3235 19.28 47.0969 19.28 48C19.28 48.9031 18.96 49.6764 18.32 50.32C17.6764 50.96 16.9031 51.28 16 51.28ZM16 35.28C15.0969 35.28 14.3236 34.96 13.68 34.32C13.04 33.6764 12.72 32.9031 12.72 32C12.72 31.0969 13.04 30.3235 13.68 29.68C14.3236 29.04 15.0969 28.72 16 28.72C16.9031 28.72 17.6764 29.04 18.32 29.68C18.96 30.3235 19.28 31.0969 19.28 32C19.28 32.9031 18.96 33.6764 18.32 34.32C17.6764 34.96 16.9031 35.28 16 35.28ZM16 19.28C15.0969 19.28 14.3236 18.96 13.68 18.32C13.04 17.6764 12.72 16.9031 12.72 16C12.72 15.0969 13.04 14.3235 13.68 13.68C14.3236 13.04 15.0969 12.72 16 12.72C16.9031 12.72 17.6764 13.04 18.32 13.68C18.96 14.3235 19.28 15.0969 19.28 16C19.28 16.9031 18.96 17.6764 18.32 18.32C17.6764 18.96 16.9031 19.28 16 19.28ZM32 19.28C31.0969 19.28 30.3236 18.96 29.68 18.32C29.04 17.6764 28.72 16.9031 28.72 16C28.72 15.0969 29.04 14.3235 29.68 13.68C30.3236 13.04 31.0969 12.72 32 12.72C32.9031 12.72 33.6764 13.04 34.32 13.68C34.96 14.3235 35.28 15.0969 35.28 16C35.28 16.9031 34.96 17.6764 34.32 18.32C33.6764 18.96 32.9031 19.28 32 19.28ZM48 19.28C47.0969 19.28 46.3236 18.96 45.68 18.32C45.04 17.6764 44.72 16.9031 44.72 16C44.72 15.0969 45.04 14.3235 45.68 13.68C46.3236 13.04 47.0969 12.72 48 12.72C48.9031 12.72 49.6764 13.04 50.32 13.68C50.96 14.3235 51.28 15.0969 51.28 16C51.28 16.9031 50.96 17.6764 50.32 18.32C49.6764 18.96 48.9031 19.28 48 19.28ZM32 35.28C31.0969 35.28 30.3236 34.96 29.68 34.32C29.04 33.6764 28.72 32.9031 28.72 32C28.72 31.0969 29.04 30.3235 29.68 29.68C30.3236 29.04 31.0969 28.72 32 28.72C32.9031 28.72 33.6764 29.04 34.32 29.68C34.96 30.3235 35.28 31.0969 35.28 32C35.28 32.9031 34.96 33.6764 34.32 34.32C33.6764 34.96 32.9031 35.28 32 35.28ZM35.28 51.28V45.3893L49.5013 31.2346C49.7662 30.9715 50.0382 30.7937 50.3173 30.7013C50.5964 30.6089 50.8764 30.5635 51.1573 30.5653C51.4631 30.5653 51.7636 30.6222 52.0587 30.736C52.352 30.8497 52.6196 31.0213 52.8613 31.2506L55.328 33.768C55.5467 34.0329 55.7138 34.3066 55.8293 34.5893C55.9449 34.872 56.0018 35.1564 56 35.4426C56 35.7253 55.9449 36.0115 55.8347 36.3013C55.7262 36.5893 55.5573 36.8649 55.328 37.128L41.1733 51.2826L35.28 51.28ZM37.64 48.9226H40.1733L49.4213 39.6613L48.168 38.3946L46.9547 37.0933L37.64 46.3893V48.9226ZM48.168 38.3946L46.9547 37.0933L49.4213 39.6613L48.168 38.3946Z" fill="#5AC777"/>
</svg>
