<svg width="16" height="17" viewBox="0 0 16 17" fill="none" xmlns="http://www.w3.org/2000/svg">
<g clip-path="url(#clip0_119_16183)">
<path d="M8 16.5C12.4183 16.5 16 12.9183 16 8.5C16 4.08172 12.4183 0.5 8 0.5C3.58172 0.5 0 4.08172 0 8.5C0 12.9183 3.58172 16.5 8 16.5Z" fill="#F0F0F0"/>
<path d="M2.3429 14.1568C-0.781291 11.0325 -0.781291 5.96724 2.3429 2.84302C2.34268 2.84336 6.9563 8.49989 6.9563 8.49989L2.3429 14.1568Z" fill="black"/>
<path d="M6.95658 8.50008L1.06108 4.51611C0.878301 4.83383 0.717113 5.16546 0.578613 5.50871L3.56327 8.50011L0.578707 11.4917C0.717082 11.8347 0.878113 12.1661 1.06077 12.4836L6.95658 8.50008Z" fill="#FFDA44"/>
<path d="M15.9324 7.45654H6.95638L2.34313 2.84326C1.84601 3.34039 1.4141 3.90261 1.0611 4.51607L5.03732 8.50001L1.06079 12.4834C1.41379 13.0971 1.84588 13.6595 2.34313 14.1567L6.95638 9.54348H15.9324C15.9768 9.20192 16.0001 8.85367 16.0001 8.50001C16.0001 8.14635 15.9768 7.7981 15.9324 7.45654Z" fill="#6DA544"/>
<path d="M3.12915 14.8454C4.47818 15.8823 6.16684 16.4992 7.99984 16.4992C11.6961 16.4992 14.8062 13.9923 15.7242 10.5862H7.38837L3.12915 14.8454Z" fill="#0052B4"/>
<path d="M15.7242 6.41254C14.8062 3.00642 11.6961 0.499512 7.99984 0.499512C6.16684 0.499512 4.47818 1.11642 3.12915 2.15336L7.38834 6.41254H15.7242Z" fill="#D80027"/>
</g>
<defs>
<clipPath id="clip0_119_16183">
<rect width="16" height="16" fill="white" transform="translate(0 0.5)"/>
</clipPath>
</defs>
</svg>
