<svg width="16" height="17" viewBox="0 0 16 17" fill="none" xmlns="http://www.w3.org/2000/svg">
<g clip-path="url(#clip0_119_16159)">
<path d="M0 8.49949C0 9.47805 0.176031 10.4154 0.497594 11.2821L8 11.9777L15.5024 11.2821C15.824 10.4154 16 9.47805 16 8.49949C16 7.52093 15.824 6.58355 15.5024 5.7169L8 5.02124L0.497594 5.7169C0.176031 6.58355 0 7.52093 0 8.49949Z" fill="#FFDA44"/>
<path d="M15.5036 5.71716C14.3732 2.67079 11.4409 0.499756 8.00119 0.499756C4.56147 0.499756 1.62912 2.67079 0.498779 5.71716H15.5036Z" fill="#D80027"/>
<path d="M0.498047 11.2827C1.62839 14.3291 4.56073 16.5001 8.00045 16.5001C11.4402 16.5001 14.3725 14.3291 15.5029 11.2827H0.498047Z" fill="#D80027"/>
</g>
<defs>
<clipPath id="clip0_119_16159">
<rect width="16" height="16" fill="white" transform="translate(0 0.5)"/>
</clipPath>
</defs>
</svg>
