<svg width="977" height="1039" viewBox="0 0 977 1039" fill="none" xmlns="http://www.w3.org/2000/svg">
<g opacity="0.04">
<path d="M937.578 734.602C945.734 725.092 935.749 714.266 927.77 720.249C903.072 738.511 860.001 747.722 827.252 739.744C827.088 739.706 826.917 739.707 826.754 739.747C826.591 739.788 826.439 739.866 826.311 739.976C826.184 740.086 826.084 740.224 826.02 740.379C825.956 740.535 825.929 740.703 825.943 740.871C825.951 741.431 826.079 741.982 826.318 742.488C826.557 742.994 826.902 743.442 827.329 743.804C840.605 755.01 876.824 765.746 889.675 756.046C712.478 889.69 560.176 800.772 437.286 650.041C371.846 574.298 325.448 483.682 261.032 407.17C196.261 333.449 105.056 268.427 3.13569 271.574C2.85251 271.574 2.57373 271.644 2.32387 271.777C2.07404 271.91 1.86078 272.103 1.70289 272.338C1.54501 272.573 1.44732 272.843 1.41844 273.125C1.38956 273.407 1.43038 273.691 1.53729 273.954C1.70767 274.421 2.01835 274.825 2.42682 275.11C2.83532 275.395 3.32174 275.547 3.81969 275.545C103.958 275.438 190.703 340.152 252.349 414.375C314.82 492.812 357.854 584.525 421.963 662.19C545.577 826.205 714.045 924.548 894.015 765.532C888.768 770.188 884.417 811.465 898.485 829.308C898.888 829.819 899.466 830.162 900.108 830.271C900.749 830.38 901.408 830.247 901.957 829.897L902.023 829.841C902.334 829.639 902.555 829.324 902.639 828.963C902.723 828.601 902.664 828.221 902.473 827.902C890.025 805.586 921.135 753.712 937.578 734.602Z" fill="white"/>
<path d="M439.747 601.593C490.647 665.509 577.585 750.302 653.213 778.601C653.419 778.72 653.579 778.904 653.666 779.125C653.754 779.345 653.765 779.589 653.697 779.816C653.629 780.044 653.486 780.242 653.292 780.378C653.098 780.514 652.863 780.58 652.626 780.567C572.352 760.031 482.599 672.896 438.127 602.783C438.04 602.569 438.027 602.332 438.09 602.11C438.153 601.888 438.288 601.693 438.474 601.557C438.66 601.42 438.886 601.349 439.116 601.356C439.347 601.362 439.569 601.446 439.747 601.593Z" fill="white"/>
<path d="M428.716 580.448C428.777 580.792 428.731 581.146 428.585 581.464C428.44 581.782 428.201 582.048 427.901 582.228C427.601 582.407 427.254 582.491 426.905 582.469C426.556 582.447 426.222 582.319 425.947 582.103C425.293 581.344 424.628 580.572 424.053 579.745C422.045 577.094 420.185 574.334 418.483 571.477C416.777 568.621 415.238 565.667 413.874 562.632C413.454 561.695 413.059 560.759 412.676 559.811C412.61 559.464 412.652 559.105 412.797 558.782C412.942 558.459 413.182 558.189 413.485 558.007C413.789 557.825 414.141 557.741 414.494 557.765C414.846 557.79 415.183 557.922 415.458 558.145C416.135 558.93 416.8 559.702 417.374 560.554C421.398 565.857 424.813 571.598 427.552 577.666C428.019 578.632 428.39 579.566 428.716 580.448Z" fill="white"/>
</g>
</svg>
