<svg width="16" height="17" viewBox="0 0 16 17" fill="none" xmlns="http://www.w3.org/2000/svg">
<g clip-path="url(#clip0_119_16174)">
<path d="M8 16.5C12.4183 16.5 16 12.9183 16 8.5C16 4.08172 12.4183 0.5 8 0.5C3.58172 0.5 0 4.08172 0 8.5C0 12.9183 3.58172 16.5 8 16.5Z" fill="#F0F0F0"/>
<path d="M4.52173 11.282L5.21738 16.0019C6.08401 16.3235 7.02142 16.4994 7.99998 16.4994C11.4397 16.4994 14.372 14.3284 15.5024 11.282H4.52173Z" fill="black"/>
<path d="M4.52173 5.71765L5.21738 0.997775C6.08401 0.676182 7.02142 0.500244 7.99998 0.500244C11.4397 0.500244 14.372 2.67124 15.5024 5.71765H4.52173Z" fill="#6DA544"/>
<path d="M0.000244141 8.49996C0.000244141 11.9397 2.17128 14.872 5.21765 16.0024V0.997559C2.17128 2.1279 0.000244141 5.06025 0.000244141 8.49996Z" fill="#A2001D"/>
</g>
<defs>
<clipPath id="clip0_119_16174">
<rect width="16" height="16" fill="white" transform="translate(0 0.5)"/>
</clipPath>
</defs>
</svg>
