<svg width="16" height="17" viewBox="0 0 16 17" fill="none" xmlns="http://www.w3.org/2000/svg">
<g clip-path="url(#clip0_119_16153)">
<path d="M8 16.5C12.4183 16.5 16 12.9183 16 8.5C16 4.08172 12.4183 0.5 8 0.5C3.58172 0.5 0 4.08172 0 8.5C0 12.9183 3.58172 16.5 8 16.5Z" fill="#F0F0F0"/>
<path d="M1.65379 3.62866C1.02538 4.44626 0.551541 5.3886 0.275635 6.41232H4.43745L1.65379 3.62866Z" fill="#0052B4"/>
<path d="M15.7247 6.41229C15.4488 5.3886 14.975 4.44626 14.3466 3.62866L11.563 6.41229H15.7247Z" fill="#0052B4"/>
<path d="M0.275635 10.5867C0.551572 11.6104 1.02542 12.5527 1.65379 13.3703L4.43736 10.5867H0.275635Z" fill="#0052B4"/>
<path d="M12.8703 2.15309C12.0527 1.52468 11.1104 1.05084 10.0867 0.774902V4.93669L12.8703 2.15309Z" fill="#0052B4"/>
<path d="M3.12939 14.8451C3.94699 15.4735 4.88933 15.9473 5.91302 16.2233V12.0615L3.12939 14.8451Z" fill="#0052B4"/>
<path d="M5.91299 0.774902C4.8893 1.05084 3.94696 1.52468 3.12939 2.15306L5.91299 4.93665V0.774902Z" fill="#0052B4"/>
<path d="M10.0867 16.2233C11.1104 15.9473 12.0527 15.4735 12.8703 14.8451L10.0867 12.0615V16.2233Z" fill="#0052B4"/>
<path d="M11.563 10.5867L14.3466 13.3703C14.975 12.5527 15.4488 11.6104 15.7247 10.5867H11.563Z" fill="#0052B4"/>
<path d="M15.9323 7.45653H9.04353H9.0435V0.567719C8.70191 0.52325 8.35366 0.5 8 0.5C7.64628 0.5 7.29809 0.52325 6.95653 0.567719V7.45647V7.4565H0.0677188C0.02325 7.79809 0 8.14634 0 8.5C0 8.85372 0.02325 9.20191 0.0677188 9.54347H6.95647H6.9565V16.4323C7.29809 16.4768 7.64628 16.5 8 16.5C8.35366 16.5 8.70191 16.4768 9.04347 16.4323V9.54353V9.5435H15.9323C15.9768 9.20191 16 8.85372 16 8.5C16 8.14634 15.9768 7.79809 15.9323 7.45653Z" fill="#D80027"/>
<path d="M10.0869 10.5874L13.6568 14.1573C13.821 13.9932 13.9776 13.8216 14.127 13.6437L11.0707 10.5874H10.0869V10.5874Z" fill="#D80027"/>
<path d="M5.91292 10.5874H5.91286L2.34302 14.1572C2.50714 14.3214 2.67874 14.4781 2.85661 14.6275L5.91292 11.5711V10.5874Z" fill="#D80027"/>
<path d="M5.91293 6.41274V6.41268L2.34305 2.84277C2.17887 3.0069 2.02224 3.17849 1.8728 3.35637L4.92915 6.41271H5.91293V6.41274Z" fill="#D80027"/>
<path d="M10.0869 6.41345L13.6568 2.84351C13.4927 2.67932 13.3211 2.5227 13.1432 2.37329L10.0869 5.42964V6.41345Z" fill="#D80027"/>
</g>
<defs>
<clipPath id="clip0_119_16153">
<rect width="16" height="16" fill="white" transform="translate(0 0.5)"/>
</clipPath>
</defs>
</svg>
