<svg width="52" height="56" viewBox="0 0 52 56" fill="none" xmlns="http://www.w3.org/2000/svg">
<g clip-path="url(#clip0_119_10548)">
<mask id="mask0_119_10548" style="mask-type:luminance" maskUnits="userSpaceOnUse" x="0" y="0" width="52" height="56">
<path d="M51.1664 0H0.547119V56H51.1664V0Z" fill="white"/>
</mask>
<g mask="url(#mask0_119_10548)">
<path d="M7.06666 49.2348C6.98384 48.9708 6.74195 48.3774 6.67607 47.9393C6.53066 46.9689 7.03795 46.3299 7.50384 46.1835C8.02666 46.0376 8.23089 46.3002 8.43325 46.9106C8.69489 47.84 8.72407 49.0579 8.63607 50.8014C8.52172 53.183 7.33019 56.0593 4.36831 55.9995C1.8116 55.9435 0.680306 54.2875 0.562659 51.7609C0.50713 50.5699 0.592306 49.3793 1.08548 47.6955C1.34713 46.7939 1.58054 46.4729 2.39231 46.3002C3.03042 46.1835 2.97301 46.8508 2.82854 47.6376C2.51042 49.3793 2.36266 50.2202 2.48031 52.1962C2.59419 54.2875 3.55466 55.1012 4.60031 55.1012C6.16878 55.1313 6.86525 53.8245 7.15701 51.9346C7.38713 50.4249 7.21348 49.6988 7.06666 49.2348ZM40.5085 51.2974C41.1194 51.2974 41.2944 52.0198 41.1485 52.4574C41.0027 52.8922 40.4808 53.3882 39.6681 53.5327C39.493 53.096 39.4055 51.2974 40.5085 51.2974ZM29.1551 52.2819C29.1551 51.7901 28.8921 51.383 28.5754 51.383C28.3109 51.383 27.7034 51.6725 27.7034 52.6023C27.7034 53.3308 27.9622 53.6762 28.0808 53.8245C28.9208 53.5619 29.1551 52.863 29.1551 52.2819ZM20.1208 46.3581C20.0798 45.8922 19.7147 45.575 19.2205 45.575C18.6695 45.575 18.1504 46.1534 18.2055 46.88C18.2408 47.359 18.5231 47.7529 19.078 47.7529C19.7147 47.7534 20.1791 47.0273 20.1208 46.3581ZM24.8441 48.064C24.7937 47.2518 24.597 46.8852 24.1608 46.9153C23.5824 46.9501 23.3151 48.7699 23.4332 50.6828C23.5085 51.9308 23.6944 52.1233 23.8676 52.111C24.1876 52.0918 24.9551 49.8621 24.8441 48.064ZM44.1104 51.1214C43.7504 52.6146 42.6591 54.8113 41.0309 54.8113C40.6539 54.8113 39.9857 54.6649 39.9857 54.2875C39.9857 53.8805 42.5434 53.8245 42.5434 51.8772C42.5434 51.152 41.8756 50.1341 40.8874 50.1341C39.5805 50.1341 38.3057 51.5586 38.3057 53.5332C38.3057 55.3035 39.4055 55.8847 40.509 55.8847C42.4267 55.8847 43.5885 54.3153 44.198 53.0094C44.4897 53.8809 44.661 55.8847 45.3899 55.8847C45.6794 55.8847 45.8841 55.7393 46.2328 54.9562C47.102 53.0089 47.9452 50.7727 49.1076 50.7727C49.542 50.7727 49.2817 51.5586 50.3269 51.5586C50.8196 51.5586 51.1669 51.152 51.1669 50.6852C51.1669 50.0165 50.558 49.4955 49.6295 49.4955C46.8987 49.4955 46.3198 53.591 45.8836 53.591C45.157 53.591 45.3895 50.3087 44.8657 50.3087C44.4008 50.3082 44.1725 50.8621 44.1104 51.1214ZM20.8765 54.6061C21.3118 54.6061 22.0605 54.4649 22.6497 53.5214C22.3128 52.7732 22.0723 51.2612 22.0389 50.7106C21.8657 47.895 22.9504 45.2466 24.1377 45.1732C25.0083 45.1205 25.7048 45.9445 25.7848 47.2795C25.9989 50.7878 24.8304 52.2522 24.2455 53.5158C24.3443 54.0056 25.1754 54.8395 25.9594 54.8395C26.2488 54.8395 26.5989 54.6941 26.6869 54.5765C26.6285 54.3746 26.5692 54.1134 26.5692 53.7346C26.5692 51.7016 27.8765 49.9873 29.0097 49.9873C29.91 49.9873 30.4328 51.1779 30.4328 51.9638C30.4328 52.8918 29.6478 53.6485 28.4869 54.3746C28.6911 54.5765 29.0667 54.7233 29.3876 54.7233C31.0445 54.7233 31.9114 52.7186 32.5532 50.888C32.669 50.5388 32.8737 50.0461 33.2794 50.0461C33.9763 50.0461 34.2681 54.6353 35.4267 54.6353C35.9222 54.6353 36.3278 53.6179 36.3278 52.8358C36.3278 52.2541 36.1245 52.1958 36.1245 51.3534C36.1245 50.4249 36.6187 49.6414 37.2883 49.6414C37.6944 49.6414 37.8412 50.0461 37.8412 50.5388C37.8412 52.3981 36.5034 55.855 34.5311 55.855C33.0474 55.855 33.1631 53.2988 32.6408 53.2988C32.0572 53.2988 31.2441 55.8838 28.3716 55.8838C27.9048 55.8838 27.4121 55.6518 27.0064 55.1859C26.3104 55.6518 25.7278 55.855 25.0596 55.855C23.9862 55.855 23.5203 54.751 23.086 54.751C22.5622 54.751 21.9829 55.8838 20.2384 55.8838C18.8445 55.8838 18.6121 54.0268 18.1194 54.0268C17.6827 54.0268 17.0149 55.8838 16.2892 55.8838C15.0676 55.8838 14.8088 52.6607 13.7321 52.6607C12.8902 52.6607 10.229 55.9341 9.50666 55.8593C9.21631 55.8292 9.09395 55.6122 9.12454 55.3214C9.16548 54.9195 9.51136 53.8438 9.6516 53.335C9.88642 52.4518 10.102 51.4838 10.2224 51.175C10.342 50.8635 10.6643 50.6414 10.9231 50.6654C11.0535 50.6776 11.0925 50.9209 11.133 51.1219C11.2798 51.84 11.4845 52.5722 11.7156 52.5722C12.1236 52.5722 13.4709 49.9868 14.2549 49.9868C15.2149 49.9868 15.3297 54.0541 16.6361 54.0541C17.0728 54.0541 17.3932 53.5322 17.6827 52.8913C17.7123 51.815 18.0027 50.279 18.8737 50.279C19.4841 50.279 19.7749 51.6428 19.3377 52.8353C19.3368 54.2574 20.2652 54.6061 20.8765 54.6061Z" fill="#A6A097"/>
</g>
<path d="M41.1061 9.06066C40.8906 9.06066 40.5819 9.06066 40.412 8.72231C40.2727 8.44466 40.3197 7.99713 40.0576 7.79713C40.3197 7.87384 40.5969 7.87384 40.8124 7.87384C41.507 7.87384 42.1706 7.39619 42.6797 7.39619C43.0153 7.39619 43.1235 7.61219 43.1235 7.82725C43.124 8.50631 41.7546 9.06066 41.1061 9.06066ZM41.4449 10.8023C43.0463 10.8023 44.5127 9.52325 44.5127 8.39854C44.5127 7.87384 44.2651 7.44278 43.6331 7.3656C43.7409 7.50442 43.787 7.61219 43.787 7.85878C43.787 8.70678 42.4953 9.64701 41.091 9.64701C40.5819 9.64701 40.4275 10.0009 40.4275 10.1858C40.4275 10.6178 40.8444 10.8023 41.4449 10.8023ZM41.3221 11.4498C41.523 12.9134 43.7409 14.8865 44.3419 14.84C44.7437 14.8061 44.8976 12.9289 44.8976 11.4498C44.8976 10.6023 44.9442 9.93925 44.4967 9.78489C43.7866 11.2188 41.924 11.5115 41.3221 11.4498Z" fill="#A6A097"/>
<path d="M6.63323 21.1435C7.15652 21.1435 7.04876 17.9374 7.89629 17.9374C8.09723 17.9374 8.15888 18.1379 8.15888 18.3845C8.15888 19.1087 7.80405 20.1727 7.80405 20.7576C7.80405 21.0508 7.88123 21.1435 8.02005 21.1435C8.39041 21.1435 9.03747 17.6136 9.66899 17.6136C9.86947 17.6136 9.9617 17.8141 9.9617 18.0146C9.9617 18.7544 9.02241 20.8809 9.02241 21.4819C9.02241 21.5746 9.05252 21.6513 9.13017 21.6513C9.51558 21.6513 10.2859 19.9873 10.5321 19.1553C10.6709 18.7233 10.8558 18.4918 11.0257 18.4918C11.1796 18.4918 11.3189 18.6616 11.3189 19.0165C11.3189 19.8485 10.5476 21.8056 9.86946 23.1162C9.34617 24.1332 8.52923 25.5962 8.52923 26.4132C8.52923 26.8296 8.60499 27.2607 9.20641 27.7849C8.22005 27.7233 7.81958 27.6311 7.45017 26.8607C5.80076 30.1431 10.4859 29.8198 8.88311 32.7313C8.58994 32.2085 6.27888 31.6687 6.27888 28.6174C6.27888 25.9821 8.58994 24.4409 8.58994 23.3473C8.58994 23.1318 8.5137 22.9468 8.31323 22.7774C7.80405 22.3449 7.78852 21.9915 7.38805 21.9915C7.09582 21.9915 6.74005 22.6692 7.11041 23.2701C7.23417 23.4706 7.34194 23.5939 7.34194 23.7788C7.34194 24.2099 6.66335 25.3652 6.18617 25.3652C5.70805 25.3652 5.33911 24.1802 5.33911 22.2682C5.33911 20.5722 5.72358 18.8626 6.2017 18.8626C6.34005 18.8626 6.38617 18.9548 6.38617 19.0786C6.38617 19.2791 6.32499 19.6791 6.32499 20.3572C6.32499 21.0814 6.49441 21.1435 6.63323 21.1435Z" fill="#A6A097"/>
<path d="M10.5622 25.6584C11.2102 25.6584 11.749 25.1798 11.749 24.1181V22.5454C11.749 21.9445 11.7956 21.2668 12.1965 20.7883C12.15 20.9892 12.15 21.2047 12.15 21.4052C12.15 22.7308 12.8892 23.6405 12.8892 24.9191C12.8892 25.3963 12.7504 25.6588 12.3815 25.6588C12.0267 25.6588 12.0577 25.3351 11.9801 25.3351C11.9189 25.3351 11.8262 25.5351 11.8262 25.7511C11.8262 26.0748 12.0572 26.5831 12.7043 26.5831C13.2596 26.5831 13.7057 26.0748 13.7057 25.5045C13.7057 24.1186 12.6271 22.5765 12.6271 21.0974C12.6271 20.4499 12.7965 20.0188 12.9354 19.6791C12.9354 22.7464 15.5396 24.9807 15.5396 26.2593C15.5396 26.5525 15.3241 26.784 15.0003 26.784C14.646 26.784 14.4761 26.5059 14.4761 26.2899C14.4761 26.1821 14.4605 26.1516 14.4144 26.1516C14.3227 26.1516 14.045 26.4598 14.045 26.8612C14.045 27.369 14.4605 27.9864 15.2314 27.9864C16.109 27.9864 16.5871 27.2457 16.5871 26.5831C16.5871 24.9657 13.4281 22.5148 13.4281 19.8956C13.4281 19.448 13.5043 18.7238 13.829 18.1694C11.7947 19.4786 11.1631 21.2207 11.1631 22.7464C11.1631 24.072 11.117 24.7337 10.4389 24.7337C10.0841 24.7337 9.99184 24.4108 9.86807 24.4108C9.77584 24.4108 9.72925 24.688 9.72925 24.7647C9.73019 25.3346 10.1467 25.6584 10.5622 25.6584Z" fill="#A6A097"/>
<path d="M33.9103 8.30587C34.1061 8.17458 34.9748 8.38258 36.0981 7.82728C36.2365 7.75152 36.3753 7.72046 36.4986 7.72046C37.0388 7.72046 36.9 8.33646 37.3936 8.33646C37.7781 8.33646 38.2727 8.01269 38.5659 8.01269C39.0252 8.01269 39.6882 9.46164 39.6882 10.1398C39.6882 10.9256 38.5037 11.4038 37.1005 11.4038C35.052 11.4038 33.8176 9.61599 33.8176 8.45975C33.8181 8.36752 33.8647 8.33646 33.9103 8.30587ZM37.2703 10.263C37.9489 10.263 38.4576 9.95481 38.4576 9.7694C38.4576 9.70869 38.3654 9.66211 38.1645 9.66211C37.964 9.66211 37.563 9.64705 36.8073 9.52328C36.1588 9.41552 35.6656 9.16893 35.4807 9.16893C35.419 9.16893 35.388 9.19952 35.388 9.24564C35.388 9.64705 36.1287 10.263 37.2703 10.263Z" fill="#A6A097"/>
<path d="M10.8864 31.4682C10.3782 31.592 9.56079 32.392 9.56079 33.6574C9.56079 35.1666 11.1791 37.4946 13.845 37.4946C16.0944 37.4946 16.6497 35.9379 16.6497 34.8889C16.6497 32.5623 15.2173 30.9285 13.3528 30.9285C12.3354 30.9285 11.4257 31.6682 11.4257 32.7619C11.4257 33.7802 12.1966 35.3054 14.03 35.3054C14.893 35.3054 15.4013 34.688 15.4013 33.9812C15.4013 33.2871 14.7697 32.3322 13.8446 32.3322C13.5674 32.3322 13.3674 32.5153 13.3674 32.8094C13.3674 33.1783 13.8751 33.5492 14.5076 33.5492C14.661 33.5492 14.7848 33.5181 14.8469 33.4871C14.877 33.5346 14.893 33.6108 14.893 33.6725C14.893 34.0273 14.5537 34.2433 14.03 34.2433C13.2441 34.2433 12.4888 33.6579 12.4888 32.7313C12.4888 32.1779 12.9669 31.7774 13.6601 31.7774C15.0314 31.7774 15.8479 32.9944 15.8479 34.2127C15.8479 35.3059 15.2479 35.9388 14.0144 35.9388C11.5486 35.9384 10.3476 33.7186 10.8864 31.4682Z" fill="#A6A097"/>
<path d="M28.4779 40.4979C29.2172 40.4979 29.1786 40.4362 29.4101 40.4362C29.6407 40.4362 29.6567 40.5751 29.6567 40.6678C29.6567 41.0071 28.9009 41.4231 27.5602 41.4231C26.7743 41.4231 26.2962 41.0066 26.1579 40.5445C25.3875 41.0376 24.2167 41.4847 23.0605 41.4847C19.9019 41.4847 19.1005 40.112 18.1136 39.6664C17.3583 39.3271 16.2026 39.9901 14.5842 38.1868C14.8002 38.2334 15.0934 38.2485 15.3245 38.2485C16.7414 38.2485 17.4967 37.5562 17.4967 36.4456C17.4967 36.3064 17.4812 36.1539 17.4656 36.0155C17.8976 36.1849 18.8845 36.9238 19.116 38.2334C19.1461 38.3878 19.7776 38.5261 20.1786 38.5261C20.7339 38.5261 21.4426 38.2946 21.5503 37.3864C23.3998 37.2325 24.6487 36.1388 24.9108 34.7501C25.5725 34.9661 26.3278 35.5671 26.5127 35.8762C26.7748 35.784 27.0826 35.7374 27.4369 35.7374C27.9301 35.7374 28.4854 35.8301 29.1475 36.0306C29.1786 35.8301 29.2092 35.5835 29.5179 35.5835C29.98 35.5835 29.8567 36.0922 30.0111 36.3835C30.0882 36.5379 30.4741 36.6301 30.4741 36.9388C30.4741 37.2325 30.2261 37.3407 30.0722 37.3407C30.0106 37.3407 29.9334 37.3252 29.8868 37.3101C29.5791 37.4179 29.5631 39.6358 28.2689 39.6358C27.3141 39.6358 26.4355 38.8499 26.0496 37.8645C25.9419 37.5718 25.7108 37.3864 25.4948 37.3864C25.2487 37.3864 25.1099 37.4329 24.8176 37.7567C23.9856 38.6649 22.5983 39.4508 20.8878 39.4508C20.3635 39.4508 19.9475 39.4038 19.8393 39.4038C19.7772 39.4038 19.7772 39.4193 19.7772 39.4344C19.7772 39.5426 20.3009 39.9591 21.4416 39.9591C24.1541 39.9591 24.8172 38.4329 25.2482 38.4329C25.3108 38.4329 25.4943 38.4329 25.6021 38.68C26.2351 40.1586 27.6148 40.4979 28.4779 40.4979ZM27.2831 37.4179C27.2831 37.7572 27.5607 38.0348 27.9 38.0348C28.2393 38.0348 28.5165 37.7572 28.5165 37.4179C28.5165 37.0781 28.2393 36.8005 27.9 36.8005C27.5607 36.8005 27.2831 37.0781 27.2831 37.4179Z" fill="#A6A097"/>
<path d="M39.4884 29.7266C39.2724 29.7266 39.0413 29.8965 39.0413 30.3134C39.0413 30.7741 39.3962 31.0678 39.5962 31.1596C39.7044 31.2221 39.8743 31.2838 40.0423 31.2838C40.4898 31.2838 40.8451 31.1596 40.8451 30.7892C40.8446 30.3134 40.15 29.7266 39.4884 29.7266ZM37.8258 30.6814C37.502 30.6814 35.7119 33.0701 34.5585 33.0701C34.2813 33.0701 34.0498 32.5464 34.0498 32.1473C34.0498 31.9313 34.1882 31.777 34.6827 31.6683C37.3326 31.0673 36.7463 29.0786 39.0098 29.0786C40.2578 29.0786 41.647 29.9276 41.647 31.8377C41.647 33.872 38.7515 36.3986 38.3195 36.3986C37.9646 36.3986 37.5792 35.8904 37.5792 35.5516C37.5792 35.4438 37.6258 35.305 37.934 35.1817C39.4117 34.5953 40.2583 33.2396 40.2583 32.5454C40.2583 32.3911 40.1816 32.2386 39.9811 32.2386C39.7194 32.2386 38.5976 34.7958 37.3477 34.7958C36.4832 34.7958 35.6042 34.0118 35.6042 33.641C35.6042 33.0236 38.1035 31.8843 38.1035 31.0203C38.103 30.696 37.9491 30.6814 37.8258 30.6814Z" fill="#A6A097"/>
<path d="M7.32652 10.4791C7.32652 10.4791 6.87993 10.8175 6.32511 10.8175C5.66299 10.8175 5.13875 10.3248 5.13875 9.63111C5.13875 9.15299 5.38534 8.66028 5.95522 8.41323C5.94016 8.50593 5.94016 8.58264 5.94016 8.67534C5.93969 9.5544 6.43287 10.2165 7.32652 10.4791ZM10.6244 13.4382C10.2856 13.8382 9.93075 14.5168 9.93075 15.2099C9.93075 16.0419 10.4399 16.7351 11.2258 16.7351C11.9806 16.7351 12.3355 16.088 12.3355 15.4259C12.3355 14.3935 11.3952 13.6683 10.6244 13.4382ZM5.50864 14.0542C5.47946 14.1017 5.46205 14.1624 5.46205 14.224C5.46205 14.3629 5.6164 14.5168 5.75428 14.5168C5.87758 14.5168 5.95475 14.4862 6.0164 14.4862C6.38581 14.4862 6.80228 14.7478 7.40322 14.7478C7.75711 14.7478 8.17358 14.6396 8.69734 14.3784C9.80699 13.8231 10.239 12.4518 10.239 12.2203C10.239 11.9271 10.0037 11.9657 9.80699 11.696C9.61028 11.4273 9.68558 11.1897 9.5604 11.064C9.48934 10.992 9.26816 10.9873 8.99005 10.9563C8.89734 10.9464 8.77405 10.9408 8.65075 10.9408C8.14299 10.9408 7.54016 11.0033 6.86346 11.4344C5.52699 12.2876 5.72369 13.6998 5.50864 14.0542ZM9.12981 12.1431C9.23664 12.2885 9.53122 12.4673 9.53122 12.5751C9.53122 12.7902 9.40699 13.0683 9.16087 13.0683C8.62111 13.0683 8.19005 12.2513 8.19005 11.7883C8.19005 11.496 8.35993 11.4655 8.59052 11.4655C8.69828 11.4655 8.74487 11.481 8.82158 11.5271C8.95993 11.6043 8.95993 11.912 9.12981 12.1431ZM7.71146 14.0236C7.20322 14.0236 6.6484 13.392 6.6484 12.8212C6.6484 12.5135 6.87946 12.1276 7.04887 12.1276C7.11052 12.1276 7.14158 12.1742 7.15664 12.2824C7.24887 13.0372 7.74252 13.4692 8.20511 13.6843C8.25122 13.7149 8.28228 13.7304 8.28228 13.761C8.28228 13.8692 7.98911 14.0236 7.71146 14.0236ZM9.02205 10.1398C9.09875 9.89276 9.1604 9.58546 9.1604 9.2457C9.1604 8.5064 8.82064 7.38123 7.77311 7.38123C7.17263 7.38123 6.74016 7.85887 6.74016 8.42923C6.74016 9.64711 7.95805 10.1398 9.02205 10.1398ZM5.03052 16.304C5.03052 17.4749 5.38534 18.0302 6.01687 18.0302C6.51005 18.0302 7.17264 17.6753 7.95805 16.9972C7.35758 17.136 6.89452 17.2288 6.47899 17.2288C5.92416 17.2288 5.49311 17.0128 5.03052 16.304ZM5.57028 14.9323C5.55522 15.0099 5.55522 15.0866 5.55522 15.1633C5.55522 15.8876 5.93969 16.2885 6.4484 16.2885C6.8324 16.2885 7.2804 16.0575 7.67993 15.5483C7.51146 15.5789 7.31052 15.5944 7.12558 15.5944C6.55616 15.5944 5.93969 15.441 5.57028 14.9323ZM9.34581 14.7168C8.99052 14.809 8.25122 15.2405 8.25122 16.0109C8.25122 16.5652 8.68228 16.9205 9.22205 16.9205C9.49969 16.9205 9.69969 16.8584 9.82299 16.7662C9.39193 16.3502 9.23758 15.8876 9.23758 15.4259C9.23758 15.1017 9.28369 14.9017 9.34581 14.7168ZM9.90016 10.4942C9.90016 10.833 10.1773 11.1111 10.5162 11.1111C10.8555 11.1111 11.1331 10.8335 11.1331 10.4942C11.1331 10.1553 10.8555 9.87723 10.5162 9.87723C10.1773 9.87723 9.90016 10.1553 9.90016 10.4942ZM10.7011 11.881C10.7011 12.2203 10.9792 12.4979 11.319 12.4979C11.6573 12.4979 11.935 12.2203 11.935 11.881C11.935 11.5426 11.6573 11.265 11.319 11.265C10.9788 11.265 10.7011 11.5426 10.7011 11.881Z" fill="#A6A097"/>
<path d="M34.7439 19.4476C34.7439 19.1398 35.0216 18.8777 35.326 18.8777C35.6658 18.8777 35.9279 19.1398 35.9279 19.4476C35.9279 19.8019 35.6653 20.049 35.326 20.049C35.0216 20.049 34.7439 19.8019 34.7439 19.4476ZM29.3331 14.7012C29.3331 15.04 29.6112 15.3177 29.9491 15.3177C30.2893 15.3177 30.567 15.04 30.567 14.7012C30.567 14.3629 30.2889 14.0852 29.9491 14.0852C29.6112 14.0852 29.3331 14.3629 29.3331 14.7012ZM28.8098 16.8739C28.8098 17.352 29.2093 17.752 29.6879 17.752C30.1651 17.752 30.567 17.352 30.567 16.8739C30.567 16.3967 30.1651 15.9953 29.6879 15.9953C29.2093 15.9953 28.8098 16.3967 28.8098 16.8739ZM30.7519 15.8876C30.7519 16.4123 31.1684 16.8278 31.6893 16.8278C32.2131 16.8278 32.631 16.4123 32.631 15.8876C32.631 15.3638 32.2131 14.9478 31.6893 14.9478C31.1684 14.9478 30.7519 15.3638 30.7519 15.8876ZM30.8296 13.8843C30.8296 14.2085 31.0917 14.4711 31.4122 14.4711C31.7359 14.4711 31.9981 14.2085 31.9981 13.8843C31.9981 13.5615 31.7355 13.2993 31.4122 13.2993C31.0917 13.2993 30.8296 13.5615 30.8296 13.8843ZM33.6178 12.4057C33.6178 12.7285 33.8799 12.9906 34.2042 12.9906C34.5279 12.9906 34.7905 12.7285 34.7905 12.4057C34.7905 12.0815 34.5279 11.8193 34.2042 11.8193C33.8799 11.8193 33.6178 12.0815 33.6178 12.4057ZM32.4611 14.3012C32.4611 14.84 32.9082 15.2866 33.4479 15.2866C33.9882 15.2866 34.4357 14.84 34.4357 14.3012C34.4357 13.761 33.9886 13.3149 33.4479 13.3149C32.9082 13.3149 32.4611 13.761 32.4611 14.3012ZM30.8752 17.9069C30.8752 18.2462 31.1529 18.5229 31.4893 18.5229C31.8286 18.5229 32.1068 18.2462 32.1068 17.9069C32.1068 17.5676 31.8286 17.2904 31.4893 17.2904C31.1529 17.2904 30.8752 17.5676 30.8752 17.9069ZM32.8931 16.6735C32.8931 17.0127 33.1703 17.2904 33.5105 17.2904C33.8493 17.2904 34.127 17.0127 34.127 16.6735C34.127 16.3351 33.8493 16.0575 33.5105 16.0575C33.1703 16.0575 32.8931 16.3351 32.8931 16.6735ZM32.3228 18.8466C32.3228 19.432 32.8004 19.9102 33.3868 19.9102C33.9726 19.9102 34.4517 19.432 34.4517 18.8466C34.4517 18.2612 33.9726 17.7831 33.3868 17.7831C32.8004 17.7831 32.3228 18.2612 32.3228 18.8466ZM34.543 17.536C34.543 17.9375 34.8672 18.2612 35.2653 18.2612C35.6663 18.2612 35.9901 17.9375 35.9901 17.536C35.9901 17.136 35.6663 16.8123 35.2653 16.8123C34.8672 16.8123 34.543 17.136 34.543 17.536ZM34.4969 15.5944C34.4969 15.9497 34.7905 16.2424 35.1411 16.2424C35.4964 16.2424 35.7896 15.9497 35.7896 15.5944C35.7896 15.2405 35.4964 14.9478 35.1411 14.9478C34.7905 14.9478 34.4969 15.2405 34.4969 15.5944Z" fill="#A6A097"/>
<path d="M36.0666 35.8145C35.6656 36.1232 34.7282 36.8155 33.1701 36.8155C32.3376 36.8155 31.9673 36.5534 31.844 36.5534C31.6896 36.5534 31.5202 36.7072 31.3503 36.9082C30.9842 37.3402 30.5056 38.1416 30.5056 39.0192C30.5056 39.6352 30.9842 40.2508 31.8746 40.2508C34.7593 40.2508 36.915 38.4484 36.915 36.9854C36.915 36.1538 36.4218 35.8145 36.0666 35.8145ZM35.2651 35.6451C35.3899 35.5388 35.419 35.3679 35.419 35.1976V34.8432C35.419 34.3957 34.7437 34.135 33.8181 34.135C32.692 34.135 32.0906 34.6423 32.0906 34.8588V35.5675C32.0906 35.8611 32.7696 36.1538 33.6026 36.1538C34.2656 36.1538 34.867 35.9844 35.2651 35.6451ZM35.1409 37.1708C35.2186 37.1708 35.3103 37.2164 35.3103 37.4945C35.3103 37.8329 35.1569 38.2795 34.6044 38.6334C34.219 38.8964 33.6943 39.1124 32.9235 39.1261C33.0468 38.7576 33.1395 38.3712 33.1395 38.0032C33.1395 37.8795 33.1244 37.7868 33.1089 37.6484H33.3094C34.5277 37.6489 35.0524 37.1708 35.1409 37.1708Z" fill="#A6A097"/>
<path d="M29.2558 18.3389C29.4252 19.648 31.1838 18.9855 31.1838 20.5723C31.1838 20.8038 31.1221 21.1436 31.1221 21.4358C31.1221 21.7751 31.1522 22.0678 31.412 22.0678C31.6737 22.0678 31.7358 21.8833 31.7358 21.6363C31.7358 21.3892 31.6737 21.0815 31.6737 20.912C31.6737 20.3723 32.0595 20.2495 32.2915 20.2495C32.8774 20.2495 33.3245 20.8504 34.204 20.8504C34.0031 21.8367 31.9673 21.5746 31.9673 22.6537C31.9673 23.1935 32.5071 23.3158 32.8619 23.3158C33.1857 23.3158 33.2939 23.2697 33.2939 22.993C33.2939 22.8382 33.2628 22.6687 33.2628 22.561C33.2628 22.4989 33.3094 22.4372 33.3866 22.4372C33.7268 22.4372 35.388 23.7012 35.388 24.0871C35.388 24.441 33.6332 24.7953 33.1245 24.7953C32.9701 24.7953 32.9391 24.6876 32.9391 24.6259C32.9391 24.5182 33.2012 24.1944 33.2012 24.0099C33.2012 23.8711 32.9701 23.7784 32.3527 23.7784C32.0595 23.7784 31.8435 23.8095 31.8435 24.041C31.8435 24.456 32.5221 24.9652 32.5221 25.3497C32.5221 25.6584 32.3372 25.8433 31.8435 25.8433C31.4271 25.8433 30.7974 25.5191 30.7974 24.9803C30.7974 24.5487 31.2421 24.1182 31.2421 23.8556C31.2421 23.7784 31.1833 23.6551 30.9984 23.6551C30.4271 23.6551 30.2732 25.1647 28.2534 25.3346C28.5772 25.0419 28.8539 24.7182 28.8539 24.0565C28.8539 23.7327 28.7777 23.4702 28.7777 23.1163C28.7777 22.6537 28.9927 22.4222 29.3009 22.4222C29.8708 22.4222 30.1485 23.2231 30.5198 23.2231C30.7207 23.2231 30.9362 23.0391 30.9362 22.7615C30.9362 21.5902 28.6854 21.7596 28.6854 20.1106C28.6859 19.6636 28.8393 19.1087 29.2558 18.3389ZM36.6064 22.8542C36.6064 23.2386 36.7306 23.6857 37.116 23.6857C37.4398 23.6857 37.7169 23.1935 37.7169 22.6537C37.7169 22.0372 37.6092 21.5591 37.6092 21.312C37.6092 21.2047 37.6558 21.1586 37.7169 21.1586C37.9485 21.1742 38.164 21.8057 38.4115 21.8057C38.6892 21.8057 39.1028 21.2965 39.2718 21.2965C39.3184 21.2965 39.3334 21.3586 39.3334 21.3737C39.3334 21.6052 38.9786 22.1144 38.9786 22.3144C38.9786 22.4838 39.8732 22.5144 39.8732 22.6687C39.8732 22.9003 38.9353 22.9003 38.4887 23.1007C38.0572 23.2852 37.7937 23.5163 37.7937 23.825C37.7937 24.1332 38.1024 24.1944 38.5344 24.1944C39.564 24.1944 40.2887 23.64 40.5198 23.64C40.5659 23.64 40.5965 23.6702 40.5965 23.7167C40.5965 23.8711 40.0727 24.3793 40.0727 24.6109C40.0727 24.8725 41.0289 25.1798 41.0134 25.3346C40.9984 25.3807 40.9362 25.3958 40.8285 25.3958C40.6581 25.3958 40.3965 25.3497 40.1955 25.3497C40.0722 25.3497 39.9645 25.3647 39.9174 25.4264C39.8106 25.5502 39.9485 26.3671 39.7339 26.3671C39.533 26.3671 39.0087 24.5487 37.8247 24.5487C37.6548 24.5487 37.5315 24.6876 37.5315 24.9186C37.5315 25.5346 38.1329 26.2433 38.7038 26.5826C38.9621 26.7525 39.3946 26.9219 39.3946 27.0151C39.3946 27.1991 38.4106 27.0302 38.4106 27.3379C38.4106 27.6156 38.5339 28.0325 38.5339 28.2782C38.5339 28.3553 38.5184 28.4471 38.4261 28.4471C38.2412 28.4471 37.7932 27.6 37.5777 27.6C37.3927 27.6 36.9918 28.1083 36.8219 28.1083C36.7758 28.1083 36.7452 28.0622 36.7452 28.0165C36.7452 27.6617 37.316 26.8607 37.316 26.0744C37.316 25.7045 37.2694 24.9031 36.8219 24.9031C36.452 24.9031 36.0351 25.4885 35.8501 26.0744C35.7428 26.4132 35.8195 27.7233 35.5725 27.7233C35.3414 27.7233 35.4031 26.8452 35.0939 26.8452C34.8666 26.8452 34.3729 27.2607 34.2031 27.2607C34.172 27.2607 34.1409 27.2452 34.1409 27.2146C34.1409 27.0302 34.5885 26.4287 34.5885 26.3055C34.5885 26.0744 33.5706 26.0438 33.5706 25.8589C33.5706 25.7506 33.9715 25.6739 34.3414 25.6118C35.1254 25.473 36.2817 24.9031 36.2817 24.1022C36.2817 23.2085 35.4181 22.8226 34.8506 22.4527C34.5574 22.2678 34.2337 22.1144 34.2337 21.9911C34.2337 21.8673 34.6035 21.8673 34.7579 21.8673C34.9889 21.8673 35.2177 21.8518 35.2177 21.6673C35.2177 21.528 35.1866 21.2513 35.1866 21.0353C35.1866 20.881 35.2017 20.7577 35.2642 20.7577C35.4953 20.7577 35.8191 21.5125 35.9739 21.5125C36.22 21.5125 36.5593 20.896 36.7913 20.896C36.8675 20.896 36.8991 20.9426 36.8991 21.081C36.9 21.6513 36.6064 22.2984 36.6064 22.8542Z" fill="#A6A097"/>
<path d="M29.7035 27.1218C30.4131 27.2146 30.583 27.4607 30.583 27.6616C30.583 28.0009 30.2743 28.1082 29.9806 28.1082C29.7656 28.1082 29.5185 28.0621 29.2564 28.0621C28.9166 28.0621 28.5783 28.1393 28.3011 28.463C28.5011 28.4936 28.7943 28.6329 28.7943 28.9416C28.7943 29.8353 26.3133 29.0946 26.3133 31.392C26.3133 32.6089 27.5773 33.935 29.4875 33.935C30.4752 33.935 31.1072 33.6113 31.1072 33.2404C31.1072 32.9482 30.5835 33.1477 30.5835 32.9011C30.5835 32.7934 30.7684 32.5924 30.7684 32.4221C30.7684 32.3477 30.7068 32.208 30.5835 32.208C30.3049 32.208 29.7806 32.6536 28.7171 32.6536C27.8846 32.6536 27.0677 32.1774 27.0677 31.5294C27.0677 31.391 27.1298 31.3134 27.222 31.3134C27.3148 31.3134 27.4376 31.3755 27.5458 31.3755C27.6385 31.3755 27.6536 31.3134 27.6536 31.1444C27.6536 30.9746 27.6536 30.4964 27.9458 30.4964C28.2395 30.4964 28.7943 31.5755 30.9223 31.5755C31.6286 31.5755 33.0013 31.4376 33.5105 30.9746C33.495 32.6701 32.1679 34.9044 29.3952 34.9044C26.5133 34.9044 24.9722 32.5924 24.9722 30.4654C24.9722 28.1082 26.8978 25.9666 29.5341 25.9666C30.2112 25.9666 30.783 26.1971 30.783 26.4903C30.7825 26.8917 29.7802 26.6447 29.7035 27.1218ZM34.4352 27.9397C34.543 28.1082 34.5896 28.2781 34.5896 28.432C34.5896 28.864 34.2964 29.2644 34.2964 29.712C34.2964 30.2202 34.6823 30.6357 35.2653 30.6357C35.8973 30.6357 36.3293 30.1284 36.3293 29.5266C36.3293 28.7096 35.5891 28.0164 34.4352 27.9397ZM29.3331 28.9256C29.4865 29.079 29.5336 29.2334 29.5336 29.3877C29.5336 29.6188 29.4258 29.8658 29.4258 30.128C29.4258 30.4964 29.7035 30.8207 30.1035 30.8207C30.5359 30.8207 30.8296 30.4809 30.8296 30.0818C30.8296 29.496 30.2263 28.9256 29.3331 28.9256ZM31.3816 26.3054C33.0009 26.6136 33.8799 27.8315 33.8799 28.9722C33.8799 29.7586 33.3868 30.4814 32.5228 30.4814C31.7359 30.4814 31.1684 29.9426 31.1684 29.0795C31.1684 28.4324 31.6738 27.7543 31.6738 27.0913C31.6738 26.8296 31.5971 26.5675 31.3816 26.3054ZM32.1835 28.3553C32.1835 28.5708 32.3378 28.7407 32.5538 28.7407C32.7999 28.7407 32.9548 28.5247 32.9548 28.2781C32.9548 27.9548 32.6616 27.5077 32.3839 27.5077C32.2602 27.5077 32.3068 27.6927 32.2762 27.8931C32.2602 28.0466 32.1835 28.2315 32.1835 28.3553Z" fill="#A6A097"/>
<path d="M15.1712 12.4979C15.695 12.4979 16.2955 9.66215 16.2955 9.18403C16.2955 9.06073 16.2498 8.96803 16.1421 8.96803C15.6639 8.96803 15.0018 11.6654 15.0018 12.2669C15.0013 12.3746 15.0319 12.4979 15.1712 12.4979ZM18.9468 13.3454C19.3312 13.3454 19.7628 11.8654 19.7628 10.9407C19.7628 10.7403 19.7322 10.5252 19.639 10.5252C19.3152 10.5252 18.7759 12.0509 18.7759 12.8829C18.7764 13.2066 18.8541 13.3454 18.9468 13.3454ZM16.4333 11.9737C16.6028 11.9737 16.8188 11.7878 17.2206 11.3421C17.2508 11.1417 17.2508 10.9563 17.2508 10.7252C17.2508 10.4174 17.1275 10.0781 16.943 10.0781C16.4799 10.0781 16.2494 11.3111 16.2494 11.6353C16.2498 11.8193 16.3416 11.9737 16.4333 11.9737ZM18.5453 11.3421C18.5453 11.0796 18.4832 11.0179 18.4221 11.0179C18.2677 11.0179 18.0988 11.2033 17.8522 11.6193C17.8828 12.1741 17.9755 12.4207 18.1293 12.4207C18.2988 12.4207 18.5453 11.881 18.5453 11.3421ZM19.7322 9.52332C20.7496 9.52332 21.2112 10.4019 21.2112 11.3883C21.2112 11.8193 21.0889 12.4518 20.8884 12.4518C20.6879 12.4518 20.719 12.097 20.6879 11.7732C20.6573 11.3572 20.5797 11.265 20.4409 11.265C20.1788 11.265 20.0098 11.881 20.0098 12.4518C20.0098 12.8057 20.0715 13.2066 20.3482 13.2066C20.5025 13.2066 20.6413 13.1294 20.7341 13.0372C20.6724 13.7454 20.1477 14.3629 19.4084 14.3629C18.0522 14.3629 17.5435 12.7751 17.3901 11.8504C16.5731 12.7134 15.8183 13.3454 14.4616 13.3454C13.1985 13.3454 12.6282 12.4207 12.6282 11.5426C12.6282 11.28 12.7204 10.6024 13.0446 10.6024C13.4296 10.6024 13.0908 11.8654 13.8456 11.8654C14.031 11.8654 14.3689 11.7111 14.5548 11.2033C14.6625 10.8946 14.7242 10.5718 14.7242 10.2937C14.7242 9.8772 14.6319 9.61603 14.3237 9.61603C14.0611 9.61603 13.7373 9.81556 13.6296 9.92379C13.9999 8.81415 14.8936 8.24426 15.8785 8.24426C17.0973 8.24426 17.7439 9.32285 17.7439 10.5252C17.7439 10.6941 17.7284 10.8791 17.6974 11.049C18.2216 10.1859 18.9468 9.52332 19.7322 9.52332Z" fill="#A6A097"/>
<path d="M16.8502 13.6682C16.1877 13.6682 16.1571 14.471 16.1571 16.088C15.6634 15.0249 14.8474 13.8842 13.8917 13.8842C13.2446 13.8842 12.9985 14.3162 12.9985 15.0706C12.9985 15.2249 13.0135 15.4564 13.0446 15.5943C13.1218 15.3332 13.3684 15.2249 13.6761 15.2249C14.3397 15.2249 15.1406 15.7332 15.6644 16.4273C15.0639 16.3195 14.478 16.2113 13.9853 16.2113C13.6766 16.2113 13.3994 16.2423 13.1684 16.3501C12.7213 16.5501 12.1204 17.2132 12.1204 18.215C12.1204 18.3694 12.1359 18.5383 12.1669 18.7233C12.7062 17.5209 14.1392 16.9816 15.0639 16.9816C15.2493 16.9816 15.3872 16.9972 15.4954 17.0127C15.0173 17.4437 14.91 18.199 14.8785 18.7077C14.8639 18.9543 14.7707 18.9703 14.6008 18.9703C14.6008 19.4781 15.0022 20.2339 15.0022 20.6188C15.0022 20.7576 14.9251 20.8809 14.8484 20.912C14.8484 21.5901 15.5255 22.0833 15.5255 22.5143C15.5255 22.6221 15.4954 22.7148 15.4484 22.7614C15.4954 23.039 16.2408 23.5054 16.3373 23.7393C16.4559 24.0235 16.5891 24.0715 16.6662 24.0715C16.9284 24.0715 17.3434 23.7628 17.3434 23.4852C17.3434 23.3929 17.2662 23.2852 17.2055 23.2386C16.9124 23.0235 16.758 22.5609 16.6347 22.2532C16.5265 22.2532 16.3872 22.2075 16.3382 22.0259C16.254 21.7068 16.2498 21.1124 16.1265 20.7576C15.926 20.7115 15.8333 20.6343 15.8333 20.2183C15.8333 20.0179 15.9571 19.2315 15.9571 18.9539C15.8648 18.9539 15.7415 18.8922 15.7415 18.7073C15.7415 18.2146 16.2352 17.8292 16.3731 17.1976C17.2517 17.8442 17.4667 18.5068 17.4667 19.0932C17.4667 19.4004 17.4206 19.6936 17.3589 19.9717C18.0065 19.6475 18.9773 19.1699 18.9773 18.199C18.9773 17.6282 18.7152 16.9967 16.9735 16.7501C17.5128 16.5496 18.1914 16.4423 18.7613 16.4423C19.7481 16.4423 20.318 16.7501 20.4408 17.4433C20.6413 17.1355 20.7957 16.7807 20.7957 16.4574C20.7957 15.7016 20.1632 15.2094 19.3622 15.2094C18.422 15.2094 17.59 15.7016 16.6959 16.3035C17.0978 15.4715 17.3735 14.9783 17.8677 14.9783C17.9444 14.9783 18.0215 14.9939 18.0987 15.0094C17.9138 14.3317 17.2206 13.6682 16.8502 13.6682Z" fill="#A6A097"/>
<path d="M42.8154 24.7798C43.5872 24.7798 44.2037 25.7812 44.2037 26.953C44.2037 28.201 43.6173 29.5577 42.5722 30.4814C42.5566 28.4014 40.0107 29.064 40.0107 27.5544C40.0107 26.9073 40.4743 26.4753 41.0296 26.4753C41.5232 26.4753 41.9086 26.6141 42.1863 26.8923C41.9086 26.6297 41.7698 26.2593 41.7698 25.9054C41.7698 25.3186 42.1402 24.7798 42.8154 24.7798Z" fill="#A6A097"/>
<path d="M29.0553 10.1398C29.4567 10.5252 29.8101 10.6941 30.2421 10.6941C30.4124 10.6941 30.6134 10.6485 30.7216 10.6485C30.8604 10.6485 30.9522 10.7097 30.9522 10.8174C30.9522 10.9873 30.7978 11.265 30.6134 11.4193C30.7978 11.496 30.9988 11.5271 31.2148 11.5271C32.0901 11.5271 33.0924 10.9718 33.0924 9.58543C33.2783 9.83108 33.3861 10.3403 33.3861 10.5718C33.3861 12.2513 32.1517 12.8984 31.0138 12.8984C30.2736 12.8984 29.9028 12.6513 29.8096 12.6513C29.5174 12.6513 29.5329 13.2377 29.3324 13.2221C28.9776 13.1605 28.6548 12.3746 28.6548 11.5426C28.6553 11.049 28.7786 10.5252 29.0553 10.1398ZM31.3814 9.01461C31.2581 8.81414 30.7978 8.70684 30.5828 8.70684C29.9033 8.70684 29.4407 9.18402 29.3484 9.61602C29.2868 9.46167 29.2407 9.27672 29.2407 9.09178C29.2407 8.41366 29.7033 7.58167 30.8298 7.58167C31.8134 7.58167 32.1988 8.10543 32.3381 8.10543C32.492 8.10543 32.6463 7.95108 32.7701 7.95108C32.9395 7.95108 32.9395 8.21319 32.9395 8.39861C32.9395 9.01461 32.6614 10.0781 31.9677 10.4635C31.844 10.2014 31.5974 9.90825 31.1993 9.72378C31.0915 9.67767 31.0454 9.58543 31.0454 9.49272C31.0449 9.32284 31.1988 9.10684 31.3814 9.01461Z" fill="#A6A097"/>
<path d="M18.3448 5.65503C18.3448 6.19433 20.271 8.82962 20.6413 8.82962C20.95 8.82962 21.1806 8.29033 21.1806 7.82727C21.1806 7.70491 21.1495 7.58209 21.0888 7.48891C20.8112 7.1035 18.854 5.56233 18.422 5.56233C18.3754 5.56233 18.3448 5.60891 18.3448 5.65503ZM7.01777 4.06774C7.01777 4.37644 5.84695 5.40844 5.43142 5.40844C5.27754 5.40844 5.23048 5.22397 5.23048 5.05456C5.23048 4.7468 5.3693 4.3148 5.53919 4.1755C5.73871 3.99056 6.2013 3.89927 6.55566 3.89927C6.77118 3.89927 7.01777 3.94444 7.01777 4.06774ZM21.0888 4.96186C21.0888 4.03668 18.5886 2.35715 18.5608 1.63339C18.558 1.56703 18.5942 1.50115 18.6502 1.44233C19.0785 0.990562 20.8568 0.66115 20.8568 0.276209C20.8568 0.0766794 20.4865 0.0766794 20.3015 0.0766794C18.8686 0.0766794 16.7726 0.600444 16.7726 1.10868C16.7726 1.63339 18.6526 2.91244 18.6526 3.54444C18.6526 3.71386 18.5448 3.7755 18.3749 3.7755C17.8517 3.7755 16.7109 3.14303 16.1717 3.14303C15.9251 3.14303 15.8319 3.31244 15.8319 3.55997C15.8319 4.29927 16.7105 5.70162 16.7105 6.11668C16.7105 6.16327 16.695 6.22491 16.6333 6.22491C16.3557 6.22491 15.047 4.68468 14.5839 4.68468C14.4149 4.68468 14.3989 4.91527 14.3989 5.25456V5.77833C14.3989 6.13268 14.3834 6.34868 14.2149 6.34868C13.8131 6.34868 13.6286 5.22397 13.2437 5.22397C12.8427 5.22397 12.7655 7.2268 12.3811 7.2268C11.9335 7.2268 12.3189 5.02303 11.8874 5.02303C11.4098 5.02303 10.87 6.4875 10.5307 6.4875C10.4079 6.4875 10.3773 6.36374 10.3773 6.25597C10.3773 5.80939 10.6385 5.08515 10.6385 4.65409C10.6385 4.43762 10.5768 4.3148 10.3928 4.3148C9.91424 4.3148 8.86671 5.08515 8.46624 5.08515C8.4046 5.08515 8.32742 5.05456 8.32742 4.99244C8.32742 4.6235 10.0069 3.45174 10.0069 2.92797C10.0069 2.4188 7.69448 2.75856 7.69448 2.17221C7.69448 1.6795 9.34483 1.1708 9.34483 0.662091C9.34483 0.215032 7.38719 0.0155029 6.63236 0.0155029C5.72271 0.0155029 5.23001 0.122326 5.23001 0.384444C5.23001 0.785385 7.29542 0.90915 7.29542 1.26303C7.29542 1.60233 5.15283 2.5115 5.15283 3.03527C5.15283 3.49786 8.17307 3.06586 8.17307 3.54444C8.17307 4.06774 5.53871 6.33268 5.53871 7.08797C5.53871 7.25786 5.66201 7.33503 5.83095 7.33503C6.63236 7.33503 8.71189 5.80939 9.28271 5.80939C9.48318 5.80939 9.49871 6.0555 9.49871 6.2715C9.49871 6.67244 9.36036 7.28844 9.36036 7.73597C9.36036 8.08986 9.4526 8.33644 9.76036 8.33644C10.3317 8.33644 10.8545 7.36562 11.2408 7.36562C11.7335 7.36562 11.4408 10.2164 12.1806 10.2164C12.8121 10.2164 13.0738 7.13456 13.4747 7.13456C13.8757 7.13456 14.1999 8.02821 14.5693 8.02821C15.031 8.02821 14.8154 6.47197 15.3091 6.47197C15.8479 6.47197 17.3891 8.32139 18.0827 8.32139C18.2982 8.32139 18.3749 8.1515 18.3749 7.9355C18.3749 7.11856 17.2352 5.27009 17.2352 4.68468C17.2352 4.5308 17.2808 4.48421 17.4502 4.48421C18.0512 4.48421 19.8088 5.31621 20.6404 5.31621C20.9199 5.31621 21.0888 5.16233 21.0888 4.96186ZM19.4855 1.91056C19.4855 2.18774 20.4564 2.78915 20.9039 2.78915C21.1655 2.78915 21.2427 2.43433 21.2427 2.06444C21.2427 1.60233 21.0432 1.5868 20.6418 1.5868C20.1331 1.5868 19.4855 1.72562 19.4855 1.91056ZM15.8639 0.338326C15.8639 0.245621 15.4018 0.152915 14.7702 0.152915C13.7684 0.152915 13.9072 0.986326 13.1368 0.986326C12.3354 0.986326 12.5349 0.122326 11.518 0.122326C10.9015 0.122326 10.3321 0.230562 10.3321 0.368915C10.3321 0.554326 11.0559 0.47715 11.0559 0.986326C11.0559 1.52515 9.49919 1.6795 9.49919 2.00327C9.49919 2.11103 9.62201 2.15715 9.77636 2.15715C10.1161 2.15715 10.6545 2.00327 11.0404 2.00327C11.2564 2.00327 11.4568 2.04891 11.4568 2.24939C11.4568 2.6348 10.6239 3.32844 10.6239 3.63668C10.6239 3.72939 10.7006 3.76044 10.7778 3.76044C11.0865 3.76044 11.6107 2.97409 12.1034 2.97409C12.9204 2.97409 12.3815 4.71527 12.8277 4.71527C13.2898 4.71527 13.0898 3.00421 13.7524 3.00421C14.2926 3.00421 14.6926 4.19103 15.0625 4.19103C15.1552 4.19103 15.2319 4.11433 15.2319 4.00609C15.2319 3.68327 14.7698 3.01974 14.7698 2.58868C14.7698 2.32656 14.9547 2.2028 15.2013 2.2028C15.5552 2.2028 16.0333 2.4188 16.2945 2.4188C16.3867 2.4188 16.4794 2.38821 16.4794 2.28044C16.4794 1.91056 15.1091 1.51009 15.1091 1.03244C15.1095 0.554326 15.8639 0.554326 15.8639 0.338326Z" fill="#A6A097"/>
<path d="M43.1852 2.83579C43.1852 4.20661 42.1862 5.25461 40.381 5.54732C40.5819 5.56238 40.7669 5.56238 40.9523 5.56238C43.0619 5.56238 43.8337 4.60755 43.8337 3.80661C43.8337 3.35908 43.5867 2.95908 43.1852 2.83579ZM40.5819 4.39155C40.5819 3.29744 37.9641 3.01979 37.9641 2.77367C37.9641 2.57367 39.4257 2.23391 40.181 2.21838C39.0252 0.739319 37.3782 0.893672 37.3782 0.631554C37.3782 0.477201 38.6116 0.168496 39.7504 0.168496C40.7057 0.168496 41.5998 0.384495 41.5998 1.10873C41.5998 1.51014 41.2761 1.92661 41.2761 2.54214C41.2761 2.88144 41.4445 3.17414 41.893 3.17414C42.3721 3.17414 42.4789 2.66591 42.4789 2.12567C42.4789 1.67955 42.4022 1.34026 42.4022 1.12426C42.4022 0.477201 42.8459 0.0461426 43.4784 0.0461426C44.0027 0.0461426 44.1264 0.27626 44.8977 0.27626C44.4808 0.52379 44.3269 0.970849 44.3269 1.18591C44.3269 1.83391 44.7443 2.2805 44.7443 3.60614C44.7443 6.04003 42.4638 6.90308 39.6732 6.90308C38.9062 6.90308 38.0878 6.84144 37.2855 6.71861C37.1627 6.70308 37.1316 6.6725 37.1316 6.59532C37.1316 6.39485 38.2271 6.28661 38.2271 5.3012C38.2271 4.91532 38.1034 4.54591 38.1034 4.40756C38.1034 4.33038 38.165 4.28379 38.2271 4.28379C38.4582 4.28379 38.9217 5.17744 39.7819 5.17744C40.0107 5.17744 40.5819 5.10026 40.5819 4.39155ZM43.093 0.986378C43.093 1.20144 43.2624 1.37085 43.4784 1.37085C43.6944 1.37085 43.8643 1.20144 43.8643 0.986378C43.8643 0.770378 43.6944 0.600496 43.4784 0.600496C43.2624 0.600496 43.093 0.770378 43.093 0.986378Z" fill="#A6A097"/>
<path d="M41.7233 15.225C41.7233 14.9017 40.9055 14.8711 40.8288 13.9614C40.8128 13.8231 40.7666 13.577 40.5968 13.577C40.3196 13.577 40.5351 14.4245 40.2269 14.4245C39.5182 14.4245 39.2871 13.0372 39.025 13.0372C38.9629 13.0372 38.8895 13.0833 38.8895 13.2683C38.8895 13.4382 38.9205 13.5459 38.9205 13.7455C38.9205 13.9464 38.8735 14.0852 38.689 14.0852C38.2725 14.0852 37.9022 13.1139 37.5473 13.1139C37.4702 13.1139 37.3935 13.1605 37.3935 13.2377C37.3935 13.4226 37.7012 13.761 37.7012 13.9309C37.7012 14.3012 36.6989 14.1003 36.6989 14.409C36.6989 14.5478 36.8372 14.5935 37.0226 14.5935C37.3469 14.5935 37.8561 14.4556 38.1182 14.4556C38.2725 14.4556 38.5036 14.4862 38.5036 14.6857C38.5036 14.9017 37.9483 15.1789 37.9483 15.3793C37.9483 15.472 38.0405 15.5177 38.1177 15.5177C38.5342 15.5177 39.2711 14.7939 39.7953 14.7939C39.8876 14.7939 40.1186 14.84 40.1186 14.9789C40.1186 15.1789 39.5949 15.5327 39.5949 15.8259C39.5949 15.9031 39.6419 15.9953 39.7342 15.9953C40.0099 15.9953 40.3803 15.2716 40.905 15.2716C41.1055 15.2716 41.3986 15.3487 41.5535 15.3487C41.6772 15.3487 41.7233 15.2716 41.7233 15.225ZM42.1243 22.6993C42.3713 21.9295 42.6801 21.3892 43.185 20.5572C42.6801 20.296 41.3375 19.7403 41.3375 18.8311C41.3375 17.7676 42.6631 16.9356 42.9379 16.9356C43.0617 16.9356 43.0923 17.0438 43.0923 17.2443C43.0923 17.7986 42.8302 18.6923 42.8302 19.1704C42.8302 19.6014 43.1078 20.0184 43.3544 20.0184C43.6165 20.0184 44.3412 19.0937 44.3412 18.184C44.3412 16.5502 42.9069 16.0575 42.4631 16.0575C42.0466 16.0575 41.2909 16.7351 39.5177 16.7351C36.2052 16.7351 35.4495 13.4537 35.4495 12.0198C35.4495 11.9582 35.4641 11.9426 35.4796 11.9426C35.5568 11.9426 35.8815 12.344 36.9295 12.344C37.4692 12.344 37.9629 12.2047 38.7497 12.2047C40.5958 12.2047 41.4137 13.4847 42.5553 15.1172C43.2457 15.5483 44.8965 16.2424 44.8965 18.1996C44.8965 19.9257 43.0612 20.881 42.617 22.7304C43.3229 22.6537 43.7398 21.3892 44.4645 21.3892C44.8349 21.3892 45.0043 21.6824 45.0043 22.1454C45.0043 22.8226 44.6184 23.8405 43.8782 24.472C43.8932 24.4104 43.8932 24.3327 43.8932 24.2405C43.8932 23.8095 43.7243 23.1934 43.2297 23.1934C42.4622 23.1934 42.2156 24.0254 41.7841 24.7182C41.3365 23.1469 40.7351 21.7285 39.6565 20.8654C38.5652 19.9873 36.6829 20.4645 36.6829 18.8622C36.6829 18.4302 36.961 17.8142 36.961 17.321C36.961 17.1516 36.9299 16.9972 36.8368 16.8739C38.3177 17.4292 37.793 18.4146 38.7041 19.432C39.2711 20.08 40.8438 20.696 41.7535 23.3619C41.7685 23.2852 41.7841 23.0852 41.7841 22.9464C41.7841 20.6655 38.7648 18.4302 38.5026 17.5055C40.2565 17.7059 40.5648 18.1379 41.3977 20.4495C41.5685 20.9276 42.1243 22.1144 42.1243 22.6993Z" fill="#A6A097"/>
<path d="M33.6948 6.39482C32.6148 6.39482 31.9056 5.856 31.9056 5.57788C31.9056 5.43906 31.9979 5.34729 32.1221 5.34729C32.4609 5.34729 33.2012 5.87059 33.4473 5.87059C33.5099 5.87059 33.5555 5.84047 33.5555 5.74776C33.5555 5.47012 33.2934 5.008 33.2934 4.77741C33.2934 4.71529 33.34 4.66965 33.4322 4.66965C33.8482 4.66965 34.4652 4.83906 34.7899 4.83906C34.8976 4.83906 34.9282 4.77741 34.9282 4.71529C34.9282 4.37647 33.9254 3.71388 33.9254 3.51341C33.9254 3.32847 35.1715 3.05035 35.1715 2.75859C35.1715 2.44988 33.4774 2.66588 33.4774 2.37271C33.4774 2.15718 33.8016 1.78729 33.8016 1.61788C33.8016 1.54071 33.7395 1.51012 33.6322 1.51012C33.4934 1.51012 32.7532 1.80282 32.4445 1.80282C32.2906 1.80282 32.1052 1.77224 32.1052 1.55576C32.1052 1.20141 32.7066 0.816471 33.6478 0.816471C35.1711 0.816471 36.0816 1.86447 36.0816 3.62118C36.0826 5.84047 34.5278 6.39482 33.6948 6.39482ZM30.6906 3.46729C30.6906 3.29741 30.0882 2.97412 30.0882 2.78918C30.0882 2.75859 30.1184 2.74306 30.1649 2.74306C30.3353 2.74306 30.6285 2.80471 30.8605 2.80471C31.0609 2.80471 31.0915 1.94165 31.2431 1.94165C31.3508 1.94165 31.5353 2.75859 31.7061 2.75859C31.9061 2.75859 32.276 2.52706 32.4304 2.52706C32.4609 2.52706 32.492 2.54212 32.492 2.57365C32.492 2.68141 32.1066 3.09694 32.1066 3.22024C32.1066 3.35906 32.9706 3.52894 32.9706 3.65224C32.9706 3.80659 32.0911 3.79106 32.0911 3.92988C32.0911 4.03671 32.4153 4.46871 32.4153 4.60753C32.4153 4.63859 32.3993 4.65412 32.3687 4.65412C32.2449 4.65412 31.7673 4.43765 31.6285 4.43765C31.4586 4.43765 31.1842 5.06965 31.0454 5.06965C30.9993 5.06965 30.9687 5.008 30.9687 4.93082L30.9376 4.31482C30.9376 4.25318 30.9075 4.19106 30.8299 4.19106C30.6445 4.19106 30.2896 4.17553 30.1809 4.17553C30.1038 4.17553 30.0732 4.16047 30.0732 4.12941C30.0727 4.00612 30.6906 3.57506 30.6906 3.46729ZM30.2421 5.99341C30.4896 5.99341 30.5358 6.59529 30.5828 6.94918C30.6134 7.13459 30.6445 7.14965 30.7216 7.14965C30.9071 7.14965 31.1993 6.44094 31.3974 6.44094C31.6896 6.44094 32.4769 7.25788 33.7875 7.25788C35.6511 7.25788 37.4092 5.94729 37.4092 3.63671C37.4092 1.40188 35.8351 0.0917647 33.6638 0.0917647C32.6313 0.0917647 31.8746 0.600471 31.4736 0.600471C31.2304 0.616 30.8605 0 30.6746 0C30.5979 0 30.5207 0.152941 30.5207 0.415529C30.5207 0.585412 30.5207 1.12424 30.3353 1.12424C29.9645 1.12424 28.532 0.0616471 28.532 0.446118C28.532 0.800941 29.4864 1.88 29.4864 2.15718C29.4864 2.43435 28.5471 2.69694 28.5471 2.88141C28.5471 3.22024 29.5485 3.28188 29.5485 3.71388C29.5485 4.14494 28.5 4.48423 28.5 4.808C28.5 5.06965 29.5485 4.88518 29.5485 5.20847C29.5485 5.53176 28.7781 6.61082 28.7781 6.91812C28.7781 6.99576 28.7932 6.99576 28.8544 6.99576C29.1475 6.99576 30.0261 5.99341 30.2421 5.99341Z" fill="#A6A097"/>
<path d="M23.2615 33.0555C23.2615 33.1944 23.2149 33.3487 23.0916 33.5021C22.9231 33.1944 22.4445 33.04 22.2285 33.0405C20.6412 33.0405 21.2422 35.337 19.5471 35.337C18.8384 35.337 18.7763 35.2442 18.5151 35.2442C18.4069 35.2442 18.3452 35.2908 18.3452 35.3831C18.3452 35.7845 18.9156 36.7699 20.5029 36.7699C22.0902 36.7699 23.6163 35.7995 23.6163 34.5962C23.6163 34.3958 23.5702 34.1817 23.4775 33.9657C23.5391 33.8729 23.6939 33.8113 23.8323 33.8113C24.0784 33.8113 24.2172 34.0899 24.4483 34.0899C24.6953 34.0899 24.8803 33.904 24.8803 33.6579C24.8803 33.4565 24.7725 33.3186 24.588 33.2249C24.7113 33.1332 24.8036 32.9788 24.8036 32.8094C24.8036 32.5464 24.6182 32.3012 24.3095 32.3012C24.1706 32.3012 24.0789 32.3482 23.9711 32.4537C23.941 32.1779 23.7862 31.9158 23.493 31.9158C23.2619 31.9158 23.0916 32.0847 23.0916 32.3478C23.0916 32.5925 23.2615 32.7939 23.2615 33.0555Z" fill="#A6A097"/>
<path d="M14.8163 30.1901C16.0493 30.4965 16.6658 31.1596 16.7886 31.9459C16.9119 32.7007 17.0658 33.3182 17.3585 33.6254C17.7439 34.0579 18.4992 34.441 19.1622 34.441C19.717 34.441 20.1632 34.2579 20.1632 33.7487C20.1632 33.1934 19.4083 31.9454 18.2987 31.9454C18.1909 31.9454 18.0521 31.9614 17.8978 31.9614C17.7589 31.9614 17.5585 31.9309 17.4356 31.8226C17.1895 31.6062 17.1119 30.4504 16.6497 29.7572C16.1415 28.9864 15.5867 28.7704 14.8319 28.7704C14.293 28.7704 13.6912 29.0626 13.6912 29.4946C13.6912 29.7581 13.83 29.9426 14.8163 30.1901ZM19.1161 33.6414C18.653 33.6414 17.9599 33.1473 17.9599 32.8697C17.9599 32.6381 18.1759 32.5149 18.3443 32.5149C18.7302 32.5149 19.4229 32.9939 19.4229 33.3944C19.4234 33.5021 19.3462 33.6414 19.1161 33.6414Z" fill="#A6A097"/>
<path d="M17.6977 21.6363C17.6977 20.6499 20.0407 20.1262 20.0407 18.9083C20.0407 18.7078 19.9635 18.3539 19.8247 18.0918C20.6407 18.5384 21.2421 19.2941 21.2421 19.9101C21.2421 20.9737 20.133 21.4669 20.133 22.1299C20.133 22.9003 21.3193 23.0236 21.3193 23.9789C21.3193 24.7643 20.1941 25.6739 20.1941 26.6909C20.1941 27.4767 20.7494 28.1233 21.596 28.2316C21.3188 28.2932 21.0727 28.3393 20.8106 28.3393C19.2534 28.3393 17.6511 27.0607 17.6511 25.5346C17.6511 24.7798 17.9748 24.1182 18.4671 23.64C18.8995 24.0099 19.3306 24.256 19.6083 24.256C19.8544 24.256 19.9631 24.1332 19.9631 23.9483C19.9635 23.3774 17.6977 22.8542 17.6977 21.6363ZM22.6139 29.4189C22.0854 29.6607 21.8746 29.6193 21.8746 30.1591C21.8746 30.3591 21.828 30.6198 21.828 30.7591C21.828 30.944 21.8586 31.0523 22.0741 31.0523C22.6294 31.0523 23.508 30.1125 23.508 29.3106C23.508 29.0941 23.3843 29.0033 23.2454 29.0033C23.1221 29.0033 22.9843 29.249 22.6139 29.4189ZM22.5523 28.3087C22.5523 27.6156 21.1188 27.6 21.1188 26.552C21.1188 26.2894 21.2878 25.8433 21.6275 25.3647C21.7668 26.1662 22.0892 26.5826 22.7838 26.8452C24.1546 27.353 24.34 28.1233 24.34 28.9412C24.34 30.3285 23.3692 32.0541 20.8727 32.0541C18.869 32.0541 17.4355 30.2659 17.4355 28.7558C17.4355 28.3393 17.5433 27.8777 17.8054 27.8777C18.037 27.8777 18.1137 28.0621 18.2986 28.2466C18.9927 28.9412 19.7475 29.1252 20.8417 29.1252C21.828 29.1257 22.5523 28.7252 22.5523 28.3087Z" fill="#A6A097"/>
<path d="M11.639 28.6428C11.6766 28.9647 11.4465 29.2551 11.1251 29.2927C10.8032 29.3304 10.5115 29.0998 10.4748 28.7784C10.4371 28.456 10.6672 28.1647 10.9891 28.1271C11.311 28.0894 11.6018 28.3205 11.639 28.6428ZM8.759 29.249C8.82441 29.7751 9.31523 30.1741 9.86911 30.1125C10.0691 30.0904 10.2545 30.0358 10.3783 29.9586C10.5016 30.4513 10.9152 30.7685 11.4743 30.6951C12.0418 30.6212 12.4277 30.1741 12.3665 29.6038C12.3505 29.4504 12.3199 29.3567 12.2743 29.249C12.2743 29.249 12.3491 29.241 12.4056 29.2306C12.9623 29.1252 13.3373 28.6786 13.2908 28.1393C13.2296 27.5845 12.7317 27.1727 12.2136 27.2367C12.0126 27.2612 11.8272 27.3379 11.7035 27.4457C11.5642 26.984 11.1298 26.5826 10.5369 26.6805C10.0009 26.7694 9.64653 27.224 9.70017 27.8005C9.70911 27.8941 9.73076 28.001 9.77735 28.1082C9.77735 28.1082 9.68653 28.1219 9.62394 28.1308C9.17405 28.1977 8.68606 28.6504 8.759 29.249Z" fill="#A6A097"/>
</g>
<defs>
<clipPath id="clip0_119_10548">
<rect width="50.6198" height="56" fill="white" transform="translate(0.547119)"/>
</clipPath>
</defs>
</svg>
