<svg width="80" height="80" viewBox="0 0 80 80" fill="none" xmlns="http://www.w3.org/2000/svg">
<path d="M10 16.6667C10 14.6667 11.3333 13.3334 13.3333 13.3334H16.6667C18.6667 13.3334 20 14.6667 20 16.6667C20 18.6667 18.6667 20.0001 16.6667 20.0001H13.3333C11.3333 20.0001 10 18.6667 10 16.6667ZM13.3333 43.3334C13.3333 41.3334 14.6667 40.0001 16.6667 40.0001H20C22 40.0001 23.3333 41.3334 23.3333 43.3334C23.3333 45.3334 22 46.6667 20 46.6667H16.6667C14.6667 46.6667 13.3333 45.3334 13.3333 43.3334ZM13.3333 53.3334C11.3333 53.3334 10 54.6667 10 56.6667C10 58.6667 11.3333 60.0001 13.3333 60.0001H30C32 60.0001 33.3333 58.6667 33.3333 56.6667C33.3333 54.6667 32 53.3334 30 53.3334H13.3333ZM60 16.6667C60 14.6667 61.3333 13.3334 63.3333 13.3334H70C72 13.3334 73.3333 14.6667 73.3333 16.6667C73.3333 18.6667 72 20.0001 70 20.0001H63.3333C61.3333 20.0001 60 18.6667 60 16.6667ZM23.3333 66.6667C21.3333 66.6667 20 68.0001 20 70.0001C20 72.0001 21.3333 73.3334 23.3333 73.3334H36.6667C38.6667 73.3334 40 72.0001 40 70.0001C40 68.0001 38.6667 66.6667 36.6667 66.6667H23.3333ZM10 33.3334C8 33.3334 6.66667 32.0001 6.66667 30.0001C6.66667 28.0001 8 26.6667 10 26.6667H40C43.6667 26.6667 46.6667 23.6667 46.6667 20.0001C46.6667 16.3334 43.6667 13.3334 40 13.3334C38 13.3334 36.3333 14.0001 35.3333 15.3334C34 16.6667 32 16.6667 30.6667 15.3334C29.3333 14.0001 29.3333 12.0001 30.6667 10.6667C33 8.33341 36.3333 6.66675 40 6.66675C47.3333 6.66675 53.3333 12.6667 53.3333 20.0001C53.3333 27.3334 47.3333 33.3334 40 33.3334H10ZM63.3333 40.0001C65.3333 40.0001 66.6667 38.6667 66.6667 36.6667C66.6667 34.6667 65.3333 33.3334 63.3333 33.3334C62.3333 33.3334 61.6667 33.6667 61 34.3334C59.6667 35.6667 57.6667 35.6667 56.3333 34.3334C55 33.0001 55 31.0001 56.3333 29.6667C58 27.6667 60.6667 26.6667 63.3333 26.6667C69 26.6667 73.3333 31.0001 73.3333 36.6667C73.3333 42.3334 69 46.6667 63.3333 46.6667H33.3333C31.3333 46.6667 30 45.3334 30 43.3334C30 41.3334 31.3333 40.0001 33.3333 40.0001H63.3333ZM60 60.0001H43.3333C41.3333 60.0001 40 58.6667 40 56.6667C40 54.6667 41.3333 53.3334 43.3333 53.3334H60C65.6667 53.3334 70 57.6667 70 63.3334C70 69.0001 65.6667 73.3334 60 73.3334C57.3333 73.3334 54.6667 72.3334 53 70.3334C51.6667 69.0001 51.6667 67.0001 53 65.6667C54.3333 64.3334 56.3333 64.3334 57.6667 65.6667C58.3333 66.3334 59 66.6667 60 66.6667C62 66.6667 63.3333 65.3334 63.3333 63.3334C63.3333 61.3334 62 60.0001 60 60.0001Z" fill="#5AC777"/>
</svg>
